<?xml version="1.0" encoding="UTF-8" standalone="no"?>
<!-- Created with Inkscape (http://www.inkscape.org/) -->
<svg
   xmlns:dc="http://purl.org/dc/elements/1.1/"
   xmlns:cc="http://creativecommons.org/ns#"
   xmlns:rdf="http://www.w3.org/1999/02/22-rdf-syntax-ns#"
   xmlns:svg="http://www.w3.org/2000/svg"
   xmlns="http://www.w3.org/2000/svg"
   xmlns:sodipodi="http://sodipodi.sourceforge.net/DTD/sodipodi-0.dtd"
   xmlns:inkscape="http://www.inkscape.org/namespaces/inkscape"
   width="744.09448819"
   height="1052.3622047"
   id="svg2"
   sodipodi:version="0.32"
   inkscape:version="0.46"
   sodipodi:docname="carousel.svg"
   inkscape:output_extension="org.inkscape.output.svg.inkscape">
  <defs
     id="defs4">
    <marker
       inkscape:stockid="Arrow2Mend"
       orient="auto"
       refY="0.0"
       refX="0.0"
       id="Arrow2Mend"
       style="overflow:visible;">
      <path
         id="path3225"
         style="font-size:12.0;fill-rule:evenodd;stroke-width:0.62500000;stroke-linejoin:round;"
         d="M 8.7185878,4.0337352 L -2.2072895,0.016013256 L 8.7185884,-4.0017078 C 6.9730900,-1.6296469 6.9831476,1.6157441 8.7185878,4.0337352 z "
         transform="scale(0.6) rotate(180) translate(0,0)" />
    </marker>
    <inkscape:perspective
       sodipodi:type="inkscape:persp3d"
       inkscape:vp_x="0 : 526.18109 : 1"
       inkscape:vp_y="0 : 1000 : 0"
       inkscape:vp_z="744.09448 : 526.18109 : 1"
       inkscape:persp3d-origin="372.04724 : 350.78739 : 1"
       id="perspective10" />
    <inkscape:perspective
       id="perspective2427"
       inkscape:persp3d-origin="372.04724 : 350.78739 : 1"
       inkscape:vp_z="744.09448 : 526.18109 : 1"
       inkscape:vp_y="0 : 1000 : 0"
       inkscape:vp_x="0 : 526.18109 : 1"
       sodipodi:type="inkscape:persp3d" />
  </defs>
  <sodipodi:namedview
     id="base"
     pagecolor="#ffffff"
     bordercolor="#666666"
     borderopacity="1.0"
     gridtolerance="10000"
     guidetolerance="10"
     objecttolerance="10"
     inkscape:pageopacity="0.0"
     inkscape:pageshadow="2"
     inkscape:zoom="3.142296"
     inkscape:cx="115.96551"
     inkscape:cy="692.96464"
     inkscape:document-units="px"
     inkscape:current-layer="layer1"
     showgrid="false"
     inkscape:window-width="1278"
     inkscape:window-height="996"
     inkscape:window-x="1"
     inkscape:window-y="1" />
  <metadata
     id="metadata7">
    <rdf:RDF>
      <cc:Work
         rdf:about="">
        <dc:format>image/svg+xml</dc:format>
        <dc:type
           rdf:resource="http://purl.org/dc/dcmitype/StillImage" />
      </cc:Work>
    </rdf:RDF>
  </metadata>
  <g
     inkscape:label="Layer 1"
     inkscape:groupmode="layer"
     id="layer1">
    <rect
       style="opacity:1;fill:#dedede;fill-opacity:1;fill-rule:evenodd;stroke:none;stroke-width:0.875;stroke-linecap:butt;stroke-linejoin:miter;marker:none;marker-start:none;marker-mid:none;marker-end:none;stroke-miterlimit:4;stroke-dasharray:none;stroke-dashoffset:0;stroke-opacity:1;visibility:visible;display:inline;overflow:visible;enable-background:accumulate"
       id="rect3973"
       width="210.22697"
       height="177.49426"
       x="7.5092597"
       y="272.55222" />
    <g
       id="g3189"
       transform="matrix(0.3574586,0,0,0.3574586,4.4289109,274.3267)">
      <path
         id="path3184"
         d="M 8.6274056,-4.9859317 L 8.6274056,425.67032 L 8.7524056,425.63907 L 7.5024056,426.73282 C 303.02153,375.39595 501.87739,201.89505 501.8774,-4.5796817 L 500.3149,-3.2359317 L 500.5649,-4.9859317 L 8.6274056,-4.9859317 z"
         style="opacity:1;fill:#eaeaea;fill-opacity:1;fill-rule:evenodd;stroke:none;stroke-width:1pt;stroke-linecap:butt;stroke-linejoin:miter;marker:none;marker-start:none;marker-mid:none;marker-end:none;stroke-miterlimit:4;stroke-dasharray:none;stroke-dashoffset:0;stroke-opacity:1;visibility:visible;display:inline;overflow:visible;enable-background:accumulate" />
      <path
         sodipodi:open="true"
         sodipodi:end="1.3195255"
         sodipodi:start="0"
         d="M 501.89258,-4.9786177 A 657.96893,445.27667 0 0 1 7.5178027,426.31513"
         sodipodi:ry="445.27667"
         sodipodi:rx="657.96893"
         sodipodi:cy="-4.9786177"
         sodipodi:cx="-156.07635"
         id="path2411"
         style="opacity:1;fill:none;fill-opacity:1;fill-rule:evenodd;stroke:#000000;stroke-width:1pt;stroke-linecap:butt;stroke-linejoin:miter;marker:none;marker-start:none;marker-mid:none;marker-end:none;stroke-miterlimit:4;stroke-dasharray:none;stroke-dashoffset:0;stroke-opacity:1;visibility:visible;display:inline;overflow:visible;enable-background:accumulate"
         sodipodi:type="arc" />
    </g>
    <g
       id="g3267"
       transform="matrix(0.7624859,-3.8110207e-2,3.8110207e-2,0.7624859,-68.523136,133.08087)">
      <path
         id="path2433"
         d="M 188.71027,272.78813 C 188.54233,272.78813 188.37439,272.78813 188.20645,272.78813 C 187.99442,272.78813 187.63584,273.14123 187.49104,273.25244 C 187.22362,273.45782 186.97792,273.68141 186.73531,273.91023 C 186.53311,274.10093 186.31444,274.29517 186.1005,274.47772 C 185.86338,274.68007 185.56397,274.825 185.30448,275.01943 C 185.02002,275.23256 184.73433,275.43176 184.44799,275.63851 C 184.15861,275.84746 183.86514,276.0249 183.58143,276.24471 C 183.20328,276.53767 182.79743,276.79228 182.41257,277.07016 C 182.17687,277.24035 181.99256,277.42262 181.78784,277.62476 C 181.56422,277.84557 181.44313,278.0378 181.26387,278.28254 C 181.06433,278.55499 180.96455,278.9312 180.86082,279.24987 C 180.7539,279.57832 180.64829,279.90485 180.5283,280.23009 C 180.40734,280.55797 180.25453,280.86536 180.09502,281.17162 C 179.94267,281.46414 179.89364,281.85874 179.83304,282.17764 C 179.74794,282.62542 179.72087,283.03772 179.59121,283.48031 C 179.43943,283.99836 179.25903,284.49833 179.06724,285.00223 C 178.89189,285.46293 178.77731,285.9374 178.59365,286.39518 C 178.42655,286.8117 178.32305,287.20662 178.2309,287.64626 C 178.13566,288.10065 177.94325,288.54301 177.8077,288.98762 C 177.67404,289.42601 177.42755,289.87599 177.23335,290.29028 C 177.03464,290.71418 176.88102,291.14646 176.73961,291.59295 C 176.63428,291.92552 176.44736,292.23632 176.33656,292.57317 C 176.20121,292.98463 176.1386,293.43161 176.02419,293.85004 C 175.9101,294.26731 175.9283,294.75058 175.88312,295.17851 C 175.84775,295.51351 175.87304,295.86078 175.87304,296.19742 C 175.87304,296.55925 175.81217,296.91164 175.76221,297.26793 C 175.72132,297.55947 175.76221,297.88901 175.76221,298.18367 C 175.76221,298.4874 175.7819,298.77508 175.81259,299.07361 C 175.8524,299.46095 175.86753,299.8453 175.88312,300.2344 C 175.89688,300.57783 175.87926,300.92396 175.87304,301.26621 C 175.86654,301.62425 175.90906,301.92743 175.98388,302.27223 C 176.05711,302.60965 176.2803,302.98871 176.41717,303.30405 C 176.59065,303.70376 176.74962,304.10663 176.92098,304.50353 C 177.04162,304.78294 177.20342,305.02725 177.37442,305.27739 C 177.55807,305.54605 177.76667,305.76157 177.97899,305.98676 C 178.24191,306.2656 178.62574,306.50204 178.90602,306.77352 C 179.20087,307.05913 179.55107,307.32184 179.85319,307.61187 C 180.15455,307.90118 180.40401,308.25243 180.65929,308.5792 C 180.90884,308.89862 181.14387,309.21982 181.35456,309.55942 C 181.60829,309.9684 181.89193,310.34505 182.15059,310.75891 C 182.39994,311.15786 182.62623,311.60158 182.8257,312.02288 C 183.02685,312.4477 183.26218,312.85322 183.48066,313.26106 C 183.70667,313.68294 184.02523,314.07041 184.26662,314.48634 C 184.50266,314.89307 184.81561,315.2574 185.1231,315.60844 C 185.46524,315.99902 185.77683,316.4196 186.12066,316.80792 C 186.53739,317.27858 186.94352,317.7448 187.39027,318.18797 C 187.80688,318.60125 188.21801,319.00407 188.68004,319.36166 C 189.05509,319.65193 189.4154,319.96008 189.79851,320.2387 C 190.11883,320.47166 190.43439,320.71329 190.74569,320.96098 C 190.99575,321.15994 191.34514,321.32125 191.62233,321.48978 C 191.89657,321.65652 192.09197,321.87028 192.31759,322.08307 C 192.51934,322.27335 192.76245,322.44752 192.96248,322.62478 C 193.14405,322.78568 193.33756,322.93189 193.51667,323.08909 C 193.72557,323.27244 194.06259,323.35889 194.3127,323.46313 C 194.64356,323.60101 194.83944,323.52222 195.16919,323.46313 C 195.43627,323.41526 195.7064,323.3143 195.98537,323.26966 C 196.1915,323.23668 196.62417,323.13227 196.69071,323.11489"
         style="opacity:1;fill:none;fill-opacity:0.75;fill-rule:evenodd;stroke:#000000;stroke-width:0.625;stroke-linecap:butt;stroke-linejoin:miter;marker:none;marker-start:none;marker-mid:none;marker-end:none;stroke-miterlimit:4;stroke-dasharray:none;stroke-dashoffset:0;stroke-opacity:1;visibility:visible;display:inline;overflow:visible;enable-background:accumulate" />
      <path
         id="path2435"
         d="M 178.71457,307.85693 C 178.9216,307.8238 179.15351,309.01162 179.18815,309.21119 C 179.25159,309.57659 179.18531,310.01454 179.17808,310.38487 C 179.171,310.74725 179.06098,311.11146 179.00678,311.46828 C 178.95454,311.81214 178.96722,312.17806 178.94632,312.52589 C 178.92369,312.90244 178.88008,313.27082 178.86571,313.64799 C 178.85157,314.01893 178.886,314.36392 178.93625,314.73139 C 178.99079,315.13038 179.13862,315.33548 179.35945,315.66003 C 179.53839,315.923 179.80667,316.0864 180.07487,316.26622 C 180.29449,316.41347 180.55434,316.40108 180.80036,316.43389 C 181.13391,316.47836 181.42835,316.28206 181.70723,316.15014 C 181.93736,316.04128 182.16029,315.90995 182.39242,315.8019 C 182.63704,315.68804 182.85249,315.57285 183.10784,315.47946 C 183.31304,315.40441 183.49548,315.24214 183.67211,315.11832 C 183.79349,315.03325 183.90723,314.93776 184.02478,314.84747"
         style="opacity:1;fill:none;fill-opacity:0.75;fill-rule:evenodd;stroke:#000000;stroke-width:0.625;stroke-linecap:butt;stroke-linejoin:miter;marker:none;marker-start:none;marker-mid:none;marker-end:none;stroke-miterlimit:4;stroke-dasharray:none;stroke-dashoffset:0;stroke-opacity:1;visibility:visible;display:inline;overflow:visible;enable-background:accumulate" />
      <path
         id="path2437"
         d="M 181.86845,280.1656 C 182.14941,279.94983 181.58335,280.82207 181.52586,281.17162 C 181.47187,281.49988 181.53741,281.84281 181.58632,282.16474 C 181.63534,282.48744 181.74648,282.80557 181.82815,283.11917 C 181.92003,283.47199 182.01806,283.81472 182.12036,284.16388 C 182.21557,284.48886 182.26728,284.83874 182.33196,285.1699 C 182.40971,285.56797 182.46782,285.96779 182.56372,286.35649 C 182.65847,286.74057 182.74605,287.13777 182.83578,287.53018 C 182.91874,287.89298 182.93396,288.27436 183.00708,288.63938 C 183.07413,288.97413 183.1479,289.30868 183.2086,289.6454 C 183.28172,290.05096 183.36203,290.4566 183.45043,290.85778 C 183.53401,291.23708 183.57346,291.63449 183.63181,292.01857 C 183.6915,292.41152 183.81924,292.801 183.89379,293.19226 C 183.96688,293.57583 184.10226,293.94851 184.19608,294.32726 C 184.31832,294.82072 184.36172,295.33094 184.39761,295.83629 C 184.42685,296.24796 184.44152,296.65249 184.48829,297.06157 C 184.5352,297.47186 184.61117,297.88653 184.65959,298.29974 C 184.70473,298.68494 184.81486,299.05409 184.92158,299.42184 C 185.00108,299.69582 185.08701,299.97488 185.16341,300.2473 C 185.23887,300.51637 185.34458,300.76987 185.44555,301.02116 C 185.55615,301.29645 185.69004,301.55679 185.79822,301.83371 C 185.92823,302.16656 186.10206,302.48498 186.24157,302.81393 C 186.34795,303.06476 186.51416,303.28387 186.6547,303.51041 C 186.83361,303.79878 186.95538,304.09137 187.14844,304.36166 C 187.20831,304.44547 187.31947,304.55753 187.33989,304.58092 C 187.44103,304.72251 187.48096,304.89906 187.55149,305.05813 C 187.67426,305.33499 187.66346,305.81266 187.77317,306.12864 C 187.88212,306.4424 188.10469,306.73103 188.24676,307.03148 C 188.40496,307.36604 188.65453,307.67705 188.84126,307.9988 C 189.04107,308.34309 189.22676,308.69072 189.40554,309.04352 C 189.591,309.4095 189.7387,309.80404 189.90935,310.17851 C 190.08905,310.57282 190.27008,310.95197 190.45347,311.3393 C 190.61556,311.68163 190.72879,312.02992 190.90691,312.35822 C 191.11213,312.73648 191.33363,313.09451 191.57194,313.44163 C 191.78745,313.75552 191.96629,314.06642 192.19668,314.37026 C 192.42083,314.66588 192.59873,315.02738 192.79118,315.33758 C 193.02881,315.72061 193.26319,316.09029 193.49652,316.47258 C 193.74266,316.87586 193.94108,317.30058 194.1414,317.72366 C 194.30158,318.06194 194.46406,318.39601 194.62507,318.72968 C 194.77195,319.03408 194.90434,319.35399 195.05835,319.64541 C 195.19739,319.90849 195.28712,320.24124 195.39087,320.52245 C 195.4962,320.80797 195.6016,321.09057 195.70323,321.3737 C 195.81067,321.67299 195.85718,321.99065 195.93499,322.28944 C 195.94443,322.32571 195.95577,322.36925 195.96522,322.40552"
         style="opacity:1;fill:none;fill-opacity:0.75;fill-rule:evenodd;stroke:#000000;stroke-width:0.625;stroke-linecap:butt;stroke-linejoin:miter;marker:none;marker-start:none;marker-mid:none;marker-end:none;stroke-miterlimit:4;stroke-dasharray:none;stroke-dashoffset:0;stroke-opacity:1;visibility:visible;display:inline;overflow:visible;enable-background:accumulate" />
      <path
         id="path2439"
         d="M 199.78414,329.44765 C 199.86359,329.75274 200.14816,330.2043 200.40887,330.59554 C 200.58301,330.85687 200.78443,331.07769 201.00338,331.30492 C 201.19425,331.50302 201.37693,331.68487 201.57773,331.87242 C 201.75853,332.0413 201.97885,332.14154 202.1823,332.25935 C 202.39566,332.38289 202.57568,332.37547 202.81711,332.40122 C 203.10789,332.43224 203.41097,332.29189 203.68368,332.22065 C 203.90651,332.16244 204.12617,332.01611 204.32856,331.92401 C 204.5344,331.83033 204.72226,331.62913 204.89283,331.48549 C 205.11736,331.29641 205.07627,331.05367 205.11451,330.80191 C 205.16122,330.49446 204.86164,330.40672 204.70138,330.2602 C 204.49701,330.07335 204.18194,330.10029 203.93558,330.06674 C 203.6829,330.03233 203.42424,330.04746 203.16978,330.04094 C 202.88121,330.03356 202.62977,329.96138 202.3536,329.88617 C 202.14518,329.82941 201.87321,329.57648 201.67849,329.46055 C 201.40133,329.29554 201.24673,328.85005 201.11422,328.58351 C 201.00326,328.36032 201.01804,328.02578 200.98322,327.78385 C 200.94353,327.50806 201.10062,327.27694 201.19483,327.03578 C 201.33494,326.67708 201.28059,326.67839 201.50719,327.10027 C 201.67773,327.41778 201.93171,327.71228 202.13192,328.01601 C 202.28681,328.25098 202.37424,328.55052 202.49467,328.80277 C 202.62919,329.08453 202.7515,329.29094 202.93803,329.53793 C 203.04502,329.67961 203.13955,329.83028 203.24032,329.97646"
         style="opacity:1;fill:none;fill-opacity:0.75;fill-rule:evenodd;stroke:#000000;stroke-width:0.625;stroke-linecap:butt;stroke-linejoin:miter;marker:none;marker-start:none;marker-mid:none;marker-end:none;stroke-miterlimit:4;stroke-dasharray:none;stroke-dashoffset:0;stroke-opacity:1;visibility:visible;display:inline;overflow:visible;enable-background:accumulate" />
      <path
         id="path2441"
         d="M 205.17497,330.54395 C 205.33792,330.75973 205.48354,329.51428 205.48734,329.42186 C 205.49896,329.13908 205.24168,328.94635 205.08428,328.75118 C 204.87955,328.49731 204.54231,328.28365 204.30841,328.0547 C 204.12571,327.87588 204.02069,327.66356 203.8852,327.44851 C 203.72896,327.20053 203.59503,326.94545 203.43177,326.70044 C 203.27408,326.46381 203.24332,326.22215 203.15971,325.96528 C 203.08004,325.72055 203.10363,325.44434 203.08917,325.19141 C 203.07629,324.96613 202.84265,324.74729 202.6962,324.57233 C 202.50348,324.34209 202.34164,324.1756 202.1823,323.91455 C 202.00737,323.62793 201.86881,323.3068 201.70872,323.01171 C 201.54068,322.70199 201.29627,322.41928 201.08399,322.14756 C 200.85197,321.85058 200.64594,321.50881 200.4391,321.19313 C 200.25329,320.90956 200.06885,320.62934 199.89498,320.34189 C 199.76773,320.1315 199.6472,319.91477 199.52216,319.7099 C 199.36044,319.44494 199.16375,319.19416 198.98811,318.93604 C 198.80494,318.66684 198.57012,318.42349 198.38353,318.14928 C 198.21532,317.90206 198.04697,317.66946 197.88979,317.41411 C 197.76803,317.21629 197.65114,317.01038 197.5472,316.80792 C 197.52859,316.77168 197.48361,316.66547 197.46659,316.62735"
         style="opacity:1;fill:none;fill-opacity:0.75;fill-rule:evenodd;stroke:#000000;stroke-width:0.625;stroke-linecap:butt;stroke-linejoin:miter;marker:none;marker-start:none;marker-mid:none;marker-end:none;stroke-miterlimit:4;stroke-dasharray:none;stroke-dashoffset:0;stroke-opacity:1;visibility:visible;display:inline;overflow:visible;enable-background:accumulate" />
      <path
         id="path2443"
         d="M 188.55913,288.35563 C 188.38796,288.02223 188.48859,289.10296 188.48859,289.47773 C 188.48859,289.72317 188.63091,290.04503 188.68004,290.29028 C 188.73409,290.56007 188.81102,290.82654 188.88157,291.08994 C 188.95504,291.36424 188.98415,291.64163 189.06294,291.91539 C 189.1528,292.22758 189.20192,292.56039 189.28462,292.86982 C 189.3687,293.18441 189.394,293.49379 189.48615,293.81135 C 189.5517,294.03725 189.70121,294.28452 189.78844,294.50783 C 189.88692,294.75995 190.04139,294.98972 190.18141,295.2172 C 190.31752,295.43831 190.36875,295.73417 190.45347,295.97816 C 190.5371,296.21899 190.56408,296.46734 190.62477,296.71333 C 190.69835,297.01157 190.75247,297.30585 190.83637,297.60327 C 190.93456,297.95131 190.97148,298.35353 191.0379,298.71247 C 191.09867,299.04088 191.16559,299.35781 191.2092,299.6927 C 191.24373,299.95788 191.3358,300.21061 191.40065,300.46656 C 191.47814,300.77239 191.55625,301.07167 191.61225,301.38229 C 191.66219,301.6593 191.75977,301.93758 191.83393,302.20774 C 191.91882,302.51701 192.02006,302.82036 192.11607,303.12348 C 192.20655,303.40918 192.27565,303.68064 192.33774,303.97473 C 192.39685,304.25466 192.52861,304.53353 192.62996,304.80018 C 192.74928,305.11413 192.89262,305.40122 193.04309,305.69012 C 193.17668,305.94662 193.30088,306.20819 193.43606,306.46398 C 193.54636,306.67268 193.60524,306.96201 193.68797,307.18625 C 193.78513,307.4496 193.87023,307.71022 193.97011,307.97301 C 194.07403,308.24643 194.15143,308.51099 194.22202,308.79846 C 194.28998,309.07527 194.41527,309.35746 194.49408,309.63681 C 194.58905,309.97345 194.70005,310.30586 194.79637,310.64283 C 194.90569,311.02531 195.06639,311.39243 195.19942,311.76493 C 195.29428,312.03053 195.4291,312.28834 195.55209,312.53879 C 195.7004,312.84081 195.83725,313.14632 195.99545,313.44163 C 196.16536,313.7588 196.31961,314.0795 196.48919,314.39605 C 196.66193,314.71852 196.78102,315.05665 196.9527,315.37628 C 197.10099,315.65237 197.25236,315.92951 197.39605,316.20173 C 197.52301,316.44224 197.66059,316.67706 197.79911,316.9111 C 197.8231,316.95164 197.74537,316.83372 197.7185,316.79502"
         style="opacity:1;fill:none;fill-opacity:0.75;fill-rule:evenodd;stroke:#000000;stroke-width:0.625;stroke-linecap:butt;stroke-linejoin:miter;marker:none;marker-start:none;marker-mid:none;marker-end:none;stroke-miterlimit:4;stroke-dasharray:none;stroke-dashoffset:0;stroke-opacity:1;visibility:visible;display:inline;overflow:visible;enable-background:accumulate" />
      <path
         sodipodi:nodetypes="csssssssssssssssssssssssssssssssssssc"
         id="path2445"
         d="M 202.76673,285.00223 C 202.97598,285.35578 202.99488,286.10906 203.18994,286.53706 C 203.39874,286.99523 203.5858,287.45782 203.75421,287.93001 C 203.93632,288.44061 204.09051,288.9577 204.27818,289.46483 C 204.41983,289.8476 204.52547,290.2564 204.63085,290.65142 C 204.75537,291.11818 204.96565,291.57833 205.15482,292.01857 C 205.32318,292.41039 205.53903,292.79378 205.74932,293.16647 C 205.95868,293.53752 206.11477,293.93159 206.27329,294.32726 C 206.4384,294.73939 206.54476,295.14765 206.66626,295.57833 C 206.76952,295.94433 206.84303,296.32161 206.93833,296.68754 C 207.00796,296.95493 207.07403,297.21912 207.13985,297.48719 C 207.2182,297.8063 207.33856,298.14083 207.36281,298.46676 C 207.38368,298.74728 207.41962,299.00269 207.47365,299.27932 C 207.52081,299.52077 207.67908,299.77821 207.76901,300.0148 C 207.86659,300.27153 207.82466,300.28862 208.19284,300.72418 C 208.44834,301.02644 207.95453,300.49048 208.76026,301.33005 C 208.95,301.52775 209.1118,301.71756 209.30123,301.91011 C 209.54172,302.15456 209.70718,302.42329 209.96122,302.64626 C 210.19192,302.84875 210.41411,303.02456 210.63633,303.22666 C 210.85875,303.42894 211.01233,303.53595 211.20061,303.79416 C 211.35688,304.00848 211.59009,304.21733 211.76488,304.42615 C 211.96043,304.65976 212.19845,304.8701 212.40976,305.07103 C 212.6005,305.25239 212.76569,305.51045 212.95388,305.71591 C 213.17155,305.95355 213.36287,306.20694 213.58869,306.43818 C 213.76658,306.62034 213.91865,306.8793 214.07236,307.08307 C 214.24117,307.30687 214.40395,307.52938 214.58625,307.74085 C 214.84393,308.03976 214.94903,308.4329 215.12029,308.78556 C 215.23696,309.02579 215.3733,309.25952 215.49312,309.50783 C 215.64234,309.81709 215.95,310.09693 216.17831,310.34618 C 216.40872,310.59774 216.74828,310.8378 217.02472,311.04266 C 217.33222,311.27053 217.59593,311.56339 217.8812,311.80362 C 218.17339,312.04967 218.42185,312.33116 218.65708,312.64197 C 218.85034,312.89732 219.05693,313.14136 219.24151,313.40293 C 219.43135,313.67198 219.56414,314.00088 219.72517,314.29287 C 219.8735,314.56185 220.03939,314.81376 220.18868,315.07963 C 220.35378,315.37365 220.59748,315.61869 220.81341,315.87929 C 220.96418,316.06124 220.84577,315.47817 220.84364,315.45366"
         style="opacity:1;fill:none;fill-opacity:0.75;fill-rule:evenodd;stroke:#000000;stroke-width:0.625;stroke-linecap:butt;stroke-linejoin:miter;marker:none;marker-start:none;marker-mid:none;marker-end:none;stroke-miterlimit:4;stroke-dasharray:none;stroke-dashoffset:0;stroke-opacity:1;visibility:visible;display:inline;overflow:visible;enable-background:accumulate" />
      <path
         id="path2447"
         d="M 218.79815,313.14498 C 219.03483,313.43063 218.8578,313.89452 218.9896,314.24128 C 219.10463,314.54393 219.24627,314.74171 219.44303,315.00225 C 219.61036,315.22381 219.84333,315.31322 220.06776,315.45366 C 220.34616,315.62788 220.60217,315.82761 220.88394,315.99537 C 221.14903,316.15318 221.3215,316.40816 221.50868,316.64025 C 221.58811,316.73875 221.60944,316.87241 221.65982,316.98849"
         style="opacity:1;fill:none;fill-opacity:0.75;fill-rule:evenodd;stroke:#000000;stroke-width:0.625;stroke-linecap:butt;stroke-linejoin:miter;marker:none;marker-start:none;marker-mid:none;marker-end:none;stroke-miterlimit:4;stroke-dasharray:none;stroke-dashoffset:0;stroke-opacity:1;visibility:visible;display:inline;overflow:visible;enable-background:accumulate" />
      <path
         id="path2449"
         d="M 221.21646,315.38918 C 221.31965,315.51712 221.40615,316.48496 221.46837,316.73054 C 221.55654,317.07849 221.61329,317.4179 221.65982,317.77525 C 221.70922,318.1546 221.7102,318.52821 221.7102,318.91024 C 221.7102,319.26965 221.733,319.57036 221.79081,319.90336 C 221.85823,320.29168 222.25241,320.65833 222.48608,320.94808 C 222.80172,321.33947 222.78056,321.27409 223.18134,321.3995 C 223.34073,321.44937 223.64319,321.00785 223.72547,320.92228 C 223.88758,320.75368 223.85799,320.45319 223.87661,320.2387 C 223.90044,319.96424 223.68038,319.6679 223.55417,319.43905 C 223.40588,319.17014 223.27956,318.89308 223.15112,318.6136 C 223.03002,318.3501 223.0234,318.1117 222.97982,317.83974 C 222.93799,317.57875 223.05449,317.26331 223.11081,317.01428 C 223.12886,316.93447 223.07848,316.89013 223.06043,316.82082"
         style="opacity:1;fill:none;fill-opacity:0.75;fill-rule:evenodd;stroke:#000000;stroke-width:0.625;stroke-linecap:butt;stroke-linejoin:miter;marker:none;marker-start:none;marker-mid:none;marker-end:none;stroke-miterlimit:4;stroke-dasharray:none;stroke-dashoffset:0;stroke-opacity:1;visibility:visible;display:inline;overflow:visible;enable-background:accumulate" />
      <path
         id="path2451"
         d="M 223.97737,315.89219 C 224.07711,315.45118 224.48017,316.64967 224.79356,316.97559 C 224.9851,317.1748 225.02483,317.45135 225.10592,317.69786 C 225.19577,317.97099 225.06368,318.26453 225.00516,318.52331 C 224.93848,318.81815 224.7498,318.97509 224.55172,319.1811 C 224.35369,319.38705 224.17707,319.39238 223.92699,319.47774 C 223.48548,319.62845 223.89073,319.63246 223.83631,319.86467"
         style="opacity:1;fill:none;fill-opacity:0.75;fill-rule:evenodd;stroke:#000000;stroke-width:0.625;stroke-linecap:butt;stroke-linejoin:miter;marker:none;marker-start:none;marker-mid:none;marker-end:none;stroke-miterlimit:4;stroke-dasharray:none;stroke-dashoffset:0;stroke-opacity:1;visibility:visible;display:inline;overflow:visible;enable-background:accumulate" />
      <path
         id="path2453"
         d="M 224.58195,320.78041 C 224.2409,320.89682 225.27213,320.57111 225.60974,320.44507 C 225.8953,320.33846 226.08603,320.14226 226.305,319.94206 C 226.47732,319.78451 226.54347,319.30413 226.60729,319.07791 C 226.68647,318.79726 226.48134,318.37928 226.39569,318.12348 C 226.27423,317.76072 226.19941,317.44726 226.16393,317.06587 C 226.13371,316.7409 226.13002,316.41274 226.12363,316.08565 C 226.11827,315.81125 226.08318,315.55772 226.04302,315.28599 C 226.00319,315.01651 225.6887,314.77484 225.50897,314.58952 C 225.2767,314.35002 224.99782,314.15527 224.7331,313.94464 C 224.47419,313.73863 224.17079,313.56349 223.90684,313.36424 C 223.73119,313.23164 223.51555,313.1326 223.33249,313.0031 C 223.13431,312.86292 222.95852,312.70158 222.76822,312.55169 C 222.51642,312.35335 222.34949,312.03744 222.17371,311.77783 C 221.96794,311.47392 221.80783,311.12047 221.63967,310.7976 C 221.54646,310.61864 221.41851,310.46304 221.30715,310.29459"
         style="opacity:1;fill:none;fill-opacity:0.75;fill-rule:evenodd;stroke:#000000;stroke-width:0.625;stroke-linecap:butt;stroke-linejoin:miter;marker:none;marker-start:none;marker-mid:none;marker-end:none;stroke-miterlimit:4;stroke-dasharray:none;stroke-dashoffset:0;stroke-opacity:1;visibility:visible;display:inline;overflow:visible;enable-background:accumulate" />
      <path
         id="path2455"
         d="M 207.08947,283.22235 C 206.78576,282.63922 207.2586,284.52821 207.40183,285.1699 C 207.49842,285.60258 207.58096,286.03771 207.66382,286.47257 C 207.73031,286.82153 207.86043,287.1581 207.97619,287.49149 C 208.09866,287.84421 208.23015,288.18119 208.34901,288.5362 C 208.48427,288.94017 208.55864,289.35795 208.66137,289.77438 C 208.77766,290.2457 209.00032,290.71859 209.18534,291.16733 C 209.35424,291.57696 209.54084,291.98162 209.73954,292.37971 C 209.91761,292.73646 210.11831,293.06536 210.33404,293.39862 C 210.47916,293.62281 210.66103,293.83653 210.82778,294.04351 C 210.99802,294.25481 211.13381,294.47176 211.28122,294.68839 C 211.4486,294.93439 211.58122,295.19085 211.7145,295.46225 C 211.83144,295.70039 211.99491,295.92769 212.12763,296.15873 C 212.30761,296.47205 212.5169,296.75356 212.6919,297.06157 C 212.8433,297.32802 213.04515,297.5769 213.20579,297.84833 C 213.40171,298.17934 213.55318,298.54482 213.70961,298.89304 C 213.85955,299.22682 214.07104,299.56396 214.24365,299.88616 C 214.42038,300.21605 214.63099,300.53958 214.85831,300.84059 C 215.05756,301.10442 215.20714,301.49571 215.3722,301.79502 C 215.58915,302.18841 215.86473,302.54346 216.0977,302.93001 C 216.31378,303.28856 216.5802,303.62065 216.80304,303.97473 C 217.00564,304.29665 217.2812,304.60558 217.48823,304.91626 C 217.71068,305.25008 217.9676,305.5515 218.19357,305.88358 C 218.41166,306.2041 218.60438,306.53645 218.82838,306.85091 C 219.06437,307.18221 219.26412,307.5372 219.49341,307.86983 C 219.71487,308.19109 219.92763,308.49238 220.1383,308.82426 C 220.34797,309.15457 220.53245,309.47064 220.77311,309.77868 C 220.96568,310.02518 221.13901,310.23143 221.33738,310.46226 C 221.51877,310.67333 221.83384,310.87731 222.04272,311.05555 C 222.06485,311.07443 222.06959,311.10714 222.08303,311.13294"
         style="opacity:1;fill:none;fill-opacity:0.75;fill-rule:evenodd;stroke:#000000;stroke-width:0.625;stroke-linecap:butt;stroke-linejoin:miter;marker:none;marker-start:none;marker-mid:none;marker-end:none;stroke-miterlimit:4;stroke-dasharray:none;stroke-dashoffset:0;stroke-opacity:1;visibility:visible;display:inline;overflow:visible;enable-background:accumulate" />
      <path
         id="path2457"
         d="M 205.64856,277.61186 C 206.02,277.92882 205.89474,278.56268 206.10199,279.00481 C 206.29231,279.41082 206.41721,279.75371 206.5252,280.1914 C 206.61871,280.57042 206.68538,280.94264 206.74688,281.32639 C 206.81718,281.76507 206.93596,282.19593 207.02901,282.62906 C 207.03927,282.67679 207.08777,282.79829 207.10962,282.86122"
         style="opacity:1;fill:none;fill-opacity:0.75;fill-rule:evenodd;stroke:#000000;stroke-width:0.625;stroke-linecap:butt;stroke-linejoin:miter;marker:none;marker-start:none;marker-mid:none;marker-end:none;stroke-miterlimit:4;stroke-dasharray:none;stroke-dashoffset:0;stroke-opacity:1;visibility:visible;display:inline;overflow:visible;enable-background:accumulate" />
      <path
         id="path2459"
         d="M 201.08399,285.10541 C 201.15899,285.45454 201.27644,286.0333 201.31574,286.51126 C 201.34825,286.90653 201.24658,287.18084 201.09406,287.53018 C 200.96241,287.83174 200.59313,288.12333 200.38872,288.39432 C 200.15544,288.70359 199.90202,288.99916 199.65315,289.29716 C 199.39794,289.60275 199.15888,289.89181 198.89743,290.1871 C 198.64205,290.47553 198.37523,290.73994 198.1014,291.01255 C 197.90154,291.21153 197.60183,291.33872 197.36582,291.48977 C 197.10304,291.65795 196.7895,291.78859 196.50934,291.94119 C 196.28864,292.0614 196.0786,292.24265 195.86445,292.37971 C 195.61292,292.54069 195.3671,292.70731 195.10873,292.85692 C 194.86007,293.00091 194.63736,293.17623 194.41347,293.35993 C 194.14249,293.58227 193.86201,293.7943 193.60736,294.03061 C 193.37455,294.24666 193.53278,294.49165 193.55698,294.72709 C 193.58029,294.95387 194.03885,295.17914 194.19179,295.29458 C 194.38642,295.44151 194.60244,295.57022 194.80644,295.70731 C 195.03698,295.86223 195.18657,296.18708 195.34049,296.40379 C 195.50507,296.63552 195.64561,296.8907 195.79392,297.13895 C 195.9469,297.39501 196.1353,297.62908 196.29774,297.87412 C 196.56596,298.27876 196.83555,298.67675 197.14415,299.04781 C 197.43235,299.39436 197.653,299.81661 197.92002,300.18281 C 198.2017,300.5691 198.51946,300.9197 198.84704,301.27911 C 199.15627,301.61837 199.45801,301.95691 199.76399,302.29803 C 200.14404,302.72172 200.53592,303.13236 200.93284,303.5362 C 201.32429,303.93448 201.70769,304.33488 202.11177,304.72279 C 202.45898,305.05612 202.80692,305.38582 203.13955,305.72881 C 203.4536,306.05263 203.742,306.42178 204.02627,306.77352 C 204.26986,307.07493 204.56151,307.32105 204.81222,307.61187 C 205.1087,307.95578 205.45927,308.2562 205.77955,308.5792 C 206.12943,308.93205 206.44683,309.29073 206.7368,309.6884 C 206.97128,310.00997 207.18416,310.29896 207.36153,310.65573 C 207.54894,311.03269 207.73239,311.40883 207.93588,311.77783 C 208.12661,312.12368 208.28859,312.48834 208.48,312.83543 C 208.74822,313.32181 208.9408,313.91865 209.11481,314.44765 C 209.26837,314.91448 209.4114,315.34382 209.47756,315.8277 C 209.54923,316.35191 209.4193,316.78738 209.27603,317.28514 C 209.14972,317.72399 208.92171,318.11612 208.70168,318.51042 C 208.50962,318.85459 208.17943,319.08454 207.86535,319.31007 C 207.49301,319.57743 207.0356,319.76454 206.62596,319.96785 C 206.24505,320.15691 205.8789,320.27629 205.46718,320.35478 C 204.99246,320.44528 204.50694,320.5043 204.02627,320.54825 C 203.6159,320.58577 203.39237,320.50848 203.03879,320.38058 C 202.7353,320.2708 202.573,320.15084 202.25284,320.08393 C 202.14852,320.06213 202.21332,320.16343 202.1823,320.22581"
         style="opacity:1;fill:none;fill-opacity:0.75;fill-rule:evenodd;stroke:#000000;stroke-width:0.625;stroke-linecap:butt;stroke-linejoin:miter;marker:none;marker-start:none;marker-mid:none;marker-end:none;stroke-miterlimit:4;stroke-dasharray:none;stroke-dashoffset:0;stroke-opacity:1;visibility:visible;display:inline;overflow:visible;enable-background:accumulate" />
      <path
         id="path2461"
         d="M 195.11881,309.35306 C 194.74916,309.27581 195.78679,310.4743 195.81407,310.50095 C 196.11631,310.79619 196.40457,311.04754 196.67056,311.378 C 196.96827,311.74786 197.36412,312.0833 197.69834,312.43561 C 198.06377,312.82081 198.32456,313.31604 198.66567,313.72537 C 198.9816,314.1045 199.25177,314.49221 199.53223,314.89906 C 199.8238,315.32203 200.13099,315.72904 200.44918,316.12434 C 200.68266,316.41441 200.88659,316.73517 201.09406,317.04008 C 201.28392,317.3191 201.3815,317.67937 201.52734,317.98161 C 201.67955,318.29704 201.71885,318.67296 201.76917,319.01343 C 201.82236,319.37328 201.76077,319.71885 201.70872,320.07103 C 201.66541,320.36403 201.4056,320.66286 201.25528,320.89649 C 201.09617,321.14379 200.87502,321.25448 200.6507,321.41239 C 200.42844,321.56887 200.85822,321.5292 201.14444,321.61876"
         style="opacity:1;fill:none;fill-opacity:0.75;fill-rule:evenodd;stroke:#000000;stroke-width:0.625;stroke-linecap:butt;stroke-linejoin:miter;marker:none;marker-start:none;marker-mid:none;marker-end:none;stroke-miterlimit:4;stroke-dasharray:none;stroke-dashoffset:0;stroke-opacity:1;visibility:visible;display:inline;overflow:visible;enable-background:accumulate" />
      <path
         sodipodi:nodetypes="csssssssssc"
         id="path2463"
         d="M 203.08917,271.45967 C 202.99996,271.52247 202.95959,272.0765 203.00036,272.25201 C 203.06739,272.54063 203.10278,272.75785 203.15804,273.0486 C 203.20535,273.29759 203.32911,273.71151 203.36666,273.96554 C 203.40412,274.219 203.41553,274.4901 203.39389,274.7394 C 203.36698,275.04935 203.34724,275.36153 203.16978,275.57403 C 203.02216,275.75079 202.72424,275.76878 202.53498,275.83198 C 202.3575,275.89124 202.20576,275.84884 202.03116,275.85778 C 201.85107,275.867 201.67082,275.68887 201.52734,275.61272 C 201.29446,275.48912 201.16067,275.28525 201.00338,275.08391 C 200.88403,274.93115 200.86231,274.72278 200.79177,274.54221"
         style="opacity:1;fill:none;fill-opacity:0.75;fill-rule:evenodd;stroke:#000000;stroke-width:0.625;stroke-linecap:butt;stroke-linejoin:miter;marker:none;marker-start:none;marker-mid:none;marker-end:none;stroke-miterlimit:4;stroke-dasharray:none;stroke-dashoffset:0;stroke-opacity:1;visibility:visible;display:inline;overflow:visible;enable-background:accumulate" />
      <path
         id="path2465"
         d="M 197.30537,277.04436 C 197.06099,276.73156 197.65549,277.76338 197.89987,278.07618 C 198.08298,278.31056 198.21142,278.46417 198.41376,278.65657 C 198.57351,278.80847 198.80287,278.80108 198.98811,278.86294 C 199.21888,278.93999 199.46249,278.92719 199.70353,278.94032 C 199.9624,278.95442 200.2021,278.87588 200.44918,278.82424 C 200.66189,278.77979 200.90624,278.6286 201.10414,278.54049 C 201.36672,278.42359 201.40956,278.2032 201.5475,277.98589 C 201.62592,277.86235 201.53406,277.69355 201.52734,277.54737"
         style="opacity:1;fill:none;fill-opacity:0.75;fill-rule:evenodd;stroke:#000000;stroke-width:0.625;stroke-linecap:butt;stroke-linejoin:miter;marker:none;marker-start:none;marker-mid:none;marker-end:none;stroke-miterlimit:4;stroke-dasharray:none;stroke-dashoffset:0;stroke-opacity:1;visibility:visible;display:inline;overflow:visible;enable-background:accumulate" />
      <path
         id="path2467"
         d="M 199.2904,276.07704 C 199.27363,275.71207 199.7277,276.6786 200.02597,276.88959 C 200.21676,277.02455 200.42664,277.13654 200.62047,277.26362 C 200.78513,277.37157 201.0017,277.34188 201.18475,277.3668 C 201.35263,277.38966 201.5846,277.28275 201.74902,277.25073 C 201.7965,277.24148 201.84367,277.23342 201.89009,277.22493"
         style="opacity:1;fill:none;fill-opacity:0.75;fill-rule:evenodd;stroke:#000000;stroke-width:0.625;stroke-linecap:butt;stroke-linejoin:miter;marker:none;marker-start:none;marker-mid:none;marker-end:none;stroke-miterlimit:4;stroke-dasharray:none;stroke-dashoffset:0;stroke-opacity:1;visibility:visible;display:inline;overflow:visible;enable-background:accumulate" />
      <path
         id="path2469"
         d="M 202.48459,276.34789 C 202.85486,276.27577 201.77351,276.60006 201.4165,276.72192 C 201.23734,276.78308 200.99089,276.75053 200.80185,276.76061 C 200.6209,276.77026 200.44484,276.7951 200.2678,276.8122 C 200.06432,276.83186 199.90557,276.7527 199.71361,276.70902 C 199.6574,276.69623 199.55758,276.64245 199.502,276.61874"
         style="opacity:1;fill:none;fill-opacity:0.75;fill-rule:evenodd;stroke:#000000;stroke-width:0.625;stroke-linecap:butt;stroke-linejoin:miter;marker:none;marker-start:none;marker-mid:none;marker-end:none;stroke-miterlimit:4;stroke-dasharray:none;stroke-dashoffset:0;stroke-opacity:1;visibility:visible;display:inline;overflow:visible;enable-background:accumulate" />
      <path
         id="path2471"
         d="M 205.23543,272.18194 C 204.83152,272.09002 204.89947,272.94024 204.70138,273.30403 C 204.59089,273.50696 204.33607,273.67557 204.16734,273.84574 C 204.00544,274.00901 203.88359,274.22183 203.74413,274.40034"
         style="opacity:1;fill:none;fill-opacity:0.75;fill-rule:evenodd;stroke:#000000;stroke-width:0.625;stroke-linecap:butt;stroke-linejoin:miter;marker:none;marker-start:none;marker-mid:none;marker-end:none;stroke-miterlimit:4;stroke-dasharray:none;stroke-dashoffset:0;stroke-opacity:1;visibility:visible;display:inline;overflow:visible;enable-background:accumulate" />
      <path
         id="path2473"
         d="M 203.6736,271.62734 C 203.21056,272.0943 204.34707,272.19663 204.45955,272.22063 C 204.7257,272.27741 204.8992,272.08066 205.10444,271.97557 C 205.13506,271.95989 205.15818,271.93258 205.18505,271.91109"
         style="opacity:1;fill:none;fill-opacity:0.75;fill-rule:evenodd;stroke:#000000;stroke-width:0.625;stroke-linecap:butt;stroke-linejoin:miter;marker:none;marker-start:none;marker-mid:none;marker-end:none;stroke-miterlimit:4;stroke-dasharray:none;stroke-dashoffset:0;stroke-opacity:1;visibility:visible;display:inline;overflow:visible;enable-background:accumulate" />
      <path
         id="path2475"
         d="M 201.02353,271.34359 C 201.35956,271.17154 200.40416,271.81442 200.03605,271.89819 C 199.84328,271.94205 199.55476,271.55948 199.44155,271.44677 C 199.42066,271.42598 199.40124,271.40378 199.38109,271.38228"
         style="opacity:1;fill:none;fill-opacity:0.75;fill-rule:evenodd;stroke:#000000;stroke-width:0.625;stroke-linecap:butt;stroke-linejoin:miter;marker:none;marker-start:none;marker-mid:none;marker-end:none;stroke-miterlimit:4;stroke-dasharray:none;stroke-dashoffset:0;stroke-opacity:1;visibility:visible;display:inline;overflow:visible;enable-background:accumulate" />
      <path
         id="path2477"
         d="M 204.38902,265.6815 C 204.03481,265.32887 202.9142,266.78355 202.75665,266.99707 C 202.411,267.46553 202.38275,268.25053 202.26292,268.80274 C 202.13754,269.38048 201.52948,269.63988 201.07391,269.89905 C 200.59014,270.17426 199.96796,270.26555 199.43147,270.38916 C 198.92593,270.50563 198.4423,270.73839 197.9704,270.94376 C 197.47198,271.16067 197.19845,271.62311 196.90232,272.04006 C 196.56093,272.52073 196.51515,273.29783 196.40858,273.85863 C 196.28764,274.49504 196.40454,275.12456 196.57987,275.7288 C 196.63391,275.91503 196.77468,276.06414 196.87209,276.23181"
         style="opacity:1;fill:none;fill-opacity:0.75;fill-rule:evenodd;stroke:#000000;stroke-width:0.625;stroke-linecap:butt;stroke-linejoin:miter;marker:none;marker-start:none;marker-mid:none;marker-end:none;stroke-miterlimit:4;stroke-dasharray:none;stroke-dashoffset:0;stroke-opacity:1;visibility:visible;display:inline;overflow:visible;enable-background:accumulate" />
      <path
         id="path2479"
         d="M 200.822,262.75373 C 200.86421,262.89918 199.32231,265.08847 199.13926,265.39775 C 198.73184,266.08612 198.08424,266.63953 197.46659,267.12604 C 196.83508,267.62348 196.32901,268.27341 195.92491,268.95751 C 195.54846,269.59481 195.25574,270.09209 195.10873,270.82768 C 194.97137,271.51499 195.19307,272.24594 195.25988,272.93 C 195.3157,273.50168 195.27311,274.13106 195.19942,274.69698 C 195.11679,275.3316 194.50412,275.96615 194.08095,276.39948 C 193.6462,276.84466 193.24848,277.1898 192.96248,277.71504 C 192.66512,278.26113 193.57853,279.68931 193.80889,280.1656 C 193.85465,280.26023 193.9298,280.33757 193.99026,280.42356"
         style="opacity:1;fill:none;fill-opacity:0.75;fill-rule:evenodd;stroke:#000000;stroke-width:0.625;stroke-linecap:butt;stroke-linejoin:miter;marker:none;marker-start:none;marker-mid:none;marker-end:none;stroke-miterlimit:4;stroke-dasharray:none;stroke-dashoffset:0;stroke-opacity:1;visibility:visible;display:inline;overflow:visible;enable-background:accumulate" />
      <path
         id="path2481"
         d="M 199.04857,260.57402 C 199.16366,260.812 198.76643,260.1269 198.62536,259.90334 C 198.61558,259.88784 197.19592,261.30199 197.09376,261.42527 C 196.37188,262.29648 195.79506,263.22487 195.21957,264.19827 C 194.64107,265.17676 193.98843,266.126 193.47637,267.13894 C 193.05873,267.9651 192.83664,268.9829 192.57958,269.87325 C 192.25691,270.9908 191.90125,272.09688 191.58202,273.21375 C 191.35505,274.00783 191.19464,274.82743 191.13866,275.65141"
         style="opacity:1;fill:none;fill-opacity:0.75;fill-rule:evenodd;stroke:#000000;stroke-width:0.625;stroke-linecap:butt;stroke-linejoin:miter;marker:none;marker-start:none;marker-mid:none;marker-end:none;stroke-miterlimit:4;stroke-dasharray:none;stroke-dashoffset:0;stroke-opacity:1;visibility:visible;display:inline;overflow:visible;enable-background:accumulate" />
      <path
         id="path2483"
         d="M 203.17986,259.92914 C 202.99433,260.57825 202.79781,258.6149 202.43421,258.04607 C 202.11027,257.53928 201.71431,257.26881 201.17467,257.05295 C 200.72436,256.87283 200.018,256.97557 199.54231,256.97557 C 198.92049,256.97557 198.25294,257.14072 197.64796,257.27221 C 196.94644,257.4247 196.13054,258.037 195.53194,258.42011 C 194.80527,258.88517 194.15835,259.50766 193.5469,260.1097 C 192.83392,260.81172 192.19446,261.59252 191.61225,262.40549 C 191.12467,263.08633 190.80703,263.87355 190.50385,264.64969 C 190.2418,265.32056 189.97827,265.98038 189.78844,266.67462 C 189.6521,267.17322 189.4889,267.66224 189.34508,268.15786 C 189.2225,268.58029 189.05088,269.00294 188.9118,269.42183 C 188.73924,269.94152 188.76289,270.54547 188.73042,271.08563 C 188.69784,271.62775 188.68741,272.1693 188.71027,272.71074 C 188.72897,273.15362 188.77565,273.58409 188.88157,274.01341 C 188.92137,274.17475 189.02264,274.31435 189.09317,274.46483"
         style="opacity:1;fill:none;fill-opacity:0.75;fill-rule:evenodd;stroke:#000000;stroke-width:0.625;stroke-linecap:butt;stroke-linejoin:miter;marker:none;marker-start:none;marker-mid:none;marker-end:none;stroke-miterlimit:4;stroke-dasharray:none;stroke-dashoffset:0;stroke-opacity:1;visibility:visible;display:inline;overflow:visible;enable-background:accumulate" />
      <path
         id="path2485"
         d="M 205.59818,262.04436 C 205.75695,262.68795 206.04222,263.46764 206.33375,264.17247 C 206.58117,264.77068 206.69702,265.40317 206.84764,266.02974 C 206.94323,266.42741 207.03331,266.81364 207.09955,267.21633 C 207.18219,267.71879 206.4265,268.43547 206.1423,268.76405 C 205.88392,269.06277 205.60026,269.34165 205.34627,269.64109"
         style="opacity:1;fill:none;fill-opacity:0.75;fill-rule:evenodd;stroke:#000000;stroke-width:0.625;stroke-linecap:butt;stroke-linejoin:miter;marker:none;marker-start:none;marker-mid:none;marker-end:none;stroke-miterlimit:4;stroke-dasharray:none;stroke-dashoffset:0;stroke-opacity:1;visibility:visible;display:inline;overflow:visible;enable-background:accumulate" />
      <path
         id="path2487"
         d="M 206.89802,268.76405 C 206.64258,269.05937 207.05762,269.96157 207.20031,270.40206 C 207.37083,270.92846 207.32765,271.4239 207.26077,271.94978 C 207.21419,272.31597 206.76805,272.81604 206.60581,273.16216 C 206.37179,273.6614 206.01532,274.14327 205.71909,274.6067 C 205.34171,275.19708 205.03341,275.74417 204.72154,276.37368 C 204.45804,276.90554 204.37258,277.61493 204.27818,278.19226 C 204.21371,278.5865 204.06756,278.96951 203.93558,279.32725 C 203.9213,279.36596 203.78543,279.32725 203.76429,279.32725"
         style="opacity:1;fill:none;fill-opacity:0.75;fill-rule:evenodd;stroke:#000000;stroke-width:0.625;stroke-linecap:butt;stroke-linejoin:miter;marker:none;marker-start:none;marker-mid:none;marker-end:none;stroke-miterlimit:4;stroke-dasharray:none;stroke-dashoffset:0;stroke-opacity:1;visibility:visible;display:inline;overflow:visible;enable-background:accumulate" />
      <path
         id="path3263"
         d="M 206.2946,329.07386 L 221.16268,321.42117"
         style="opacity:1;fill:none;fill-opacity:1;fill-rule:evenodd;stroke:#000000;stroke-width:0.625;stroke-linecap:butt;stroke-linejoin:miter;marker:none;marker-start:none;marker-mid:none;marker-end:none;stroke-miterlimit:4;stroke-dasharray:none;stroke-dashoffset:0;stroke-opacity:1;visibility:visible;display:inline;overflow:visible;enable-background:accumulate" />
      <path
         sodipodi:nodetypes="cc"
         id="path3265"
         d="M 205.85729,331.47899 L 223.67712,322.07711"
         style="opacity:1;fill:none;fill-opacity:1;fill-rule:evenodd;stroke:#000000;stroke-width:0.625;stroke-linecap:butt;stroke-linejoin:miter;marker:none;marker-start:none;marker-mid:none;marker-end:none;stroke-miterlimit:4;stroke-dasharray:none;stroke-dashoffset:0;stroke-opacity:1;visibility:visible;display:inline;overflow:visible;enable-background:accumulate" />
    </g>
    <path
       style="opacity:1;fill:none;fill-opacity:1;fill-rule:evenodd;stroke:#000000;stroke-width:0.87500000000000000;stroke-linecap:butt;stroke-linejoin:miter;marker:none;marker-start:none;marker-mid:none;marker-end:url(#Arrow2Mend);stroke-miterlimit:4;stroke-dasharray:none;stroke-dashoffset:0;stroke-opacity:1;visibility:visible;display:inline;overflow:visible;enable-background:accumulate"
       d="M 88.51662,415.22693 C 120.32728,402.31825 140.61234,382.95524 140.61234,382.95524"
       id="path3193" />
  </g>
</svg>
