<?xml version="1.0" encoding="UTF-8" standalone="no"?>
<!-- Created with Inkscape (http://www.inkscape.org/) -->

<svg
   xmlns:dc="http://purl.org/dc/elements/1.1/"
   xmlns:cc="http://creativecommons.org/ns#"
   xmlns:rdf="http://www.w3.org/1999/02/22-rdf-syntax-ns#"
   xmlns:svg="http://www.w3.org/2000/svg"
   xmlns="http://www.w3.org/2000/svg"
   xmlns:xlink="http://www.w3.org/1999/xlink"
   xmlns:sodipodi="http://sodipodi.sourceforge.net/DTD/sodipodi-0.dtd"
   xmlns:inkscape="http://www.inkscape.org/namespaces/inkscape"
   width="744.09448819"
   height="1052.3622047"
   id="svg2"
   sodipodi:version="0.32"
   inkscape:version="0.48.3.1 r9886"
   sodipodi:docname="einsteins-ring.svg"
   inkscape:output_extension="org.inkscape.output.svg.inkscape"
   version="1.1">
  <defs
     id="defs4">
    <inkscape:perspective
       sodipodi:type="inkscape:persp3d"
       inkscape:vp_x="0 : 526.18109 : 1"
       inkscape:vp_y="0 : 1000 : 0"
       inkscape:vp_z="744.09448 : 526.18109 : 1"
       inkscape:persp3d-origin="372.04724 : 350.78739 : 1"
       id="perspective10" />
    <inkscape:perspective
       id="perspective2444"
       inkscape:persp3d-origin="372.04724 : 350.78739 : 1"
       inkscape:vp_z="744.09448 : 526.18109 : 1"
       inkscape:vp_y="0 : 1000 : 0"
       inkscape:vp_x="0 : 526.18109 : 1"
       sodipodi:type="inkscape:persp3d" />
  </defs>
  <sodipodi:namedview
     id="base"
     pagecolor="#ffffff"
     bordercolor="#666666"
     borderopacity="1.0"
     gridtolerance="10000"
     guidetolerance="10"
     objecttolerance="10"
     inkscape:pageopacity="0.0"
     inkscape:pageshadow="2"
     inkscape:zoom="21.479992"
     inkscape:cx="22.262182"
     inkscape:cy="582.6278"
     inkscape:document-units="px"
     inkscape:current-layer="layer1"
     showgrid="false"
     inkscape:window-width="1278"
     inkscape:window-height="996"
     inkscape:window-x="3"
     inkscape:window-y="4"
     inkscape:window-maximized="0" />
  <metadata
     id="metadata7">
    <rdf:RDF>
      <cc:Work
         rdf:about="">
        <dc:format>image/svg+xml</dc:format>
        <dc:type
           rdf:resource="http://purl.org/dc/dcmitype/StillImage" />
      </cc:Work>
    </rdf:RDF>
  </metadata>
  <g
     inkscape:label="Layer 1"
     inkscape:groupmode="layer"
     id="layer1">
    <rect
       style="fill:#000000;fill-opacity:1;fill-rule:evenodd;stroke:none;stroke-width:0.53544941000000001pt;stroke-linecap:butt;stroke-linejoin:miter;stroke-opacity:1"
       id="rect2383"
       width="184.25197"
       height="141.25984"
       x="3.2957809"
       y="337.20807" />
    <image
       sodipodi:absref="/home/bcrowell/Documents/writing/books/genrel/ch03/figs/einsteins-ring-bitmaps/einsteins-ring.jpg"
       xlink:href="einsteins-ring-bitmaps/einsteins-ring.jpg"
       width="54.514324"
       height="53.523159"
       id="image2446"
       x="36.439228"
       y="401.65427" />
    <path
       style="fill:#ffffff;fill-opacity:1;fill-rule:evenodd;stroke:none;stroke-width:0.25pt;stroke-linecap:butt;stroke-linejoin:miter;stroke-opacity:1"
       d="M 15.368372,468.492 C 19.687196,469.70695 22.754789,469.09592 24.444306,468.51994 C 26.133819,467.94396 29.247146,464.68992 29.247146,464.68992 C 29.247146,464.68992 29.389478,461.46895 29.315575,461.0846 C 29.241672,460.70024 27.908978,458.81068 27.908978,458.81068 L 25.663969,459.01841 L 16.155575,464.66369 L 15.050417,467.19847 L 14.679509,468.15032 L 15.368372,468.492 z"
       id="path2046" />
    <path
       style="fill:#585858;fill-opacity:1;fill-rule:evenodd;stroke:none;stroke-width:0.25000000000000000pt;stroke-linecap:butt;stroke-linejoin:miter;stroke-opacity:1"
       d="M 18.051668,465.88232 C 23.087524,470.46631 25.993579,466.85448 26.09052,465.55812 C 26.187461,464.26177 26.069564,462.92839 25.766391,461.71174 C 25.46321,460.49508 25.167248,459.67606 25.167248,459.67606 C 25.167248,459.67606 21.632503,461.09848 20.394667,462.22301 C 19.156831,463.34754 18.155482,465.70202 18.051668,465.88232 z"
       id="path1309" />
    <path
       style="fill:#c3c3c3;fill-opacity:1;fill-rule:evenodd;stroke:none;stroke-width:0.25pt;stroke-linecap:butt;stroke-linejoin:miter;stroke-opacity:1"
       d="M 8.5604897,466.57562 C 11.911351,462.39629 14.609775,459.14507 18.137309,457.32502 C 21.664848,455.50496 27.548066,454.41291 30.193196,454.12548 C 32.838324,453.83804 36.268569,454.03275 36.268569,454.03275 C 36.268569,454.03275 35.813064,461.38668 34.767719,462.79213 C 33.72238,464.19758 28.942927,465.62848 28.942927,465.62848 C 28.942927,465.62848 28.827118,459.98466 28.516376,459.08877 C 28.205634,458.19288 27.805861,457.55418 27.805861,457.55418 C 27.805861,457.55418 20.211471,458.02928 19.062668,458.89663 C 17.913864,459.76398 12.71055,464.39211 11.302212,465.71024 C 9.8938811,467.02836 9.5085396,467.18493 9.2122306,467.08432 C 8.9159215,466.98371 8.6567409,466.71608 8.5604897,466.57562 z"
       id="path2040" />
    <path
       style="fill:#353535;fill-opacity:1;fill-rule:evenodd;stroke:none;stroke-width:0.25pt;stroke-linecap:butt;stroke-linejoin:miter;stroke-opacity:1"
       d="M 15.878565,455.30066 C 20.591681,453.16462 26.920413,450.06827 29.62466,450.08832 C 32.328911,450.10838 36.80345,451.05285 36.263089,450.04307 C 35.722723,449.0333 32.849018,447.05161 31.678563,446.72604 C 30.508112,446.40047 24.88318,446.92366 23.068743,448.04193 C 20.963982,449.33915 15.893345,455.37752 15.878565,455.30066 z"
       id="path2042"
       sodipodi:nodetypes="cssssc" />
    <path
       style="fill:#9d9d9d;fill-opacity:1;fill-rule:evenodd;stroke:none;stroke-width:0.25pt;stroke-linecap:butt;stroke-linejoin:miter;stroke-opacity:1"
       d="M 11.04164,468.31624 C 15.266648,464.36186 18.438749,462.13371 20.551079,460.51573 C 22.663409,458.89775 25.857162,457.86251 25.857162,457.86251 L 27.390611,458.27541 L 27.723694,458.9274 C 27.723694,458.9274 22.240815,460.77825 21.040104,461.73576 C 19.83939,462.69326 13.657208,467.87506 13.657208,467.87506 L 12.145406,468.65508 L 11.04164,468.31624 z"
       id="path2044"
       sodipodi:nodetypes="cscccsccc" />
    <path
       style="fill:#9d9d9d;fill-opacity:1;fill-rule:evenodd;stroke:none;stroke-width:0.25pt;stroke-linecap:butt;stroke-linejoin:miter;stroke-opacity:1"
       d="M 13.90056,468.87515 C 16.260279,469.46446 23.990589,469.04286 25.547856,468.37956 C 27.105123,467.71626 29.712498,464.54857 29.712498,464.54857 L 29.88104,466.2217 C 29.88104,466.2217 28.120995,468.22013 26.743938,469.02409 C 25.366875,469.82805 16.652879,470.97525 15.669709,470.64142 C 14.686533,470.3076 13.27729,469.88208 13.27729,469.88208 L 12.80231,469.27046 L 13.90056,468.87515 z"
       id="path2048" />
    <path
       sodipodi:type="arc"
       style="fill:#000000;fill-opacity:1;fill-rule:evenodd;stroke:none;stroke-width:1pt;stroke-linecap:butt;stroke-linejoin:miter;stroke-opacity:1"
       id="path13901"
       sodipodi:cx="95.175934"
       sodipodi:cy="737.2691"
       sodipodi:rx="0.67500663"
       sodipodi:ry="1.215012"
       d="M 95.85094,737.2691 A 0.67500663,1.215012 0 1 1 94.500927,737.2691 A 0.67500663,1.215012 0 1 1 95.85094,737.2691 z"
       transform="matrix(1.2874924,-0.2564528,0.2522084,1.3116861,-284.25607,-479.22707)" />
    <path
       sodipodi:type="arc"
       style="fill:#ffffff;fill-opacity:1;stroke:none;stroke-width:1;stroke-linecap:round;stroke-miterlimit:4;stroke-dasharray:2, 2;stroke-dashoffset:0;stroke-opacity:1"
       id="path2634"
       sodipodi:cx="168.03291"
       sodipodi:cy="355.39804"
       sodipodi:rx="4.9664903"
       sodipodi:ry="4.9664903"
       d="M 172.9994,355.39804 A 4.9664903,4.9664903 0 1 1 163.06642,355.39804 A 4.9664903,4.9664903 0 1 1 172.9994,355.39804 z"
       transform="translate(-0.5249616,-1.8373655)" />
    <path
       sodipodi:type="arc"
       style="fill:#929292;fill-opacity:1;stroke:none;stroke-width:1;stroke-linecap:round;stroke-miterlimit:4;stroke-dasharray:2, 2;stroke-dashoffset:0;stroke-opacity:1"
       id="path2636"
       sodipodi:cx="94.363312"
       sodipodi:cy="401.33807"
       sodipodi:rx="4.138742"
       sodipodi:ry="4.138742"
       d="M 98.502054,401.33807 A 4.138742,4.138742 0 1 1 90.22457,401.33807 A 4.138742,4.138742 0 1 1 98.502054,401.33807 z"
       transform="translate(5.2496156,5.7745772)" />
    <path
       style="opacity:1;fill:none;fill-opacity:1;fill-rule:evenodd;stroke:#ffffff;stroke-width:1;stroke-linecap:butt;stroke-linejoin:miter;marker:none;marker-start:none;marker-mid:none;marker-end:none;stroke-miterlimit:4;stroke-dasharray:2, 2;stroke-dashoffset:0;stroke-opacity:1;visibility:visible;display:inline;overflow:visible;enable-background:accumulate"
       d="M 33.807918,448.47845 C 33.807918,448.47845 49.250358,427.32457 62.810569,413.60095 C 92.096347,383.96225 84.916956,389.204 166.7913,354.98418 C 138.58985,396.16024 119.28411,416.85495 108.66704,423.45824 C 87.143619,436.84476 39.109636,457.58074 39.109636,457.58074"
       id="path2638"
       sodipodi:nodetypes="cscsc" />
  </g>
</svg>
