<?xml version="1.0" encoding="UTF-8" standalone="no"?>
<!-- Created with Inkscape (http://www.inkscape.org/) -->
<svg
   xmlns:dc="http://purl.org/dc/elements/1.1/"
   xmlns:cc="http://creativecommons.org/ns#"
   xmlns:rdf="http://www.w3.org/1999/02/22-rdf-syntax-ns#"
   xmlns:svg="http://www.w3.org/2000/svg"
   xmlns="http://www.w3.org/2000/svg"
   xmlns:sodipodi="http://sodipodi.sourceforge.net/DTD/sodipodi-0.dtd"
   xmlns:inkscape="http://www.inkscape.org/namespaces/inkscape"
   width="744.09448819"
   height="1052.3622047"
   id="svg2"
   sodipodi:version="0.32"
   inkscape:version="0.46"
   sodipodi:docname="path-dependence-of-parallel-transport.svg"
   inkscape:output_extension="org.inkscape.output.svg.inkscape">
  <defs
     id="defs4">
    <marker
       inkscape:stockid="Arrow2Mend"
       orient="auto"
       refY="0.0"
       refX="0.0"
       id="Arrow2Mend"
       style="overflow:visible;">
      <path
         id="path3711"
         style="font-size:12.0;fill-rule:evenodd;stroke-width:0.62500000;stroke-linejoin:round;"
         d="M 8.7185878,4.0337352 L -2.2072895,0.016013256 L 8.7185884,-4.0017078 C 6.9730900,-1.6296469 6.9831476,1.6157441 8.7185878,4.0337352 z "
         transform="scale(0.6) rotate(180) translate(0,0)" />
    </marker>
    <inkscape:perspective
       sodipodi:type="inkscape:persp3d"
       inkscape:vp_x="0 : 526.18109 : 1"
       inkscape:vp_y="0 : 1000 : 0"
       inkscape:vp_z="744.09448 : 526.18109 : 1"
       inkscape:persp3d-origin="372.04724 : 350.78739 : 1"
       id="perspective10" />
  </defs>
  <sodipodi:namedview
     id="base"
     pagecolor="#ffffff"
     bordercolor="#666666"
     borderopacity="1.0"
     gridtolerance="10000"
     guidetolerance="10"
     objecttolerance="10"
     inkscape:pageopacity="0.0"
     inkscape:pageshadow="2"
     inkscape:zoom="2.3602523"
     inkscape:cx="137.48097"
     inkscape:cy="655.51247"
     inkscape:document-units="px"
     inkscape:current-layer="layer1"
     showgrid="false"
     inkscape:window-width="1278"
     inkscape:window-height="996"
     inkscape:window-x="2"
     inkscape:window-y="3" />
  <metadata
     id="metadata7">
    <rdf:RDF>
      <cc:Work
         rdf:about="">
        <dc:format>image/svg+xml</dc:format>
        <dc:type
           rdf:resource="http://purl.org/dc/dcmitype/StillImage" />
      </cc:Work>
    </rdf:RDF>
  </metadata>
  <g
     inkscape:label="Layer 1"
     inkscape:groupmode="layer"
     id="layer1">
    <rect
       style="fill:#dedede;fill-opacity:1;fill-rule:evenodd;stroke:none;stroke-width:0.53544941000000001pt;stroke-linecap:butt;stroke-linejoin:miter;stroke-opacity:1"
       id="rect2383"
       width="184.25197"
       height="141.25984"
       x="3.2957809"
       y="337.20807" />
    <path
       sodipodi:type="arc"
       style="fill:#e9e9e9;fill-opacity:1;stroke:#000000;stroke-width:0.875;stroke-linecap:round;stroke-miterlimit:4;stroke-dasharray:none;stroke-dashoffset:0;stroke-opacity:1"
       id="path2380"
       sodipodi:cx="103.45292"
       sodipodi:cy="412.47586"
       sodipodi:rx="58.091671"
       sodipodi:ry="58.091671"
       d="M 161.54459,412.47586 A 58.091671,58.091671 0 1 1 45.361248,412.47586 A 58.091671,58.091671 0 1 1 161.54459,412.47586 z"
       transform="translate(-8.7795974,-4.3897987)" />
    <path
       style="fill:none;fill-rule:evenodd;stroke:#000000;stroke-width:1px;stroke-linecap:butt;stroke-linejoin:miter;stroke-opacity:1"
       d="M 63.798407,413.50015 C 101.55068,426.66954 140.1809,410.86627 140.1809,410.86627 L 140.1809,410.86627 L 140.1809,410.86627"
       id="path2382" />
    <path
       style="fill:none;fill-rule:evenodd;stroke:#000000;stroke-width:1px;stroke-linecap:butt;stroke-linejoin:miter;stroke-opacity:1"
       d="M 64.145187,413.95794 C 69.412945,369.18199 98.038837,354.9695 98.038837,354.9695"
       id="path2384"
       sodipodi:nodetypes="cc" />
    <path
       style="fill:none;fill-rule:evenodd;stroke:#000000;stroke-width:1px;stroke-linecap:butt;stroke-linejoin:miter;stroke-opacity:1"
       d="M 97.65143,354.9927 C 133.94042,367.86945 139.88181,411.3847 139.88181,411.3847"
       id="path2386"
       sodipodi:nodetypes="cc" />
    <text
       xml:space="preserve"
       style="font-size:10px;font-style:normal;font-variant:normal;font-weight:normal;font-stretch:normal;text-align:start;line-height:125%;writing-mode:lr-tb;text-anchor:start;fill:#000000;fill-opacity:1;stroke:none;stroke-width:1px;stroke-linecap:butt;stroke-linejoin:miter;stroke-opacity:1;font-family:Bitstream Vera Sans;-inkscape-font-specification:Bitstream Vera Sans"
       x="56.149567"
       y="416.21313"
       id="text2388"
       sodipodi:linespacing="125%"><tspan
         sodipodi:role="line"
         id="tspan2390"
         x="56.149567"
         y="416.21313">A</tspan></text>
    <text
       xml:space="preserve"
       style="font-size:10px;font-style:normal;font-variant:normal;font-weight:normal;font-stretch:normal;text-align:start;line-height:125%;writing-mode:lr-tb;text-anchor:start;fill:#000000;fill-opacity:1;stroke:none;stroke-width:1px;stroke-linecap:butt;stroke-linejoin:miter;stroke-opacity:1;font-family:Bitstream Vera Sans;-inkscape-font-specification:Bitstream Vera Sans"
       x="97.623672"
       y="349.21649"
       id="text2392"
       sodipodi:linespacing="125%"><tspan
         sodipodi:role="line"
         id="tspan2394"
         x="97.623672"
         y="349.21649">B</tspan></text>
    <text
       xml:space="preserve"
       style="font-size:10px;font-style:normal;font-variant:normal;font-weight:normal;font-stretch:normal;text-align:start;line-height:125%;writing-mode:lr-tb;text-anchor:start;fill:#000000;fill-opacity:1;stroke:none;stroke-width:1px;stroke-linecap:butt;stroke-linejoin:miter;stroke-opacity:1;font-family:Bitstream Vera Sans;-inkscape-font-specification:Bitstream Vera Sans"
       x="141.65004"
       y="418.44635"
       id="text2396"
       sodipodi:linespacing="125%"><tspan
         sodipodi:role="line"
         id="tspan2398"
         x="141.65004"
         y="418.44635">C</tspan></text>
    <g
       id="g4465"
       transform="matrix(0.998851,-4.7924893e-2,4.7924893e-2,0.998851,-155.42049,18.590283)">
      <path
         id="path4467"
         d="M 200.67089,403.45187 L 204.18024,387.18125"
         style="fill:none;fill-rule:evenodd;stroke:#000000;stroke-width:1px;stroke-linecap:butt;stroke-linejoin:miter;marker-mid:none;marker-end:url(#Arrow2Mend);stroke-opacity:1" />
      <path
         transform="matrix(1.1694915,0,0,1.1694915,-34.721833,-68.774364)"
         d="M 202.77756,404.34473 A 1.6430886,1.6430886 0 1 1 199.49139,404.34473 A 1.6430886,1.6430886 0 1 1 202.77756,404.34473 z"
         sodipodi:ry="1.6430886"
         sodipodi:rx="1.6430886"
         sodipodi:cy="404.34473"
         sodipodi:cx="201.13448"
         id="path4469"
         style="fill:#000000;fill-opacity:1;stroke:none;stroke-width:0.875;stroke-linecap:round;stroke-miterlimit:4;stroke-dasharray:none;stroke-dashoffset:0;stroke-opacity:1"
         sodipodi:type="arc" />
    </g>
    <g
       id="g4471"
       transform="matrix(0.9437178,0.3307519,-0.3307519,0.9437178,19.958741,-70.009406)">
      <path
         id="path4473"
         d="M 200.67089,403.45187 L 204.18024,387.18125"
         style="fill:none;fill-rule:evenodd;stroke:#000000;stroke-width:1px;stroke-linecap:butt;stroke-linejoin:miter;marker-mid:none;marker-end:url(#Arrow2Mend);stroke-opacity:1" />
      <path
         transform="matrix(1.1694915,0,0,1.1694915,-34.721833,-68.774364)"
         d="M 202.77756,404.34473 A 1.6430886,1.6430886 0 1 1 199.49139,404.34473 A 1.6430886,1.6430886 0 1 1 202.77756,404.34473 z"
         sodipodi:ry="1.6430886"
         sodipodi:rx="1.6430886"
         sodipodi:cy="404.34473"
         sodipodi:cx="201.13448"
         id="path4475"
         style="fill:#000000;fill-opacity:1;stroke:none;stroke-width:0.875;stroke-linecap:round;stroke-miterlimit:4;stroke-dasharray:none;stroke-dashoffset:0;stroke-opacity:1"
         sodipodi:type="arc" />
    </g>
    <g
       id="g4477"
       transform="matrix(0.719624,0.694364,-0.694364,0.719624,234.52337,-74.885064)">
      <path
         id="path4479"
         d="M 200.67089,403.45187 L 204.18024,387.18125"
         style="fill:none;fill-rule:evenodd;stroke:#000000;stroke-width:1px;stroke-linecap:butt;stroke-linejoin:miter;marker-mid:none;marker-end:url(#Arrow2Mend);stroke-opacity:1" />
      <path
         transform="matrix(1.1694915,0,0,1.1694915,-34.721833,-68.774364)"
         d="M 202.77756,404.34473 A 1.6430886,1.6430886 0 1 1 199.49139,404.34473 A 1.6430886,1.6430886 0 1 1 202.77756,404.34473 z"
         sodipodi:ry="1.6430886"
         sodipodi:rx="1.6430886"
         sodipodi:cy="404.34473"
         sodipodi:cx="201.13448"
         id="path4481"
         style="fill:#000000;fill-opacity:1;stroke:none;stroke-width:0.875;stroke-linecap:round;stroke-miterlimit:4;stroke-dasharray:none;stroke-dashoffset:0;stroke-opacity:1"
         sodipodi:type="arc" />
    </g>
    <g
       id="g4483"
       transform="matrix(0.719624,0.694364,-0.694364,0.719624,254.20822,-62.686768)">
      <path
         id="path4485"
         d="M 200.67089,403.45187 L 204.18024,387.18125"
         style="fill:none;fill-rule:evenodd;stroke:#000000;stroke-width:1px;stroke-linecap:butt;stroke-linejoin:miter;marker-mid:none;marker-end:url(#Arrow2Mend);stroke-opacity:1" />
      <path
         transform="matrix(1.1694915,0,0,1.1694915,-34.721833,-68.774364)"
         d="M 202.77756,404.34473 A 1.6430886,1.6430886 0 1 1 199.49139,404.34473 A 1.6430886,1.6430886 0 1 1 202.77756,404.34473 z"
         sodipodi:ry="1.6430886"
         sodipodi:rx="1.6430886"
         sodipodi:cy="404.34473"
         sodipodi:cx="201.13448"
         id="path4487"
         style="fill:#000000;fill-opacity:1;stroke:none;stroke-width:0.875;stroke-linecap:round;stroke-miterlimit:4;stroke-dasharray:none;stroke-dashoffset:0;stroke-opacity:1"
         sodipodi:type="arc" />
    </g>
    <g
       id="g4489"
       transform="matrix(0.6680547,0.7441122,-0.7441122,0.6680547,298.71251,-31.643453)">
      <path
         id="path4491"
         d="M 200.67089,403.45187 L 204.18024,387.18125"
         style="fill:none;fill-rule:evenodd;stroke:#000000;stroke-width:1px;stroke-linecap:butt;stroke-linejoin:miter;marker-mid:none;marker-end:url(#Arrow2Mend);stroke-opacity:1" />
      <path
         transform="matrix(1.1694915,0,0,1.1694915,-34.721833,-68.774364)"
         d="M 202.77756,404.34473 A 1.6430886,1.6430886 0 1 1 199.49139,404.34473 A 1.6430886,1.6430886 0 1 1 202.77756,404.34473 z"
         sodipodi:ry="1.6430886"
         sodipodi:rx="1.6430886"
         sodipodi:cy="404.34473"
         sodipodi:cx="201.13448"
         id="path4493"
         style="fill:#000000;fill-opacity:1;stroke:none;stroke-width:0.875;stroke-linecap:round;stroke-miterlimit:4;stroke-dasharray:none;stroke-dashoffset:0;stroke-opacity:1"
         sodipodi:type="arc" />
    </g>
    <g
       id="g4495"
       transform="matrix(0.6090687,0.7931175,-0.7931175,0.6090687,338.31051,5.4393533)">
      <path
         id="path4497"
         d="M 200.67089,403.45187 L 204.18024,387.18125"
         style="fill:none;fill-rule:evenodd;stroke:#000000;stroke-width:1px;stroke-linecap:butt;stroke-linejoin:miter;marker-mid:none;marker-end:url(#Arrow2Mend);stroke-opacity:1" />
      <path
         transform="matrix(1.1694915,0,0,1.1694915,-34.721833,-68.774364)"
         d="M 202.77756,404.34473 A 1.6430886,1.6430886 0 1 1 199.49139,404.34473 A 1.6430886,1.6430886 0 1 1 202.77756,404.34473 z"
         sodipodi:ry="1.6430886"
         sodipodi:rx="1.6430886"
         sodipodi:cy="404.34473"
         sodipodi:cx="201.13448"
         id="path4499"
         style="fill:#000000;fill-opacity:1;stroke:none;stroke-width:0.875;stroke-linecap:round;stroke-miterlimit:4;stroke-dasharray:none;stroke-dashoffset:0;stroke-opacity:1"
         sodipodi:type="arc" />
    </g>
    <path
       style="fill:none;fill-rule:evenodd;stroke:#505050;stroke-width:1.00000011999999994px;stroke-linecap:butt;stroke-linejoin:miter;marker-mid:none;marker-end:url(#Arrow2Mend);stroke-opacity:1"
       d="M 87.870313,417.58325 L 89.375339,401.00665"
       id="path4503" />
    <path
       sodipodi:type="arc"
       style="fill:#505050;fill-opacity:1;stroke:none;stroke-width:0.87500000000000000;stroke-linecap:round;stroke-miterlimit:4;stroke-dasharray:none;stroke-dashoffset:0;stroke-opacity:1"
       id="path4505"
       sodipodi:cx="201.13448"
       sodipodi:cy="404.34473"
       sodipodi:rx="1.6430886"
       sodipodi:ry="1.6430886"
       d="M 202.77756,404.34473 A 1.6430886,1.6430886 0 1 1 199.49139,404.34473 A 1.6430886,1.6430886 0 1 1 202.77756,404.34473 z"
       transform="matrix(1.1608149,-0.1421944,0.1421944,1.1608149,-203.19234,-22.518915)" />
    <path
       style="fill:none;fill-rule:evenodd;stroke:#505050;stroke-width:1px;stroke-linecap:butt;stroke-linejoin:miter;marker-mid:none;marker-end:url(#Arrow2Mend);stroke-opacity:1"
       d="M 116.43552,416.49887 L 114.17028,400.00896"
       id="path4509" />
    <path
       sodipodi:type="arc"
       style="fill:#505050;fill-opacity:1;stroke:none;stroke-width:0.87500000000000000;stroke-linecap:round;stroke-miterlimit:4;stroke-dasharray:none;stroke-dashoffset:0;stroke-opacity:1"
       id="path4511"
       sodipodi:cx="201.13448"
       sodipodi:cy="404.34473"
       sodipodi:rx="1.6430886"
       sodipodi:ry="1.6430886"
       d="M 202.77756,404.34473 A 1.6430886,1.6430886 0 1 1 199.49139,404.34473 A 1.6430886,1.6430886 0 1 1 202.77756,404.34473 z"
       transform="matrix(1.0990094,-0.3998608,0.3998608,1.0990094,-266.22959,53.215563)" />
    <path
       style="fill:none;fill-rule:evenodd;stroke:#505050;stroke-width:1px;stroke-linecap:butt;stroke-linejoin:miter;marker-mid:none;marker-end:url(#Arrow2Mend);stroke-opacity:1"
       d="M 139.83244,409.89902 L 137.5672,393.40911"
       id="path4515" />
    <path
       sodipodi:type="arc"
       style="fill:#505050;fill-opacity:1;stroke:none;stroke-width:0.87500000000000000;stroke-linecap:round;stroke-miterlimit:4;stroke-dasharray:none;stroke-dashoffset:0;stroke-opacity:1"
       id="path4517"
       sodipodi:cx="201.13448"
       sodipodi:cy="404.34473"
       sodipodi:rx="1.6430886"
       sodipodi:ry="1.6430886"
       d="M 202.77756,404.34473 A 1.6430886,1.6430886 0 1 1 199.49139,404.34473 A 1.6430886,1.6430886 0 1 1 202.77756,404.34473 z"
       transform="matrix(1.0990094,-0.3998608,0.3998608,1.0990094,-242.83267,46.615714)" />
    <path
       style="fill:none;fill-rule:evenodd;stroke:#505050;stroke-width:1px;stroke-linecap:butt;stroke-linejoin:miter;marker-mid:none;marker-end:url(#Arrow2Mend);stroke-opacity:1"
       d="M 67.572787,413.16787 L 70.298337,396.74776"
       id="path4521" />
    <path
       sodipodi:type="arc"
       style="fill:#505050;fill-opacity:1;stroke:none;stroke-width:0.87500000000000000;stroke-linecap:round;stroke-miterlimit:4;stroke-dasharray:none;stroke-dashoffset:0;stroke-opacity:1"
       id="path4523"
       sodipodi:cx="201.13448"
       sodipodi:cy="404.34473"
       sodipodi:rx="1.6430886"
       sodipodi:ry="1.6430886"
       d="M 202.77756,404.34473 A 1.6430886,1.6430886 0 1 1 199.49139,404.34473 A 1.6430886,1.6430886 0 1 1 202.77756,404.34473 z"
       transform="matrix(1.1681478,-5.6047755e-2,5.6047755e-2,1.1681478,-190.18086,-47.234603)" />
    <path
       style="fill:#505050;fill-rule:evenodd;stroke:none;stroke-width:1px;stroke-linecap:butt;stroke-linejoin:miter;stroke-opacity:1;fill-opacity:1"
       d="M 67.071995,401.48306 L 70.491107,395.46842 L 71.813829,402.25673 L 69.617611,401.14614 L 67.071995,401.48306 z"
       id="path4533" />
    <path
       style="fill:#505050;fill-opacity:1;fill-rule:evenodd;stroke:none;stroke-width:1px;stroke-linecap:butt;stroke-linejoin:miter;stroke-opacity:1"
       d="M 86.5378,405.93274 L 89.477204,399.66966 L 91.325543,406.33408 L 89.049368,405.39823 L 86.5378,405.93274 z"
       id="path4535" />
    <path
       style="fill:#505050;fill-opacity:1;fill-rule:evenodd;stroke:none;stroke-width:1px;stroke-linecap:butt;stroke-linejoin:miter;stroke-opacity:1"
       d="M 112.48089,405.48639 L 113.97541,398.7312 L 117.24011,404.82812 L 114.81413,404.41416 L 112.48089,405.48639 z"
       id="path4537" />
    <path
       style="fill:#505050;fill-opacity:1;fill-rule:evenodd;stroke:none;stroke-width:1px;stroke-linecap:butt;stroke-linejoin:miter;stroke-opacity:1"
       d="M 135.91561,398.86909 L 137.41817,392.11569 L 140.67561,398.21649 L 138.25012,397.79964 L 135.91561,398.86909 z"
       id="path4539" />
  </g>
</svg>
