<?xml version="1.0" encoding="UTF-8" standalone="no"?>
<!-- Created with Inkscape (http://www.inkscape.org/) -->
<svg
   xmlns:dc="http://purl.org/dc/elements/1.1/"
   xmlns:cc="http://creativecommons.org/ns#"
   xmlns:rdf="http://www.w3.org/1999/02/22-rdf-syntax-ns#"
   xmlns:svg="http://www.w3.org/2000/svg"
   xmlns="http://www.w3.org/2000/svg"
   xmlns:xlink="http://www.w3.org/1999/xlink"
   xmlns:sodipodi="http://sodipodi.sourceforge.net/DTD/sodipodi-0.dtd"
   xmlns:inkscape="http://www.inkscape.org/namespaces/inkscape"
   width="744.09448819"
   height="1052.3622047"
   id="svg2"
   sodipodi:version="0.32"
   inkscape:version="0.46"
   sodipodi:docname="pythagorean.svg"
   inkscape:output_extension="org.inkscape.output.svg.inkscape">
  <defs
     id="defs4">
    <linearGradient
       id="linearGradient3302">
      <stop
         id="stop3304"
         offset="0"
         style="stop-color:#9f9f9f;stop-opacity:1;" />
      <stop
         id="stop3308"
         offset="1"
         style="stop-color:#dfdfdf;stop-opacity:1;" />
    </linearGradient>
    <linearGradient
       id="linearGradient3290">
      <stop
         style="stop-color:#75c97e;stop-opacity:1;"
         offset="0"
         id="stop3292" />
      <stop
         id="stop3298"
         offset="0.5"
         style="stop-color:#5259cc;stop-opacity:1;" />
      <stop
         style="stop-color:#e87a91;stop-opacity:1;"
         offset="1"
         id="stop3294" />
    </linearGradient>
    <linearGradient
       id="linearGradient3280">
      <stop
         style="stop-color:#cfcfcf;stop-opacity:1;"
         offset="0"
         id="stop3282" />
      <stop
         style="stop-color:#000000;stop-opacity:1;"
         offset="1"
         id="stop3284" />
    </linearGradient>
    <linearGradient
       id="linearGradient3270">
      <stop
         style="stop-color:#e8e8e8;stop-opacity:1;"
         offset="0"
         id="stop3272" />
      <stop
         style="stop-color:#454545;stop-opacity:1;"
         offset="1"
         id="stop3274" />
    </linearGradient>
    <linearGradient
       id="linearGradient3243">
      <stop
         style="stop-color:#ffffff;stop-opacity:1;"
         offset="0"
         id="stop3245" />
      <stop
         id="stop3300"
         offset="0.5"
         style="stop-color:#e7e7e7;stop-opacity:1;" />
      <stop
         style="stop-color:#d0d0d0;stop-opacity:1;"
         offset="1"
         id="stop3247" />
    </linearGradient>
    <linearGradient
       id="linearGradient3222">
      <stop
         style="stop-color:#cccccc;stop-opacity:1;"
         offset="0"
         id="stop3224" />
      <stop
         style="stop-color:#ffffff;stop-opacity:1;"
         offset="1"
         id="stop3226" />
    </linearGradient>
    <linearGradient
       id="linearGradient3198">
      <stop
         style="stop-color:#ffffff;stop-opacity:1;"
         offset="0"
         id="stop3200" />
      <stop
         id="stop3206"
         offset="0.38333333"
         style="stop-color:#c8c8c8;stop-opacity:1;" />
      <stop
         style="stop-color:#ffffff;stop-opacity:1;"
         offset="0.55000001"
         id="stop3208" />
      <stop
         id="stop3218"
         offset="0.91666669"
         style="stop-color:#c8c8c8;stop-opacity:1;" />
      <stop
         style="stop-color:#f9f9f9;stop-opacity:1;"
         offset="1"
         id="stop3202" />
    </linearGradient>
    <inkscape:perspective
       sodipodi:type="inkscape:persp3d"
       inkscape:vp_x="0 : 526.18109 : 1"
       inkscape:vp_y="0 : 1000 : 0"
       inkscape:vp_z="744.09448 : 526.18109 : 1"
       inkscape:persp3d-origin="372.04724 : 350.78739 : 1"
       id="perspective10" />
    <inkscape:perspective
       id="perspective2466"
       inkscape:persp3d-origin="372.04724 : 350.78739 : 1"
       inkscape:vp_z="744.09448 : 526.18109 : 1"
       inkscape:vp_y="0 : 1000 : 0"
       inkscape:vp_x="0 : 526.18109 : 1"
       sodipodi:type="inkscape:persp3d" />
    <inkscape:perspective
       id="perspective2538"
       inkscape:persp3d-origin="372.04724 : 350.78739 : 1"
       inkscape:vp_z="744.09448 : 526.18109 : 1"
       inkscape:vp_y="0 : 1000 : 0"
       inkscape:vp_x="0 : 526.18109 : 1"
       sodipodi:type="inkscape:persp3d" />
    <inkscape:perspective
       id="perspective2605"
       inkscape:persp3d-origin="372.04724 : 350.78739 : 1"
       inkscape:vp_z="744.09448 : 526.18109 : 1"
       inkscape:vp_y="0 : 1000 : 0"
       inkscape:vp_x="0 : 526.18109 : 1"
       sodipodi:type="inkscape:persp3d" />
    <inkscape:perspective
       id="perspective2672"
       inkscape:persp3d-origin="372.04724 : 350.78739 : 1"
       inkscape:vp_z="744.09448 : 526.18109 : 1"
       inkscape:vp_y="0 : 1000 : 0"
       inkscape:vp_x="0 : 526.18109 : 1"
       sodipodi:type="inkscape:persp3d" />
    <linearGradient
       inkscape:collect="always"
       xlink:href="#linearGradient3198"
       id="linearGradient3204"
       x1="141.96875"
       y1="708.21886"
       x2="264.875"
       y2="708.21886"
       gradientUnits="userSpaceOnUse"
       gradientTransform="translate(266.65243,-199.98932)" />
    <linearGradient
       inkscape:collect="always"
       xlink:href="#linearGradient3222"
       id="linearGradient3228"
       x1="210.69818"
       y1="529.40107"
       x2="340.54193"
       y2="529.40107"
       gradientUnits="userSpaceOnUse" />
    <radialGradient
       inkscape:collect="always"
       xlink:href="#linearGradient3243"
       id="radialGradient3249"
       cx="673.26031"
       cy="694.08545"
       fx="673.26031"
       fy="694.08545"
       r="65.017187"
       gradientTransform="matrix(1.8411095,4.5452863e-2,-3.5175475e-2,1.4248145,-547.2825,-535.49772)"
       gradientUnits="userSpaceOnUse" />
    <linearGradient
       inkscape:collect="always"
       xlink:href="#linearGradient3222"
       id="linearGradient3261"
       gradientUnits="userSpaceOnUse"
       x1="210.69818"
       y1="529.40107"
       x2="340.54193"
       y2="529.40107"
       gradientTransform="translate(57.553308,257.67968)" />
    <linearGradient
       inkscape:collect="always"
       xlink:href="#linearGradient3222"
       id="linearGradient3266"
       gradientUnits="userSpaceOnUse"
       gradientTransform="translate(1.2159244,-1.1677581)"
       x1="210.69818"
       y1="529.40107"
       x2="340.54193"
       y2="529.40107" />
    <linearGradient
       inkscape:collect="always"
       xlink:href="#linearGradient3270"
       id="linearGradient3276"
       x1="602.86963"
       y1="510.08771"
       x2="604.24554"
       y2="519.22375"
       gradientUnits="userSpaceOnUse" />
    <linearGradient
       inkscape:collect="always"
       xlink:href="#linearGradient3280"
       id="linearGradient3286"
       x1="665.49371"
       y1="574.03381"
       x2="672.13379"
       y2="573.15503"
       gradientUnits="userSpaceOnUse" />
    <linearGradient
       inkscape:collect="always"
       xlink:href="#linearGradient3302"
       id="linearGradient3296"
       x1="699.22681"
       y1="529.32007"
       x2="698.58875"
       y2="528.10333"
       gradientUnits="userSpaceOnUse" />
    <radialGradient
       inkscape:collect="always"
       xlink:href="#linearGradient3243"
       id="radialGradient3353"
       gradientUnits="userSpaceOnUse"
       gradientTransform="matrix(1.8411095,4.5452863e-2,-3.5175475e-2,1.4248145,-547.2825,-535.49772)"
       cx="673.26031"
       cy="694.08545"
       fx="673.26031"
       fy="694.08545"
       r="65.017187" />
    <linearGradient
       inkscape:collect="always"
       xlink:href="#linearGradient3302"
       id="linearGradient3355"
       gradientUnits="userSpaceOnUse"
       x1="699.22681"
       y1="529.32007"
       x2="698.58875"
       y2="528.10333" />
    <linearGradient
       inkscape:collect="always"
       xlink:href="#linearGradient3270"
       id="linearGradient3357"
       gradientUnits="userSpaceOnUse"
       x1="602.86963"
       y1="510.08771"
       x2="604.24554"
       y2="519.22375" />
    <linearGradient
       inkscape:collect="always"
       xlink:href="#linearGradient3280"
       id="linearGradient3359"
       gradientUnits="userSpaceOnUse"
       x1="665.49371"
       y1="574.03381"
       x2="672.13379"
       y2="573.15503" />
    <linearGradient
       inkscape:collect="always"
       xlink:href="#linearGradient3198"
       id="linearGradient3361"
       gradientUnits="userSpaceOnUse"
       gradientTransform="translate(266.65243,-199.98932)"
       x1="141.96875"
       y1="708.21886"
       x2="264.875"
       y2="708.21886" />
    <linearGradient
       inkscape:collect="always"
       xlink:href="#linearGradient3222"
       id="linearGradient3363"
       gradientUnits="userSpaceOnUse"
       gradientTransform="translate(1.2159244,-1.1677581)"
       x1="210.69818"
       y1="529.40107"
       x2="340.54193"
       y2="529.40107" />
  </defs>
  <sodipodi:namedview
     id="base"
     pagecolor="#ffffff"
     bordercolor="#666666"
     borderopacity="1.0"
     gridtolerance="10000"
     guidetolerance="10"
     objecttolerance="10"
     inkscape:pageopacity="0.0"
     inkscape:pageshadow="2"
     inkscape:zoom="0.96436419"
     inkscape:cx="375.69491"
     inkscape:cy="541.40546"
     inkscape:document-units="px"
     inkscape:current-layer="layer1"
     showgrid="false"
     inkscape:window-width="1278"
     inkscape:window-height="996"
     inkscape:window-x="2"
     inkscape:window-y="2" />
  <metadata
     id="metadata7">
    <rdf:RDF>
      <cc:Work
         rdf:about="">
        <dc:format>image/svg+xml</dc:format>
        <dc:type
           rdf:resource="http://purl.org/dc/dcmitype/StillImage" />
      </cc:Work>
    </rdf:RDF>
  </metadata>
  <g
     inkscape:label="Layer 1"
     inkscape:groupmode="layer"
     id="layer1">
    <rect
       style="opacity:1;fill:#dedede;fill-opacity:1;fill-rule:evenodd;stroke:none;stroke-width:0.875;stroke-linecap:butt;stroke-linejoin:miter;marker:none;marker-start:none;marker-mid:none;marker-end:none;stroke-miterlimit:4;stroke-dasharray:none;stroke-dashoffset:0;stroke-opacity:1;visibility:visible;display:inline;overflow:visible;enable-background:accumulate"
       id="rect3209"
       width="718.95795"
       height="205.18401"
       x="15.81677"
       y="418.5806" />
    <g
       id="g3342"
       transform="translate(0,-23.156731)">
      <rect
         y="477.09674"
         x="47.687691"
         height="132.31105"
         width="132.31105"
         id="rect2419"
         style="opacity:1;fill:#ffffff;fill-opacity:1;fill-rule:evenodd;stroke:#898989;stroke-width:0.375;stroke-linecap:butt;stroke-linejoin:miter;marker:none;marker-start:none;marker-mid:none;marker-end:none;stroke-miterlimit:4;stroke-dasharray:none;stroke-dashoffset:0;stroke-opacity:1;visibility:visible;display:inline;overflow:visible;enable-background:accumulate" />
      <g
         transform="translate(-34.017241,3.3361165)"
         id="g3198">
        <path
           style="fill:none;fill-opacity:1;stroke:#000000;stroke-width:0.875;stroke-linecap:round;stroke-miterlimit:4;stroke-dasharray:none;stroke-dashoffset:0;stroke-opacity:1"
           d="M 173.62362,542.98983 L 122.16064,542.9881 L 155.12527,518.26454 L 173.65286,542.9679 L 173.62362,542.98983 z"
           id="rect2387" />
        <rect
           style="fill:#ffffff;fill-opacity:1;stroke:#000000;stroke-width:0.87500006;stroke-linecap:round;stroke-miterlimit:4;stroke-dasharray:none;stroke-dashoffset:0;stroke-opacity:1"
           id="rect2383"
           width="41.266861"
           height="41.266857"
           x="-228.15346"
           y="466.43182"
           transform="matrix(0.7999989,-0.6000015,0.6000015,0.7999989,0,0)" />
        <rect
           style="fill:#ffffff;fill-opacity:1;stroke:#000000;stroke-width:0.87500006;stroke-linecap:round;stroke-miterlimit:4;stroke-dasharray:none;stroke-dashoffset:0;stroke-opacity:1"
           id="rect3162"
           width="30.902563"
           height="30.902563"
           x="-186.86729"
           y="507.68817"
           transform="matrix(0.7999989,-0.6000015,0.6000015,0.7999989,0,0)" />
        <rect
           style="fill:#ffffff;fill-opacity:1;stroke:#000000;stroke-width:0.875;stroke-linecap:round;stroke-miterlimit:4;stroke-dasharray:none;stroke-dashoffset:0;stroke-opacity:1"
           id="rect3164"
           width="51.60186"
           height="51.601868"
           x="122.04291"
           y="542.95325" />
        <path
           style="fill:none;fill-opacity:1;fill-rule:evenodd;stroke:#000000;stroke-width:0.875;stroke-linecap:butt;stroke-linejoin:miter;marker:none;marker-start:none;marker-mid:none;marker-end:none;stroke-miterlimit:4;stroke-dasharray:none;stroke-dashoffset:0;stroke-opacity:1;visibility:visible;display:inline;overflow:visible;enable-background:accumulate"
           d="M 155.1018,518.27218 L 155.1018,594.52981"
           id="path3166"
           sodipodi:nodetypes="cc" />
        <path
           style="fill:none;fill-opacity:1;fill-rule:evenodd;stroke:#000000;stroke-width:0.875;stroke-linecap:butt;stroke-linejoin:miter;marker:none;marker-start:none;marker-mid:none;marker-end:none;stroke-miterlimit:4;stroke-dasharray:none;stroke-dashoffset:0;stroke-opacity:1;visibility:visible;display:inline;overflow:visible;enable-background:accumulate"
           d="M 155.12382,518.27171 L 122.09756,594.5178"
           id="path3168"
           sodipodi:nodetypes="cc" />
        <path
           style="fill:none;fill-opacity:1;fill-rule:evenodd;stroke:#000000;stroke-width:0.875;stroke-linecap:butt;stroke-linejoin:miter;marker:none;marker-start:none;marker-mid:none;marker-end:none;stroke-miterlimit:4;stroke-dasharray:none;stroke-dashoffset:0;stroke-opacity:1;visibility:visible;display:inline;overflow:visible;enable-background:accumulate"
           d="M 97.386809,510.0506 L 173.64879,542.96199"
           id="path3170"
           sodipodi:nodetypes="cc" />
      </g>
    </g>
    <g
       id="g3330"
       transform="translate(17.544098,-8.1432711)">
      <path
         id="path3259"
         d="M 211.91262,455.71506 L 211.91262,592.24631 L 212.50637,592.24631 L 212.56887,592.34006 L 211.91262,592.34006 C 212.07239,592.37765 212.50007,592.48142 212.69387,592.52756 L 212.81887,592.71506 L 213.53762,592.71506 C 218.87306,593.98999 232.41697,597.24317 245.56887,598.77756 C 259.89126,600.44851 276.60012,600.68381 276.60012,600.68381 C 276.60012,600.68379 290.34672,601.21956 306.66262,599.49631 C 322.4183,597.83222 341.75637,593.05881 341.75637,593.05881 L 341.13137,593.05881 L 341.19387,592.96506 L 341.75637,592.96506 L 341.75637,592.27756 L 341.75637,456.43381 C 341.75636,456.4338 322.41828,461.20719 306.66262,462.87131 C 290.34671,464.59455 276.60012,464.05883 276.60012,464.05881 C 276.60011,464.0588 259.89126,463.82349 245.56887,462.15256 C 231.24644,460.4816 215.97063,456.66991 211.91262,455.71506 z"
         style="opacity:1;fill:url(#linearGradient3363);fill-opacity:1;fill-rule:evenodd;stroke:#898989;stroke-width:0.375;stroke-linecap:butt;stroke-linejoin:miter;marker:none;marker-start:none;marker-mid:none;marker-end:none;stroke-miterlimit:4;stroke-dasharray:none;stroke-dashoffset:0;stroke-opacity:1;visibility:visible;display:inline;overflow:visible;enable-background:accumulate" />
      <path
         id="path2396"
         d="M 283.74775,506.9073 C 283.74775,506.9073 266.87651,549.94119 246.58212,590.04094 L 246.58212,532.33642"
         style="opacity:1;fill:none;fill-opacity:1;fill-rule:evenodd;stroke:#000000;stroke-width:0.875;stroke-linecap:butt;stroke-linejoin:miter;marker:none;marker-start:none;marker-mid:none;marker-end:none;stroke-miterlimit:4;stroke-dasharray:none;stroke-dashoffset:0;stroke-opacity:1;visibility:visible;display:inline;overflow:visible;enable-background:accumulate" />
      <path
         id="path3169"
         d="M 304.77567,530.62484 L 304.77567,588.81838"
         style="opacity:1;fill:none;fill-opacity:1;fill-rule:evenodd;stroke:#000000;stroke-width:0.875;stroke-linecap:butt;stroke-linejoin:miter;marker:none;marker-start:none;marker-mid:none;marker-end:none;stroke-miterlimit:4;stroke-dasharray:none;stroke-dashoffset:0;stroke-opacity:1;visibility:visible;display:inline;overflow:visible;enable-background:accumulate" />
      <path
         id="path3171"
         d="M 246.58212,531.60288 C 271.76673,537.96016 277.63498,536.24858 283.74775,535.51506 C 289.86052,534.78152 304.28665,530.86935 304.28665,530.86935"
         style="opacity:1;fill:none;fill-opacity:1;fill-rule:evenodd;stroke:#000000;stroke-width:0.875;stroke-linecap:butt;stroke-linejoin:miter;marker:none;marker-start:none;marker-mid:none;marker-end:none;stroke-miterlimit:4;stroke-dasharray:none;stroke-dashoffset:0;stroke-opacity:1;visibility:visible;display:inline;overflow:visible;enable-background:accumulate" />
      <path
         id="path3173"
         d="M 246.82663,590.26621 C 272.01123,596.62349 277.87949,594.91191 283.99226,594.17838 C 290.10503,593.44485 304.53116,589.53268 304.53116,589.53268"
         style="opacity:1;fill:none;fill-opacity:1;fill-rule:evenodd;stroke:#000000;stroke-width:0.875;stroke-linecap:butt;stroke-linejoin:miter;marker:none;marker-start:none;marker-mid:none;marker-end:none;stroke-miterlimit:4;stroke-dasharray:none;stroke-dashoffset:0;stroke-opacity:1;visibility:visible;display:inline;overflow:visible;enable-background:accumulate" />
      <path
         id="path3175"
         d="M 283.50324,507.39632 L 283.50324,593.46409"
         style="opacity:1;fill:none;fill-opacity:1;fill-rule:evenodd;stroke:#000000;stroke-width:0.875;stroke-linecap:butt;stroke-linejoin:miter;marker:none;marker-start:none;marker-mid:none;marker-end:none;stroke-miterlimit:4;stroke-dasharray:none;stroke-dashoffset:0;stroke-opacity:1;visibility:visible;display:inline;overflow:visible;enable-background:accumulate" />
      <path
         id="path3177"
         d="M 219.19692,486.12389 C 232.64501,510.08594 246.58212,532.0919 246.58212,532.0919"
         style="opacity:1;fill:none;fill-opacity:1;fill-rule:evenodd;stroke:#000000;stroke-width:0.875;stroke-linecap:butt;stroke-linejoin:miter;marker:none;marker-start:none;marker-mid:none;marker-end:none;stroke-miterlimit:4;stroke-dasharray:none;stroke-dashoffset:0;stroke-opacity:1;visibility:visible;display:inline;overflow:visible;enable-background:accumulate" />
      <path
         id="path3179"
         d="M 256.60706,469.00815 C 256.60706,469.00815 266.87651,486.85743 281.05813,503.97318 C 295.23975,521.08892 304.77567,530.86935 304.77567,530.86935 L 304.77567,530.86935 L 304.77567,530.86935"
         style="opacity:1;fill:none;fill-opacity:1;fill-rule:evenodd;stroke:#000000;stroke-width:0.875;stroke-linecap:butt;stroke-linejoin:miter;marker:none;marker-start:none;marker-mid:none;marker-end:none;stroke-miterlimit:4;stroke-dasharray:none;stroke-dashoffset:0;stroke-opacity:1;visibility:visible;display:inline;overflow:visible;enable-background:accumulate" />
      <path
         id="path3181"
         d="M 256.60706,469.00815 C 256.60706,469.00815 238.26876,479.52211 218.95241,485.87938 C 218.95241,485.87938 236.06817,502.50611 253.18391,511.79752 C 270.29966,521.08892 279.59107,525.00109 287.65992,526.95718 C 295.72877,528.91326 304.04214,530.62484 304.04214,530.62484"
         style="opacity:1;fill:none;fill-opacity:1;fill-rule:evenodd;stroke:#000000;stroke-width:0.875;stroke-linecap:butt;stroke-linejoin:miter;marker:none;marker-start:none;marker-mid:none;marker-end:none;stroke-miterlimit:4;stroke-dasharray:none;stroke-dashoffset:0;stroke-opacity:1;visibility:visible;display:inline;overflow:visible;enable-background:accumulate" />
      <path
         sodipodi:nodetypes="cssccc"
         id="path3183"
         d="M 247.07115,531.84739 C 247.07115,531.84739 259.29668,526.71267 272.50026,516.19871 C 285.70383,505.68475 294.50622,497.37138 300.61899,491.50313 C 306.73175,485.63487 311.37746,480.50015 311.37746,480.50015 L 311.37746,480.50015 L 331.67184,500.79454 C 331.67184,500.79454 325.07006,509.35241 317.97925,516.44322 C 310.88843,523.53403 304.04214,530.86935 304.04214,530.86935"
         style="opacity:1;fill:none;fill-opacity:1;fill-rule:evenodd;stroke:#000000;stroke-width:0.875;stroke-linecap:butt;stroke-linejoin:miter;marker:none;marker-start:none;marker-mid:none;marker-end:none;stroke-miterlimit:4;stroke-dasharray:none;stroke-dashoffset:0;stroke-opacity:1;visibility:visible;display:inline;overflow:visible;enable-background:accumulate" />
    </g>
    <g
       id="g3323"
       transform="translate(4.8396912,11.865973)">
      <path
         sodipodi:nodetypes="csssccccsssccssssccccsssssc"
         id="path3193"
         d="M 470.52743,431.44818 C 464.12815,431.65674 457.01344,441.82122 454.74618,444.54193 C 452.40577,447.35042 443.05399,454.62038 439.77743,454.85443 C 436.50086,455.08847 429.22755,450.39697 427.12118,447.35443 C 425.01482,444.3119 421.05724,432.13498 409.12118,431.66693 L 409.12118,561.82323 L 409.52743,561.85443 L 408.62118,561.85443 C 420.55723,562.32253 424.51482,574.49943 426.62118,577.54193 C 428.72754,580.58453 436.00086,585.24473 439.27743,585.01073 C 442.554,584.77663 451.90577,577.53793 454.24618,574.72943 C 456.09996,572.50493 461.20562,565.30803 466.49618,562.63573 L 474.93368,562.60443 C 480.0849,564.49673 485.03334,568.72123 487.96493,572.38573 C 491.70958,577.06653 498.0042,584.30593 503.62118,583.13573 C 509.23816,581.96543 516.04741,576.36433 519.08993,572.38573 C 522.13246,568.40703 528.66973,563.02593 529.83993,562.79193 C 531.01013,562.55783 531.02743,562.54193 531.02743,562.54193 L 531.25909,562.51073 L 531.52743,562.47943 L 531.52743,432.38568 C 531.52743,432.38568 531.51014,432.37037 530.33993,432.60443 C 529.16973,432.83847 522.63246,438.21948 519.58993,442.19818 C 516.54741,446.17687 509.73815,451.80921 504.12118,452.97943 C 498.5042,454.14963 492.20958,446.87897 488.46493,442.19818 C 484.72029,437.51737 477.67431,431.91625 471.12118,431.44818 C 470.91639,431.43355 470.73386,431.44145 470.52743,431.44818 z"
         style="opacity:1;fill:url(#linearGradient3361);fill-opacity:1;fill-rule:evenodd;stroke:#898989;stroke-width:0.375;stroke-linecap:butt;stroke-linejoin:miter;marker:none;marker-start:none;marker-mid:none;marker-end:none;stroke-miterlimit:4;stroke-dasharray:none;stroke-dashoffset:0;stroke-opacity:1;visibility:visible;display:inline;overflow:visible;enable-background:accumulate" />
      <path
         id="path3185"
         d="M 479.86011,553.28057 L 479.86011,469.96217 C 479.86011,469.96217 475.41334,476.98338 473.77505,480.49399 C 472.13677,484.0046 467.69,493.13217 457.8603,528.0042 C 448.0306,562.87623 442.41363,572.23785 442.41363,572.23785 L 442.41363,516.06814 C 442.41363,516.06814 438.43494,509.74905 434.92434,503.19591 C 431.41373,496.64278 425.56272,481.89823 422.75423,474.64298 C 419.94574,467.38773 416.2011,460.13247 416.2011,460.13247 C 427.201,459.19631 427.90312,466.21752 434.69029,465.04732 C 441.47747,463.87712 442.64767,460.60055 445.92424,456.38782 C 449.20081,452.17509 452.00929,445.856 452.00929,445.856 C 452.00929,445.856 460.66879,447.0262 464.64747,450.30277 C 468.62616,453.57934 476.58354,461.77075 483.83879,477.45146 C 491.09405,493.13217 499.75354,514.42986 499.75354,514.42986 L 499.75354,570.59957"
         style="opacity:1;fill:none;fill-opacity:1;fill-rule:evenodd;stroke:#000000;stroke-width:0.875;stroke-linecap:butt;stroke-linejoin:miter;marker:none;marker-start:none;marker-mid:none;marker-end:none;stroke-miterlimit:4;stroke-dasharray:none;stroke-dashoffset:0;stroke-opacity:1;visibility:visible;display:inline;overflow:visible;enable-background:accumulate" />
      <path
         id="path3187"
         d="M 442.64767,572.00381 C 447.32848,570.59957 449.66888,569.42937 455.28585,562.87623 C 460.90283,556.3231 468.62616,550.70613 471.66869,550.94017 C 474.71121,551.17421 482.43455,554.45078 487.11536,559.59966 C 491.79617,564.74856 492.96637,565.21663 495.54082,567.55704 C 498.11526,569.89744 499.98758,570.8336 499.98758,570.8336"
         style="opacity:1;fill:none;fill-opacity:1;fill-rule:evenodd;stroke:#000000;stroke-width:0.875;stroke-linecap:butt;stroke-linejoin:miter;marker:none;marker-start:none;marker-mid:none;marker-end:none;stroke-miterlimit:4;stroke-dasharray:none;stroke-dashoffset:0;stroke-opacity:1;visibility:visible;display:inline;overflow:visible;enable-background:accumulate" />
      <path
         id="path3189"
         d="M 443.81787,515.8341 C 453.88161,509.98309 453.64757,506.70652 459.73262,502.02571 C 465.81768,497.3449 469.09424,494.06834 474.24314,494.30238 C 479.39202,494.53642 482.43455,498.28106 486.64728,502.72783 C 490.86001,507.1746 499.5195,513.96178 499.5195,513.96178 L 499.5195,513.96178 L 499.5195,513.96178 C 504.66839,513.49369 510.75344,506.47248 512.62577,502.72783 C 514.49809,498.98319 521.28526,486.57904 522.45547,485.1748 C 523.62567,483.77056 527.60436,478.15358 527.60436,478.15358 L 527.60436,478.15358 L 527.60436,478.15358 C 523.15759,473.47277 518.24274,473.70682 518.24274,473.70682 C 518.24274,473.70682 514.96617,473.47277 512.85981,471.83449 C 510.75344,470.19621 507.0088,467.15368 507.0088,467.15368 C 507.0088,467.15368 507.0088,466.6856 504.66839,469.49409 C 502.32799,472.30257 496.71102,473.0047 492.03021,471.60045 C 487.3494,470.19621 478.92394,469.49409 477.05162,470.19621 C 475.1793,470.89833 471.43465,473.0047 467.92404,476.98338 C 464.41343,480.96207 461.83899,485.64288 459.49859,489.85561 C 457.15818,494.06834 448.96676,508.3448 448.96676,508.3448 L 443.81787,515.8341 z"
         style="opacity:1;fill:none;fill-opacity:1;fill-rule:evenodd;stroke:#000000;stroke-width:0.875;stroke-linecap:butt;stroke-linejoin:miter;marker:none;marker-start:none;marker-mid:none;marker-end:none;stroke-miterlimit:4;stroke-dasharray:none;stroke-dashoffset:0;stroke-opacity:1;visibility:visible;display:inline;overflow:visible;enable-background:accumulate" />
      <path
         id="path3191"
         d="M 416.43514,460.60055 C 424.62655,470.66429 427.201,479.79187 433.52009,485.40884 C 439.83919,491.02581 437.73282,491.49389 444.52,491.25985 C 451.30717,491.02581 453.17949,488.45136 456.92414,486.57904 C 460.66879,484.70672 463.24323,480.96207 468.62616,481.89823 C 474.00909,482.83439 478.45586,485.87692 481.49839,489.85561 C 484.54091,493.83429 487.81748,499.45127 492.03021,504.60016 C 496.24294,509.74905 499.98758,514.42986 499.98758,514.42986 L 499.98758,514.42986"
         style="opacity:1;fill:none;fill-opacity:1;fill-rule:evenodd;stroke:#000000;stroke-width:0.875;stroke-linecap:butt;stroke-linejoin:miter;marker:none;marker-start:none;marker-mid:none;marker-end:none;stroke-miterlimit:4;stroke-dasharray:none;stroke-dashoffset:0;stroke-opacity:1;visibility:visible;display:inline;overflow:visible;enable-background:accumulate" />
    </g>
    <g
       id="g3310"
       transform="translate(0,14.89676)">
      <path
         id="path3230"
         d="M 651.99465,430.7891 C 642.98479,430.89523 631.27282,432.13334 606.30715,437.0391 L 605.99465,437.0391 L 602.99465,437.69535 C 601.88212,437.91792 600.90834,438.11501 599.74465,438.3516 L 599.74465,438.2266 L 597.6509,438.88285 L 596.7134,439.1016 L 596.7134,439.19535 L 590.43215,441.19535 C 590.43217,441.19533 590.65789,490.54181 590.86965,503.88285 C 591.08144,517.22388 590.85276,522.93429 593.18215,519.75785 C 595.51154,516.5814 593.17225,511.71302 595.7134,513.19535 C 598.25456,514.67766 597.8384,517.01891 597.8384,520.19535 C 597.83842,523.37177 595.92885,537.12741 596.7759,544.5391 C 597.44877,550.42679 598.22831,561.06363 598.5884,566.0391 L 598.7759,570.3516 L 599.8384,570.5391 C 629.3833,577.61596 654.45379,580.7282 663.2759,579.25785 C 672.16995,577.77552 673.64353,576.92439 671.5259,576.2891 C 669.40831,575.65381 666.03658,574.39644 667.30715,572.9141 C 668.57774,571.43173 668.16196,570.78948 671.3384,572.69535 C 674.51484,574.60121 676.82521,575.88285 680.2134,575.88285 C 683.60159,575.88284 706.05715,570.7891 706.05715,570.7891 L 705.11965,570.7891 L 706.68215,570.38285 L 706.68215,570.57035 C 706.68215,570.57035 706.77332,570.38905 706.7759,570.38285 L 706.8384,570.3516 L 709.1509,565.9766 L 709.1509,564.50785 C 712.74402,555.54781 719.11797,539.087 720.0259,532.88285 C 721.29648,524.20057 717.47698,521.88654 715.99465,522.94535 C 714.51233,524.00419 711.13731,523.35452 712.61965,520.6016 C 714.10198,517.84867 719.39061,515.94089 720.0259,511.07035 C 720.66119,506.19984 720.67846,485.04453 719.61965,477.63285 C 718.72149,471.34572 710.59263,449.61415 708.0259,442.8516 L 707.0884,439.63285 L 706.7759,439.50785 L 707.11965,439.50785 C 707.11965,439.50785 704.35377,437.79199 694.4009,435.0391 C 684.44806,432.28618 666.67652,431.03213 656.0884,430.82035 C 654.76488,430.79388 653.39923,430.77256 651.99465,430.7891 z"
         style="opacity:1;fill:url(#radialGradient3353);fill-opacity:1;fill-rule:evenodd;stroke:#898989;stroke-width:0.375;stroke-linecap:butt;stroke-linejoin:miter;marker:none;marker-start:none;marker-mid:none;marker-end:none;stroke-miterlimit:4;stroke-dasharray:none;stroke-dashoffset:0;stroke-opacity:1;visibility:visible;display:inline;overflow:visible;enable-background:accumulate" />
      <path
         sodipodi:nodetypes="csscccc"
         id="path3288"
         d="M 714.48061,523.45746 C 713.62122,523.35004 712.92296,523.45746 712.6544,522.86663 C 712.38583,522.27579 711.90242,521.84609 712.06356,521.36268 C 712.2247,520.87927 712.54697,520.18101 712.54697,520.18101 L 684.98353,537.03371 L 684.99258,537.10038 L 714.48061,523.45746 z"
         style="opacity:1;fill:url(#linearGradient3355);fill-opacity:1;fill-rule:evenodd;stroke:none;stroke-width:0.875;stroke-linecap:butt;stroke-linejoin:miter;marker:none;marker-start:none;marker-mid:none;marker-end:none;stroke-miterlimit:4;stroke-dasharray:none;stroke-dashoffset:0;stroke-opacity:1;visibility:visible;display:inline;overflow:visible;enable-background:accumulate" />
      <path
         sodipodi:nodetypes="cscsscscsscscscsc"
         id="path3201"
         d="M 598.77664,471.05085 C 610.00006,459.61567 625.88225,448.1805 629.05869,446.4864 C 632.23513,444.7923 637.31743,442.03938 637.31743,442.03938 C 637.31743,442.03938 663.78775,465.75679 674.16411,479.09783 C 684.54047,492.43887 692.16393,502.39171 693.85803,505.35638 C 695.55213,508.32106 696.8227,510.43869 696.8227,510.43869 C 696.8227,510.43869 665.27009,511.70926 657.01135,511.70926 C 648.75261,511.70926 625.3339,511.27134 625.3339,511.27134 C 625.3339,511.27134 633.29394,499.63879 641.12915,493.49769 C 648.96437,487.35657 676.4935,468.72147 683.69343,464.90974 C 690.89335,461.09801 697.66976,456.86276 697.66976,456.86276 C 697.66976,456.86276 712.28137,474.22729 715.88133,480.3684 C 719.48129,486.50952 720.11658,487.7801 720.11658,487.7801 C 720.11658,487.7801 709.10493,499.21527 706.98731,501.75642 C 704.86968,504.29757 696.8227,510.43869 696.8227,510.43869 C 696.8227,510.43869 647.27027,487.35657 638.79976,484.60365 C 630.32927,481.85074 598.98841,471.47438 598.77664,471.05085 z"
         style="opacity:1;fill:none;fill-opacity:1;fill-rule:evenodd;stroke:#000000;stroke-width:0.875;stroke-linecap:butt;stroke-linejoin:miter;marker:none;marker-start:none;marker-mid:none;marker-end:none;stroke-miterlimit:4;stroke-dasharray:none;stroke-dashoffset:0;stroke-opacity:1;visibility:visible;display:inline;overflow:visible;enable-background:accumulate" />
      <path
         sodipodi:nodetypes="cscsccscssc"
         id="path3203"
         d="M 625.19429,511.36888 C 628.82483,521.02215 627.24457,531.13728 628.30339,536.1137 C 630.42101,546.06653 626.7293,571.21454 626.7293,571.21454 C 626.7293,571.21454 650.02318,510.43869 652.98786,505.77991 C 655.95253,501.12114 655.95253,501.12114 655.95253,501.12114 L 669.29357,473.80377 C 669.29357,473.80377 670.98768,515.09746 669.7171,535.85019 C 668.44652,556.60292 668.70523,555.58358 668.70523,555.58358 C 668.70523,555.58358 668.86528,559.085 668.36891,560.04393 C 667.82084,561.10274 667.53074,561.5869 666.92205,562.17596 C 665.91311,563.15236 666.40464,565.17024 666.40464,565.17024"
         style="opacity:1;fill:none;fill-opacity:1;fill-rule:evenodd;stroke:#000000;stroke-width:0.875;stroke-linecap:butt;stroke-linejoin:miter;marker:none;marker-start:none;marker-mid:none;marker-end:none;stroke-miterlimit:4;stroke-dasharray:none;stroke-dashoffset:0;stroke-opacity:1;visibility:visible;display:inline;overflow:visible;enable-background:accumulate" />
      <path
         sodipodi:nodetypes="csc"
         id="path3207"
         d="M 696.39918,510.65045 C 696.39918,510.65045 685.17418,537.9225 693.06858,534.36839 C 703.31647,529.75472 688.14044,571.4263 688.14044,571.4263"
         style="opacity:1;fill:none;fill-opacity:1;fill-rule:evenodd;stroke:#000000;stroke-width:0.875;stroke-linecap:butt;stroke-linejoin:miter;marker:none;marker-start:none;marker-mid:none;marker-end:none;stroke-miterlimit:4;stroke-dasharray:none;stroke-dashoffset:0;stroke-opacity:1;visibility:visible;display:inline;overflow:visible;enable-background:accumulate" />
      <path
         id="path3217"
         d="M 688.56396,571.63806 C 678.39936,569.52044 674.16411,564.86166 671.4112,564.86166 C 668.65829,564.86166 665.48184,565.07342 665.48184,565.92047 C 665.48184,566.76753 665.48184,567.19105 665.48184,567.19105"
         style="opacity:1;fill:none;fill-opacity:1;fill-rule:evenodd;stroke:#000000;stroke-width:0.875;stroke-linecap:butt;stroke-linejoin:miter;marker:none;marker-start:none;marker-mid:none;marker-end:none;stroke-miterlimit:4;stroke-dasharray:none;stroke-dashoffset:0;stroke-opacity:1;visibility:visible;display:inline;overflow:visible;enable-background:accumulate" />
      <path
         id="path3219"
         d="M 626.94106,571.21454 C 642.18797,571.63806 652.56433,571.84983 655.74077,572.06159 C 658.91721,572.27335 665.90537,571.63806 665.90537,571.63806"
         style="opacity:1;fill:none;fill-opacity:1;fill-rule:evenodd;stroke:#000000;stroke-width:0.875;stroke-linecap:butt;stroke-linejoin:miter;marker:none;marker-start:none;marker-mid:none;marker-end:none;stroke-miterlimit:4;stroke-dasharray:none;stroke-dashoffset:0;stroke-opacity:1;visibility:visible;display:inline;overflow:visible;enable-background:accumulate" />
      <path
         id="path3221"
         d="M 599.07429,471.49732 C 617.28693,495.50489 617.90782,499.85109 618.32174,502.12767 C 618.73566,504.40425 619.14959,507.50868 619.14959,507.50868 L 619.14959,507.50868"
         style="opacity:1;fill:none;fill-opacity:1;fill-rule:evenodd;stroke:#000000;stroke-width:0.875;stroke-linecap:butt;stroke-linejoin:miter;marker:none;marker-start:none;marker-mid:none;marker-end:none;stroke-miterlimit:4;stroke-dasharray:none;stroke-dashoffset:0;stroke-opacity:1;visibility:visible;display:inline;overflow:visible;enable-background:accumulate" />
      <path
         sodipodi:nodetypes="ccccccsscccc"
         id="path3268"
         d="M 594.87806,512.71275 L 628.02131,506.62042 L 626.53532,506.67545 L 591.2019,512.23414 L 591.2515,516.47684 L 591.58715,519.49895 C 591.58715,519.49895 591.86125,520.42877 592.13752,520.43594 C 592.79152,520.45289 593.4139,519.41637 593.6235,518.78348 C 594.25336,516.88161 594.1865,515.58009 594.1865,515.58009 L 594.33898,513.49998 L 594.50545,512.96633 L 594.87806,512.71275 z"
         style="opacity:1;fill:url(#linearGradient3357);fill-opacity:1;fill-rule:evenodd;stroke:none;stroke-width:0.875;stroke-linecap:butt;stroke-linejoin:miter;marker:none;marker-start:none;marker-mid:none;marker-end:none;stroke-miterlimit:4;stroke-dasharray:none;stroke-dashoffset:0;stroke-opacity:1;visibility:visible;display:inline;overflow:visible;enable-background:accumulate" />
      <path
         id="path3223"
         d="M 625.5654,511.44096 C 625.5654,511.44096 625.5654,508.54349 624.5306,508.33653 C 623.49579,508.12957 621.84009,507.50868 621.84009,507.50868"
         style="opacity:1;fill:none;fill-opacity:1;fill-rule:evenodd;stroke:#000000;stroke-width:0.875;stroke-linecap:butt;stroke-linejoin:miter;marker:none;marker-start:none;marker-mid:none;marker-end:none;stroke-miterlimit:4;stroke-dasharray:none;stroke-dashoffset:0;stroke-opacity:1;visibility:visible;display:inline;overflow:visible;enable-background:accumulate" />
      <path
         id="path3278"
         d="M 664.97678,567.62435 L 665.95887,578.68576 C 665.95887,578.68576 668.90513,578.11718 669.16357,578.06549 C 669.42202,578.0138 671.43788,577.65198 671.74802,577.49692 C 672.05815,577.34185 672.78179,577.0834 672.47166,576.87665 C 672.16153,576.66989 671.17944,576.35976 670.09397,575.79118 C 669.00851,575.22261 667.56122,574.44727 667.25109,574.03376 C 666.94095,573.62025 666.94095,572.74154 666.57913,572.06959 C 666.21731,571.39763 665.08016,567.62435 664.97678,567.62435 z"
         style="opacity:1;fill:url(#linearGradient3359);fill-opacity:1;fill-rule:evenodd;stroke:none;stroke-width:0.875;stroke-linecap:butt;stroke-linejoin:miter;marker:none;marker-start:none;marker-mid:none;marker-end:none;stroke-miterlimit:4;stroke-dasharray:none;stroke-dashoffset:0;stroke-opacity:1;visibility:visible;display:inline;overflow:visible;enable-background:accumulate" />
    </g>
    <text
       xml:space="preserve"
       style="font-size:10px;font-style:normal;font-variant:normal;font-weight:normal;font-stretch:normal;text-align:start;line-height:100%;writing-mode:lr-tb;text-anchor:start;fill:#000000;fill-opacity:1;stroke:none;stroke-width:1pt;stroke-linecap:butt;stroke-linejoin:miter;stroke-opacity:1;font-family:Bitstream Vera Sans;-inkscape-font-specification:Bitstream Vera Sans"
       x="27.997721"
       y="600.25085"
       id="text3365"
       sodipodi:linespacing="100%"><tspan
         sodipodi:role="line"
         id="tspan3367"
         x="27.997721"
         y="600.25085">1</tspan></text>
    <text
       xml:space="preserve"
       style="font-size:10px;font-style:normal;font-variant:normal;font-weight:normal;font-stretch:normal;text-align:start;line-height:100%;writing-mode:lr-tb;text-anchor:start;fill:#000000;fill-opacity:1;stroke:none;stroke-width:1pt;stroke-linecap:butt;stroke-linejoin:miter;stroke-opacity:1;font-family:Bitstream Vera Sans;-inkscape-font-specification:Bitstream Vera Sans"
       x="217.76006"
       y="600.25085"
       id="text3369"
       sodipodi:linespacing="100%"><tspan
         sodipodi:role="line"
         id="tspan3371"
         x="217.76006"
         y="600.25085">2</tspan></text>
    <text
       xml:space="preserve"
       style="font-size:10px;font-style:normal;font-variant:normal;font-weight:normal;font-stretch:normal;text-align:start;line-height:100%;writing-mode:lr-tb;text-anchor:start;fill:#000000;fill-opacity:1;stroke:none;stroke-width:1pt;stroke-linecap:butt;stroke-linejoin:miter;stroke-opacity:1;font-family:Bitstream Vera Sans;-inkscape-font-specification:Bitstream Vera Sans"
       x="411.6702"
       y="600.25085"
       id="text3373"
       sodipodi:linespacing="100%"><tspan
         sodipodi:role="line"
         id="tspan3375"
         x="411.6702"
         y="600.25085">3</tspan></text>
    <text
       xml:space="preserve"
       style="font-size:10px;font-style:normal;font-variant:normal;font-weight:normal;font-stretch:normal;text-align:start;line-height:100%;writing-mode:lr-tb;text-anchor:start;fill:#000000;fill-opacity:1;stroke:none;stroke-width:1pt;stroke-linecap:butt;stroke-linejoin:miter;stroke-opacity:1;font-family:Bitstream Vera Sans;-inkscape-font-specification:Bitstream Vera Sans"
       x="584.84131"
       y="600.25085"
       id="text3377"
       sodipodi:linespacing="100%"><tspan
         sodipodi:role="line"
         id="tspan3379"
         x="584.84131"
         y="600.25085">4</tspan></text>
  </g>
</svg>
