<?xml version="1.0" encoding="UTF-8" standalone="no"?>
<!-- Created with Inkscape (http://www.inkscape.org/) -->
<svg
   xmlns:dc="http://purl.org/dc/elements/1.1/"
   xmlns:cc="http://creativecommons.org/ns#"
   xmlns:rdf="http://www.w3.org/1999/02/22-rdf-syntax-ns#"
   xmlns:svg="http://www.w3.org/2000/svg"
   xmlns="http://www.w3.org/2000/svg"
   xmlns:sodipodi="http://sodipodi.sourceforge.net/DTD/sodipodi-0.dtd"
   xmlns:inkscape="http://www.inkscape.org/namespaces/inkscape"
   width="744.09448819"
   height="1052.3622047"
   id="svg2"
   sodipodi:version="0.32"
   inkscape:version="0.46"
   sodipodi:docname="football-causality.svg"
   inkscape:output_extension="org.inkscape.output.svg.inkscape">
  <defs
     id="defs4">
    <inkscape:perspective
       sodipodi:type="inkscape:persp3d"
       inkscape:vp_x="0 : 526.18109 : 1"
       inkscape:vp_y="0 : 1000 : 0"
       inkscape:vp_z="744.09448 : 526.18109 : 1"
       inkscape:persp3d-origin="372.04724 : 350.78739 : 1"
       id="perspective10" />
    <inkscape:perspective
       id="perspective2447"
       inkscape:persp3d-origin="372.04724 : 350.78739 : 1"
       inkscape:vp_z="744.09448 : 526.18109 : 1"
       inkscape:vp_y="0 : 1000 : 0"
       inkscape:vp_x="0 : 526.18109 : 1"
       sodipodi:type="inkscape:persp3d" />
  </defs>
  <sodipodi:namedview
     id="base"
     pagecolor="#ffffff"
     bordercolor="#666666"
     borderopacity="1.0"
     gridtolerance="10000"
     guidetolerance="10"
     objecttolerance="10"
     inkscape:pageopacity="0.0"
     inkscape:pageshadow="2"
     inkscape:zoom="1.3914404"
     inkscape:cx="133.9221"
     inkscape:cy="731.20035"
     inkscape:document-units="px"
     inkscape:current-layer="layer1"
     showgrid="false"
     inkscape:window-width="1278"
     inkscape:window-height="996"
     inkscape:window-x="2"
     inkscape:window-y="2" />
  <metadata
     id="metadata7">
    <rdf:RDF>
      <cc:Work
         rdf:about="">
        <dc:format>image/svg+xml</dc:format>
        <dc:type
           rdf:resource="http://purl.org/dc/dcmitype/StillImage" />
      </cc:Work>
    </rdf:RDF>
  </metadata>
  <g
     inkscape:label="Layer 1"
     inkscape:groupmode="layer"
     id="layer1">
    <rect
       style="fill:none;fill-opacity:1;stroke:none;stroke-width:0.37500000000000000;stroke-miterlimit:4;stroke-dasharray:none;stroke-dashoffset:0;stroke-opacity:1"
       id="rect3430"
       width="184.25197"
       height="20.317392"
       x="17.151045"
       y="359.72382" />
    <g
       id="g3335">
      <path
         id="path3225"
         d="M 45.803544,346.47207 C 45.003665,346.45473 44.026816,345.68285 43.225855,345.28237 C 42.916578,345.12773 43.36797,342.73107 43.424139,342.50639 C 43.645054,341.62274 43.622423,340.75576 43.622423,339.92871 C 43.622423,338.93729 43.622423,337.94587 43.622423,336.95445 C 43.622423,335.86105 44.01899,335.05025 44.01899,333.98019 C 44.01899,333.09804 44.794615,332.0674 45.010409,331.20422 C 45.27999,330.1259 46.213951,329.20754 46.794963,328.62653 C 47.496834,327.92466 47.996229,327.48351 48.976084,327.23855 C 49.769749,327.04013 50.427106,326.64369 51.553772,326.64369 C 52.424439,326.64369 53.078731,327.27279 53.734894,327.43683 C 54.714102,327.68163 55.43071,328.20778 56.312582,328.42825 C 57.014497,328.60373 57.711827,329.23264 58.097136,329.61795 C 58.952514,330.47333 59.14236,330.71698 59.683406,331.79907 C 60.081766,332.59579 60.261349,333.71428 60.476541,334.57504 C 60.711359,335.51432 60.674824,336.55232 60.674824,337.5493 C 60.674824,338.54072 60.674824,339.53214 60.674824,340.52356 C 60.674824,341.50469 60.440302,342.38059 60.079973,343.10125 C 59.657909,343.94537 59.604303,344.33032 58.890271,345.28237 C 57.845822,346.67497 57.246559,344.9692 56.907433,344.29095 C 56.765619,344.00732 55.087134,343.7863 54.726312,343.6961 C 53.712576,343.44266 52.963113,343.88904 52.148624,344.09266 C 51.358286,344.29025 50.803483,344.56695 50.165786,344.8858 C 49.427301,345.25504 48.671988,345.56001 47.984665,346.0755 C 47.457743,346.47069 46.721788,346.47207 45.803544,346.47207 z"
         style="opacity:1;fill:none;fill-opacity:1;fill-rule:evenodd;stroke:#000000;stroke-width:0.87500000000000000;stroke-linecap:butt;stroke-linejoin:miter;marker:none;marker-start:none;marker-mid:none;marker-end:none;stroke-miterlimit:4;stroke-dasharray:none;stroke-dashoffset:0;stroke-opacity:1;visibility:visible;display:inline;overflow:visible;enable-background:accumulate" />
      <path
         id="path3227"
         d="M 44.415558,349.64461 C 43.455528,350.36463 42.399376,350.43774 41.243018,350.43774 C 40.209776,350.43774 40.113727,350.40754 39.26018,350.83431 C 38.537795,351.1955 37.960888,352.1336 37.475627,352.61886 C 36.798896,353.29559 36.393464,354.18834 36.087641,354.79999 C 35.754864,355.46554 35.505058,356.33718 35.294506,357.17939 C 35.108338,357.92406 35.03817,359.19615 34.897938,359.75708 C 34.689264,360.59178 34.913638,361.80272 35.096222,362.53305 C 35.33142,363.47384 35.492789,364.50165 35.492789,365.50731 C 35.492789,366.49428 35.861437,367.18018 36.087641,368.085 C 36.311624,368.98093 36.308683,369.7623 36.484208,370.4644 C 36.804446,371.74535 36.746276,371.39204 37.475627,370.66268 C 38.094337,370.04397 38.393194,369.54683 39.061897,368.87813 C 39.819531,368.1205 39.567239,367.80995 40.84645,367.49015 C 41.21643,367.39765 41.594525,367.76504 41.837869,367.88671"
         style="opacity:1;fill:none;fill-opacity:1;fill-rule:evenodd;stroke:#000000;stroke-width:0.87500000000000000;stroke-linecap:butt;stroke-linejoin:miter;marker:none;marker-start:none;marker-mid:none;marker-end:none;stroke-miterlimit:4;stroke-dasharray:none;stroke-dashoffset:0;stroke-opacity:1;visibility:visible;display:inline;overflow:visible;enable-background:accumulate" />
      <path
         id="path3229"
         d="M 38.467046,365.70559 C 38.475776,365.70341 41.409809,366.80968 41.837869,366.89529 C 42.753957,367.07851 43.568923,367.56254 44.217274,367.88671 C 45.046773,368.30146 45.611404,368.78206 46.596679,369.2747 C 46.655796,369.30426 46.728868,369.2747 46.794963,369.2747"
         style="opacity:1;fill:none;fill-opacity:1;fill-rule:evenodd;stroke:#000000;stroke-width:0.87500000000000000;stroke-linecap:butt;stroke-linejoin:miter;marker:none;marker-start:none;marker-mid:none;marker-end:none;stroke-miterlimit:4;stroke-dasharray:none;stroke-dashoffset:0;stroke-opacity:1;visibility:visible;display:inline;overflow:visible;enable-background:accumulate" />
      <path
         id="path3231"
         d="M 40.648167,362.53305 C 41.66377,363.04085 43.150379,362.66993 43.820707,362.33477 C 44.849653,361.82029 45.421542,361.32393 46.001828,360.55021 C 46.655236,359.679 47.086941,358.97484 47.588098,357.97253 C 47.95185,357.24502 48.912081,356.45026 49.372651,355.98969"
         style="opacity:1;fill:none;fill-opacity:1;fill-rule:evenodd;stroke:#000000;stroke-width:0.87500000000000000;stroke-linecap:butt;stroke-linejoin:miter;marker:none;marker-start:none;marker-mid:none;marker-end:none;stroke-miterlimit:4;stroke-dasharray:none;stroke-dashoffset:0;stroke-opacity:1;visibility:visible;display:inline;overflow:visible;enable-background:accumulate" />
      <path
         id="path3233"
         d="M 46.398395,361.34335 C 46.865754,360.40863 47.136353,363.30376 47.389814,364.31761 C 47.63983,365.31767 47.19153,365.98092 47.19153,366.89529 C 47.19153,367.88992 47.18571,368.70313 46.993246,369.47298 C 46.832809,370.11473 47.19153,370.76988 47.19153,371.45582"
         style="opacity:1;fill:none;fill-opacity:1;fill-rule:evenodd;stroke:#000000;stroke-width:0.87500000000000000;stroke-linecap:butt;stroke-linejoin:miter;marker:none;marker-start:none;marker-mid:none;marker-end:none;stroke-miterlimit:4;stroke-dasharray:none;stroke-dashoffset:0;stroke-opacity:1;visibility:visible;display:inline;overflow:visible;enable-background:accumulate" />
      <path
         id="path3235"
         d="M 46.794963,376.21463 C 46.505953,377.37067 47.568497,378.51563 47.786381,379.38717 C 47.993336,380.21499 48.425724,381.06242 48.7778,381.76657 C 49.10821,382.42739 49.37778,383.57164 49.570935,384.34426 C 49.777462,385.17037 49.818218,386.32481 49.967502,386.92195 C 50.278348,388.16533 50.745698,387.53174 51.355489,386.92195 C 52.021352,386.25609 53.008201,386.11221 53.734894,385.93053 C 54.730873,385.68154 55.302956,385.1374 56.312582,385.1374 C 57.057864,385.1374 58.476746,384.15022 59.286838,383.9477 C 60.239737,383.70947 61.099585,383.54408 61.864527,383.35284 C 62.914343,383.09039 63.831993,382.61312 64.838783,382.36143 C 65.932184,382.08808 67.138973,381.19153 68.011323,380.97344 C 69.21453,380.67264 70.327558,380.50931 71.382146,379.98202 C 72.407543,379.46932 73.687105,379.05878 74.75297,378.79232 C 75.987492,378.48369 76.161531,378.31345 76.33924,377.60262 C 76.369788,377.48042 75.243274,375.79644 75.149537,375.42149 C 74.908009,374.45538 74.153728,373.81766 73.959835,373.04209 C 73.732834,372.13409 73.413061,371.15541 72.968416,370.26612 C 72.603578,369.53644 72.770133,368.36036 72.770133,367.49015 C 72.770133,366.49552 72.775952,365.68231 72.968416,364.91246 C 73.136092,364.24175 73.160769,363.15163 73.364984,362.33477 C 73.57385,361.4993 73.563267,360.39647 73.563267,359.5588 C 73.563267,358.71046 73.959835,357.77522 73.959835,356.78282 C 73.959835,355.82972 73.364984,355.12033 73.364984,354.20513 C 73.364984,353.44018 73.155185,352.37452 72.968416,351.62745 C 72.800132,350.95431 71.892132,350.06021 71.58043,349.64461 C 71.007456,348.88064 70.270664,348.39487 69.597593,348.05834 C 68.910168,347.71463 68.276166,347.59591 67.614755,347.2652 C 66.815088,346.86537 66.030047,346.72031 65.037067,346.47207 C 64.227447,346.26966 63.099627,346.47207 62.261094,346.47207 C 61.311609,346.47207 60.625406,346.63314 59.683406,346.86864 C 59.10375,347.01355 58.77531,346.98861 58.29542,346.86864"
         style="opacity:1;fill:none;fill-opacity:1;fill-rule:evenodd;stroke:#000000;stroke-width:0.87500000000000000;stroke-linecap:butt;stroke-linejoin:miter;marker:none;marker-start:none;marker-mid:none;marker-end:none;stroke-miterlimit:4;stroke-dasharray:none;stroke-dashoffset:0;stroke-opacity:1;visibility:visible;display:inline;overflow:visible;enable-background:accumulate" />
      <path
         id="path3237"
         d="M 57.700568,356.98111 C 56.593665,357.25783 58.018694,359.24503 58.29542,360.35193 C 58.524017,361.26632 59.041572,361.55199 59.286838,362.53305 C 59.531132,363.51023 60.070692,363.90248 60.476541,364.71417 C 60.786485,365.33406 60.873108,366.38088 60.873108,367.29186 C 60.873108,368.21719 60.873108,369.14251 60.873108,370.06783 C 60.873108,370.66911 61.082703,371.89763 61.269676,372.64552 C 61.45844,373.40058 61.897683,374.09982 62.261094,374.82664 C 62.642915,375.59029 63.205302,376.56399 63.450797,376.80948 C 64.058364,377.41705 64.970972,375.81806 65.830202,375.81806 C 66.016767,375.81806 65.326161,374.19847 65.23535,373.83522 C 65.011568,372.94009 64.660974,372.33085 64.442215,371.45582 C 64.218933,370.56269 64.263458,369.59316 64.442215,368.87813 C 64.65627,368.02191 64.402522,366.9348 64.243932,366.30044 C 63.996144,365.30929 64.026704,364.67628 63.649081,363.92104 C 63.298522,363.21992 63.072189,362.40661 62.855946,361.54163 C 62.612218,360.56672 62.294669,360.08966 62.062811,359.16223 C 61.852047,358.31917 61.385754,357.41155 61.071392,356.78282 C 60.615728,355.8715 60.192171,356.35821 59.286838,356.58454 C 58.364464,356.81513 59.326675,356.98111 57.700568,356.98111 z"
         style="opacity:1;fill:none;fill-opacity:1;fill-rule:evenodd;stroke:#000000;stroke-width:0.87500000000000000;stroke-linecap:butt;stroke-linejoin:miter;marker:none;marker-start:none;marker-mid:none;marker-end:none;stroke-miterlimit:4;stroke-dasharray:none;stroke-dashoffset:0;stroke-opacity:1;visibility:visible;display:inline;overflow:visible;enable-background:accumulate" />
      <path
         id="path3239"
         d="M 73.1667,372.84381 C 72.936386,373.07412 72.198962,373.83522 71.58043,373.83522 C 70.510057,373.83522 69.676852,373.79546 69.201025,372.84381 C 68.875073,372.1919 68.22923,371.13775 68.011323,370.26612 C 67.814993,369.4808 67.64991,369.01875 67.416472,368.085 C 67.162936,367.07085 66.948855,366.38636 67.218188,365.30902 C 67.599502,363.78377 66.993551,364.66147 66.425053,363.52447 C 65.955827,362.58602 65.586574,362.24408 65.23535,361.54163 C 64.826165,360.72326 64.442215,360.3927 64.442215,359.16223 C 64.442215,358.06754 64.674152,357.44135 64.838783,356.78282 C 65.090764,355.7749 65.313954,355.51452 66.028485,354.79999 C 66.687288,354.14118 67.154607,353.99096 68.011323,354.20513 C 68.964552,354.44344 69.040931,356.62456 69.99416,356.38626 C 70.049026,356.38626 71.107373,359.25284 71.183863,359.5588 C 71.366249,360.28834 71.870949,360.93297 72.175281,361.54163 C 72.234398,361.65987 72.175281,361.80601 72.175281,361.9382"
         style="opacity:1;fill:none;fill-opacity:1;fill-rule:evenodd;stroke:#000000;stroke-width:0.87500000000000000;stroke-linecap:butt;stroke-linejoin:miter;marker:none;marker-start:none;marker-mid:none;marker-end:none;stroke-miterlimit:4;stroke-dasharray:none;stroke-dashoffset:0;stroke-opacity:1;visibility:visible;display:inline;overflow:visible;enable-background:accumulate" />
      <path
         id="path3241"
         d="M 68.011323,357.57596 C 68.38521,358.32373 67.015419,359.14429 67.218188,359.95536 C 67.425182,360.78334 67.940734,361.43912 68.606174,361.9382 C 69.599752,362.68338 70.014992,361.42668 69.795876,360.55021 C 69.595718,359.74958 69.2029,359.36801 69.002741,358.56738 C 68.808524,357.79051 70.297951,359.40526 68.011323,357.57596 z"
         style="opacity:1;fill:none;fill-opacity:1;fill-rule:evenodd;stroke:#000000;stroke-width:0.87500000000000000;stroke-linecap:butt;stroke-linejoin:miter;marker:none;marker-start:none;marker-mid:none;marker-end:none;stroke-miterlimit:4;stroke-dasharray:none;stroke-dashoffset:0;stroke-opacity:1;visibility:visible;display:inline;overflow:visible;enable-background:accumulate" />
      <path
         id="path3243"
         d="M 71.183863,366.89529 C 70.749184,365.15658 70.740614,366.98394 70.192444,367.09358 C 69.390775,367.25391 70.421678,368.74175 70.787295,369.47298 C 71.064571,370.02754 71.720576,369.40291 71.976998,369.2747"
         style="opacity:1;fill:none;fill-opacity:1;fill-rule:evenodd;stroke:#000000;stroke-width:0.87500000000000000;stroke-linecap:butt;stroke-linejoin:miter;marker:none;marker-start:none;marker-mid:none;marker-end:none;stroke-miterlimit:4;stroke-dasharray:none;stroke-dashoffset:0;stroke-opacity:1;visibility:visible;display:inline;overflow:visible;enable-background:accumulate" />
      <path
         id="path3245"
         d="M 52.148624,389.30136 C 52.573002,390.15011 51.89909,391.88576 51.752056,392.4739 C 51.549651,393.28352 51.752056,394.41134 51.752056,395.24987 C 51.752056,396.17519 51.752056,397.10052 51.752056,398.02584 C 51.752056,399.07569 51.747105,399.98887 51.95034,400.80181 C 52.177765,401.71151 52.148624,402.46353 52.148624,403.3795 C 52.148624,404.35326 52.346907,405.14012 52.346907,406.15547 C 52.346907,406.98078 52.743475,407.74135 52.743475,408.73316 C 52.743475,409.44753 52.937355,410.5001 53.140042,411.31085 C 53.355464,412.17254 53.361754,413.18912 53.53661,413.88854 C 53.739589,414.70046 53.899984,415.54032 54.131461,416.46623 C 54.39422,417.51726 54.673509,418.43614 54.924596,419.44048 C 55.155822,420.36539 55.341621,421.50515 55.519447,422.21646 C 55.737181,423.08739 55.717731,423.9243 55.717731,424.99243 C 55.717731,425.9571 55.522056,426.9857 55.717731,427.7684 C 55.868331,428.3708 57.290583,428.56154 57.898852,428.56154 C 58.762443,428.56154 59.958515,428.34405 60.674824,428.16497 C 61.682493,427.91305 62.54339,428.39182 63.450797,428.16497 C 64.476839,427.90846 64.713021,427.57012 65.830202,427.57012 C 66.755526,427.57012 65.830202,425.71947 65.830202,424.79415 C 65.830202,423.79337 66.028485,423.0329 66.028485,422.01817 C 66.028485,421.01512 66.226769,420.17707 66.226769,419.2422 C 66.226769,418.38579 66.82162,417.44845 66.82162,416.46623 C 66.82162,415.63948 67.638472,414.78509 67.813039,414.08682 C 67.982852,413.40757 68.709941,412.4913 69.002741,411.9057 C 69.321285,411.26862 69.40925,410.47795 69.597593,409.72458 C 69.837559,408.76472 69.972156,408.02805 70.192444,407.14689 C 70.398369,406.32319 69.99416,405.27698 69.99416,404.37092 C 69.99416,403.00499 70.469854,403.10209 71.183863,402.38808 C 71.479447,402.0925 71.968027,402.0929 72.373565,401.99152"
         style="opacity:1;fill:none;fill-opacity:1;fill-rule:evenodd;stroke:#000000;stroke-width:0.87500000000000000;stroke-linecap:butt;stroke-linejoin:miter;marker:none;marker-start:none;marker-mid:none;marker-end:none;stroke-miterlimit:4;stroke-dasharray:none;stroke-dashoffset:0;stroke-opacity:1;visibility:visible;display:inline;overflow:visible;enable-background:accumulate" />
      <path
         id="path3247"
         d="M 71.778714,405.36234 C 71.961168,405.17989 73.127981,407.30646 73.761551,407.94003 C 74.310274,408.48875 74.899188,409.42217 75.149537,409.92287 C 75.462638,410.54907 76.63086,411.60247 77.132375,412.10399 C 77.75972,412.73133 78.123794,414.0066 78.123794,414.87996 C 78.123794,415.46442 78.718293,416.26654 78.916928,417.06108 C 79.093589,417.76772 79.801698,418.83062 80.106631,419.44048 C 80.507924,420.24307 80.998146,420.72857 81.692901,421.42332 C 82.316728,422.04715 82.669584,422.40001 83.279171,423.00959 C 84.140432,423.87085 85.108785,423.16282 85.460292,422.81131 C 86.09907,422.17253 86.462126,421.14506 86.848278,420.63019 C 87.366707,419.93895 87.638085,419.24553 88.236264,418.64735 C 88.685682,418.19793 89.165296,417.27645 89.62425,416.66451 C 90.060139,416.08333 90.31688,415.57532 90.813953,415.07824 C 91.069357,414.82284 89.930094,413.11224 89.822534,412.89712 C 89.521056,412.29417 89.152368,411.35851 88.831115,410.716 C 88.463146,409.98006 88.477268,409.30061 88.236264,408.3366 C 88.007767,407.42261 87.856854,406.81896 87.641413,405.95719 C 87.405975,405.01544 87.103022,404.39848 86.848278,403.3795 C 86.639648,402.54498 86.141494,401.76765 85.856859,401.19838 C 85.432413,400.34949 85.243655,399.58764 84.667157,398.81898 C 84.177731,398.16641 83.864642,396.9969 83.675738,396.24129 C 83.44462,395.31681 82.83772,394.56525 82.486036,393.86188 C 82.063188,393.01619 81.710396,392.70717 81.296333,391.87905 C 80.937774,391.16193 80.62279,390.53196 80.304915,389.89621 C 79.90652,389.09942 79.650056,388.58649 79.313496,387.91337 C 78.947408,387.1812 78.848603,386.19045 78.520361,385.53397 C 78.201751,384.89674 78.122541,383.94269 77.92551,383.15456 C 77.735657,382.39515 77.350254,381.4092 76.934091,380.57687 C 76.703233,380.11515 76.206106,379.81631 75.744389,379.58545"
         style="opacity:1;fill:none;fill-opacity:1;fill-rule:evenodd;stroke:#000000;stroke-width:0.87500000000000000;stroke-linecap:butt;stroke-linejoin:miter;marker:none;marker-start:none;marker-mid:none;marker-end:none;stroke-miterlimit:4;stroke-dasharray:none;stroke-dashoffset:0;stroke-opacity:1;visibility:visible;display:inline;overflow:visible;enable-background:accumulate" />
      <path
         id="path3249"
         d="M 86.451711,424.00101 C 86.012293,423.12218 88.274453,425.23074 89.227683,424.99243 C 90.197512,424.74997 90.822411,424.64332 91.805372,424.39758 C 92.74694,424.16219 93.41365,423.79172 94.184776,423.40616 C 94.78146,423.10782 95.85691,422.98813 96.564181,422.81131 C 97.134307,422.66878 98.330714,422.22096 99.14187,422.01817 C 100.07389,421.78517 100.66823,421.55242 101.32299,421.22504 C 102.14511,420.81398 102.40149,420.63019 103.7024,420.63019 C 104.61197,420.63019 105.04938,420.23362 106.0818,420.23362 C 107.15386,420.23362 107.59127,420.05454 108.46121,419.83705 C 109.21369,419.64893 110.38645,419.82265 111.23718,420.03534 C 111.3013,420.05137 111.36937,420.03534 111.43546,420.03534"
         style="opacity:1;fill:none;fill-opacity:1;fill-rule:evenodd;stroke:#000000;stroke-width:0.87500000000000000;stroke-linecap:butt;stroke-linejoin:miter;marker:none;marker-start:none;marker-mid:none;marker-end:none;stroke-miterlimit:4;stroke-dasharray:none;stroke-dashoffset:0;stroke-opacity:1;visibility:visible;display:inline;overflow:visible;enable-background:accumulate" />
      <path
         id="path3251"
         d="M 92.79679,413.69026 C 93.80567,413.94248 95.303974,413.69026 96.365898,413.69026 C 97.359643,413.69026 98.285151,413.92222 98.943586,414.08682 C 99.803723,414.30186 100.42973,414.48339 101.32299,414.48339 C 102.09261,414.48339 103.19474,414.68168 104.09896,414.68168 C 105.02429,414.68168 105.94961,414.68168 106.87494,414.68168 C 107.51408,414.68168 108.53816,414.87996 109.45262,414.87996 C 109.9885,414.87996 110.62155,415.17219 111.03889,415.27653"
         style="opacity:1;fill:none;fill-opacity:1;fill-rule:evenodd;stroke:#000000;stroke-width:0.87500000000000000;stroke-linecap:butt;stroke-linejoin:miter;marker:none;marker-start:none;marker-mid:none;marker-end:none;stroke-miterlimit:4;stroke-dasharray:none;stroke-dashoffset:0;stroke-opacity:1;visibility:visible;display:inline;overflow:visible;enable-background:accumulate" />
      <path
         id="path3253"
         d="M 100.33157,414.87996 C 100.41836,414.87996 99.58376,416.48322 99.14187,418.25078 C 98.878692,419.30349 99.122071,420.01554 99.736721,420.63019 C 99.86891,420.76238 100.0011,420.89457 100.13329,421.02675"
         style="opacity:1;fill:none;fill-opacity:1;fill-rule:evenodd;stroke:#000000;stroke-width:0.87500000000000000;stroke-linecap:butt;stroke-linejoin:miter;marker:none;marker-start:none;marker-mid:none;marker-end:none;stroke-miterlimit:4;stroke-dasharray:none;stroke-dashoffset:0;stroke-opacity:1;visibility:visible;display:inline;overflow:visible;enable-background:accumulate" />
      <path
         id="path3255"
         d="M 111.63375,414.48339 C 112.1918,415.04145 112.03031,417.02966 112.03031,417.85421 C 112.03031,418.99699 112.20398,419.54029 112.42688,420.4319 C 112.6698,421.40357 113.12202,421.59711 114.01315,421.81989 C 115.01316,422.06989 115.61767,422.17145 116.59084,422.41474 C 117.44317,422.62782 118.15257,422.89818 118.77196,423.20788 C 119.57737,423.61058 119.95767,424.1973 120.7548,424.59586 C 121.46638,424.95165 122.42171,425.84605 123.1342,426.38042 C 123.7064,426.80956 124.45989,427.34068 125.31532,427.7684 C 125.72914,427.97531 126.25446,427.88061 126.70331,427.7684 C 127.53935,427.55939 125.70072,426.35807 125.31532,425.58728 C 124.91543,424.78749 124.53348,424.24444 124.3239,423.40616 C 124.04769,422.30131 123.64038,421.9295 122.93592,421.22504 C 122.27241,420.56153 121.64277,420.50518 120.55651,420.23362 C 119.66236,420.01008 118.99511,419.35378 118.37539,419.04392 C 118.0435,418.87797 117.49711,417.48563 117.18569,416.8628 C 117.15613,416.80368 117.18569,416.73061 117.18569,416.66451 C 117.18569,415.33087 117.02393,415.24 117.78054,414.48339 C 118.55626,413.70767 118.38599,413.79205 117.18569,413.49197 C 116.35755,413.28494 115.1453,413.50636 114.40972,413.69026 C 113.35373,413.95425 110.9471,414.48339 112.82345,414.48339"
         style="opacity:1;fill:none;fill-opacity:1;fill-rule:evenodd;stroke:#000000;stroke-width:0.87500000000000000;stroke-linecap:butt;stroke-linejoin:miter;marker:none;marker-start:none;marker-mid:none;marker-end:none;stroke-miterlimit:4;stroke-dasharray:none;stroke-dashoffset:0;stroke-opacity:1;visibility:visible;display:inline;overflow:visible;enable-background:accumulate" />
      <path
         id="path3257"
         d="M 119.76338,414.28511 C 120.75939,414.28511 121.54911,415.67427 121.9445,416.06966 C 122.52003,416.64519 122.91603,417.41787 123.33249,418.25078 C 123.5669,418.71962 125.30168,418.64735 125.91017,418.64735 C 126.73744,418.64735 127.58046,419.38335 128.0913,419.63877 C 128.65841,419.92233 128.92628,420.99586 129.08271,421.62161 C 129.30952,422.52882 129.67757,423.06407 129.67757,424.19929 C 129.67757,425.32404 129.27772,425.79869 129.08271,426.5787 C 128.93492,427.16987 128.25863,427.4792 127.89301,427.96669"
         style="opacity:1;fill:none;fill-opacity:1;fill-rule:evenodd;stroke:#000000;stroke-width:0.87500000000000000;stroke-linecap:butt;stroke-linejoin:miter;marker:none;marker-start:none;marker-mid:none;marker-end:none;stroke-miterlimit:4;stroke-dasharray:none;stroke-dashoffset:0;stroke-opacity:1;visibility:visible;display:inline;overflow:visible;enable-background:accumulate" />
      <path
         id="path3259"
         d="M 65.631918,429.15639 C 65.321794,430.39689 64.652784,431.51122 64.243932,432.32893 C 63.924314,432.96816 64.347336,434.5271 64.442215,434.90662 C 64.640777,435.70086 64.608402,436.76106 64.838783,437.68259 C 65.041188,438.49221 64.838783,439.62003 64.838783,440.45856 C 64.838783,441.40832 64.442215,441.95052 64.442215,443.03625 C 64.442215,443.97023 64.06615,445.13536 63.847364,446.01051 C 63.659452,446.76215 63.481008,447.67421 63.252513,448.58819 C 63.037268,449.44917 63.054229,450.47766 63.054229,451.36417 C 63.054229,452.08543 62.799461,453.37466 62.657662,453.94186 C 62.484024,454.63641 62.293435,455.39876 62.062811,456.32126 C 61.853714,457.15764 62.079784,458.37199 62.261094,459.09723 C 62.432602,459.78327 63.058829,460.30533 63.252513,461.08007 C 63.531414,462.19568 63.253296,461.08033 63.847364,461.27835"
         style="opacity:1;fill:none;fill-opacity:1;fill-rule:evenodd;stroke:#000000;stroke-width:0.87500000000000000;stroke-linecap:butt;stroke-linejoin:miter;marker:none;marker-start:none;marker-mid:none;marker-end:none;stroke-miterlimit:4;stroke-dasharray:none;stroke-dashoffset:0;stroke-opacity:1;visibility:visible;display:inline;overflow:visible;enable-background:accumulate" />
      <path
         id="path3261"
         d="M 56.114298,429.15639 C 56.196037,429.48334 56.246488,429.81733 56.312582,430.14781 C 56.508034,431.12507 56.510866,432.08723 56.510866,433.12206 C 56.510866,434.09375 56.312582,434.62329 56.312582,435.69975 C 56.312582,436.62508 56.312582,437.5504 56.312582,438.47572 C 56.312582,439.395 55.916015,440.1154 55.916015,441.05341 C 55.916015,441.97874 55.916015,442.90406 55.916015,443.82938 C 55.916015,444.87165 56.312582,445.39093 56.312582,446.40707 C 56.312582,447.17669 56.510866,448.27882 56.510866,449.18305 C 56.510866,450.13023 56.547369,451.3119 56.70915,451.95902 C 56.911554,452.76864 56.70915,453.89646 56.70915,454.73499 C 56.70915,455.64468 56.907433,456.72491 56.907433,457.70925 C 56.907433,458.49316 57.140102,459.63134 57.304001,460.28694 C 57.524485,461.16887 58.480781,461.08007 59.485122,461.08007 C 60.403823,461.08007 61.429581,461.04009 62.062811,460.88179 C 62.157903,460.85801 62.629133,460.31546 62.657662,460.28694"
         style="opacity:1;fill:none;fill-opacity:1;fill-rule:evenodd;stroke:#000000;stroke-width:0.87500000000000000;stroke-linecap:butt;stroke-linejoin:miter;marker:none;marker-start:none;marker-mid:none;marker-end:none;stroke-miterlimit:4;stroke-dasharray:none;stroke-dashoffset:0;stroke-opacity:1;visibility:visible;display:inline;overflow:visible;enable-background:accumulate" />
      <path
         id="path3263"
         d="M 56.70915,460.6835 C 57.053176,460.5975 56.373443,463.81088 56.312582,464.05433 C 56.110177,464.86395 56.312582,465.99177 56.312582,466.8303 C 56.312582,468.00909 56.984534,467.82172 58.097136,467.82172 C 59.071816,467.82172 60.002506,467.84108 60.873108,467.62343 C 61.658523,467.42708 62.460792,467.22687 63.450797,467.22687 C 64.213464,467.22687 65.062872,466.98546 66.028485,467.22687 C 67.0117,467.47267 67.68294,466.89535 68.209607,466.63201 C 69.013682,466.22998 66.747672,465.58514 66.028485,465.04575 C 65.382227,464.56105 65.087491,463.70818 64.442215,463.06291 C 64.038951,462.65964 64.045648,461.89889 64.045648,461.27835"
         style="opacity:1;fill:none;fill-opacity:1;fill-rule:evenodd;stroke:#000000;stroke-width:0.87500000000000000;stroke-linecap:butt;stroke-linejoin:miter;marker:none;marker-start:none;marker-mid:none;marker-end:none;stroke-miterlimit:4;stroke-dasharray:none;stroke-dashoffset:0;stroke-opacity:1;visibility:visible;display:inline;overflow:visible;enable-background:accumulate" />
      <path
         id="path3265"
         d="M 39.061897,371.25754 C 38.314122,370.50976 39.061897,373.37256 39.061897,374.43008 C 39.061897,374.96295 38.645559,375.44127 38.268762,375.81806 C 37.721732,376.36509 36.861258,375.02493 36.087641,375.02493 C 35.212713,375.02493 34.574001,376.01635 35.889357,376.01635 C 37.055573,376.01635 37.329935,376.425 37.475627,377.00776 C 37.681655,377.83188 36.095169,378.09456 35.492789,378.39575 C 34.63665,378.82382 34.057111,379.02825 33.113385,378.79232 C 31.701373,378.43932 31.529187,379.1806 31.328831,379.98202 C 31.135801,380.75414 32.936115,379.98727 33.708236,380.1803 C 34.458755,380.36793 32.300732,380.97344 31.527115,380.97344 C 30.380513,380.97344 31.55413,381.87247 31.923682,381.96486 C 32.6413,382.14426 33.432648,381.33976 34.104803,381.17172 C 35.217935,380.89344 33.527259,382.34412 33.311668,382.55971 C 32.34574,383.52564 33.47224,383.55113 34.501371,383.55113 C 34.734305,383.55113 35.769763,382.68875 36.285924,382.55971 C 37.033699,382.37277 36.786213,384.19784 37.475627,384.54255 C 38.495969,385.05272 39.287198,385.11038 40.053315,384.34426 C 40.648284,383.74929 41.718937,383.72957 42.43272,383.55113 C 42.732802,383.47611 43.523574,381.86542 43.820707,381.56829 C 44.212849,381.17615 44.651714,380.02881 44.812125,379.38717 C 45.040692,378.4729 45.400709,377.62769 45.60526,376.80948 C 45.811087,375.98617 46.099508,375.22613 46.398395,374.62836 C 46.844036,373.73708 46.993246,372.73473 46.993246,371.6541 C 46.993246,371.24207 47.13635,371.58255 47.389814,371.45582"
         style="opacity:1;fill:none;fill-opacity:1;fill-rule:evenodd;stroke:#000000;stroke-width:0.87500000000000000;stroke-linecap:butt;stroke-linejoin:miter;marker:none;marker-start:none;marker-mid:none;marker-end:none;stroke-miterlimit:4;stroke-dasharray:none;stroke-dashoffset:0;stroke-opacity:1;visibility:visible;display:inline;overflow:visible;enable-background:accumulate" />
      <path
         id="path3307"
         d="M 57.304001,445.21737 C 57.304001,444.15163 59.523311,446.09055 60.476541,445.61394 C 61.184111,445.26015 62.042103,445.22255 62.855946,445.01909 C 63.286486,444.91145 63.35846,444.94303 63.847364,444.8208"
         style="opacity:1;fill:none;fill-opacity:1;fill-rule:evenodd;stroke:#000000;stroke-width:0.87500000000000000;stroke-linecap:butt;stroke-linejoin:miter;marker:none;marker-start:none;marker-mid:none;marker-end:none;stroke-miterlimit:4;stroke-dasharray:none;stroke-dashoffset:0;stroke-opacity:1;visibility:visible;display:inline;overflow:visible;enable-background:accumulate" />
    </g>
    <path
       style="fill:#646464;fill-opacity:1;fill-rule:evenodd;stroke:none;stroke-width:0.625;stroke-linecap:butt;stroke-linejoin:miter;stroke-miterlimit:4;stroke-dasharray:none;stroke-opacity:1"
       d="M 76.65535,341.8432 C 141.95408,250.32972 163.97589,349.86595 163.97589,349.86595 L 163.796,349.93518 L 164.51216,345.63822 C 164.51216,345.63822 140.54269,246.86437 75.350125,337.22333 C 74.972612,337.74698 74.275884,338.83469 74.275884,338.83469 L 76.65535,341.8432 z"
       id="path3202"
       sodipodi:nodetypes="ccccscc" />
    <g
       id="g3375"
       transform="translate(22.745322,-15.512841)">
      <path
         id="path3273"
         d="M 137.21235,378.9906 C 137.52192,379.40337 135.78105,381.80989 135.62608,381.96486 C 134.99113,382.5998 134.66936,383.87829 134.23809,384.74083 C 133.66131,385.8944 134.14815,385.94894 134.63466,386.92195 C 134.80172,387.25607 136.18049,388.2695 136.6175,388.70651 C 137.14209,389.2311 137.54514,390.36351 137.8072,390.88763 C 138.35428,391.98178 138.95799,391.96846 139.39347,392.07733 C 139.4378,392.08841 140.74422,390.72657 140.97974,390.49106 C 141.32256,390.14823 140.53933,389.4558 139.98832,388.90479 C 139.44224,388.35871 139.55894,386.98899 139.39347,386.3271 C 139.21068,385.59594 140.1278,384.48876 140.38489,384.14598 C 140.55314,383.92165 140.78146,383.74941 140.97974,383.55113"
         style="opacity:1;fill:none;fill-opacity:1;fill-rule:evenodd;stroke:#000000;stroke-width:0.875;stroke-linecap:butt;stroke-linejoin:miter;marker:none;marker-start:none;marker-mid:none;marker-end:none;stroke-miterlimit:4;stroke-dasharray:none;stroke-dashoffset:0;stroke-opacity:1;visibility:visible;display:inline;overflow:visible;enable-background:accumulate" />
      <path
         id="path3271"
         d="M 147.5231,371.05925 C 148.01059,372.03423 145.40808,370.5305 144.35056,370.26612 C 143.31942,370.00833 142.88465,370.23603 141.97116,370.4644 C 141.3025,370.63156 140.77571,371.45869 139.98832,371.85239 C 139.06275,372.31517 138.69854,373.17553 138.20377,373.83522 C 137.69204,374.51753 137.41063,375.16069 137.41063,376.21463 C 137.41063,377.0927 137.6174,377.6111 138.20377,378.19747 C 138.68015,378.67385 138.88338,379.95325 139.19519,380.57687 C 139.55397,381.29443 140.27938,381.692 140.78146,382.36143 C 141.40531,383.19323 142.137,382.37765 142.16944,382.36143"
         style="fill:none;fill-opacity:1;fill-rule:evenodd;stroke:#000000;stroke-width:0.875;stroke-linecap:butt;stroke-linejoin:miter;marker:none;marker-start:none;marker-mid:none;marker-end:none;stroke-miterlimit:4;stroke-dasharray:none;stroke-dashoffset:0;stroke-opacity:1;visibility:visible;display:inline;overflow:visible;enable-background:accumulate" />
      <path
         id="path3275"
         d="M 139.39347,392.67218 C 140.04389,391.80495 140.40672,394.76507 141.37631,395.24987 C 142.22709,395.67526 142.77222,396.39198 143.75571,396.63785 C 144.7957,396.89785 142.78835,394.88538 142.76429,394.8533 C 141.85007,393.63434 142.51545,394.40618 143.16086,395.05158 C 143.51334,395.40406 145.29208,395.99311 144.15228,394.8533 C 143.78726,394.48828 143.52588,394.02862 143.16086,393.6636 C 142.67292,393.17566 144.47425,394.42581 145.1437,394.25845 C 145.73487,394.11066 144.30074,393.34126 143.75571,393.06875 C 143.30549,392.84364 144.65537,393.78568 145.1437,393.6636 C 145.58858,393.55238 143.6998,392.3468 143.55743,392.27561 C 142.63436,391.81408 144.12932,392.0335 144.74713,391.87905 C 145.88099,391.59558 145.64925,390.68934 144.35056,390.68934 C 143.7412,390.68934 143.15718,390.93812 142.56601,391.08591"
         style="fill:none;fill-opacity:1;fill-rule:evenodd;stroke:#000000;stroke-width:0.875;stroke-linecap:butt;stroke-linejoin:miter;marker:none;marker-start:none;marker-mid:none;marker-end:none;stroke-miterlimit:4;stroke-dasharray:none;stroke-dashoffset:0;stroke-opacity:1;visibility:visible;display:inline;overflow:visible;enable-background:accumulate" />
      <path
         id="path3277"
         d="M 156.64415,372.05067 C 155.50792,372.33473 158.96743,372.51831 160.01498,373.04209 C 160.91388,373.49154 161.24484,373.69048 161.79953,374.43008 C 162.19629,374.95909 162.1961,376.43366 162.1961,377.00776 C 162.1961,377.99827 162.08397,378.05114 161.79953,379.18889 C 161.54518,380.20629 161.19198,380.60228 160.80811,381.37001 C 160.25138,382.48347 160.79672,382.91069 161.0064,383.74941 C 161.23754,384.674 161.2364,385.60538 161.0064,386.52538 C 160.78232,387.42167 160.85985,388.30126 160.60983,389.30136 C 160.43277,390.0096 160.58861,390.77424 160.41155,391.48248 C 160.2007,392.32586 158.7032,391.08591 157.83386,391.08591 C 157.02978,391.08591 158.23042,389.51058 158.23042,388.70651 C 158.23042,387.68127 157.83386,387.41737 157.83386,386.3271 C 157.83386,385.25594 157.38958,384.53508 157.63557,383.55113"
         style="fill:none;fill-opacity:1;fill-rule:evenodd;stroke:#000000;stroke-width:0.875;stroke-linecap:butt;stroke-linejoin:miter;marker:none;marker-start:none;marker-mid:none;marker-end:none;stroke-miterlimit:4;stroke-dasharray:none;stroke-dashoffset:0;stroke-opacity:1;visibility:visible;display:inline;overflow:visible;enable-background:accumulate" />
      <path
         id="path3279"
         d="M 159.42013,392.27561 C 159.42013,391.26672 158.54725,394.13991 157.83386,394.8533 C 157.41709,395.27006 160.13969,395.06998 160.21326,395.05158 C 160.97219,394.86185 160.52093,393.1097 160.41155,392.67218"
         style="fill:none;fill-opacity:1;fill-rule:evenodd;stroke:#000000;stroke-width:0.875;stroke-linecap:butt;stroke-linejoin:miter;marker:none;marker-start:none;marker-mid:none;marker-end:none;stroke-miterlimit:4;stroke-dasharray:none;stroke-dashoffset:0;stroke-opacity:1;visibility:visible;display:inline;overflow:visible;enable-background:accumulate" />
      <path
         id="path3281"
         d="M 157.83386,391.87905 C 158.48777,391.71557 157.57651,393.6984 158.23042,393.86188"
         style="fill:none;fill-opacity:1;fill-rule:evenodd;stroke:#000000;stroke-width:0.875;stroke-linecap:butt;stroke-linejoin:miter;marker:none;marker-start:none;marker-mid:none;marker-end:none;stroke-miterlimit:4;stroke-dasharray:none;stroke-dashoffset:0;stroke-opacity:1;visibility:visible;display:inline;overflow:visible;enable-background:accumulate" />
      <path
         id="path3283"
         d="M 149.30766,373.43866 C 150.36905,373.17331 150.20636,375.43436 150.69564,376.41291 C 151.17455,377.37074 151.39534,377.49777 152.08363,376.80948 C 152.7066,376.18651 153.35572,375.53739 153.86818,375.02493 C 154.15286,374.74025 154.34696,373.86908 154.46303,373.63694"
         style="fill:none;fill-opacity:1;fill-rule:evenodd;stroke:#000000;stroke-width:0.875;stroke-linecap:butt;stroke-linejoin:miter;marker:none;marker-start:none;marker-mid:none;marker-end:none;stroke-miterlimit:4;stroke-dasharray:none;stroke-dashoffset:0;stroke-opacity:1;visibility:visible;display:inline;overflow:visible;enable-background:accumulate" />
      <path
         id="path3289"
         d="M 148.51452,381.56829 C 148.83287,381.72747 147.5231,381.52765 147.5231,381.17172 C 147.5231,379.24423 148.9466,382.86453 148.11795,380.37859 C 147.91736,379.7768 150.20059,379.9574 150.29907,379.98202 C 150.92755,380.13914 150.54913,382.35261 150.49736,382.55971 C 150.29068,383.38641 149.83271,383.88901 149.50594,384.54255 C 149.09077,385.37289 147.97138,386.00382 149.70422,385.1374 C 151.19901,384.39001 149.99422,386.43367 149.90251,386.52538 C 149.43311,386.99478 148.12522,387.41221 147.72139,387.71509 C 146.79125,388.41269 146.58991,386.84012 146.3334,386.3271 C 145.84539,385.35108 147.15521,384.51387 147.5231,384.14598 C 148.5145,383.15458 149.10019,381.86112 149.30766,381.96486 C 149.42589,382.02397 149.17547,381.56829 149.30766,381.56829"
         style="fill:none;fill-opacity:1;fill-rule:evenodd;stroke:#000000;stroke-width:0.875;stroke-linecap:butt;stroke-linejoin:miter;marker:none;marker-start:none;marker-mid:none;marker-end:none;stroke-miterlimit:4;stroke-dasharray:none;stroke-dashoffset:0;stroke-opacity:1;visibility:visible;display:inline;overflow:visible;enable-background:accumulate" />
      <path
         id="path3291"
         d="M 156.0493,380.57687 C 156.99702,381.05073 153.9047,380.1216 152.87676,380.37859 C 152.71431,380.4192 152.34834,382.69057 152.28191,382.95628 C 152.01735,384.01451 151.87962,384.34426 153.27333,384.34426 C 154.56094,384.34426 153.38873,386.01341 153.07505,386.3271 C 152.53002,386.87213 154.71318,385.82681 155.05788,385.1374 C 155.53396,384.18526 155.48141,383.60505 155.05788,382.75799 C 154.53703,381.71628 153.211,383.6758 154.06647,381.96486 C 154.74956,380.59866 155.64968,382.57501 156.0493,380.57687 z"
         style="fill:none;fill-opacity:1;fill-rule:evenodd;stroke:#000000;stroke-width:0.875;stroke-linecap:butt;stroke-linejoin:miter;marker:none;marker-start:none;marker-mid:none;marker-end:none;stroke-miterlimit:4;stroke-dasharray:none;stroke-dashoffset:0;stroke-opacity:1;visibility:visible;display:inline;overflow:visible;enable-background:accumulate" />
      <path
         id="path3293"
         d="M 147.5231,394.8533 C 147.99972,393.90007 148.35578,396.87568 149.10937,397.62927 C 149.90726,398.42716 150.36851,398.53891 151.48878,398.81898 C 152.15164,398.98469 153.13333,399.23011 153.86818,399.41383 C 154.91943,399.67664 155.39829,399.91698 156.0493,400.40525 C 156.77635,400.95053 157.40521,401.56287 158.03214,402.1898 C 158.69063,402.84829 158.22062,403.81528 158.03214,404.5692 C 157.79285,405.52638 157.84358,406.59094 158.03214,407.34518 C 158.3001,408.41701 158.8927,408.89873 159.81669,409.12973 C 160.4014,409.27591 161.57569,408.97463 162.1961,409.12973 C 162.82379,409.28665 162.98923,407.41942 162.98923,406.94861 C 162.98923,406.04559 163.7751,405.39143 163.98065,404.5692 C 164.19335,403.71843 164.17894,402.75832 164.17894,401.79323 C 164.17894,400.69094 164.18102,400.01284 163.78237,399.21554 C 163.37968,398.41016 162.59984,397.57274 162.1961,397.03442 C 161.91013,396.65313 161.51856,396.3071 161.40296,395.84472"
         style="fill:none;fill-opacity:1;fill-rule:evenodd;stroke:#000000;stroke-width:0.875;stroke-linecap:butt;stroke-linejoin:miter;marker:none;marker-start:none;marker-mid:none;marker-end:none;stroke-miterlimit:4;stroke-dasharray:none;stroke-dashoffset:0;stroke-opacity:1;visibility:visible;display:inline;overflow:visible;enable-background:accumulate" />
      <path
         id="path3295"
         d="M 153.47161,387.91337 C 152.82605,387.05262 154.69038,389.8116 155.65274,390.29278 C 156.22227,390.57754 156.30861,390.94865 156.64415,391.28419"
         style="fill:none;fill-opacity:1;fill-rule:evenodd;stroke:#000000;stroke-width:0.875;stroke-linecap:butt;stroke-linejoin:miter;marker:none;marker-start:none;marker-mid:none;marker-end:none;stroke-miterlimit:4;stroke-dasharray:none;stroke-dashoffset:0;stroke-opacity:1;visibility:visible;display:inline;overflow:visible;enable-background:accumulate" />
      <path
         id="path3297"
         d="M 151.48878,387.91337 C 152.54629,388.44213 149.46327,389.21288 148.31624,389.49964 C 147.58291,389.68297 146.99495,389.89621 145.93683,389.89621 C 145.33604,389.89621 145.20744,389.97941 144.74713,390.09449"
         style="fill:none;fill-opacity:1;fill-rule:evenodd;stroke:#000000;stroke-width:0.875;stroke-linecap:butt;stroke-linejoin:miter;marker:none;marker-start:none;marker-mid:none;marker-end:none;stroke-miterlimit:4;stroke-dasharray:none;stroke-dashoffset:0;stroke-opacity:1;visibility:visible;display:inline;overflow:visible;enable-background:accumulate" />
      <path
         id="path3299"
         d="M 137.21235,392.27561 C 136.87578,392.27561 136.30675,395.50142 136.22093,395.84472 C 135.95962,396.88996 135.82436,397.6627 135.82436,398.81898 C 135.82436,399.61044 135.42556,400.41418 135.22951,401.19838 C 134.91897,402.44056 134.85615,402.87219 135.82436,402.38808 C 136.66443,401.96805 137.79977,402.63408 138.40205,402.78465 C 139.51462,403.06279 139.3476,403.07468 139.79004,402.1898 C 140.22571,401.31844 140.53851,400.98045 140.78146,400.00868 C 140.92181,399.44726 141.85346,398.64543 142.16944,398.22412 C 142.34587,397.98888 142.74216,397.6514 142.96258,397.43099"
         style="fill:none;fill-opacity:1;fill-rule:evenodd;stroke:#000000;stroke-width:0.875;stroke-linecap:butt;stroke-linejoin:miter;marker:none;marker-start:none;marker-mid:none;marker-end:none;stroke-miterlimit:4;stroke-dasharray:none;stroke-dashoffset:0;stroke-opacity:1;visibility:visible;display:inline;overflow:visible;enable-background:accumulate" />
      <path
         id="path3301"
         d="M 135.03123,403.57779 C 135.7238,402.65435 135.30815,405.91618 135.82436,406.94861 C 136.16307,407.62603 136.6564,408.3755 137.21235,408.93145 C 137.88401,409.60311 138.42118,410.14028 138.9969,410.716 C 139.46134,411.18043 138.9969,412.49824 138.9969,413.29369 C 138.9969,414.21901 138.9969,415.14434 138.9969,416.06966 C 138.9969,417.11357 139.19519,417.77325 139.19519,418.64735 C 139.19519,419.53746 140.07538,419.83705 140.97974,419.83705 C 142.03466,419.83705 142.57885,419.19086 142.76429,418.44907 C 142.93538,417.76472 142.98454,416.75235 142.76429,415.87138 C 142.55451,415.03224 142.81839,413.87045 142.96258,413.29369 C 143.20787,412.31251 143.80771,412.1137 143.55743,411.11257 C 143.42737,410.59235 142.25169,409.96399 141.77287,409.72458 C 141.04433,409.36031 140.96795,408.28945 140.78146,407.54346 C 140.55117,406.62234 140.38489,405.83358 140.38489,404.76749 C 140.38489,404.36545 140.28411,403.96782 140.1866,403.57779"
         style="fill:none;fill-opacity:1;fill-rule:evenodd;stroke:#000000;stroke-width:0.875;stroke-linecap:butt;stroke-linejoin:miter;marker:none;marker-start:none;marker-mid:none;marker-end:none;stroke-miterlimit:4;stroke-dasharray:none;stroke-dashoffset:0;stroke-opacity:1;visibility:visible;display:inline;overflow:visible;enable-background:accumulate" />
      <path
         id="path3303"
         d="M 140.38489,408.13831 C 140.38489,407.36752 139.09146,408.98331 138.40205,409.32801"
         style="fill:none;fill-opacity:1;fill-rule:evenodd;stroke:#000000;stroke-width:0.875;stroke-linecap:butt;stroke-linejoin:miter;marker:none;marker-start:none;marker-mid:none;marker-end:none;stroke-miterlimit:4;stroke-dasharray:none;stroke-dashoffset:0;stroke-opacity:1;visibility:visible;display:inline;overflow:visible;enable-background:accumulate" />
      <path
         id="path3305"
         d="M 158.62699,410.51772 C 158.62699,409.36342 157.83386,412.73425 157.83386,413.88854 C 157.83386,414.85362 157.81945,415.81374 158.03214,416.66451 C 158.20889,417.37152 159.64827,417.25936 160.41155,417.25936 C 161.374,417.25936 162.2357,418.48867 162.59267,418.84563 C 163.05533,419.3083 163.71627,419.57267 164.17894,420.03534 C 164.50805,420.36445 166.37036,420.53362 166.75663,420.63019 C 167.88395,420.91202 167.49471,419.022 167.35148,418.44907 C 167.15076,417.64618 166.0308,416.93011 165.56692,416.46623 C 164.89952,415.79882 164.34257,415.83672 163.58409,415.07824 C 162.89611,414.39027 162.59267,414.08686 162.59267,412.89712 C 162.59267,412.07519 162.79095,410.84494 162.79095,410.716"
         style="fill:none;fill-opacity:1;fill-rule:evenodd;stroke:#000000;stroke-width:0.875;stroke-linecap:butt;stroke-linejoin:miter;marker:none;marker-start:none;marker-mid:none;marker-end:none;stroke-miterlimit:4;stroke-dasharray:none;stroke-dashoffset:0;stroke-opacity:1;visibility:visible;display:inline;overflow:visible;enable-background:accumulate" />
      <path
         id="path3309"
         d="M 148.16803,369.10896 C 148.16018,369.07758 148.15234,369.04621 148.14449,369.01483 C 148.12233,368.92617 148.06137,368.80152 148.02682,368.73242 C 147.97689,368.63256 147.93647,368.48867 147.90915,368.37942 C 147.87973,368.2617 147.839,368.14586 147.81502,368.04995 C 147.7857,367.93267 147.76795,367.79654 147.76795,367.67341 C 147.76795,367.56871 147.71811,367.3799 147.69735,367.29687 C 147.66649,367.17341 147.69735,367.00138 147.69735,366.87326 C 147.69735,366.69589 147.74873,366.47947 147.79149,366.30845 C 147.8442,366.09759 147.83293,365.88381 147.88562,365.67304 C 147.93598,365.47161 147.95218,365.26561 148.00329,365.06117 C 148.04425,364.89732 148.10528,364.74735 148.14449,364.5905 C 148.17935,364.45105 148.27295,364.30155 148.35629,364.19042 C 148.44915,364.06662 148.51809,363.91979 148.61517,363.79035 C 148.72035,363.65011 148.79834,363.51304 148.9211,363.39028 C 149.04517,363.26621 149.13115,363.10963 149.25057,362.99021 C 149.37358,362.8672 149.46813,362.73879 149.60358,362.6372 C 149.77079,362.5118 149.88336,362.41494 150.05072,362.33126 C 150.21244,362.2504 150.34759,362.18644 150.52139,362.14299 C 150.6817,362.10292 150.82663,362.08195 150.99207,362.04886 C 151.17332,362.01261 151.36826,362.00179 151.55687,362.00179 C 151.72132,362.00179 151.94534,361.99293 152.09815,361.95472 C 152.25737,361.91492 152.42235,361.96386 152.54529,362.02532 C 152.673,362.08918 152.85694,362.08559 152.99243,362.11946 C 153.1263,362.15293 153.19614,362.18399 153.29837,362.26066 C 153.38594,362.32634 153.57248,362.32711 153.67491,362.37833 C 153.84548,362.46362 153.99632,362.54455 154.16911,362.61367 C 154.3411,362.68246 154.47935,362.75917 154.61625,362.89607 C 154.7597,363.03952 154.92464,363.15739 155.06339,363.29614 C 155.19643,363.42918 155.32279,363.54002 155.43993,363.69622 C 155.54382,363.83474 155.6493,363.95022 155.72234,364.09629 C 155.7858,364.22323 155.89426,364.3569 155.98121,364.47283 C 156.07645,364.59982 156.12616,364.76274 156.19301,364.89643 C 156.2871,365.08461 156.30568,365.27223 156.38128,365.46124 C 156.43589,365.59778 156.42835,365.80854 156.42835,365.95545 C 156.42835,366.12251 156.42835,366.26813 156.42835,366.42612 C 156.42835,366.59384 156.37318,366.78799 156.33421,366.94386 C 156.29123,367.11579 156.28094,367.27707 156.21654,367.43807 C 156.14206,367.62427 156.14165,367.81392 156.02827,368.00288 C 155.92674,368.17211 155.90428,368.39206 155.81647,368.56769 C 155.80078,368.59907 155.78509,368.63044 155.7694,368.66182 C 155.69941,368.8018 155.67092,368.95292 155.60467,369.08543 C 155.53531,369.22414 155.45954,369.36522 155.36933,369.4855 C 155.27526,369.61093 155.2004,369.74857 155.08693,369.86204 C 154.98031,369.96866 154.92137,370.0982 154.82806,370.19151 C 154.72304,370.29652 154.72041,370.39329 154.63979,370.47391 C 154.5711,370.5426 154.5385,370.65296 154.49858,370.73279 C 154.4703,370.78935 154.41979,370.83616 154.40445,370.89752"
         style="fill:none;fill-opacity:1;fill-rule:evenodd;stroke:#000000;stroke-width:0.875;stroke-linecap:butt;stroke-linejoin:miter;marker:none;marker-start:none;marker-mid:none;marker-end:none;stroke-miterlimit:4;stroke-dasharray:none;stroke-dashoffset:0;stroke-opacity:1;visibility:visible;display:inline;overflow:visible;enable-background:accumulate" />
    </g>
    <path
       style="opacity:1;fill:#ffffff;fill-opacity:1;fill-rule:evenodd;stroke:#000000;stroke-width:1.25000000000000000;stroke-linecap:butt;stroke-linejoin:miter;marker:none;marker-start:none;marker-mid:none;marker-end:none;stroke-miterlimit:4;stroke-dasharray:none;stroke-dashoffset:0;stroke-opacity:1;visibility:visible;display:inline;overflow:visible;enable-background:accumulate"
       d="M 130.90625,301.39343 C 130.85417,301.4351 130.80208,301.47677 130.75,301.51843 C 130.63747,301.60846 130.52954,301.80651 130.5,301.92468 C 130.45932,302.0874 130.29099,302.24896 130.21875,302.39343 C 130.13902,302.55289 130.07664,302.77437 130.03125,302.95593 C 129.98752,303.13087 129.90625,303.274 129.90625,303.45593 C 129.90625,303.68878 129.875,303.8823 129.875,304.11218 C 129.875,304.35923 129.84765,304.62779 129.90625,304.86218 C 129.97138,305.1227 129.96202,305.36098 130.0625,305.61218 C 130.15728,305.84913 130.17153,306.11149 130.28125,306.33093 C 130.39433,306.55709 130.48117,306.79327 130.59375,307.01843 C 130.69436,307.21964 130.80986,307.41075 130.9375,307.58093 C 131.09474,307.79059 131.26124,307.95655 131.46875,308.11218 C 131.66837,308.2619 131.87827,308.3482 132.09375,308.45593 C 132.27549,308.5468 132.53177,308.53419 132.71875,308.58093 C 132.88073,308.62143 133.05439,308.63359 133.21875,308.67468 C 133.3572,308.7093 133.54962,308.70593 133.6875,308.70593 C 133.85699,308.70593 133.99012,308.74747 134.15625,308.70593 C 134.31477,308.6663 134.43424,308.62944 134.59375,308.54968 C 134.74652,308.4733 134.93811,308.46359 135.09375,308.42468 C 135.11396,308.41963 135.13542,308.42468 135.15625,308.42468 C 135.33556,308.42468 135.52555,308.33521 135.65625,308.23718 C 135.75316,308.1645 135.96196,308.11388 136.09375,308.08093 C 136.27985,308.03441 136.40679,307.92397 136.5,307.79968 C 136.6026,307.66289 136.6995,307.45718 136.75,307.33093 C 136.81699,307.16345 136.9563,307.03503 137.0625,306.89343 C 137.19257,306.72001 137.2694,306.53818 137.375,306.36218 C 137.49348,306.16471 137.55068,305.88582 137.65625,305.67468 C 137.76889,305.44939 137.78189,305.14087 137.84375,304.89343 C 137.91775,304.59742 137.90625,304.19191 137.90625,303.89343 C 137.90625,303.55852 137.96162,303.22564 137.90625,302.89343 C 137.84714,302.53879 137.67649,302.19314 137.59375,301.86218 C 137.52688,301.5947 137.36679,301.37702 137.25,301.14343 C 137.14605,300.93554 136.93197,300.74866 136.75,300.61218 C 136.57603,300.48171 136.41788,300.41197 136.21875,300.36218 C 136.00003,300.3075 135.78107,300.32308 135.5625,300.26843 C 135.34684,300.21452 135.12793,300.17468 134.90625,300.17468 C 134.71364,300.17468 134.49217,300.14343 134.28125,300.14343 C 134.03229,300.14343 133.82276,300.14868 133.59375,300.20593 C 133.33076,300.27168 133.04942,300.36872 132.8125,300.48718 C 132.578,300.60443 132.36113,300.61477 132.15625,300.76843 C 132.00216,300.884 131.7892,300.99883 131.625,301.08093 C 131.46874,301.15907 131.40142,301.19272 131.25,301.26843 C 131.09882,301.34402 131.11757,301.4357 130.90625,301.39343 z"
       id="path3311" />
    <path
       style="opacity:1;fill:none;fill-opacity:1;fill-rule:evenodd;stroke:#000000;stroke-width:0.875;stroke-linecap:butt;stroke-linejoin:miter;marker:none;marker-start:none;marker-mid:none;marker-end:none;stroke-miterlimit:4;stroke-dasharray:none;stroke-dashoffset:0;stroke-opacity:1;visibility:visible;display:inline;overflow:visible;enable-background:accumulate"
       d="M 132.47774,301.96919 C 132.29974,302.05819 132.76458,302.24749 132.88399,302.40669 C 132.99445,302.55397 133.10066,302.74524 133.16524,302.90669 C 133.21994,303.04345 133.37954,303.27576 133.47774,303.40669 C 133.58974,303.55603 133.65762,303.68032 133.75899,303.78169 C 133.83196,303.85466 134.0083,303.87544 134.16524,303.87544 C 134.40612,303.87544 134.68044,304.03549 134.91524,304.09419 C 135.2322,304.17343 135.54127,304.23508 135.85274,304.31294 C 135.89441,304.32336 135.93607,304.33378 135.97774,304.34419 C 136.2495,304.41213 136.56128,304.47972 136.79024,304.59419 C 136.90125,304.6497 137.00891,304.71911 137.04024,304.75044"
       id="path3313" />
    <path
       style="fill:#646464;fill-opacity:1;fill-rule:evenodd;stroke:none;stroke-width:1px;stroke-linecap:butt;stroke-linejoin:miter;stroke-opacity:1"
       d="M 73.037463,323.07443 L 71.950596,345.24651 L 92.166322,335.24734 L 79.776038,333.50835 L 73.037463,323.07443 z"
       id="path3396" />
    <path
       style="fill:#646464;fill-opacity:1;fill-rule:evenodd;stroke:none;stroke-width:1px;stroke-linecap:butt;stroke-linejoin:miter;stroke-opacity:1"
       d="M 157.79451,345.42193 L 165.41695,353.16228 L 168.51752,342.56968 L 163.7846,346.45419 L 157.79451,345.42193 z"
       id="path3398" />
    <path
       style="opacity:1;fill:none;fill-opacity:1;fill-rule:evenodd;stroke:#000000;stroke-width:0.375;stroke-linecap:butt;stroke-linejoin:miter;marker:none;marker-start:none;marker-mid:none;marker-end:none;stroke-miterlimit:4;stroke-dasharray:none;stroke-dashoffset:0;stroke-opacity:1;visibility:visible;display:inline;overflow:visible;enable-background:accumulate"
       d="M 132.03952,303.14297 C 132.00964,303.19278 131.97975,303.24259 131.94987,303.2924 C 131.80877,303.52756 131.78526,303.86828 131.6809,304.12918 C 131.582,304.37643 131.59228,304.66296 131.53148,304.90619 C 131.52664,304.92552 131.53148,304.94604 131.53148,304.96596"
       id="path3400" />
    <path
       style="opacity:1;fill:none;fill-opacity:1;fill-rule:evenodd;stroke:#000000;stroke-width:0.375;stroke-linecap:butt;stroke-linejoin:miter;marker:none;marker-start:none;marker-mid:none;marker-end:none;stroke-miterlimit:4;stroke-dasharray:none;stroke-dashoffset:0;stroke-opacity:1;visibility:visible;display:inline;overflow:visible;enable-background:accumulate"
       d="M 133.07825,304.18926 C 133.02393,304.46087 133.04837,304.81059 133.04837,305.08581 C 133.04837,305.43361 132.97909,305.7854 133.04837,306.13179 C 133.10127,306.39629 133.04837,306.72597 133.04837,306.99845"
       id="path3404" />
    <path
       style="opacity:1;fill:none;fill-opacity:1;fill-rule:evenodd;stroke:#000000;stroke-width:0.375;stroke-linecap:butt;stroke-linejoin:miter;marker:none;marker-start:none;marker-mid:none;marker-end:none;stroke-miterlimit:4;stroke-dasharray:none;stroke-dashoffset:0;stroke-opacity:1;visibility:visible;display:inline;overflow:visible;enable-background:accumulate"
       d="M 134.8463,305.02453 C 134.91242,305.28899 134.81642,305.75098 134.81642,306.04063 C 134.81642,306.34466 134.87619,306.64928 134.87619,306.93718 C 134.87619,307.01968 134.89081,306.99565 134.90607,307.05672"
       id="path3408" />
  </g>
</svg>
