<?xml version="1.0" encoding="UTF-8" standalone="no"?>
<!-- Created with Inkscape (http://www.inkscape.org/) -->

<svg
   xmlns:dc="http://purl.org/dc/elements/1.1/"
   xmlns:cc="http://creativecommons.org/ns#"
   xmlns:rdf="http://www.w3.org/1999/02/22-rdf-syntax-ns#"
   xmlns:svg="http://www.w3.org/2000/svg"
   xmlns="http://www.w3.org/2000/svg"
   xmlns:sodipodi="http://sodipodi.sourceforge.net/DTD/sodipodi-0.dtd"
   xmlns:inkscape="http://www.inkscape.org/namespaces/inkscape"
   width="744.09448819"
   height="1052.3622047"
   id="svg3543"
   version="1.1"
   inkscape:version="0.48.0 r9654">
  <defs
     id="defs3545" />
  <sodipodi:namedview
     id="base"
     pagecolor="#ffffff"
     bordercolor="#666666"
     borderopacity="1.0"
     inkscape:pageopacity="0.0"
     inkscape:pageshadow="2"
     inkscape:zoom="3.9631313"
     inkscape:cx="372.04724"
     inkscape:cy="523.76513"
     inkscape:document-units="px"
     inkscape:current-layer="layer1"
     showgrid="false"
     inkscape:window-width="1280"
     inkscape:window-height="996"
     inkscape:window-x="0"
     inkscape:window-y="0"
     inkscape:window-maximized="1" />
  <metadata
     id="metadata3548">
    <rdf:RDF>
      <cc:Work
         rdf:about="">
        <dc:format>image/svg+xml</dc:format>
        <dc:type
           rdf:resource="http://purl.org/dc/dcmitype/StillImage" />
        <dc:title></dc:title>
      </cc:Work>
    </rdf:RDF>
  </metadata>
  <g
     inkscape:label="Layer 1"
     inkscape:groupmode="layer"
     id="layer1">
    <rect
       style="fill:#dedede;fill-opacity:1;fill-rule:evenodd;stroke:none"
       id="rect2383-4"
       width="148.63821"
       height="123.1569"
       x="300.68088"
       y="466.24185" />
    <path
       inkscape:connector-curvature="0"
       style="fill:none;stroke:#000000;stroke-width:1.25;stroke-linecap:butt;stroke-linejoin:miter;stroke-miterlimit:4;stroke-opacity:1;stroke-dasharray:none;stroke-dashoffset:0;marker:none;visibility:visible;display:inline;overflow:visible;enable-background:accumulate"
       d="m 377.91571,477.25553 c 25.60404,13.81397 45.03255,40.72916 58.86528,64.96521 -11.18136,15.71773 -32.01576,35.73192 -62.10393,35.03771 -32.80953,-0.75163 -47.08398,-15.29278 -63.11099,-31.88217 9.41835,-19.42885 20.08498,-30.53208 32.27873,-42.21542 12.19376,-11.68337 33.74135,-25.90533 34.07091,-25.90533 z"
       id="path2673-0"
       sodipodi:nodetypes="ccscsc" />
    <path
       style="color:#000000;fill:none;stroke:#000000;stroke-width:1.25;stroke-linecap:butt;stroke-linejoin:miter;stroke-miterlimit:4;stroke-opacity:1;stroke-dasharray:none;stroke-dashoffset:0;marker:none;visibility:visible;display:inline;overflow:visible;enable-background:accumulate"
       d="m 342.15369,504.81535 c 18.16745,2.01861 23.21397,3.28023 34.06397,3.02791 10.85001,-0.25233 34.3163,-2.27093 34.3163,-2.27093 0,0 -0.38212,15.14057 -6.81279,34.82094 -7.74352,23.69821 -20.43839,36.58724 -20.43839,36.58724 0,0 -13.72605,-9.83338 -21.70001,-19.93374 -7.56977,-9.58837 -13.4488,-23.08257 -15.13955,-28.26048 -4.03721,-12.36396 -4.28953,-23.97094 -4.28953,-23.97094 z"
       id="path3573"
       inkscape:connector-curvature="0"
       sodipodi:nodetypes="cscscssc" />
  </g>
</svg>
