<?xml version="1.0" encoding="UTF-8" standalone="no"?>
<!-- Created with Inkscape (http://www.inkscape.org/) -->

<svg
   xmlns:a="http://ns.adobe.com/AdobeSVGViewerExtensions/3.0/"
   xmlns:dc="http://purl.org/dc/elements/1.1/"
   xmlns:cc="http://creativecommons.org/ns#"
   xmlns:rdf="http://www.w3.org/1999/02/22-rdf-syntax-ns#"
   xmlns:svg="http://www.w3.org/2000/svg"
   xmlns="http://www.w3.org/2000/svg"
   xmlns:xlink="http://www.w3.org/1999/xlink"
   xmlns:sodipodi="http://sodipodi.sourceforge.net/DTD/sodipodi-0.dtd"
   xmlns:inkscape="http://www.inkscape.org/namespaces/inkscape"
   width="744.09448819"
   height="1052.3622047"
   id="svg2"
   sodipodi:version="0.32"
   inkscape:version="0.47 r22583"
   sodipodi:docname="pythagorean.svg"
   inkscape:output_extension="org.inkscape.output.svg.inkscape"
   version="1.1">
  <defs
     id="defs4">
    <linearGradient
       id="linearGradient3302">
      <stop
         id="stop3304"
         offset="0"
         style="stop-color:#9f9f9f;stop-opacity:1;" />
      <stop
         id="stop3308"
         offset="1"
         style="stop-color:#dfdfdf;stop-opacity:1;" />
    </linearGradient>
    <linearGradient
       id="linearGradient3290">
      <stop
         style="stop-color:#75c97e;stop-opacity:1;"
         offset="0"
         id="stop3292" />
      <stop
         id="stop3298"
         offset="0.5"
         style="stop-color:#5259cc;stop-opacity:1;" />
      <stop
         style="stop-color:#e87a91;stop-opacity:1;"
         offset="1"
         id="stop3294" />
    </linearGradient>
    <linearGradient
       id="linearGradient3280">
      <stop
         style="stop-color:#cfcfcf;stop-opacity:1;"
         offset="0"
         id="stop3282" />
      <stop
         style="stop-color:#000000;stop-opacity:1;"
         offset="1"
         id="stop3284" />
    </linearGradient>
    <linearGradient
       id="linearGradient3270">
      <stop
         style="stop-color:#e8e8e8;stop-opacity:1;"
         offset="0"
         id="stop3272" />
      <stop
         style="stop-color:#454545;stop-opacity:1;"
         offset="1"
         id="stop3274" />
    </linearGradient>
    <linearGradient
       id="linearGradient3243">
      <stop
         style="stop-color:#ffffff;stop-opacity:1;"
         offset="0"
         id="stop3245" />
      <stop
         id="stop3300"
         offset="0.5"
         style="stop-color:#e7e7e7;stop-opacity:1;" />
      <stop
         style="stop-color:#d0d0d0;stop-opacity:1;"
         offset="1"
         id="stop3247" />
    </linearGradient>
    <linearGradient
       id="linearGradient3222">
      <stop
         style="stop-color:#cccccc;stop-opacity:1;"
         offset="0"
         id="stop3224" />
      <stop
         style="stop-color:#ffffff;stop-opacity:1;"
         offset="1"
         id="stop3226" />
    </linearGradient>
    <linearGradient
       id="linearGradient3198">
      <stop
         style="stop-color:#ffffff;stop-opacity:1;"
         offset="0"
         id="stop3200" />
      <stop
         id="stop3206"
         offset="0.38333333"
         style="stop-color:#c8c8c8;stop-opacity:1;" />
      <stop
         style="stop-color:#ffffff;stop-opacity:1;"
         offset="0.55000001"
         id="stop3208" />
      <stop
         id="stop3218"
         offset="0.91666669"
         style="stop-color:#c8c8c8;stop-opacity:1;" />
      <stop
         style="stop-color:#f9f9f9;stop-opacity:1;"
         offset="1"
         id="stop3202" />
    </linearGradient>
    <inkscape:perspective
       sodipodi:type="inkscape:persp3d"
       inkscape:vp_x="0 : 526.18109 : 1"
       inkscape:vp_y="0 : 1000 : 0"
       inkscape:vp_z="744.09448 : 526.18109 : 1"
       inkscape:persp3d-origin="372.04724 : 350.78739 : 1"
       id="perspective10" />
    <inkscape:perspective
       id="perspective2466"
       inkscape:persp3d-origin="372.04724 : 350.78739 : 1"
       inkscape:vp_z="744.09448 : 526.18109 : 1"
       inkscape:vp_y="0 : 1000 : 0"
       inkscape:vp_x="0 : 526.18109 : 1"
       sodipodi:type="inkscape:persp3d" />
    <inkscape:perspective
       id="perspective2538"
       inkscape:persp3d-origin="372.04724 : 350.78739 : 1"
       inkscape:vp_z="744.09448 : 526.18109 : 1"
       inkscape:vp_y="0 : 1000 : 0"
       inkscape:vp_x="0 : 526.18109 : 1"
       sodipodi:type="inkscape:persp3d" />
    <inkscape:perspective
       id="perspective2605"
       inkscape:persp3d-origin="372.04724 : 350.78739 : 1"
       inkscape:vp_z="744.09448 : 526.18109 : 1"
       inkscape:vp_y="0 : 1000 : 0"
       inkscape:vp_x="0 : 526.18109 : 1"
       sodipodi:type="inkscape:persp3d" />
    <inkscape:perspective
       id="perspective2672"
       inkscape:persp3d-origin="372.04724 : 350.78739 : 1"
       inkscape:vp_z="744.09448 : 526.18109 : 1"
       inkscape:vp_y="0 : 1000 : 0"
       inkscape:vp_x="0 : 526.18109 : 1"
       sodipodi:type="inkscape:persp3d" />
    <linearGradient
       inkscape:collect="always"
       xlink:href="#linearGradient3198"
       id="linearGradient3204"
       x1="141.96875"
       y1="708.21886"
       x2="264.875"
       y2="708.21886"
       gradientUnits="userSpaceOnUse"
       gradientTransform="translate(266.65243,-199.98932)" />
    <linearGradient
       inkscape:collect="always"
       xlink:href="#linearGradient3222"
       id="linearGradient3228"
       x1="210.69818"
       y1="529.40107"
       x2="340.54193"
       y2="529.40107"
       gradientUnits="userSpaceOnUse" />
    <radialGradient
       inkscape:collect="always"
       xlink:href="#linearGradient3243"
       id="radialGradient3249"
       cx="673.26031"
       cy="694.08545"
       fx="673.26031"
       fy="694.08545"
       r="65.017187"
       gradientTransform="matrix(1.8411095,4.5452863e-2,-3.5175475e-2,1.4248145,-547.2825,-535.49772)"
       gradientUnits="userSpaceOnUse" />
    <linearGradient
       inkscape:collect="always"
       xlink:href="#linearGradient3222"
       id="linearGradient3261"
       gradientUnits="userSpaceOnUse"
       x1="210.69818"
       y1="529.40107"
       x2="340.54193"
       y2="529.40107"
       gradientTransform="translate(57.553308,257.67968)" />
    <linearGradient
       inkscape:collect="always"
       xlink:href="#linearGradient3222"
       id="linearGradient3266"
       gradientUnits="userSpaceOnUse"
       gradientTransform="translate(1.2159244,-1.1677581)"
       x1="210.69818"
       y1="529.40107"
       x2="340.54193"
       y2="529.40107" />
    <linearGradient
       inkscape:collect="always"
       xlink:href="#linearGradient3270"
       id="linearGradient3276"
       x1="602.86963"
       y1="510.08771"
       x2="604.24554"
       y2="519.22375"
       gradientUnits="userSpaceOnUse" />
    <linearGradient
       inkscape:collect="always"
       xlink:href="#linearGradient3280"
       id="linearGradient3286"
       x1="665.49371"
       y1="574.03381"
       x2="672.13379"
       y2="573.15503"
       gradientUnits="userSpaceOnUse" />
    <linearGradient
       inkscape:collect="always"
       xlink:href="#linearGradient3302"
       id="linearGradient3296"
       x1="699.22681"
       y1="529.32007"
       x2="698.58875"
       y2="528.10333"
       gradientUnits="userSpaceOnUse" />
    <radialGradient
       inkscape:collect="always"
       xlink:href="#linearGradient3243"
       id="radialGradient3353"
       gradientUnits="userSpaceOnUse"
       gradientTransform="matrix(1.8411095,0.04545286,-0.03517547,1.4248145,-547.2825,-535.49772)"
       cx="673.26031"
       cy="694.08545"
       fx="673.26031"
       fy="694.08545"
       r="65.017187" />
    <linearGradient
       inkscape:collect="always"
       xlink:href="#linearGradient3302"
       id="linearGradient3355"
       gradientUnits="userSpaceOnUse"
       x1="699.22681"
       y1="529.32007"
       x2="698.58875"
       y2="528.10333" />
    <linearGradient
       inkscape:collect="always"
       xlink:href="#linearGradient3270"
       id="linearGradient3357"
       gradientUnits="userSpaceOnUse"
       x1="602.86963"
       y1="510.08771"
       x2="604.24554"
       y2="519.22375" />
    <linearGradient
       inkscape:collect="always"
       xlink:href="#linearGradient3280"
       id="linearGradient3359"
       gradientUnits="userSpaceOnUse"
       x1="665.49371"
       y1="574.03381"
       x2="672.13379"
       y2="573.15503" />
    <linearGradient
       inkscape:collect="always"
       xlink:href="#linearGradient3198"
       id="linearGradient3361"
       gradientUnits="userSpaceOnUse"
       gradientTransform="translate(266.65243,-199.98932)"
       x1="141.96875"
       y1="708.21886"
       x2="264.875"
       y2="708.21886" />
    <linearGradient
       inkscape:collect="always"
       xlink:href="#linearGradient3222"
       id="linearGradient3363"
       gradientUnits="userSpaceOnUse"
       gradientTransform="translate(1.2159244,-1.1677581)"
       x1="210.69818"
       y1="529.40107"
       x2="340.54193"
       y2="529.40107" />
    <radialGradient
       inkscape:collect="always"
       xlink:href="#XMLID_10_"
       id="radialGradient6152"
       gradientUnits="userSpaceOnUse"
       gradientTransform="matrix(1,0,0,0.2589,38.9753,96.9412)"
       cx="18.475599"
       cy="219.9563"
       fx="13.7225"
       fy="220.43159"
       r="17.691799" />
    <radialGradient
       id="XMLID_10_"
       cx="18.475599"
       cy="219.9563"
       r="17.691799"
       fx="13.7225"
       fy="220.43159"
       gradientTransform="matrix(1,0,0,0.2589,38.9753,96.9412)"
       gradientUnits="userSpaceOnUse">
      <stop
         offset="0"
         style="stop-color:#000000;stop-opacity:1;"
         id="stop337" />
      <stop
         offset="0.30090001"
         style="stop-color:#232323;stop-opacity:1;"
         id="stop339" />
      <stop
         offset="0.81169999"
         style="stop-color:#464646;stop-opacity:1;"
         id="stop341" />
      <stop
         offset="1"
         style="stop-color:#6f6f6f;stop-opacity:1;"
         id="stop343" />
      <midPointStop
         offset="0"
         style="stop-color:#808080" />
      <midPointStop
         offset="0.59"
         style="stop-color:#808080" />
      <midPointStop
         offset="1"
         style="stop-color:#B0B0B0" />
    </radialGradient>
    <radialGradient
       inkscape:collect="always"
       xlink:href="#linearGradient3362"
       id="radialGradient3368"
       cx="86.169411"
       cy="481.74423"
       fx="86.169411"
       fy="481.74423"
       r="89.239716"
       gradientTransform="matrix(1.3111741,0.00290618,-0.00139316,0.6285515,-212.56942,287.57846)"
       gradientUnits="userSpaceOnUse" />
    <linearGradient
       id="linearGradient3362">
      <stop
         style="stop-color:#6f6f6f;stop-opacity:1;"
         offset="0"
         id="stop3364" />
      <stop
         style="stop-color:#313131;stop-opacity:1;"
         offset="1"
         id="stop3366" />
    </linearGradient>
    <radialGradient
       inkscape:collect="always"
       xlink:href="#XMLID_10_"
       id="radialGradient4213"
       gradientUnits="userSpaceOnUse"
       gradientTransform="matrix(1,0,0,0.2589,38.9753,96.9412)"
       cx="18.475599"
       cy="219.9563"
       fx="13.7225"
       fy="220.43159"
       r="17.691799" />
    <radialGradient
       id="radialGradient3319"
       cx="18.475599"
       cy="219.9563"
       r="17.691799"
       fx="13.7225"
       fy="220.43159"
       gradientTransform="matrix(1,0,0,0.2589,38.9753,96.9412)"
       gradientUnits="userSpaceOnUse">
      <stop
         offset="0"
         style="stop-color:#000000;stop-opacity:1;"
         id="stop3321" />
      <stop
         offset="0.30090001"
         style="stop-color:#232323;stop-opacity:1;"
         id="stop3323" />
      <stop
         offset="0.81169999"
         style="stop-color:#464646;stop-opacity:1;"
         id="stop3325" />
      <stop
         offset="1"
         style="stop-color:#6f6f6f;stop-opacity:1;"
         id="stop3327" />
      <midPointStop
         offset="0"
         style="stop-color:#808080" />
      <midPointStop
         offset="0.59"
         style="stop-color:#808080" />
      <midPointStop
         offset="1"
         style="stop-color:#B0B0B0" />
    </radialGradient>
    <linearGradient
       inkscape:collect="always"
       xlink:href="#linearGradient3222"
       id="linearGradient3715"
       gradientUnits="userSpaceOnUse"
       gradientTransform="matrix(0.5421232,0,0,0.5421232,17.412375,280.55962)"
       x1="210.69818"
       y1="529.40107"
       x2="340.54193"
       y2="529.40107" />
    <linearGradient
       inkscape:collect="always"
       xlink:href="#linearGradient3198"
       id="linearGradient3722"
       gradientUnits="userSpaceOnUse"
       gradientTransform="matrix(0.5421232,0,0,0.5421232,154.42431,183.62131)"
       x1="141.96875"
       y1="708.21886"
       x2="264.875"
       y2="708.21886" />
    <linearGradient
       inkscape:collect="always"
       xlink:href="#linearGradient3280"
       id="linearGradient3725"
       gradientUnits="userSpaceOnUse"
       x1="665.49371"
       y1="574.03381"
       x2="672.13379"
       y2="573.15503"
       gradientTransform="matrix(0.5421232,0,0,0.5421232,7.2421319,293.68322)" />
    <linearGradient
       inkscape:collect="always"
       xlink:href="#linearGradient3270"
       id="linearGradient3729"
       gradientUnits="userSpaceOnUse"
       x1="602.86963"
       y1="510.08771"
       x2="604.24554"
       y2="519.22375"
       gradientTransform="matrix(0.5421232,0,0,0.5421232,7.2421319,293.68322)" />
    <linearGradient
       inkscape:collect="always"
       xlink:href="#linearGradient3302"
       id="linearGradient3738"
       gradientUnits="userSpaceOnUse"
       x1="699.22681"
       y1="529.32007"
       x2="698.58875"
       y2="528.10333"
       gradientTransform="matrix(0.5421232,0,0,0.5421232,7.2421319,293.68322)" />
    <radialGradient
       inkscape:collect="always"
       xlink:href="#linearGradient3243"
       id="radialGradient3741"
       gradientUnits="userSpaceOnUse"
       gradientTransform="matrix(0.99810817,0.02464105,-0.01906944,0.772425,-289.45241,3.3774824)"
       cx="673.26031"
       cy="694.08545"
       fx="673.26031"
       fy="694.08545"
       r="65.017187" />
  </defs>
  <sodipodi:namedview
     id="base"
     pagecolor="#ffffff"
     bordercolor="#666666"
     borderopacity="1.0"
     gridtolerance="10000"
     guidetolerance="10"
     objecttolerance="10"
     inkscape:pageopacity="0.0"
     inkscape:pageshadow="2"
     inkscape:zoom="1.3210415"
     inkscape:cx="298.39526"
     inkscape:cy="484.45549"
     inkscape:document-units="px"
     inkscape:current-layer="layer1"
     showgrid="false"
     inkscape:window-width="1278"
     inkscape:window-height="900"
     inkscape:window-x="2"
     inkscape:window-y="2"
     inkscape:window-maximized="0" />
  <metadata
     id="metadata7">
    <rdf:RDF>
      <cc:Work
         rdf:about="">
        <dc:format>image/svg+xml</dc:format>
        <dc:type
           rdf:resource="http://purl.org/dc/dcmitype/StillImage" />
      </cc:Work>
    </rdf:RDF>
  </metadata>
  <g
     inkscape:label="Layer 1"
     inkscape:groupmode="layer"
     id="layer1">
    <rect
       style="fill:#dedede;fill-opacity:1;fill-rule:evenodd;stroke:none;stroke-width:0.875;marker:none;visibility:visible;display:inline;overflow:visible;enable-background:accumulate"
       id="rect3209"
       width="389.76379"
       height="111.23501"
       x="15.81677"
       y="512.5296" />
    <rect
       style="fill:#ffffff;fill-opacity:1;fill-rule:evenodd;stroke:#898989;stroke-width:0.2032962;stroke-linecap:butt;stroke-linejoin:miter;stroke-miterlimit:4;stroke-opacity:1;stroke-dasharray:none;stroke-dashoffset:0;marker:none;visibility:visible;display:inline;overflow:visible;enable-background:accumulate"
       id="rect2419"
       width="71.728889"
       height="71.728889"
       x="33.094734"
       y="531.69873" />
    <g
       id="g3198"
       transform="matrix(0.5421232,0,0,0.5421232,-11.199404,274.86213)"
       style="stroke-width:1.61402427;stroke-miterlimit:4;stroke-dasharray:none">
      <path
         id="rect2387"
         d="m 173.62362,542.98983 -51.46298,-0.002 32.96463,-24.72356 18.52759,24.70336 -0.0292,0.0219 z"
         style="fill:none;stroke:#000000;stroke-width:1.61402427;stroke-linecap:round;stroke-miterlimit:4;stroke-opacity:1;stroke-dasharray:none;stroke-dashoffset:0" />
      <rect
         transform="matrix(0.7999989,-0.6000015,0.6000015,0.7999989,0,0)"
         y="466.43182"
         x="-228.15346"
         height="41.266857"
         width="41.266861"
         id="rect2383"
         style="fill:#ffffff;fill-opacity:1;stroke:#000000;stroke-width:1.61402423;stroke-linecap:round;stroke-miterlimit:4;stroke-opacity:1;stroke-dasharray:none;stroke-dashoffset:0" />
      <rect
         transform="matrix(0.7999989,-0.6000015,0.6000015,0.7999989,0,0)"
         y="507.68817"
         x="-186.86729"
         height="30.902563"
         width="30.902563"
         id="rect3162"
         style="fill:#ffffff;fill-opacity:1;stroke:#000000;stroke-width:1.61402423;stroke-linecap:round;stroke-miterlimit:4;stroke-opacity:1;stroke-dasharray:none;stroke-dashoffset:0" />
      <rect
         y="542.95325"
         x="122.04291"
         height="51.601868"
         width="51.60186"
         id="rect3164"
         style="fill:#ffffff;fill-opacity:1;stroke:#000000;stroke-width:1.61402427;stroke-linecap:round;stroke-miterlimit:4;stroke-opacity:1;stroke-dasharray:none;stroke-dashoffset:0" />
      <path
         sodipodi:nodetypes="cc"
         id="path3166"
         d="m 155.1018,518.27218 0,76.25763"
         style="fill:none;stroke:#000000;stroke-width:1.61402427;stroke-linecap:butt;stroke-linejoin:miter;stroke-miterlimit:4;stroke-opacity:1;stroke-dasharray:none;stroke-dashoffset:0;marker:none;visibility:visible;display:inline;overflow:visible;enable-background:accumulate" />
      <path
         sodipodi:nodetypes="cc"
         id="path3168"
         d="M 155.12382,518.27171 122.09756,594.5178"
         style="fill:none;stroke:#000000;stroke-width:1.61402427;stroke-linecap:butt;stroke-linejoin:miter;stroke-miterlimit:4;stroke-opacity:1;stroke-dasharray:none;stroke-dashoffset:0;marker:none;visibility:visible;display:inline;overflow:visible;enable-background:accumulate" />
      <path
         sodipodi:nodetypes="cc"
         id="path3170"
         d="m 97.386809,510.0506 76.261981,32.91139"
         style="fill:none;stroke:#000000;stroke-width:1.61402427;stroke-linecap:butt;stroke-linejoin:miter;stroke-miterlimit:4;stroke-opacity:1;stroke-dasharray:none;stroke-dashoffset:0;marker:none;visibility:visible;display:inline;overflow:visible;enable-background:accumulate" />
    </g>
    <path
       style="fill:url(#linearGradient3715);fill-opacity:1;fill-rule:evenodd;stroke:#898989;stroke-width:0.2032962;stroke-linecap:butt;stroke-linejoin:miter;stroke-miterlimit:4;stroke-opacity:1;stroke-dasharray:none;stroke-dashoffset:0;marker:none;visibility:visible;display:inline;overflow:visible;enable-background:accumulate"
       d="m 131.63594,528.2464 0,74.01675 0.32189,0 0.0339,0.0508 -0.35577,0 c 0.0866,0.0204 0.31847,0.0766 0.42354,0.10165 l 0.0678,0.10165 0.38965,0 c 2.89247,0.69117 10.23494,2.45479 17.36489,3.28662 7.7645,0.90586 16.82276,1.03342 16.82276,1.03342 0,-1e-5 7.45235,0.29044 16.29757,-0.64377 8.54152,-0.90214 19.02514,-3.48992 19.02514,-3.48992 l -0.33883,0 0.0339,-0.0508 0.30494,0 0,-0.37271 0,-73.64405 c 0,-10e-6 -10.48363,2.58776 -19.02514,3.48992 -8.84523,0.9342 -16.29757,0.64378 -16.29757,0.64377 -1e-5,-10e-6 -9.05826,-0.12758 -16.82276,-1.03343 -7.76453,-0.90586 -16.0459,-2.97227 -18.24584,-3.48991 z"
       id="path3259" />
    <path
       style="fill:none;stroke:#000000;stroke-width:0.875;stroke-linecap:butt;stroke-linejoin:miter;stroke-miterlimit:4;stroke-opacity:1;stroke-dasharray:none;stroke-dashoffset:0;marker:none;visibility:visible;display:inline;overflow:visible;enable-background:accumulate"
       d="m 170.57943,555.9989 c 0,0 -9.14629,23.32967 -20.14835,45.06867 l 0,-31.28296"
       id="path2396" />
    <path
       style="fill:none;stroke:#000000;stroke-width:0.875;stroke-linecap:butt;stroke-linejoin:miter;stroke-miterlimit:4;stroke-opacity:1;stroke-dasharray:none;stroke-dashoffset:0;marker:none;visibility:visible;display:inline;overflow:visible;enable-background:accumulate"
       d="m 181.97916,568.85673 0,31.54806"
       id="path3169" />
    <path
       style="fill:none;stroke:#000000;stroke-width:0.875;stroke-linecap:butt;stroke-linejoin:miter;stroke-miterlimit:4;stroke-opacity:1;stroke-dasharray:none;stroke-dashoffset:0;marker:none;visibility:visible;display:inline;overflow:visible;enable-background:accumulate"
       d="m 150.43108,569.38694 c 13.65316,3.44643 16.83448,2.51855 20.14835,2.12089 3.31388,-0.39767 11.13462,-2.51855 11.13462,-2.51855"
       id="path3171" />
    <path
       style="fill:none;stroke:#000000;stroke-width:0.875;stroke-linecap:butt;stroke-linejoin:miter;stroke-miterlimit:4;stroke-opacity:1;stroke-dasharray:none;stroke-dashoffset:0;marker:none;visibility:visible;display:inline;overflow:visible;enable-background:accumulate"
       d="m 150.56364,601.1897 c 13.65315,3.44643 16.83447,2.51854 20.14835,2.12087 3.31387,-0.39766 11.13461,-2.51854 11.13461,-2.51854"
       id="path3173" />
    <path
       style="fill:none;stroke:#000000;stroke-width:0.875;stroke-linecap:butt;stroke-linejoin:miter;stroke-miterlimit:4;stroke-opacity:1;stroke-dasharray:none;stroke-dashoffset:0;marker:none;visibility:visible;display:inline;overflow:visible;enable-background:accumulate"
       d="m 170.44688,556.26401 0,46.65933"
       id="path3175" />
    <path
       style="fill:none;stroke:#000000;stroke-width:0.875;stroke-linecap:butt;stroke-linejoin:miter;stroke-miterlimit:4;stroke-opacity:1;stroke-dasharray:none;stroke-dashoffset:0;marker:none;visibility:visible;display:inline;overflow:visible;enable-background:accumulate"
       d="m 135.58493,544.73173 c 7.29052,12.99038 14.84615,24.92032 14.84615,24.92032"
       id="path3177" />
    <path
       style="fill:none;stroke:#000000;stroke-width:0.875;stroke-linecap:butt;stroke-linejoin:miter;stroke-miterlimit:4;stroke-opacity:1;stroke-dasharray:none;stroke-dashoffset:0;marker:none;visibility:visible;display:inline;overflow:visible;enable-background:accumulate"
       d="m 155.86583,535.45289 c 0,0 5.56731,9.67651 13.2555,18.95535 7.68818,9.27884 12.85783,14.58104 12.85783,14.58104 l 0,0 0,0"
       id="path3179" />
    <path
       style="fill:none;stroke:#000000;stroke-width:0.875;stroke-linecap:butt;stroke-linejoin:miter;stroke-miterlimit:4;stroke-opacity:1;stroke-dasharray:none;stroke-dashoffset:0;marker:none;visibility:visible;display:inline;overflow:visible;enable-background:accumulate"
       d="m 155.86583,535.45289 c 0,0 -9.94161,5.69986 -20.41345,9.14628 0,0 9.27885,9.01374 18.55769,14.05083 9.27884,5.03708 14.31593,7.15796 18.69024,8.2184 4.37431,1.06044 8.88118,1.98833 8.88118,1.98833"
       id="path3181" />
    <path
       style="fill:none;stroke:#000000;stroke-width:0.875;stroke-linecap:butt;stroke-linejoin:miter;stroke-miterlimit:4;stroke-opacity:1;stroke-dasharray:none;stroke-dashoffset:0;marker:none;visibility:visible;display:inline;overflow:visible;enable-background:accumulate"
       d="m 150.6962,569.5195 c 0,0 6.62774,-2.78365 13.78571,-8.48351 7.15796,-5.69987 11.92994,-10.20674 15.24381,-13.38805 3.31387,-3.18132 5.83242,-5.96497 5.83242,-5.96497 l 0,0 11.00205,11.00206 c 0,0 -3.57897,4.63942 -7.42307,8.48351 -3.8441,3.84409 -7.55563,7.82074 -7.55563,7.82074"
       id="path3183"
       sodipodi:nodetypes="cssccc" />
    <path
       style="fill:url(#linearGradient3722);fill-opacity:1;fill-rule:evenodd;stroke:#898989;stroke-width:0.2032962;stroke-linecap:butt;stroke-linejoin:miter;stroke-miterlimit:4;stroke-opacity:1;stroke-dasharray:none;stroke-dashoffset:0;marker:none;visibility:visible;display:inline;overflow:visible;enable-background:accumulate"
       d="m 264.94968,525.93823 c -3.4692,0.11306 -7.32625,5.62346 -8.55538,7.09842 -1.2688,1.52255 -6.33861,5.46377 -8.11491,5.59065 -1.77631,0.12688 -5.71934,-2.41649 -6.86125,-4.06592 -1.1419,-1.64943 -3.2874,-8.25082 -9.75822,-8.50456 l 0,70.56075 0.22024,0.0169 -0.4913,0 c 6.47081,0.25377 8.61631,6.85515 9.75822,8.50456 1.14191,1.64946 5.08494,4.17587 6.86125,4.04901 1.7763,-0.12691 6.84611,-4.05118 8.1149,-5.57373 1.00498,-1.20596 3.77288,-5.10756 6.64101,-6.55628 l 4.57417,-0.017 c 2.79259,1.02586 5.47526,3.31606 7.06454,5.30267 2.03006,2.53757 5.44252,6.46222 8.48762,5.82783 3.04509,-0.63445 6.73654,-3.67094 8.38596,-5.82783 1.64943,-2.15694 5.19344,-5.07416 5.82783,-5.20102 0.63439,-0.12691 0.64377,-0.13553 0.64377,-0.13553 l 0.12559,-0.0169 0.14547,-0.017 0,-70.52684 c 0,0 -0.009,-0.008 -0.64377,0.11859 -0.63439,0.12688 -4.1784,3.04405 -5.82782,5.20099 -1.64942,2.15694 -5.34088,5.21036 -8.38597,5.84477 -3.0451,0.63439 -6.45756,-3.3072 -8.48762,-5.84477 -2.03005,-2.53757 -5.84984,-5.57407 -9.40245,-5.82782 -0.11102,-0.008 -0.20997,-0.004 -0.32188,0 z"
       id="path3193"
       sodipodi:nodetypes="csssccccsssccssssccccsssssc" />
    <path
       style="fill:none;stroke:#000000;stroke-width:0.875;stroke-linecap:butt;stroke-linejoin:miter;stroke-miterlimit:4;stroke-opacity:1;stroke-dasharray:none;stroke-dashoffset:0;marker:none;visibility:visible;display:inline;overflow:visible;enable-background:accumulate"
       d="m 270.00914,591.98639 0,-45.16883 c 0,0 -2.4107,3.80636 -3.29885,5.70954 -0.88815,1.90318 -3.29885,6.85145 -8.62776,25.75639 -5.32891,18.90493 -8.374,23.98008 -8.374,23.98008 l 0,-30.4509 c 0,0 -2.15694,-3.42572 -4.06011,-6.97833 -1.90319,-3.55261 -5.07516,-11.54597 -6.5977,-15.47921 -1.52255,-3.93324 -3.55261,-7.86648 -3.55261,-7.86648 5.9633,-0.50752 6.34394,3.29884 10.02342,2.66445 3.67949,-0.63439 4.31388,-2.4107 6.09019,-4.69451 1.7763,-2.28382 3.29884,-5.70955 3.29884,-5.70955 0,0 4.69452,0.63439 6.85145,2.4107 2.15694,1.7763 6.47082,6.21706 10.40406,14.71793 3.93325,8.50088 8.62776,20.04685 8.62776,20.04685 l 0,30.4509"
       id="path3185" />
    <path
       style="fill:none;stroke:#000000;stroke-width:0.875;stroke-linecap:butt;stroke-linejoin:miter;stroke-miterlimit:4;stroke-opacity:1;stroke-dasharray:none;stroke-dashoffset:0;marker:none;visibility:visible;display:inline;overflow:visible;enable-background:accumulate"
       d="m 249.83541,602.1367 c 2.53758,-0.76128 3.80636,-1.39567 6.85145,-4.94828 3.0451,-3.5526 7.23209,-6.59769 8.88152,-6.47081 1.64942,0.12688 5.83642,1.90318 8.374,4.69451 2.53757,2.79134 3.17197,3.04509 4.56764,4.31388 1.39566,1.26878 2.41069,1.7763 2.41069,1.7763"
       id="path3187" />
    <path
       style="fill:none;stroke:#000000;stroke-width:0.875;stroke-linecap:butt;stroke-linejoin:miter;stroke-miterlimit:4;stroke-opacity:1;stroke-dasharray:none;stroke-dashoffset:0;marker:none;visibility:visible;display:inline;overflow:visible;enable-background:accumulate"
       d="m 250.4698,571.68579 c 5.45579,-3.17197 5.32891,-4.94827 8.62776,-7.48585 3.29885,-2.53757 5.07515,-4.31387 7.86649,-4.18699 2.79133,0.12688 4.44075,2.15693 6.72457,4.56763 2.28382,2.4107 6.97833,6.09018 6.97833,6.09018 l 0,0 0,0 c 2.79133,-0.25376 6.09018,-4.06012 7.10521,-6.09018 1.01503,-2.03006 4.69451,-8.75463 5.32891,-9.5159 0.63439,-0.76128 2.79133,-3.80637 2.79133,-3.80637 l 0,0 0,0 c -2.41069,-2.53758 -5.07515,-2.41069 -5.07515,-2.41069 0,0 -1.7763,-0.12689 -2.91821,-1.01504 -1.14191,-0.88815 -3.17197,-2.53757 -3.17197,-2.53757 0,0 0,-0.25376 -1.26879,1.26879 -1.26878,1.52254 -4.31387,1.90318 -6.85145,1.14191 -2.53757,-0.76128 -7.10521,-1.14191 -8.12024,-0.76128 -1.01503,0.38064 -3.04509,1.52255 -4.94827,3.67949 -1.90318,2.15694 -3.29885,4.69451 -4.56763,6.97833 -1.26879,2.28382 -5.70955,10.02342 -5.70955,10.02342 l -2.79134,4.06012 z"
       id="path3189" />
    <path
       style="fill:none;stroke:#000000;stroke-width:0.875;stroke-linecap:butt;stroke-linejoin:miter;stroke-miterlimit:4;stroke-opacity:1;stroke-dasharray:none;stroke-dashoffset:0;marker:none;visibility:visible;display:inline;overflow:visible;enable-background:accumulate"
       d="m 235.62499,541.7424 c 4.44075,5.45579 5.83642,10.40406 9.26215,13.44915 3.42573,3.04509 2.28382,3.29885 5.96331,3.17197 3.67948,-0.12688 4.69451,-1.52255 6.72457,-2.53757 2.03006,-1.01503 3.42572,-3.04509 6.34393,-2.53758 2.91822,0.50751 5.32891,2.15694 6.97834,4.31388 1.64942,2.15694 3.42572,5.20203 5.70954,7.99336 2.28382,2.79134 4.31388,5.32891 4.31388,5.32891 l 0,0"
       id="path3191" />
    <path
       style="fill:url(#radialGradient3741);fill-opacity:1;fill-rule:evenodd;stroke:#898989;stroke-width:0.2032962;stroke-linecap:butt;stroke-linejoin:miter;stroke-miterlimit:4;stroke-opacity:1;stroke-dasharray:none;stroke-dashoffset:0;marker:none;visibility:visible;display:inline;overflow:visible;enable-background:accumulate"
       d="m 360.70356,527.22399 c -4.88446,0.0575 -11.23379,0.72874 -24.76826,3.38827 l -0.16941,0 -1.62637,0.35576 c -0.60313,0.12066 -1.13104,0.22751 -1.7619,0.35577 l 0,-0.0678 -1.13507,0.35577 -0.50824,0.11858 0,0.0508 -3.40521,1.08425 c 1e-5,-1e-5 0.12238,26.75186 0.23718,33.98435 0.11481,7.23248 -0.009,10.32822 1.25366,8.6062 1.26281,-1.72203 -0.005,-4.36129 1.37225,-3.55768 1.37762,0.80359 1.15201,2.07284 1.15201,3.79486 10e-6,1.72201 -1.03521,9.17926 -0.57601,13.19731 0.36478,3.19186 0.78739,8.95833 0.9826,11.65565 l 0.10165,2.33791 0.576,0.10165 c 16.01698,3.83653 29.60827,5.52374 34.39095,4.72663 4.82167,-0.8036 5.62053,-1.26502 4.47251,-1.60943 -1.14799,-0.3444 -2.97589,-1.02605 -2.28708,-1.82966 0.68882,-0.80363 0.46341,-1.15181 2.18543,-0.11859 1.72203,1.03321 2.97453,1.72802 4.81135,1.72802 1.83681,-10e-6 14.01049,-2.76144 14.01049,-2.76144 l -0.50824,0 0.84707,-0.22024 0,0.10165 c 0,0 0.0494,-0.0983 0.0508,-0.10165 l 0.0339,-0.0169 1.25366,-2.37178 0,-0.79625 c 1.94791,-4.85744 5.40338,-13.78123 5.89559,-17.14464 0.68881,-4.70687 -1.38183,-5.96136 -2.18543,-5.38735 -0.8036,0.57402 -2.63328,0.22182 -1.82967,-1.2706 0.80361,-1.49243 3.67069,-2.52668 4.0151,-5.16712 0.34441,-2.64041 0.35377,-14.1092 -0.22024,-18.12724 -0.48691,-3.4084 -4.89375,-15.18959 -6.28524,-18.85572 l -0.50824,-1.74496 -0.16941,-0.0678 0.18635,0 c 0,0 -1.49945,-0.93021 -6.89513,-2.42261 -5.39566,-1.49242 -15.03003,-2.17227 -20.77009,-2.28708 -0.71751,-0.0144 -1.45786,-0.0259 -2.21932,-0.0169 z"
       id="path3230" />
    <path
       style="fill:url(#linearGradient3738);fill-opacity:1;fill-rule:evenodd;stroke:none;stroke-width:0.875;marker:none;visibility:visible;display:inline;overflow:visible;enable-background:accumulate;stroke-miterlimit:4;stroke-dasharray:none"
       d="m 394.57865,577.46165 c -0.4659,-0.0582 -0.84444,0 -0.99003,-0.3203 -0.1456,-0.32031 -0.40767,-0.55326 -0.32031,-0.81533 0.0874,-0.26206 0.26207,-0.64061 0.26207,-0.64061 l -14.94278,9.13624 0.005,0.0362 15.98615,-7.39614 z"
       id="path3288"
       sodipodi:nodetypes="csscccc" />
    <path
       style="fill:none;stroke:#000000;stroke-width:0.875;stroke-linecap:butt;stroke-linejoin:miter;stroke-miterlimit:4;stroke-opacity:1;stroke-dasharray:none;stroke-dashoffset:0;marker:none;visibility:visible;display:inline;overflow:visible;enable-background:accumulate"
       d="m 331.85284,549.05081 c 6.08448,-6.19927 14.69458,-12.39854 16.4166,-13.31695 1.72202,-0.91841 4.47726,-2.41084 4.47726,-2.41084 0,0 14.35017,12.85776 19.97544,20.09025 5.62526,7.23249 9.75812,12.62815 10.67653,14.23537 0.91841,1.60722 1.60721,2.75524 1.60721,2.75524 0,0 -17.1054,0.6888 -21.58265,0.6888 -4.47726,0 -17.17308,-0.23741 -17.17308,-0.23741 0,0 4.31532,-6.30627 8.56297,-9.6355 4.24765,-3.32925 19.17183,-13.43177 23.07508,-15.49819 3.90325,-2.06643 7.57689,-4.36246 7.57689,-4.36246 0,0 7.9213,9.41372 9.87292,12.74295 1.95162,3.32925 2.29603,4.01806 2.29603,4.01806 0,0 -5.96967,6.19927 -7.11769,7.57689 -1.14801,1.37761 -5.51047,4.70686 -5.51047,4.70686 0,0 -26.86352,-12.51336 -31.45558,-14.00578 -4.59205,-1.49241 -21.58265,-7.11768 -21.69746,-7.34729 z"
       id="path3201"
       sodipodi:nodetypes="cscsscscsscscscsc" />
    <path
       style="fill:none;stroke:#000000;stroke-width:0.875;stroke-linecap:butt;stroke-linejoin:miter;stroke-miterlimit:4;stroke-opacity:1;stroke-dasharray:none;stroke-dashoffset:0;marker:none;visibility:visible;display:inline;overflow:visible;enable-background:accumulate"
       d="m 346.17446,570.90815 c 1.9682,5.23327 1.11151,10.71691 1.68552,13.41474 1.14801,5.39566 -0.85335,19.02898 -0.85335,19.02898 0,0 12.62815,-32.94799 14.23537,-35.47363 1.60722,-2.52562 1.60722,-2.52562 1.60722,-2.52562 l 7.23248,-14.80938 c 0,0 0.91842,22.38626 0.22961,33.6368 -0.68881,11.25054 -0.54856,10.69793 -0.54856,10.69793 0,0 0.0868,1.8982 -0.18233,2.41806 -0.29712,0.574 -0.45439,0.83648 -0.78437,1.15582 -0.54697,0.52933 -0.2805,1.62327 -0.2805,1.62327"
       id="path3203"
       sodipodi:nodetypes="cscsccscssc" />
    <path
       style="fill:none;stroke:#000000;stroke-width:0.875;stroke-linecap:butt;stroke-linejoin:miter;stroke-miterlimit:4;stroke-opacity:1;stroke-dasharray:none;stroke-dashoffset:0;marker:none;visibility:visible;display:inline;overflow:visible;enable-background:accumulate"
       d="m 384.77628,570.51868 c 0,0 -6.08533,14.78481 -1.80559,12.85804 5.55562,-2.50118 -2.67166,20.08995 -2.67166,20.08995"
       id="path3207"
       sodipodi:nodetypes="csc" />
    <path
       style="fill:none;stroke:#000000;stroke-width:0.875;stroke-linecap:butt;stroke-linejoin:miter;stroke-miterlimit:4;stroke-opacity:1;stroke-dasharray:none;stroke-dashoffset:0;marker:none;visibility:visible;display:inline;overflow:visible;enable-background:accumulate"
       d="m 380.52863,603.58147 c -5.51047,-1.14801 -7.80649,-3.67364 -9.29891,-3.67364 -1.49242,0 -3.21444,0.1148 -3.21444,0.57401 0,0.45921 0,0.68881 0,0.68881"
       id="path3217" />
    <path
       style="fill:none;stroke:#000000;stroke-width:0.875;stroke-linecap:butt;stroke-linejoin:miter;stroke-miterlimit:4;stroke-opacity:1;stroke-dasharray:none;stroke-dashoffset:0;marker:none;visibility:visible;display:inline;overflow:visible;enable-background:accumulate"
       d="m 347.12143,603.35187 c 8.2657,0.2296 13.89096,0.34441 15.61299,0.45921 1.72202,0.1148 5.51046,-0.22961 5.51046,-0.22961"
       id="path3219" />
    <path
       style="fill:none;stroke:#000000;stroke-width:0.875;stroke-linecap:butt;stroke-linejoin:miter;stroke-miterlimit:4;stroke-opacity:1;stroke-dasharray:none;stroke-dashoffset:0;marker:none;visibility:visible;display:inline;overflow:visible;enable-background:accumulate"
       d="m 332.0142,549.29286 c 9.8735,13.01506 10.2101,15.37123 10.43449,16.60542 0.2244,1.23419 0.4488,2.91717 0.4488,2.91717 l 0,0"
       id="path3221" />
    <path
       style="fill:url(#linearGradient3729);fill-opacity:1;fill-rule:evenodd;stroke:none;stroke-width:0.875;marker:none;visibility:visible;display:inline;overflow:visible;enable-background:accumulate"
       d="m 329.73933,571.6367 17.96772,-3.3028 -0.80559,0.0298 -19.15506,3.01349 0.0269,2.30007 0.18196,1.63836 c 0,0 0.1486,0.50407 0.29837,0.50796 0.35455,0.009 0.69195,-0.55273 0.80558,-0.89584 0.34147,-1.03104 0.30522,-1.73663 0.30522,-1.73663 l 0.0827,-1.12767 0.0902,-0.28931 0.202,-0.13747 z"
       id="path3268"
       sodipodi:nodetypes="ccccccsscccc" />
    <path
       style="fill:none;stroke:#000000;stroke-width:0.875;stroke-linecap:butt;stroke-linejoin:miter;stroke-miterlimit:4;stroke-opacity:1;stroke-dasharray:none;stroke-dashoffset:0;marker:none;visibility:visible;display:inline;overflow:visible;enable-background:accumulate"
       d="m 346.37565,570.94723 c 0,0 0,-1.57079 -0.56099,-1.68298 -0.561,-0.1122 -1.45859,-0.4488 -1.45859,-0.4488"
       id="path3223" />
    <path
       style="fill:url(#linearGradient3725);fill-opacity:1;fill-rule:evenodd;stroke:none;stroke-width:0.875;marker:none;visibility:visible;display:inline;overflow:visible;enable-background:accumulate;stroke-miterlimit:4;stroke-dasharray:none"
       d="m 367.74147,601.40555 0.53242,5.99665 c 0,0 1.59723,-0.30824 1.73734,-0.33627 0.14011,-0.028 1.23295,-0.22417 1.40109,-0.30823 0.16813,-0.0841 0.56043,-0.22418 0.3923,-0.33626 -0.16813,-0.11209 -0.70054,-0.28022 -1.289,-0.58846 -0.58845,-0.30824 -1.37306,-0.72857 -1.54119,-0.95274 -0.16814,-0.22417 -0.16814,-0.70054 -0.36429,-1.06482 -0.19615,-0.36429 -0.81262,-2.40987 -0.86867,-2.40987 z"
       id="path3278" />
    <text
       xml:space="preserve"
       style="font-size:10;font-style:normal;font-variant:normal;font-weight:normal;font-stretch:normal;text-align:start;line-height:100%;writing-mode:lr-tb;text-anchor:start;fill:#000000;fill-opacity:1;stroke:none;font-family:Bitstream Vera Sans;-inkscape-font-specification:Bitstream Vera Sans"
       x="22.420345"
       y="611.01727"
       id="text3365"
       sodipodi:linespacing="100%"><tspan
         sodipodi:role="line"
         id="tspan3367"
         x="22.420345"
         y="611.01727">1</tspan></text>
    <text
       xml:space="preserve"
       style="font-size:10;font-style:normal;font-variant:normal;font-weight:normal;font-stretch:normal;text-align:start;line-height:100%;writing-mode:lr-tb;text-anchor:start;fill:#000000;fill-opacity:1;stroke:none;font-family:Bitstream Vera Sans;-inkscape-font-specification:Bitstream Vera Sans"
       x="125.29491"
       y="611.01727"
       id="text3369"
       sodipodi:linespacing="100%"><tspan
         sodipodi:role="line"
         id="tspan3371"
         x="125.29491"
         y="611.01727">2</tspan></text>
    <text
       xml:space="preserve"
       style="font-size:5.42123175px;font-style:normal;font-variant:normal;font-weight:normal;font-stretch:normal;text-align:start;line-height:100%;writing-mode:lr-tb;text-anchor:start;fill:#000000;fill-opacity:1;stroke:none;font-family:Bitstream Vera Sans;-inkscape-font-specification:Bitstream Vera Sans"
       x="230.41809"
       y="611.01727"
       id="text3373"
       sodipodi:linespacing="100%"><tspan
         sodipodi:role="line"
         id="tspan3375"
         x="230.41809"
         y="611.01727"
         style="font-size:10">3</tspan></text>
    <text
       xml:space="preserve"
       style="font-size:5.42123175px;font-style:normal;font-variant:normal;font-weight:normal;font-stretch:normal;text-align:start;line-height:100%;writing-mode:lr-tb;text-anchor:start;fill:#000000;fill-opacity:1;stroke:none;font-family:Bitstream Vera Sans;-inkscape-font-specification:Bitstream Vera Sans"
       x="324.29816"
       y="611.01727"
       id="text3377"
       sodipodi:linespacing="100%"><tspan
         sodipodi:role="line"
         id="tspan3379"
         x="324.29816"
         y="611.01727"
         style="font-size:10">4</tspan></text>
  </g>
</svg>
