<?xml version="1.0" encoding="UTF-8" standalone="no"?>
<!-- Created with Inkscape (http://www.inkscape.org/) -->
<svg
   xmlns:dc="http://purl.org/dc/elements/1.1/"
   xmlns:cc="http://creativecommons.org/ns#"
   xmlns:rdf="http://www.w3.org/1999/02/22-rdf-syntax-ns#"
   xmlns:svg="http://www.w3.org/2000/svg"
   xmlns="http://www.w3.org/2000/svg"
   xmlns:sodipodi="http://sodipodi.sourceforge.net/DTD/sodipodi-0.dtd"
   xmlns:inkscape="http://www.inkscape.org/namespaces/inkscape"
   width="744.09448819"
   height="1052.3622047"
   id="svg2"
   sodipodi:version="0.32"
   inkscape:version="0.46"
   sodipodi:docname="affine-area-lattice.svg"
   inkscape:output_extension="org.inkscape.output.svg.inkscape">
  <defs
     id="defs4">
    <inkscape:perspective
       sodipodi:type="inkscape:persp3d"
       inkscape:vp_x="0 : 526.18109 : 1"
       inkscape:vp_y="0 : 1000 : 0"
       inkscape:vp_z="744.09448 : 526.18109 : 1"
       inkscape:persp3d-origin="372.04724 : 350.78739 : 1"
       id="perspective10" />
  </defs>
  <sodipodi:namedview
     id="base"
     pagecolor="#ffffff"
     bordercolor="#666666"
     borderopacity="1.0"
     gridtolerance="10000"
     guidetolerance="10"
     objecttolerance="10"
     inkscape:pageopacity="0.0"
     inkscape:pageshadow="2"
     inkscape:zoom="2.7297767"
     inkscape:cx="59.757634"
     inkscape:cy="661.79863"
     inkscape:document-units="px"
     inkscape:current-layer="layer1"
     showgrid="false"
     inkscape:window-width="1278"
     inkscape:window-height="996"
     inkscape:window-x="1"
     inkscape:window-y="1" />
  <metadata
     id="metadata7">
    <rdf:RDF>
      <cc:Work
         rdf:about="">
        <dc:format>image/svg+xml</dc:format>
        <dc:type
           rdf:resource="http://purl.org/dc/dcmitype/StillImage" />
      </cc:Work>
    </rdf:RDF>
  </metadata>
  <g
     inkscape:label="Layer 1"
     inkscape:groupmode="layer"
     id="layer1">
    <rect
       style="fill:#dedede;fill-opacity:1;fill-rule:evenodd;stroke:none;stroke-width:0.53544941000000001pt;stroke-linecap:butt;stroke-linejoin:miter;stroke-opacity:1"
       id="rect2383"
       width="184.25197"
       height="141.25984"
       x="3.2957809"
       y="337.20807" />
    <g
       id="g3253">
      <g
         transform="matrix(0.1955427,0.2985987,-0.2985987,0.1955427,162.95513,206.2082)"
         style="fill:#b4b4b4;fill-opacity:1"
         id="g3214">
        <path
           style="opacity:1;fill:#b4b4b4;fill-opacity:1;fill-rule:evenodd;stroke:none;stroke-width:0.87500000000000000;stroke-linecap:butt;stroke-linejoin:miter;marker:none;marker-start:none;marker-mid:none;marker-end:none;stroke-miterlimit:4;stroke-dasharray:none;stroke-dashoffset:0;stroke-opacity:1;visibility:visible;display:inline;overflow:visible;enable-background:accumulate"
           d="M 354.53125,251.8125 L 344.25,382.34375 L 318.84375,392.15625 L 293.4375,404.28125 L 283.03125,430.84375 L 283.59375,463.1875 C 283.59375,463.1875 285.06351,474.75511 286.21875,480.53125 C 287.37398,486.30741 286.21874,491.50001 286.21875,491.5 L 285.0625,495.84375 C 285.0625,495.84375 286.79841,496.39869 288.53125,496.6875 C 290.2641,496.9763 295.7455,497.55597 299.5,499 C 303.2545,500.44404 305.85334,507.09983 307.875,514.03125 C 309.89665,520.96263 307.0141,531.94114 305.28125,544.9375 L 307.59375,548.75 L 282.34375,589.34375 L 267.84375,656 L 279.3125,684.65625 L 422.90625,695.21875 L 444.625,629.15625 L 433.15625,582.40625 L 415.34375,564.625 L 406.90625,537.78125 L 410.84375,489.5 L 375.34375,508.9375 L 369.21875,385.78125 L 362.6875,251.8125 L 354.53125,251.8125 z"
           id="path3204" />
      </g>
      <path
         id="path3206"
         d="M 178.15119,347.09207 L 175.91203,347.01181 L 157.29346,360.29781 L 157.03681,359.9059 L 115.76611,384.14618 L 27.073626,436.12156 L 80.744775,434.35967 C 84.28662,431.3009 87.001132,428.29341 89.466152,427.54169 C 91.93117,426.78997 94.426781,426.26449 95.592134,427.10321 C 96.757489,427.94192 98.002421,429.46531 98.427503,429.92627 C 98.85258,430.38722 99.357734,430.79704 99.357734,430.79704 L 100.42868,429.6024 C 100.42868,429.60239 101.75328,428.24208 103.70393,427.45754 C 105.65458,426.673 109.38994,424.84059 109.38994,424.84059 L 119.16385,418.6933 L 125.06051,410.3919 L 123.71301,400.43467 L 121.675,390.92964 L 156.00089,364.37084 L 155.99312,364.56259 L 166.83087,357.33197 L 178.40008,352.19558 L 179.08275,349.30861 L 178.15119,347.09207 z"
         style="fill:#b4b4b4;fill-opacity:1;fill-rule:evenodd;stroke:none;stroke-width:0.87500000000000000;stroke-linecap:butt;stroke-linejoin:miter;marker:none;marker-start:none;marker-mid:none;marker-end:none;stroke-miterlimit:4;stroke-dasharray:none;stroke-dashoffset:0;stroke-opacity:1;visibility:visible;display:inline;overflow:visible;enable-background:accumulate" />
      <path
         id="path8"
         d="M 179.38376,346.1073 C 179.20727,345.84785 179.05203,345.68379 178.97269,345.68319 C 178.82664,345.62093 178.3024,345.85544 177.78672,346.19319 C 177.23417,346.55503 176.65497,346.56523 176.23087,346.15874 C 175.47915,345.49308 174.51639,345.86808 174.75372,346.71273 C 174.82477,346.98197 174.57504,347.24031 174.25753,347.23769 C 173.45102,347.29209 172.56211,345.93472 173.1515,345.54876 C 173.44619,345.35577 173.26366,345.16167 172.61721,345.05865 C 171.39802,344.80437 170.31771,346.03811 170.61209,347.37173 C 170.7529,348.06899 170.37926,348.94376 169.41759,350.0472 C 168.06083,351.67257 167.95565,351.68193 166.73772,351.26884 C 165.55669,350.83172 165.49071,350.88405 165.45877,351.79975 C 165.34793,353.39869 163.97651,353.39718 163.31772,351.82858 C 162.99399,351.09312 162.76603,350.18571 162.84231,349.81995 C 162.85764,349.44149 162.26803,348.45865 161.51761,347.63423 C 160.07774,345.99812 158.97233,345.83368 158.37515,347.17223 C 158.08928,347.78054 158.48795,348.62714 160.17656,351.20569 C 162.3235,354.48412 162.31761,354.48141 161.32429,354.97392 C 160.78449,355.27485 160.19564,355.34961 160.00134,355.21365 C 159.45532,354.78174 158.86155,355.3194 158.81684,356.29598 C 158.78619,356.77662 158.21055,357.44397 157.41956,358.051 C 157.41668,358.05323 157.41312,358.05488 157.41023,358.05711 C 156.33358,357.80686 155.34693,358.3723 155.03276,359.37405 C 154.69835,359.49299 154.37248,359.57827 154.09038,359.60451 C 153.05148,359.70592 152.82926,359.85286 152.59028,360.69354 C 152.2878,361.83909 146.85571,365.34234 128.49487,376.36619 C 123.40137,379.43864 116.04353,383.89146 112.10333,386.31386 C 111.80192,386.49904 111.15346,386.89772 110.80051,387.1137 C 108.16366,386.40516 105.60878,386.21597 103.45345,386.6852 C 101.655,387.07347 102.19246,387.24279 105.19742,387.16979 C 106.66304,387.15739 108.60446,387.3083 109.45789,387.48629 C 109.62753,387.52444 109.79849,387.57197 109.97037,387.61736 C 105.64195,390.26097 98.913578,394.334 93.283446,397.74511 C 92.980498,397.92853 92.63394,398.14532 92.322652,398.33429 C 92.949335,396.92224 92.83511,396.03259 91.826611,396.57919 C 89.864164,397.60113 89.051396,398.28703 86.576866,400.69708 C 85.520995,401.73575 84.822197,402.51703 84.34422,403.21245 C 80.423391,405.62942 76.754456,407.9192 74.551983,409.33175 C 70.696868,411.80369 67.059826,413.96869 66.484451,414.13493 C 65.909109,414.30124 64.850945,414.94082 64.173861,415.59473 C 63.103004,416.61181 62.981885,416.90782 63.489803,417.52267 C 63.816103,417.94056 64.344348,418.27254 64.624972,418.2992 C 64.942514,418.30184 67.811827,416.63816 71.029319,414.47852 C 74.234087,412.37982 77.005983,410.67343 77.188826,410.71151 C 77.517745,410.81192 75.060885,412.51978 67.778683,417.39392 C 65.076929,419.21586 64.915662,419.37744 65.335898,420.26027 C 65.551687,420.75053 66.013459,421.12459 66.319537,421.02936 C 66.612922,420.99514 69.533524,419.04114 72.728189,416.6859 C 77.270635,413.425 78.560805,412.59146 79.435346,412.53359 C 77.903099,414.2566 75.170866,416.64279 73.989875,417.12627 C 73.720332,417.11779 73.224365,417.29427 72.754696,417.60184 C 72.707792,417.63256 72.691391,417.65584 72.648823,417.68449 C 71.82666,418.11052 70.631058,418.76966 69.29546,419.5472 C 67.946691,420.36433 66.525533,421.14145 65.4231,421.69645 C 64.98266,421.01386 64.450438,420.16085 63.722074,418.99714 L 61.35856,415.22512 L 59.068295,416.47163 C 57.572009,417.24095 55.606387,417.79006 53.381191,418.08929 C 51.498968,418.26926 49.488136,418.63593 48.802311,418.87463 C 48.177373,419.12594 47.539185,419.12429 47.394444,418.90327 C 47.249695,418.68225 47.072071,418.74315 46.923425,418.9984 C 46.811604,419.22953 46.582034,419.27112 46.437293,419.05009 C 46.292547,418.82907 46.072644,418.82435 45.960814,419.05545 C 45.737208,419.51773 41.341386,418.49621 40.955404,417.9068 C 40.641803,417.42795 41.261743,415.07963 41.851126,414.69366 C 42.108978,414.5248 42.178112,414.15463 42.009261,413.89679 C 41.816252,413.60208 41.799442,412.93458 41.950713,412.36185 C 42.455339,410.39974 45.492746,410.04566 46.12482,411.89496 C 46.339329,412.544 46.518735,412.58015 47.024342,411.98589 C 47.394018,411.5859 48.056877,411.31449 48.520474,411.37944 C 49.264709,411.47103 49.566414,411.21727 50.199183,410.01345 C 50.96786,408.61529 51.122518,408.51678 54.981222,407.09517 C 60.309484,405.18491 60.531649,405.0407 61.161776,404.15434 C 61.61913,403.48637 61.569475,403.40736 61.053765,403.74509 C 59.753082,404.49161 54.793943,405.53164 52.534534,405.53751 C 49.848404,405.45436 46.804543,403.86218 46.207961,402.14746 C 45.980739,401.55939 45.521183,400.85761 45.193603,400.59851 C 44.671674,400.20339 44.528081,400.30868 44.31456,401.02748 C 43.900245,402.40413 40.540936,404.02025 36.136199,405.00991 C 25.675664,407.28108 18.392032,412.16038 14.914387,419.22739 C 14.256221,420.55318 13.058482,422.4904 12.29241,423.57104 C 10.476986,426.0231 9.8028509,429.56873 10.522292,432.67665 C 12.386287,440.66691 13.118659,442.76207 16.343322,448.65069 C 19.555263,454.60025 19.637996,453.87081 20.836913,455.61432 C 24.500082,460.00246 25.761088,461.11973 27.656215,462.66822 C 32.454179,466.39074 32.045684,465.79116 35.095938,467.63592 C 37.720769,469.23291 42.423255,470.63723 43.233655,470.10652 C 43.454668,469.96179 43.288692,469.85297 42.849258,469.82494 C 42.433957,469.83374 42.115181,469.67699 42.190118,469.46992 C 42.204151,469.25022 42.792023,469.1761 43.438446,469.2791 C 44.718574,469.54607 45.839641,469.49798 49.982598,469.15342 C 52.121367,468.96335 52.767989,469.06472 52.32465,469.51296 C 51.290618,470.50592 56.341731,468.8871 59.347005,467.2875 C 63.002602,465.31463 66.737032,461.54581 69.927118,456.77239 C 72.647135,452.72787 73.9374,451.63111 76.185367,451.52739 C 77.529089,451.4896 77.708503,451.36084 77.689601,450.689 C 77.680807,450.27369 77.220882,449.26066 76.690179,448.45027 C 74.820017,445.67485 74.957358,442.90399 77.12353,439.38007 C 79.771221,435.22509 86.872188,429.68438 91.414152,428.34165 C 94.132208,427.50906 96.120521,428.1989 97.712649,430.63012 C 98.412203,431.69836 98.87188,432.08424 99.240223,431.84298 C 99.534908,431.65 99.458826,431.22202 98.99919,430.68089 C 98.576384,430.11564 98.427858,429.32739 98.604544,428.63271 C 98.820679,427.5964 98.738788,427.38354 97.827016,426.87534 C 96.404721,426.06981 94.624339,425.91941 93.740266,426.49836 C 93.274102,426.75099 92.390152,427.01695 91.681464,427.05998 C 90.972753,427.10299 89.539758,427.72846 88.484234,428.36708 C 87.415974,429.06665 86.434637,429.49247 86.314026,429.3083 C 86.193418,429.12412 85.493012,429.42071 84.767688,430.00096 C 84.042354,430.58121 83.117162,431.09169 82.738677,431.07634 C 82.323398,431.08518 83.508646,430.09217 85.681971,428.66889 C 89.083634,426.3886 90.162776,425.94707 95.107339,424.65649 C 95.854148,424.43055 97.667646,423.82469 99.162607,423.2141 C 100.6817,422.64036 103.20316,421.66696 104.83276,421.02085 C 106.80527,420.2554 107.73901,419.75272 107.75434,419.37426 C 107.72011,419.08087 108.61663,418.27695 109.74585,417.5901 C 111.9306,416.26464 113.231,414.95137 112.89328,414.43566 C 112.77264,414.25145 112.80313,414.06872 113.01144,413.98495 C 113.6846,413.80728 114.04061,411.36241 113.50987,410.55196 C 113.05153,409.85208 112.72615,409.85119 111.7443,410.44157 C 111.05713,410.83896 110.40251,411.26761 110.2793,411.40095 C 110.13197,411.49747 109.58243,411.38155 109.04783,411.04745 C 108.50051,410.77426 107.85723,410.51842 107.56382,410.55262 C 106.77003,410.54608 108.34748,407.98616 109.63677,407.14188 C 110.6682,406.46644 110.73227,406.47764 111.50159,407.9739 C 112.15031,409.28598 112.36954,409.46227 113.19006,409.18814 C 114.83104,408.6398 116.19803,405.73493 115.06653,405.21269 C 114.48235,404.96363 114.69906,402.72496 115.30997,402.69336 C 115.52969,402.70738 115.54779,402.42536 115.35481,402.13068 C 115.28178,402.01915 115.25083,401.89764 115.24325,401.77708 C 118.7217,399.65855 121.13268,398.17004 122.58814,397.19379 C 123.1361,398.84747 123.54597,400.92962 123.64828,402.96602 C 123.76334,405.3118 121.6593,414.0014 120.57056,415.71454 C 119.63038,417.17232 119.56599,417.48319 120.26328,417.34237 C 121.46228,417.08354 123.91971,412.79448 124.60362,409.82018 C 125.51138,405.73382 125.199,401.19921 123.67411,396.42929 C 124.83064,395.5795 124.94987,395.27333 124.54754,395.17735 C 124.30339,395.14917 123.60549,394.68121 122.83364,394.04644 C 122.41802,392.91365 122.17028,391.74157 122.25255,391.3471 C 122.38097,390.57873 140.00428,377.78531 152.92373,369.06157 C 155.33083,367.43264 157.58421,365.74023 157.96655,365.27921 C 158.16013,365.06975 158.40723,364.78126 158.6536,364.49598 C 158.81347,364.63721 158.97572,364.79352 159.12933,364.95775 C 160.08543,366.01588 160.47972,366.23126 160.92307,365.78303 C 161.31685,365.41985 161.22383,364.79462 160.6703,363.78862 C 160.58278,363.6242 160.50765,363.4605 160.4423,363.29795 C 160.66012,362.96007 160.99108,362.60288 161.3163,362.35228 C 162.0289,361.83297 162.22227,361.96442 163.33193,363.65891 C 164.27273,365.09553 164.48417,365.90692 164.33913,367.21253 C 164.09102,369.16448 165.1239,370.49207 167.07589,370.74013 C 168.36875,370.94615 169.95199,369.74862 170.44,368.32375 C 170.77935,367.15413 168.96233,364.70844 167.74056,364.77172 C 166.94677,364.76518 166.42359,364.36909 165.55515,363.04295 C 164.4455,361.34849 164.44192,361.25211 165.4733,360.5766 C 166.21005,360.09417 166.72137,360.07573 167.20644,360.49495 C 168.0915,361.28384 168.82617,360.80273 168.45682,359.67612 C 168.01642,358.28026 169.07588,358.37867 170.15131,359.77976 C 170.80393,360.61558 171.11702,361.40759 170.98987,362.01717 C 170.76105,363.11445 171.47807,364.37651 172.88635,365.40178 C 173.68761,365.98234 174.10795,365.97506 175.13937,365.29961 C 176.06027,364.69651 176.39826,364.15948 176.37936,363.48764 C 176.23235,362.05756 174.71801,359.99262 173.71723,359.91113 C 173.13177,359.82085 172.58045,359.29288 172.09931,358.39742 C 171.36548,357.03574 171.36678,356.97259 172.87577,356.14231 C 174.0291,355.49229 174.81965,355.40532 176.0744,355.79426 C 177.96282,356.34711 179.38362,355.61946 179.21248,354.15253 C 179.20499,353.57847 179.24555,352.60324 179.3854,351.93269 C 179.51254,351.32311 179.53336,350.63165 179.38862,350.41063 C 179.26801,350.22645 179.50769,349.70313 179.89012,349.24226 C 180.45666,348.66066 180.46773,348.12585 179.95104,347.09572 C 179.75872,346.72167 179.5602,346.3667 179.38376,346.1073 z M 177.12469,347.32003 C 177.2388,347.45659 177.30998,347.67279 177.32659,347.97444 C 177.33538,348.38974 177.65676,348.96514 177.97168,349.28527 C 178.74753,349.98777 178.01638,351.20401 176.9801,350.98794 C 176.43145,350.87348 176.34824,350.66285 176.56044,350.10278 C 176.84633,349.49449 176.77302,349.38468 176.02747,349.45181 C 174.84251,349.49093 174.61843,348.26795 175.64987,347.59254 C 176.38429,347.11159 176.87362,347.01953 177.12469,347.32003 z M 150.10869,364.51861 C 150.1316,364.53979 150.13575,364.58136 150.11704,364.63316 C 150.0789,364.81604 149.77184,365.07041 149.44164,365.12879 C 149.07458,365.21126 149.11373,365.02354 149.51893,364.75818 C 149.80474,364.53155 150.03995,364.45508 150.10869,364.51861 z M 148.1868,365.73722 C 148.25839,365.75612 148.03315,366.02757 147.58919,366.55522 C 147.04672,367.17359 146.4935,367.53523 146.12774,367.45895 C 145.70102,367.36994 146.03631,366.98623 147.01817,366.39585 C 147.74854,365.94388 148.11516,365.71825 148.1868,365.73722 z M 145.33013,367.76795 C 145.30472,367.88989 142.66981,369.72403 139.45237,371.88376 C 135.3773,374.5992 124.88137,381.34956 114.10144,388.24524 C 113.63808,388.04791 113.17201,387.872 112.70755,387.70479 C 116.26447,385.46908 119.45519,383.48416 121.54156,382.23967 C 123.43162,381.10718 129.55398,377.35533 135.17595,373.88428 C 140.77377,370.37631 145.35556,367.64604 145.33013,367.76795 z M 146.44417,369.61164 C 146.46175,369.63221 146.44624,369.67748 146.40907,369.74128 C 146.19946,369.98381 145.68776,370.3189 145.30799,370.46235 C 144.86725,370.59307 145.03496,370.37449 145.62434,369.98852 C 146.094,369.68095 146.39143,369.54996 146.44417,369.61164 z M 138.05896,375.04951 C 138.08187,375.07068 138.07994,375.10297 138.06119,375.15471 C 138.02305,375.33759 137.71602,375.59199 137.38579,375.65034 C 137.01873,375.73281 137.064,375.55443 137.46918,375.28905 C 137.75501,375.06244 137.99022,374.98598 138.05896,375.04951 z M 135.13829,376.96216 C 135.11285,377.08407 126.9477,382.70205 117.02468,389.41083 C 116.93444,389.47163 116.87185,389.50921 116.78207,389.56971 C 116.52902,389.42819 116.27695,389.29418 116.02128,389.16128 C 126.26679,382.53136 135.16922,376.81391 135.13829,376.96216 z M 121.79937,395.29709 C 121.8911,395.4666 121.97546,395.649 122.06403,395.84375 C 122.03555,396.09211 121.70847,396.30324 121.07617,396.71735 C 119.78688,397.56162 118.73576,397.56164 119.14617,396.66126 C 119.25798,396.43014 119.27951,396.05048 119.15888,395.86628 C 118.96752,395.57407 117.99919,395.57931 117.12113,395.74747 C 117.72699,394.81777 119.50359,393.73711 120.50795,393.9562 C 120.74965,394.19168 120.98829,394.43377 121.21975,394.67667 C 121.46868,394.93506 121.65957,395.12987 121.79937,395.29709 z M 115.78652,390.24833 C 103.98906,398.19677 96.080018,403.51341 90.97476,406.88343 C 91.005592,406.75627 91.036469,406.6299 91.052052,406.51282 C 91.30155,406.40801 91.305637,406.29645 91.066576,406.24996 C 91.074417,405.9995 91.044881,405.75543 90.973768,405.49745 C 96.719255,401.69588 106.16485,395.5371 115.03541,389.79359 C 115.28739,389.94063 115.53638,390.09108 115.78652,390.24833 z M 113.20887,388.81644 C 104.40117,394.44835 95.796807,399.92815 90.099111,403.51032 C 89.904491,403.03265 89.857583,402.67276 90.010588,402.235 C 96.562862,397.96063 104.9533,392.58355 111.85552,388.23609 C 112.30213,388.41127 112.75818,388.60233 113.20887,388.81644 z M 106.49618,396.27894 C 106.42184,396.19933 106.02471,396.26561 105.45505,396.48076 C 104.67137,396.73076 104.01342,397.17362 103.97528,397.3565 C 103.8863,397.78323 106.01645,397.01557 106.46109,396.40858 C 106.51349,396.34795 106.52096,396.30546 106.49618,396.27894 z M 107.46111,406.48672 C 107.43129,406.95526 107.207,407.61237 106.76258,408.29077 C 105.95837,409.55429 105.85802,410.03954 106.37992,410.43463 C 106.73165,410.73062 106.84817,411.07461 106.62715,411.21935 C 106.40613,411.36409 106.12624,411.32991 105.98148,411.10886 C 105.86086,410.92469 105.33558,411.01188 104.85671,411.32548 C 103.89894,411.95264 102.94077,411.7859 101.99607,410.82556 C 101.45134,410.23485 101.58738,410.04201 102.949,409.30819 C 103.80765,408.85118 104.86616,408.52283 105.24465,408.53817 C 105.70822,408.60305 105.85176,408.50833 105.65878,408.21364 C 105.51401,407.99259 105.65187,407.64487 105.94655,407.45185 C 106.0249,407.40054 106.08981,407.33252 106.14605,407.26787 C 106.52812,407.03917 106.89511,406.82205 107.2777,406.59348 C 107.34507,406.55294 107.39421,406.52695 107.46111,406.48672 z M 82.787892,407.00489 C 82.58602,407.4572 82.360919,407.89849 82.127441,408.31737 C 80.619414,409.11383 79.663827,409.50277 79.5422,409.31705 C 79.499591,409.25198 80.740874,408.38155 82.787892,407.00489 z M 82.2281,425.06424 C 83.552615,426.82499 82.237607,428.80458 82.237607,428.80458 L 78.233941,432.62641 L 74.852409,433.77424 L 72.182775,435.25584 L 76.675371,431.79378 C 80.199046,429.22602 81.663835,428.27535 81.312403,426.94386 C 80.961013,425.61242 80.725423,424.46758 80.172508,425.6104 C 79.61961,426.75325 78.652525,427.30021 78.175401,426.57163 C 77.698274,425.84305 76.909224,425.39392 78.121385,424.86037 C 79.333543,424.32682 80.671176,423.43289 81.930914,424.71222 C 82.043934,424.82701 82.13981,424.94687 82.2281,425.06424 z M 81.748019,431.53847 C 81.777084,431.55707 81.790881,431.59441 81.790444,431.64398 C 81.824699,431.9374 81.279751,432.55175 80.653533,432.96184 C 77.853958,434.79519 74.665384,439.57138 72.977749,444.30827 C 72.089458,446.89009 69.969282,450.80239 68.030641,453.38779 C 67.14136,454.60177 66.198739,456.05961 65.9497,456.6438 C 65.700648,457.22796 64.590212,458.42955 63.483774,459.31194 C 60.582522,461.63298 61.079392,460.30556 64.481406,456.49873 C 66.909021,453.85628 67.427005,452.94753 68.554261,449.525 C 69.292625,447.35721 69.85569,445.40333 69.796063,445.23191 C 69.773217,445.03628 70.148566,444.57441 70.664279,444.23669 C 71.143131,443.92306 71.941847,442.72227 72.403084,441.57801 C 72.888509,440.47068 74.237797,438.43486 75.348121,437.07617 C 77.706225,434.34766 81.311804,431.25912 81.748019,431.53847 z M 63.218788,424.15328 C 63.291975,424.27512 62.965272,424.50374 62.431076,424.76244 C 62.699397,424.53472 62.957109,424.33369 63.218788,424.15328 z M 60.830393,428.30391 C 60.456661,428.5792 60.135062,428.79023 59.9536,428.83812 C 59.48359,428.94116 59.375342,428.72683 59.502976,428.33324 C 59.932023,428.35063 60.377507,428.33754 60.830393,428.30391 z M 43.17864,429.34383 C 43.395745,429.67536 43.251983,429.93369 42.848085,430.04028 C 42.456908,430.08594 42.051511,430.02512 41.930901,429.84094 C 41.810267,429.65674 41.972887,429.34681 42.267557,429.1538 C 42.562261,428.96085 42.985659,429.04914 43.17864,429.34383 z M 45.109624,432.29249 C 45.3026,432.58718 45.214295,433.01056 44.919625,433.20358 C 44.624929,433.39656 44.201523,433.30824 44.008542,433.01355 C 43.815558,432.71887 43.903891,432.29551 44.198542,432.10246 C 44.493226,431.90948 44.916643,431.9978 45.109624,432.29249 z M 47.040609,435.24115 C 47.088863,435.31485 47.054315,435.59423 46.905688,435.84951 C 46.79387,436.08064 46.520554,436.05543 46.303443,435.7239 C 46.086326,435.39237 46.16638,435.12243 46.422932,435.11233 C 46.716313,435.07811 46.992368,435.16749 47.040609,435.24115 z M 54.120701,468.55011 C 54.168958,468.6238 54.066241,468.7991 53.845224,468.94383 C 53.66104,469.06445 53.357176,468.9926 53.212436,468.77158 C 53.091825,468.5874 53.228131,468.40338 53.484702,468.39331 C 53.778067,468.35905 54.048331,468.43959 54.120701,468.55011 z M 17.309865,417.97866 C 17.327056,417.99517 17.337574,418.02097 17.35265,418.04399 C 17.497391,418.26501 17.478621,418.54814 17.257604,418.69288 C 17.073422,418.8135 16.834825,418.86167 16.786584,418.78801 C 16.714214,418.6775 16.77915,418.36413 16.890961,418.13301 C 17.021035,417.90968 17.18961,417.86315 17.309865,417.97866 z M 16.418951,419.8554 C 16.452115,419.90604 16.396881,420.07294 16.266029,420.39555 C 16.091966,420.77274 15.688613,421.29365 15.393923,421.48663 C 14.915068,421.80026 14.893851,421.76786 15.155615,421.12273 C 15.329694,420.74557 15.726907,420.21529 16.0216,420.0223 C 16.261038,419.86551 16.385787,419.80476 16.418951,419.8554 z"
         style="fill:#8c8c8c;fill-opacity:1" />
      <path
         sodipodi:nodetypes="csccscc"
         id="path3457"
         d="M 112.05042,378.9587 C 102.18422,370.87801 95.197022,371.67462 89.134508,374.82141 C 84.492549,377.23086 79.110786,382.31151 79.110786,382.31151 L 84.185948,378.75768 C 84.185948,378.75768 93.349216,372.18899 100.21279,374.72132 C 107.07636,377.25366 110.6432,381.18154 110.6432,381.18154 L 112.05042,378.9587 z"
         style="fill:#8c8c8c;fill-opacity:1;fill-rule:evenodd;stroke:none;stroke-width:0.25000000000000000pt;stroke-linecap:butt;stroke-linejoin:miter;stroke-opacity:1" />
      <path
         sodipodi:nodetypes="csssssccccc"
         id="path3459"
         d="M 61.154689,410.13694 C 57.392473,412.34044 55.935312,413.29469 54.855286,412.44037 C 53.775311,411.58606 52.814615,410.9139 54.083214,410.86391 C 55.351784,410.81394 56.238379,410.14817 55.761255,409.41959 C 55.284131,408.69101 55.195408,407.7932 54.221818,408.69103 C 53.248227,409.58886 51.894037,410.45349 52.563159,412.1196 C 53.52365,414.51118 56.191435,414.03155 56.191435,414.03155 L 61.295813,411.89633 L 63.698304,409.25199 L 66.129086,407.39989 L 61.154689,410.13694 z"
         style="fill:#8c8c8c;fill-opacity:1;fill-rule:evenodd;stroke:none;stroke-width:0.25000000000000000pt;stroke-linecap:butt;stroke-linejoin:miter;stroke-opacity:1" />
      <path
         id="path3241"
         d="M 172.41674,344.88406 C 171.39724,344.96809 170.59666,346.06089 170.85424,347.22781 C 170.99502,347.92505 170.62841,348.81187 169.66674,349.91531 C 168.30997,351.54065 168.19717,351.54715 166.97924,351.13406 C 165.7982,350.69693 165.72993,350.74961 165.69799,351.66531 C 165.58712,353.26427 164.23178,353.26516 163.57299,351.69656 C 163.24923,350.96108 162.99671,350.06232 163.07299,349.69656 C 163.08835,349.31811 162.51091,348.33348 161.76049,347.50906 C 160.32062,345.87297 159.20142,345.70176 158.60424,347.04031 C 158.31837,347.64862 158.72813,348.49301 160.41674,351.07156 C 162.56367,354.35 162.56631,354.3603 161.57299,354.85281 C 161.0332,355.15373 160.42354,355.20752 160.22924,355.07156 C 159.68322,354.63963 159.1177,355.18873 159.07299,356.16531 C 159.04235,356.64592 158.45773,357.30828 157.66674,357.91531 C 156.5901,357.66505 155.57466,358.22606 155.26049,359.22781 C 154.92607,359.34673 154.60509,359.45157 154.32299,359.47781 C 153.28408,359.57925 153.06197,359.73088 152.82299,360.57156 C 152.52052,361.71712 147.09008,365.20396 128.72924,376.22781 C 125.43285,378.21622 121.78849,380.44513 118.13549,382.66531 L 116.35424,383.63406 L 111.47924,380.13406 L 112.29174,378.82156 C 102.42555,370.74084 95.448004,371.54977 89.385493,374.69656 C 84.743523,377.10602 79.354243,382.16531 79.354243,382.16531 C 78.352183,383.03094 76.748173,384.44525 75.666743,385.50906 C 74.167893,386.98348 72.416733,387.63406 72.416743,387.63406 L 70.885493,388.13406 C 70.885483,388.13406 71.039133,388.77891 71.291743,389.35281 C 71.544363,389.92671 72.457513,391.6681 72.760493,393.07156 C 73.063473,394.475 71.591133,396.55001 69.916743,398.50906 C 68.242343,400.46809 64.386283,401.7664 60.166743,403.79031 L 60.010493,404.10281 C 58.216203,404.67075 55.329663,405.25896 53.447993,405.38406 L 52.572993,405.38406 C 49.935193,405.23418 47.030523,403.68339 46.447993,402.00906 C 46.220753,401.421 45.775573,400.70566 45.447993,400.44656 C 44.926063,400.05145 44.755263,400.16526 44.541743,400.88406 C 44.127423,402.26074 40.790233,403.8944 36.385493,404.88406 C 25.924953,407.1552 18.644383,412.0358 15.166743,419.10281 C 14.508563,420.42858 13.307813,422.36592 12.541743,423.44656 C 10.726313,425.89863 10.041053,429.43239 10.760493,432.54031 C 12.624503,440.5306 13.348333,442.62044 16.572993,448.50906 C 19.784933,454.45863 19.874083,453.7343 21.072993,455.47781 C 24.736163,459.86596 25.990363,460.99182 27.885493,462.54031 C 32.683453,466.26285 32.272733,465.6643 35.322993,467.50906 C 37.947823,469.10606 42.668843,470.50852 43.479243,469.97781 C 43.700243,469.8331 43.543673,469.72459 43.104243,469.69656 C 42.688933,469.70536 42.341803,469.52863 42.416743,469.32156 C 42.430773,469.10188 43.020313,469.03106 43.666743,469.13406 C 44.946873,469.40103 46.086283,469.35362 50.229243,469.00906 C 52.368013,468.81898 53.016333,468.93582 52.572993,469.38406 C 51.538973,470.37699 56.567713,468.76491 59.572993,467.16531 C 63.228583,465.19241 66.976653,461.40748 70.166743,456.63406 C 72.886763,452.58954 74.168773,451.48778 76.416743,451.38406 C 77.760473,451.34627 77.935643,451.21215 77.916743,450.54031 C 77.907953,450.12499 77.447443,449.13195 76.916743,448.32156 C 75.046583,445.54616 75.188073,442.78298 77.354243,439.25906 C 80.001933,435.1041 87.124783,429.53929 91.666743,428.19656 C 94.384803,427.36396 96.355864,428.07784 97.947994,430.50906 C 98.647554,431.5773 99.110904,431.93782 99.479244,431.69656 C 99.773924,431.50355 99.688884,431.08144 99.229244,430.54031 C 99.131954,430.41024 99.078114,430.25263 99.010494,430.10281 C 99.321554,430.40045 99.604244,430.66531 99.604244,430.66531 L 100.66674,429.47781 C 100.66674,429.47779 101.99734,428.1061 103.94799,427.32156 C 105.89865,426.53699 109.63549,424.69656 109.63549,424.69656 L 119.41674,418.57156 L 120.38549,417.22781 C 120.42799,417.22261 120.45994,417.20677 120.51049,417.19656 C 121.42108,416.99997 123.03884,414.48213 124.07299,411.97781 L 125.29174,410.25906 L 125.07299,408.54031 C 125.69158,404.75884 125.30035,400.61831 123.91674,396.29031 C 125.07328,395.4405 125.19407,395.13629 124.79174,395.04031 C 124.54759,395.01212 123.84484,394.55008 123.07299,393.91531 C 122.65736,392.78252 122.39697,391.59103 122.47924,391.19656 C 122.60765,390.42819 140.24729,377.63905 153.16674,368.91531 C 155.57384,367.28638 157.81565,365.59508 158.19799,365.13406 C 158.39157,364.92459 158.63912,364.63809 158.88549,364.35281 C 159.04537,364.49406 159.23188,364.65733 159.38549,364.82156 C 160.34159,365.87969 160.72339,366.08229 161.16674,365.63406 C 161.56053,365.2709 161.47027,364.67131 160.91674,363.66531 C 160.82923,363.50089 160.76334,363.32786 160.69799,363.16531 C 160.91582,362.82742 161.21652,362.47841 161.54174,362.22781 C 162.25433,361.7085 162.46333,361.81457 163.57299,363.50906 C 164.51381,364.94567 164.71803,365.76595 164.57299,367.07156 C 164.3249,369.02353 165.371,370.35475 167.32299,370.60281 C 168.61588,370.80886 170.17873,369.62143 170.66674,368.19656 C 171.00609,367.02697 169.20101,364.57078 167.97924,364.63406 C 167.18547,364.62752 166.66018,364.24145 165.79174,362.91531 C 164.68207,361.22084 164.69786,361.12207 165.72924,360.44656 C 166.46596,359.96414 166.96292,359.93359 167.44799,360.35281 C 168.33307,361.14173 169.06734,360.66692 168.69799,359.54031 C 168.25756,358.14443 169.31006,358.23297 170.38549,359.63406 C 171.03812,360.46987 171.35639,361.27448 171.22924,361.88406 C 171.00042,362.98137 171.72721,364.23379 173.13549,365.25906 C 173.93675,365.83962 174.35407,365.84076 175.38549,365.16531 C 176.30642,364.56221 176.65439,364.02465 176.63549,363.35281 C 176.48851,361.92271 174.94877,359.84055 173.94799,359.75906 C 173.36254,359.66879 172.83538,359.15452 172.35424,358.25906 C 171.62042,356.89735 171.59525,356.83934 173.10424,356.00906 C 174.25755,355.35903 175.06824,355.27637 176.32299,355.66531 C 178.21141,356.21818 179.61913,355.47599 179.44799,354.00906 C 179.44052,353.43501 179.49564,352.46086 179.63549,351.79031 C 179.76266,351.18075 179.78023,350.48008 179.63549,350.25906 C 179.51489,350.07488 179.75306,349.56368 180.13549,349.10281 C 180.70202,348.52123 180.71468,347.97669 180.19799,346.94656 C 180.00566,346.57254 179.81193,346.23721 179.63549,345.97781 C 179.45897,345.71837 179.27733,345.54091 179.19799,345.54031 C 179.05192,345.47802 178.55742,345.73381 178.04174,346.07156 C 177.48917,346.43342 176.90334,346.41555 176.47924,346.00906 C 175.7275,345.3434 174.74191,345.72691 174.97924,346.57156 C 175.05029,346.84077 174.828,347.10543 174.51049,347.10281 C 173.704,347.15724 172.7961,345.80127 173.38549,345.41531 C 173.68019,345.22232 173.50069,345.01833 172.85424,344.91531 C 172.70184,344.88353 172.56238,344.87206 172.41674,344.88406 z M 53.729243,468.25906 C 54.022603,468.22481 54.281873,468.30479 54.354243,468.41531 C 54.402513,468.48901 54.294013,468.67683 54.072993,468.82156 C 53.888823,468.94217 53.592733,468.85508 53.447993,468.63406 C 53.327393,468.44986 53.472673,468.26913 53.729243,468.25906 z"
         style="fill:none;fill-opacity:1;fill-rule:evenodd;stroke:#4e4e4e;stroke-width:0.625;stroke-linecap:butt;stroke-linejoin:miter;marker:none;marker-start:none;marker-mid:none;marker-end:none;stroke-miterlimit:4;stroke-dasharray:none;stroke-dashoffset:0;stroke-opacity:1;visibility:visible;display:inline;overflow:visible;enable-background:accumulate" />
    </g>
    <g
       id="g3942"
       transform="translate(-326.31401,-11.806649)">
      <path
         transform="matrix(0.9494041,0.3140572,-0.3140572,0.9494041,439.16878,-35.67397)"
         d="M 59.703341,505.5892 A 2.1322622,2.1322622 0 1 1 55.438817,505.5892 A 2.1322622,2.1322622 0 1 1 59.703341,505.5892 z"
         sodipodi:ry="2.1322622"
         sodipodi:rx="2.1322622"
         sodipodi:cy="505.5892"
         sodipodi:cx="57.571079"
         id="path3826"
         style="fill:#000000;fill-opacity:1;fill-rule:evenodd;stroke:none;stroke-width:1pt;stroke-linecap:butt;stroke-linejoin:miter;marker:none;marker-start:none;marker-mid:none;marker-end:none;stroke-miterlimit:4;stroke-dasharray:none;stroke-dashoffset:0;stroke-opacity:1;visibility:visible;display:inline;overflow:visible;enable-background:accumulate"
         sodipodi:type="arc" />
      <path
         transform="matrix(0.9494041,0.3140572,-0.3140572,0.9494041,453.69716,-30.868069)"
         d="M 59.703341,505.5892 A 2.1322622,2.1322622 0 1 1 55.438817,505.5892 A 2.1322622,2.1322622 0 1 1 59.703341,505.5892 z"
         sodipodi:ry="2.1322622"
         sodipodi:rx="2.1322622"
         sodipodi:cy="505.5892"
         sodipodi:cx="57.571079"
         id="path3828"
         style="fill:#000000;fill-opacity:1;fill-rule:evenodd;stroke:none;stroke-width:1pt;stroke-linecap:butt;stroke-linejoin:miter;marker:none;marker-start:none;marker-mid:none;marker-end:none;stroke-miterlimit:4;stroke-dasharray:none;stroke-dashoffset:0;stroke-opacity:1;visibility:visible;display:inline;overflow:visible;enable-background:accumulate"
         sodipodi:type="arc" />
      <path
         transform="matrix(0.9494041,0.3140572,-0.3140572,0.9494041,468.22552,-26.062169)"
         d="M 59.703341,505.5892 A 2.1322622,2.1322622 0 1 1 55.438817,505.5892 A 2.1322622,2.1322622 0 1 1 59.703341,505.5892 z"
         sodipodi:ry="2.1322622"
         sodipodi:rx="2.1322622"
         sodipodi:cy="505.5892"
         sodipodi:cx="57.571079"
         id="path3830"
         style="fill:#000000;fill-opacity:1;fill-rule:evenodd;stroke:none;stroke-width:1pt;stroke-linecap:butt;stroke-linejoin:miter;marker:none;marker-start:none;marker-mid:none;marker-end:none;stroke-miterlimit:4;stroke-dasharray:none;stroke-dashoffset:0;stroke-opacity:1;visibility:visible;display:inline;overflow:visible;enable-background:accumulate"
         sodipodi:type="arc" />
      <path
         transform="matrix(0.9494041,0.3140572,-0.3140572,0.9494041,482.75392,-21.256269)"
         d="M 59.703341,505.5892 A 2.1322622,2.1322622 0 1 1 55.438817,505.5892 A 2.1322622,2.1322622 0 1 1 59.703341,505.5892 z"
         sodipodi:ry="2.1322622"
         sodipodi:rx="2.1322622"
         sodipodi:cy="505.5892"
         sodipodi:cx="57.571079"
         id="path3832"
         style="fill:#000000;fill-opacity:1;fill-rule:evenodd;stroke:none;stroke-width:1pt;stroke-linecap:butt;stroke-linejoin:miter;marker:none;marker-start:none;marker-mid:none;marker-end:none;stroke-miterlimit:4;stroke-dasharray:none;stroke-dashoffset:0;stroke-opacity:1;visibility:visible;display:inline;overflow:visible;enable-background:accumulate"
         sodipodi:type="arc" />
      <path
         transform="matrix(0.9494041,0.3140572,-0.3140572,0.9494041,497.28227,-16.450369)"
         d="M 59.703341,505.5892 A 2.1322622,2.1322622 0 1 1 55.438817,505.5892 A 2.1322622,2.1322622 0 1 1 59.703341,505.5892 z"
         sodipodi:ry="2.1322622"
         sodipodi:rx="2.1322622"
         sodipodi:cy="505.5892"
         sodipodi:cx="57.571079"
         id="path3834"
         style="fill:#000000;fill-opacity:1;fill-rule:evenodd;stroke:none;stroke-width:1pt;stroke-linecap:butt;stroke-linejoin:miter;marker:none;marker-start:none;marker-mid:none;marker-end:none;stroke-miterlimit:4;stroke-dasharray:none;stroke-dashoffset:0;stroke-opacity:1;visibility:visible;display:inline;overflow:visible;enable-background:accumulate"
         sodipodi:type="arc" />
      <path
         transform="matrix(0.9494041,0.3140572,-0.3140572,0.9494041,511.77637,-11.707379)"
         d="M 59.703341,505.5892 A 2.1322622,2.1322622 0 1 1 55.438817,505.5892 A 2.1322622,2.1322622 0 1 1 59.703341,505.5892 z"
         sodipodi:ry="2.1322622"
         sodipodi:rx="2.1322622"
         sodipodi:cy="505.5892"
         sodipodi:cx="57.571079"
         id="path3836"
         style="fill:#000000;fill-opacity:1;fill-rule:evenodd;stroke:none;stroke-width:1pt;stroke-linecap:butt;stroke-linejoin:miter;marker:none;marker-start:none;marker-mid:none;marker-end:none;stroke-miterlimit:4;stroke-dasharray:none;stroke-dashoffset:0;stroke-opacity:1;visibility:visible;display:inline;overflow:visible;enable-background:accumulate"
         sodipodi:type="arc" />
      <path
         transform="matrix(0.9494041,0.3140572,-0.3140572,0.9494041,443.17263,-64.08148)"
         d="M 59.703341,505.5892 A 2.1322622,2.1322622 0 1 1 55.438817,505.5892 A 2.1322622,2.1322622 0 1 1 59.703341,505.5892 z"
         sodipodi:ry="2.1322622"
         sodipodi:rx="2.1322622"
         sodipodi:cy="505.5892"
         sodipodi:cx="57.571079"
         id="path3838"
         style="fill:#000000;fill-opacity:1;fill-rule:evenodd;stroke:none;stroke-width:1pt;stroke-linecap:butt;stroke-linejoin:miter;marker:none;marker-start:none;marker-mid:none;marker-end:none;stroke-miterlimit:4;stroke-dasharray:none;stroke-dashoffset:0;stroke-opacity:1;visibility:visible;display:inline;overflow:visible;enable-background:accumulate"
         sodipodi:type="arc" />
      <path
         transform="matrix(0.9494041,0.3140572,-0.3140572,0.9494041,457.701,-59.27559)"
         d="M 59.703341,505.5892 A 2.1322622,2.1322622 0 1 1 55.438817,505.5892 A 2.1322622,2.1322622 0 1 1 59.703341,505.5892 z"
         sodipodi:ry="2.1322622"
         sodipodi:rx="2.1322622"
         sodipodi:cy="505.5892"
         sodipodi:cx="57.571079"
         id="path3840"
         style="fill:#000000;fill-opacity:1;fill-rule:evenodd;stroke:none;stroke-width:1pt;stroke-linecap:butt;stroke-linejoin:miter;marker:none;marker-start:none;marker-mid:none;marker-end:none;stroke-miterlimit:4;stroke-dasharray:none;stroke-dashoffset:0;stroke-opacity:1;visibility:visible;display:inline;overflow:visible;enable-background:accumulate"
         sodipodi:type="arc" />
      <path
         transform="matrix(0.9494041,0.3140572,-0.3140572,0.9494041,472.22938,-54.46969)"
         d="M 59.703341,505.5892 A 2.1322622,2.1322622 0 1 1 55.438817,505.5892 A 2.1322622,2.1322622 0 1 1 59.703341,505.5892 z"
         sodipodi:ry="2.1322622"
         sodipodi:rx="2.1322622"
         sodipodi:cy="505.5892"
         sodipodi:cx="57.571079"
         id="path3842"
         style="fill:#000000;fill-opacity:1;fill-rule:evenodd;stroke:none;stroke-width:1pt;stroke-linecap:butt;stroke-linejoin:miter;marker:none;marker-start:none;marker-mid:none;marker-end:none;stroke-miterlimit:4;stroke-dasharray:none;stroke-dashoffset:0;stroke-opacity:1;visibility:visible;display:inline;overflow:visible;enable-background:accumulate"
         sodipodi:type="arc" />
      <path
         transform="matrix(0.9494041,0.3140572,-0.3140572,0.9494041,486.75774,-49.66379)"
         d="M 59.703341,505.5892 A 2.1322622,2.1322622 0 1 1 55.438817,505.5892 A 2.1322622,2.1322622 0 1 1 59.703341,505.5892 z"
         sodipodi:ry="2.1322622"
         sodipodi:rx="2.1322622"
         sodipodi:cy="505.5892"
         sodipodi:cx="57.571079"
         id="path3844"
         style="fill:#000000;fill-opacity:1;fill-rule:evenodd;stroke:none;stroke-width:1pt;stroke-linecap:butt;stroke-linejoin:miter;marker:none;marker-start:none;marker-mid:none;marker-end:none;stroke-miterlimit:4;stroke-dasharray:none;stroke-dashoffset:0;stroke-opacity:1;visibility:visible;display:inline;overflow:visible;enable-background:accumulate"
         sodipodi:type="arc" />
      <path
         transform="matrix(0.9494041,0.3140572,-0.3140572,0.9494041,501.28614,-44.85788)"
         d="M 59.703341,505.5892 A 2.1322622,2.1322622 0 1 1 55.438817,505.5892 A 2.1322622,2.1322622 0 1 1 59.703341,505.5892 z"
         sodipodi:ry="2.1322622"
         sodipodi:rx="2.1322622"
         sodipodi:cy="505.5892"
         sodipodi:cx="57.571079"
         id="path3846"
         style="fill:#000000;fill-opacity:1;fill-rule:evenodd;stroke:none;stroke-width:1pt;stroke-linecap:butt;stroke-linejoin:miter;marker:none;marker-start:none;marker-mid:none;marker-end:none;stroke-miterlimit:4;stroke-dasharray:none;stroke-dashoffset:0;stroke-opacity:1;visibility:visible;display:inline;overflow:visible;enable-background:accumulate"
         sodipodi:type="arc" />
      <path
         transform="matrix(0.9494041,0.3140572,-0.3140572,0.9494041,515.81449,-40.05199)"
         d="M 59.703341,505.5892 A 2.1322622,2.1322622 0 1 1 55.438817,505.5892 A 2.1322622,2.1322622 0 1 1 59.703341,505.5892 z"
         sodipodi:ry="2.1322622"
         sodipodi:rx="2.1322622"
         sodipodi:cy="505.5892"
         sodipodi:cx="57.571079"
         id="path3848"
         style="fill:#000000;fill-opacity:1;fill-rule:evenodd;stroke:none;stroke-width:1pt;stroke-linecap:butt;stroke-linejoin:miter;marker:none;marker-start:none;marker-mid:none;marker-end:none;stroke-miterlimit:4;stroke-dasharray:none;stroke-dashoffset:0;stroke-opacity:1;visibility:visible;display:inline;overflow:visible;enable-background:accumulate"
         sodipodi:type="arc" />
      <path
         transform="matrix(0.9494041,0.3140572,-0.3140572,0.9494041,530.30859,-35.309)"
         d="M 59.703341,505.5892 A 2.1322622,2.1322622 0 1 1 55.438817,505.5892 A 2.1322622,2.1322622 0 1 1 59.703341,505.5892 z"
         sodipodi:ry="2.1322622"
         sodipodi:rx="2.1322622"
         sodipodi:cy="505.5892"
         sodipodi:cx="57.571079"
         id="path3850"
         style="fill:#000000;fill-opacity:1;fill-rule:evenodd;stroke:none;stroke-width:1pt;stroke-linecap:butt;stroke-linejoin:miter;marker:none;marker-start:none;marker-mid:none;marker-end:none;stroke-miterlimit:4;stroke-dasharray:none;stroke-dashoffset:0;stroke-opacity:1;visibility:visible;display:inline;overflow:visible;enable-background:accumulate"
         sodipodi:type="arc" />
      <path
         transform="matrix(0.9494041,0.3140572,-0.3140572,0.9494041,544.83698,-30.503099)"
         d="M 59.703341,505.5892 A 2.1322622,2.1322622 0 1 1 55.438817,505.5892 A 2.1322622,2.1322622 0 1 1 59.703341,505.5892 z"
         sodipodi:ry="2.1322622"
         sodipodi:rx="2.1322622"
         sodipodi:cy="505.5892"
         sodipodi:cx="57.571079"
         id="path3852"
         style="fill:#000000;fill-opacity:1;fill-rule:evenodd;stroke:none;stroke-width:1pt;stroke-linecap:butt;stroke-linejoin:miter;marker:none;marker-start:none;marker-mid:none;marker-end:none;stroke-miterlimit:4;stroke-dasharray:none;stroke-dashoffset:0;stroke-opacity:1;visibility:visible;display:inline;overflow:visible;enable-background:accumulate"
         sodipodi:type="arc" />
      <path
         transform="matrix(0.9494041,0.3140572,-0.3140572,0.9494041,559.36534,-25.697199)"
         d="M 59.703341,505.5892 A 2.1322622,2.1322622 0 1 1 55.438817,505.5892 A 2.1322622,2.1322622 0 1 1 59.703341,505.5892 z"
         sodipodi:ry="2.1322622"
         sodipodi:rx="2.1322622"
         sodipodi:cy="505.5892"
         sodipodi:cx="57.571079"
         id="path3854"
         style="fill:#000000;fill-opacity:1;fill-rule:evenodd;stroke:none;stroke-width:1pt;stroke-linecap:butt;stroke-linejoin:miter;marker:none;marker-start:none;marker-mid:none;marker-end:none;stroke-miterlimit:4;stroke-dasharray:none;stroke-dashoffset:0;stroke-opacity:1;visibility:visible;display:inline;overflow:visible;enable-background:accumulate"
         sodipodi:type="arc" />
      <path
         transform="matrix(0.9494041,0.3140572,-0.3140572,0.9494041,573.8937,-20.891309)"
         d="M 59.703341,505.5892 A 2.1322622,2.1322622 0 1 1 55.438817,505.5892 A 2.1322622,2.1322622 0 1 1 59.703341,505.5892 z"
         sodipodi:ry="2.1322622"
         sodipodi:rx="2.1322622"
         sodipodi:cy="505.5892"
         sodipodi:cx="57.571079"
         id="path3856"
         style="fill:#000000;fill-opacity:1;fill-rule:evenodd;stroke:none;stroke-width:1pt;stroke-linecap:butt;stroke-linejoin:miter;marker:none;marker-start:none;marker-mid:none;marker-end:none;stroke-miterlimit:4;stroke-dasharray:none;stroke-dashoffset:0;stroke-opacity:1;visibility:visible;display:inline;overflow:visible;enable-background:accumulate"
         sodipodi:type="arc" />
      <path
         transform="matrix(0.9494041,0.3140572,-0.3140572,0.9494041,588.42208,-16.085409)"
         d="M 59.703341,505.5892 A 2.1322622,2.1322622 0 1 1 55.438817,505.5892 A 2.1322622,2.1322622 0 1 1 59.703341,505.5892 z"
         sodipodi:ry="2.1322622"
         sodipodi:rx="2.1322622"
         sodipodi:cy="505.5892"
         sodipodi:cx="57.571079"
         id="path3858"
         style="fill:#000000;fill-opacity:1;fill-rule:evenodd;stroke:none;stroke-width:1pt;stroke-linecap:butt;stroke-linejoin:miter;marker:none;marker-start:none;marker-mid:none;marker-end:none;stroke-miterlimit:4;stroke-dasharray:none;stroke-dashoffset:0;stroke-opacity:1;visibility:visible;display:inline;overflow:visible;enable-background:accumulate"
         sodipodi:type="arc" />
      <path
         transform="matrix(0.9494041,0.3140572,-0.3140572,0.9494041,602.95044,-11.27951)"
         d="M 59.703341,505.5892 A 2.1322622,2.1322622 0 1 1 55.438817,505.5892 A 2.1322622,2.1322622 0 1 1 59.703341,505.5892 z"
         sodipodi:ry="2.1322622"
         sodipodi:rx="2.1322622"
         sodipodi:cy="505.5892"
         sodipodi:cx="57.571079"
         id="path3860"
         style="fill:#000000;fill-opacity:1;fill-rule:evenodd;stroke:none;stroke-width:1pt;stroke-linecap:butt;stroke-linejoin:miter;marker:none;marker-start:none;marker-mid:none;marker-end:none;stroke-miterlimit:4;stroke-dasharray:none;stroke-dashoffset:0;stroke-opacity:1;visibility:visible;display:inline;overflow:visible;enable-background:accumulate"
         sodipodi:type="arc" />
      <path
         transform="matrix(0.9494041,0.3140572,-0.3140572,0.9494041,447.17647,-92.48898)"
         d="M 59.703341,505.5892 A 2.1322622,2.1322622 0 1 1 55.438817,505.5892 A 2.1322622,2.1322622 0 1 1 59.703341,505.5892 z"
         sodipodi:ry="2.1322622"
         sodipodi:rx="2.1322622"
         sodipodi:cy="505.5892"
         sodipodi:cx="57.571079"
         id="path3862"
         style="fill:#000000;fill-opacity:1;fill-rule:evenodd;stroke:none;stroke-width:1pt;stroke-linecap:butt;stroke-linejoin:miter;marker:none;marker-start:none;marker-mid:none;marker-end:none;stroke-miterlimit:4;stroke-dasharray:none;stroke-dashoffset:0;stroke-opacity:1;visibility:visible;display:inline;overflow:visible;enable-background:accumulate"
         sodipodi:type="arc" />
      <path
         transform="matrix(0.9494041,0.3140572,-0.3140572,0.9494041,461.70483,-87.68309)"
         d="M 59.703341,505.5892 A 2.1322622,2.1322622 0 1 1 55.438817,505.5892 A 2.1322622,2.1322622 0 1 1 59.703341,505.5892 z"
         sodipodi:ry="2.1322622"
         sodipodi:rx="2.1322622"
         sodipodi:cy="505.5892"
         sodipodi:cx="57.571079"
         id="path3864"
         style="fill:#000000;fill-opacity:1;fill-rule:evenodd;stroke:none;stroke-width:1pt;stroke-linecap:butt;stroke-linejoin:miter;marker:none;marker-start:none;marker-mid:none;marker-end:none;stroke-miterlimit:4;stroke-dasharray:none;stroke-dashoffset:0;stroke-opacity:1;visibility:visible;display:inline;overflow:visible;enable-background:accumulate"
         sodipodi:type="arc" />
      <path
         transform="matrix(0.9494041,0.3140572,-0.3140572,0.9494041,476.2332,-82.87719)"
         d="M 59.703341,505.5892 A 2.1322622,2.1322622 0 1 1 55.438817,505.5892 A 2.1322622,2.1322622 0 1 1 59.703341,505.5892 z"
         sodipodi:ry="2.1322622"
         sodipodi:rx="2.1322622"
         sodipodi:cy="505.5892"
         sodipodi:cx="57.571079"
         id="path3866"
         style="fill:#000000;fill-opacity:1;fill-rule:evenodd;stroke:none;stroke-width:1pt;stroke-linecap:butt;stroke-linejoin:miter;marker:none;marker-start:none;marker-mid:none;marker-end:none;stroke-miterlimit:4;stroke-dasharray:none;stroke-dashoffset:0;stroke-opacity:1;visibility:visible;display:inline;overflow:visible;enable-background:accumulate"
         sodipodi:type="arc" />
      <path
         transform="matrix(0.9494041,0.3140572,-0.3140572,0.9494041,490.76158,-78.07129)"
         d="M 59.703341,505.5892 A 2.1322622,2.1322622 0 1 1 55.438817,505.5892 A 2.1322622,2.1322622 0 1 1 59.703341,505.5892 z"
         sodipodi:ry="2.1322622"
         sodipodi:rx="2.1322622"
         sodipodi:cy="505.5892"
         sodipodi:cx="57.571079"
         id="path3868"
         style="fill:#000000;fill-opacity:1;fill-rule:evenodd;stroke:none;stroke-width:1pt;stroke-linecap:butt;stroke-linejoin:miter;marker:none;marker-start:none;marker-mid:none;marker-end:none;stroke-miterlimit:4;stroke-dasharray:none;stroke-dashoffset:0;stroke-opacity:1;visibility:visible;display:inline;overflow:visible;enable-background:accumulate"
         sodipodi:type="arc" />
      <path
         transform="matrix(0.9494041,0.3140572,-0.3140572,0.9494041,505.28994,-73.2654)"
         d="M 59.703341,505.5892 A 2.1322622,2.1322622 0 1 1 55.438817,505.5892 A 2.1322622,2.1322622 0 1 1 59.703341,505.5892 z"
         sodipodi:ry="2.1322622"
         sodipodi:rx="2.1322622"
         sodipodi:cy="505.5892"
         sodipodi:cx="57.571079"
         id="path3870"
         style="fill:#000000;fill-opacity:1;fill-rule:evenodd;stroke:none;stroke-width:1pt;stroke-linecap:butt;stroke-linejoin:miter;marker:none;marker-start:none;marker-mid:none;marker-end:none;stroke-miterlimit:4;stroke-dasharray:none;stroke-dashoffset:0;stroke-opacity:1;visibility:visible;display:inline;overflow:visible;enable-background:accumulate"
         sodipodi:type="arc" />
      <path
         transform="matrix(0.9494041,0.3140572,-0.3140572,0.9494041,519.81833,-68.45949)"
         d="M 59.703341,505.5892 A 2.1322622,2.1322622 0 1 1 55.438817,505.5892 A 2.1322622,2.1322622 0 1 1 59.703341,505.5892 z"
         sodipodi:ry="2.1322622"
         sodipodi:rx="2.1322622"
         sodipodi:cy="505.5892"
         sodipodi:cx="57.571079"
         id="path3872"
         style="fill:#000000;fill-opacity:1;fill-rule:evenodd;stroke:none;stroke-width:1pt;stroke-linecap:butt;stroke-linejoin:miter;marker:none;marker-start:none;marker-mid:none;marker-end:none;stroke-miterlimit:4;stroke-dasharray:none;stroke-dashoffset:0;stroke-opacity:1;visibility:visible;display:inline;overflow:visible;enable-background:accumulate"
         sodipodi:type="arc" />
      <path
         transform="matrix(0.9494041,0.3140572,-0.3140572,0.9494041,534.34669,-63.6536)"
         d="M 59.703341,505.5892 A 2.1322622,2.1322622 0 1 1 55.438817,505.5892 A 2.1322622,2.1322622 0 1 1 59.703341,505.5892 z"
         sodipodi:ry="2.1322622"
         sodipodi:rx="2.1322622"
         sodipodi:cy="505.5892"
         sodipodi:cx="57.571079"
         id="path3874"
         style="fill:#000000;fill-opacity:1;fill-rule:evenodd;stroke:none;stroke-width:1pt;stroke-linecap:butt;stroke-linejoin:miter;marker:none;marker-start:none;marker-mid:none;marker-end:none;stroke-miterlimit:4;stroke-dasharray:none;stroke-dashoffset:0;stroke-opacity:1;visibility:visible;display:inline;overflow:visible;enable-background:accumulate"
         sodipodi:type="arc" />
      <path
         transform="matrix(0.9494041,0.3140572,-0.3140572,0.9494041,548.84079,-58.91061)"
         d="M 59.703341,505.5892 A 2.1322622,2.1322622 0 1 1 55.438817,505.5892 A 2.1322622,2.1322622 0 1 1 59.703341,505.5892 z"
         sodipodi:ry="2.1322622"
         sodipodi:rx="2.1322622"
         sodipodi:cy="505.5892"
         sodipodi:cx="57.571079"
         id="path3876"
         style="fill:#000000;fill-opacity:1;fill-rule:evenodd;stroke:none;stroke-width:1pt;stroke-linecap:butt;stroke-linejoin:miter;marker:none;marker-start:none;marker-mid:none;marker-end:none;stroke-miterlimit:4;stroke-dasharray:none;stroke-dashoffset:0;stroke-opacity:1;visibility:visible;display:inline;overflow:visible;enable-background:accumulate"
         sodipodi:type="arc" />
      <path
         transform="matrix(0.9494041,0.3140572,-0.3140572,0.9494041,563.36918,-54.1047)"
         d="M 59.703341,505.5892 A 2.1322622,2.1322622 0 1 1 55.438817,505.5892 A 2.1322622,2.1322622 0 1 1 59.703341,505.5892 z"
         sodipodi:ry="2.1322622"
         sodipodi:rx="2.1322622"
         sodipodi:cy="505.5892"
         sodipodi:cx="57.571079"
         id="path3878"
         style="fill:#000000;fill-opacity:1;fill-rule:evenodd;stroke:none;stroke-width:1pt;stroke-linecap:butt;stroke-linejoin:miter;marker:none;marker-start:none;marker-mid:none;marker-end:none;stroke-miterlimit:4;stroke-dasharray:none;stroke-dashoffset:0;stroke-opacity:1;visibility:visible;display:inline;overflow:visible;enable-background:accumulate"
         sodipodi:type="arc" />
      <path
         transform="matrix(0.9494041,0.3140572,-0.3140572,0.9494041,577.89754,-49.29881)"
         d="M 59.703341,505.5892 A 2.1322622,2.1322622 0 1 1 55.438817,505.5892 A 2.1322622,2.1322622 0 1 1 59.703341,505.5892 z"
         sodipodi:ry="2.1322622"
         sodipodi:rx="2.1322622"
         sodipodi:cy="505.5892"
         sodipodi:cx="57.571079"
         id="path3880"
         style="fill:#000000;fill-opacity:1;fill-rule:evenodd;stroke:none;stroke-width:1pt;stroke-linecap:butt;stroke-linejoin:miter;marker:none;marker-start:none;marker-mid:none;marker-end:none;stroke-miterlimit:4;stroke-dasharray:none;stroke-dashoffset:0;stroke-opacity:1;visibility:visible;display:inline;overflow:visible;enable-background:accumulate"
         sodipodi:type="arc" />
      <path
         transform="matrix(0.9494041,0.3140572,-0.3140572,0.9494041,592.4259,-44.49291)"
         d="M 59.703341,505.5892 A 2.1322622,2.1322622 0 1 1 55.438817,505.5892 A 2.1322622,2.1322622 0 1 1 59.703341,505.5892 z"
         sodipodi:ry="2.1322622"
         sodipodi:rx="2.1322622"
         sodipodi:cy="505.5892"
         sodipodi:cx="57.571079"
         id="path3882"
         style="fill:#000000;fill-opacity:1;fill-rule:evenodd;stroke:none;stroke-width:1pt;stroke-linecap:butt;stroke-linejoin:miter;marker:none;marker-start:none;marker-mid:none;marker-end:none;stroke-miterlimit:4;stroke-dasharray:none;stroke-dashoffset:0;stroke-opacity:1;visibility:visible;display:inline;overflow:visible;enable-background:accumulate"
         sodipodi:type="arc" />
      <path
         transform="matrix(0.9494041,0.3140572,-0.3140572,0.9494041,606.95428,-39.68701)"
         d="M 59.703341,505.5892 A 2.1322622,2.1322622 0 1 1 55.438817,505.5892 A 2.1322622,2.1322622 0 1 1 59.703341,505.5892 z"
         sodipodi:ry="2.1322622"
         sodipodi:rx="2.1322622"
         sodipodi:cy="505.5892"
         sodipodi:cx="57.571079"
         id="path3884"
         style="fill:#000000;fill-opacity:1;fill-rule:evenodd;stroke:none;stroke-width:1pt;stroke-linecap:butt;stroke-linejoin:miter;marker:none;marker-start:none;marker-mid:none;marker-end:none;stroke-miterlimit:4;stroke-dasharray:none;stroke-dashoffset:0;stroke-opacity:1;visibility:visible;display:inline;overflow:visible;enable-background:accumulate"
         sodipodi:type="arc" />
      <path
         transform="matrix(0.9494041,0.3140572,-0.3140572,0.9494041,436.65189,-125.70236)"
         d="M 59.703341,505.5892 A 2.1322622,2.1322622 0 1 1 55.438817,505.5892 A 2.1322622,2.1322622 0 1 1 59.703341,505.5892 z"
         sodipodi:ry="2.1322622"
         sodipodi:rx="2.1322622"
         sodipodi:cy="505.5892"
         sodipodi:cx="57.571079"
         id="path3886"
         style="fill:#000000;fill-opacity:1;fill-rule:evenodd;stroke:none;stroke-width:1pt;stroke-linecap:butt;stroke-linejoin:miter;marker:none;marker-start:none;marker-mid:none;marker-end:none;stroke-miterlimit:4;stroke-dasharray:none;stroke-dashoffset:0;stroke-opacity:1;visibility:visible;display:inline;overflow:visible;enable-background:accumulate"
         sodipodi:type="arc" />
      <path
         transform="matrix(0.9494041,0.3140572,-0.3140572,0.9494041,451.18026,-120.89647)"
         d="M 59.703341,505.5892 A 2.1322622,2.1322622 0 1 1 55.438817,505.5892 A 2.1322622,2.1322622 0 1 1 59.703341,505.5892 z"
         sodipodi:ry="2.1322622"
         sodipodi:rx="2.1322622"
         sodipodi:cy="505.5892"
         sodipodi:cx="57.571079"
         id="path3888"
         style="fill:#000000;fill-opacity:1;fill-rule:evenodd;stroke:none;stroke-width:1pt;stroke-linecap:butt;stroke-linejoin:miter;marker:none;marker-start:none;marker-mid:none;marker-end:none;stroke-miterlimit:4;stroke-dasharray:none;stroke-dashoffset:0;stroke-opacity:1;visibility:visible;display:inline;overflow:visible;enable-background:accumulate"
         sodipodi:type="arc" />
      <path
         transform="matrix(0.9494041,0.3140572,-0.3140572,0.9494041,465.70864,-116.09056)"
         d="M 59.703341,505.5892 A 2.1322622,2.1322622 0 1 1 55.438817,505.5892 A 2.1322622,2.1322622 0 1 1 59.703341,505.5892 z"
         sodipodi:ry="2.1322622"
         sodipodi:rx="2.1322622"
         sodipodi:cy="505.5892"
         sodipodi:cx="57.571079"
         id="path3890"
         style="fill:#000000;fill-opacity:1;fill-rule:evenodd;stroke:none;stroke-width:1pt;stroke-linecap:butt;stroke-linejoin:miter;marker:none;marker-start:none;marker-mid:none;marker-end:none;stroke-miterlimit:4;stroke-dasharray:none;stroke-dashoffset:0;stroke-opacity:1;visibility:visible;display:inline;overflow:visible;enable-background:accumulate"
         sodipodi:type="arc" />
      <path
         transform="matrix(0.9494041,0.3140572,-0.3140572,0.9494041,480.23701,-111.28467)"
         d="M 59.703341,505.5892 A 2.1322622,2.1322622 0 1 1 55.438817,505.5892 A 2.1322622,2.1322622 0 1 1 59.703341,505.5892 z"
         sodipodi:ry="2.1322622"
         sodipodi:rx="2.1322622"
         sodipodi:cy="505.5892"
         sodipodi:cx="57.571079"
         id="path3892"
         style="fill:#000000;fill-opacity:1;fill-rule:evenodd;stroke:none;stroke-width:1pt;stroke-linecap:butt;stroke-linejoin:miter;marker:none;marker-start:none;marker-mid:none;marker-end:none;stroke-miterlimit:4;stroke-dasharray:none;stroke-dashoffset:0;stroke-opacity:1;visibility:visible;display:inline;overflow:visible;enable-background:accumulate"
         sodipodi:type="arc" />
      <path
         transform="matrix(0.9494041,0.3140572,-0.3140572,0.9494041,494.76537,-106.47877)"
         d="M 59.703341,505.5892 A 2.1322622,2.1322622 0 1 1 55.438817,505.5892 A 2.1322622,2.1322622 0 1 1 59.703341,505.5892 z"
         sodipodi:ry="2.1322622"
         sodipodi:rx="2.1322622"
         sodipodi:cy="505.5892"
         sodipodi:cx="57.571079"
         id="path3894"
         style="fill:#000000;fill-opacity:1;fill-rule:evenodd;stroke:none;stroke-width:1pt;stroke-linecap:butt;stroke-linejoin:miter;marker:none;marker-start:none;marker-mid:none;marker-end:none;stroke-miterlimit:4;stroke-dasharray:none;stroke-dashoffset:0;stroke-opacity:1;visibility:visible;display:inline;overflow:visible;enable-background:accumulate"
         sodipodi:type="arc" />
      <path
         transform="matrix(0.9494041,0.3140572,-0.3140572,0.9494041,509.29375,-101.67287)"
         d="M 59.703341,505.5892 A 2.1322622,2.1322622 0 1 1 55.438817,505.5892 A 2.1322622,2.1322622 0 1 1 59.703341,505.5892 z"
         sodipodi:ry="2.1322622"
         sodipodi:rx="2.1322622"
         sodipodi:cy="505.5892"
         sodipodi:cx="57.571079"
         id="path3896"
         style="fill:#000000;fill-opacity:1;fill-rule:evenodd;stroke:none;stroke-width:1pt;stroke-linecap:butt;stroke-linejoin:miter;marker:none;marker-start:none;marker-mid:none;marker-end:none;stroke-miterlimit:4;stroke-dasharray:none;stroke-dashoffset:0;stroke-opacity:1;visibility:visible;display:inline;overflow:visible;enable-background:accumulate"
         sodipodi:type="arc" />
      <path
         transform="matrix(0.9494041,0.3140572,-0.3140572,0.9494041,523.82211,-96.86698)"
         d="M 59.703341,505.5892 A 2.1322622,2.1322622 0 1 1 55.438817,505.5892 A 2.1322622,2.1322622 0 1 1 59.703341,505.5892 z"
         sodipodi:ry="2.1322622"
         sodipodi:rx="2.1322622"
         sodipodi:cy="505.5892"
         sodipodi:cx="57.571079"
         id="path3898"
         style="fill:#000000;fill-opacity:1;fill-rule:evenodd;stroke:none;stroke-width:1pt;stroke-linecap:butt;stroke-linejoin:miter;marker:none;marker-start:none;marker-mid:none;marker-end:none;stroke-miterlimit:4;stroke-dasharray:none;stroke-dashoffset:0;stroke-opacity:1;visibility:visible;display:inline;overflow:visible;enable-background:accumulate"
         sodipodi:type="arc" />
      <path
         transform="matrix(0.9494041,0.3140572,-0.3140572,0.9494041,538.35051,-92.06107)"
         d="M 59.703341,505.5892 A 2.1322622,2.1322622 0 1 1 55.438817,505.5892 A 2.1322622,2.1322622 0 1 1 59.703341,505.5892 z"
         sodipodi:ry="2.1322622"
         sodipodi:rx="2.1322622"
         sodipodi:cy="505.5892"
         sodipodi:cx="57.571079"
         id="path3900"
         style="fill:#000000;fill-opacity:1;fill-rule:evenodd;stroke:none;stroke-width:1pt;stroke-linecap:butt;stroke-linejoin:miter;marker:none;marker-start:none;marker-mid:none;marker-end:none;stroke-miterlimit:4;stroke-dasharray:none;stroke-dashoffset:0;stroke-opacity:1;visibility:visible;display:inline;overflow:visible;enable-background:accumulate"
         sodipodi:type="arc" />
      <path
         transform="matrix(0.9494041,0.3140572,-0.3140572,0.9494041,552.87887,-87.25518)"
         d="M 59.703341,505.5892 A 2.1322622,2.1322622 0 1 1 55.438817,505.5892 A 2.1322622,2.1322622 0 1 1 59.703341,505.5892 z"
         sodipodi:ry="2.1322622"
         sodipodi:rx="2.1322622"
         sodipodi:cy="505.5892"
         sodipodi:cx="57.571079"
         id="path3902"
         style="fill:#000000;fill-opacity:1;fill-rule:evenodd;stroke:none;stroke-width:1pt;stroke-linecap:butt;stroke-linejoin:miter;marker:none;marker-start:none;marker-mid:none;marker-end:none;stroke-miterlimit:4;stroke-dasharray:none;stroke-dashoffset:0;stroke-opacity:1;visibility:visible;display:inline;overflow:visible;enable-background:accumulate"
         sodipodi:type="arc" />
      <path
         transform="matrix(0.9494041,0.3140572,-0.3140572,0.9494041,567.37296,-82.51219)"
         d="M 59.703341,505.5892 A 2.1322622,2.1322622 0 1 1 55.438817,505.5892 A 2.1322622,2.1322622 0 1 1 59.703341,505.5892 z"
         sodipodi:ry="2.1322622"
         sodipodi:rx="2.1322622"
         sodipodi:cy="505.5892"
         sodipodi:cx="57.571079"
         id="path3904"
         style="fill:#000000;fill-opacity:1;fill-rule:evenodd;stroke:none;stroke-width:1pt;stroke-linecap:butt;stroke-linejoin:miter;marker:none;marker-start:none;marker-mid:none;marker-end:none;stroke-miterlimit:4;stroke-dasharray:none;stroke-dashoffset:0;stroke-opacity:1;visibility:visible;display:inline;overflow:visible;enable-background:accumulate"
         sodipodi:type="arc" />
      <path
         transform="matrix(0.9494041,0.3140572,-0.3140572,0.9494041,581.90135,-77.70628)"
         d="M 59.703341,505.5892 A 2.1322622,2.1322622 0 1 1 55.438817,505.5892 A 2.1322622,2.1322622 0 1 1 59.703341,505.5892 z"
         sodipodi:ry="2.1322622"
         sodipodi:rx="2.1322622"
         sodipodi:cy="505.5892"
         sodipodi:cx="57.571079"
         id="path3906"
         style="fill:#000000;fill-opacity:1;fill-rule:evenodd;stroke:none;stroke-width:1pt;stroke-linecap:butt;stroke-linejoin:miter;marker:none;marker-start:none;marker-mid:none;marker-end:none;stroke-miterlimit:4;stroke-dasharray:none;stroke-dashoffset:0;stroke-opacity:1;visibility:visible;display:inline;overflow:visible;enable-background:accumulate"
         sodipodi:type="arc" />
      <path
         transform="matrix(0.9494041,0.3140572,-0.3140572,0.9494041,596.42971,-72.90039)"
         d="M 59.703341,505.5892 A 2.1322622,2.1322622 0 1 1 55.438817,505.5892 A 2.1322622,2.1322622 0 1 1 59.703341,505.5892 z"
         sodipodi:ry="2.1322622"
         sodipodi:rx="2.1322622"
         sodipodi:cy="505.5892"
         sodipodi:cx="57.571079"
         id="path3908"
         style="fill:#000000;fill-opacity:1;fill-rule:evenodd;stroke:none;stroke-width:1pt;stroke-linecap:butt;stroke-linejoin:miter;marker:none;marker-start:none;marker-mid:none;marker-end:none;stroke-miterlimit:4;stroke-dasharray:none;stroke-dashoffset:0;stroke-opacity:1;visibility:visible;display:inline;overflow:visible;enable-background:accumulate"
         sodipodi:type="arc" />
      <path
         transform="matrix(0.9494041,0.3140572,-0.3140572,0.9494041,610.95808,-68.09449)"
         d="M 59.703341,505.5892 A 2.1322622,2.1322622 0 1 1 55.438817,505.5892 A 2.1322622,2.1322622 0 1 1 59.703341,505.5892 z"
         sodipodi:ry="2.1322622"
         sodipodi:rx="2.1322622"
         sodipodi:cy="505.5892"
         sodipodi:cx="57.571079"
         id="path3910"
         style="fill:#000000;fill-opacity:1;fill-rule:evenodd;stroke:none;stroke-width:1pt;stroke-linecap:butt;stroke-linejoin:miter;marker:none;marker-start:none;marker-mid:none;marker-end:none;stroke-miterlimit:4;stroke-dasharray:none;stroke-dashoffset:0;stroke-opacity:1;visibility:visible;display:inline;overflow:visible;enable-background:accumulate"
         sodipodi:type="arc" />
      <path
         transform="matrix(0.9494041,0.3140572,-0.3140572,0.9494041,469.71242,-144.49803)"
         d="M 59.703341,505.5892 A 2.1322622,2.1322622 0 1 1 55.438817,505.5892 A 2.1322622,2.1322622 0 1 1 59.703341,505.5892 z"
         sodipodi:ry="2.1322622"
         sodipodi:rx="2.1322622"
         sodipodi:cy="505.5892"
         sodipodi:cx="57.571079"
         id="path3912"
         style="fill:#000000;fill-opacity:1;fill-rule:evenodd;stroke:none;stroke-width:1pt;stroke-linecap:butt;stroke-linejoin:miter;marker:none;marker-start:none;marker-mid:none;marker-end:none;stroke-miterlimit:4;stroke-dasharray:none;stroke-dashoffset:0;stroke-opacity:1;visibility:visible;display:inline;overflow:visible;enable-background:accumulate"
         sodipodi:type="arc" />
      <path
         transform="matrix(0.9494041,0.3140572,-0.3140572,0.9494041,484.24081,-139.69213)"
         d="M 59.703341,505.5892 A 2.1322622,2.1322622 0 1 1 55.438817,505.5892 A 2.1322622,2.1322622 0 1 1 59.703341,505.5892 z"
         sodipodi:ry="2.1322622"
         sodipodi:rx="2.1322622"
         sodipodi:cy="505.5892"
         sodipodi:cx="57.571079"
         id="path3914"
         style="fill:#000000;fill-opacity:1;fill-rule:evenodd;stroke:none;stroke-width:1pt;stroke-linecap:butt;stroke-linejoin:miter;marker:none;marker-start:none;marker-mid:none;marker-end:none;stroke-miterlimit:4;stroke-dasharray:none;stroke-dashoffset:0;stroke-opacity:1;visibility:visible;display:inline;overflow:visible;enable-background:accumulate"
         sodipodi:type="arc" />
      <path
         transform="matrix(0.9494041,0.3140572,-0.3140572,0.9494041,498.76917,-134.88624)"
         d="M 59.703341,505.5892 A 2.1322622,2.1322622 0 1 1 55.438817,505.5892 A 2.1322622,2.1322622 0 1 1 59.703341,505.5892 z"
         sodipodi:ry="2.1322622"
         sodipodi:rx="2.1322622"
         sodipodi:cy="505.5892"
         sodipodi:cx="57.571079"
         id="path3916"
         style="fill:#000000;fill-opacity:1;fill-rule:evenodd;stroke:none;stroke-width:1pt;stroke-linecap:butt;stroke-linejoin:miter;marker:none;marker-start:none;marker-mid:none;marker-end:none;stroke-miterlimit:4;stroke-dasharray:none;stroke-dashoffset:0;stroke-opacity:1;visibility:visible;display:inline;overflow:visible;enable-background:accumulate"
         sodipodi:type="arc" />
      <path
         transform="matrix(0.9494041,0.3140572,-0.3140572,0.9494041,513.29754,-130.08035)"
         d="M 59.703341,505.5892 A 2.1322622,2.1322622 0 1 1 55.438817,505.5892 A 2.1322622,2.1322622 0 1 1 59.703341,505.5892 z"
         sodipodi:ry="2.1322622"
         sodipodi:rx="2.1322622"
         sodipodi:cy="505.5892"
         sodipodi:cx="57.571079"
         id="path3918"
         style="fill:#000000;fill-opacity:1;fill-rule:evenodd;stroke:none;stroke-width:1pt;stroke-linecap:butt;stroke-linejoin:miter;marker:none;marker-start:none;marker-mid:none;marker-end:none;stroke-miterlimit:4;stroke-dasharray:none;stroke-dashoffset:0;stroke-opacity:1;visibility:visible;display:inline;overflow:visible;enable-background:accumulate"
         sodipodi:type="arc" />
      <path
         transform="matrix(0.9494041,0.3140572,-0.3140572,0.9494041,527.82592,-125.27445)"
         d="M 59.703341,505.5892 A 2.1322622,2.1322622 0 1 1 55.438817,505.5892 A 2.1322622,2.1322622 0 1 1 59.703341,505.5892 z"
         sodipodi:ry="2.1322622"
         sodipodi:rx="2.1322622"
         sodipodi:cy="505.5892"
         sodipodi:cx="57.571079"
         id="path3920"
         style="fill:#000000;fill-opacity:1;fill-rule:evenodd;stroke:none;stroke-width:1pt;stroke-linecap:butt;stroke-linejoin:miter;marker:none;marker-start:none;marker-mid:none;marker-end:none;stroke-miterlimit:4;stroke-dasharray:none;stroke-dashoffset:0;stroke-opacity:1;visibility:visible;display:inline;overflow:visible;enable-background:accumulate"
         sodipodi:type="arc" />
      <path
         transform="matrix(0.9494041,0.3140572,-0.3140572,0.9494041,542.35428,-120.46855)"
         d="M 59.703341,505.5892 A 2.1322622,2.1322622 0 1 1 55.438817,505.5892 A 2.1322622,2.1322622 0 1 1 59.703341,505.5892 z"
         sodipodi:ry="2.1322622"
         sodipodi:rx="2.1322622"
         sodipodi:cy="505.5892"
         sodipodi:cx="57.571079"
         id="path3922"
         style="fill:#000000;fill-opacity:1;fill-rule:evenodd;stroke:none;stroke-width:1pt;stroke-linecap:butt;stroke-linejoin:miter;marker:none;marker-start:none;marker-mid:none;marker-end:none;stroke-miterlimit:4;stroke-dasharray:none;stroke-dashoffset:0;stroke-opacity:1;visibility:visible;display:inline;overflow:visible;enable-background:accumulate"
         sodipodi:type="arc" />
      <path
         transform="matrix(0.9494041,0.3140572,-0.3140572,0.9494041,556.88268,-115.66264)"
         d="M 59.703341,505.5892 A 2.1322622,2.1322622 0 1 1 55.438817,505.5892 A 2.1322622,2.1322622 0 1 1 59.703341,505.5892 z"
         sodipodi:ry="2.1322622"
         sodipodi:rx="2.1322622"
         sodipodi:cy="505.5892"
         sodipodi:cx="57.571079"
         id="path3924"
         style="fill:#000000;fill-opacity:1;fill-rule:evenodd;stroke:none;stroke-width:1pt;stroke-linecap:butt;stroke-linejoin:miter;marker:none;marker-start:none;marker-mid:none;marker-end:none;stroke-miterlimit:4;stroke-dasharray:none;stroke-dashoffset:0;stroke-opacity:1;visibility:visible;display:inline;overflow:visible;enable-background:accumulate"
         sodipodi:type="arc" />
      <path
         transform="matrix(0.9494041,0.3140572,-0.3140572,0.9494041,571.41103,-110.85675)"
         d="M 59.703341,505.5892 A 2.1322622,2.1322622 0 1 1 55.438817,505.5892 A 2.1322622,2.1322622 0 1 1 59.703341,505.5892 z"
         sodipodi:ry="2.1322622"
         sodipodi:rx="2.1322622"
         sodipodi:cy="505.5892"
         sodipodi:cx="57.571079"
         id="path3926"
         style="fill:#000000;fill-opacity:1;fill-rule:evenodd;stroke:none;stroke-width:1pt;stroke-linecap:butt;stroke-linejoin:miter;marker:none;marker-start:none;marker-mid:none;marker-end:none;stroke-miterlimit:4;stroke-dasharray:none;stroke-dashoffset:0;stroke-opacity:1;visibility:visible;display:inline;overflow:visible;enable-background:accumulate"
         sodipodi:type="arc" />
      <path
         transform="matrix(0.9494041,0.3140572,-0.3140572,0.9494041,585.90513,-106.11376)"
         d="M 59.703341,505.5892 A 2.1322622,2.1322622 0 1 1 55.438817,505.5892 A 2.1322622,2.1322622 0 1 1 59.703341,505.5892 z"
         sodipodi:ry="2.1322622"
         sodipodi:rx="2.1322622"
         sodipodi:cy="505.5892"
         sodipodi:cx="57.571079"
         id="path3928"
         style="fill:#000000;fill-opacity:1;fill-rule:evenodd;stroke:none;stroke-width:1pt;stroke-linecap:butt;stroke-linejoin:miter;marker:none;marker-start:none;marker-mid:none;marker-end:none;stroke-miterlimit:4;stroke-dasharray:none;stroke-dashoffset:0;stroke-opacity:1;visibility:visible;display:inline;overflow:visible;enable-background:accumulate"
         sodipodi:type="arc" />
      <path
         transform="matrix(0.9494041,0.3140572,-0.3140572,0.9494041,600.43352,-101.30786)"
         d="M 59.703341,505.5892 A 2.1322622,2.1322622 0 1 1 55.438817,505.5892 A 2.1322622,2.1322622 0 1 1 59.703341,505.5892 z"
         sodipodi:ry="2.1322622"
         sodipodi:rx="2.1322622"
         sodipodi:cy="505.5892"
         sodipodi:cx="57.571079"
         id="path3930"
         style="fill:#000000;fill-opacity:1;fill-rule:evenodd;stroke:none;stroke-width:1pt;stroke-linecap:butt;stroke-linejoin:miter;marker:none;marker-start:none;marker-mid:none;marker-end:none;stroke-miterlimit:4;stroke-dasharray:none;stroke-dashoffset:0;stroke-opacity:1;visibility:visible;display:inline;overflow:visible;enable-background:accumulate"
         sodipodi:type="arc" />
      <path
         transform="matrix(0.9494041,0.3140572,-0.3140572,0.9494041,614.96188,-96.50196)"
         d="M 59.703341,505.5892 A 2.1322622,2.1322622 0 1 1 55.438817,505.5892 A 2.1322622,2.1322622 0 1 1 59.703341,505.5892 z"
         sodipodi:ry="2.1322622"
         sodipodi:rx="2.1322622"
         sodipodi:cy="505.5892"
         sodipodi:cx="57.571079"
         id="path3932"
         style="fill:#000000;fill-opacity:1;fill-rule:evenodd;stroke:none;stroke-width:1pt;stroke-linecap:butt;stroke-linejoin:miter;marker:none;marker-start:none;marker-mid:none;marker-end:none;stroke-miterlimit:4;stroke-dasharray:none;stroke-dashoffset:0;stroke-opacity:1;visibility:visible;display:inline;overflow:visible;enable-background:accumulate"
         sodipodi:type="arc" />
      <path
         transform="matrix(0.9494041,0.3140572,-0.3140572,0.9494041,560.88648,-144.07019)"
         d="M 59.703341,505.5892 A 2.1322622,2.1322622 0 1 1 55.438817,505.5892 A 2.1322622,2.1322622 0 1 1 59.703341,505.5892 z"
         sodipodi:ry="2.1322622"
         sodipodi:rx="2.1322622"
         sodipodi:cy="505.5892"
         sodipodi:cx="57.571079"
         id="path3934"
         style="fill:#000000;fill-opacity:1;fill-rule:evenodd;stroke:none;stroke-width:1pt;stroke-linecap:butt;stroke-linejoin:miter;marker:none;marker-start:none;marker-mid:none;marker-end:none;stroke-miterlimit:4;stroke-dasharray:none;stroke-dashoffset:0;stroke-opacity:1;visibility:visible;display:inline;overflow:visible;enable-background:accumulate"
         sodipodi:type="arc" />
      <path
         transform="matrix(0.9494041,0.3140572,-0.3140572,0.9494041,575.41488,-139.26428)"
         d="M 59.703341,505.5892 A 2.1322622,2.1322622 0 1 1 55.438817,505.5892 A 2.1322622,2.1322622 0 1 1 59.703341,505.5892 z"
         sodipodi:ry="2.1322622"
         sodipodi:rx="2.1322622"
         sodipodi:cy="505.5892"
         sodipodi:cx="57.571079"
         id="path3936"
         style="fill:#000000;fill-opacity:1;fill-rule:evenodd;stroke:none;stroke-width:1pt;stroke-linecap:butt;stroke-linejoin:miter;marker:none;marker-start:none;marker-mid:none;marker-end:none;stroke-miterlimit:4;stroke-dasharray:none;stroke-dashoffset:0;stroke-opacity:1;visibility:visible;display:inline;overflow:visible;enable-background:accumulate"
         sodipodi:type="arc" />
      <path
         transform="matrix(0.9494041,0.3140572,-0.3140572,0.9494041,589.94323,-134.4584)"
         d="M 59.703341,505.5892 A 2.1322622,2.1322622 0 1 1 55.438817,505.5892 A 2.1322622,2.1322622 0 1 1 59.703341,505.5892 z"
         sodipodi:ry="2.1322622"
         sodipodi:rx="2.1322622"
         sodipodi:cy="505.5892"
         sodipodi:cx="57.571079"
         id="path3938"
         style="fill:#000000;fill-opacity:1;fill-rule:evenodd;stroke:none;stroke-width:1pt;stroke-linecap:butt;stroke-linejoin:miter;marker:none;marker-start:none;marker-mid:none;marker-end:none;stroke-miterlimit:4;stroke-dasharray:none;stroke-dashoffset:0;stroke-opacity:1;visibility:visible;display:inline;overflow:visible;enable-background:accumulate"
         sodipodi:type="arc" />
      <path
         transform="matrix(0.9494041,0.3140572,-0.3140572,0.9494041,604.43733,-129.71541)"
         d="M 59.703341,505.5892 A 2.1322622,2.1322622 0 1 1 55.438817,505.5892 A 2.1322622,2.1322622 0 1 1 59.703341,505.5892 z"
         sodipodi:ry="2.1322622"
         sodipodi:rx="2.1322622"
         sodipodi:cy="505.5892"
         sodipodi:cx="57.571079"
         id="path3940"
         style="fill:#000000;fill-opacity:1;fill-rule:evenodd;stroke:none;stroke-width:1pt;stroke-linecap:butt;stroke-linejoin:miter;marker:none;marker-start:none;marker-mid:none;marker-end:none;stroke-miterlimit:4;stroke-dasharray:none;stroke-dashoffset:0;stroke-opacity:1;visibility:visible;display:inline;overflow:visible;enable-background:accumulate"
         sodipodi:type="arc" />
    </g>
    <path
       style="opacity:1;fill:none;fill-opacity:0.75;fill-rule:evenodd;stroke:#000000;stroke-width:0.875;stroke-linecap:butt;stroke-linejoin:miter;marker:none;marker-start:none;marker-mid:none;marker-end:none;stroke-miterlimit:4;stroke-dasharray:none;stroke-dashoffset:0;stroke-opacity:1;visibility:visible;display:inline;overflow:visible;enable-background:accumulate"
       d="M 3.5008814,359.7608 L 186.28705,420.01628"
       id="path4002"
       sodipodi:nodetypes="cc" />
    <path
       style="opacity:1;fill:none;fill-opacity:0.75;fill-rule:evenodd;stroke:#000000;stroke-width:0.875;stroke-linecap:butt;stroke-linejoin:miter;marker:none;marker-start:none;marker-mid:none;marker-end:none;stroke-miterlimit:4;stroke-dasharray:none;stroke-dashoffset:0;stroke-opacity:1;visibility:visible;display:inline;overflow:visible;enable-background:accumulate"
       d="M 26.997168,338.21689 L 186.89299,390.39342"
       id="path4004"
       sodipodi:nodetypes="cc" />
    <path
       style="opacity:1;fill:none;fill-opacity:0.75;fill-rule:evenodd;stroke:#000000;stroke-width:0.875;stroke-linecap:butt;stroke-linejoin:miter;marker:none;marker-start:none;marker-mid:none;marker-end:none;stroke-miterlimit:4;stroke-dasharray:none;stroke-dashoffset:0;stroke-opacity:1;visibility:visible;display:inline;overflow:visible;enable-background:accumulate"
       d="M 117.81798,338.21692 L 186.82566,360.77065"
       id="path4006"
       sodipodi:nodetypes="cc" />
    <path
       style="opacity:1;fill:none;fill-opacity:0.75;fill-rule:evenodd;stroke:#000000;stroke-width:0.875;stroke-linecap:butt;stroke-linejoin:miter;marker:none;marker-start:none;marker-mid:none;marker-end:none;stroke-miterlimit:4;stroke-dasharray:none;stroke-dashoffset:0;stroke-opacity:1;visibility:visible;display:inline;overflow:visible;enable-background:accumulate"
       d="M 3.5682085,389.38358 L 186.69101,449.97569"
       id="path4008"
       sodipodi:nodetypes="cc" />
    <path
       style="opacity:1;fill:none;fill-opacity:0.75;fill-rule:evenodd;stroke:#000000;stroke-width:0.875;stroke-linecap:butt;stroke-linejoin:miter;marker:none;marker-start:none;marker-mid:none;marker-end:none;stroke-miterlimit:4;stroke-dasharray:none;stroke-dashoffset:0;stroke-opacity:1;visibility:visible;display:inline;overflow:visible;enable-background:accumulate"
       d="M 3.890113,419.3157 L 180.3625,477.5788"
       id="path4010"
       sodipodi:nodetypes="cc" />
    <path
       style="opacity:1;fill:none;fill-opacity:0.75;fill-rule:evenodd;stroke:#000000;stroke-width:0.875;stroke-linecap:butt;stroke-linejoin:miter;marker:none;marker-start:none;marker-mid:none;marker-end:none;stroke-miterlimit:4;stroke-dasharray:none;stroke-dashoffset:0;stroke-opacity:1;visibility:visible;display:inline;overflow:visible;enable-background:accumulate"
       d="M 3.8198224,449.00481 L 90.888162,477.91538"
       id="path4012"
       sodipodi:nodetypes="cc" />
    <path
       style="opacity:1;fill:none;fill-opacity:0.75;fill-rule:evenodd;stroke:#000000;stroke-width:0.875;stroke-linecap:butt;stroke-linejoin:miter;marker:none;marker-start:none;marker-mid:none;marker-end:none;stroke-miterlimit:4;stroke-dasharray:none;stroke-dashoffset:0;stroke-opacity:1;visibility:visible;display:inline;overflow:visible;enable-background:accumulate"
       d="M 115.57947,337.92241 L 5.0990943,478.43079"
       id="path4014"
       sodipodi:nodetypes="cc" />
    <path
       style="opacity:1;fill:none;fill-opacity:0.75;fill-rule:evenodd;stroke:#000000;stroke-width:0.875;stroke-linecap:butt;stroke-linejoin:miter;marker:none;marker-start:none;marker-mid:none;marker-end:none;stroke-miterlimit:4;stroke-dasharray:none;stroke-dashoffset:0;stroke-opacity:1;visibility:visible;display:inline;overflow:visible;enable-background:accumulate"
       d="M 96.811207,337.95468 L 3.1100702,457.85698"
       id="path4016"
       sodipodi:nodetypes="cc" />
    <path
       style="opacity:1;fill:none;fill-opacity:0.75;fill-rule:evenodd;stroke:#000000;stroke-width:0.875;stroke-linecap:butt;stroke-linejoin:miter;marker:none;marker-start:none;marker-mid:none;marker-end:none;stroke-miterlimit:4;stroke-dasharray:none;stroke-dashoffset:0;stroke-opacity:1;visibility:visible;display:inline;overflow:visible;enable-background:accumulate"
       d="M 79.320243,338.06558 L 3.8702047,433.24058"
       id="path4018"
       sodipodi:nodetypes="cc" />
    <path
       style="opacity:1;fill:none;fill-opacity:0.75;fill-rule:evenodd;stroke:#000000;stroke-width:0.875;stroke-linecap:butt;stroke-linejoin:miter;marker:none;marker-start:none;marker-mid:none;marker-end:none;stroke-miterlimit:4;stroke-dasharray:none;stroke-dashoffset:0;stroke-opacity:1;visibility:visible;display:inline;overflow:visible;enable-background:accumulate"
       d="M 60.829219,337.47078 L 3.6302817,410.27347"
       id="path4020"
       sodipodi:nodetypes="cc" />
    <path
       style="opacity:1;fill:none;fill-opacity:0.75;fill-rule:evenodd;stroke:#000000;stroke-width:0.875;stroke-linecap:butt;stroke-linejoin:miter;marker:none;marker-start:none;marker-mid:none;marker-end:none;stroke-miterlimit:4;stroke-dasharray:none;stroke-dashoffset:0;stroke-opacity:1;visibility:visible;display:inline;overflow:visible;enable-background:accumulate"
       d="M 42.388599,337.73694 L 3.146388,388.16731"
       id="path4022"
       sodipodi:nodetypes="cc" />
    <path
       style="opacity:1;fill:none;fill-opacity:0.75;fill-rule:evenodd;stroke:#000000;stroke-width:0.875;stroke-linecap:butt;stroke-linejoin:miter;marker:none;marker-start:none;marker-mid:none;marker-end:none;stroke-miterlimit:4;stroke-dasharray:none;stroke-dashoffset:0;stroke-opacity:1;visibility:visible;display:inline;overflow:visible;enable-background:accumulate"
       d="M 24.014515,337.8196 L 3.6121495,364.11142"
       id="path4024"
       sodipodi:nodetypes="cc" />
    <path
       style="opacity:1;fill:none;fill-opacity:0.75;fill-rule:evenodd;stroke:#000000;stroke-width:0.875;stroke-linecap:butt;stroke-linejoin:miter;marker:none;marker-start:none;marker-mid:none;marker-end:none;stroke-miterlimit:4;stroke-dasharray:none;stroke-dashoffset:0;stroke-opacity:1;visibility:visible;display:inline;overflow:visible;enable-background:accumulate"
       d="M 133.70454,337.872 L 24.696026,477.20289"
       id="path4026"
       sodipodi:nodetypes="cc" />
    <path
       style="opacity:1;fill:none;fill-opacity:0.75;fill-rule:evenodd;stroke:#000000;stroke-width:0.875;stroke-linecap:butt;stroke-linejoin:miter;marker:none;marker-start:none;marker-mid:none;marker-end:none;stroke-miterlimit:4;stroke-dasharray:none;stroke-dashoffset:0;stroke-opacity:1;visibility:visible;display:inline;overflow:visible;enable-background:accumulate"
       d="M 151.87901,337.94459 L 42.870497,477.86422"
       id="path4028"
       sodipodi:nodetypes="cc" />
    <path
       style="opacity:1;fill:none;fill-opacity:0.75;fill-rule:evenodd;stroke:#000000;stroke-width:0.875;stroke-linecap:butt;stroke-linejoin:miter;marker:none;marker-start:none;marker-mid:none;marker-end:none;stroke-miterlimit:4;stroke-dasharray:none;stroke-dashoffset:0;stroke-opacity:1;visibility:visible;display:inline;overflow:visible;enable-background:accumulate"
       d="M 169.11996,339.05554 L 60.585716,478.16729"
       id="path4030"
       sodipodi:nodetypes="cc" />
    <path
       style="opacity:1;fill:none;fill-opacity:0.75;fill-rule:evenodd;stroke:#000000;stroke-width:0.875;stroke-linecap:butt;stroke-linejoin:miter;marker:none;marker-start:none;marker-mid:none;marker-end:none;stroke-miterlimit:4;stroke-dasharray:none;stroke-dashoffset:0;stroke-opacity:1;visibility:visible;display:inline;overflow:visible;enable-background:accumulate"
       d="M 187.04442,339.53339 L 79.213396,477.68679"
       id="path4032"
       sodipodi:nodetypes="cc" />
    <path
       style="opacity:1;fill:none;fill-opacity:0.75;fill-rule:evenodd;stroke:#000000;stroke-width:0.875;stroke-linecap:butt;stroke-linejoin:miter;marker:none;marker-start:none;marker-mid:none;marker-end:none;stroke-miterlimit:4;stroke-dasharray:none;stroke-dashoffset:0;stroke-opacity:1;visibility:visible;display:inline;overflow:visible;enable-background:accumulate"
       d="M 187.03432,363.87759 L 96.571287,478.48119"
       id="path4034"
       sodipodi:nodetypes="cc" />
    <path
       style="opacity:1;fill:none;fill-opacity:0.75;fill-rule:evenodd;stroke:#000000;stroke-width:0.875;stroke-linecap:butt;stroke-linejoin:miter;marker:none;marker-start:none;marker-mid:none;marker-end:none;stroke-miterlimit:4;stroke-dasharray:none;stroke-dashoffset:0;stroke-opacity:1;visibility:visible;display:inline;overflow:visible;enable-background:accumulate"
       d="M 186.97988,386.59469 L 115.65105,477.64847"
       id="path4036"
       sodipodi:nodetypes="cc" />
    <path
       style="opacity:1;fill:none;fill-opacity:0.75;fill-rule:evenodd;stroke:#000000;stroke-width:0.875;stroke-linecap:butt;stroke-linejoin:miter;marker:none;marker-start:none;marker-mid:none;marker-end:none;stroke-miterlimit:4;stroke-dasharray:none;stroke-dashoffset:0;stroke-opacity:1;visibility:visible;display:inline;overflow:visible;enable-background:accumulate"
       d="M 186.51412,410.44491 L 134.02514,477.94889"
       id="path4038"
       sodipodi:nodetypes="cc" />
    <path
       style="opacity:1;fill:none;fill-opacity:0.75;fill-rule:evenodd;stroke:#000000;stroke-width:0.875;stroke-linecap:butt;stroke-linejoin:miter;marker:none;marker-start:none;marker-mid:none;marker-end:none;stroke-miterlimit:4;stroke-dasharray:none;stroke-dashoffset:0;stroke-opacity:1;visibility:visible;display:inline;overflow:visible;enable-background:accumulate"
       d="M 186.52016,434.18424 L 152.28229,477.54967"
       id="path4040"
       sodipodi:nodetypes="cc" />
    <path
       style="opacity:1;fill:none;fill-opacity:0.75;fill-rule:evenodd;stroke:#000000;stroke-width:0.875;stroke-linecap:butt;stroke-linejoin:miter;marker:none;marker-start:none;marker-mid:none;marker-end:none;stroke-miterlimit:4;stroke-dasharray:none;stroke-dashoffset:0;stroke-opacity:1;visibility:visible;display:inline;overflow:visible;enable-background:accumulate"
       d="M 187.25406,454.68547 L 170.38417,478.03356"
       id="path4042"
       sodipodi:nodetypes="cc" />
  </g>
</svg>
