<?xml version="1.0" encoding="UTF-8" standalone="no"?>
<!-- Created with Inkscape (http://www.inkscape.org/) -->

<svg
   xmlns:dc="http://purl.org/dc/elements/1.1/"
   xmlns:cc="http://creativecommons.org/ns#"
   xmlns:rdf="http://www.w3.org/1999/02/22-rdf-syntax-ns#"
   xmlns:svg="http://www.w3.org/2000/svg"
   xmlns="http://www.w3.org/2000/svg"
   xmlns:sodipodi="http://sodipodi.sourceforge.net/DTD/sodipodi-0.dtd"
   xmlns:inkscape="http://www.inkscape.org/namespaces/inkscape"
   width="744.09448819"
   height="1052.3622047"
   id="svg2"
   version="1.1"
   inkscape:version="0.48.3.1 r9886"
   sodipodi:docname="barbell.svg">
  <defs
     id="defs4">
    <marker
       inkscape:stockid="Arrow2Mend"
       orient="auto"
       refY="0.0"
       refX="0.0"
       id="Arrow2Mend"
       style="overflow:visible;">
      <path
         id="path4082"
         style="fill-rule:evenodd;stroke-width:0.62500000;stroke-linejoin:round;"
         d="M 8.7185878,4.0337352 L -2.2072895,0.016013256 L 8.7185884,-4.0017078 C 6.9730900,-1.6296469 6.9831476,1.6157441 8.7185878,4.0337352 z "
         transform="scale(0.6) rotate(180) translate(0,0)" />
    </marker>
  </defs>
  <sodipodi:namedview
     id="base"
     pagecolor="#ffffff"
     bordercolor="#666666"
     borderopacity="1.0"
     inkscape:pageopacity="0.0"
     inkscape:pageshadow="2"
     inkscape:zoom="1.1725589"
     inkscape:cx="229.69721"
     inkscape:cy="863.73033"
     inkscape:document-units="px"
     inkscape:current-layer="layer1"
     showgrid="false"
     inkscape:window-width="1280"
     inkscape:window-height="996"
     inkscape:window-x="0"
     inkscape:window-y="0"
     inkscape:window-maximized="1" />
  <metadata
     id="metadata7">
    <rdf:RDF>
      <cc:Work
         rdf:about="">
        <dc:format>image/svg+xml</dc:format>
        <dc:type
           rdf:resource="http://purl.org/dc/dcmitype/StillImage" />
        <dc:title></dc:title>
      </cc:Work>
    </rdf:RDF>
  </metadata>
  <g
     inkscape:label="Layer 1"
     inkscape:groupmode="layer"
     id="layer1">
    <rect
       style="fill:#dedede;fill-opacity:1;stroke:none"
       id="rect4691"
       width="184.25197"
       height="144.76941"
       x="135.77663"
       y="107.63565" />
    <g
       id="g3078"
       transform="matrix(0.89231023,0,0,0.89231023,14.759046,24.159214)">
      <path
         inkscape:connector-curvature="0"
         id="path3066"
         d="m 339.24812,170.92287 -10.76978,3.029"
         style="color:#000000;fill:none;stroke:#000000;stroke-width:0.625;stroke-linecap:butt;stroke-linejoin:miter;stroke-miterlimit:4;stroke-opacity:1;stroke-dasharray:none;stroke-dashoffset:0;marker:none;visibility:visible;display:inline;overflow:visible;enable-background:accumulate" />
      <path
         inkscape:connector-curvature="0"
         id="path3070"
         d="m 339.24812,171.25943 -11.77944,3.029"
         style="color:#000000;fill:none;stroke:#000000;stroke-width:0.625;stroke-linecap:butt;stroke-linejoin:miter;stroke-miterlimit:4;stroke-opacity:1;stroke-dasharray:none;stroke-dashoffset:0;marker:none;visibility:visible;display:inline;overflow:visible;enable-background:accumulate" />
      <path
         inkscape:connector-curvature="0"
         id="path3072"
         d="m 329.15145,175.63465 c -4.71178,-1.68278 -11.44289,-1.00967 -11.44289,-1.00967 0,0 -8.75045,1.34623 -10.43323,2.01934 -1.68277,0.67311 -10.09667,3.029 -12.45256,4.37522 -2.35588,1.34622 -4.71177,3.029 -4.71177,3.029 0,0 -2.35589,-0.33655 -6.39456,-0.67311 -4.03867,-0.33655 -18.84712,0.67311 -18.84712,0.67311 l -6.39456,0.33656"
         style="color:#000000;fill:none;stroke:#000000;stroke-width:0.625;stroke-linecap:butt;stroke-linejoin:miter;stroke-miterlimit:4;stroke-opacity:1;stroke-dasharray:none;stroke-dashoffset:0;marker:none;visibility:visible;display:inline;overflow:visible;enable-background:accumulate" />
      <path
         inkscape:connector-curvature="0"
         id="path3074"
         d="m 261.16721,206.26122 c 9.087,0 12.45256,0.33655 12.45256,0.33655 l 8.07733,2.01934 c 0,0 9.76012,-0.33656 12.45256,-1.00967 2.69245,-0.67311 10.43323,-0.67311 11.77945,-1.00967 1.34622,-0.33655 6.39456,-1.34622 6.39456,-1.34622 0,0 4.71178,4.71178 4.71178,6.39456 0,1.68278 4.03867,10.76978 4.03867,10.76978 0,0 2.69244,3.70211 3.029,6.73111 0.33655,3.029 5.72145,18.84712 5.72145,18.84712"
         style="color:#000000;fill:none;stroke:#000000;stroke-width:0.625;stroke-linecap:butt;stroke-linejoin:miter;stroke-miterlimit:4;stroke-opacity:1;stroke-dasharray:none;stroke-dashoffset:0;marker:none;visibility:visible;display:inline;overflow:visible;enable-background:accumulate" />
    </g>
    <g
       id="g3118"
       transform="matrix(0.8233971,0.34385284,-0.34385284,0.8233971,91.81318,74.633471)">
      <path
         inkscape:connector-curvature="0"
         id="path3086"
         d="m 207.03488,52.03015 c -12.78912,-5.04834 -18.51057,-5.72145 -26.92446,-4.37522 -8.41389,1.34622 -11.44289,2.35589 -13.79878,2.01933 -2.35589,-0.33656 -13.46222,-2.01933 -13.46222,-2.01933 0,0 -5.38489,0.67311 -10.09667,0.33655 -4.71178,-0.33655 -5.04834,-0.33655 -6.39456,-2.01933 -1.34622,-1.68278 -3.029,-3.70212 -4.03867,-5.38489 -1.00967,-1.68278 -3.029,-4.37523 -4.37522,-4.37523 -1.34623,0 -4.71178,-2.35589 -4.71178,-2.35589 0,0 -5.72145,-1.34622 -8.75045,-0.67311 -3.029,0.67311 -5.38489,3.70211 -5.38489,3.70211 l -2.69245,2.69245 2.69245,2.69244 0.67311,0"
         style="color:#000000;fill:none;stroke:#000000;stroke-width:0.625;stroke-linecap:butt;stroke-linejoin:miter;stroke-miterlimit:4;stroke-opacity:1;stroke-dasharray:none;stroke-dashoffset:0;marker:none;visibility:visible;display:inline;overflow:visible;enable-background:accumulate" />
      <path
         inkscape:connector-curvature="0"
         id="path3088"
         d="m 203.33276,75.9256 c -3.029,-0.67311 -10.43322,2.01934 -13.46222,1.34623 -3.029,-0.67312 -19.52023,-3.02901 -21.20301,-4.03867 -1.68278,-1.00967 -17.83745,-7.40423 -20.19334,-7.74078 -2.35589,-0.33656 -9.42356,-4.03867 -9.42356,-4.03867 0,0 -2.69244,2.01933 -4.37522,2.35589 -1.68278,0.33655 -5.72145,1.00967 -7.74078,-0.33656 -2.01933,-1.34622 -9.087,-4.71178 -11.10634,-5.04833 -2.01933,-0.33656 -6.39456,-2.01934 -6.39456,-2.01934 l -1.34622,-2.69244 2.01934,-1.00967 0,0"
         style="color:#000000;fill:none;stroke:#000000;stroke-width:0.625;stroke-linecap:butt;stroke-linejoin:miter;stroke-miterlimit:4;stroke-opacity:1;stroke-dasharray:none;stroke-dashoffset:0;marker:none;visibility:visible;display:inline;overflow:visible;enable-background:accumulate" />
      <path
         inkscape:connector-curvature="0"
         id="path3090"
         d="m 124.77359,37.8771 c -1.62964,-0.77939 -6.23514,-2.62159 -8.14819,-2.26732 -1.91306,0.35426 -5.17233,1.55878 -5.81002,1.77134 -0.63768,0.21256 -1.27536,1.20452 -1.20451,1.98391 0.0708,0.77939 0.56683,2.62159 1.06281,2.7633 0.49597,0.1417 1.77134,0.42512 2.40903,0.35427 0.63768,-0.0709 1.9839,-0.35427 2.47988,-0.49598 0.49598,-0.14171 1.8422,-0.56683 1.8422,-0.56683"
         style="color:#000000;fill:none;stroke:#000000;stroke-width:0.625;stroke-linecap:butt;stroke-linejoin:miter;stroke-miterlimit:4;stroke-opacity:1;stroke-dasharray:none;stroke-dashoffset:0;marker:none;visibility:visible;display:inline;overflow:visible;enable-background:accumulate" />
      <path
         inkscape:connector-curvature="0"
         id="path3092"
         d="m 117.75906,42.12833 c 1.13366,0.77939 2.26732,1.62964 2.83415,1.77134 0.56683,0.14171 1.41708,0.63769 1.41708,0.63769"
         style="color:#000000;fill:none;stroke:#000000;stroke-width:0.625;stroke-linecap:butt;stroke-linejoin:miter;stroke-miterlimit:4;stroke-opacity:1;stroke-dasharray:none;stroke-dashoffset:0;marker:none;visibility:visible;display:inline;overflow:visible;enable-background:accumulate" />
      <path
         inkscape:connector-curvature="0"
         id="path3094"
         d="m 121.72687,45.2459 c 0.42513,0.56683 0.7794,2.12561 1.20452,2.33817 0.42512,0.21256 1.8422,1.27537 1.8422,1.27537"
         style="color:#000000;fill:none;stroke:#000000;stroke-width:0.625;stroke-linecap:butt;stroke-linejoin:miter;stroke-miterlimit:4;stroke-opacity:1;stroke-dasharray:none;stroke-dashoffset:0;marker:none;visibility:visible;display:inline;overflow:visible;enable-background:accumulate" />
      <path
         inkscape:connector-curvature="0"
         id="path3096"
         d="m 123.2148,48.78859 c 0.49598,1.20451 0.9211,1.41707 1.34623,1.62963 0.42512,0.21257 1.34622,0.49598 1.34622,0.49598"
         style="color:#000000;fill:none;stroke:#000000;stroke-width:0.625;stroke-linecap:butt;stroke-linejoin:miter;stroke-miterlimit:4;stroke-opacity:1;stroke-dasharray:none;stroke-dashoffset:0;marker:none;visibility:visible;display:inline;overflow:visible;enable-background:accumulate" />
      <path
         inkscape:connector-curvature="0"
         id="path3098"
         d="m 124.06505,51.12676 c 0.85025,1.70049 0.42512,2.05476 1.20451,2.47989 0.7794,0.42512 1.8422,1.62964 1.8422,1.62964"
         style="color:#000000;fill:none;stroke:#000000;stroke-width:0.625;stroke-linecap:butt;stroke-linejoin:miter;stroke-miterlimit:4;stroke-opacity:1;stroke-dasharray:none;stroke-dashoffset:0;marker:none;visibility:visible;display:inline;overflow:visible;enable-background:accumulate" />
      <path
         inkscape:connector-curvature="0"
         id="path3100"
         d="m 123.9942,52.18957 c 0,1.06281 -0.63769,1.48793 0,2.26732 0.63768,0.7794 0.63768,1.77135 0.63768,1.77135"
         style="color:#000000;fill:none;stroke:#000000;stroke-width:0.625;stroke-linecap:butt;stroke-linejoin:miter;stroke-miterlimit:4;stroke-opacity:1;stroke-dasharray:none;stroke-dashoffset:0;marker:none;visibility:visible;display:inline;overflow:visible;enable-background:accumulate" />
      <path
         inkscape:connector-curvature="0"
         id="path3102"
         d="m 106.42245,40.71125 c -0.70854,1.13366 -1.41708,1.77135 -0.9211,2.83415 0.49597,1.06281 0.56683,2.19647 1.20451,2.40903 0.63769,0.21257 2.05476,0.85025 2.62159,0.85025 0.56683,0 0.9211,0.70854 1.62964,-0.14171 0.70854,-0.85024 1.27537,-1.62964 0.70854,-2.26732 -0.56683,-0.63768 -1.27537,-1.48793 -1.27537,-1.48793 l -0.28341,-0.28342"
         style="color:#000000;fill:none;stroke:#000000;stroke-width:0.625;stroke-linecap:butt;stroke-linejoin:miter;stroke-miterlimit:4;stroke-opacity:1;stroke-dasharray:none;stroke-dashoffset:0;marker:none;visibility:visible;display:inline;overflow:visible;enable-background:accumulate" />
      <path
         inkscape:connector-curvature="0"
         id="path3104"
         d="m 106.98928,46.80468 c -0.28342,0.63768 -1.20452,1.06281 -0.63769,2.05476 0.56683,0.99195 -0.28341,1.55878 0.63769,2.12562 0.9211,0.56683 2.33817,1.20451 3.18842,1.20451 0.85025,0 2.26732,-0.0708 2.12561,-1.27537 -0.1417,-1.20451 -0.63768,-3.04671 -0.99195,-3.25927 -0.35427,-0.21257 -0.35427,-0.21257 -0.35427,-0.21257"
         style="color:#000000;fill:none;stroke:#000000;stroke-width:0.625;stroke-linecap:butt;stroke-linejoin:miter;stroke-miterlimit:4;stroke-opacity:1;stroke-dasharray:none;stroke-dashoffset:0;marker:none;visibility:visible;display:inline;overflow:visible;enable-background:accumulate" />
      <path
         inkscape:connector-curvature="0"
         id="path3106"
         d="m 111.24051,53.03982 c 0.70854,0.49597 0.56683,0.28341 0.85024,1.34622 0.28342,1.06281 -0.1417,1.34622 -0.28341,1.62964 -0.14171,0.28341 -0.85025,0.56683 -0.85025,0.56683"
         style="color:#000000;fill:none;stroke:#000000;stroke-width:0.625;stroke-linecap:butt;stroke-linejoin:miter;stroke-miterlimit:4;stroke-opacity:1;stroke-dasharray:none;stroke-dashoffset:0;marker:none;visibility:visible;display:inline;overflow:visible;enable-background:accumulate" />
      <path
         inkscape:connector-curvature="0"
         id="path3108"
         d="m 110.60282,53.39409 0,2.33817 -0.56683,-0.0709"
         style="color:#000000;fill:none;stroke:#000000;stroke-width:0.625;stroke-linecap:butt;stroke-linejoin:miter;stroke-miterlimit:4;stroke-opacity:1;stroke-dasharray:none;stroke-dashoffset:0;marker:none;visibility:visible;display:inline;overflow:visible;enable-background:accumulate" />
      <path
         inkscape:connector-curvature="0"
         id="path3110"
         d="m 109.82343,48.50517 0.28342,2.55074"
         style="color:#000000;fill:none;stroke:#000000;stroke-width:0.625;stroke-linecap:butt;stroke-linejoin:miter;stroke-miterlimit:4;stroke-opacity:1;stroke-dasharray:none;stroke-dashoffset:0;marker:none;visibility:visible;display:inline;overflow:visible;enable-background:accumulate" />
      <path
         inkscape:connector-curvature="0"
         id="path3112"
         d="m 108.76062,43.26199 1.06281,0.35427 0.14171,2.19647"
         style="color:#000000;fill:none;stroke:#000000;stroke-width:0.625;stroke-linecap:butt;stroke-linejoin:miter;stroke-miterlimit:4;stroke-opacity:1;stroke-dasharray:none;stroke-dashoffset:0;marker:none;visibility:visible;display:inline;overflow:visible;enable-background:accumulate" />
      <path
         inkscape:connector-curvature="0"
         id="path3114"
         d="m 112.941,38.23137 0.0708,1.48793 -1.48793,0.85024"
         style="color:#000000;fill:none;stroke:#000000;stroke-width:0.625;stroke-linecap:butt;stroke-linejoin:miter;stroke-miterlimit:4;stroke-opacity:1;stroke-dasharray:none;stroke-dashoffset:0;marker:none;visibility:visible;display:inline;overflow:visible;enable-background:accumulate" />
      <path
         inkscape:connector-curvature="0"
         id="path3116"
         d="m 107.83952,39.22332 1.06281,0.35427 0,0.9211"
         style="color:#000000;fill:none;stroke:#000000;stroke-width:0.625;stroke-linecap:butt;stroke-linejoin:miter;stroke-miterlimit:4;stroke-opacity:1;stroke-dasharray:none;stroke-dashoffset:0;marker:none;visibility:visible;display:inline;overflow:visible;enable-background:accumulate" />
    </g>
    <path
       style="color:#000000;fill:none;stroke:#000000;stroke-width:0.5576939;stroke-linecap:butt;stroke-linejoin:miter;stroke-miterlimit:4;stroke-opacity:1;stroke-dasharray:none;stroke-dashoffset:0;marker:none;visibility:visible;display:inline;overflow:visible;enable-background:accumulate"
       d="m 247.40434,208.45426 -13.32407,-0.70127"
       id="path3136"
       inkscape:connector-curvature="0" />
    <path
       style="color:#000000;fill:none;stroke:#000000;stroke-width:0.5576939;stroke-linecap:butt;stroke-linejoin:miter;stroke-miterlimit:4;stroke-opacity:1;stroke-dasharray:none;stroke-dashoffset:0;marker:none;visibility:visible;display:inline;overflow:visible;enable-background:accumulate"
       d="m 170.45744,148.55817 -8.46087,16.82977"
       id="path3184"
       inkscape:connector-curvature="0"
       sodipodi:nodetypes="cc" />
    <path
       style="color:#000000;fill:none;stroke:#000000;stroke-width:0.5576939;stroke-linecap:butt;stroke-linejoin:miter;stroke-miterlimit:4;stroke-opacity:1;stroke-dasharray:none;stroke-dashoffset:0;marker:none;visibility:visible;display:inline;overflow:visible;enable-background:accumulate"
       d="m 175.33164,152.28279 -8.09301,16.09405"
       id="path3184-0"
       inkscape:connector-curvature="0"
       sodipodi:nodetypes="cc" />
    <rect
       style="fill:none;stroke:#000000;stroke-width:0.5576939;stroke-miterlimit:4;stroke-opacity:1;stroke-dasharray:none;stroke-dashoffset:0"
       id="rect3204"
       width="43.959736"
       height="15.910112"
       x="200.02348"
       y="74.034134"
       transform="matrix(0.8908524,0.45429286,-0.45429286,0.8908524,0,0)" />
    <path
       style="color:#000000;fill:#dedede;fill-opacity:1;stroke:none;stroke-width:0.62500000000000000;marker:none;visibility:visible;display:inline;overflow:visible;enable-background:accumulate"
       d="m 164.91205,160.16525 -0.47757,0.99387 4.3111,3.6141 0.43885,-0.91643 z"
       id="path3974"
       inkscape:connector-curvature="0"
       sodipodi:nodetypes="ccccc" />
    <path
       style="color:#000000;fill:none;stroke:#000000;stroke-width:0.5576939;stroke-linecap:butt;stroke-linejoin:miter;stroke-miterlimit:4;stroke-opacity:1;stroke-dasharray:none;stroke-dashoffset:0;marker:none;visibility:visible;display:inline;overflow:visible;enable-background:accumulate"
       d="m 177.75826,134.36459 -3.42697,6.89622"
       id="path3184-8"
       inkscape:connector-curvature="0"
       sodipodi:nodetypes="cc" />
    <path
       style="color:#000000;fill:none;stroke:#000000;stroke-width:0.5576939;stroke-linecap:butt;stroke-linejoin:miter;stroke-miterlimit:4;stroke-opacity:1;stroke-dasharray:none;stroke-dashoffset:0;marker:none;visibility:visible;display:inline;overflow:visible;enable-background:accumulate"
       d="m 183.03578,136.83414 -3.39342,6.6613"
       id="path3184-8-6"
       inkscape:connector-curvature="0"
       sodipodi:nodetypes="cc" />
    <rect
       style="fill:#dedede;fill-opacity:1;stroke:#000000;stroke-width:0.55769389999999996;stroke-miterlimit:4;stroke-opacity:1;stroke-dasharray:none;stroke-dashoffset:0"
       id="rect3204-1"
       width="43.959736"
       height="15.910112"
       x="199.30507"
       y="27.085567"
       transform="matrix(0.8908524,0.45429286,-0.45429286,0.8908524,0,0)" />
    <path
       sodipodi:type="arc"
       style="color:#000000;fill:none;stroke:#000000;stroke-width:1.25;stroke-linecap:butt;stroke-linejoin:miter;stroke-miterlimit:4;stroke-opacity:1;stroke-dasharray:none;stroke-dashoffset:0;marker:none;marker-end:url(#Arrow2Mend);visibility:visible;display:inline;overflow:visible;enable-background:accumulate"
       id="path4049"
       sodipodi:cx="266.29047"
       sodipodi:cy="243.45357"
       sodipodi:rx="53.683914"
       sodipodi:ry="53.683914"
       d="M 266.46364,297.1372 A 53.683914,53.683914 0 0 1 212.77966,247.76124"
       sodipodi:start="1.5675705"
       sodipodi:end="3.0612649"
       transform="matrix(0.89231023,0,0,0.89231023,58.183596,-22.522176)"
       sodipodi:open="true" />
    <text
       xml:space="preserve"
       style="font-size:9.80727291px;font-style:normal;font-variant:normal;font-weight:normal;font-stretch:normal;text-indent:0;text-align:end;text-decoration:none;line-height:125%;letter-spacing:0px;word-spacing:0px;text-transform:none;direction:ltr;block-progression:tb;writing-mode:lr-tb;text-anchor:end;baseline-shift:baseline;color:#000000;fill:#000000;fill-opacity:1;fill-rule:nonzero;stroke:none;stroke-width:1px;marker:none;visibility:visible;display:inline;overflow:visible;enable-background:accumulate;font-family:Courier 10 Pitch;-inkscape-font-specification:Courier 10 Pitch"
       x="263.90741"
       y="242.88805"
       id="text4495"
       sodipodi:linespacing="125%"><tspan
         sodipodi:role="line"
         id="tspan4497"
         x="263.90741"
         y="242.88805">θ</tspan></text>
    <path
       sodipodi:type="arc"
       style="color:#000000;fill:none;stroke:#000000;stroke-width:1.63817906;stroke-linecap:butt;stroke-linejoin:miter;stroke-miterlimit:4;stroke-opacity:1;stroke-dasharray:none;stroke-dashoffset:0;marker:none;marker-end:url(#Arrow2Mend);visibility:visible;display:inline;overflow:visible;enable-background:accumulate"
       id="path4499"
       sodipodi:cx="271.46115"
       sodipodi:cy="230.37477"
       sodipodi:rx="61.896183"
       sodipodi:ry="61.896183"
       d="M 271.66082,292.27063 A 61.896183,61.896183 0 0 1 215.12844,204.72788"
       sodipodi:start="1.5675705"
       sodipodi:end="3.5688249"
       sodipodi:open="true"
       transform="matrix(0.68087051,0,0,0.68087051,52.220801,36.90315)" />
    <text
       xml:space="preserve"
       style="font-size:12px;font-style:normal;font-variant:normal;font-weight:normal;font-stretch:normal;text-indent:0;text-align:end;text-decoration:none;line-height:125%;letter-spacing:0px;word-spacing:0px;text-transform:none;direction:ltr;block-progression:tb;writing-mode:lr-tb;text-anchor:end;baseline-shift:baseline;color:#000000;fill:#000000;fill-opacity:1;fill-rule:nonzero;stroke:none;stroke-width:1px;marker:none;visibility:visible;display:inline;overflow:visible;enable-background:accumulate;font-family:Courier 10 Pitch;-inkscape-font-specification:Courier 10 Pitch"
       x="196.32793"
       y="226.33243"
       id="text4687"
       sodipodi:linespacing="125%"><tspan
         sodipodi:role="line"
         id="tspan4689"
         x="196.32793"
         y="226.33243">φ</tspan></text>
  </g>
</svg>
