<?xml version="1.0" encoding="UTF-8" standalone="no"?>
<!-- Created with Inkscape (http://www.inkscape.org/) -->
<svg
   xmlns:dc="http://purl.org/dc/elements/1.1/"
   xmlns:cc="http://creativecommons.org/ns#"
   xmlns:rdf="http://www.w3.org/1999/02/22-rdf-syntax-ns#"
   xmlns:svg="http://www.w3.org/2000/svg"
   xmlns="http://www.w3.org/2000/svg"
   xmlns:sodipodi="http://sodipodi.sourceforge.net/DTD/sodipodi-0.dtd"
   xmlns:inkscape="http://www.inkscape.org/namespaces/inkscape"
   width="744.09448819"
   height="1052.3622047"
   id="svg2"
   sodipodi:version="0.32"
   inkscape:version="0.46"
   sodipodi:docname="boosts-tangling.svg"
   inkscape:output_extension="org.inkscape.output.svg.inkscape">
  <defs
     id="defs4">
    <marker
       inkscape:stockid="Arrow2Mend"
       orient="auto"
       refY="0.0"
       refX="0.0"
       id="Arrow2Mend"
       style="overflow:visible;">
      <path
         id="path3361"
         style="font-size:12.0;fill-rule:evenodd;stroke-width:0.62500000;stroke-linejoin:round;"
         d="M 8.7185878,4.0337352 L -2.2072895,0.016013256 L 8.7185884,-4.0017078 C 6.9730900,-1.6296469 6.9831476,1.6157441 8.7185878,4.0337352 z "
         transform="scale(0.6) rotate(180) translate(0,0)" />
    </marker>
    <inkscape:perspective
       sodipodi:type="inkscape:persp3d"
       inkscape:vp_x="0 : 526.18109 : 1"
       inkscape:vp_y="0 : 1000 : 0"
       inkscape:vp_z="744.09448 : 526.18109 : 1"
       inkscape:persp3d-origin="372.04724 : 350.78739 : 1"
       id="perspective10" />
  </defs>
  <sodipodi:namedview
     id="base"
     pagecolor="#ffffff"
     bordercolor="#666666"
     borderopacity="1.0"
     gridtolerance="10000"
     guidetolerance="10"
     objecttolerance="10"
     inkscape:pageopacity="0.0"
     inkscape:pageshadow="2"
     inkscape:zoom="2.4612141"
     inkscape:cx="157.06701"
     inkscape:cy="684.51547"
     inkscape:document-units="px"
     inkscape:current-layer="layer1"
     showgrid="false"
     inkscape:window-width="1278"
     inkscape:window-height="996"
     inkscape:window-x="3"
     inkscape:window-y="4" />
  <metadata
     id="metadata7">
    <rdf:RDF>
      <cc:Work
         rdf:about="">
        <dc:format>image/svg+xml</dc:format>
        <dc:type
           rdf:resource="http://purl.org/dc/dcmitype/StillImage" />
      </cc:Work>
    </rdf:RDF>
  </metadata>
  <g
     inkscape:label="Layer 1"
     inkscape:groupmode="layer"
     id="layer1">
    <g
       id="g2514">
      <rect
         y="314.55365"
         x="2.881906"
         height="136.33156"
         width="184.25197"
         id="rect2383"
         style="fill:#dedede;fill-opacity:1;fill-rule:evenodd;stroke:none;stroke-width:0.53544941pt;stroke-linecap:butt;stroke-linejoin:miter;stroke-opacity:1" />
      <text
         sodipodi:linespacing="100%"
         id="text2380"
         y="367.91556"
         x="156.91496"
         style="font-size:10px;font-style:normal;font-variant:normal;font-weight:normal;font-stretch:normal;text-align:start;line-height:100%;writing-mode:lr-tb;text-anchor:start;fill:#000000;fill-opacity:1;stroke:none;stroke-width:1pt;stroke-linecap:butt;stroke-linejoin:miter;stroke-opacity:1;font-family:Bitstream Vera Sans;-inkscape-font-specification:Bitstream Vera Sans"
         xml:space="preserve"><tspan
           y="367.91556"
           x="156.91496"
           id="tspan2382"
           sodipodi:role="line">x''</tspan></text>
      <text
         sodipodi:linespacing="100%"
         id="text2384"
         y="401.80508"
         x="156.91496"
         style="font-size:10px;font-style:normal;font-variant:normal;font-weight:normal;font-stretch:normal;text-align:start;line-height:100%;writing-mode:lr-tb;text-anchor:start;fill:#000000;fill-opacity:1;stroke:none;stroke-width:1pt;stroke-linecap:butt;stroke-linejoin:miter;stroke-opacity:1;font-family:Bitstream Vera Sans;-inkscape-font-specification:Bitstream Vera Sans"
         xml:space="preserve"><tspan
           y="401.80508"
           x="156.91496"
           id="tspan2386"
           sodipodi:role="line">y''</tspan></text>
      <text
         sodipodi:linespacing="100%"
         id="text2388"
         y="435.69464"
         x="156.91496"
         style="font-size:10px;font-style:normal;font-variant:normal;font-weight:normal;font-stretch:normal;text-align:start;line-height:100%;writing-mode:lr-tb;text-anchor:start;fill:#000000;fill-opacity:1;stroke:none;stroke-width:1pt;stroke-linecap:butt;stroke-linejoin:miter;stroke-opacity:1;font-family:Bitstream Vera Sans;-inkscape-font-specification:Bitstream Vera Sans"
         xml:space="preserve"><tspan
           y="435.69464"
           x="156.91496"
           id="tspan2390"
           sodipodi:role="line">z''</tspan></text>
      <text
         sodipodi:linespacing="100%"
         id="text2392"
         y="367.91556"
         x="22.348867"
         style="font-size:10px;font-style:normal;font-variant:normal;font-weight:normal;font-stretch:normal;text-align:start;line-height:100%;writing-mode:lr-tb;text-anchor:start;fill:#000000;fill-opacity:1;stroke:none;stroke-width:1pt;stroke-linecap:butt;stroke-linejoin:miter;stroke-opacity:1;font-family:Bitstream Vera Sans;-inkscape-font-specification:Bitstream Vera Sans"
         xml:space="preserve"><tspan
           y="367.91556"
           x="22.348867"
           id="tspan2394"
           sodipodi:role="line">x</tspan></text>
      <text
         sodipodi:linespacing="100%"
         id="text2396"
         y="401.80508"
         x="22.348867"
         style="font-size:10px;font-style:normal;font-variant:normal;font-weight:normal;font-stretch:normal;text-align:start;line-height:100%;writing-mode:lr-tb;text-anchor:start;fill:#000000;fill-opacity:1;stroke:none;stroke-width:1pt;stroke-linecap:butt;stroke-linejoin:miter;stroke-opacity:1;font-family:Bitstream Vera Sans;-inkscape-font-specification:Bitstream Vera Sans"
         xml:space="preserve"><tspan
           y="401.80508"
           x="22.348867"
           id="tspan2398"
           sodipodi:role="line">y</tspan></text>
      <text
         sodipodi:linespacing="100%"
         id="text2400"
         y="435.69464"
         x="22.348867"
         style="font-size:10px;font-style:normal;font-variant:normal;font-weight:normal;font-stretch:normal;text-align:start;line-height:100%;writing-mode:lr-tb;text-anchor:start;fill:#000000;fill-opacity:1;stroke:none;stroke-width:1pt;stroke-linecap:butt;stroke-linejoin:miter;stroke-opacity:1;font-family:Bitstream Vera Sans;-inkscape-font-specification:Bitstream Vera Sans"
         xml:space="preserve"><tspan
           y="435.69464"
           x="22.348867"
           id="tspan2402"
           sodipodi:role="line">z</tspan></text>
      <text
         sodipodi:linespacing="100%"
         id="text2404"
         y="367.91556"
         x="89.797928"
         style="font-size:10px;font-style:normal;font-variant:normal;font-weight:normal;font-stretch:normal;text-align:start;line-height:100%;writing-mode:lr-tb;text-anchor:start;fill:#000000;fill-opacity:1;stroke:none;stroke-width:1pt;stroke-linecap:butt;stroke-linejoin:miter;stroke-opacity:1;font-family:Bitstream Vera Sans;-inkscape-font-specification:Bitstream Vera Sans"
         xml:space="preserve"><tspan
           y="367.91556"
           x="89.797928"
           id="tspan2406"
           sodipodi:role="line">x'</tspan></text>
      <text
         sodipodi:linespacing="100%"
         id="text2408"
         y="401.80508"
         x="89.797928"
         style="font-size:10px;font-style:normal;font-variant:normal;font-weight:normal;font-stretch:normal;text-align:start;line-height:100%;writing-mode:lr-tb;text-anchor:start;fill:#000000;fill-opacity:1;stroke:none;stroke-width:1pt;stroke-linecap:butt;stroke-linejoin:miter;stroke-opacity:1;font-family:Bitstream Vera Sans;-inkscape-font-specification:Bitstream Vera Sans"
         xml:space="preserve"><tspan
           y="401.80508"
           x="89.797928"
           id="tspan2410"
           sodipodi:role="line">y'</tspan></text>
      <text
         sodipodi:linespacing="100%"
         id="text2412"
         y="435.69464"
         x="89.797928"
         style="font-size:10px;font-style:normal;font-variant:normal;font-weight:normal;font-stretch:normal;text-align:start;line-height:100%;writing-mode:lr-tb;text-anchor:start;fill:#000000;fill-opacity:1;stroke:none;stroke-width:1pt;stroke-linecap:butt;stroke-linejoin:miter;stroke-opacity:1;font-family:Bitstream Vera Sans;-inkscape-font-specification:Bitstream Vera Sans"
         xml:space="preserve"><tspan
           y="435.69464"
           x="89.797928"
           id="tspan2414"
           sodipodi:role="line">z'</tspan></text>
      <text
         sodipodi:linespacing="100%"
         id="text2502"
         y="334.026"
         x="22.348867"
         style="font-size:10px;font-style:normal;font-variant:normal;font-weight:normal;font-stretch:normal;text-align:start;line-height:100%;writing-mode:lr-tb;text-anchor:start;fill:#000000;fill-opacity:1;stroke:none;stroke-width:1pt;stroke-linecap:butt;stroke-linejoin:miter;stroke-opacity:1;font-family:Bitstream Vera Sans;-inkscape-font-specification:Bitstream Vera Sans"
         xml:space="preserve"><tspan
           y="334.026"
           x="22.348867"
           id="tspan2504"
           sodipodi:role="line">t</tspan></text>
      <text
         sodipodi:linespacing="100%"
         id="text2506"
         y="334.026"
         x="89.797928"
         style="font-size:10px;font-style:normal;font-variant:normal;font-weight:normal;font-stretch:normal;text-align:start;line-height:100%;writing-mode:lr-tb;text-anchor:start;fill:#000000;fill-opacity:1;stroke:none;stroke-width:1pt;stroke-linecap:butt;stroke-linejoin:miter;stroke-opacity:1;font-family:Bitstream Vera Sans;-inkscape-font-specification:Bitstream Vera Sans"
         xml:space="preserve"><tspan
           y="334.026"
           x="89.797928"
           id="tspan2508"
           sodipodi:role="line">t'</tspan></text>
      <text
         sodipodi:linespacing="100%"
         id="text2510"
         y="334.026"
         x="156.91496"
         style="font-size:10px;font-style:normal;font-variant:normal;font-weight:normal;font-stretch:normal;text-align:start;line-height:100%;writing-mode:lr-tb;text-anchor:start;fill:#000000;fill-opacity:1;stroke:none;stroke-width:1pt;stroke-linecap:butt;stroke-linejoin:miter;stroke-opacity:1;font-family:Bitstream Vera Sans;-inkscape-font-specification:Bitstream Vera Sans"
         xml:space="preserve"><tspan
           y="334.026"
           x="156.91496"
           id="tspan2512"
           sodipodi:role="line">t''</tspan></text>
    </g>
    <path
       style="opacity:1;fill:none;fill-opacity:0.75000000000000000;fill-rule:evenodd;stroke:#000000;stroke-width:0.875;stroke-linecap:butt;stroke-linejoin:miter;marker:none;marker-start:none;marker-mid:none;marker-end:none;stroke-miterlimit:4;stroke-dasharray:none;stroke-dashoffset:0;stroke-opacity:1;visibility:visible;display:inline;overflow:visible;enable-background:accumulate"
       d="M 30.041773,331.04636 C 30.511958,330.88669 30.982143,330.72701 31.452329,330.56734 C 31.98284,330.38719 33.432981,330.82941 34.071932,330.86212 C 34.663087,330.89239 35.19727,331.34689 35.683995,331.59906 C 36.37606,331.95762 36.6454,332.3783 37.152124,332.92556 C 37.713486,333.53183 37.951686,334.13377 38.303598,334.84161 C 38.645894,335.53012 38.831779,336.35397 39.023269,337.08929 C 39.245,337.94074 39.811475,338.8717 40.145956,339.70544 C 40.488069,340.5582 40.965083,341.28087 41.470151,342.02681 C 42.052022,342.88619 42.645788,343.17978 43.514017,343.68493 C 44.59194,344.31209 45.390088,344.34818 46.507849,344.34818 C 47.11542,344.34818 47.935725,343.20419 48.321421,342.83745 C 48.965437,342.22508 48.413264,341.33987 48.321421,340.81086 C 48.110703,339.59712 45.843361,339.92985 45.183654,340.00022 C 43.266725,340.20469 45.456067,344.57741 45.759391,345.08513 C 46.760086,346.76013 47.271721,347.91452 47.026012,349.80156 C 46.79916,351.54379 45.975217,351.49576 46.104833,352.82303 C 46.208386,353.88341 53.820916,350.74932 54.510593,350.53851 C 56.063078,350.06396 57.255807,350.07952 58.310456,350.28058 C 59.643041,350.53462 55.537623,349.21508 54.942395,347.99605 C 52.702591,343.40893 56.747177,340.21579 59.490717,337.27353 C 62.008418,334.57346 57.564044,332.63823 55.316624,332.00438 C 51.544593,330.94054 55.730012,339.27024 55.978722,339.81598 C 57.48808,343.12795 58.457191,345.75054 58.511964,349.39624 C 58.549037,351.86384 54.945723,353.51203 53.100037,354.33376 C 50.171391,355.63765 50.27173,352.23345 50.307713,350.20688 C 50.353617,347.62156 53.535039,345.55741 55.63328,344.90089 C 58.097955,344.12972 62.296007,347.98835 63.520875,349.65417 C 64.757999,351.33666 62.637973,354.02833 62.023959,355.51287 C 61.238658,357.41156 62.887937,358.83158 62.023959,360.89256 C 60.951348,363.45123 58.85471,363.14353 61.620944,365.16683 C 63.859216,366.80397 70.679673,360.66994 72.416011,359.34498 C 72.866222,359.00143 72.934174,358.33782 73.193256,357.83424 C 73.754305,356.74373 76.762894,364.37678 76.791612,365.27737 C 76.855236,367.27262 76.983777,367.43813 78.749117,367.70928 C 80.165007,367.92676 83.233306,365.75832 84.736781,365.31422 C 84.916711,365.26107 85.922858,366.05182 86.147337,366.2354 C 86.51559,366.53655 87.523859,365.77057 87.557892,365.75638 C 87.700061,365.69714 87.250833,365.78095 87.097303,365.79323"
       id="path2541" />
    <path
       style="opacity:1;fill:none;fill-opacity:0.75000000000000000;fill-rule:evenodd;stroke:#000000;stroke-width:0.875;stroke-linecap:butt;stroke-linejoin:miter;marker:none;marker-start:none;marker-mid:none;marker-end:none;stroke-miterlimit:4;stroke-dasharray:none;stroke-dashoffset:0;stroke-opacity:1;visibility:visible;display:inline;overflow:visible;enable-background:accumulate"
       d="M 31.567476,364.76151 C 31.790173,364.6687 35.430738,365.39471 36.029437,365.42476 C 38.045853,365.52598 39.442589,365.0306 41.095922,363.95087 C 42.847851,362.80676 43.068758,361.5412 43.39887,359.63976 C 43.667051,358.09503 43.124584,356.53214 43.024641,354.99701 C 42.903479,353.13597 45.17124,351.85044 46.59421,351.3123 C 48.835955,350.46451 51.446552,350.88595 53.790921,350.68589 C 55.441382,350.54506 55.9309,348.32297 56.237803,347.11172 C 56.794294,344.91544 56.545618,343.28471 55.71964,341.21617 C 54.80899,338.93559 51.996732,340.20394 50.566795,341.03194 C 48.358533,342.31063 52.17646,346.52598 52.869742,347.62758 C 54.381916,350.03037 55.152927,351.13046 54.740887,353.96529 C 54.410273,356.23992 53.46803,359.22799 52.409153,361.26103 C 51.080406,363.81223 48.509889,362.19032 47.515389,360.56093 C 46.06946,358.19193 48.728876,353.09906 49.731976,350.94383 C 50.76846,348.71687 52.076148,346.21415 54.596953,347.44334 C 57.488254,348.8532 58.351059,352.33811 60.46947,354.40746 C 62.046281,355.94775 66.70932,352.62303 68.069197,351.865 C 70.441463,350.54266 70.037412,348.07402 69.450966,345.82207 C 68.886361,343.65399 68.442059,341.45993 68.04041,339.26327 C 67.580394,336.7474 70.189198,335.25348 71.926635,334.14152 C 73.186774,333.33503 74.776294,332.87004 76.158301,332.33601 C 77.509767,331.81378 79.033011,331.60827 80.447541,331.34113 C 81.708304,331.10304 82.669417,331.34283 83.815602,331.70961 C 84.916765,332.06198 86.385398,331.71614 86.895795,331.63591"
       id="path2543" />
    <path
       style="opacity:1;fill:none;fill-opacity:0.75000000000000000;fill-rule:evenodd;stroke:#000000;stroke-width:0.875;stroke-linecap:butt;stroke-linejoin:miter;marker:none;marker-start:none;marker-mid:none;marker-end:none;stroke-miterlimit:4;stroke-dasharray:none;stroke-dashoffset:0;stroke-opacity:1;visibility:visible;display:inline;overflow:visible;enable-background:accumulate"
       d="M 98.842336,330.97266 C 101.99505,330.47708 102.82832,330.84205 105.69361,332.74133 C 107.89999,334.20384 109.98462,335.45064 111.68127,337.49461 C 112.82437,338.8717 113.6239,340.23758 114.30087,341.87942 C 115.15932,343.96137 113.28712,345.98038 112.54487,347.77497 C 111.33155,350.70851 116.12128,352.65061 117.9568,353.22835 C 120.48607,354.02445 123.04072,354.73199 124.40506,357.06045 C 125.84339,359.51521 126.74051,361.28191 129.41397,362.51383 C 131.73745,363.5845 131.47027,363.97938 130.85331,366.67756 C 130.1355,369.81678 127.56619,371.44472 126.47771,374.23123 C 125.91896,375.66163 130.55239,375.78778 131.14118,375.9262 C 134.54477,376.72639 134.27982,377.99917 132.55173,373.75222 C 130.78136,369.40134 131.18421,364.662 130.19121,360.15562 C 129.5749,357.35866 127.53635,355.29272 126.76558,352.5651 C 126.52596,351.71713 127.36889,350.90063 127.8019,350.13319 C 128.93467,348.12558 124.77933,354.13539 124.95201,356.43405 C 125.33377,361.51604 125.94062,366.705 126.82315,371.72563 C 127.25888,374.20447 128.12849,375.73076 129.81698,377.51063 C 131.38769,379.16634 133.38698,380.38507 135.11376,381.8586 C 136.47635,383.02133 136.50304,385.05566 137.33035,386.57503 C 138.22076,388.21028 139.61828,389.27316 141.159,390.11236 C 142.30001,390.73385 145.21129,389.97176 146.54214,390.14921 C 148.15349,390.36405 149.65128,391.48555 150.77381,392.54427 C 151.56019,393.28596 152.1067,393.59717 152.67374,394.49717 C 153.07076,395.12732 153.44517,395.68437 153.91157,396.30268 C 153.93584,396.33486 153.98834,396.32725 154.02672,396.33953"
       id="path2545" />
    <path
       style="opacity:1;fill:none;fill-opacity:0.75000000000000000;fill-rule:evenodd;stroke:#000000;stroke-width:0.875;stroke-linecap:butt;stroke-linejoin:miter;marker:none;marker-start:none;marker-mid:none;marker-end:none;stroke-miterlimit:4;stroke-dasharray:none;stroke-dashoffset:0;stroke-opacity:1;visibility:visible;display:inline;overflow:visible;enable-background:accumulate"
       d="M 100.51197,398.6609 C 100.88814,399.15959 104.08636,398.76951 104.80121,398.69775 C 105.93882,398.58354 107.20465,397.63087 108.31321,397.26071 C 110.24346,396.61617 112.25027,394.69676 113.98422,393.61284 C 115.78047,392.48997 117.22579,390.85169 117.61136,388.82271 C 117.93068,387.14236 116.40974,384.70277 116.17202,382.96401 C 115.81975,380.38743 122.76978,380.89185 124.0884,380.86372 C 127.80404,380.78445 130.34259,380.1576 133.53049,378.24757 C 135.62776,376.991 135.64948,373.10068 135.51678,371.06238 C 135.32973,368.18938 135.58434,366.26322 132.8396,364.94575 C 130.31534,363.7341 128.0512,362.09645 125.90197,364.50358 C 124.04764,366.58044 125.28547,370.10108 123.39752,372.24149 C 121.07796,374.8712 118.44244,366.89875 118.27346,365.79323 C 117.83704,362.93811 122.73458,360.76386 124.7505,360.11877 C 126.66385,359.5065 129.23926,360.20819 131.40026,359.56606 C 133.33293,358.99178 134.49283,358.81634 136.03494,357.46577 C 136.55761,357.00802 134.29271,353.77064 134.04865,353.30204 C 133.33063,351.92346 136.0402,351.71681 136.75461,351.60707 C 139.31275,351.21414 141.42705,348.86 141.93625,346.44847 C 142.42717,344.12346 143.77073,341.59472 145.21795,339.74229 C 146.19913,338.48637 147.52046,337.43547 148.70115,336.3892 C 149.46453,335.71273 150.15088,334.95455 150.88895,334.25206 C 151.45422,333.71405 151.96569,333.22064 152.55859,332.74133 C 152.65969,332.65959 152.793,332.81634 152.90403,332.85187"
       id="path2547" />
    <path
       style="opacity:1;fill:none;fill-opacity:0.75;fill-rule:evenodd;stroke:#000000;stroke-width:0.875;stroke-linecap:butt;stroke-linejoin:miter;marker:none;marker-start:none;marker-mid:none;marker-end:url(#Arrow2Mend);stroke-miterlimit:4;stroke-dasharray:none;stroke-dashoffset:0;stroke-opacity:1;visibility:visible;display:inline;overflow:visible;enable-background:accumulate"
       d="M 86.538927,331.88433 L 88.481437,331.88433"
       id="path3329" />
    <path
       style="opacity:1;fill:none;fill-opacity:0.75;fill-rule:evenodd;stroke:#000000;stroke-width:0.875;stroke-linecap:butt;stroke-linejoin:miter;marker:none;marker-start:none;marker-mid:none;marker-end:url(#Arrow2Mend);stroke-miterlimit:4;stroke-dasharray:none;stroke-dashoffset:0;stroke-opacity:1;visibility:visible;display:inline;overflow:visible;enable-background:accumulate"
       d="M 86.59701,365.49821 L 88.53952,365.49821"
       id="path4109" />
    <path
       style="opacity:1;fill:none;fill-opacity:0.75;fill-rule:evenodd;stroke:#000000;stroke-width:0.875;stroke-linecap:butt;stroke-linejoin:miter;marker:none;marker-start:none;marker-mid:none;marker-end:url(#Arrow2Mend);stroke-miterlimit:4;stroke-dasharray:none;stroke-dashoffset:0;stroke-opacity:1;visibility:visible;display:inline;overflow:visible;enable-background:accumulate"
       d="M 153.17378,332.6041 L 154.91817,331.74942"
       id="path4111"
       inkscape:transform-center-y="4.9772183" />
    <path
       style="opacity:1;fill:none;fill-opacity:0.75;fill-rule:evenodd;stroke:#000000;stroke-width:0.875;stroke-linecap:butt;stroke-linejoin:miter;marker:none;marker-start:none;marker-mid:none;marker-end:url(#Arrow2Mend);stroke-miterlimit:4;stroke-dasharray:none;stroke-dashoffset:0;stroke-opacity:1;visibility:visible;display:inline;overflow:visible;enable-background:accumulate"
       d="M 154.42914,396.32603 L 155.78932,397.71285"
       id="path4113" />
  </g>
</svg>
