<?xml version="1.0" encoding="UTF-8" standalone="no"?>
<!-- Created with Inkscape (http://www.inkscape.org/) -->
<svg
   xmlns:dc="http://purl.org/dc/elements/1.1/"
   xmlns:cc="http://creativecommons.org/ns#"
   xmlns:rdf="http://www.w3.org/1999/02/22-rdf-syntax-ns#"
   xmlns:svg="http://www.w3.org/2000/svg"
   xmlns="http://www.w3.org/2000/svg"
   xmlns:sodipodi="http://sodipodi.sourceforge.net/DTD/sodipodi-0.dtd"
   xmlns:inkscape="http://www.inkscape.org/namespaces/inkscape"
   width="744.09448819"
   height="1052.3622047"
   id="svg2476"
   sodipodi:version="0.32"
   inkscape:version="0.46"
   sodipodi:docname="light-cone-compared-to-circle.svg"
   inkscape:output_extension="org.inkscape.output.svg.inkscape">
  <defs
     id="defs2478">
    <inkscape:perspective
       sodipodi:type="inkscape:persp3d"
       inkscape:vp_x="0 : 526.18109 : 1"
       inkscape:vp_y="0 : 1000 : 0"
       inkscape:vp_z="744.09448 : 526.18109 : 1"
       inkscape:persp3d-origin="372.04724 : 350.78739 : 1"
       id="perspective2484" />
  </defs>
  <sodipodi:namedview
     id="base"
     pagecolor="#ffffff"
     bordercolor="#666666"
     borderopacity="1.0"
     gridtolerance="10000"
     guidetolerance="10"
     objecttolerance="10"
     inkscape:pageopacity="0.0"
     inkscape:pageshadow="2"
     inkscape:zoom="2.5729421"
     inkscape:cx="228.14629"
     inkscape:cy="573.57041"
     inkscape:document-units="px"
     inkscape:current-layer="layer1"
     showgrid="false"
     inkscape:window-width="1278"
     inkscape:window-height="996"
     inkscape:window-x="0"
     inkscape:window-y="0" />
  <metadata
     id="metadata2481">
    <rdf:RDF>
      <cc:Work
         rdf:about="">
        <dc:format>image/svg+xml</dc:format>
        <dc:type
           rdf:resource="http://purl.org/dc/dcmitype/StillImage" />
      </cc:Work>
    </rdf:RDF>
  </metadata>
  <g
     inkscape:label="Layer 1"
     inkscape:groupmode="layer"
     id="layer1">
    <rect
       style="fill:#dedede;fill-opacity:1;stroke:none;stroke-width:0.875;stroke-miterlimit:4;stroke-dasharray:none;stroke-dashoffset:0;stroke-opacity:1"
       id="rect2417"
       width="184.25197"
       height="207.93317"
       x="158.96201"
       y="394.74927" />
    <path
       style="fill:#929292;fill-opacity:1;fill-rule:evenodd;stroke:none;stroke-width:1px;stroke-linecap:butt;stroke-linejoin:miter;stroke-opacity:1"
       d="M 268.00173,532.69438 L 296.14028,527.65907 L 290.21637,554.31663 L 262.07783,560.83292 L 268.00173,532.69438 z"
       id="path3477"
       sodipodi:nodetypes="ccccc" />
    <path
       style="fill:#585858;fill-opacity:1;fill-rule:evenodd;stroke:none;stroke-width:1px;stroke-linecap:butt;stroke-linejoin:miter;stroke-opacity:1"
       d="M 295.84407,527.80717 L 323.68642,521.58707 L 319.24349,548.83702 L 290.21637,554.46473 L 295.84407,527.80717 z"
       id="path3479"
       sodipodi:nodetypes="ccccc" />
    <rect
       style="fill:#929292;fill-opacity:1;stroke:none;stroke-width:0.875;stroke-miterlimit:4;stroke-dasharray:none;stroke-dashoffset:0;stroke-opacity:1"
       id="rect3471"
       width="24.584198"
       height="24.584198"
       x="181.06847"
       y="530.17676" />
    <rect
       style="fill:#585858;fill-opacity:1;stroke:none;stroke-width:0.875;stroke-miterlimit:4;stroke-dasharray:none;stroke-dashoffset:0;stroke-opacity:1"
       id="rect3459"
       width="24.584198"
       height="24.584198"
       x="205.80075"
       y="530.32483" />
    <g
       id="g3415"
       transform="matrix(0.9133842,0,0,0.9133842,17.357449,25.502669)">
      <path
         id="path109"
         d="M 244.89166,414.18237 C 236.29985,413.59038 228.50032,413.02722 226.43792,412.59523 C 224.37553,412.16324 221.29707,411.11893 220.32592,411.49309 C 219.35477,411.86725 216.50284,414.30439 215.81623,415.12715 C 215.12944,415.9492 209.48417,420.68912 208.91692,421.24268 C 208.34949,421.79553 205.91514,423.29125 205.27474,426.5491 C 204.63432,429.80696 204.42665,432.45194 204.68128,433.69157 C 204.9359,434.93121 206.79062,438.00817 207.30002,439.03847 C 207.80869,440.06894 208.36228,442.08588 209.05053,442.71317 C 209.73806,443.34064 210.78368,443.16049 210.78368,443.16049"
         style="fill:none;stroke:#000000;stroke-width:0.625;stroke-miterlimit:4;stroke-dasharray:none" />
      <path
         id="path111"
         d="M 249.23488,429.7936 C 246.21724,431.51381 243.88855,433.86114 241.87162,434.41473 C 239.85485,434.96904 236.13452,435.73325 234.86532,436.78034 C 233.59613,437.82742 228.1737,440.25089 226.70978,441.37262 C 225.24657,442.49417 222.60234,443.73602 221.61604,443.78165 C 220.62974,443.82728 219.39011,444.08191 218.49415,444.64991 C 217.59766,445.21879 214.8941,446.59514 214.16169,446.4309 C 213.42927,446.26665 211.48623,445.56545 211.26191,444.98288 C 211.0376,444.4003 210.82697,442.6969 211.75248,441.33644 C 212.678,439.97599 213.84241,438.07784 214.54435,437.58431 C 215.24629,437.09079 218.33841,435.5646 219.36905,435.05664 C 220.39952,434.54796 223.07259,432.51384 223.3115,431.97615 C 223.55022,431.43774 225.5498,427.65676 225.5498,427.65676"
         style="fill:none;stroke:#000000;stroke-width:0.625;stroke-miterlimit:4;stroke-dasharray:none" />
      <path
         id="path113"
         d="M 223.55036,429.98877 C 223.55036,429.98877 221.75143,420.98012 221.99033,420.44242"
         style="fill:none;stroke:#000000;stroke-width:0.625;stroke-miterlimit:4;stroke-dasharray:none" />
      <path
         id="path115"
         d="M 221.6936,424.01366 C 220.20066,425.92696 217.57247,427.49787 216.8249,427.00509"
         style="fill:none;stroke:#000000;stroke-width:0.625;stroke-miterlimit:4;stroke-dasharray:none" />
      <path
         id="path117"
         d="M 216.10743,426.44534 C 215.14395,426.98411 212.23629,428.69916 211.94536,428.81123 C 211.65443,428.9233 211.15079,432.5373 210.95715,433.33653 C 210.76351,434.13577 210.48719,434.57725 210.48719,434.57725 C 210.48719,434.57725 213.13311,436.95849 213.20119,437.71318"
         style="fill:none;stroke:#000000;stroke-width:0.625;stroke-miterlimit:4;stroke-dasharray:none" />
      <path
         id="path119"
         d="M 217.68242,428.45893 C 216.29868,429.88377 214.11834,432.13654 214.11834,432.13654 L 213.02481,435.08531"
         style="fill:none;stroke:#000000;stroke-width:0.625;stroke-miterlimit:4;stroke-dasharray:none" />
      <line
         id="line121"
         y2="425.59122"
         x2="216.0564"
         y1="423.53888"
         x1="215.78638"
         style="fill:none;stroke:#000000;stroke-width:0.625;stroke-miterlimit:4;stroke-dasharray:none" />
      <line
         id="line123"
         y2="427.74609"
         x2="210.27074"
         y1="428.10437"
         x1="211.07765"
         style="fill:none;stroke:#000000;stroke-width:0.625;stroke-miterlimit:4;stroke-dasharray:none" />
      <line
         id="line125"
         y2="434.43988"
         x2="209.87622"
         y1="434.43042"
         x1="209.12943"
         style="fill:none;stroke:#000000;stroke-width:0.625;stroke-miterlimit:4;stroke-dasharray:none" />
      <polyline
         transform="matrix(0.7155515,-0.1714343,0.1714343,0.7155515,111.3103,307.05665)"
         id="polyline127"
         points="89.224,213.396 93.724,211.297 96.145,215.54 "
         style="fill:none;stroke:#000000;stroke-width:0.84941399;stroke-miterlimit:4;stroke-dasharray:none" />
      <path
         id="path129"
         d="M 218.5808,440.10075 C 218.5808,440.10075 218.49175,441.027 218.86554,441.2734"
         style="fill:none;stroke:#000000;stroke-width:0.625;stroke-miterlimit:4;stroke-dasharray:none" />
      <polyline
         transform="matrix(0.7155515,-0.1714343,0.1714343,0.7155515,111.3103,307.05665)"
         id="polyline131"
         points="96.595,194.59 94.906,195.481 94.228,196.808 "
         style="fill:none;stroke:#000000;stroke-width:0.84941399;stroke-miterlimit:4;stroke-dasharray:none" />
    </g>
    <g
       id="g3189"
       transform="matrix(0.9133842,0,0,0.9133842,17.357449,25.502669)">
      <path
         id="path3481"
         d="M 170.36252,447.12492 C 167.40905,450.04276 165.01116,453.54857 163.14443,457.60233 L 162.83032,457.86184 L 162.98377,457.93093 C 162.96607,457.97031 162.93308,458.00072 162.91548,458.0402 L 163.02795,457.93173 L 196.22175,472.63412 L 184.83698,438.6798 L 184.90446,438.61472 C 184.88193,438.62157 184.86028,438.62873 184.83778,438.63561 L 184.7952,438.54644 L 184.61524,438.71998 C 179.02333,440.46553 174.23271,443.30142 170.36252,447.12492 z"
         style="fill:#585858;fill-opacity:1;stroke:none;stroke-width:1.45970976;stroke-miterlimit:4;stroke-dasharray:none;stroke-dashoffset:0;stroke-opacity:1" />
      <path
         sodipodi:open="true"
         sodipodi:end="11.703053"
         sodipodi:start="5.6390007"
         transform="matrix(0.5829373,-0.1396621,0.1396621,0.5829373,49.297707,140.51855)"
         d="M 155.82873,559.39988 A 58.897896,58.897896 0 1 1 147.01348,550.00824"
         sodipodi:ry="58.897896"
         sodipodi:rx="58.897896"
         sodipodi:cy="594.77081"
         sodipodi:cx="108.73458"
         id="path2503"
         style="fill:none;fill-opacity:1;stroke:#000000;stroke-width:1.45970976;stroke-miterlimit:4;stroke-dasharray:none;stroke-dashoffset:0;stroke-opacity:1"
         sodipodi:type="arc" />
    </g>
    <g
       id="g3441"
       transform="matrix(0.9133842,0,0,0.9133842,25.167362,22.307705)">
      <path
         id="path3349"
         d="M 344.09693,490.23025 C 340.69224,482.31964 337.6244,475.12672 337.0649,473.0952 C 336.50539,471.06369 336.02547,467.84854 335.24843,467.1562 C 334.4714,466.46386 330.99945,465.04303 329.9537,464.80895 C 328.90851,464.57438 322.1109,461.72337 321.35914,461.47225 C 320.60793,461.22065 318.16414,459.7404 314.97428,460.66155 C 311.78441,461.5827 309.3375,462.60822 308.35174,463.40181 C 307.36597,464.1954 305.47857,467.25243 304.7955,468.17678 C 304.11196,469.10057 302.57181,470.51564 302.32892,471.41464 C 302.08556,472.31307 302.72416,473.16041 302.72416,473.16041"
         style="fill:none;stroke:#000000;stroke-width:0.625;stroke-miterlimit:4;stroke-dasharray:none" />
      <path
         id="path3351"
         d="M 332.20278,501.23495 C 329.2925,499.33875 326.13981,498.3421 324.72474,496.80195 C 323.3091,495.26228 320.92738,492.30386 319.41561,491.65439 C 317.90385,491.00491 313.26796,487.29217 311.60073,486.5037 C 309.93397,485.71579 307.6199,483.93276 307.12805,483.07663 C 306.63621,482.2205 305.84262,481.23474 304.92763,480.69794 C 304.0116,480.16107 301.55078,478.38683 301.36172,477.66043 C 301.17265,476.93402 300.90714,474.88547 301.32252,474.41946 C 301.73791,473.95345 303.15618,472.98678 304.78935,473.18728 C 306.42251,473.38778 308.64308,473.55468 309.40309,473.95303 C 310.16309,474.35139 312.93493,476.40258 313.85816,477.0866 C 314.78195,477.77014 317.81371,479.21632 318.40112,479.18274 C 318.9891,479.14866 323.26599,479.19673 323.26599,479.19673"
         style="fill:none;stroke:#000000;stroke-width:0.625;stroke-miterlimit:4;stroke-dasharray:none" />
      <path
         id="path3353"
         d="M 320.27757,478.48583 C 320.27757,478.48583 327.46489,472.76443 328.05231,472.73084"
         style="fill:none;stroke:#000000;stroke-width:0.625;stroke-miterlimit:4;stroke-dasharray:none" />
      <path
         id="path3355"
         d="M 324.74103,474.10097 C 322.35667,473.64888 319.75733,472.03067 319.85347,471.14047"
         style="fill:none;stroke:#000000;stroke-width:0.625;stroke-miterlimit:4;stroke-dasharray:none" />
      <path
         id="path3357"
         d="M 320.02293,470.2464 C 319.10302,469.63619 316.24765,467.83543 316.01489,467.62801 C 315.78212,467.4206 312.33816,468.62632 311.53889,468.81981 C 310.73963,469.01331 310.22063,468.9696 310.22063,468.9696 C 310.22063,468.9696 309.31387,472.41184 308.67396,472.81767"
         style="fill:none;stroke:#000000;stroke-width:0.625;stroke-miterlimit:4;stroke-dasharray:none" />
      <path
         id="path3359"
         d="M 318.95308,472.56816 C 317.05301,471.98967 314.05228,471.08167 314.05228,471.08167 L 310.92994,471.45849"
         style="fill:none;stroke:#000000;stroke-width:0.625;stroke-miterlimit:4;stroke-dasharray:none" />
      <line
         id="line3361"
         y2="469.81021"
         x2="320.75903"
         y1="468.6311"
         x1="322.46042"
         style="fill:none;stroke:#000000;stroke-width:0.625;stroke-miterlimit:4;stroke-dasharray:none" />
      <line
         id="line3363"
         y2="465.65161"
         x2="316.19577"
         y1="466.53302"
         x1="316.24643"
         style="fill:none;stroke:#000000;stroke-width:0.625;stroke-miterlimit:4;stroke-dasharray:none" />
      <line
         id="line3365"
         y2="468.36349"
         x2="310.06323"
         y1="467.69513"
         x1="309.72995"
         style="fill:none;stroke:#000000;stroke-width:0.625;stroke-miterlimit:4;stroke-dasharray:none" />
      <polyline
         transform="matrix(0.4798302,0.5578232,-0.5578232,0.4798302,378.23335,322.43691)"
         id="polyline3367"
         points="89.224,213.396 93.724,211.297 96.145,215.54 "
         style="fill:none;stroke:#000000;stroke-width:0.84941393;stroke-miterlimit:4;stroke-dasharray:none" />
      <path
         id="path3369"
         d="M 309.01234,478.69358 C 309.01234,478.69358 308.14797,479.03819 308.09991,479.48329"
         style="fill:none;stroke:#000000;stroke-width:0.625;stroke-miterlimit:4;stroke-dasharray:none" />
      <polyline
         transform="matrix(0.4798302,0.5578232,-0.5578232,0.4798302,378.23335,322.43691)"
         id="polyline3371"
         points="96.595,194.59 94.906,195.481 94.228,196.808 "
         style="fill:none;stroke:#000000;stroke-width:0.84941393;stroke-miterlimit:4;stroke-dasharray:none" />
    </g>
    <g
       id="g3193"
       transform="matrix(0.9133842,0,0,0.9133842,25.167362,22.307705)">
      <path
         id="path3492"
         d="M 279.95383,439.21872 C 275.97043,438.04856 271.74182,437.64928 267.29118,437.98013 L 266.91199,437.83106 L 266.92589,437.99877 C 266.88286,438.00237 266.84028,437.98825 266.79721,437.99197 L 266.94659,438.03781 L 270.16583,474.19891 L 294.35404,447.78984 L 294.44366,447.81734 C 294.42676,447.80095 294.41,447.78548 294.39308,447.76913 L 294.45047,447.68868 L 294.21147,447.61533 C 289.97538,443.5691 285.17364,440.75207 279.95383,439.21872 z"
         style="fill:#585858;fill-opacity:1;stroke:none;stroke-width:1.45970976;stroke-miterlimit:4;stroke-dasharray:none;stroke-dashoffset:0;stroke-opacity:1" />
      <path
         sodipodi:open="true"
         sodipodi:end="11.703053"
         sodipodi:start="5.6390007"
         transform="matrix(0.3909026,0.454441,-0.454441,0.3909026,497.94415,191.0983)"
         d="M 155.82873,559.39988 A 58.897896,58.897896 0 1 1 147.01348,550.00824"
         sodipodi:ry="58.897896"
         sodipodi:rx="58.897896"
         sodipodi:cy="594.77081"
         sodipodi:cx="108.73458"
         id="path3373"
         style="fill:none;fill-opacity:1;stroke:#000000;stroke-width:1.45970964;stroke-miterlimit:4;stroke-dasharray:none;stroke-dashoffset:0;stroke-opacity:1"
         sodipodi:type="arc" />
    </g>
    <path
       style="fill:none;fill-rule:evenodd;stroke:#000000;stroke-width:0.91338426px;stroke-linecap:butt;stroke-linejoin:miter;stroke-opacity:1"
       d="M 167.84004,592.80496 L 243.2458,517.3992"
       id="path3455" />
    <path
       style="fill:none;fill-rule:evenodd;stroke:#000000;stroke-width:0.91338426px;stroke-linecap:butt;stroke-linejoin:miter;stroke-opacity:1"
       d="M 243.2458,592.80496 L 167.84004,517.3992"
       id="path3457" />
    <path
       style="fill:none;fill-rule:evenodd;stroke:#000000;stroke-width:0.91338426px;stroke-linecap:butt;stroke-linejoin:miter;stroke-opacity:1"
       d="M 252.51348,592.9081 L 327.91924,517.50234"
       id="path3463" />
    <path
       style="fill:none;fill-rule:evenodd;stroke:#000000;stroke-width:0.91338426px;stroke-linecap:butt;stroke-linejoin:miter;stroke-opacity:1"
       d="M 327.91924,592.9081 L 252.51348,517.50234"
       id="path3465" />
  </g>
</svg>
