<?xml version="1.0" encoding="UTF-8" standalone="no"?>
<!-- Generator: Adobe Illustrator 11 Build 196, SVG Export Plug-In . SVG Version: 6.0.0 Build 78)  -->

<svg
   xmlns:dc="http://purl.org/dc/elements/1.1/"
   xmlns:cc="http://creativecommons.org/ns#"
   xmlns:rdf="http://www.w3.org/1999/02/22-rdf-syntax-ns#"
   xmlns:svg="http://www.w3.org/2000/svg"
   xmlns="http://www.w3.org/2000/svg"
   xmlns:sodipodi="http://sodipodi.sourceforge.net/DTD/sodipodi-0.dtd"
   xmlns:inkscape="http://www.inkscape.org/namespaces/inkscape"
   width="123.965"
   height="96.313"
   viewBox="0 0 123.965 96.313"
   style="overflow:visible;enable-background:new 0 0 123.965 96.313"
   xml:space="preserve"
   id="svg2"
   version="1.1"
   inkscape:version="0.48.3.1 r9886"
   sodipodi:docname="no-affine-simultaneity.svg"><metadata
   id="metadata33"><rdf:RDF><cc:Work
       rdf:about=""><dc:format>image/svg+xml</dc:format><dc:type
         rdf:resource="http://purl.org/dc/dcmitype/StillImage" /><dc:title /></cc:Work></rdf:RDF></metadata><defs
   id="defs31">
		 
		 
		
		
		
		
		
		
	<radialGradient
   id="XMLID_9_"
   cx="85.825203"
   cy="81.714798"
   r="21.862101"
   fx="85.825203"
   fy="81.714798"
   gradientTransform="matrix(1.0333,0,0,1,20.7044,-73.7148)"
   gradientUnits="userSpaceOnUse"><stop
     offset="0"
     style="stop-color:#F0F0F0"
     id="stop3249" /><stop
     offset="0.1119"
     style="stop-color:#DCDCDC"
     id="stop3251" /><stop
     offset="0.2721"
     style="stop-color:#C7C7C7"
     id="stop3253" /><stop
     offset="0.452"
     style="stop-color:#B9B9B9"
     id="stop3255" /><stop
     offset="0.6658"
     style="stop-color:#B0B0B0"
     id="stop3257" /><stop
     offset="1"
     style="stop-color:#ADADAD"
     id="stop3259" /><midPointStop
     offset="0"
     style="stop-color:#F0F0F0"
     id="midPointStop12" /><midPointStop
     offset="0.21"
     style="stop-color:#F0F0F0"
     id="midPointStop14" /><midPointStop
     offset="1"
     style="stop-color:#ADADAD"
     id="midPointStop16" /></radialGradient><radialGradient
   id="XMLID_10_"
   cx="56.742199"
   cy="159.2148"
   r="23.537201"
   fx="56.742199"
   fy="159.2148"
   gradientTransform="translate(23.9475,-72.792)"
   gradientUnits="userSpaceOnUse"><stop
     offset="0"
     style="stop-color:#F0F0F0"
     id="stop3270" /><stop
     offset="0.1119"
     style="stop-color:#DCDCDC"
     id="stop3272" /><stop
     offset="0.2721"
     style="stop-color:#C7C7C7"
     id="stop3274" /><stop
     offset="0.452"
     style="stop-color:#B9B9B9"
     id="stop3276" /><stop
     offset="0.6658"
     style="stop-color:#B0B0B0"
     id="stop3278" /><stop
     offset="1"
     style="stop-color:#ADADAD"
     id="stop3280" /><midPointStop
     offset="0"
     style="stop-color:#F0F0F0"
     id="midPointStop25" /><midPointStop
     offset="0.21"
     style="stop-color:#F0F0F0"
     id="midPointStop27" /><midPointStop
     offset="1"
     style="stop-color:#ADADAD"
     id="midPointStop29" /></radialGradient><radialGradient
   id="XMLID_11_"
   cx="97.742203"
   cy="161.2148"
   r="113.4259"
   fx="97.742203"
   fy="161.2148"
   gradientTransform="translate(23.9475,-72.792)"
   gradientUnits="userSpaceOnUse"><stop
     offset="0"
     style="stop-color:#F0F0F0"
     id="stop3285" /><stop
     offset="0.1119"
     style="stop-color:#DCDCDC"
     id="stop3287" /><stop
     offset="0.2721"
     style="stop-color:#C7C7C7"
     id="stop3289" /><stop
     offset="0.452"
     style="stop-color:#B9B9B9"
     id="stop3291" /><stop
     offset="0.6658"
     style="stop-color:#B0B0B0"
     id="stop3293" /><stop
     offset="1"
     style="stop-color:#ADADAD"
     id="stop3295" /><midPointStop
     offset="0"
     style="stop-color:#F0F0F0"
     id="midPointStop38" /><midPointStop
     offset="0.21"
     style="stop-color:#F0F0F0"
     id="midPointStop40" /><midPointStop
     offset="1"
     style="stop-color:#ADADAD"
     id="midPointStop42" /></radialGradient><radialGradient
   id="XMLID_12_"
   cx="49.575199"
   cy="135.54829"
   r="5.1855998"
   fx="49.575199"
   fy="135.54829"
   gradientTransform="translate(23.9087,-73.7148)"
   gradientUnits="userSpaceOnUse"><stop
     offset="0"
     style="stop-color:#F0F0F0"
     id="stop3302" /><stop
     offset="0.1119"
     style="stop-color:#DCDCDC"
     id="stop3304" /><stop
     offset="0.2721"
     style="stop-color:#C7C7C7"
     id="stop3306" /><stop
     offset="0.452"
     style="stop-color:#B9B9B9"
     id="stop3308" /><stop
     offset="0.6658"
     style="stop-color:#B0B0B0"
     id="stop3310" /><stop
     offset="1"
     style="stop-color:#ADADAD"
     id="stop3312" /><midPointStop
     offset="0"
     style="stop-color:#F0F0F0"
     id="midPointStop51" /><midPointStop
     offset="0.21"
     style="stop-color:#F0F0F0"
     id="midPointStop53" /><midPointStop
     offset="1"
     style="stop-color:#ADADAD"
     id="midPointStop55" /></radialGradient><radialGradient
   id="XMLID_13_"
   cx="67.408699"
   cy="146.7148"
   r="10.9616"
   fx="67.408699"
   fy="146.7148"
   gradientTransform="translate(23.9087,-76.7148)"
   gradientUnits="userSpaceOnUse"><stop
     offset="0"
     style="stop-color:#F0F0F0"
     id="stop3317" /><stop
     offset="0.1119"
     style="stop-color:#DCDCDC"
     id="stop3319" /><stop
     offset="0.2721"
     style="stop-color:#C7C7C7"
     id="stop3321" /><stop
     offset="0.452"
     style="stop-color:#B9B9B9"
     id="stop3323" /><stop
     offset="0.6658"
     style="stop-color:#B0B0B0"
     id="stop3325" /><stop
     offset="1"
     style="stop-color:#ADADAD"
     id="stop3327" /><midPointStop
     offset="0"
     style="stop-color:#F0F0F0"
     id="midPointStop64" /><midPointStop
     offset="0.21"
     style="stop-color:#F0F0F0"
     id="midPointStop66" /><midPointStop
     offset="1"
     style="stop-color:#ADADAD"
     id="midPointStop68" /></radialGradient><radialGradient
   id="XMLID_14_"
   cx="57.7407"
   cy="130.88181"
   r="3.3055"
   fx="57.7407"
   fy="130.88181"
   gradientTransform="matrix(1.1129,0,0,1,18.3907,-69.7148)"
   gradientUnits="userSpaceOnUse"><stop
     offset="0"
     style="stop-color:#F0F0F0"
     id="stop3340" /><stop
     offset="0.1119"
     style="stop-color:#DCDCDC"
     id="stop3342" /><stop
     offset="0.2721"
     style="stop-color:#C7C7C7"
     id="stop3344" /><stop
     offset="0.452"
     style="stop-color:#B9B9B9"
     id="stop3346" /><stop
     offset="0.6658"
     style="stop-color:#B0B0B0"
     id="stop3348" /><stop
     offset="1"
     style="stop-color:#ADADAD"
     id="stop3350" /><midPointStop
     offset="0"
     style="stop-color:#F0F0F0"
     id="midPointStop77" /><midPointStop
     offset="0.21"
     style="stop-color:#F0F0F0"
     id="midPointStop79" /><midPointStop
     offset="1"
     style="stop-color:#ADADAD"
     id="midPointStop81" /></radialGradient><radialGradient
   id="XMLID_15_"
   cx="51.408699"
   cy="82.214798"
   r="4.2426"
   fx="51.408699"
   fy="82.214798"
   gradientTransform="translate(22.4502,-73.7148)"
   gradientUnits="userSpaceOnUse"><stop
     offset="0"
     style="stop-color:#F0F0F0"
     id="stop3359" /><stop
     offset="0.1119"
     style="stop-color:#DCDCDC"
     id="stop3361" /><stop
     offset="0.2721"
     style="stop-color:#C7C7C7"
     id="stop3363" /><stop
     offset="0.452"
     style="stop-color:#B9B9B9"
     id="stop3365" /><stop
     offset="0.6658"
     style="stop-color:#B0B0B0"
     id="stop3367" /><stop
     offset="1"
     style="stop-color:#ADADAD"
     id="stop3369" /><midPointStop
     offset="0"
     style="stop-color:#F0F0F0"
     id="midPointStop90" /><midPointStop
     offset="0.21"
     style="stop-color:#F0F0F0"
     id="midPointStop92" /><midPointStop
     offset="1"
     style="stop-color:#ADADAD"
     id="midPointStop94" /></radialGradient><radialGradient
   id="XMLID_16_"
   cx="121.4087"
   cy="108.2148"
   r="20.5061"
   fx="121.4087"
   fy="108.2148"
   gradientTransform="translate(23.1587,-76.7148)"
   gradientUnits="userSpaceOnUse"><stop
     offset="0"
     style="stop-color:#F0F0F0"
     id="stop3374" /><stop
     offset="0.1119"
     style="stop-color:#DCDCDC"
     id="stop3376" /><stop
     offset="0.2721"
     style="stop-color:#C7C7C7"
     id="stop3378" /><stop
     offset="0.452"
     style="stop-color:#B9B9B9"
     id="stop3380" /><stop
     offset="0.6658"
     style="stop-color:#B0B0B0"
     id="stop3382" /><stop
     offset="1"
     style="stop-color:#ADADAD"
     id="stop3384" /><midPointStop
     offset="0"
     style="stop-color:#F0F0F0"
     id="midPointStop103" /><midPointStop
     offset="0.21"
     style="stop-color:#F0F0F0"
     id="midPointStop105" /><midPointStop
     offset="1"
     style="stop-color:#ADADAD"
     id="midPointStop107" /></radialGradient><radialGradient
   id="radialGradient3505"
   cx="56.742199"
   cy="159.2148"
   r="23.537201"
   fx="56.742199"
   fy="159.2148"
   gradientTransform="translate(23.9475,-72.792)"
   gradientUnits="userSpaceOnUse"><stop
     offset="0"
     style="stop-color:#F0F0F0"
     id="stop3507" /><stop
     offset="0.1119"
     style="stop-color:#DCDCDC"
     id="stop3509" /><stop
     offset="0.2721"
     style="stop-color:#C7C7C7"
     id="stop3511" /><stop
     offset="0.452"
     style="stop-color:#B9B9B9"
     id="stop3513" /><stop
     offset="0.6658"
     style="stop-color:#B0B0B0"
     id="stop3515" /><stop
     offset="1"
     style="stop-color:#ADADAD"
     id="stop3517" /><midPointStop
     offset="0"
     style="stop-color:#F0F0F0"
     id="midPointStop116" /><midPointStop
     offset="0.21"
     style="stop-color:#F0F0F0"
     id="midPointStop118" /><midPointStop
     offset="1"
     style="stop-color:#ADADAD"
     id="midPointStop120" /></radialGradient><radialGradient
   id="radialGradient3520"
   cx="97.742203"
   cy="161.2148"
   r="113.4259"
   fx="97.742203"
   fy="161.2148"
   gradientTransform="translate(23.9475,-72.792)"
   gradientUnits="userSpaceOnUse"><stop
     offset="0"
     style="stop-color:#F0F0F0"
     id="stop3522" /><stop
     offset="0.1119"
     style="stop-color:#DCDCDC"
     id="stop3524" /><stop
     offset="0.2721"
     style="stop-color:#C7C7C7"
     id="stop3526" /><stop
     offset="0.452"
     style="stop-color:#B9B9B9"
     id="stop3528" /><stop
     offset="0.6658"
     style="stop-color:#B0B0B0"
     id="stop3530" /><stop
     offset="1"
     style="stop-color:#ADADAD"
     id="stop3532" /><midPointStop
     offset="0"
     style="stop-color:#F0F0F0"
     id="midPointStop129" /><midPointStop
     offset="0.21"
     style="stop-color:#F0F0F0"
     id="midPointStop131" /><midPointStop
     offset="1"
     style="stop-color:#ADADAD"
     id="midPointStop133" /></radialGradient><radialGradient
   id="radialGradient3536"
   cx="49.575199"
   cy="135.54829"
   r="5.1855998"
   fx="49.575199"
   fy="135.54829"
   gradientTransform="translate(23.9087,-73.7148)"
   gradientUnits="userSpaceOnUse"><stop
     offset="0"
     style="stop-color:#F0F0F0"
     id="stop3538" /><stop
     offset="0.1119"
     style="stop-color:#DCDCDC"
     id="stop3540" /><stop
     offset="0.2721"
     style="stop-color:#C7C7C7"
     id="stop3542" /><stop
     offset="0.452"
     style="stop-color:#B9B9B9"
     id="stop3544" /><stop
     offset="0.6658"
     style="stop-color:#B0B0B0"
     id="stop3546" /><stop
     offset="1"
     style="stop-color:#ADADAD"
     id="stop3548" /><midPointStop
     offset="0"
     style="stop-color:#F0F0F0"
     id="midPointStop142" /><midPointStop
     offset="0.21"
     style="stop-color:#F0F0F0"
     id="midPointStop144" /><midPointStop
     offset="1"
     style="stop-color:#ADADAD"
     id="midPointStop146" /></radialGradient><radialGradient
   id="radialGradient3551"
   cx="67.408699"
   cy="146.7148"
   r="10.9616"
   fx="67.408699"
   fy="146.7148"
   gradientTransform="translate(23.9087,-76.7148)"
   gradientUnits="userSpaceOnUse"><stop
     offset="0"
     style="stop-color:#F0F0F0"
     id="stop3553" /><stop
     offset="0.1119"
     style="stop-color:#DCDCDC"
     id="stop3555" /><stop
     offset="0.2721"
     style="stop-color:#C7C7C7"
     id="stop3557" /><stop
     offset="0.452"
     style="stop-color:#B9B9B9"
     id="stop3559" /><stop
     offset="0.6658"
     style="stop-color:#B0B0B0"
     id="stop3561" /><stop
     offset="1"
     style="stop-color:#ADADAD"
     id="stop3563" /><midPointStop
     offset="0"
     style="stop-color:#F0F0F0"
     id="midPointStop155" /><midPointStop
     offset="0.21"
     style="stop-color:#F0F0F0"
     id="midPointStop157" /><midPointStop
     offset="1"
     style="stop-color:#ADADAD"
     id="midPointStop159" /></radialGradient><radialGradient
   id="radialGradient3587"
   cx="51.408699"
   cy="82.214798"
   r="4.2426"
   fx="51.408699"
   fy="82.214798"
   gradientTransform="translate(22.4502,-73.7148)"
   gradientUnits="userSpaceOnUse"><stop
     offset="0"
     style="stop-color:#F0F0F0"
     id="stop3589" /><stop
     offset="0.1119"
     style="stop-color:#DCDCDC"
     id="stop3591" /><stop
     offset="0.2721"
     style="stop-color:#C7C7C7"
     id="stop3593" /><stop
     offset="0.452"
     style="stop-color:#B9B9B9"
     id="stop3595" /><stop
     offset="0.6658"
     style="stop-color:#B0B0B0"
     id="stop3597" /><stop
     offset="1"
     style="stop-color:#ADADAD"
     id="stop3599" /><midPointStop
     offset="0"
     style="stop-color:#F0F0F0"
     id="midPointStop168" /><midPointStop
     offset="0.21"
     style="stop-color:#F0F0F0"
     id="midPointStop170" /><midPointStop
     offset="1"
     style="stop-color:#ADADAD"
     id="midPointStop172" /></radialGradient><radialGradient
   id="radialGradient3602"
   cx="121.4087"
   cy="108.2148"
   r="20.5061"
   fx="121.4087"
   fy="108.2148"
   gradientTransform="translate(23.1587,-76.7148)"
   gradientUnits="userSpaceOnUse"><stop
     offset="0"
     style="stop-color:#F0F0F0"
     id="stop3604" /><stop
     offset="0.1119"
     style="stop-color:#DCDCDC"
     id="stop3606" /><stop
     offset="0.2721"
     style="stop-color:#C7C7C7"
     id="stop3608" /><stop
     offset="0.452"
     style="stop-color:#B9B9B9"
     id="stop3610" /><stop
     offset="0.6658"
     style="stop-color:#B0B0B0"
     id="stop3612" /><stop
     offset="1"
     style="stop-color:#ADADAD"
     id="stop3614" /><midPointStop
     offset="0"
     style="stop-color:#F0F0F0"
     id="midPointStop181" /><midPointStop
     offset="0.21"
     style="stop-color:#F0F0F0"
     id="midPointStop183" /><midPointStop
     offset="1"
     style="stop-color:#ADADAD"
     id="midPointStop185" /></radialGradient></defs><sodipodi:namedview
   pagecolor="#ffffff"
   bordercolor="#666666"
   borderopacity="1"
   objecttolerance="10"
   gridtolerance="10"
   guidetolerance="10"
   inkscape:pageopacity="0"
   inkscape:pageshadow="2"
   inkscape:window-width="1280"
   inkscape:window-height="996"
   id="namedview29"
   showgrid="false"
   inkscape:zoom="4.2387767"
   inkscape:cx="-122.49353"
   inkscape:cy="-31.264715"
   inkscape:window-x="0"
   inkscape:window-y="0"
   inkscape:window-maximized="1"
   inkscape:current-layer="svg2" />
	
<rect
   style="opacity:0.98000003999999996;fill:#000000;fill-opacity:1;stroke:none"
   id="rect4642"
   width="200.29382"
   height="170.83885"
   x="-214.84805"
   y="48.491985"
   transform="translate(0,-3.1926338e-6)" /><rect
   id="rect3410"
   height="2.8340001"
   width="147.401"
   style="fill:none"
   y="128.10458"
   x="-208.91183" />


<text
   xml:space="preserve"
   style="font-size:12px;font-style:normal;font-variant:normal;font-weight:normal;font-stretch:normal;text-indent:0;text-align:start;text-decoration:none;line-height:125%;letter-spacing:0px;word-spacing:0px;text-transform:none;direction:ltr;block-progression:tb;writing-mode:lr-tb;text-anchor:start;baseline-shift:baseline;color:#000000;fill:#ffffff;fill-opacity:1;fill-rule:nonzero;stroke:none;stroke-width:1px;marker:none;visibility:visible;display:inline;overflow:visible;enable-background:accumulate;font-family:FreeSans;-inkscape-font-specification:FreeSans"
   x="-168.29681"
   y="181.04031"
   id="text3217-9"
   sodipodi:linespacing="125%"><tspan
     sodipodi:role="line"
     id="tspan3219-9"
     x="-168.29681"
     y="181.04031">P</tspan></text>




<text
   xml:space="preserve"
   style="font-size:12px;font-style:normal;font-variant:normal;font-weight:normal;font-stretch:normal;text-indent:0;text-align:start;text-decoration:none;line-height:125%;letter-spacing:0px;word-spacing:0px;text-transform:none;direction:ltr;block-progression:tb;writing-mode:lr-tb;text-anchor:start;baseline-shift:baseline;color:#000000;fill:#000000;fill-opacity:1;fill-rule:nonzero;stroke:none;stroke-width:1px;marker:none;visibility:visible;display:inline;overflow:visible;enable-background:accumulate;font-family:FreeSans;-inkscape-font-specification:FreeSans"
   x="-108.33404"
   y="181.71187"
   id="text4010"
   sodipodi:linespacing="125%"><tspan
     sodipodi:role="line"
     id="tspan4012"
     x="-108.33404"
     y="181.71187"
     style="fill:#ffffff;fill-opacity:1">Q</tspan></text>




<g
   id="g3189"
   transform="matrix(0,1,-1,0,-29.501825,319.89894)"><path
     transform="matrix(0.19642852,0,0,0.19642852,-130.49226,99.267509)"
     d="m -52.495504,143.22388 c 0,5.75737 -4.66727,10.42464 -10.424639,10.42464 -5.757369,0 -10.424639,-4.66727 -10.424639,-10.42464 0,-5.75737 4.66727,-10.42464 10.424639,-10.42464 5.757369,0 10.424639,4.66727 10.424639,10.42464 z"
     sodipodi:ry="10.424639"
     sodipodi:rx="10.424639"
     sodipodi:cy="143.22388"
     sodipodi:cx="-62.920143"
     id="path3859"
     style="opacity:0.98000004;fill:#ffffff;fill-opacity:1;stroke:none"
     sodipodi:type="arc" /><path
     transform="matrix(0.19642852,0,0,0.19642852,-130.49226,55.123116)"
     d="m -52.495504,143.22388 c 0,5.75737 -4.66727,10.42464 -10.424639,10.42464 -5.757369,0 -10.424639,-4.66727 -10.424639,-10.42464 0,-5.75737 4.66727,-10.42464 10.424639,-10.42464 5.757369,0 10.424639,4.66727 10.424639,10.42464 z"
     sodipodi:ry="10.424639"
     sodipodi:rx="10.424639"
     sodipodi:cy="143.22388"
     sodipodi:cx="-62.920143"
     id="path3859-5"
     style="opacity:0.98000004;fill:#ffffff;fill-opacity:1;stroke:none;overflow:visible"
     sodipodi:type="arc" /><path
     inkscape:connector-curvature="0"
     id="path3879"
     d="m -143.22388,127.58692 0.74462,-40.209324"
     style="color:#000000;fill:none;stroke:#ffffff;stroke-width:0.625;stroke-linecap:butt;stroke-linejoin:miter;stroke-miterlimit:4;stroke-opacity:1;stroke-dasharray:none;stroke-dashoffset:0;marker:none;visibility:visible;display:inline;overflow:visible;enable-background:accumulate" /><path
     inkscape:connector-curvature="0"
     id="path3881"
     d="m -142.65746,83.824419 -2.41382,6.100218 2.50458,-2.484554 1.93483,2.289686 z"
     style="color:#000000;fill:#ffffff;fill-opacity:1;stroke:none;stroke-width:1.875;marker:none;visibility:visible;display:inline;overflow:visible;enable-background:accumulate" /></g><text
   xml:space="preserve"
   style="font-size:10px;font-style:normal;font-variant:normal;font-weight:normal;font-stretch:normal;text-align:start;line-height:100%;letter-spacing:0px;word-spacing:0px;writing-mode:lr-tb;text-anchor:start;fill:#ffffff;fill-opacity:1;stroke:none;font-family:FreeSans;-inkscape-font-specification:FreeSans"
   x="-136.22479"
   y="173.77899"
   id="text3883"
   sodipodi:linespacing="100%"><tspan
     sodipodi:role="line"
     id="tspan3885"
     x="-136.22479"
     y="173.77899"
     style="font-weight:bold;-inkscape-font-specification:FreeSans Bold">s</tspan></text>

<g
   id="g3195"
   transform="matrix(0,-1,1,0,-307.14201,-23.292532)"><path
     inkscape:connector-curvature="0"
     id="path3066-9-9-9"
     d="m -172.05774,168.60407 c -0.0123,0.046 0.0159,0.13925 0.03,0.20759 0.002,0.0114 0.006,0.0271 0.0118,0.043 0.0433,0.11142 0.17002,0.31916 0.23388,0.45385 0.073,0.15392 0.2823,0.14697 0.2823,0.14697 l 0.0908,0.27746 0.4965,0.44061 c 0,0 0.18855,0.31207 0.31891,0.51023 0.0259,0.0394 0.0743,0.10103 0.12786,0.17109 l -0.77887,-0.0351 0.005,0.0262 -0.0139,0.005 -9.6e-4,-0.032 -0.005,6.4e-4 3e-4,0.0342 -0.6144,0.17068 -0.23715,0.0659 -0.003,10e-4 -0.15105,0.0423 0.43374,-0.25305 c 0,0 -0.2331,0.10307 -0.32684,0.14178 -0.0938,0.0387 -0.4354,0.11796 -0.51572,0.34865 l 0.23227,-0.13577 -0.32977,0.41582 0.006,0.0655 c -0.18731,0.82336 0.0851,0.95801 0.34108,1.19463 0.26315,0.24324 0.6121,0.44435 0.70756,0.47759 0.0955,0.0332 0.46683,-0.059 0.52357,-0.11954 0.0567,-0.0605 0.0924,-0.11147 0.0924,-0.11147 l -0.0919,-0.0855 0.0673,-0.0326 c 0.0632,0.2001 0.3661,0.27443 0.4732,0.0601 0.0323,-0.0647 0.0407,-0.12019 0.0342,-0.1682 l 0.1166,0.25236 -0.493,0.17156 c 0,0 0.14844,0.0379 0.31849,0.05 l -0.38727,0.14752 0.10957,0.3984 0.36906,0.12849 -0.24439,0.28246 0.1697,0.41446 c 0,0 0.11431,0.13589 0.28388,0.24732 l -0.25112,0.67931 0.13308,-0.55002 -0.14659,0.58183 -0.11535,0.31035 -0.17472,0.29211 c 0,0 -0.005,0.33494 0.002,0.58745 l 0.0346,-0.14131 -0.0241,0.33483 c -0.005,-0.0502 -0.008,-0.11779 -0.0105,-0.19352 l -0.0414,0.16084 0.14871,0.51668 -0.46774,0.62337 -0.0469,0.0859 0.0343,0.0412 0.005,0.0626 0.0144,-0.0412 0.16363,0.21518 0.0219,-0.007 c 0.0396,0.024 0.0899,0.0442 0.1212,0.0154 0.0158,-0.0145 0.0478,-0.0421 0.0765,-0.0659 l 0.0314,-0.006 -0.13833,0.12466 0.0358,0.0928 0.15168,0.0747 0.28006,-0.2311 -0.18621,0.17128 0.0448,0.074 0.15406,0.005 c 0,0 0.2755,-0.19657 0.3013,-0.24318 0.0258,-0.0466 0.17593,-0.21866 0.17593,-0.21866 l 0.12811,0.26123 0.1122,0.14617 0.0743,-0.0666 c 0,0 -0.0299,-0.14646 -0.0222,-0.18787 0.008,-0.0414 -0.0773,-0.30411 -0.0696,-0.34552 0.008,-0.041 -0.0878,-0.15931 -0.24307,-0.36454 l 0.058,-0.58592 0.031,-0.089 -0.065,-0.25386 0.31976,-0.75764 -0.0161,-0.5411 0.39789,-0.28987 0.0227,-0.0651 0.14057,-0.34783 c 0.0216,-0.01 0.0346,-0.0175 0.0556,-0.0269 l 0.44642,0.26983 1.22695,0.45396 0.69729,-0.17103 0.65166,0.19768 0.16995,-0.0966 0.39542,0.0598 c 0.0561,0.0391 0.22532,0.15871 0.35042,0.27292 0.14714,0.13433 0.33108,-0.077 0.33108,-0.077 l -0.0195,-0.007 0.0334,-0.0541 0.0451,0.0522 0.46167,0.10718 c 0,0 0.64364,-0.49871 0.836,-0.65336 0.19235,-0.15465 0.37646,-0.92046 0.37646,-0.92046 0,0 0.41664,-0.32646 0.56709,-0.44029 0.15044,-0.11384 0.29601,-0.53328 0.57219,-0.76956 0.27618,-0.23628 0.58287,-0.87711 0.63448,-1.02536 0.0516,-0.14824 0.43867,-0.62374 0.43867,-0.62374 0,0 -0.0511,-0.3262 -0.1348,-0.63355 0.0146,-0.006 0.44488,-0.17279 0.58325,-0.17909 0.14074,-0.006 0.51089,-0.43135 0.88699,-0.71594 0.37611,-0.28459 0.77918,-0.64394 0.77918,-0.64394 0,0 0.0113,-0.17435 -0.003,-0.34172 l 0.0885,0.17929 0.92854,-0.12216 0.46718,-0.30712 c 0,0 -0.0848,-0.47205 -0.16307,-0.80405 -0.0783,-0.33199 0.12377,-0.59452 -0.0545,-0.8782 -0.17826,-0.28369 -0.56171,-0.77732 -0.75937,-0.84614 -0.19766,-0.0688 -0.56015,-0.22284 -0.63757,-4.5e-4 -0.0774,0.22237 -0.0878,0.41267 0.0668,0.60502 0.15465,0.19236 0.17346,0.6134 0.0874,0.86047 -0.086,0.24708 -0.35362,0.62416 -0.35362,0.62416 l 0.0969,0.20411 c -0.0673,-0.0754 -0.12334,-0.12813 -0.12334,-0.12813 0,0 -0.26026,0.1849 -0.44512,0.39757 -0.18485,0.21266 -2.32251,1.02182 -2.32251,1.02182 l 0.0543,0.0676 c -0.17351,-0.13109 -0.30222,-0.22249 -0.36071,-0.26433 l -0.015,-0.0198 c 0,0 -0.004,0.006 -0.004,0.006 -0.007,-0.005 -0.0345,-0.0266 -0.0345,-0.0266 l -0.0441,0.0917 c -0.0336,0.0281 -0.0527,0.0452 -0.11104,0.0952 l 0.0908,-0.15583 -0.34454,0.2695 c 0,0 -0.19009,-0.0103 -0.48128,0.10993 -0.29118,0.12024 -0.27612,0.31766 -0.27612,0.31766 l -1.17301,1.61433 -0.0946,0.062 -0.0195,-0.71998 -0.004,-0.004 c -0.006,-0.10875 -0.0463,-0.42017 -0.33043,-0.5191 -0.001,-3.2e-4 -9.6e-4,-3.2e-4 -0.002,-6.4e-4 l -0.12323,-0.19139 0.52736,-0.18637 -0.005,-0.0263 c 0.66518,-0.24106 0.87883,-0.71844 1.27762,-1.06188 0.43523,-0.37482 0.68651,-0.4547 0.68651,-0.4547 l -0.0712,-0.0613 0.17579,-0.0435 0.018,0.0671 c 0,0 0.59865,-0.12644 0.75019,-0.323 0.15154,-0.19656 0.52582,-0.39867 0.52582,-0.39867 0,0 -0.59696,-0.59382 -0.76662,-0.90221 -0.16965,-0.30839 -0.0346,-0.53895 -0.37075,-0.76682 -0.33621,-0.22786 -0.91215,-0.40034 -0.91215,-0.40034 l -0.22472,0.17004 c 0,0 -0.008,0.49571 0.15768,0.49791 0.16545,0.002 0.26447,0.12129 0.26447,0.12129 l 0.003,0.0131 0.13836,0.092 -0.0822,0.99125 -0.30298,0.20608 -0.0685,0.11977 c -0.1548,0.0737 -0.44367,0.2198 -0.67913,0.39155 -0.31347,0.22866 -1.14284,0.66875 -1.2477,0.72423 l -0.14017,-0.01 -0.18481,-0.0984 -0.35935,0.23513 0.16888,-0.0167 -0.28852,0.15756 0.0129,-0.14886 c 0,0 -0.57738,0.54508 -0.77303,0.9479 -0.19565,0.40283 0.21813,0.88059 0.36308,1.18038 0.10871,0.22484 0.13202,0.70018 0.13603,0.92364 l -0.01,0.23032 -1.22217,-0.64945 0.0403,-0.18557 -0.99988,-0.2532 -0.0129,-0.0118 -0.0381,-0.0303 c -0.12929,-0.13444 -0.42154,-0.44616 -0.42154,-0.44616 l -0.55696,-0.59554 -0.56198,-0.54617 0.25793,0.175 c 0,0 0.21834,0.24577 0.33973,0.36656 -0.14673,-0.17558 -0.30131,-0.35805 -0.30131,-0.35805 0,0 -0.20435,-0.1414 -0.376,-0.26236 l -0.63446,-0.61765 -0.009,-0.23203 0.004,-0.0181 c -0.006,0.0176 -0.0204,0.0586 -0.0204,0.0586 l 0.0172,0.18125 -0.051,-0.0494 0.0462,-0.58026 0.0186,0.0235 c -0.0302,-0.13456 -0.0668,-0.27642 -0.0668,-0.27642 l -0.0837,-0.21412 c 0,0 -0.0896,-0.007 -0.20561,0.0453 l 0.0178,0.0257 -0.0283,-0.003 -0.0213,0.0121 -0.007,-0.0146 c 0,0 -0.0672,0.005 -0.15106,0.0983 l -0.0264,0.0127 -0.004,-0.0109 c 0,0 -0.14481,0.018 -0.18175,0.10954 l -0.007,0.005 -0.0162,-0.0373 -0.10866,0.0255 c 0,0 -0.0539,0.0766 -0.0514,0.20361 l -0.0103,0.009 -0.003,-0.0255 c 0,0 -0.0598,0.003 -0.11866,0.0122 -0.0147,0.002 -0.0246,0.0112 -0.0287,0.0265 z m 1.10145,-0.003 c 0.007,0.0302 0.0117,0.056 0.017,0.0838 l 0.0738,0.0257 -0.0909,-0.10953 z m 0.6357,2.43879 c 0.0927,0.11702 0.1418,0.18228 0.22307,0.28213 -0.0668,-0.0209 -0.0968,-0.0316 -0.16867,-0.0539 l -0.0534,-0.19627 -9.6e-4,-0.032 z m 0.46937,0.56748 0.006,0.004 -0.005,6.4e-4 -6.4e-4,-0.005 z m 4.05268,1.39152 0.0549,-0.032 0.016,0.10781 -0.071,-0.0758 z m 2.40396,-5.01703 0.12926,-0.0986 -0.0244,-0.0767 -0.10484,0.17526 z m 0.36368,-0.83485 0.0203,0.0606 -0.0355,0.10203 c 0.007,-0.0582 0.0114,-0.11596 0.0153,-0.16264 z m -2.3914,8.44862 0.13206,0.0192 0.18434,0.0788 -0.3164,-0.098 z"
     style="fill:#ffffff;fill-opacity:1;stroke:none;overflow:visible" /><path
     inkscape:connector-curvature="0"
     id="path3066-9-9-97-64"
     d="m -93.901551,165.43686 c -0.04475,0.0163 -0.106518,0.0896 -0.154953,0.13983 -0.0081,0.008 -0.01643,0.0216 -0.02631,0.0354 -0.06745,0.0988 -0.169493,0.32121 -0.244592,0.44995 -0.08575,0.1472 0.0398,0.31317 0.0398,0.31317 l -0.17939,0.23441 -0.08147,0.65577 c 0,0 -0.150427,0.33406 -0.240262,0.5536 -0.07781,0.19016 -0.252584,0.79376 -0.304772,0.97371 l -0.09245,-0.0249 -0.09576,0.0333 -0.104765,-0.10497 0.153781,-0.19665 c 0,0 -0.05949,-0.19607 -0.104523,-0.34083 l 0.131556,-0.15513 0.03732,-0.0292 c 0.0141,-0.0221 0.03327,-0.0487 0.0492,-0.073 l 0.05594,-0.0655 -0.457743,-0.73795 -0.01842,0.0194 -0.0117,-0.009 0.02578,-0.019 -0.0032,-0.004 -0.02776,0.0198 -0.487906,-0.41058 -0.18826,-0.15855 -0.0026,-0.002 -0.120364,-0.10065 0.45382,0.21495 c 0,0 -0.216708,-0.13413 -0.301603,-0.18963 -0.08489,-0.0555 -0.343301,-0.29262 -0.579021,-0.22859 l 0.24322,0.11498 -0.529398,-0.0372 -0.05048,0.0423 c -0.785208,0.31053 -0.742427,0.61141 -0.793097,0.95627 -0.05206,0.35455 -0.02087,0.75609 0.0056,0.85364 0.02652,0.0976 0.312433,0.35183 0.394368,0.36454 0.08204,0.0127 0.144177,0.0132 0.144177,0.0132 l 0.01866,-0.12422 0.06492,0.0372 c -0.129417,0.16517 -0.01963,0.45712 0.217687,0.42442 0.07154,-0.0101 0.12218,-0.0342 0.158134,-0.0668 l -0.142414,0.23875 -0.420065,-0.3099 c 0,0 0.05255,0.14395 0.138665,0.29106 l -0.340535,-0.23619 -0.267156,0.31522 0.11451,0.42148 -0.539868,-0.0582 -0.246708,0.37196 c 0,0 -0.04753,0.17105 -0.04371,0.37395 l -0.701797,0.17875 0.53124,-0.20153 -0.56572,0.20613 -0.31905,0.0794 -0.339745,0.0208 c 0,0 -0.2793,0.18494 -0.4834,0.3338 l 0.13391,-0.0507 -0.28765,0.16871 c 0.039,-0.032 0.0925,-0.0733 0.15372,-0.11805 l -0.15776,0.0595 -0.33998,0.4141 -0.78141,-0.0354 -0.0952,0.009 -0.014,0.0539 -0.0494,0.0372 0.0399,-0.0108 -0.0829,0.25596 0.0182,0.0141 c 0.002,0.0463 0.0121,0.0998 0.0536,0.1093 0.0206,0.005 0.0623,0.0179 0.0981,0.0282 l 0.025,0.0217 -0.18158,-0.0459 -0.0565,0.082 0.0218,0.16796 0.3489,0.10055 -0.24653,-0.0569 -0.0336,0.0783 0.0807,0.13053 c 0,0 0.32005,0.11569 0.37309,0.11065 0.053,-0.005 0.2804,0.0238 0.2804,0.0238 l -0.14599,0.25168 -0.0572,0.17517 0.0991,0.0231 c 0,0 0.10174,-0.10681 0.14027,-0.12387 0.0386,-0.0167 0.2101,-0.23395 0.24861,-0.25098 0.0382,-0.0166 0.0797,-0.16186 0.16128,-0.4059 l 0.5156,-0.28539 0.0914,-0.0228 0.17246,-0.199 0.808635,-0.1625 0.435196,-0.31832 0.463342,0.16234 0.0666,-0.0181 0.366417,-0.0805 c 0.08263,0.0512 0.147415,0.0902 0.216817,0.13164 l 0.02358,0.39379 0.318512,1.26887 0.535024,0.47876 0.205034,0.64939 0.175724,0.0856 0.01703,0.0359 -0.05769,-0.0367 -0.06902,0.0355 c -0.204894,0.0892 -0.646753,0.26556 -0.896418,0.26023 -0.312103,-0.007 -0.865178,-0.16219 -1.167856,0.1029 -0.01984,0.018 -0.03829,0.0343 -0.05604,0.0561 -0.285197,0.34527 -0.540387,1.09727 -0.540387,1.09727 l 0.13015,-0.0735 -0.0229,0.32779 -0.0551,-0.15891 -0.0661,0.42291 0.16829,0.1281 0.0667,0.12242 c -0.007,0.11847 -0.0633,1.0564 -0.14091,1.43656 -0.0583,0.28556 -0.0713,0.60854 -0.0739,0.77997 l -0.0795,0.11178 -0.0612,0.36206 -0.86842,0.48604 -0.14002,-0.0858 -0.0141,0.002 c 0,0 -0.15001,-0.0406 -0.22074,-0.19018 -0.0708,-0.14954 -0.5162,0.064 -0.5162,0.064 l -0.0636,0.27454 c 0,0 0.3981,0.45363 0.74512,0.66465 0.34701,0.21102 0.49918,-0.009 0.85019,0.0167 0.35101,0.0261 1.140833,0.32368 1.140833,0.32368 0,0 0.02842,-0.42466 0.144173,-0.64421 0.11571,-0.21959 -0.01938,-0.81657 -0.01938,-0.81657 l -0.06843,0.0113 -0.0343,-0.17886 0.08673,0.0384 c 0,0 -0.03247,-0.25952 0.127404,-0.81118 0.146509,-0.50548 0.490977,-0.89904 0.433613,-1.60422 l 0.02663,-0.007 -0.0487,-0.55607 0.22539,0.0317 c 7.5e-4,6.7e-4 -2.91e-4,0.001 9.19e-4,0.002 0.208123,0.21731 0.507751,0.12474 0.608991,0.0847 l 0.0058,8.3e-4 0.664599,-0.28055 -0.01723,0.11186 -0.10823,0.18903 0.636473,-0.78747 1.669179,0.19919 -0.209197,-0.0599 -0.09245,-0.0676 0.672223,-0.26129 0.0036,-0.006 c 0.100487,-0.042 0.380058,-0.18522 0.377666,-0.48615 2.2e-5,-0.001 -5.45e-4,-8.8e-4 -9.19e-4,-0.002 l 0.140041,-0.1782 0.3512,0.4334 0.02252,-0.0134 c 0.450688,0.5454 0.9727,0.58525 1.430229,0.84534 0.499366,0.28382 0.658029,0.49294 0.658029,0.49294 l 0.03621,-0.0861 0.09788,0.14967 -0.05608,0.039 c 0,0 0.319807,0.52272 0.555873,0.59935 0.236059,0.0766 0.552661,0.35963 0.552661,0.35963 0,0 0.358125,-0.75956 0.591511,-1.02302 0.233392,-0.26348 0.495627,-0.21445 0.597183,-0.60769 0.101535,-0.39324 0.07072,-0.99349 0.07072,-0.99349 l -0.235167,-0.15524 c 0,0 -0.470396,0.1592 -0.416835,0.31573 0.0535,0.15659 -0.02362,0.28989 -0.02362,0.28989 l -0.01201,0.008 -0.03973,0.16085 -0.962374,0.25422 -0.29432,-0.21543 -0.137671,-0.0246 c -0.121462,-0.12103 -0.354331,-0.34366 -0.595285,-0.50761 -0.320727,-0.21838 -1.016052,-0.85162 -1.103576,-0.9317 l -0.03675,-0.13533 0.02987,-0.20584 -0.342075,-0.25963 0.07283,0.15415 -0.245386,-0.21916 0.144161,-0.0392 c 0,0 -0.706871,-0.35996 -1.15203,-0.40877 -0.02788,-0.003 -0.05462,-0.003 -0.08148,-0.002 -0.121533,0.006 -0.232276,0.0559 -0.334199,0.12894 l 0.209349,-1.33369 c -0.117516,0.0983 -0.235296,0.18603 -0.315132,0.24286 l -0.195449,0.12224 -0.154514,-1.37536 0.175866,-0.0716 -0.162899,-0.44169 0.03116,0.0176 0.0026,-0.01 0.01703,-0.0427 c -8.9e-4,-0.0261 -0.0041,-0.0601 -0.0051,-0.0892 l 0.01409,-0.15867 0.0051,-0.0514 c 0.03791,-0.18268 0.130621,-0.59767 0.130621,-0.59767 l 0.176772,-0.796 0.133211,-0.77225 7.62e-4,0.30947 c 0,0 -0.08167,0.31959 -0.11277,0.48798 0.06196,-0.22026 0.12583,-0.44867 0.12583,-0.44867 0,0 0.0034,-0.24908 0.0063,-0.45907 l 0.150647,-0.87465 0.184025,-0.13814 0.01715,-0.007 c -0.01764,0.006 -0.05996,0.0163 -0.05996,0.0163 l -0.139224,0.11879 0.01198,-0.07 0.504307,-0.29185 -0.0061,0.0303 c 0.09391,-0.10101 0.189716,-0.21352 0.189716,-0.21352 l 0.127771,-0.18721 c 0,0 -0.04444,-0.0781 -0.153457,-0.14413 l -0.01101,0.0293 -0.01463,-0.027 -0.01997,-0.0111 0.0078,-0.0143 c 0,0 -0.04173,-0.0503 -0.165857,-0.0669 l -0.02569,-0.0171 0.0069,-0.009 c 0,0 -0.09602,-0.10713 -0.192449,-0.0859 l -0.009,-0.005 0.0204,-0.0314 -0.08263,-0.0751 c 0,0 -0.09138,-0.002 -0.194819,0.072 l -0.01277,-0.004 0.01842,-0.0194 c 0,0 -0.03648,-0.0475 -0.07716,-0.091 -0.01021,-0.0109 -0.02481,-0.0112 -0.03969,-0.006 z m 0.627363,0.90627 c -0.02107,0.0227 -0.04252,0.0395 -0.06241,0.0598 l 0.02243,0.0749 0.03968,-0.13467 z m -0.966952,6.47995 0.05745,0.0273 -0.07992,0.0742 0.02249,-0.10138 z m 4.019439,2.65976 0.135604,0.087 0.06318,-0.0481 -0.198789,-0.0389 z m 0.749301,0.10132 c 0.05737,-0.0125 0.1128,-0.0286 0.158024,-0.0409 l -0.04885,0.0395 -0.109274,0.001 z m -9.772144,3.21478 -0.1159,0.16963 0.0807,-0.01 0.0353,-0.15965 z m -0.4669,0.59614 -0.0771,0.0758 -0.0645,0.008 c 0.0409,-0.0229 0.0917,-0.053 0.14163,-0.0837 z"
     style="fill:#ffffff;fill-opacity:1;stroke:none;overflow:visible" /><path
     sodipodi:nodetypes="cc"
     inkscape:connector-curvature="0"
     id="path3879-2"
     d="m -165.07279,173.39342 62.71446,0.74462"
     style="color:#000000;fill:none;stroke:#ffffff;stroke-width:0.625;stroke-linecap:butt;stroke-linejoin:miter;stroke-miterlimit:4;stroke-opacity:1;stroke-dasharray:none;stroke-dashoffset:0;marker:none;visibility:visible;display:inline;overflow:visible;enable-background:accumulate" /><path
     inkscape:connector-curvature="0"
     id="path3881-7"
     d="m -98.815286,174.07138 -6.100224,-2.41382 2.48455,2.50458 -2.28968,1.93483 z"
     style="color:#000000;fill:#ffffff;fill-opacity:1;stroke:none;stroke-width:1.875;marker:none;visibility:visible;display:inline;overflow:visible;enable-background:accumulate" /></g><text
   xml:space="preserve"
   style="font-size:10px;font-style:normal;font-variant:normal;font-weight:bold;font-stretch:normal;text-align:start;line-height:100%;letter-spacing:0px;word-spacing:0px;writing-mode:lr-tb;text-anchor:start;fill:#ffffff;fill-opacity:1;stroke:none;font-family:FreeSans;-inkscape-font-specification:FreeSans Bold"
   x="-143.41582"
   y="111.16148"
   id="text3923"
   sodipodi:linespacing="100%"><tspan
     sodipodi:role="line"
     id="tspan3925"
     x="-143.41582"
     y="111.16148">o</tspan></text>

<path
   style="color:#000000;fill:none;stroke:#ffffff;stroke-width:0.625;stroke-linecap:butt;stroke-linejoin:miter;stroke-miterlimit:4;stroke-opacity:1;stroke-dasharray:none;stroke-dashoffset:0;marker:none;visibility:visible;display:inline;overflow:visible;enable-background:accumulate"
   d="m -204.8844,200.79094 167.040469,0.74462"
   id="path3879-2-5"
   inkscape:connector-curvature="0"
   sodipodi:nodetypes="cc" /><path
   style="color:#000000;fill:none;stroke:#ffffff;stroke-width:0.625;stroke-linecap:butt;stroke-linejoin:miter;stroke-miterlimit:4;stroke-opacity:1;stroke-dasharray:none;stroke-dashoffset:0;marker:none;visibility:visible;display:inline;overflow:visible;enable-background:accumulate"
   d="m -204.56817,201.06541 0.74462,-135.905925"
   id="path3879-2-5-5"
   inkscape:connector-curvature="0"
   sodipodi:nodetypes="cc" /><path
   style="color:#000000;fill:#ffffff;fill-opacity:1;stroke:none;stroke-width:1.875;marker:none;visibility:visible;display:inline;overflow:visible;enable-background:accumulate"
   d="m -203.67488,61.662236 -2.41382,6.100219 2.50458,-2.484555 1.93483,2.289687 z"
   id="path3881-5"
   inkscape:connector-curvature="0" /><path
   style="color:#000000;fill:#ffffff;fill-opacity:1;stroke:none;stroke-width:1.875;marker:none;visibility:visible;display:inline;overflow:visible;enable-background:accumulate"
   d="m -34.433204,201.50987 -6.10022,-2.41382 2.48456,2.50458 -2.28969,1.93483 z"
   id="path3881-72"
   inkscape:connector-curvature="0" /><text
   xml:space="preserve"
   style="font-size:10px;font-style:normal;font-variant:normal;font-weight:normal;font-stretch:normal;text-align:start;line-height:100%;letter-spacing:0px;word-spacing:0px;writing-mode:lr-tb;text-anchor:start;fill:#ffffff;fill-opacity:1;stroke:none;font-family:FreeSans;-inkscape-font-specification:FreeSans"
   x="-32.211517"
   y="204.04042"
   id="text3988"
   sodipodi:linespacing="100%"><tspan
     sodipodi:role="line"
     id="tspan3990"
     x="-32.211517"
     y="204.04042">x</tspan></text>

<text
   xml:space="preserve"
   style="font-size:10px;font-style:normal;font-variant:normal;font-weight:normal;font-stretch:normal;text-align:start;line-height:100%;letter-spacing:0px;word-spacing:0px;writing-mode:lr-tb;text-anchor:start;fill:#ffffff;fill-opacity:1;stroke:none;font-family:FreeSans;-inkscape-font-specification:FreeSans"
   x="-205.43541"
   y="59.252655"
   id="text3992"
   sodipodi:linespacing="100%"><tspan
     sodipodi:role="line"
     id="tspan3994"
     x="-205.43541"
     y="59.252655">t</tspan></text>

</svg>