<?xml version="1.0" encoding="UTF-8" standalone="no"?>
<!-- Created with Inkscape (http://www.inkscape.org/) -->
<svg
   xmlns:dc="http://purl.org/dc/elements/1.1/"
   xmlns:cc="http://creativecommons.org/ns#"
   xmlns:rdf="http://www.w3.org/1999/02/22-rdf-syntax-ns#"
   xmlns:svg="http://www.w3.org/2000/svg"
   xmlns="http://www.w3.org/2000/svg"
   xmlns:sodipodi="http://sodipodi.sourceforge.net/DTD/sodipodi-0.dtd"
   xmlns:inkscape="http://www.inkscape.org/namespaces/inkscape"
   width="744.09448819"
   height="1052.3622047"
   id="svg2"
   sodipodi:version="0.32"
   inkscape:version="0.46"
   sodipodi:docname="parallel-at-rest.svg"
   inkscape:output_extension="org.inkscape.output.svg.inkscape">
  <defs
     id="defs4">
    <linearGradient
       id="linearGradient3282">
      <stop
         style="stop-color:#ebebeb;stop-opacity:1;"
         offset="0"
         id="stop3284" />
      <stop
         id="stop3290"
         offset="0.42222223"
         style="stop-color:#3a3a3a;stop-opacity:1;" />
      <stop
         style="stop-color:#000000;stop-opacity:1;"
         offset="1"
         id="stop3286" />
    </linearGradient>
    <inkscape:perspective
       sodipodi:type="inkscape:persp3d"
       inkscape:vp_x="0 : 526.18109 : 1"
       inkscape:vp_y="0 : 1000 : 0"
       inkscape:vp_z="744.09448 : 526.18109 : 1"
       inkscape:persp3d-origin="372.04724 : 350.78739 : 1"
       id="perspective10" />
  </defs>
  <sodipodi:namedview
     id="base"
     pagecolor="#ffffff"
     bordercolor="#666666"
     borderopacity="1.0"
     gridtolerance="10000"
     guidetolerance="10"
     objecttolerance="10"
     inkscape:pageopacity="0.0"
     inkscape:pageshadow="2"
     inkscape:zoom="2.5549824"
     inkscape:cx="29.592004"
     inkscape:cy="688.47971"
     inkscape:document-units="px"
     inkscape:current-layer="layer1"
     showgrid="false"
     inkscape:window-width="1278"
     inkscape:window-height="996"
     inkscape:window-x="3"
     inkscape:window-y="4" />
  <metadata
     id="metadata7">
    <rdf:RDF>
      <cc:Work
         rdf:about="">
        <dc:format>image/svg+xml</dc:format>
        <dc:type
           rdf:resource="http://purl.org/dc/dcmitype/StillImage" />
      </cc:Work>
    </rdf:RDF>
  </metadata>
  <g
     inkscape:label="Layer 1"
     inkscape:groupmode="layer"
     id="layer1">
    <rect
       style="fill:#dedede;fill-opacity:1;fill-rule:evenodd;stroke:none;stroke-width:0.53544941pt;stroke-linecap:butt;stroke-linejoin:miter;stroke-opacity:1"
       id="rect2383"
       width="184.25197"
       height="149.78691"
       x="-58.188301"
       y="290.6445" />
    <path
       style="fill:none;fill-opacity:0.75;fill-rule:evenodd;stroke:#000000;stroke-width:0.875;stroke-linecap:butt;stroke-linejoin:miter;stroke-miterlimit:4;stroke-dasharray:none;stroke-opacity:1"
       d="M -35.291384,304.40945 L -35.291384,413.58486 L 101.34516,413.58486"
       id="path2380"
       sodipodi:nodetypes="ccc" />
    <text
       xml:space="preserve"
       style="font-size:10px;font-style:normal;font-variant:normal;font-weight:normal;font-stretch:normal;text-align:start;line-height:100%;writing-mode:lr-tb;text-anchor:start;fill:#000000;fill-opacity:1;stroke:none;stroke-width:1pt;stroke-linecap:butt;stroke-linejoin:miter;stroke-opacity:1;font-family:Bitstream Vera Sans;-inkscape-font-specification:Bitstream Vera Sans"
       x="-46.200848"
       y="307.82803"
       id="text3152"
       sodipodi:linespacing="100%"><tspan
         sodipodi:role="line"
         id="tspan3154"
         x="-46.200848"
         y="307.82803">t</tspan></text>
    <text
       xml:space="preserve"
       style="font-size:10px;font-style:normal;font-variant:normal;font-weight:normal;font-stretch:normal;text-align:start;line-height:100%;writing-mode:lr-tb;text-anchor:start;fill:#000000;fill-opacity:1;stroke:none;stroke-width:1pt;stroke-linecap:butt;stroke-linejoin:miter;stroke-opacity:1;font-family:Bitstream Vera Sans;-inkscape-font-specification:Bitstream Vera Sans"
       x="97.589447"
       y="425.92508"
       id="text3156"
       sodipodi:linespacing="100%"><tspan
         sodipodi:role="line"
         id="tspan3158"
         x="97.589447"
         y="425.92508">x</tspan></text>
    <rect
       style="fill:none;fill-opacity:0.75000000000000000;fill-rule:evenodd;stroke:#000000;stroke-width:0.875;stroke-linecap:butt;stroke-linejoin:miter;stroke-opacity:1;stroke-miterlimit:4;stroke-dasharray:none"
       id="rect2497"
       width="88.569077"
       height="67.461494"
       x="-8.2774839"
       y="323.52972" />
    <text
       xml:space="preserve"
       style="font-size:10px;font-style:normal;font-variant:normal;font-weight:normal;font-stretch:normal;text-align:start;line-height:100%;writing-mode:lr-tb;text-anchor:start;fill:#000000;fill-opacity:1;stroke:none;stroke-width:1pt;stroke-linecap:butt;stroke-linejoin:miter;stroke-opacity:1;font-family:Bitstream Vera Sans;-inkscape-font-specification:Bitstream Vera Sans"
       x="-18.624338"
       y="398.02707"
       id="text3269"
       sodipodi:linespacing="100%"><tspan
         sodipodi:role="line"
         id="tspan3271"
         x="-18.624338"
         y="398.02707">P</tspan></text>
    <text
       xml:space="preserve"
       style="font-size:10px;font-style:normal;font-variant:normal;font-weight:normal;font-stretch:normal;text-align:start;line-height:100%;writing-mode:lr-tb;text-anchor:start;fill:#000000;fill-opacity:1;stroke:none;stroke-width:1pt;stroke-linecap:butt;stroke-linejoin:miter;stroke-opacity:1;font-family:Bitstream Vera Sans;-inkscape-font-specification:Bitstream Vera Sans"
       x="84.430336"
       y="397.61319"
       id="text3273"
       sodipodi:linespacing="100%"><tspan
         sodipodi:role="line"
         id="tspan3275"
         x="84.430336"
         y="397.61319">Q</tspan></text>
    <text
       xml:space="preserve"
       style="font-size:10px;font-style:normal;font-variant:normal;font-weight:normal;font-stretch:normal;text-align:start;line-height:100%;writing-mode:lr-tb;text-anchor:start;fill:#000000;fill-opacity:1;stroke:none;stroke-width:1pt;stroke-linecap:butt;stroke-linejoin:miter;stroke-opacity:1;font-family:Bitstream Vera Sans;-inkscape-font-specification:Bitstream Vera Sans"
       x="-19.038212"
       y="321.46039"
       id="text3277"
       sodipodi:linespacing="100%"><tspan
         sodipodi:role="line"
         id="tspan3279"
         x="-19.038212"
         y="321.46039">R</tspan></text>
    <text
       xml:space="preserve"
       style="font-size:10px;font-style:normal;font-variant:normal;font-weight:normal;font-stretch:normal;text-align:start;line-height:100%;writing-mode:lr-tb;text-anchor:start;fill:#000000;fill-opacity:1;stroke:none;stroke-width:1pt;stroke-linecap:butt;stroke-linejoin:miter;stroke-opacity:1;font-family:Bitstream Vera Sans;-inkscape-font-specification:Bitstream Vera Sans"
       x="83.602585"
       y="321.04648"
       id="text3281"
       sodipodi:linespacing="100%"><tspan
         sodipodi:role="line"
         id="tspan3283"
         x="83.602585"
         y="321.04648">S</tspan></text>
    <path
       style="opacity:1;fill:#000000;fill-opacity:1;fill-rule:nonzero;stroke:none;stroke-width:1pt;stroke-linecap:butt;stroke-linejoin:miter;marker:none;marker-start:none;marker-mid:none;marker-end:none;stroke-miterlimit:4;stroke-dasharray:none;stroke-dashoffset:0;stroke-opacity:1;visibility:visible;display:inline;overflow:visible;enable-background:accumulate"
       id="path3285"
       d="M -10.103384,387.25985 C -9.4617937,386.83854 -8.7782199,386.48175 -8.0923882,386.13804 C -7.6179233,385.85336 -7.0916164,385.68296 -6.5874198,385.46517 C -6.5230984,385.43828 -6.458777,385.4114 -6.3944556,385.38451 L -6.0170331,386.29577 C -6.0799638,386.32159 -6.1428946,386.34741 -6.2058254,386.37323 C -6.6952124,386.57454 -7.1977275,386.74585 -7.6576583,387.01419 C -8.2990976,387.329 -8.9416082,387.65593 -9.5298942,388.06274 L -10.103384,387.25985 z" />
    <path
       style="opacity:1;fill:#000000;fill-opacity:1;fill-rule:nonzero;stroke:none;stroke-width:1pt;stroke-linecap:butt;stroke-linejoin:miter;marker:none;marker-start:none;marker-mid:none;marker-end:none;stroke-miterlimit:4;stroke-dasharray:none;stroke-dashoffset:0;stroke-opacity:1;visibility:visible;display:inline;overflow:visible;enable-background:accumulate"
       id="path3291"
       d="M -10.192308,381.39095 C -9.492047,381.15262 -8.7633041,381.01832 -8.0326145,380.91545 C -7.6614348,380.83273 -7.292208,380.74582 -6.9160009,380.68903 L -6.7717081,381.66552 C -7.1515327,381.72017 -7.5228852,381.81419 -7.8999641,381.88429 C -8.5710811,381.97335 -9.2435361,382.08935 -9.8791796,382.33033 L -10.192308,381.39095 z" />
    <path
       style="opacity:1;fill:#000000;fill-opacity:1;fill-rule:nonzero;stroke:none;stroke-width:1pt;stroke-linecap:butt;stroke-linejoin:miter;marker:none;marker-start:none;marker-mid:none;marker-end:none;stroke-miterlimit:4;stroke-dasharray:none;stroke-dashoffset:0;stroke-opacity:1;visibility:visible;display:inline;overflow:visible;enable-background:accumulate"
       id="path3293"
       d="M -9.9966119,372.58462 C -9.4507404,372.42805 -8.9199619,372.22436 -8.3781126,372.05469 C -7.9697056,371.90719 -7.5649874,371.75015 -7.1550138,371.6069 L -6.8327455,372.54053 C -7.2536233,372.68356 -7.6679175,372.84531 -8.0876261,372.99199 C -8.6239127,373.15628 -9.1480915,373.35708 -9.6834835,373.52401 L -9.9966119,372.58462 z" />
    <path
       style="opacity:1;fill:#000000;fill-opacity:1;fill-rule:nonzero;stroke:none;stroke-width:1pt;stroke-linecap:butt;stroke-linejoin:miter;marker:none;marker-start:none;marker-mid:none;marker-end:none;stroke-miterlimit:4;stroke-dasharray:none;stroke-dashoffset:0;stroke-opacity:1;visibility:visible;display:inline;overflow:visible;enable-background:accumulate"
       id="path3295"
       d="M -10.108645,358.68102 C -9.4193415,358.54663 -8.7613843,358.29543 -8.0951769,358.07966 C -7.8009528,357.9759 -7.507687,357.87188 -7.2185117,357.75483 L -6.8547306,358.66507 C -7.1654239,358.78787 -7.4794764,358.89917 -7.7953036,359.00822 C -8.4829735,359.22961 -9.1623728,359.4828 -9.8692084,359.63877 L -10.108645,358.68102 z" />
    <path
       style="opacity:1;fill:#000000;fill-opacity:1;fill-rule:nonzero;stroke:none;stroke-width:1pt;stroke-linecap:butt;stroke-linejoin:miter;marker:none;marker-start:none;marker-mid:none;marker-end:none;stroke-miterlimit:4;stroke-dasharray:none;stroke-dashoffset:0;stroke-opacity:1;visibility:visible;display:inline;overflow:visible;enable-background:accumulate"
       id="path3297"
       d="M -10.061609,348.31249 C -9.2898167,347.88439 -8.5507537,347.39603 -7.825333,346.89375 C -7.3640226,346.58603 -7.5922892,346.73038 -7.1415903,346.45901 L -6.6434106,347.29845 C -7.0519263,347.53689 -6.8404432,347.40683 -7.2759543,347.69172 C -8.0267037,348.20576 -8.788623,348.70655 -9.571669,349.16989 L -10.061609,348.31249 z" />
    <path
       style="opacity:1;fill:#000000;fill-opacity:1;fill-rule:nonzero;stroke:none;stroke-width:1pt;stroke-linecap:butt;stroke-linejoin:miter;marker:none;marker-start:none;marker-mid:none;marker-end:none;stroke-miterlimit:4;stroke-dasharray:none;stroke-dashoffset:0;stroke-opacity:1;visibility:visible;display:inline;overflow:visible;enable-background:accumulate"
       id="path3299"
       d="M -10.192308,339.31629 C -9.5709416,339.1418 -8.9462076,338.97388 -8.3342531,338.76789 C -7.9802011,338.65496 -7.639341,338.50733 -7.2888687,338.38414 L -6.9662878,339.31339 C -7.3215524,339.43493 -7.6660837,339.58481 -8.0251754,339.69531 C -8.6382299,339.8978 -9.2617663,340.06729 -9.8791796,340.25568 L -10.192308,339.31629 z" />
    <path
       style="opacity:1;fill:#000000;fill-opacity:1;fill-rule:nonzero;stroke:none;stroke-width:1pt;stroke-linecap:butt;stroke-linejoin:miter;marker:none;marker-start:none;marker-mid:none;marker-end:none;stroke-miterlimit:4;stroke-dasharray:none;stroke-dashoffset:0;stroke-opacity:1;visibility:visible;display:inline;overflow:visible;enable-background:accumulate"
       id="path3301"
       d="M -9.5610578,331.28711 C -8.9157124,331.06714 -8.2831218,330.81374 -7.6497452,330.56183 C -7.3757684,330.47607 -7.1161918,330.35359 -6.8531029,330.24042 L -6.4688345,331.14564 C -6.7404122,331.2594 -7.0094814,331.38058 -7.2907755,331.46921 C -7.9551358,331.73059 -8.6179269,331.99526 -9.2894361,332.23779 L -9.5610578,331.28711 z" />
    <path
       style="opacity:1;fill:#000000;fill-opacity:1;fill-rule:nonzero;stroke:none;stroke-width:1pt;stroke-linecap:butt;stroke-linejoin:miter;marker:none;marker-start:none;marker-mid:none;marker-end:none;stroke-miterlimit:4;stroke-dasharray:none;stroke-dashoffset:0;stroke-opacity:1;visibility:visible;display:inline;overflow:visible;enable-background:accumulate"
       id="path3303"
       d="M -9.8009158,327.37883 C -9.2267943,327.21718 -8.6376754,327.1224 -8.0455149,327.05924 C -7.769667,327.00758 -7.4922787,326.9641 -7.2220649,326.88781 L -6.9637398,327.83892 C -7.2865029,327.9242 -7.6141989,327.98511 -7.9441302,328.03673 C -8.4651327,328.08905 -8.9854214,328.16592 -9.4877874,328.31822 L -9.8009158,327.37883 z" />
    <path
       style="opacity:1;fill:#000000;fill-opacity:1;fill-rule:nonzero;stroke:none;stroke-width:1pt;stroke-linecap:butt;stroke-linejoin:miter;marker:none;marker-start:none;marker-mid:none;marker-end:none;stroke-miterlimit:4;stroke-dasharray:none;stroke-dashoffset:0;stroke-opacity:1;visibility:visible;display:inline;overflow:visible;enable-background:accumulate"
       id="path3305"
       d="M -2.8322571,388.72498 C -2.8890218,389.29295 -2.9379532,389.8609 -3.0626912,390.4185 C -3.1326011,390.8382 -3.2548675,391.23802 -3.4302195,391.62483 C -3.5015248,391.82767 -3.579602,392.02655 -3.6638443,392.22463 L -4.574316,391.83665 C -4.4865036,391.63098 -4.4075456,391.42473 -4.3297438,391.215 C -4.18058,390.88944 -4.0815193,390.55401 -4.0228778,390.19916 C -3.9094662,389.71441 -3.8665769,389.2204 -3.8214092,388.72498 L -2.8322571,388.72498 z" />
    <path
       style="opacity:1;fill:#000000;fill-opacity:1;fill-rule:nonzero;stroke:none;stroke-width:1pt;stroke-linecap:butt;stroke-linejoin:miter;marker:none;marker-start:none;marker-mid:none;marker-end:none;stroke-miterlimit:4;stroke-dasharray:none;stroke-dashoffset:0;stroke-opacity:1;visibility:visible;display:inline;overflow:visible;enable-background:accumulate"
       id="path3307"
       d="M 2.8413792,389.55459 C 2.8388591,390.21751 2.7494247,390.87628 2.6954252,391.5363 L 1.7176477,391.45309 C 1.773417,390.82137 1.8670395,390.18967 1.8553264,389.55459 L 2.8413792,389.55459 z" />
    <path
       style="opacity:1;fill:#000000;fill-opacity:1;fill-rule:nonzero;stroke:none;stroke-width:1pt;stroke-linecap:butt;stroke-linejoin:miter;marker:none;marker-start:none;marker-mid:none;marker-end:none;stroke-miterlimit:4;stroke-dasharray:none;stroke-dashoffset:0;stroke-opacity:1;visibility:visible;display:inline;overflow:visible;enable-background:accumulate"
       id="path3309"
       d="M 7.7353305,389.31207 C 7.7229186,389.96609 7.6371148,390.61641 7.5873773,391.26846 C 7.5643984,391.63166 7.583389,391.44955 7.5297699,391.81472 L 6.5575637,391.65943 C 6.6074156,391.38074 6.5864085,391.53645 6.6104989,391.19104 C 6.6618712,390.56553 6.7493613,389.94001 6.7461784,389.31207 L 7.7353305,389.31207 z" />
    <path
       style="opacity:1;fill:#000000;fill-opacity:1;fill-rule:nonzero;stroke:none;stroke-width:1pt;stroke-linecap:butt;stroke-linejoin:miter;marker:none;marker-start:none;marker-mid:none;marker-end:none;stroke-miterlimit:4;stroke-dasharray:none;stroke-dashoffset:0;stroke-opacity:1;visibility:visible;display:inline;overflow:visible;enable-background:accumulate"
       id="path3311"
       d="M 13.236754,389.52349 C 13.393399,390.17076 13.548874,390.81873 13.667311,391.47444 C 13.723796,391.85024 13.689534,391.67967 13.762338,391.98766 L 12.80235,392.20135 C 12.723718,391.83102 12.75648,392.0163 12.703652,391.6456 C 12.597442,391.03638 12.45395,390.4345 12.297369,389.83662 L 13.236754,389.52349 z" />
    <path
       style="opacity:1;fill:#000000;fill-opacity:1;fill-rule:nonzero;stroke:none;stroke-width:1pt;stroke-linecap:butt;stroke-linejoin:miter;marker:none;marker-start:none;marker-mid:none;marker-end:none;stroke-miterlimit:4;stroke-dasharray:none;stroke-dashoffset:0;stroke-opacity:1;visibility:visible;display:inline;overflow:visible;enable-background:accumulate"
       id="path3313"
       d="M 20.673205,390.11058 C 20.818203,390.59408 20.92769,391.09177 21.107712,391.5639 C 21.206899,391.82254 21.15897,391.69089 21.251179,391.95896 L 20.316835,392.27673 C 20.236353,392.03685 20.280563,392.16185 20.182969,391.90216 C 20.0107,391.41679 19.885099,390.91586 19.73382,390.42371 L 20.673205,390.11058 z" />
    <path
       style="opacity:1;fill:#000000;fill-opacity:1;fill-rule:nonzero;stroke:none;stroke-width:1pt;stroke-linecap:butt;stroke-linejoin:miter;marker:none;marker-start:none;marker-mid:none;marker-end:none;stroke-miterlimit:4;stroke-dasharray:none;stroke-dashoffset:0;stroke-opacity:1;visibility:visible;display:inline;overflow:visible;enable-background:accumulate"
       id="path3315"
       d="M 29.867369,389.43783 C 29.995402,390.06996 30.169936,390.69243 30.355348,391.30997 C 30.451192,391.65551 30.398903,391.50007 30.50436,391.77886 L 29.578929,392.11358 C 29.456894,391.7648 29.51087,391.9398 29.416365,391.5888 C 29.221068,390.92385 29.039674,390.254 28.888268,389.5777 L 29.867369,389.43783 z" />
    <path
       style="opacity:1;fill:#000000;fill-opacity:1;fill-rule:nonzero;stroke:none;stroke-width:1pt;stroke-linecap:butt;stroke-linejoin:miter;marker:none;marker-start:none;marker-mid:none;marker-end:none;stroke-miterlimit:4;stroke-dasharray:none;stroke-dashoffset:0;stroke-opacity:1;visibility:visible;display:inline;overflow:visible;enable-background:accumulate"
       id="path3317"
       d="M 38.487369,389.45849 C 38.939184,390.24986 39.362255,391.05926 39.73869,391.88921 C 39.791562,391.99654 39.844435,392.10388 39.897308,392.21121 L 39.019932,392.63713 C 38.964145,392.52062 38.908357,392.40412 38.85257,392.28762 C 38.494745,391.48397 38.091527,390.69769 37.629974,389.94843 L 38.487369,389.45849 z" />
    <path
       style="opacity:1;fill:#000000;fill-opacity:1;fill-rule:nonzero;stroke:none;stroke-width:1pt;stroke-linecap:butt;stroke-linejoin:miter;marker:none;marker-start:none;marker-mid:none;marker-end:none;stroke-miterlimit:4;stroke-dasharray:none;stroke-dashoffset:0;stroke-opacity:1;visibility:visible;display:inline;overflow:visible;enable-background:accumulate"
       id="path3319"
       d="M 45.672514,389.11127 C 46.11756,389.67068 46.584768,390.20377 47.111429,390.68778 C 47.37627,390.926 47.653113,391.15202 47.937001,391.36729 L 47.336122,392.14758 C 47.031922,391.91035 46.733297,391.66457 46.448056,391.40483 C 45.916011,390.90963 45.4352,390.37091 44.973155,389.81063 L 45.672514,389.11127 z" />
    <path
       style="opacity:1;fill:#000000;fill-opacity:1;fill-rule:nonzero;stroke:none;stroke-width:1pt;stroke-linecap:butt;stroke-linejoin:miter;marker:none;marker-start:none;marker-mid:none;marker-end:none;stroke-miterlimit:4;stroke-dasharray:none;stroke-dashoffset:0;stroke-opacity:1;visibility:visible;display:inline;overflow:visible;enable-background:accumulate"
       id="path3321"
       d="M 56.240101,390.08975 C 56.854093,390.7142 57.378512,391.41936 57.920959,392.10523 C 58.204424,392.46745 58.48393,392.83302 58.756712,393.20339 L 57.961998,393.78103 C 57.701358,393.41707 57.432827,393.05846 57.158787,392.70454 C 56.644583,392.04666 56.142856,391.37014 55.540743,390.78911 L 56.240101,390.08975 z" />
    <path
       style="opacity:1;fill:#000000;fill-opacity:1;fill-rule:nonzero;stroke:none;stroke-width:1pt;stroke-linecap:butt;stroke-linejoin:miter;marker:none;marker-start:none;marker-mid:none;marker-end:none;stroke-miterlimit:4;stroke-dasharray:none;stroke-dashoffset:0;stroke-opacity:1;visibility:visible;display:inline;overflow:visible;enable-background:accumulate"
       id="path3323"
       d="M 63.50349,388.93976 C 64.124985,389.50296 64.789653,390.01732 65.444913,390.54048 C 65.931693,390.95017 66.447244,391.32388 66.970339,391.68539 L 66.407683,392.48816 C 65.872882,392.10854 65.343219,391.72027 64.840967,391.29802 C 64.156064,390.75278 63.466156,390.21223 62.805681,389.63757 L 63.50349,388.93976 z" />
    <path
       style="opacity:1;fill:#000000;fill-opacity:1;fill-rule:nonzero;stroke:none;stroke-width:1pt;stroke-linecap:butt;stroke-linejoin:miter;marker:none;marker-start:none;marker-mid:none;marker-end:none;stroke-miterlimit:4;stroke-dasharray:none;stroke-dashoffset:0;stroke-opacity:1;visibility:visible;display:inline;overflow:visible;enable-background:accumulate"
       id="path3325"
       d="M 73.303947,389.7972 C 73.710851,390.4828 74.201142,391.1114 74.69356,391.73651 C 75.071697,392.1746 75.421744,392.66928 75.897978,393.00894 C 75.951149,393.05058 76.00432,393.09221 76.057491,393.13384 L 75.444842,393.90814 C 75.398206,393.8708 75.351569,393.83347 75.304932,393.79613 C 74.77523,393.38408 74.349491,392.85633 73.929975,392.33628 C 73.423643,391.68984 72.920971,391.04017 72.481195,390.3457 L 73.303947,389.7972 z" />
    <path
       style="opacity:1;fill:#000000;fill-opacity:1;fill-rule:nonzero;stroke:none;stroke-width:1pt;stroke-linecap:butt;stroke-linejoin:miter;marker:none;marker-start:none;marker-mid:none;marker-end:none;stroke-miterlimit:4;stroke-dasharray:none;stroke-dashoffset:0;stroke-opacity:1;visibility:visible;display:inline;overflow:visible;enable-background:accumulate"
       id="path3327"
       d="M -2.636561,321.79693 C -2.6414761,322.36145 -2.7321023,322.921 -2.7835727,323.48255 C -2.8061577,323.78598 -2.7963621,323.6364 -2.8131898,323.93128 L -3.7964424,323.87287 C -3.7768887,323.55532 -3.7881825,323.71614 -3.7623342,323.39045 C -3.7111967,322.86009 -3.6201226,322.33039 -3.6257131,321.79693 L -2.636561,321.79693 z" />
    <path
       style="opacity:1;fill:#000000;fill-opacity:1;fill-rule:nonzero;stroke:none;stroke-width:1pt;stroke-linecap:butt;stroke-linejoin:miter;marker:none;marker-start:none;marker-mid:none;marker-end:none;stroke-miterlimit:4;stroke-dasharray:none;stroke-dashoffset:0;stroke-opacity:1;visibility:visible;display:inline;overflow:visible;enable-background:accumulate"
       id="path3329"
       d="M 2.4826504,321.89632 C 2.6464859,322.63695 2.8154187,323.37449 2.9293787,324.12494 C 3.0018852,324.48018 3.0778135,324.83441 3.1399034,325.19166 L 2.1696215,325.35687 C 2.108976,324.99232 2.0313616,324.63128 1.9628914,324.26815 C 1.8590967,323.54838 1.7005682,322.84116 1.5249054,322.13575 L 2.4826504,321.89632 z" />
    <path
       style="opacity:1;fill:#000000;fill-opacity:1;fill-rule:nonzero;stroke:none;stroke-width:1pt;stroke-linecap:butt;stroke-linejoin:miter;marker:none;marker-start:none;marker-mid:none;marker-end:none;stroke-miterlimit:4;stroke-dasharray:none;stroke-dashoffset:0;stroke-opacity:1;visibility:visible;display:inline;overflow:visible;enable-background:accumulate"
       id="path3331"
       d="M 8.156521,321.99369 C 8.4729843,322.75707 8.7832891,323.52274 9.103401,324.28471 C 9.3251037,324.76523 9.2165596,324.52808 9.4291554,324.99612 L 8.5399043,325.39611 C 8.329204,324.92299 8.4395719,325.16839 8.2083612,324.6601 C 7.8901664,323.9002 7.5852097,323.13462 7.2482239,322.38296 L 8.156521,321.99369 z" />
    <path
       style="opacity:1;fill:#000000;fill-opacity:1;fill-rule:nonzero;stroke:none;stroke-width:1pt;stroke-linecap:butt;stroke-linejoin:miter;marker:none;marker-start:none;marker-mid:none;marker-end:none;stroke-miterlimit:4;stroke-dasharray:none;stroke-dashoffset:0;stroke-opacity:1;visibility:visible;display:inline;overflow:visible;enable-background:accumulate"
       id="path3333"
       d="M 14.790823,322.28205 C 15.240881,322.94504 15.712364,323.59075 16.201913,324.22513 C 16.285064,324.32895 16.368216,324.43277 16.451367,324.53658 L 15.690385,325.14297 C 15.604323,325.03444 15.518262,324.92591 15.4322,324.81738 C 14.931013,324.16415 14.449331,323.49826 13.968071,322.83056 L 14.790823,322.28205 z" />
    <path
       style="opacity:1;fill:#000000;fill-opacity:1;fill-rule:nonzero;stroke:none;stroke-width:1pt;stroke-linecap:butt;stroke-linejoin:miter;marker:none;marker-start:none;marker-mid:none;marker-end:none;stroke-miterlimit:4;stroke-dasharray:none;stroke-dashoffset:0;stroke-opacity:1;visibility:visible;display:inline;overflow:visible;enable-background:accumulate"
       id="path3335"
       d="M 23.626785,322.18692 C 24.008203,323.01109 24.370097,323.84331 24.71322,324.68412 C 24.87991,325.13538 24.7963,324.92815 24.959176,325.30777 L 24.055407,325.6858 C 23.885737,325.27104 23.967251,325.48353 23.811778,325.04797 C 23.484889,324.22872 23.137981,323.41789 22.744756,322.62793 L 23.626785,322.18692 z" />
    <path
       style="opacity:1;fill:#000000;fill-opacity:1;fill-rule:nonzero;stroke:none;stroke-width:1pt;stroke-linecap:butt;stroke-linejoin:miter;marker:none;marker-start:none;marker-mid:none;marker-end:none;stroke-miterlimit:4;stroke-dasharray:none;stroke-dashoffset:0;stroke-opacity:1;visibility:visible;display:inline;overflow:visible;enable-background:accumulate"
       id="path3337"
       d="M 33.399271,322.33474 C 33.791915,322.94912 34.098644,323.6109 34.423536,324.26197 C 34.469253,324.35934 34.514971,324.45672 34.560689,324.55409 L 33.672506,324.96694 C 33.63098,324.87662 33.589454,324.78631 33.547927,324.69599 C 33.23492,324.06042 32.941412,323.41264 32.541876,322.82468 L 33.399271,322.33474 z" />
    <path
       style="opacity:1;fill:#000000;fill-opacity:1;fill-rule:nonzero;stroke:none;stroke-width:1pt;stroke-linecap:butt;stroke-linejoin:miter;marker:none;marker-start:none;marker-mid:none;marker-end:none;stroke-miterlimit:4;stroke-dasharray:none;stroke-dashoffset:0;stroke-opacity:1;visibility:visible;display:inline;overflow:visible;enable-background:accumulate"
       id="path3339"
       d="M 38.195632,321.73154 C 38.756552,322.18994 39.21174,322.75787 39.68048,323.30579 C 39.990206,323.6976 39.840881,323.5058 40.128897,323.88085 L 39.352018,324.47428 C 39.081876,324.11866 39.21908,324.29719 38.940305,323.93875 C 38.512173,323.43791 38.098719,322.9132 37.577136,322.50466 L 38.195632,321.73154 z" />
    <path
       style="opacity:1;fill:#000000;fill-opacity:1;fill-rule:nonzero;stroke:none;stroke-width:1pt;stroke-linecap:butt;stroke-linejoin:miter;marker:none;marker-start:none;marker-mid:none;marker-end:none;stroke-miterlimit:4;stroke-dasharray:none;stroke-dashoffset:0;stroke-opacity:1;visibility:visible;display:inline;overflow:visible;enable-background:accumulate"
       id="path3341"
       d="M 47.854953,322.43578 C 48.414369,323.17077 49.001197,323.88441 49.566344,324.61485 C 49.787392,324.87293 49.994331,325.14251 50.203734,325.40997 L 49.429209,326.01115 C 49.221033,325.7406 49.01649,325.4671 48.797213,325.2053 C 48.245717,324.48094 47.668247,323.77623 47.09603,323.06822 L 47.854953,322.43578 z" />
    <path
       style="opacity:1;fill:#000000;fill-opacity:1;fill-rule:nonzero;stroke:none;stroke-width:1pt;stroke-linecap:butt;stroke-linejoin:miter;marker:none;marker-start:none;marker-mid:none;marker-end:none;stroke-miterlimit:4;stroke-dasharray:none;stroke-dashoffset:0;stroke-opacity:1;visibility:visible;display:inline;overflow:visible;enable-background:accumulate"
       id="path3343"
       d="M 56.591062,321.73154 C 57.146082,322.30957 57.671427,322.91477 58.211033,323.50705 C 58.542772,323.83014 58.8599,324.16861 59.204786,324.47782 L 58.539077,325.20555 C 58.177631,324.86976 57.83948,324.51027 57.491529,324.16058 C 56.988706,323.60534 56.493644,323.04281 55.972566,322.50466 L 56.591062,321.73154 z" />
    <path
       style="opacity:1;fill:#000000;fill-opacity:1;fill-rule:nonzero;stroke:none;stroke-width:1pt;stroke-linecap:butt;stroke-linejoin:miter;marker:none;marker-start:none;marker-mid:none;marker-end:none;stroke-miterlimit:4;stroke-dasharray:none;stroke-dashoffset:0;stroke-opacity:1;visibility:visible;display:inline;overflow:visible;enable-background:accumulate"
       id="path3345"
       d="M 70.18059,321.55224 C 70.759207,322.43748 71.314246,323.33893 71.917323,324.20782 C 72.248144,324.66471 72.562087,325.1334 72.88062,325.59884 L 72.079593,326.14143 C 71.767387,325.67575 71.460785,325.20611 71.131518,324.75213 C 70.503583,323.84388 69.915428,322.90854 69.295461,321.9948 L 70.18059,321.55224 z" />
    <path
       style="opacity:1;fill:#000000;fill-opacity:1;fill-rule:nonzero;stroke:none;stroke-width:1pt;stroke-linecap:butt;stroke-linejoin:miter;marker:none;marker-start:none;marker-mid:none;marker-end:none;stroke-miterlimit:4;stroke-dasharray:none;stroke-dashoffset:0;stroke-opacity:1;visibility:visible;display:inline;overflow:visible;enable-background:accumulate"
       id="path3347"
       d="M 78.246591,328.18355 C 78.903764,328.18016 79.563041,328.21719 80.218807,328.16702 C 80.675036,328.10919 81.13545,328.08724 81.580954,327.97026 C 81.639421,327.95573 81.697887,327.94121 81.756353,327.92669 L 81.993058,328.88625 C 81.937321,328.8999 81.881584,328.91355 81.825846,328.9272 C 81.321229,329.05365 80.803126,329.086 80.286975,329.14242 C 79.607753,329.18622 78.926885,329.15681 78.246591,329.1727 L 78.246591,328.18355 z" />
    <path
       style="opacity:1;fill:#000000;fill-opacity:1;fill-rule:nonzero;stroke:none;stroke-width:1pt;stroke-linecap:butt;stroke-linejoin:miter;marker:none;marker-start:none;marker-mid:none;marker-end:none;stroke-miterlimit:4;stroke-dasharray:none;stroke-dashoffset:0;stroke-opacity:1;visibility:visible;display:inline;overflow:visible;enable-background:accumulate"
       id="path3349"
       d="M 78.771139,337.45297 C 79.280022,337.58939 79.778618,337.75466 80.273296,337.93542 C 80.651177,338.09014 81.059501,338.10785 81.454495,338.18624 L 81.248041,339.15252 C 80.813127,339.04774 80.350116,339.04915 79.934452,338.85818 C 79.449441,338.67921 78.960654,338.51566 78.45801,338.39235 L 78.771139,337.45297 z" />
    <path
       style="opacity:1;fill:#000000;fill-opacity:1;fill-rule:nonzero;stroke:none;stroke-width:1pt;stroke-linecap:butt;stroke-linejoin:miter;marker:none;marker-start:none;marker-mid:none;marker-end:none;stroke-miterlimit:4;stroke-dasharray:none;stroke-dashoffset:0;stroke-opacity:1;visibility:visible;display:inline;overflow:visible;enable-background:accumulate"
       id="path3351"
       d="M 79.616463,347.94885 C 80.162954,347.95567 80.709515,347.95301 81.256033,347.95185 C 81.570683,347.95119 81.415491,347.9515 81.72161,347.95092 L 81.72161,348.93594 C 81.415491,348.93536 81.570683,348.93567 81.256033,348.93501 C 80.709515,348.93385 80.162954,348.93119 79.616463,348.93801 L 79.616463,347.94885 z" />
    <path
       style="opacity:1;fill:#000000;fill-opacity:1;fill-rule:nonzero;stroke:none;stroke-width:1pt;stroke-linecap:butt;stroke-linejoin:miter;marker:none;marker-start:none;marker-mid:none;marker-end:none;stroke-miterlimit:4;stroke-dasharray:none;stroke-dashoffset:0;stroke-opacity:1;visibility:visible;display:inline;overflow:visible;enable-background:accumulate"
       id="path3353"
       d="M 79.490703,350.91273 C 80.040768,350.99553 80.580837,351.12894 81.131805,351.2081 C 81.44103,351.23361 81.743043,351.30884 82.046783,351.3685 L 81.855324,352.33564 C 81.567609,352.27826 81.281995,352.20493 80.988869,352.18063 C 80.439877,352.09832 79.900943,351.96334 79.350832,351.89183 L 79.490703,350.91273 z" />
    <path
       style="opacity:1;fill:#000000;fill-opacity:1;fill-rule:nonzero;stroke:none;stroke-width:1pt;stroke-linecap:butt;stroke-linejoin:miter;marker:none;marker-start:none;marker-mid:none;marker-end:none;stroke-miterlimit:4;stroke-dasharray:none;stroke-dashoffset:0;stroke-opacity:1;visibility:visible;display:inline;overflow:visible;enable-background:accumulate"
       id="path3355"
       d="M 80.454394,353.99657 C 80.89842,354.28244 81.388587,354.48048 81.862318,354.70842 C 81.926452,354.73854 81.990586,354.76866 82.054721,354.79878 L 81.632377,355.68922 C 81.564835,355.65688 81.497292,355.62455 81.42975,355.59221 C 80.920681,355.33772 80.389108,355.12477 79.905892,354.81932 L 80.454394,353.99657 z" />
    <path
       style="opacity:1;fill:#000000;fill-opacity:1;fill-rule:nonzero;stroke:none;stroke-width:1pt;stroke-linecap:butt;stroke-linejoin:miter;marker:none;marker-start:none;marker-mid:none;marker-end:none;stroke-miterlimit:4;stroke-dasharray:none;stroke-dashoffset:0;stroke-opacity:1;visibility:visible;display:inline;overflow:visible;enable-background:accumulate"
       id="path3357"
       d="M 79.031553,365.29235 C 79.609926,365.54704 80.202183,365.76751 80.807762,365.94819 C 81.140849,366.02532 81.4722,366.10155 81.800959,366.19606 L 81.524471,367.14265 C 81.193614,367.04437 80.859886,366.96692 80.524839,366.88413 C 79.867243,366.68302 79.223018,366.44347 78.588988,366.17747 L 79.031553,365.29235 z" />
    <path
       style="opacity:1;fill:#000000;fill-opacity:1;fill-rule:nonzero;stroke:none;stroke-width:1pt;stroke-linecap:butt;stroke-linejoin:miter;marker:none;marker-start:none;marker-mid:none;marker-end:none;stroke-miterlimit:4;stroke-dasharray:none;stroke-dashoffset:0;stroke-opacity:1;visibility:visible;display:inline;overflow:visible;enable-background:accumulate"
       id="path3359"
       d="M 79.723629,372.28141 C 80.244675,372.74509 80.806579,373.16184 81.363954,373.58067 C 81.649948,373.81006 81.985713,373.9528 82.308169,374.11945 L 81.850858,374.99111 C 81.484132,374.7954 81.103266,374.62395 80.77754,374.35956 C 80.18413,373.91194 79.587877,373.46563 79.024271,372.98077 L 79.723629,372.28141 z" />
    <path
       style="opacity:1;fill:#000000;fill-opacity:1;fill-rule:nonzero;stroke:none;stroke-width:1pt;stroke-linecap:butt;stroke-linejoin:miter;marker:none;marker-start:none;marker-mid:none;marker-end:none;stroke-miterlimit:4;stroke-dasharray:none;stroke-dashoffset:0;stroke-opacity:1;visibility:visible;display:inline;overflow:visible;enable-background:accumulate"
       id="path3361"
       d="M 79.775393,380.219 C 80.182617,380.82061 80.730116,381.30224 81.268386,381.7821 C 81.685121,382.18336 82.1371,382.53715 82.617931,382.85676 L 82.072153,383.67492 C 81.553884,383.32802 81.068276,382.94171 80.618447,382.50854 C 80.027997,381.97842 79.435299,381.44266 78.972507,380.79249 L 79.775393,380.219 z" />
  </g>
</svg>
