<?xml version="1.0" encoding="UTF-8" standalone="no"?>
<!-- Created with Inkscape (http://www.inkscape.org/) -->
<svg
   xmlns:dc="http://purl.org/dc/elements/1.1/"
   xmlns:cc="http://creativecommons.org/ns#"
   xmlns:rdf="http://www.w3.org/1999/02/22-rdf-syntax-ns#"
   xmlns:svg="http://www.w3.org/2000/svg"
   xmlns="http://www.w3.org/2000/svg"
   xmlns:sodipodi="http://sodipodi.sourceforge.net/DTD/sodipodi-0.dtd"
   xmlns:inkscape="http://www.inkscape.org/namespaces/inkscape"
   width="744.09448819"
   height="1052.3622047"
   id="svg2"
   sodipodi:version="0.32"
   inkscape:version="0.46"
   sodipodi:docname="parallel-no-simultaneity.svg"
   inkscape:output_extension="org.inkscape.output.svg.inkscape">
  <defs
     id="defs4">
    <linearGradient
       id="linearGradient3282">
      <stop
         style="stop-color:#ebebeb;stop-opacity:1;"
         offset="0"
         id="stop3284" />
      <stop
         id="stop3290"
         offset="0.42222223"
         style="stop-color:#3a3a3a;stop-opacity:1;" />
      <stop
         style="stop-color:#000000;stop-opacity:1;"
         offset="1"
         id="stop3286" />
    </linearGradient>
    <inkscape:perspective
       sodipodi:type="inkscape:persp3d"
       inkscape:vp_x="0 : 526.18109 : 1"
       inkscape:vp_y="0 : 1000 : 0"
       inkscape:vp_z="744.09448 : 526.18109 : 1"
       inkscape:persp3d-origin="372.04724 : 350.78739 : 1"
       id="perspective10" />
  </defs>
  <sodipodi:namedview
     id="base"
     pagecolor="#ffffff"
     bordercolor="#666666"
     borderopacity="1.0"
     gridtolerance="10000"
     guidetolerance="10"
     objecttolerance="10"
     inkscape:pageopacity="0.0"
     inkscape:pageshadow="2"
     inkscape:zoom="4.6401437"
     inkscape:cx="64.777401"
     inkscape:cy="689.63293"
     inkscape:document-units="px"
     inkscape:current-layer="layer1"
     showgrid="false"
     inkscape:window-width="1278"
     inkscape:window-height="996"
     inkscape:window-x="3"
     inkscape:window-y="6" />
  <metadata
     id="metadata7">
    <rdf:RDF>
      <cc:Work
         rdf:about="">
        <dc:format>image/svg+xml</dc:format>
        <dc:type
           rdf:resource="http://purl.org/dc/dcmitype/StillImage" />
      </cc:Work>
    </rdf:RDF>
  </metadata>
  <g
     inkscape:label="Layer 1"
     inkscape:groupmode="layer"
     id="layer1">
    <rect
       style="fill:#dedede;fill-opacity:1;fill-rule:evenodd;stroke:none;stroke-width:0.53544941pt;stroke-linecap:butt;stroke-linejoin:miter;stroke-opacity:1"
       id="rect2383"
       width="184.25197"
       height="149.78691"
       x="-58.188301"
       y="290.6445" />
    <path
       style="fill:none;fill-opacity:0.75;fill-rule:evenodd;stroke:#000000;stroke-width:0.875;stroke-linecap:butt;stroke-linejoin:miter;stroke-miterlimit:4;stroke-dasharray:none;stroke-opacity:1"
       d="M -35.291384,304.40945 L -35.291384,413.58486 L 101.34516,413.58486"
       id="path2380"
       sodipodi:nodetypes="ccc" />
    <text
       xml:space="preserve"
       style="font-size:10px;font-style:normal;font-variant:normal;font-weight:normal;font-stretch:normal;text-align:start;line-height:100%;writing-mode:lr-tb;text-anchor:start;fill:#000000;fill-opacity:1;stroke:none;stroke-width:1pt;stroke-linecap:butt;stroke-linejoin:miter;stroke-opacity:1;font-family:Bitstream Vera Sans;-inkscape-font-specification:Bitstream Vera Sans"
       x="-46.200848"
       y="307.82803"
       id="text3152"
       sodipodi:linespacing="100%"><tspan
         sodipodi:role="line"
         id="tspan3154"
         x="-46.200848"
         y="307.82803">t</tspan></text>
    <text
       xml:space="preserve"
       style="font-size:10px;font-style:normal;font-variant:normal;font-weight:normal;font-stretch:normal;text-align:start;line-height:100%;writing-mode:lr-tb;text-anchor:start;fill:#000000;fill-opacity:1;stroke:none;stroke-width:1pt;stroke-linecap:butt;stroke-linejoin:miter;stroke-opacity:1;font-family:Bitstream Vera Sans;-inkscape-font-specification:Bitstream Vera Sans"
       x="97.589447"
       y="425.92508"
       id="text3156"
       sodipodi:linespacing="100%"><tspan
         sodipodi:role="line"
         id="tspan3158"
         x="97.589447"
         y="425.92508">x</tspan></text>
    <text
       xml:space="preserve"
       style="font-size:10px;font-style:normal;font-variant:normal;font-weight:normal;font-stretch:normal;text-align:start;line-height:100%;writing-mode:lr-tb;text-anchor:start;fill:#000000;fill-opacity:1;stroke:none;stroke-width:1pt;stroke-linecap:butt;stroke-linejoin:miter;stroke-opacity:1;font-family:Bitstream Vera Sans;-inkscape-font-specification:Bitstream Vera Sans"
       x="-10.650448"
       y="409.66464"
       id="text3269"
       sodipodi:linespacing="100%"><tspan
         sodipodi:role="line"
         id="tspan3271"
         x="-10.650448"
         y="409.66464">P</tspan></text>
    <text
       xml:space="preserve"
       style="font-size:10px;font-style:normal;font-variant:normal;font-weight:normal;font-stretch:normal;text-align:start;line-height:100%;writing-mode:lr-tb;text-anchor:start;fill:#000000;fill-opacity:1;stroke:none;stroke-width:1pt;stroke-linecap:butt;stroke-linejoin:miter;stroke-opacity:1;font-family:Bitstream Vera Sans;-inkscape-font-specification:Bitstream Vera Sans"
       x="84.861359"
       y="385.32907"
       id="text3273"
       sodipodi:linespacing="100%"><tspan
         sodipodi:role="line"
         id="tspan3275"
         x="84.861359"
         y="385.32907">Q</tspan></text>
    <text
       xml:space="preserve"
       style="font-size:10px;font-style:normal;font-variant:normal;font-weight:normal;font-stretch:normal;text-align:start;line-height:100%;writing-mode:lr-tb;text-anchor:start;fill:#000000;fill-opacity:1;stroke:none;stroke-width:1pt;stroke-linecap:butt;stroke-linejoin:miter;stroke-opacity:1;font-family:Bitstream Vera Sans;-inkscape-font-specification:Bitstream Vera Sans"
       x="-18.17617"
       y="336.3306"
       id="text3277"
       sodipodi:linespacing="100%"><tspan
         sodipodi:role="line"
         id="tspan3279"
         x="-18.17617"
         y="336.3306">R</tspan></text>
    <text
       xml:space="preserve"
       style="font-size:10px;font-style:normal;font-variant:normal;font-weight:normal;font-stretch:normal;text-align:start;line-height:100%;writing-mode:lr-tb;text-anchor:start;fill:#000000;fill-opacity:1;stroke:none;stroke-width:1pt;stroke-linecap:butt;stroke-linejoin:miter;stroke-opacity:1;font-family:Bitstream Vera Sans;-inkscape-font-specification:Bitstream Vera Sans"
       x="78.214821"
       y="309.83994"
       id="text3281"
       sodipodi:linespacing="100%"><tspan
         sodipodi:role="line"
         id="tspan3283"
         x="78.214821"
         y="309.83994">S</tspan></text>
    <g
       id="g2435"
       transform="matrix(0.9572037,-0.2894151,0.2894151,0.9572037,40.703091,-85.804034)">
      <rect
         transform="matrix(1,0,-0.172358,0.9850344,0,0)"
         y="395.99265"
         x="-101.94792"
         height="68.486435"
         width="88.569077"
         id="rect2497"
         style="fill:none;fill-opacity:0.75;fill-rule:evenodd;stroke:#000000;stroke-width:0.8816219;stroke-linecap:butt;stroke-linejoin:miter;stroke-miterlimit:4;stroke-dasharray:none;stroke-opacity:1" />
      <path
         d="M -183.17761,453.79651 C -182.4623,453.3752 -181.7163,453.01841 -180.97033,452.6747 C -180.44605,452.39002 -179.88992,452.21962 -179.34762,452.00183 C -179.27858,451.97494 -179.20956,451.94806 -179.14054,451.92117 L -178.92256,452.83243 C -178.99001,452.85825 -179.05746,452.88407 -179.12491,452.90989 C -179.64952,453.1112 -180.18201,453.28251 -180.6889,453.55085 C -181.38542,453.86566 -182.08513,454.19259 -182.7446,454.5994 L -183.17761,453.79651 z"
         id="path3285"
         style="opacity:1;fill:#000000;fill-opacity:1;fill-rule:nonzero;stroke:none;stroke-width:1pt;stroke-linecap:butt;stroke-linejoin:miter;marker:none;marker-start:none;marker-mid:none;marker-end:none;stroke-miterlimit:4;stroke-dasharray:none;stroke-dashoffset:0;stroke-opacity:1;visibility:visible;display:inline;overflow:visible;enable-background:accumulate" />
      <path
         d="M -182.23961,447.92761 C -181.49765,447.68928 -180.74541,447.55498 -179.99672,447.45211 C -179.61106,447.36939 -179.22663,447.28248 -178.84048,447.22569 L -178.86705,448.20218 C -179.25644,448.25683 -179.64425,448.35085 -180.03359,448.42095 C -180.72028,448.51001 -181.41304,448.62601 -182.09086,448.86699 L -182.23961,447.92761 z"
         id="path3291"
         style="opacity:1;fill:#000000;fill-opacity:1;fill-rule:nonzero;stroke:none;stroke-width:1pt;stroke-linecap:butt;stroke-linejoin:miter;marker:none;marker-start:none;marker-mid:none;marker-end:none;stroke-miterlimit:4;stroke-dasharray:none;stroke-dashoffset:0;stroke-opacity:1;visibility:visible;display:inline;overflow:visible;enable-background:accumulate" />
      <path
         d="M -180.50302,439.12128 C -179.92974,438.96471 -179.36333,438.76102 -178.7918,438.59135 C -178.35757,438.44385 -177.92537,438.28681 -177.49034,438.14356 L -177.33143,439.07719 C -177.77735,439.22022 -178.21994,439.38197 -178.66531,439.52865 C -179.23034,439.69294 -179.78965,439.89374 -180.35425,440.06067 L -180.50302,439.12128 z"
         id="path3293"
         style="opacity:1;fill:#000000;fill-opacity:1;fill-rule:nonzero;stroke:none;stroke-width:1pt;stroke-linecap:butt;stroke-linejoin:miter;marker:none;marker-start:none;marker-mid:none;marker-end:none;stroke-miterlimit:4;stroke-dasharray:none;stroke-dashoffset:0;stroke-opacity:1;visibility:visible;display:inline;overflow:visible;enable-background:accumulate" />
      <path
         d="M -178.18225,425.21768 C -177.46942,425.08329 -176.76751,424.83209 -176.06354,424.61632 C -175.75118,424.51256 -175.43971,424.40854 -175.13005,424.29149 L -174.92553,425.20173 C -175.25771,425.32453 -175.59124,425.43583 -175.92615,425.54488 C -176.65256,425.76627 -177.37626,426.01946 -178.11039,426.17543 L -178.18225,425.21768 z"
         id="path3295"
         style="opacity:1;fill:#000000;fill-opacity:1;fill-rule:nonzero;stroke:none;stroke-width:1pt;stroke-linecap:butt;stroke-linejoin:miter;marker:none;marker-start:none;marker-mid:none;marker-end:none;stroke-miterlimit:4;stroke-dasharray:none;stroke-dashoffset:0;stroke-opacity:1;visibility:visible;display:inline;overflow:visible;enable-background:accumulate" />
      <path
         d="M -176.32095,414.84915 C -175.47426,414.42105 -174.64974,413.93269 -173.83644,413.43041 C -173.32129,413.12269 -173.57481,413.26704 -173.07661,412.99567 L -172.72531,413.83511 C -173.17557,414.07355 -172.94133,413.94349 -173.42668,414.22838 C -174.26737,414.74242 -175.11693,415.24321 -175.98103,415.70655 L -176.32095,414.84915 z"
         id="path3297"
         style="opacity:1;fill:#000000;fill-opacity:1;fill-rule:nonzero;stroke:none;stroke-width:1pt;stroke-linecap:butt;stroke-linejoin:miter;marker:none;marker-start:none;marker-mid:none;marker-end:none;stroke-miterlimit:4;stroke-dasharray:none;stroke-dashoffset:0;stroke-opacity:1;visibility:visible;display:inline;overflow:visible;enable-background:accumulate" />
      <path
         d="M -174.87753,405.85295 C -174.22562,405.67846 -173.57151,405.51054 -172.92352,405.30455 C -172.5497,405.19162 -172.183,405.04399 -171.81099,404.9208 L -171.65101,405.85005 C -172.02754,405.97159 -172.39829,406.12147 -172.77672,406.23197 C -173.42519,406.43446 -174.07839,406.60395 -174.72876,406.79234 L -174.87753,405.85295 z"
         id="path3299"
         style="opacity:1;fill:#000000;fill-opacity:1;fill-rule:nonzero;stroke:none;stroke-width:1pt;stroke-linecap:butt;stroke-linejoin:miter;marker:none;marker-start:none;marker-mid:none;marker-end:none;stroke-miterlimit:4;stroke-dasharray:none;stroke-dashoffset:0;stroke-opacity:1;visibility:visible;display:inline;overflow:visible;enable-background:accumulate" />
      <path
         d="M -172.84136,397.82377 C -172.15752,397.6038 -171.48058,397.3504 -170.80315,397.09849 C -170.51415,397.01273 -170.23315,396.89025 -169.95027,396.77708 L -169.72438,397.6823 C -170.01586,397.79606 -170.30614,397.91724 -170.60294,398.00587 C -171.31304,398.26725 -172.02213,398.53192 -172.73608,398.77445 L -172.84136,397.82377 z"
         id="path3301"
         style="opacity:1;fill:#000000;fill-opacity:1;fill-rule:nonzero;stroke:none;stroke-width:1pt;stroke-linecap:butt;stroke-linejoin:miter;marker:none;marker-start:none;marker-mid:none;marker-end:none;stroke-miterlimit:4;stroke-dasharray:none;stroke-dashoffset:0;stroke-opacity:1;visibility:visible;display:inline;overflow:visible;enable-background:accumulate" />
      <path
         d="M -172.39736,393.91549 C -171.79496,393.75384 -171.18926,393.65906 -170.58604,393.5959 C -170.30115,393.54424 -170.01616,393.50076 -169.73259,393.42447 L -169.64068,394.37558 C -169.97837,394.46086 -170.31672,394.52177 -170.65569,394.57339 C -171.18586,394.62571 -171.71958,394.70258 -172.24861,394.85488 L -172.39736,393.91549 z"
         id="path3303"
         style="opacity:1;fill:#000000;fill-opacity:1;fill-rule:nonzero;stroke:none;stroke-width:1pt;stroke-linecap:butt;stroke-linejoin:miter;marker:none;marker-start:none;marker-mid:none;marker-end:none;stroke-miterlimit:4;stroke-dasharray:none;stroke-dashoffset:0;stroke-opacity:1;visibility:visible;display:inline;overflow:visible;enable-background:accumulate" />
      <path
         d="M -176.16284,455.26164 C -176.31898,455.82961 -176.4673,456.39756 -176.68961,456.95516 C -176.83294,457.37486 -177.02517,457.77468 -177.26822,458.16149 C -177.37501,458.36433 -177.48789,458.56321 -177.60679,458.76129 L -178.44938,458.37331 C -178.32557,458.16764 -178.21053,457.96139 -178.09603,457.75166 C -177.8899,457.4261 -177.73214,457.09067 -177.61142,456.73582 C -177.41319,456.25107 -177.28386,455.75706 -177.15199,455.26164 L -176.16284,455.26164 z"
         id="path3305"
         style="opacity:1;fill:#000000;fill-opacity:1;fill-rule:nonzero;stroke:none;stroke-width:1pt;stroke-linecap:butt;stroke-linejoin:miter;marker:none;marker-start:none;marker-mid:none;marker-end:none;stroke-miterlimit:4;stroke-dasharray:none;stroke-dashoffset:0;stroke-opacity:1;visibility:visible;display:inline;overflow:visible;enable-background:accumulate" />
      <path
         d="M -170.63436,456.09125 C -170.75288,456.75417 -170.9576,457.41294 -171.12708,458.07296 L -172.0903,457.98975 C -171.92399,457.35803 -171.71984,456.72633 -171.62042,456.09125 L -170.63436,456.09125 z"
         id="path3307"
         style="opacity:1;fill:#000000;fill-opacity:1;fill-rule:nonzero;stroke:none;stroke-width:1pt;stroke-linecap:butt;stroke-linejoin:miter;marker:none;marker-start:none;marker-mid:none;marker-end:none;stroke-miterlimit:4;stroke-dasharray:none;stroke-dashoffset:0;stroke-opacity:1;visibility:visible;display:inline;overflow:visible;enable-background:accumulate" />
      <path
         d="M -165.69799,455.84873 C -165.82482,456.50275 -166.02443,457.15307 -166.18827,457.80512 C -166.27478,458.16832 -166.22393,457.98621 -166.34145,458.35138 L -167.28648,458.19609 C -167.18787,457.9174 -167.23611,458.07311 -167.15158,457.7277 C -166.99077,457.10219 -166.79382,456.47667 -166.68714,455.84873 L -165.69799,455.84873 z"
         id="path3309"
         style="opacity:1;fill:#000000;fill-opacity:1;fill-rule:nonzero;stroke:none;stroke-width:1pt;stroke-linecap:butt;stroke-linejoin:miter;marker:none;marker-start:none;marker-mid:none;marker-end:none;stroke-miterlimit:4;stroke-dasharray:none;stroke-dashoffset:0;stroke-opacity:1;visibility:visible;display:inline;overflow:visible;enable-background:accumulate" />
      <path
         d="M -160.23355,456.06015 C -160.19016,456.70742 -160.14807,457.35539 -160.14437,458.0111 C -160.15365,458.3869 -160.15805,458.21633 -160.13915,458.52432 L -161.13651,458.73801 C -161.15035,458.36768 -161.15,458.55296 -161.13797,458.18226 C -161.13758,457.57304 -161.17577,456.97116 -161.22773,456.37328 L -160.23355,456.06015 z"
         id="path3311"
         style="opacity:1;fill:#000000;fill-opacity:1;fill-rule:nonzero;stroke:none;stroke-width:1pt;stroke-linecap:butt;stroke-linejoin:miter;marker:none;marker-start:none;marker-mid:none;marker-end:none;stroke-miterlimit:4;stroke-dasharray:none;stroke-dashoffset:0;stroke-opacity:1;visibility:visible;display:inline;overflow:visible;enable-background:accumulate" />
      <path
         d="M -152.89984,456.64724 C -152.83944,457.13074 -152.81703,457.62843 -152.71961,458.10056 C -152.66568,458.3592 -152.69057,458.22755 -152.64528,458.49562 L -153.63523,458.81339 C -153.67373,458.57351 -153.6514,458.69851 -153.70355,458.43882 C -153.79088,457.95345 -153.82884,457.45252 -153.894,456.96037 L -152.89984,456.64724 z"
         id="path3313"
         style="opacity:1;fill:#000000;fill-opacity:1;fill-rule:nonzero;stroke:none;stroke-width:1pt;stroke-linecap:butt;stroke-linejoin:miter;marker:none;marker-start:none;marker-mid:none;marker-end:none;stroke-miterlimit:4;stroke-dasharray:none;stroke-dashoffset:0;stroke-opacity:1;visibility:visible;display:inline;overflow:visible;enable-background:accumulate" />
      <path
         d="M -143.58795,455.97449 C -143.57052,456.60662 -143.50491,457.22909 -143.42756,457.84663 C -143.39217,458.19217 -143.41726,458.03673 -143.36058,458.31552 L -144.34459,458.65024 C -144.40559,458.30146 -144.38223,458.47646 -144.41532,458.12546 C -144.49428,457.46051 -144.55845,456.79066 -144.59154,456.11436 L -143.58795,455.97449 z"
         id="path3315"
         style="opacity:1;fill:#000000;fill-opacity:1;fill-rule:nonzero;stroke:none;stroke-width:1pt;stroke-linecap:butt;stroke-linejoin:miter;marker:none;marker-start:none;marker-mid:none;marker-end:none;stroke-miterlimit:4;stroke-dasharray:none;stroke-dashoffset:0;stroke-opacity:1;visibility:visible;display:inline;overflow:visible;enable-background:accumulate" />
      <path
         d="M -134.97157,455.99515 C -134.65822,456.78652 -134.37677,457.59592 -134.14557,458.42587 C -134.11148,458.5332 -134.07739,458.64054 -134.0433,458.74787 L -134.99519,459.17379 C -135.0306,459.05728 -135.06599,458.94078 -135.10139,458.82428 C -135.3186,458.02063 -135.58424,457.23435 -135.91469,456.48509 L -134.97157,455.99515 z"
         id="path3317"
         style="opacity:1;fill:#000000;fill-opacity:1;fill-rule:nonzero;stroke:none;stroke-width:1pt;stroke-linecap:butt;stroke-linejoin:miter;marker:none;marker-start:none;marker-mid:none;marker-end:none;stroke-miterlimit:4;stroke-dasharray:none;stroke-dashoffset:0;stroke-opacity:1;visibility:visible;display:inline;overflow:visible;enable-background:accumulate" />
      <path
         d="M -127.72567,455.64793 C -127.3785,456.20734 -127.00458,456.74043 -126.56259,457.22444 C -126.33945,457.46266 -126.10215,457.68868 -125.85592,457.90395 L -126.59334,458.68424 C -126.85602,458.44701 -127.11165,458.20123 -127.35145,457.94149 C -127.79683,457.44629 -128.18338,456.90757 -128.54739,456.34729 L -127.72567,455.64793 z"
         id="path3319"
         style="opacity:1;fill:#000000;fill-opacity:1;fill-rule:nonzero;stroke:none;stroke-width:1pt;stroke-linecap:butt;stroke-linejoin:miter;marker:none;marker-start:none;marker-mid:none;marker-end:none;stroke-miterlimit:4;stroke-dasharray:none;stroke-dashoffset:0;stroke-opacity:1;visibility:visible;display:inline;overflow:visible;enable-background:accumulate" />
      <path
         d="M -117.32928,456.62641 C -116.82457,457.25086 -116.42353,457.95602 -116.00108,458.64189 C -115.781,459.00411 -115.56547,459.36968 -115.35749,459.74005 L -116.25329,460.31769 C -116.45025,459.95373 -116.65602,459.59512 -116.86814,459.2412 C -117.26722,458.58332 -117.65057,457.9068 -118.15102,457.32577 L -117.32928,456.62641 z"
         id="path3321"
         style="opacity:1;fill:#000000;fill-opacity:1;fill-rule:nonzero;stroke:none;stroke-width:1pt;stroke-linecap:butt;stroke-linejoin:miter;marker:none;marker-start:none;marker-mid:none;marker-end:none;stroke-miterlimit:4;stroke-dasharray:none;stroke-dashoffset:0;stroke-opacity:1;visibility:visible;display:inline;overflow:visible;enable-background:accumulate" />
      <path
         d="M -109.86467,455.47642 C -109.34174,456.03962 -108.76707,456.55398 -108.20335,457.07714 C -107.78825,457.48683 -107.3381,457.86054 -106.87824,458.22205 L -107.58138,459.02482 C -108.04974,458.6452 -108.51148,458.25693 -108.93984,457.83468 C -109.52934,457.28944 -110.12467,456.74889 -110.68458,456.17423 L -109.86467,455.47642 z"
         id="path3323"
         style="opacity:1;fill:#000000;fill-opacity:1;fill-rule:nonzero;stroke:none;stroke-width:1pt;stroke-linecap:butt;stroke-linejoin:miter;marker:none;marker-start:none;marker-mid:none;marker-end:none;stroke-miterlimit:4;stroke-dasharray:none;stroke-dashoffset:0;stroke-opacity:1;visibility:visible;display:inline;overflow:visible;enable-background:accumulate" />
      <path
         d="M -100.21425,456.33386 C -99.927314,457.01946 -99.547013,457.64806 -99.163975,458.27317 C -98.862494,458.71126 -98.599003,459.20594 -98.182203,459.5456 C -98.136318,459.58724 -98.090431,459.62887 -98.044544,459.6705 L -98.792677,460.4448 C -98.832779,460.40746 -98.872884,460.37013 -98.912989,460.33279 C -99.370591,459.92074 -99.703986,459.39299 -100.03251,458.87294 C -100.42573,458.2265 -100.81472,457.57683 -101.13298,456.88236 L -100.21425,456.33386 z"
         id="path3325"
         style="opacity:1;fill:#000000;fill-opacity:1;fill-rule:nonzero;stroke:none;stroke-width:1pt;stroke-linecap:butt;stroke-linejoin:miter;marker:none;marker-start:none;marker-mid:none;marker-end:none;stroke-miterlimit:4;stroke-dasharray:none;stroke-dashoffset:0;stroke-opacity:1;visibility:visible;display:inline;overflow:visible;enable-background:accumulate" />
      <path
         d="M -164.2563,388.33359 C -164.36,388.89811 -164.54853,389.45766 -164.69826,390.01921 C -164.77394,390.32264 -164.73797,390.17306 -164.80639,390.46794 L -165.77943,390.40953 C -165.70431,390.09198 -165.74375,390.2528 -165.6609,389.92711 C -165.51696,389.39675 -165.33321,388.86705 -165.24546,388.33359 L -164.2563,388.33359 z"
         id="path3327"
         style="opacity:1;fill:#000000;fill-opacity:1;fill-rule:nonzero;stroke:none;stroke-width:1pt;stroke-linecap:butt;stroke-linejoin:miter;marker:none;marker-start:none;marker-mid:none;marker-end:none;stroke-miterlimit:4;stroke-dasharray:none;stroke-dashoffset:0;stroke-opacity:1;visibility:visible;display:inline;overflow:visible;enable-background:accumulate" />
      <path
         d="M -159.15447,388.43298 C -159.12024,389.17361 -159.08036,389.91115 -159.0977,390.6616 C -159.08736,391.01684 -159.07341,391.37107 -159.07384,391.72832 L -160.07302,391.89353 C -160.06989,391.52898 -160.08432,391.16794 -160.08925,390.80481 C -160.06711,390.08504 -160.10189,389.37782 -160.15412,388.67241 L -159.15447,388.43298 z"
         id="path3329"
         style="opacity:1;fill:#000000;fill-opacity:1;fill-rule:nonzero;stroke:none;stroke-width:1pt;stroke-linecap:butt;stroke-linejoin:miter;marker:none;marker-start:none;marker-mid:none;marker-end:none;stroke-miterlimit:4;stroke-dasharray:none;stroke-dashoffset:0;stroke-opacity:1;visibility:visible;display:inline;overflow:visible;enable-background:accumulate" />
      <path
         d="M -153.49764,388.53035 C -153.31476,389.29373 -153.13843,390.0594 -152.95164,390.82137 C -152.81402,391.30189 -152.88106,391.06474 -152.75037,391.53278 L -153.70962,391.93277 C -153.83752,391.45965 -153.77009,391.70505 -153.91236,391.19676 C -154.0976,390.43686 -154.26859,389.67128 -154.47406,388.91962 L -153.49764,388.53035 z"
         id="path3331"
         style="opacity:1;fill:#000000;fill-opacity:1;fill-rule:nonzero;stroke:none;stroke-width:1pt;stroke-linecap:butt;stroke-linejoin:miter;marker:none;marker-start:none;marker-mid:none;marker-end:none;stroke-miterlimit:4;stroke-dasharray:none;stroke-dashoffset:0;stroke-opacity:1;visibility:visible;display:inline;overflow:visible;enable-background:accumulate" />
      <path
         d="M -146.9138,388.81871 C -146.57976,389.4817 -146.22126,390.12741 -145.84271,390.76179 C -145.77772,390.86561 -145.71273,390.96943 -145.64776,391.07324 L -146.51484,391.67963 C -146.5819,391.5711 -146.64898,391.46257 -146.71604,391.35404 C -147.10293,390.70081 -147.46811,390.03492 -147.83253,389.36722 L -146.9138,388.81871 z"
         id="path3333"
         style="opacity:1;fill:#000000;fill-opacity:1;fill-rule:nonzero;stroke:none;stroke-width:1pt;stroke-linecap:butt;stroke-linejoin:miter;marker:none;marker-start:none;marker-mid:none;marker-end:none;stroke-miterlimit:4;stroke-dasharray:none;stroke-dashoffset:0;stroke-opacity:1;visibility:visible;display:inline;overflow:visible;enable-background:accumulate" />
      <path
         d="M -138.0612,388.72358 C -137.82398,389.54775 -137.60771,390.37997 -137.4117,391.22078 C -137.32397,391.67204 -137.37132,391.46481 -137.27489,391.84443 L -138.2448,392.22246 C -138.34189,391.8077 -138.29755,392.02019 -138.37683,391.58463 C -138.56035,390.76538 -138.76538,389.95455 -139.02039,389.16459 L -138.0612,388.72358 z"
         id="path3335"
         style="opacity:1;fill:#000000;fill-opacity:1;fill-rule:nonzero;stroke:none;stroke-width:1pt;stroke-linecap:butt;stroke-linejoin:miter;marker:none;marker-start:none;marker-mid:none;marker-end:none;stroke-miterlimit:4;stroke-dasharray:none;stroke-dashoffset:0;stroke-opacity:1;visibility:visible;display:inline;overflow:visible;enable-background:accumulate" />
      <path
         d="M -128.31457,388.8714 C -128.02943,389.48578 -127.8385,390.14756 -127.62753,390.79863 C -127.59885,390.896 -127.57017,390.99338 -127.54149,391.09075 L -128.50192,391.5036 C -128.52764,391.41328 -128.55337,391.32297 -128.57908,391.23265 C -128.78088,390.59708 -128.96105,389.9493 -129.25771,389.36134 L -128.31457,388.8714 z"
         id="path3337"
         style="opacity:1;fill:#000000;fill-opacity:1;fill-rule:nonzero;stroke:none;stroke-width:1pt;stroke-linecap:butt;stroke-linejoin:miter;marker:none;marker-start:none;marker-mid:none;marker-end:none;stroke-miterlimit:4;stroke-dasharray:none;stroke-dashoffset:0;stroke-opacity:1;visibility:visible;display:inline;overflow:visible;enable-background:accumulate" />
      <path
         d="M -123.41267,388.2682 C -122.93195,388.7266 -122.57614,389.29453 -122.20328,389.84245 C -121.96212,390.23426 -122.07788,390.04246 -121.85549,390.41751 L -122.73621,391.01094 C -122.94411,390.65532 -122.83814,390.83385 -123.0542,390.47541 C -123.39471,389.97457 -123.71634,389.44986 -124.16645,389.04132 L -123.41267,388.2682 z"
         id="path3339"
         style="opacity:1;fill:#000000;fill-opacity:1;fill-rule:nonzero;stroke:none;stroke-width:1pt;stroke-linecap:butt;stroke-linejoin:miter;marker:none;marker-start:none;marker-mid:none;marker-end:none;stroke-miterlimit:4;stroke-dasharray:none;stroke-dashoffset:0;stroke-opacity:1;visibility:visible;display:inline;overflow:visible;enable-background:accumulate" />
      <path
         d="M -113.87657,388.97244 C -113.44575,389.70743 -112.98381,390.42107 -112.54646,391.15151 C -112.37057,391.40959 -112.21081,391.67917 -112.04821,391.94663 L -112.92791,392.54781 C -113.08875,392.27726 -113.24545,392.00376 -113.41891,391.74196 C -113.84367,391.0176 -114.29782,390.31289 -114.74615,389.60488 L -113.87657,388.97244 z"
         id="path3341"
         style="opacity:1;fill:#000000;fill-opacity:1;fill-rule:nonzero;stroke:none;stroke-width:1pt;stroke-linecap:butt;stroke-linejoin:miter;marker:none;marker-start:none;marker-mid:none;marker-end:none;stroke-miterlimit:4;stroke-dasharray:none;stroke-dashoffset:0;stroke-opacity:1;visibility:visible;display:inline;overflow:visible;enable-background:accumulate" />
      <path
         d="M -105.01724,388.2682 C -104.56336,388.84623 -104.14392,389.45143 -103.70793,390.04371 C -103.43273,390.3668 -103.17482,390.70527 -102.88406,391.01448 L -103.67709,391.74221 C -103.97979,391.40642 -104.25502,391.04693 -104.54179,390.69724 C -104.94746,390.142 -105.3441,389.57947 -105.77102,389.04132 L -105.01724,388.2682 z"
         id="path3343"
         style="opacity:1;fill:#000000;fill-opacity:1;fill-rule:nonzero;stroke:none;stroke-width:1pt;stroke-linecap:butt;stroke-linejoin:miter;marker:none;marker-start:none;marker-mid:none;marker-end:none;stroke-miterlimit:4;stroke-dasharray:none;stroke-dashoffset:0;stroke-opacity:1;visibility:visible;display:inline;overflow:visible;enable-background:accumulate" />
      <path
         d="M -91.396337,388.0889 C -90.972616,388.97414 -90.575309,389.87559 -90.124268,390.74448 C -89.873393,391.20137 -89.641458,391.67006 -89.404367,392.1355 L -90.300334,392.67809 C -90.531058,392.21241 -90.755484,391.74277 -91.005315,391.28879 C -91.474326,390.38054 -91.898819,389.4452 -92.358904,388.53146 L -91.396337,388.0889 z"
         id="path3345"
         style="opacity:1;fill:#000000;fill-opacity:1;fill-rule:nonzero;stroke:none;stroke-width:1pt;stroke-linecap:butt;stroke-linejoin:miter;marker:none;marker-start:none;marker-mid:none;marker-end:none;stroke-miterlimit:4;stroke-dasharray:none;stroke-dashoffset:0;stroke-opacity:1;visibility:visible;display:inline;overflow:visible;enable-background:accumulate" />
      <path
         d="M -84.49066,394.72021 C -83.832893,394.71682 -83.180096,394.75385 -82.515552,394.70368 C -82.049203,394.64585 -81.584949,394.6239 -81.118977,394.50692 C -81.057966,394.49239 -80.99696,394.47787 -80.935954,394.46335 L -80.867149,395.42291 C -80.925274,395.43656 -80.983399,395.45021 -81.041527,395.46386 C -81.56827,395.59031 -82.092033,395.62266 -82.618056,395.67908 C -83.304942,395.72288 -83.980664,395.69347 -84.663738,395.70936 L -84.49066,394.72021 z"
         id="path3347"
         style="opacity:1;fill:#000000;fill-opacity:1;fill-rule:nonzero;stroke:none;stroke-width:1pt;stroke-linecap:butt;stroke-linejoin:miter;marker:none;marker-start:none;marker-mid:none;marker-end:none;stroke-miterlimit:4;stroke-dasharray:none;stroke-dashoffset:0;stroke-opacity:1;visibility:visible;display:inline;overflow:visible;enable-background:accumulate" />
      <path
         d="M -85.588044,403.98963 C -85.103031,404.12605 -84.633353,404.29132 -84.170305,404.47208 C -83.819496,404.6268 -83.41427,404.64451 -83.032994,404.7229 L -83.408524,405.68918 C -83.825104,405.5844 -84.288361,405.58581 -84.670609,405.39484 C -85.124306,405.21587 -85.584475,405.05232 -86.065543,404.92901 L -85.588044,403.98963 z"
         id="path3349"
         style="opacity:1;fill:#000000;fill-opacity:1;fill-rule:nonzero;stroke:none;stroke-width:1pt;stroke-linecap:butt;stroke-linejoin:miter;marker:none;marker-start:none;marker-mid:none;marker-end:none;stroke-miterlimit:4;stroke-dasharray:none;stroke-dashoffset:0;stroke-opacity:1;visibility:visible;display:inline;overflow:visible;enable-background:accumulate" />
      <path
         d="M -86.579254,414.48551 C -86.033957,414.49233 -85.48693,414.48967 -84.940208,414.48851 C -84.625444,414.48785 -84.78069,414.48816 -84.474469,414.48758 L -84.646825,415.4726 C -84.952842,415.47202 -84.797704,415.47233 -85.112238,415.47167 C -85.658554,415.47051 -86.204649,415.46785 -86.752334,415.47467 L -86.579254,414.48551 z"
         id="path3351"
         style="opacity:1;fill:#000000;fill-opacity:1;fill-rule:nonzero;stroke:none;stroke-width:1pt;stroke-linecap:butt;stroke-linejoin:miter;marker:none;marker-start:none;marker-mid:none;marker-end:none;stroke-miterlimit:4;stroke-dasharray:none;stroke-dashoffset:0;stroke-opacity:1;visibility:visible;display:inline;overflow:visible;enable-background:accumulate" />
      <path
         d="M -87.223624,417.44939 C -86.688047,417.53219 -86.171322,417.6656 -85.634204,417.74476 C -85.329443,417.77027 -85.040594,417.8455 -84.747292,417.90516 L -85.107979,418.8723 C -85.385654,418.81492 -85.658436,418.74159 -85.94731,418.71729 C -86.4819,418.63498 -86.997216,418.5 -87.534815,418.42849 L -87.223624,417.44939 z"
         id="path3353"
         style="opacity:1;fill:#000000;fill-opacity:1;fill-rule:nonzero;stroke:none;stroke-width:1pt;stroke-linecap:butt;stroke-linejoin:miter;marker:none;marker-start:none;marker-mid:none;marker-end:none;stroke-miterlimit:4;stroke-dasharray:none;stroke-dashoffset:0;stroke-opacity:1;visibility:visible;display:inline;overflow:visible;enable-background:accumulate" />
      <path
         d="M -86.799533,420.53323 C -86.405527,420.8191 -85.950012,421.01714 -85.516165,421.24508 C -85.457303,421.2752 -85.398439,421.30532 -85.339574,421.33544 L -85.917724,422.22588 C -85.979608,422.19354 -86.041493,422.16121 -86.103377,422.12887 C -86.567916,421.87438 -87.062227,421.66143 -87.491997,421.35598 L -86.799533,420.53323 z"
         id="path3355"
         style="opacity:1;fill:#000000;fill-opacity:1;fill-rule:nonzero;stroke:none;stroke-width:1pt;stroke-linecap:butt;stroke-linejoin:miter;marker:none;marker-start:none;marker-mid:none;marker-end:none;stroke-miterlimit:4;stroke-dasharray:none;stroke-dashoffset:0;stroke-opacity:1;visibility:visible;display:inline;overflow:visible;enable-background:accumulate" />
      <path
         d="M -90.198872,431.82901 C -89.665063,432.0837 -89.111384,432.30417 -88.537419,432.48485 C -88.217828,432.56198 -87.899815,432.63821 -87.587594,432.73272 L -88.029712,433.67931 C -88.343373,433.58103 -88.663549,433.50358 -88.98411,433.42079 C -89.606516,433.21968 -90.208825,432.98013 -90.796311,432.71413 L -90.198872,431.82901 z"
         id="path3357"
         style="opacity:1;fill:#000000;fill-opacity:1;fill-rule:nonzero;stroke:none;stroke-width:1pt;stroke-linecap:butt;stroke-linejoin:miter;marker:none;marker-start:none;marker-mid:none;marker-end:none;stroke-miterlimit:4;stroke-dasharray:none;stroke-dashoffset:0;stroke-opacity:1;visibility:visible;display:inline;overflow:visible;enable-background:accumulate" />
      <path
         d="M -90.729718,438.81807 C -90.289804,439.28175 -89.800822,439.6985 -89.316733,440.11733 C -89.070877,440.34672 -88.760088,440.48946 -88.466792,440.65611 L -89.076623,441.52777 C -89.409105,441.33206 -89.759971,441.16061 -90.039435,440.89622 C -90.554521,440.4486 -91.07268,440.00229 -91.551448,439.51743 L -90.729718,438.81807 z"
         id="path3359"
         style="opacity:1;fill:#000000;fill-opacity:1;fill-rule:nonzero;stroke:none;stroke-width:1pt;stroke-linecap:butt;stroke-linejoin:miter;marker:none;marker-start:none;marker-mid:none;marker-end:none;stroke-miterlimit:4;stroke-dasharray:none;stroke-dashoffset:0;stroke-opacity:1;visibility:visible;display:inline;overflow:visible;enable-background:accumulate" />
      <path
         d="M -92.066846,446.75566 C -91.76489,447.35727 -91.301665,447.8389 -90.847359,448.31876 C -90.500836,448.72002 -90.110761,449.07381 -89.685856,449.39342 L -90.374792,450.21158 C -90.832361,449.86468 -91.250375,449.47837 -91.624408,449.0452 C -92.1221,448.51508 -92.621052,447.97932 -92.97008,447.32915 L -92.066846,446.75566 z"
         id="path3361"
         style="opacity:1;fill:#000000;fill-opacity:1;fill-rule:nonzero;stroke:none;stroke-width:1pt;stroke-linecap:butt;stroke-linejoin:miter;marker:none;marker-start:none;marker-mid:none;marker-end:none;stroke-miterlimit:4;stroke-dasharray:none;stroke-dashoffset:0;stroke-opacity:1;visibility:visible;display:inline;overflow:visible;enable-background:accumulate" />
    </g>
  </g>
</svg>
