<?xml version="1.0" encoding="UTF-8" standalone="no"?>
<!-- Created with Inkscape (http://www.inkscape.org/) -->
<svg
   xmlns:dc="http://purl.org/dc/elements/1.1/"
   xmlns:cc="http://creativecommons.org/ns#"
   xmlns:rdf="http://www.w3.org/1999/02/22-rdf-syntax-ns#"
   xmlns:svg="http://www.w3.org/2000/svg"
   xmlns="http://www.w3.org/2000/svg"
   xmlns:xlink="http://www.w3.org/1999/xlink"
   xmlns:sodipodi="http://sodipodi.sourceforge.net/DTD/sodipodi-0.dtd"
   xmlns:inkscape="http://www.inkscape.org/namespaces/inkscape"
   width="744.09448819"
   height="1052.3622047"
   id="svg2"
   sodipodi:version="0.32"
   inkscape:version="0.46"
   sodipodi:docname="photon-in-cavity-and-gyroscope.svg"
   inkscape:output_extension="org.inkscape.output.svg.inkscape">
  <defs
     id="defs4">
    <marker
       inkscape:stockid="Arrow2Mend"
       orient="auto"
       refY="0.0"
       refX="0.0"
       id="Arrow2Mend"
       style="overflow:visible;">
      <path
         id="path3441"
         style="font-size:12.0;fill-rule:evenodd;stroke-width:0.62500000;stroke-linejoin:round;"
         d="M 8.7185878,4.0337352 L -2.2072895,0.016013256 L 8.7185884,-4.0017078 C 6.9730900,-1.6296469 6.9831476,1.6157441 8.7185878,4.0337352 z "
         transform="scale(0.6) rotate(180) translate(0,0)" />
    </marker>
    <linearGradient
       id="linearGradient3222">
      <stop
         style="stop-color:#cacaca;stop-opacity:1;"
         offset="0"
         id="stop3224" />
      <stop
         style="stop-color:#797979;stop-opacity:1;"
         offset="1"
         id="stop3226" />
    </linearGradient>
    <inkscape:perspective
       sodipodi:type="inkscape:persp3d"
       inkscape:vp_x="0 : 526.18109 : 1"
       inkscape:vp_y="0 : 1000 : 0"
       inkscape:vp_z="744.09448 : 526.18109 : 1"
       inkscape:persp3d-origin="372.04724 : 350.78739 : 1"
       id="perspective10" />
    <inkscape:perspective
       id="perspective2444"
       inkscape:persp3d-origin="372.04724 : 350.78739 : 1"
       inkscape:vp_z="744.09448 : 526.18109 : 1"
       inkscape:vp_y="0 : 1000 : 0"
       inkscape:vp_x="0 : 526.18109 : 1"
       sodipodi:type="inkscape:persp3d" />
    <inkscape:perspective
       id="perspective2494"
       inkscape:persp3d-origin="372.04724 : 350.78739 : 1"
       inkscape:vp_z="744.09448 : 526.18109 : 1"
       inkscape:vp_y="0 : 1000 : 0"
       inkscape:vp_x="0 : 526.18109 : 1"
       sodipodi:type="inkscape:persp3d" />
    <radialGradient
       inkscape:collect="always"
       xlink:href="#linearGradient3222"
       id="radialGradient5011"
       gradientUnits="userSpaceOnUse"
       gradientTransform="matrix(1.0669732,9.499457e-2,-8.9552143e-2,1.0058442,31.698365,-7.2996492)"
       cx="50.105255"
       cy="392.2876"
       fx="50.105255"
       fy="392.2876"
       r="15.736863" />
  </defs>
  <sodipodi:namedview
     id="base"
     pagecolor="#ffffff"
     bordercolor="#666666"
     borderopacity="1.0"
     gridtolerance="10000"
     guidetolerance="10"
     objecttolerance="10"
     inkscape:pageopacity="0.0"
     inkscape:pageshadow="2"
     inkscape:zoom="1.4144733"
     inkscape:cx="87.779211"
     inkscape:cy="703.911"
     inkscape:document-units="px"
     inkscape:current-layer="layer1"
     showgrid="false"
     inkscape:window-width="1278"
     inkscape:window-height="996"
     inkscape:window-x="2"
     inkscape:window-y="5" />
  <metadata
     id="metadata7">
    <rdf:RDF>
      <cc:Work
         rdf:about="">
        <dc:format>image/svg+xml</dc:format>
        <dc:type
           rdf:resource="http://purl.org/dc/dcmitype/StillImage" />
      </cc:Work>
    </rdf:RDF>
  </metadata>
  <g
     inkscape:label="Layer 1"
     inkscape:groupmode="layer"
     id="layer1">
    <rect
       style="fill:#dedede;fill-opacity:1;fill-rule:evenodd;stroke:none;stroke-width:0.53544941pt;stroke-linecap:butt;stroke-linejoin:miter;stroke-opacity:1"
       id="rect2383"
       width="184.25197"
       height="256.2821"
       x="3.2957809"
       y="213.08714" />
    <g
       id="g4979"
       transform="translate(1.1182065,27.955163)">
      <path
         transform="matrix(0.9024314,-0.4308335,0.4308335,0.9024314,-153.90515,98.184842)"
         sodipodi:open="true"
         sodipodi:end="12.314634"
         sodipodi:start="6.0499979"
         d="M 140.60309,389.41959 A 5.1685271,3.1806321 0 1 1 140.58007,389.36232"
         sodipodi:ry="3.1806321"
         sodipodi:rx="5.1685271"
         sodipodi:cy="390.15457"
         sodipodi:cx="135.57445"
         id="path3305"
         style="opacity:1;fill:none;fill-opacity:1;fill-rule:evenodd;stroke:#e87575;stroke-width:1pt;stroke-linecap:butt;stroke-linejoin:miter;marker:none;marker-start:none;marker-mid:none;marker-end:none;stroke-miterlimit:4;stroke-dasharray:none;stroke-dashoffset:0;stroke-opacity:1;visibility:visible;display:inline;overflow:visible;enable-background:accumulate"
         sodipodi:type="arc" />
      <path
         transform="matrix(0.9294882,-0.5306072,0.568371,0.8249717,-216.90788,139.62759)"
         d="M 176.02551,396.1445 A 37.515015,22.087492 0 1 1 100.99548,396.1445 A 37.515015,22.087492 0 1 1 176.02551,396.1445 z"
         sodipodi:ry="22.087492"
         sodipodi:rx="37.515015"
         sodipodi:cy="396.1445"
         sodipodi:cx="138.5105"
         id="path3272"
         style="opacity:1;fill:none;fill-opacity:1;fill-rule:evenodd;stroke:#000000;stroke-width:1pt;stroke-linecap:butt;stroke-linejoin:miter;marker:none;marker-start:none;marker-mid:none;marker-end:none;stroke-miterlimit:4;stroke-dasharray:none;stroke-dashoffset:0;stroke-opacity:1;visibility:visible;display:inline;overflow:visible;enable-background:accumulate"
         sodipodi:type="arc" />
      <path
         transform="matrix(0.7819718,-0.446396,0.4781664,0.6940428,-160.42654,179.34129)"
         d="M 176.02551,396.1445 A 37.515015,22.087492 0 1 1 100.99548,396.1445 A 37.515015,22.087492 0 1 1 176.02551,396.1445 z"
         sodipodi:ry="22.087492"
         sodipodi:rx="37.515015"
         sodipodi:cy="396.1445"
         sodipodi:cx="138.5105"
         id="path3274"
         style="fill:#828282;fill-opacity:1;fill-rule:evenodd;stroke:#000000;stroke-width:1pt;stroke-linecap:butt;stroke-linejoin:miter;marker:none;marker-start:none;marker-mid:none;marker-end:none;stroke-miterlimit:4;stroke-dasharray:none;stroke-dashoffset:0;stroke-opacity:1;visibility:visible;display:inline;overflow:visible;enable-background:accumulate"
         sodipodi:type="arc" />
      <path
         transform="matrix(0.7855992,0.2923453,-0.3422803,0.919786,158.51294,-12.814864)"
         d="M 180.07206,393.86829 A 37.68362,37.68362 0 1 1 104.70482,393.86829 A 37.68362,37.68362 0 1 1 180.07206,393.86829 z"
         sodipodi:ry="37.68362"
         sodipodi:rx="37.68362"
         sodipodi:cy="393.86829"
         sodipodi:cx="142.38844"
         id="path2500"
         style="opacity:1;fill:none;fill-opacity:1;fill-rule:evenodd;stroke:#000000;stroke-width:1pt;stroke-linecap:butt;stroke-linejoin:miter;marker:none;marker-start:none;marker-mid:none;marker-end:none;stroke-miterlimit:4;stroke-dasharray:none;stroke-dashoffset:0;stroke-opacity:1;visibility:visible;display:inline;overflow:visible;enable-background:accumulate"
         sodipodi:type="arc" />
      <path
         transform="matrix(0.6883782,-0.3929673,0.4209351,0.6109735,-126.48097,203.41621)"
         d="M 176.02551,396.1445 A 37.515015,22.087492 0 1 1 100.99548,396.1445 A 37.515015,22.087492 0 1 1 176.02551,396.1445 z"
         sodipodi:ry="22.087492"
         sodipodi:rx="37.515015"
         sodipodi:cy="396.1445"
         sodipodi:cx="138.5105"
         id="path3276"
         style="fill:none;fill-opacity:1;fill-rule:evenodd;stroke:#000000;stroke-width:1pt;stroke-linecap:butt;stroke-linejoin:miter;marker:none;marker-start:none;marker-mid:none;marker-end:none;stroke-miterlimit:4;stroke-dasharray:none;stroke-dashoffset:0;stroke-opacity:1;visibility:visible;display:inline;overflow:visible;enable-background:accumulate"
         sodipodi:type="arc" />
      <path
         sodipodi:open="true"
         sodipodi:end="6.0544429"
         sodipodi:start="3.1229884"
         transform="matrix(0.6883782,-0.3929673,0.4209351,0.6109735,-123.52641,206.02959)"
         d="M 101.00198,396.5554 A 37.515015,22.087492 0 0 1 175.04833,391.1361"
         sodipodi:ry="22.087492"
         sodipodi:rx="37.515015"
         sodipodi:cy="396.1445"
         sodipodi:cx="138.5105"
         id="path3278"
         style="fill:#dedede;fill-opacity:1;fill-rule:evenodd;stroke:#000000;stroke-width:1pt;stroke-linecap:butt;stroke-linejoin:miter;marker:none;marker-start:none;marker-mid:none;marker-end:none;stroke-miterlimit:4;stroke-dasharray:none;stroke-dashoffset:0;stroke-opacity:1;visibility:visible;display:inline;overflow:visible;enable-background:accumulate"
         sodipodi:type="arc" />
      <path
         sodipodi:open="true"
         sodipodi:end="3.0305131"
         sodipodi:start="0"
         transform="matrix(0.6731379,-0.3842672,0.4116158,0.5974469,-120.61612,207.31564)"
         d="M 176.02551,396.1445 A 37.515015,22.087492 0 0 1 101.22669,398.59293"
         sodipodi:ry="22.087492"
         sodipodi:rx="37.515015"
         sodipodi:cy="396.1445"
         sodipodi:cx="138.5105"
         id="path3310"
         style="fill:#dedede;fill-opacity:1;fill-rule:evenodd;stroke:#000000;stroke-width:1pt;stroke-linecap:butt;stroke-linejoin:miter;marker:none;marker-start:none;marker-mid:none;marker-end:none;stroke-miterlimit:4;stroke-dasharray:none;stroke-dashoffset:0;stroke-opacity:1;visibility:visible;display:inline;overflow:visible;enable-background:accumulate"
         sodipodi:type="arc" />
      <path
         transform="matrix(0.9024314,-0.4308335,0.4308335,0.9024314,-154.8638,96.47682)"
         sodipodi:open="true"
         sodipodi:end="12.314634"
         sodipodi:start="6.0499979"
         d="M 140.60309,389.41959 A 5.1685271,3.1806321 0 1 1 140.58007,389.36232"
         sodipodi:ry="3.1806321"
         sodipodi:rx="5.1685271"
         sodipodi:cy="390.15457"
         sodipodi:cx="135.57445"
         id="path3303"
         style="opacity:1;fill:#828282;fill-opacity:1;fill-rule:evenodd;stroke:#000000;stroke-width:1pt;stroke-linecap:butt;stroke-linejoin:miter;marker:none;marker-start:none;marker-mid:none;marker-end:none;stroke-miterlimit:4;stroke-dasharray:none;stroke-dashoffset:0;stroke-opacity:1;visibility:visible;display:inline;overflow:visible;enable-background:accumulate"
         sodipodi:type="arc" />
      <path
         sodipodi:nodetypes="cc"
         id="path3285"
         d="M 111.32212,347.69314 L 134.61145,389.52284"
         style="opacity:1;fill:#dedede;fill-opacity:1;fill-rule:evenodd;stroke:#000000;stroke-width:0.875;stroke-linecap:butt;stroke-linejoin:miter;marker:none;marker-start:none;marker-mid:none;marker-end:none;stroke-miterlimit:4;stroke-dasharray:none;stroke-dashoffset:0;stroke-opacity:1;visibility:visible;display:inline;overflow:visible;enable-background:accumulate" />
      <path
         sodipodi:nodetypes="ccc"
         id="path3287"
         d="M 138.09558,393.73495 L 144.09398,403.91921 L 144.09398,403.96197"
         style="opacity:1;fill:none;fill-opacity:0.75;fill-rule:evenodd;stroke:#000000;stroke-width:0.875;stroke-linecap:butt;stroke-linejoin:miter;marker:none;marker-start:none;marker-mid:none;marker-end:none;stroke-miterlimit:4;stroke-dasharray:none;stroke-dashoffset:0;stroke-opacity:1;visibility:visible;display:inline;overflow:visible;enable-background:accumulate" />
      <path
         sodipodi:nodetypes="cc"
         id="path3289"
         d="M 149.48971,412.57803 L 152.93059,418.10356"
         style="opacity:1;fill:none;fill-opacity:0.75;fill-rule:evenodd;stroke:#000000;stroke-width:0.875;stroke-linecap:butt;stroke-linejoin:miter;marker:none;marker-start:none;marker-mid:none;marker-end:none;stroke-miterlimit:4;stroke-dasharray:none;stroke-dashoffset:0;stroke-opacity:1;visibility:visible;display:inline;overflow:visible;enable-background:accumulate" />
      <path
         sodipodi:nodetypes="cc"
         id="path3291"
         d="M 153.88785,419.61971 L 157.81411,426.39655"
         style="opacity:1;fill:none;fill-opacity:0.75;fill-rule:evenodd;stroke:#000000;stroke-width:0.875;stroke-linecap:butt;stroke-linejoin:miter;marker:none;marker-start:none;marker-mid:none;marker-end:none;stroke-miterlimit:4;stroke-dasharray:none;stroke-dashoffset:0;stroke-opacity:1;visibility:visible;display:inline;overflow:visible;enable-background:accumulate" />
      <path
         sodipodi:nodetypes="cc"
         id="path3293"
         d="M 132.11443,393.52487 L 111.98888,406.20145"
         style="opacity:1;fill:none;fill-opacity:0.75;fill-rule:evenodd;stroke:#000000;stroke-width:0.875;stroke-linecap:butt;stroke-linejoin:miter;marker:none;marker-start:none;marker-mid:none;marker-end:none;stroke-miterlimit:4;stroke-dasharray:none;stroke-dashoffset:0;stroke-opacity:1;visibility:visible;display:inline;overflow:visible;enable-background:accumulate" />
      <path
         sodipodi:nodetypes="cc"
         id="path3297"
         d="M 136.92621,386.15326 L 136.51326,375.83639"
         style="opacity:1;fill:none;fill-opacity:0.75;fill-rule:evenodd;stroke:#000000;stroke-width:0.875;stroke-linecap:butt;stroke-linejoin:miter;marker:none;marker-start:none;marker-mid:none;marker-end:none;stroke-miterlimit:4;stroke-dasharray:none;stroke-dashoffset:0;stroke-opacity:1;visibility:visible;display:inline;overflow:visible;enable-background:accumulate" />
      <path
         sodipodi:nodetypes="cc"
         id="path3299"
         d="M 139.67058,390.00064 L 159.34967,390.7907"
         style="opacity:1;fill:none;fill-opacity:0.75;fill-rule:evenodd;stroke:#000000;stroke-width:0.875;stroke-linecap:butt;stroke-linejoin:miter;marker:none;marker-start:none;marker-mid:none;marker-end:none;stroke-miterlimit:4;stroke-dasharray:none;stroke-dashoffset:0;stroke-opacity:1;visibility:visible;display:inline;overflow:visible;enable-background:accumulate" />
      <path
         id="path3312"
         d="M 130.37607,392.78547 L 111.44307,404.48391"
         style="opacity:1;fill:none;fill-opacity:0.75;fill-rule:evenodd;stroke:#000000;stroke-width:0.875;stroke-linecap:butt;stroke-linejoin:miter;marker:none;marker-start:none;marker-mid:none;marker-end:none;stroke-miterlimit:4;stroke-dasharray:none;stroke-dashoffset:0;stroke-opacity:1;visibility:visible;display:inline;overflow:visible;enable-background:accumulate" />
      <path
         id="path3314"
         d="M 135.45566,385.85876 L 134.99388,376.00744"
         style="opacity:1;fill:none;fill-opacity:0.75;fill-rule:evenodd;stroke:#000000;stroke-width:0.875;stroke-linecap:butt;stroke-linejoin:miter;marker:none;marker-start:none;marker-mid:none;marker-end:none;stroke-miterlimit:4;stroke-dasharray:none;stroke-dashoffset:0;stroke-opacity:1;visibility:visible;display:inline;overflow:visible;enable-background:accumulate" />
      <path
         id="path3316"
         d="M 139.45776,391.2462 L 158.39077,392.16976"
         style="opacity:1;fill:none;fill-opacity:0.75;fill-rule:evenodd;stroke:#000000;stroke-width:0.875;stroke-linecap:butt;stroke-linejoin:miter;marker:none;marker-start:none;marker-mid:none;marker-end:none;stroke-miterlimit:4;stroke-dasharray:none;stroke-dashoffset:0;stroke-opacity:1;visibility:visible;display:inline;overflow:visible;enable-background:accumulate" />
      <path
         id="path3318"
         d="M 111.28914,347.53096 L 112.67448,346.76133 L 135.91744,388.9373"
         style="opacity:1;fill:none;fill-opacity:0.75;fill-rule:evenodd;stroke:#000000;stroke-width:0.875;stroke-linecap:butt;stroke-linejoin:miter;marker:none;marker-start:none;marker-mid:none;marker-end:none;stroke-miterlimit:4;stroke-dasharray:none;stroke-dashoffset:0;stroke-opacity:1;visibility:visible;display:inline;overflow:visible;enable-background:accumulate" />
      <path
         sodipodi:nodetypes="cc"
         id="path3320"
         d="M 136.53315,393.40118 L 143.1178,404.55232"
         style="opacity:1;fill:none;fill-opacity:0.75;fill-rule:evenodd;stroke:#000000;stroke-width:0.875;stroke-linecap:butt;stroke-linejoin:miter;marker:none;marker-start:none;marker-mid:none;marker-end:none;stroke-miterlimit:4;stroke-dasharray:none;stroke-dashoffset:0;stroke-opacity:1;visibility:visible;display:inline;overflow:visible;enable-background:accumulate" />
      <path
         sodipodi:nodetypes="cc"
         id="path3322"
         d="M 148.38552,412.94989 L 152.19948,419.04711"
         style="opacity:1;fill:none;fill-opacity:0.75;fill-rule:evenodd;stroke:#000000;stroke-width:0.875;stroke-linecap:butt;stroke-linejoin:miter;marker:none;marker-start:none;marker-mid:none;marker-end:none;stroke-miterlimit:4;stroke-dasharray:none;stroke-dashoffset:0;stroke-opacity:1;visibility:visible;display:inline;overflow:visible;enable-background:accumulate" />
      <path
         sodipodi:nodetypes="cc"
         id="path3324"
         d="M 153.05464,420.54362 L 156.8515,427.11116"
         style="opacity:1;fill:none;fill-opacity:0.75;fill-rule:evenodd;stroke:#000000;stroke-width:0.875;stroke-linecap:butt;stroke-linejoin:miter;marker:none;marker-start:none;marker-mid:none;marker-end:none;stroke-miterlimit:4;stroke-dasharray:none;stroke-dashoffset:0;stroke-opacity:1;visibility:visible;display:inline;overflow:visible;enable-background:accumulate" />
      <path
         id="path3326"
         d="M 119.17503,360.87344 L 119.9729,362.25749 L 120.51024,361.98068 L 119.63096,360.3361 L 119.17503,360.87344 z"
         style="opacity:1;fill:#dedede;fill-opacity:1;fill-rule:evenodd;stroke:none;stroke-width:0.875;stroke-linecap:butt;stroke-linejoin:miter;marker:none;marker-start:none;marker-mid:none;marker-end:none;stroke-miterlimit:4;stroke-dasharray:none;stroke-dashoffset:0;stroke-opacity:1;visibility:visible;display:inline;overflow:visible;enable-background:accumulate" />
      <path
         id="path3328"
         d="M 125.94627,373.0998 L 126.74414,374.48385 L 127.28148,374.20704 L 126.4022,372.56246 L 125.94627,373.0998 z"
         style="opacity:1;fill:#dedede;fill-opacity:1;fill-rule:evenodd;stroke:none;stroke-width:0.875;stroke-linecap:butt;stroke-linejoin:miter;marker:none;marker-start:none;marker-mid:none;marker-end:none;stroke-miterlimit:4;stroke-dasharray:none;stroke-dashoffset:0;stroke-opacity:1;visibility:visible;display:inline;overflow:visible;enable-background:accumulate" />
      <path
         id="path3330"
         d="M 127.53317,375.95157 L 128.33104,377.33562 L 128.86838,377.05881 L 127.9891,375.41423 L 127.53317,375.95157 z"
         style="opacity:1;fill:#dedede;fill-opacity:1;fill-rule:evenodd;stroke:none;stroke-width:0.875;stroke-linecap:butt;stroke-linejoin:miter;marker:none;marker-start:none;marker-mid:none;marker-end:none;stroke-miterlimit:4;stroke-dasharray:none;stroke-dashoffset:0;stroke-opacity:1;visibility:visible;display:inline;overflow:visible;enable-background:accumulate" />
      <path
         id="path3332"
         d="M 128.28081,377.27485 L 129.07868,378.6589 L 129.61602,378.38209 L 128.73674,376.73751 L 128.28081,377.27485 z"
         style="opacity:1;fill:#dedede;fill-opacity:1;fill-rule:evenodd;stroke:none;stroke-width:0.875;stroke-linecap:butt;stroke-linejoin:miter;marker:none;marker-start:none;marker-mid:none;marker-end:none;stroke-miterlimit:4;stroke-dasharray:none;stroke-dashoffset:0;stroke-opacity:1;visibility:visible;display:inline;overflow:visible;enable-background:accumulate" />
      <path
         id="path3334"
         d="M 129.0522,378.64474 L 129.85007,380.02879 L 130.38741,379.75198 L 129.50813,378.1074 L 129.0522,378.64474 z"
         style="opacity:1;fill:#dedede;fill-opacity:1;fill-rule:evenodd;stroke:none;stroke-width:0.875;stroke-linecap:butt;stroke-linejoin:miter;marker:none;marker-start:none;marker-mid:none;marker-end:none;stroke-miterlimit:4;stroke-dasharray:none;stroke-dashoffset:0;stroke-opacity:1;visibility:visible;display:inline;overflow:visible;enable-background:accumulate" />
      <path
         id="path3336"
         d="M 133.56337,386.85721 L 134.36124,388.24126 L 134.89858,387.96445 L 134.0193,386.31987 L 133.56337,386.85721 z"
         style="opacity:1;fill:#dedede;fill-opacity:1;fill-rule:evenodd;stroke:none;stroke-width:0.875;stroke-linecap:butt;stroke-linejoin:miter;marker:none;marker-start:none;marker-mid:none;marker-end:none;stroke-miterlimit:4;stroke-dasharray:none;stroke-dashoffset:0;stroke-opacity:1;visibility:visible;display:inline;overflow:visible;enable-background:accumulate" />
      <path
         id="path3338"
         d="M 129.38512,379.32648 L 130.18299,380.71053 L 130.72033,380.43372 L 129.84105,378.78914 L 129.38512,379.32648 z"
         style="opacity:1;fill:#dedede;fill-opacity:1;fill-rule:evenodd;stroke:none;stroke-width:0.875;stroke-linecap:butt;stroke-linejoin:miter;marker:none;marker-start:none;marker-mid:none;marker-end:none;stroke-miterlimit:4;stroke-dasharray:none;stroke-dashoffset:0;stroke-opacity:1;visibility:visible;display:inline;overflow:visible;enable-background:accumulate" />
      <path
         id="path3340"
         d="M 134.18415,387.9764 L 134.98202,389.36045 L 135.51936,389.08364 L 134.64008,387.43906 L 134.18415,387.9764 z"
         style="opacity:1;fill:#dedede;fill-opacity:1;fill-rule:evenodd;stroke:none;stroke-width:0.875;stroke-linecap:butt;stroke-linejoin:miter;marker:none;marker-start:none;marker-mid:none;marker-end:none;stroke-miterlimit:4;stroke-dasharray:none;stroke-dashoffset:0;stroke-opacity:1;visibility:visible;display:inline;overflow:visible;enable-background:accumulate" />
    </g>
    <g
       id="g4961"
       transform="translate(-8.9456507,-21.245924)">
      <path
         id="path3218"
         d="M 85.339206,367.7695 L 92.072391,359.94022 L 92.228977,405.19349 L 85.965549,420.22571 L 85.339206,367.7695 z"
         style="opacity:1;fill:#7a7a7a;fill-opacity:1;fill-rule:evenodd;stroke:none;stroke-width:0.875;stroke-linecap:butt;stroke-linejoin:miter;marker:none;marker-start:none;marker-mid:none;marker-end:none;stroke-miterlimit:4;stroke-dasharray:none;stroke-dashoffset:0;stroke-opacity:1;visibility:visible;display:inline;overflow:visible;enable-background:accumulate" />
      <path
         d="M 67.175267,394.0759 A 15.736863,16.284912 0 1 1 35.701541,394.0759 A 15.736863,16.284912 0 1 1 67.175267,394.0759 z"
         sodipodi:ry="16.284912"
         sodipodi:rx="15.736863"
         sodipodi:cy="394.0759"
         sodipodi:cx="51.438404"
         id="path3220"
         style="opacity:1;fill:url(#radialGradient5011);fill-opacity:1;fill-rule:evenodd;stroke:none;stroke-width:1pt;stroke-linecap:butt;stroke-linejoin:miter;marker:none;marker-start:none;marker-mid:none;marker-end:none;stroke-miterlimit:4;stroke-dasharray:none;stroke-dashoffset:0;stroke-opacity:1;visibility:visible;display:inline;overflow:visible;enable-background:accumulate"
         sodipodi:type="arc" />
      <path
         id="rect3342"
         d="M 85.501603,420.51682 L 85.501603,367.67307 L 17.376603,367.67307 L 17.376603,420.51682 L 85.501603,420.51682 z M 51.439103,409.04807 C 43.189503,409.04808 36.501603,402.36016 36.501603,394.11057 C 36.501603,385.86096 43.189503,379.14182 51.439103,379.14182 C 59.688683,379.14181 66.376603,385.86098 66.376603,394.11057 C 66.376603,402.36015 59.688693,409.04807 51.439103,409.04807 z"
         style="opacity:1;fill:#838383;fill-opacity:1;fill-rule:evenodd;stroke:#000000;stroke-width:0.875;stroke-linecap:butt;stroke-linejoin:miter;marker:none;marker-start:none;marker-mid:none;marker-end:none;stroke-miterlimit:4;stroke-dasharray:none;stroke-dashoffset:0;stroke-opacity:1;visibility:visible;display:inline;overflow:visible;enable-background:accumulate" />
      <g
         transform="matrix(-0.7225847,0,0,0.7225847,229.47052,44.669595)"
         id="g3695">
        <path
           id="path73"
           d="M 239.60548,489.29664 C 238.64983,487.76215 238.4369,487.34701 238.25043,486.97722 C 238.06369,486.60771 238.05968,486.48527 238.0361,486.3829 C 238.01253,486.28055 238.0158,486.09613 238.09411,486.03375 C 238.17243,485.97136 238.28287,485.93049 238.43674,485.97161 C 238.59061,486.01273 238.82836,486.07629 239.05988,486.18273 C 239.29091,486.28921 239.49003,486.37441 239.90005,486.60524 C 240.3098,486.83634 240.1452,486.7157 241.39066,487.46396"
           style="fill:none;stroke:#000000;stroke-width:0.875;stroke-miterlimit:4;stroke-dasharray:none" />
        <path
           id="path75"
           d="M 241.39323,487.45993 C 242.9525,488.37518 243.37287,488.57692 243.74742,488.75362 C 244.12198,488.93031 244.24449,488.93111 244.34739,488.95249 C 244.45033,488.97337 244.63461,488.96526 244.69491,488.88534 C 244.75471,488.80547 244.79291,488.69421 244.74802,488.5412 C 244.70315,488.38819 244.6331,488.15246 244.52062,487.92382 C 244.40815,487.69516 244.31748,487.49863 244.0762,487.09502 C 243.83443,486.69149 243.95934,486.85287 243.17866,485.62747"
           style="fill:none;stroke:#000000;stroke-width:0.875;stroke-miterlimit:4;stroke-dasharray:none" />
        <path
           id="path77"
           d="M 243.18266,485.62428 C 242.22701,484.08981 242.01408,483.67466 241.82761,483.30487 C 241.64114,482.93508 241.63713,482.81264 241.61329,482.71056 C 241.58972,482.60819 241.59299,482.42377 241.6713,482.3614 C 241.74934,482.29929 241.85978,482.25842 242.01393,482.29926 C 242.16807,482.34011 242.40554,482.40394 242.63706,482.51038 C 242.86836,482.61659 243.06721,482.70206 243.47723,482.93289 C 243.88699,483.16399 243.72239,483.04335 244.96812,483.79132"
           style="fill:none;stroke:#000000;stroke-width:0.875;stroke-miterlimit:4;stroke-dasharray:none" />
        <path
           id="path79"
           d="M 244.97069,483.78729 C 246.52997,484.70256 246.95031,484.90428 247.3246,485.08127 C 247.69916,485.25796 247.82168,485.25875 247.92457,485.28013 C 248.02752,485.30102 248.21179,485.29291 248.2721,485.213 C 248.33218,485.13284 248.37009,485.02186 248.32521,484.86884 C 248.28033,484.71583 248.21056,484.47984 248.09781,484.25146 C 247.98506,484.02309 247.89466,483.82628 247.6534,483.42268 C 247.41211,483.01907 247.5368,483.18023 246.75611,481.95484"
           style="fill:none;stroke:#000000;stroke-width:0.875;stroke-miterlimit:4;stroke-dasharray:none" />
        <path
           id="path81"
           d="M 246.75983,481.95193 C 245.80419,480.41745 245.59127,480.00231 245.40452,479.6328 C 245.21778,479.26328 245.21404,479.14056 245.1902,479.03848 C 245.16663,478.93613 245.17016,478.75143 245.24821,478.68932 C 245.32653,478.62695 245.43697,478.58607 245.59084,478.62718 C 245.7447,478.66831 245.98273,478.73159 246.21397,478.83831 C 246.44501,478.94479 246.64412,479.02999 247.05414,479.26081 C 247.46417,479.49163 247.29957,479.371 248.54503,480.11925"
           style="fill:none;stroke:#000000;stroke-width:0.875;stroke-miterlimit:4;stroke-dasharray:none" />
        <path
           id="path83"
           d="M 248.54788,480.11494 C 250.10714,481.0302 250.5275,481.23193 250.90206,481.40864 C 251.27634,481.58561 251.39912,481.58612 251.50203,481.60751 C 251.60496,481.62839 251.78924,481.62028 251.84955,481.54035 C 251.90962,481.4602 251.94782,481.34895 251.90267,481.19622 C 251.85751,481.04348 251.78775,480.80748 251.67527,480.57883 C 251.56279,480.35018 251.47212,480.15364 251.23084,479.75004 C 250.98934,479.34622 251.11425,479.5076 250.33358,478.2822"
           style="fill:none;stroke:#000000;stroke-width:0.875;stroke-miterlimit:4;stroke-dasharray:none" />
        <path
           id="path85"
           d="M 250.33729,478.2793 C 249.38165,476.74482 249.16872,476.32968 248.98225,475.95989 C 248.79578,475.5901 248.79177,475.46765 248.76793,475.36558 C 248.74435,475.26321 248.74762,475.07879 248.82593,475.01641 C 248.90425,474.95402 249.01469,474.91315 249.16856,474.95428 C 249.32244,474.9954 249.56018,475.05895 249.79171,475.16539 C 250.02273,475.27189 250.22184,475.35708 250.63187,475.58791 C 251.04161,475.819 250.87701,475.69836 252.12249,476.44662"
           style="fill:none;stroke:#000000;stroke-width:0.875;stroke-miterlimit:4;stroke-dasharray:none" />
        <path
           id="path87"
           d="M 252.12506,476.44259 C 253.68432,477.35785 254.10469,477.55958 254.47924,477.73629 C 254.8538,477.91298 254.9763,477.91377 255.07921,477.93515 C 255.18215,477.95603 255.36643,477.94793 255.42674,477.868 C 255.48653,477.78814 255.52473,477.67687 255.47984,477.52386 C 255.43497,477.37085 255.36493,477.13513 255.25244,476.90648 C 255.1397,476.67811 255.0493,476.48129 254.80803,476.0777 C 254.56625,475.67415 254.69116,475.83553 253.91075,474.60986"
           style="fill:none;stroke:#000000;stroke-width:0.875;stroke-miterlimit:4;stroke-dasharray:none" />
        <path
           id="path89"
           d="M 253.91448,474.60695 C 252.95884,473.07247 252.7459,472.65733 252.55916,472.28782 C 252.37242,471.9183 252.36868,471.79558 252.34484,471.69349 C 252.32126,471.59114 252.32453,471.40672 252.40284,471.34434 C 252.48088,471.28224 252.59134,471.24136 252.74547,471.2822 C 252.89961,471.32304 253.13736,471.38661 253.36862,471.49332 C 253.59964,471.5998 253.79875,471.68501 254.20878,471.91583 C 254.61881,472.14665 254.45421,472.02601 255.69967,472.77427"
           style="fill:none;stroke:#000000;stroke-width:0.875;stroke-miterlimit:4;stroke-dasharray:none" />
        <path
           id="path91"
           d="M 255.70251,472.76997 C 257.26178,473.68522 257.68213,473.88695 258.05642,474.06393 C 258.43098,474.24063 258.5535,474.24142 258.65639,474.2628 C 258.75934,474.28368 258.94361,474.27557 259.00391,474.19565 C 259.06398,474.1155 259.10217,474.00424 259.05702,473.85151 C 259.01189,473.69878 258.94238,473.4625 258.82963,473.23413 C 258.71688,473.00575 258.62648,472.80894 258.38521,472.40533 C 258.1437,472.00153 258.26862,472.16289 257.48793,470.9375"
           style="fill:none;stroke:#000000;stroke-width:0.875;stroke-miterlimit:4;stroke-dasharray:none" />
      </g>
      <path
         id="path2444"
         d="M 17.381013,367.29975 L 29.594697,359.62705 L 91.915806,359.62705 L 85.808963,367.29975"
         style="opacity:1;fill:#7a7a7a;fill-opacity:1;fill-rule:evenodd;stroke:#000000;stroke-width:0.875;stroke-linecap:butt;stroke-linejoin:miter;marker:none;marker-start:none;marker-mid:none;marker-end:none;stroke-miterlimit:4;stroke-dasharray:none;stroke-dashoffset:0;stroke-opacity:1;visibility:visible;display:inline;overflow:visible;enable-background:accumulate" />
      <path
         id="path2446"
         d="M 92.072391,359.94022 L 92.072391,404.88032 L 85.965549,419.91254"
         style="opacity:1;fill:#7a7a7a;fill-opacity:1;fill-rule:evenodd;stroke:#000000;stroke-width:0.875;stroke-linecap:butt;stroke-linejoin:miter;marker:none;marker-start:none;marker-mid:none;marker-end:none;stroke-miterlimit:4;stroke-dasharray:none;stroke-dashoffset:0;stroke-opacity:1;visibility:visible;display:inline;overflow:visible;enable-background:accumulate" />
    </g>
    <g
       id="g4900"
       transform="translate(304.15217,-88.338315)">
      <path
         id="path4887"
         d="M -195.09375,329.875 C -215.34032,329.875 -231.78125,346.31592 -231.78125,366.5625 C -231.78125,386.80907 -215.34031,403.24999 -195.09375,403.25 C -174.84718,403.25 -158.43751,386.80905 -158.4375,366.5625 C -158.4375,346.31593 -174.84718,329.87501 -195.09375,329.875 z M -195.09375,344.8125 C -183.08573,344.8125 -173.34375,354.55449 -173.34375,366.5625 C -173.34374,378.5705 -183.08574,388.3125 -195.09375,388.3125 C -207.10176,388.3125 -216.84375,378.57051 -216.84375,366.5625 C -216.84375,354.55447 -207.10176,344.8125 -195.09375,344.8125 z"
         style="fill:#e9e9e9;fill-opacity:1;stroke:#000000;stroke-width:0.875;stroke-linecap:round;stroke-miterlimit:4;stroke-dasharray:none;stroke-dashoffset:0;stroke-opacity:1" />
      <rect
         y="328.28979"
         x="-206.90813"
         height="22.504332"
         width="22.609463"
         id="rect3207"
         style="fill:#b2b2b2;fill-opacity:1;stroke:#000000;stroke-width:1.04737592;stroke-linecap:round;stroke-miterlimit:4;stroke-dasharray:none;stroke-dashoffset:0;stroke-opacity:1" />
      <text
         sodipodi:linespacing="125%"
         id="text3209"
         y="312.77554"
         x="-208.47777"
         style="font-size:10px;font-style:normal;font-variant:normal;font-weight:normal;font-stretch:normal;text-align:start;line-height:125%;writing-mode:lr-tb;text-anchor:start;fill:#000000;fill-opacity:1;stroke:none;stroke-width:1px;stroke-linecap:butt;stroke-linejoin:miter;stroke-opacity:1;font-family:Bitstream Vera Sans;-inkscape-font-specification:Bitstream Vera Sans"
         xml:space="preserve"><tspan
           y="312.77554"
           x="-208.47777"
           id="tspan3211"
           sodipodi:role="line">bidirectional</tspan><tspan
           id="tspan4833"
           y="325.27554"
           x="-208.47777"
           sodipodi:role="line">laser</tspan></text>
      <g
         transform="matrix(0.8155943,0.5786242,-0.5786242,0.8155943,195.63399,156.77212)"
         id="g4819">
        <path
           style="fill:none;fill-rule:evenodd;stroke:#000000;stroke-width:1px;stroke-linecap:butt;stroke-linejoin:miter;marker-end:url(#Arrow2Mend);stroke-opacity:1"
           d="M -204.29411,422.48089 L -211.12767,420.32266"
           id="path4706"
           sodipodi:nodetypes="cc" />
        <g
           id="g4760"
           transform="translate(-2.4798804,-115.72775)">
          <path
             style="fill:none;stroke:#000000;stroke-width:0.875;stroke-miterlimit:4;stroke-dasharray:none"
             d="M -202.18266,538.36834 C -201.59156,536.65998 -201.40293,536.23324 -201.23291,535.85561 C -201.06327,535.47794 -200.97064,535.39777 -200.90592,535.31503 C -200.84121,535.23229 -200.69583,535.11877 -200.59808,535.14038 C -200.5003,535.16198 -200.39903,535.22209 -200.33416,535.36754 C -200.26928,535.513 -200.16905,535.73776 -200.10607,535.98467 C -200.04343,536.23122 -199.98433,536.43959 -199.90568,536.9035 C -199.82742,537.36737 -199.83725,537.16353 -199.63495,538.60233"
             id="path3389" />
          <path
             style="fill:none;stroke:#000000;stroke-width:0.875;stroke-miterlimit:4;stroke-dasharray:none"
             d="M -199.67726,538.50799 C -199.33424,540.2832 -199.20798,540.73205 -199.09319,541.12996 C -198.97839,541.52787 -198.89806,541.62037 -198.84613,541.71175 C -198.79379,541.80282 -198.66597,541.9358 -198.56614,541.92827 C -198.46667,541.9204 -198.35791,541.87557 -198.2727,541.74079 C -198.18747,541.60602 -198.05679,541.3977 -197.95945,541.16222 C -197.86209,540.92673 -197.77446,540.72882 -197.63086,540.28106 C -197.48765,539.83297 -197.52628,540.03336 -197.1221,538.63775"
             id="path3391" />
          <path
             style="fill:none;stroke:#000000;stroke-width:0.875;stroke-miterlimit:4;stroke-dasharray:none"
             d="M -197.13648,538.6936 C -196.68462,536.94326 -196.5309,536.50274 -196.39177,536.11267 C -196.25265,535.72259 -196.16676,535.63524 -196.1093,535.54757 C -196.05143,535.45989 -195.91564,535.33505 -195.81647,535.34873 C -195.71768,535.3624 -195.61191,535.41417 -195.53515,535.55395 C -195.45841,535.69373 -195.34083,535.9097 -195.25821,536.15075 C -195.17556,536.39147 -195.1003,536.5944 -194.98462,537.0505 C -194.86931,537.50658 -194.8955,537.30419 -194.57782,538.72207"
             id="path3393" />
          <path
             style="fill:none;stroke:#000000;stroke-width:0.875;stroke-miterlimit:4;stroke-dasharray:none"
             d="M -194.5865,538.69091 C -194.02082,540.4082 -193.8386,540.83734 -193.67459,541.21751 C -193.51018,541.59762 -193.41874,541.67917 -193.35564,541.7632 C -193.29216,541.8469 -193.14849,541.96256 -193.05042,541.94243 C -192.95236,541.92196 -192.85057,541.86371 -192.78316,541.71919 C -192.71574,541.57468 -192.61219,541.35145 -192.54592,541.10552 C -192.47966,540.85961 -192.41747,540.65215 -192.33189,540.18979 C -192.24634,539.7274 -192.25922,539.93076 -192.03557,538.49512"
             id="path3395" />
          <path
             style="fill:none;stroke:#000000;stroke-width:0.875;stroke-miterlimit:4;stroke-dasharray:none"
             d="M -192.07542,538.57625 C -191.87934,536.77919 -191.79041,536.32119 -191.70908,535.91523 C -191.62774,535.50928 -191.55489,535.41045 -191.51059,535.31544 C -191.46592,535.22038 -191.34907,535.0773 -191.24933,535.07665 C -191.14921,535.07597 -191.0371,535.11202 -190.94148,535.23938 C -190.84587,535.36676 -190.69774,535.56353 -190.58178,535.79028 C -190.46583,536.01671 -190.36185,536.20669 -190.18192,536.64146 C -190.00199,537.07623 -190.05694,536.8797 -189.53951,538.23738"
             id="path3397" />
          <path
             style="fill:none;stroke:#000000;stroke-width:0.875;stroke-miterlimit:4;stroke-dasharray:none"
             d="M -189.57595,538.17016 C -188.80209,539.8042 -188.56814,540.20753 -188.35796,540.56438 C -188.14817,540.92129 -188.04696,540.99081 -187.97393,541.06641 C -187.9006,541.14159 -187.74371,541.2386 -187.64887,541.20646 C -187.5541,541.17401 -187.45992,541.10354 -187.4113,540.95189 C -187.36267,540.80022 -187.28753,540.56587 -187.25183,540.31357 C -187.21613,540.06126 -187.18048,539.84778 -187.15281,539.37836 C -187.12518,538.90865 -187.11274,539.11235 -187.06847,537.66008"
             id="path3399" />
          <path
             style="fill:none;stroke:#000000;stroke-width:0.875;stroke-miterlimit:4;stroke-dasharray:none"
             d="M -187.08751,537.72496 C -187.10551,535.91732 -187.07143,535.45201 -187.03834,535.03919 C -187.00525,534.62637 -186.94498,534.51969 -186.91225,534.42012 C -186.87913,534.32042 -186.78041,534.16462 -186.68109,534.15208 C -186.58174,534.13953 -186.46615,534.16207 -186.35614,534.27723 C -186.24611,534.3924 -186.07611,534.57034 -185.93373,534.78167 C -185.79183,534.9928 -185.66608,535.16913 -185.43597,535.57956 C -185.20622,535.99006 -185.28405,535.8014 -184.60954,537.08832"
             id="path3401" />
          <path
             style="fill:none;stroke:#000000;stroke-width:0.875;stroke-miterlimit:4;stroke-dasharray:none"
             d="M -184.61823,536.96 C -183.68717,538.50987 -183.41461,538.88818 -183.17031,539.22259 C -182.92599,539.55699 -182.8188,539.61631 -182.73868,539.68434 C -182.65828,539.75194 -182.49261,539.83302 -182.4014,539.7917 C -182.31068,539.7502 -182.22389,539.67078 -182.19008,539.51494 C -182.15625,539.35912 -182.10492,539.11863 -182.09427,538.86403 C -182.08396,538.60955 -182.06915,538.39347 -182.08784,537.92363 C -182.107,537.45359 -182.07456,537.65507 -182.17321,536.20539"
             id="path3403" />
          <path
             style="fill:none;stroke:#000000;stroke-width:0.875;stroke-miterlimit:4;stroke-dasharray:none"
             d="M -182.16748,536.31768 C -182.37175,534.52153 -182.38584,534.05517 -182.39584,533.64129 C -182.40585,533.22738 -182.35654,533.11494 -182.33424,533.01251 C -182.31159,532.90994 -182.22945,532.74479 -182.13195,532.72207 C -182.03481,532.6995 -181.91749,532.70999 -181.79582,532.81305 C -181.67415,532.91611 -181.48672,533.0756 -181.32367,533.27126 C -181.16075,533.46662 -181.01751,533.62906 -180.74629,534.01356 C -180.47507,534.39808 -180.57194,534.21845 -179.76836,535.42896"
             id="path3405" />
          <path
             style="fill:none;stroke:#000000;stroke-width:0.875;stroke-miterlimit:4;stroke-dasharray:none"
             d="M -179.76801,535.32624 C -178.66187,536.75644 -178.34692,537.10023 -178.06548,537.40389 C -177.7837,537.7074 -177.67029,537.75377 -177.58277,537.81194 C -177.495,537.86966 -177.32098,537.93077 -177.23524,537.87906 C -177.14964,537.82705 -177.07276,537.73803 -177.05776,537.57947 C -177.04276,537.42092 -177.01926,537.17575 -177.03882,536.92181 C -177.05839,536.66788 -177.06897,536.45156 -177.14255,535.98712 C -177.21626,535.52242 -177.16043,535.7187 -177.4285,534.2907"
             id="path3407" />
        </g>
      </g>
      <g
         transform="matrix(0.76972,0.6383818,-0.6383818,0.76972,224.1197,190.18104)"
         id="g4806">
        <path
           style="fill:none;fill-rule:evenodd;stroke:#000000;stroke-width:1px;stroke-linecap:butt;stroke-linejoin:miter;marker-end:url(#Arrow2Mend);stroke-opacity:1"
           d="M -194.31938,431.6352 L -187.33068,430.04974"
           id="path4772"
           sodipodi:nodetypes="cc" />
        <path
           id="path4776"
           d="M -219.24753,435.30512 C -218.65643,433.59676 -218.4678,433.17002 -218.29778,432.79239 C -218.12814,432.41472 -218.03551,432.33455 -217.97079,432.25181 C -217.90608,432.16907 -217.7607,432.05555 -217.66295,432.07716 C -217.56517,432.09876 -217.4639,432.15887 -217.39903,432.30432 C -217.33415,432.44978 -217.23392,432.67454 -217.17094,432.92145 C -217.1083,433.168 -217.0492,433.37637 -216.97055,433.84028 C -216.89229,434.30415 -216.90212,434.10031 -216.69982,435.53911"
           style="fill:none;stroke:#000000;stroke-width:0.875;stroke-miterlimit:4;stroke-dasharray:none" />
        <path
           id="path4778"
           d="M -216.74213,435.44477 C -216.39911,437.21998 -216.27285,437.66883 -216.15806,438.06674 C -216.04326,438.46465 -215.96293,438.55715 -215.911,438.64853 C -215.85866,438.7396 -215.73084,438.87258 -215.63101,438.86505 C -215.53154,438.85718 -215.42278,438.81235 -215.33757,438.67757 C -215.25234,438.5428 -215.12166,438.33448 -215.02432,438.099 C -214.92696,437.86351 -214.83933,437.6656 -214.69573,437.21784 C -214.55252,436.76975 -214.59115,436.97014 -214.18697,435.57453"
           style="fill:none;stroke:#000000;stroke-width:0.875;stroke-miterlimit:4;stroke-dasharray:none" />
        <path
           id="path4780"
           d="M -214.20135,435.63038 C -213.74949,433.88004 -213.59577,433.43952 -213.45664,433.04945 C -213.31752,432.65937 -213.23163,432.57202 -213.17417,432.48435 C -213.1163,432.39667 -212.98051,432.27183 -212.88134,432.28551 C -212.78255,432.29918 -212.67678,432.35095 -212.60002,432.49073 C -212.52328,432.63051 -212.4057,432.84648 -212.32308,433.08753 C -212.24043,433.32825 -212.16517,433.53118 -212.04949,433.98728 C -211.93418,434.44336 -211.96037,434.24097 -211.64269,435.65885"
           style="fill:none;stroke:#000000;stroke-width:0.875;stroke-miterlimit:4;stroke-dasharray:none" />
        <path
           id="path4782"
           d="M -211.65137,435.62769 C -211.08569,437.34498 -210.90347,437.77412 -210.73946,438.15429 C -210.57505,438.5344 -210.48361,438.61595 -210.42051,438.69998 C -210.35703,438.78368 -210.21336,438.89934 -210.11529,438.87921 C -210.01723,438.85874 -209.91544,438.80049 -209.84803,438.65597 C -209.78061,438.51146 -209.67706,438.28823 -209.61079,438.0423 C -209.54453,437.79639 -209.48234,437.58893 -209.39676,437.12657 C -209.31121,436.66418 -209.32409,436.86754 -209.10044,435.4319"
           style="fill:none;stroke:#000000;stroke-width:0.875;stroke-miterlimit:4;stroke-dasharray:none" />
        <path
           id="path4784"
           d="M -209.14029,435.51303 C -208.94421,433.71597 -208.85528,433.25797 -208.77395,432.85201 C -208.69261,432.44606 -208.61976,432.34723 -208.57546,432.25222 C -208.53079,432.15716 -208.41394,432.01408 -208.3142,432.01343 C -208.21408,432.01275 -208.10197,432.0488 -208.00635,432.17616 C -207.91074,432.30354 -207.76261,432.50031 -207.64665,432.72706 C -207.5307,432.95349 -207.42672,433.14347 -207.24679,433.57824 C -207.06686,434.01301 -207.12181,433.81648 -206.60438,435.17416"
           style="fill:none;stroke:#000000;stroke-width:0.875;stroke-miterlimit:4;stroke-dasharray:none" />
        <path
           id="path4786"
           d="M -206.64082,435.10694 C -205.86696,436.74098 -205.63301,437.14431 -205.42283,437.50116 C -205.21304,437.85807 -205.11183,437.92759 -205.0388,438.00319 C -204.96547,438.07837 -204.80858,438.17538 -204.71374,438.14324 C -204.61897,438.11079 -204.52479,438.04032 -204.47617,437.88867 C -204.42754,437.737 -204.3524,437.50265 -204.3167,437.25035 C -204.281,436.99804 -204.24535,436.78456 -204.21768,436.31514 C -204.19005,435.84543 -204.17761,436.04913 -204.13334,434.59686"
           style="fill:none;stroke:#000000;stroke-width:0.875;stroke-miterlimit:4;stroke-dasharray:none" />
        <path
           id="path4788"
           d="M -204.15238,434.66174 C -204.17038,432.8541 -204.1363,432.38879 -204.10321,431.97597 C -204.07012,431.56315 -204.00985,431.45647 -203.97712,431.3569 C -203.944,431.2572 -203.84528,431.1014 -203.74596,431.08886 C -203.64661,431.07631 -203.53102,431.09885 -203.42101,431.21401 C -203.31098,431.32918 -203.14098,431.50712 -202.9986,431.71845 C -202.8567,431.92958 -202.73095,432.10591 -202.50084,432.51634 C -202.27109,432.92684 -202.34892,432.73818 -201.67441,434.0251"
           style="fill:none;stroke:#000000;stroke-width:0.875;stroke-miterlimit:4;stroke-dasharray:none" />
        <path
           id="path4790"
           d="M -201.6831,433.89678 C -200.75204,435.44665 -200.47948,435.82496 -200.23518,436.15937 C -199.99086,436.49377 -199.88367,436.55309 -199.80355,436.62112 C -199.72315,436.68872 -199.55748,436.7698 -199.46627,436.72848 C -199.37555,436.68698 -199.28876,436.60756 -199.25495,436.45172 C -199.22112,436.2959 -199.16979,436.05541 -199.15914,435.80081 C -199.14883,435.54633 -199.13402,435.33025 -199.15271,434.86041 C -199.17187,434.39037 -199.13943,434.59185 -199.23808,433.14217"
           style="fill:none;stroke:#000000;stroke-width:0.875;stroke-miterlimit:4;stroke-dasharray:none" />
        <path
           id="path4792"
           d="M -199.23235,433.25446 C -199.43662,431.45831 -199.45071,430.99195 -199.46071,430.57807 C -199.47072,430.16416 -199.42141,430.05172 -199.39911,429.94929 C -199.37646,429.84672 -199.29432,429.68157 -199.19682,429.65885 C -199.09968,429.63628 -198.98236,429.64677 -198.86069,429.74983 C -198.73902,429.85289 -198.55159,430.01238 -198.38854,430.20804 C -198.22562,430.4034 -198.08238,430.56584 -197.81116,430.95034 C -197.53994,431.33486 -197.63681,431.15523 -196.83323,432.36574"
           style="fill:none;stroke:#000000;stroke-width:0.875;stroke-miterlimit:4;stroke-dasharray:none" />
        <path
           id="path4794"
           d="M -196.83288,432.26302 C -195.72674,433.69322 -195.41179,434.03701 -195.13035,434.34067 C -194.84857,434.64418 -194.73516,434.69055 -194.64764,434.74872 C -194.55987,434.80644 -194.38585,434.86755 -194.30011,434.81584 C -194.21451,434.76383 -194.13763,434.67481 -194.12263,434.51625 C -194.10763,434.3577 -194.08413,434.11253 -194.10369,433.85859 C -194.12326,433.60466 -194.13384,433.38834 -194.20742,432.9239 C -194.28113,432.4592 -194.2253,432.65548 -194.49337,431.22748"
           style="fill:none;stroke:#000000;stroke-width:0.875;stroke-miterlimit:4;stroke-dasharray:none" />
      </g>
      <g
         transform="matrix(-0.4922432,-0.8704577,0.8704577,-0.4922432,-634.01611,389.21222)"
         id="g4835">
        <path
           style="fill:none;fill-rule:evenodd;stroke:#000000;stroke-width:1px;stroke-linecap:butt;stroke-linejoin:miter;marker-end:url(#Arrow2Mend);stroke-opacity:1"
           d="M -204.29411,422.48089 L -211.12767,420.32266"
           id="path4837"
           sodipodi:nodetypes="cc" />
        <g
           id="g4839"
           transform="translate(-2.4798804,-115.72775)">
          <path
             style="fill:none;stroke:#000000;stroke-width:0.875;stroke-miterlimit:4;stroke-dasharray:none"
             d="M -202.18266,538.36834 C -201.59156,536.65998 -201.40293,536.23324 -201.23291,535.85561 C -201.06327,535.47794 -200.97064,535.39777 -200.90592,535.31503 C -200.84121,535.23229 -200.69583,535.11877 -200.59808,535.14038 C -200.5003,535.16198 -200.39903,535.22209 -200.33416,535.36754 C -200.26928,535.513 -200.16905,535.73776 -200.10607,535.98467 C -200.04343,536.23122 -199.98433,536.43959 -199.90568,536.9035 C -199.82742,537.36737 -199.83725,537.16353 -199.63495,538.60233"
             id="path4841" />
          <path
             style="fill:none;stroke:#000000;stroke-width:0.875;stroke-miterlimit:4;stroke-dasharray:none"
             d="M -199.67726,538.50799 C -199.33424,540.2832 -199.20798,540.73205 -199.09319,541.12996 C -198.97839,541.52787 -198.89806,541.62037 -198.84613,541.71175 C -198.79379,541.80282 -198.66597,541.9358 -198.56614,541.92827 C -198.46667,541.9204 -198.35791,541.87557 -198.2727,541.74079 C -198.18747,541.60602 -198.05679,541.3977 -197.95945,541.16222 C -197.86209,540.92673 -197.77446,540.72882 -197.63086,540.28106 C -197.48765,539.83297 -197.52628,540.03336 -197.1221,538.63775"
             id="path4843" />
          <path
             style="fill:none;stroke:#000000;stroke-width:0.875;stroke-miterlimit:4;stroke-dasharray:none"
             d="M -197.13648,538.6936 C -196.68462,536.94326 -196.5309,536.50274 -196.39177,536.11267 C -196.25265,535.72259 -196.16676,535.63524 -196.1093,535.54757 C -196.05143,535.45989 -195.91564,535.33505 -195.81647,535.34873 C -195.71768,535.3624 -195.61191,535.41417 -195.53515,535.55395 C -195.45841,535.69373 -195.34083,535.9097 -195.25821,536.15075 C -195.17556,536.39147 -195.1003,536.5944 -194.98462,537.0505 C -194.86931,537.50658 -194.8955,537.30419 -194.57782,538.72207"
             id="path4845" />
          <path
             style="fill:none;stroke:#000000;stroke-width:0.875;stroke-miterlimit:4;stroke-dasharray:none"
             d="M -194.5865,538.69091 C -194.02082,540.4082 -193.8386,540.83734 -193.67459,541.21751 C -193.51018,541.59762 -193.41874,541.67917 -193.35564,541.7632 C -193.29216,541.8469 -193.14849,541.96256 -193.05042,541.94243 C -192.95236,541.92196 -192.85057,541.86371 -192.78316,541.71919 C -192.71574,541.57468 -192.61219,541.35145 -192.54592,541.10552 C -192.47966,540.85961 -192.41747,540.65215 -192.33189,540.18979 C -192.24634,539.7274 -192.25922,539.93076 -192.03557,538.49512"
             id="path4847" />
          <path
             style="fill:none;stroke:#000000;stroke-width:0.875;stroke-miterlimit:4;stroke-dasharray:none"
             d="M -192.07542,538.57625 C -191.87934,536.77919 -191.79041,536.32119 -191.70908,535.91523 C -191.62774,535.50928 -191.55489,535.41045 -191.51059,535.31544 C -191.46592,535.22038 -191.34907,535.0773 -191.24933,535.07665 C -191.14921,535.07597 -191.0371,535.11202 -190.94148,535.23938 C -190.84587,535.36676 -190.69774,535.56353 -190.58178,535.79028 C -190.46583,536.01671 -190.36185,536.20669 -190.18192,536.64146 C -190.00199,537.07623 -190.05694,536.8797 -189.53951,538.23738"
             id="path4849" />
          <path
             style="fill:none;stroke:#000000;stroke-width:0.875;stroke-miterlimit:4;stroke-dasharray:none"
             d="M -189.57595,538.17016 C -188.80209,539.8042 -188.56814,540.20753 -188.35796,540.56438 C -188.14817,540.92129 -188.04696,540.99081 -187.97393,541.06641 C -187.9006,541.14159 -187.74371,541.2386 -187.64887,541.20646 C -187.5541,541.17401 -187.45992,541.10354 -187.4113,540.95189 C -187.36267,540.80022 -187.28753,540.56587 -187.25183,540.31357 C -187.21613,540.06126 -187.18048,539.84778 -187.15281,539.37836 C -187.12518,538.90865 -187.11274,539.11235 -187.06847,537.66008"
             id="path4851" />
          <path
             style="fill:none;stroke:#000000;stroke-width:0.875;stroke-miterlimit:4;stroke-dasharray:none"
             d="M -187.08751,537.72496 C -187.10551,535.91732 -187.07143,535.45201 -187.03834,535.03919 C -187.00525,534.62637 -186.94498,534.51969 -186.91225,534.42012 C -186.87913,534.32042 -186.78041,534.16462 -186.68109,534.15208 C -186.58174,534.13953 -186.46615,534.16207 -186.35614,534.27723 C -186.24611,534.3924 -186.07611,534.57034 -185.93373,534.78167 C -185.79183,534.9928 -185.66608,535.16913 -185.43597,535.57956 C -185.20622,535.99006 -185.28405,535.8014 -184.60954,537.08832"
             id="path4853" />
          <path
             style="fill:none;stroke:#000000;stroke-width:0.875;stroke-miterlimit:4;stroke-dasharray:none"
             d="M -184.61823,536.96 C -183.68717,538.50987 -183.41461,538.88818 -183.17031,539.22259 C -182.92599,539.55699 -182.8188,539.61631 -182.73868,539.68434 C -182.65828,539.75194 -182.49261,539.83302 -182.4014,539.7917 C -182.31068,539.7502 -182.22389,539.67078 -182.19008,539.51494 C -182.15625,539.35912 -182.10492,539.11863 -182.09427,538.86403 C -182.08396,538.60955 -182.06915,538.39347 -182.08784,537.92363 C -182.107,537.45359 -182.07456,537.65507 -182.17321,536.20539"
             id="path4855" />
          <path
             style="fill:none;stroke:#000000;stroke-width:0.875;stroke-miterlimit:4;stroke-dasharray:none"
             d="M -182.16748,536.31768 C -182.37175,534.52153 -182.38584,534.05517 -182.39584,533.64129 C -182.40585,533.22738 -182.35654,533.11494 -182.33424,533.01251 C -182.31159,532.90994 -182.22945,532.74479 -182.13195,532.72207 C -182.03481,532.6995 -181.91749,532.70999 -181.79582,532.81305 C -181.67415,532.91611 -181.48672,533.0756 -181.32367,533.27126 C -181.16075,533.46662 -181.01751,533.62906 -180.74629,534.01356 C -180.47507,534.39808 -180.57194,534.21845 -179.76836,535.42896"
             id="path4857" />
          <path
             style="fill:none;stroke:#000000;stroke-width:0.875;stroke-miterlimit:4;stroke-dasharray:none"
             d="M -179.76801,535.32624 C -178.66187,536.75644 -178.34692,537.10023 -178.06548,537.40389 C -177.7837,537.7074 -177.67029,537.75377 -177.58277,537.81194 C -177.495,537.86966 -177.32098,537.93077 -177.23524,537.87906 C -177.14964,537.82705 -177.07276,537.73803 -177.05776,537.57947 C -177.04276,537.42092 -177.01926,537.17575 -177.03882,536.92181 C -177.05839,536.66788 -177.06897,536.45156 -177.14255,535.98712 C -177.21626,535.52242 -177.16043,535.7187 -177.4285,534.2907"
             id="path4859" />
        </g>
      </g>
      <g
         inkscape:transform-center-y="10.953891"
         inkscape:transform-center-x="14.879366"
         transform="matrix(-0.5704666,0.8213209,-0.8213209,-0.5704666,19.828921,768.56002)"
         id="g4861">
        <path
           style="fill:none;fill-rule:evenodd;stroke:#000000;stroke-width:1px;stroke-linecap:butt;stroke-linejoin:miter;marker-end:url(#Arrow2Mend);stroke-opacity:1"
           d="M -194.31938,431.6352 L -187.33068,430.04974"
           id="path4863"
           sodipodi:nodetypes="cc" />
        <path
           id="path4865"
           d="M -219.24753,435.30512 C -218.65643,433.59676 -218.4678,433.17002 -218.29778,432.79239 C -218.12814,432.41472 -218.03551,432.33455 -217.97079,432.25181 C -217.90608,432.16907 -217.7607,432.05555 -217.66295,432.07716 C -217.56517,432.09876 -217.4639,432.15887 -217.39903,432.30432 C -217.33415,432.44978 -217.23392,432.67454 -217.17094,432.92145 C -217.1083,433.168 -217.0492,433.37637 -216.97055,433.84028 C -216.89229,434.30415 -216.90212,434.10031 -216.69982,435.53911"
           style="fill:none;stroke:#000000;stroke-width:0.875;stroke-miterlimit:4;stroke-dasharray:none" />
        <path
           id="path4867"
           d="M -216.74213,435.44477 C -216.39911,437.21998 -216.27285,437.66883 -216.15806,438.06674 C -216.04326,438.46465 -215.96293,438.55715 -215.911,438.64853 C -215.85866,438.7396 -215.73084,438.87258 -215.63101,438.86505 C -215.53154,438.85718 -215.42278,438.81235 -215.33757,438.67757 C -215.25234,438.5428 -215.12166,438.33448 -215.02432,438.099 C -214.92696,437.86351 -214.83933,437.6656 -214.69573,437.21784 C -214.55252,436.76975 -214.59115,436.97014 -214.18697,435.57453"
           style="fill:none;stroke:#000000;stroke-width:0.875;stroke-miterlimit:4;stroke-dasharray:none" />
        <path
           id="path4869"
           d="M -214.20135,435.63038 C -213.74949,433.88004 -213.59577,433.43952 -213.45664,433.04945 C -213.31752,432.65937 -213.23163,432.57202 -213.17417,432.48435 C -213.1163,432.39667 -212.98051,432.27183 -212.88134,432.28551 C -212.78255,432.29918 -212.67678,432.35095 -212.60002,432.49073 C -212.52328,432.63051 -212.4057,432.84648 -212.32308,433.08753 C -212.24043,433.32825 -212.16517,433.53118 -212.04949,433.98728 C -211.93418,434.44336 -211.96037,434.24097 -211.64269,435.65885"
           style="fill:none;stroke:#000000;stroke-width:0.875;stroke-miterlimit:4;stroke-dasharray:none" />
        <path
           id="path4871"
           d="M -211.65137,435.62769 C -211.08569,437.34498 -210.90347,437.77412 -210.73946,438.15429 C -210.57505,438.5344 -210.48361,438.61595 -210.42051,438.69998 C -210.35703,438.78368 -210.21336,438.89934 -210.11529,438.87921 C -210.01723,438.85874 -209.91544,438.80049 -209.84803,438.65597 C -209.78061,438.51146 -209.67706,438.28823 -209.61079,438.0423 C -209.54453,437.79639 -209.48234,437.58893 -209.39676,437.12657 C -209.31121,436.66418 -209.32409,436.86754 -209.10044,435.4319"
           style="fill:none;stroke:#000000;stroke-width:0.875;stroke-miterlimit:4;stroke-dasharray:none" />
        <path
           id="path4873"
           d="M -209.14029,435.51303 C -208.94421,433.71597 -208.85528,433.25797 -208.77395,432.85201 C -208.69261,432.44606 -208.61976,432.34723 -208.57546,432.25222 C -208.53079,432.15716 -208.41394,432.01408 -208.3142,432.01343 C -208.21408,432.01275 -208.10197,432.0488 -208.00635,432.17616 C -207.91074,432.30354 -207.76261,432.50031 -207.64665,432.72706 C -207.5307,432.95349 -207.42672,433.14347 -207.24679,433.57824 C -207.06686,434.01301 -207.12181,433.81648 -206.60438,435.17416"
           style="fill:none;stroke:#000000;stroke-width:0.875;stroke-miterlimit:4;stroke-dasharray:none" />
        <path
           id="path4875"
           d="M -206.64082,435.10694 C -205.86696,436.74098 -205.63301,437.14431 -205.42283,437.50116 C -205.21304,437.85807 -205.11183,437.92759 -205.0388,438.00319 C -204.96547,438.07837 -204.80858,438.17538 -204.71374,438.14324 C -204.61897,438.11079 -204.52479,438.04032 -204.47617,437.88867 C -204.42754,437.737 -204.3524,437.50265 -204.3167,437.25035 C -204.281,436.99804 -204.24535,436.78456 -204.21768,436.31514 C -204.19005,435.84543 -204.17761,436.04913 -204.13334,434.59686"
           style="fill:none;stroke:#000000;stroke-width:0.875;stroke-miterlimit:4;stroke-dasharray:none" />
        <path
           id="path4877"
           d="M -204.15238,434.66174 C -204.17038,432.8541 -204.1363,432.38879 -204.10321,431.97597 C -204.07012,431.56315 -204.00985,431.45647 -203.97712,431.3569 C -203.944,431.2572 -203.84528,431.1014 -203.74596,431.08886 C -203.64661,431.07631 -203.53102,431.09885 -203.42101,431.21401 C -203.31098,431.32918 -203.14098,431.50712 -202.9986,431.71845 C -202.8567,431.92958 -202.73095,432.10591 -202.50084,432.51634 C -202.27109,432.92684 -202.34892,432.73818 -201.67441,434.0251"
           style="fill:none;stroke:#000000;stroke-width:0.875;stroke-miterlimit:4;stroke-dasharray:none" />
        <path
           id="path4879"
           d="M -201.6831,433.89678 C -200.75204,435.44665 -200.47948,435.82496 -200.23518,436.15937 C -199.99086,436.49377 -199.88367,436.55309 -199.80355,436.62112 C -199.72315,436.68872 -199.55748,436.7698 -199.46627,436.72848 C -199.37555,436.68698 -199.28876,436.60756 -199.25495,436.45172 C -199.22112,436.2959 -199.16979,436.05541 -199.15914,435.80081 C -199.14883,435.54633 -199.13402,435.33025 -199.15271,434.86041 C -199.17187,434.39037 -199.13943,434.59185 -199.23808,433.14217"
           style="fill:none;stroke:#000000;stroke-width:0.875;stroke-miterlimit:4;stroke-dasharray:none" />
        <path
           id="path4881"
           d="M -199.23235,433.25446 C -199.43662,431.45831 -199.45071,430.99195 -199.46071,430.57807 C -199.47072,430.16416 -199.42141,430.05172 -199.39911,429.94929 C -199.37646,429.84672 -199.29432,429.68157 -199.19682,429.65885 C -199.09968,429.63628 -198.98236,429.64677 -198.86069,429.74983 C -198.73902,429.85289 -198.55159,430.01238 -198.38854,430.20804 C -198.22562,430.4034 -198.08238,430.56584 -197.81116,430.95034 C -197.53994,431.33486 -197.63681,431.15523 -196.83323,432.36574"
           style="fill:none;stroke:#000000;stroke-width:0.875;stroke-miterlimit:4;stroke-dasharray:none" />
        <path
           id="path4883"
           d="M -196.83288,432.26302 C -195.72674,433.69322 -195.41179,434.03701 -195.13035,434.34067 C -194.84857,434.64418 -194.73516,434.69055 -194.64764,434.74872 C -194.55987,434.80644 -194.38585,434.86755 -194.30011,434.81584 C -194.21451,434.76383 -194.13763,434.67481 -194.12263,434.51625 C -194.10763,434.3577 -194.08413,434.11253 -194.10369,433.85859 C -194.12326,433.60466 -194.13384,433.38834 -194.20742,432.9239 C -194.28113,432.4592 -194.2253,432.65548 -194.49337,431.22748"
           style="fill:none;stroke:#000000;stroke-width:0.875;stroke-miterlimit:4;stroke-dasharray:none" />
      </g>
      <rect
         transform="matrix(0.5664629,0.8240872,-0.8240872,0.5664629,0,0)"
         y="356.19104"
         x="207.11655"
         height="22.504332"
         width="22.609463"
         id="rect4889"
         style="fill:#b2b2b2;fill-opacity:1;stroke:#000000;stroke-width:1.04737592;stroke-linecap:round;stroke-miterlimit:4;stroke-dasharray:none;stroke-dashoffset:0;stroke-opacity:1" />
      <text
         sodipodi:linespacing="125%"
         id="text4894"
         y="405.47971"
         x="-173.04247"
         style="font-size:10px;font-style:normal;font-variant:normal;font-weight:normal;font-stretch:normal;text-align:start;line-height:125%;writing-mode:lr-tb;text-anchor:start;fill:#000000;fill-opacity:1;stroke:none;stroke-width:1px;stroke-linecap:butt;stroke-linejoin:miter;stroke-opacity:1;font-family:Bitstream Vera Sans;-inkscape-font-specification:Bitstream Vera Sans"
         xml:space="preserve"><tspan
           y="405.47971"
           x="-173.04247"
           id="tspan4896"
           sodipodi:role="line">intensity</tspan><tspan
           id="tspan4898"
           y="417.97971"
           x="-173.04247"
           sodipodi:role="line">sampler</tspan></text>
    </g>
    <text
       xml:space="preserve"
       style="font-size:10px;font-style:normal;font-variant:normal;font-weight:normal;font-stretch:normal;text-align:start;line-height:125%;writing-mode:lr-tb;text-anchor:start;fill:#000000;fill-opacity:1;stroke:none;stroke-width:1px;stroke-linecap:butt;stroke-linejoin:miter;stroke-opacity:1;font-family:Bitstream Vera Sans;-inkscape-font-specification:Bitstream Vera Sans"
       x="40.60054"
       y="241.66246"
       id="text5013"
       sodipodi:linespacing="125%"><tspan
         sodipodi:role="line"
         id="tspan5015"
         x="40.60054"
         y="241.66246">1</tspan></text>
    <text
       xml:space="preserve"
       style="font-size:10px;font-style:normal;font-variant:normal;font-weight:normal;font-stretch:normal;text-align:start;line-height:125%;writing-mode:lr-tb;text-anchor:start;fill:#000000;fill-opacity:1;stroke:none;stroke-width:1px;stroke-linecap:butt;stroke-linejoin:miter;stroke-opacity:1;font-family:Bitstream Vera Sans;-inkscape-font-specification:Bitstream Vera Sans"
       x="20.85582"
       y="321.82248"
       id="text5017"
       sodipodi:linespacing="125%"><tspan
         sodipodi:role="line"
         id="tspan5019"
         x="20.85582"
         y="321.82248">2</tspan></text>
    <text
       xml:space="preserve"
       style="font-size:10px;font-style:normal;font-variant:normal;font-weight:normal;font-stretch:normal;text-align:start;line-height:125%;writing-mode:lr-tb;text-anchor:start;fill:#000000;fill-opacity:1;stroke:none;stroke-width:1px;stroke-linecap:butt;stroke-linejoin:miter;stroke-opacity:1;font-family:Bitstream Vera Sans;-inkscape-font-specification:Bitstream Vera Sans"
       x="85.19072"
       y="441.88763"
       id="text5021"
       sodipodi:linespacing="125%"><tspan
         sodipodi:role="line"
         id="tspan5023"
         x="85.19072"
         y="441.88763">3</tspan></text>
  </g>
</svg>
