<?xml version="1.0" encoding="UTF-8" standalone="no"?>
<!-- Created with Inkscape (http://www.inkscape.org/) -->
<svg
   xmlns:dc="http://purl.org/dc/elements/1.1/"
   xmlns:cc="http://creativecommons.org/ns#"
   xmlns:rdf="http://www.w3.org/1999/02/22-rdf-syntax-ns#"
   xmlns:svg="http://www.w3.org/2000/svg"
   xmlns="http://www.w3.org/2000/svg"
   xmlns:sodipodi="http://sodipodi.sourceforge.net/DTD/sodipodi-0.dtd"
   xmlns:inkscape="http://www.inkscape.org/namespaces/inkscape"
   width="744.09448819"
   height="1052.3622047"
   id="svg2"
   sodipodi:version="0.32"
   inkscape:version="0.46"
   sodipodi:docname="thomas-as-area.svg"
   inkscape:output_extension="org.inkscape.output.svg.inkscape">
  <defs
     id="defs4">
    <marker
       inkscape:stockid="Arrow2Mend"
       orient="auto"
       refY="0.0"
       refX="0.0"
       id="Arrow2Mend"
       style="overflow:visible;">
      <path
         id="path3245"
         style="font-size:12.0;fill-rule:evenodd;stroke-width:0.62500000;stroke-linejoin:round;"
         d="M 8.7185878,4.0337352 L -2.2072895,0.016013256 L 8.7185884,-4.0017078 C 6.9730900,-1.6296469 6.9831476,1.6157441 8.7185878,4.0337352 z "
         transform="scale(0.6) rotate(180) translate(0,0)" />
    </marker>
    <inkscape:perspective
       sodipodi:type="inkscape:persp3d"
       inkscape:vp_x="0 : 526.18109 : 1"
       inkscape:vp_y="0 : 1000 : 0"
       inkscape:vp_z="744.09448 : 526.18109 : 1"
       inkscape:persp3d-origin="372.04724 : 350.78739 : 1"
       id="perspective10" />
  </defs>
  <sodipodi:namedview
     id="base"
     pagecolor="#ffffff"
     bordercolor="#666666"
     borderopacity="1.0"
     gridtolerance="10000"
     guidetolerance="10"
     objecttolerance="10"
     inkscape:pageopacity="0.0"
     inkscape:pageshadow="2"
     inkscape:zoom="5.2148395"
     inkscape:cx="146.07525"
     inkscape:cy="703.55106"
     inkscape:document-units="px"
     inkscape:current-layer="layer1"
     showgrid="false"
     inkscape:window-width="1278"
     inkscape:window-height="996"
     inkscape:window-x="3"
     inkscape:window-y="9" />
  <metadata
     id="metadata7">
    <rdf:RDF>
      <cc:Work
         rdf:about="">
        <dc:format>image/svg+xml</dc:format>
        <dc:type
           rdf:resource="http://purl.org/dc/dcmitype/StillImage" />
      </cc:Work>
    </rdf:RDF>
  </metadata>
  <g
     inkscape:label="Layer 1"
     inkscape:groupmode="layer"
     id="layer1">
    <g
       id="g3191">
      <rect
         y="277.17172"
         x="85.379387"
         height="141.25984"
         width="184.25197"
         id="rect2383"
         style="fill:#dedede;fill-opacity:1;fill-rule:evenodd;stroke:none;stroke-width:0.53544941pt;stroke-linecap:butt;stroke-linejoin:miter;stroke-opacity:1" />
      <path
         id="path3185"
         d="M 85.65418,287.79141 L 85.65418,418.52921 L 209.79322,418.52921 L 168.1386,323.67212 L 85.65418,287.79141 z"
         style="opacity:1;fill:#b0b0b0;fill-opacity:1;fill-rule:evenodd;stroke:none;stroke-width:0.875;stroke-linecap:butt;stroke-linejoin:miter;marker:none;marker-start:none;marker-mid:none;marker-end:none;stroke-miterlimit:4;stroke-dasharray:none;stroke-dashoffset:0;stroke-opacity:1;visibility:visible;display:inline;overflow:visible;enable-background:accumulate" />
      <path
         sodipodi:open="true"
         sodipodi:end="6.510423"
         sodipodi:start="4.5514466"
         transform="matrix(1.8463101,0,0,1.8463101,-86.396196,-365.69448)"
         d="M 93.504202,352.44338 A 59.597881,59.597881 0 0 1 161.12044,424.69769"
         sodipodi:ry="59.597881"
         sodipodi:rx="59.597881"
         sodipodi:cy="411.27106"
         sodipodi:cx="103.05467"
         id="path2380"
         style="opacity:1;fill:#b0b0b0;fill-opacity:1;fill-rule:evenodd;stroke:#000000;stroke-width:0.875;stroke-linecap:butt;stroke-linejoin:miter;marker:none;marker-start:none;marker-mid:none;marker-end:none;stroke-miterlimit:4;stroke-dasharray:none;stroke-dashoffset:0;stroke-opacity:1;visibility:visible;display:inline;overflow:visible;enable-background:accumulate"
         sodipodi:type="arc" />
      <path
         transform="matrix(3.8193965e-2,0,0,3.8193965e-2,99.938618,380.39656)"
         d="M 162.65255,411.27106 A 59.597881,59.597881 0 1 1 43.456791,411.27106 A 59.597881,59.597881 0 1 1 162.65255,411.27106 z"
         sodipodi:ry="59.597881"
         sodipodi:rx="59.597881"
         sodipodi:cy="411.27106"
         sodipodi:cx="103.05467"
         id="path2400"
         style="opacity:1;fill:#000000;fill-opacity:1;fill-rule:evenodd;stroke:none;stroke-width:1pt;stroke-linecap:butt;stroke-linejoin:miter;marker:none;marker-start:none;marker-mid:none;marker-end:none;stroke-miterlimit:4;stroke-dasharray:none;stroke-dashoffset:0;stroke-opacity:1;visibility:visible;display:inline;overflow:visible;enable-background:accumulate"
         sodipodi:type="arc" />
      <path
         id="path3187"
         d="M 210.71545,415.81866 L 210.29667,418.19174 L 210.08728,418.61052 L 204.36397,418.54072 L 203.8754,413.30599 L 210.71545,415.81866 z"
         style="opacity:1;fill:#b0b0b0;fill-opacity:1;fill-rule:evenodd;stroke:none;stroke-width:0.87500000000000000;stroke-linecap:butt;stroke-linejoin:miter;marker:none;marker-start:none;marker-mid:none;marker-end:none;stroke-miterlimit:4;stroke-dasharray:none;stroke-dashoffset:0;stroke-opacity:1;visibility:visible;display:inline;overflow:visible;enable-background:accumulate" />
      <path
         id="path3189"
         d="M 87.7235,285.74438 L 85.637392,285.85136 L 85.744372,288.57934 L 91.521286,292.75156 L 95.051622,289.38169 L 87.7235,285.74438 z"
         style="opacity:1;fill:#b0b0b0;fill-opacity:1;fill-rule:evenodd;stroke:none;stroke-width:0.87500000000000000;stroke-linecap:butt;stroke-linejoin:miter;marker:none;marker-start:none;marker-mid:none;marker-end:none;stroke-miterlimit:4;stroke-dasharray:none;stroke-dashoffset:0;stroke-opacity:1;visibility:visible;display:inline;overflow:visible;enable-background:accumulate" />
    </g>
    <path
       style="opacity:1;fill:none;fill-opacity:0.75;fill-rule:evenodd;stroke:#000000;stroke-width:0.875;stroke-linecap:butt;stroke-linejoin:miter;marker:none;marker-start:none;marker-mid:none;marker-end:none;stroke-miterlimit:4;stroke-dasharray:none;stroke-dashoffset:0;stroke-opacity:1;visibility:visible;display:inline;overflow:visible;enable-background:accumulate"
       d="M 151.73117,374.35032 C 151.49409,374.83887 149.49899,375.86357 148.37612,376.98642 C 147.64856,377.714 144.57276,377.93882 143.34355,378.18467 C 141.39737,378.5739 139.20049,378.42431 137.11275,378.42431 C 134.1507,378.42431 131.0671,378.65032 128.24583,377.94501 C 125.71893,377.31329 122.18231,376.33303 120.81681,375.3089 C 119.79183,374.54017 122.69206,374.30841 121.77539,373.39174 C 120.27879,371.89513 118.76341,370.37976 117.22211,368.83846 C 115.50422,367.12057 113.93155,365.13309 112.90849,363.08695 C 111.98864,361.24728 110.79865,359.20092 110.27237,357.0958 C 109.78901,355.16231 109.53281,353.43283 110.27237,351.58392 C 111.17563,349.32577 113.14963,347.26879 114.82565,345.59277 C 116.76251,343.6559 119.53064,343.09847 122.01503,342.47737 C 124.8523,341.76806 128.36185,342.26672 131.1216,342.95666 C 133.29112,343.49904 136.0076,344.48763 137.59204,346.07206 C 138.87451,347.35453 139.70452,348.56918 140.70745,349.9064 C 141.59236,351.0863 141.97755,353.40519 142.62461,354.69933 C 143.36097,356.17203 144.1505,357.68746 144.54179,359.25261 C 144.88431,360.62272 145.63463,361.91759 146.21931,363.08695 C 146.7774,364.20311 148.10934,366.31088 148.61577,364.28518 C 148.88157,363.22198 148.60778,361.6171 148.37612,360.69048 C 148.04965,359.38456 147.52329,358.19537 146.6986,357.0958 C 145.7519,355.83353 145.29203,354.49882 144.30215,353.26145 C 143.24811,351.9439 142.40209,350.72805 141.42638,349.42711 C 140.4364,348.10713 139.67781,346.71995 138.55062,345.59277 C 137.50766,344.5498 137.19571,343.52812 136.8731,342.23773 C 136.53758,340.89563 137.85828,339.81466 138.79027,338.88267 C 140.06273,337.61021 142.15564,337.08017 143.82284,336.24657 C 145.96204,335.17696 149.31726,335.28798 151.73117,335.28798 C 154.69114,335.28798 157.41776,336.48622 160.35844,336.48622 C 163.1783,336.48622 166.21432,338.82856 168.74605,339.84126 C 171.89105,341.09926 173.48834,343.92761 175.45615,346.55135 C 176.71497,348.22978 177.14464,351.30043 176.65439,353.26145 C 176.18449,355.14101 173.62963,357.13725 172.10111,358.05438 C 170.02558,359.2997 167.6776,360.45084 165.15137,360.45084 C 163.10052,360.45084 160.68249,361.48704 159.39985,362.12835 C 157.7783,362.93913 156.62916,365.27328 155.80516,366.92128 C 155.07838,368.37485 154.87292,369.97083 154.36728,371.23492 C 153.93072,372.32632 153.8013,373.3535 152.68976,373.63138 C 152.30227,373.72825 152.0507,374.11068 151.73117,374.35032 z"
       id="path2401" />
    <text
       xml:space="preserve"
       style="font-size:13.38070679px;font-style:normal;font-variant:normal;font-weight:normal;font-stretch:normal;text-align:start;line-height:100%;writing-mode:lr-tb;text-anchor:start;fill:#000000;fill-opacity:1;stroke:none;stroke-width:1pt;stroke-linecap:butt;stroke-linejoin:miter;stroke-opacity:1;font-family:Math1;-inkscape-font-specification:Math1"
       x="126.80593"
       y="359.75754"
       id="text2403"
       sodipodi:linespacing="100%"><tspan
         sodipodi:role="line"
         id="tspan2405"
         x="126.80593"
         y="359.75754">c</tspan></text>
    <text
       xml:space="preserve"
       style="font-size:9px;font-style:normal;font-variant:normal;font-weight:normal;font-stretch:normal;text-align:start;line-height:100%;writing-mode:lr;text-anchor:start;fill:#000000;fill-opacity:1;stroke:none;stroke-width:1pt;stroke-linecap:butt;stroke-linejoin:miter;stroke-opacity:1;font-family:Bitstream Vera Sans;-inkscape-font-specification:Bitstream Vera Sans"
       x="132.31471"
       y="367.77734"
       id="text2407"
       sodipodi:linespacing="100%"><tspan
         sodipodi:role="line"
         id="tspan2409"
         x="132.31471"
         y="367.77734">1</tspan></text>
    <text
       xml:space="preserve"
       style="font-size:13.38070679px;font-style:normal;font-variant:normal;font-weight:normal;font-stretch:normal;text-align:start;line-height:100%;writing-mode:lr-tb;text-anchor:start;fill:#000000;fill-opacity:1;stroke:none;stroke-width:1pt;stroke-linecap:butt;stroke-linejoin:miter;stroke-opacity:1;font-family:Math1;-inkscape-font-specification:Math1"
       x="149.00984"
       y="349.8042"
       id="text2411"
       sodipodi:linespacing="100%"><tspan
         sodipodi:role="line"
         id="tspan2413"
         x="149.00984"
         y="349.8042">c</tspan></text>
    <text
       xml:space="preserve"
       style="font-size:9px;font-style:normal;font-variant:normal;font-weight:normal;font-stretch:normal;text-align:start;line-height:100%;writing-mode:lr-tb;text-anchor:start;fill:#000000;fill-opacity:1;stroke:none;stroke-width:1pt;stroke-linecap:butt;stroke-linejoin:miter;stroke-opacity:1;font-family:Bitstream Vera Sans;-inkscape-font-specification:Bitstream Vera Sans"
       x="154.51863"
       y="357.82401"
       id="text2415"
       sodipodi:linespacing="100%"><tspan
         sodipodi:role="line"
         id="tspan2417"
         x="154.51863"
         y="357.82401">2</tspan></text>
  </g>
</svg>
