<?xml version="1.0" encoding="UTF-8" standalone="no"?>
<!-- Created with Inkscape (http://www.inkscape.org/) -->
<svg
   xmlns:dc="http://purl.org/dc/elements/1.1/"
   xmlns:cc="http://creativecommons.org/ns#"
   xmlns:rdf="http://www.w3.org/1999/02/22-rdf-syntax-ns#"
   xmlns:svg="http://www.w3.org/2000/svg"
   xmlns="http://www.w3.org/2000/svg"
   xmlns:xlink="http://www.w3.org/1999/xlink"
   xmlns:sodipodi="http://sodipodi.sourceforge.net/DTD/sodipodi-0.dtd"
   xmlns:inkscape="http://www.inkscape.org/namespaces/inkscape"
   width="744.09448819"
   height="1052.3622047"
   id="svg2"
   sodipodi:version="0.32"
   inkscape:version="0.46"
   sodipodi:docname="cone.svg"
   inkscape:output_extension="org.inkscape.output.svg.inkscape">
  <defs
     id="defs4">
    <marker
       inkscape:stockid="Arrow2Mend"
       orient="auto"
       refY="0.0"
       refX="0.0"
       id="Arrow2Mend"
       style="overflow:visible;">
      <path
         id="path3711"
         style="font-size:12.0;fill-rule:evenodd;stroke-width:0.62500000;stroke-linejoin:round;"
         d="M 8.7185878,4.0337352 L -2.2072895,0.016013256 L 8.7185884,-4.0017078 C 6.9730900,-1.6296469 6.9831476,1.6157441 8.7185878,4.0337352 z "
         transform="scale(0.6) rotate(180) translate(0,0)" />
    </marker>
    <linearGradient
       id="linearGradient3161">
      <stop
         style="stop-color:#0b0b0b;stop-opacity:1;"
         offset="0"
         id="stop3163" />
      <stop
         style="stop-color:#e6e6e6;stop-opacity:1;"
         offset="1"
         id="stop3165" />
    </linearGradient>
    <inkscape:perspective
       sodipodi:type="inkscape:persp3d"
       inkscape:vp_x="0 : 526.18109 : 1"
       inkscape:vp_y="0 : 1000 : 0"
       inkscape:vp_z="744.09448 : 526.18109 : 1"
       inkscape:persp3d-origin="372.04724 : 350.78739 : 1"
       id="perspective10" />
    <radialGradient
       inkscape:collect="always"
       xlink:href="#linearGradient3161"
       id="radialGradient3167"
       cx="-131.27419"
       cy="520.85065"
       fx="-131.27419"
       fy="520.85065"
       r="39.84375"
       gradientTransform="matrix(2.2385619,0.370495,-8.5498596e-2,0.5165897,409.58027,204.93298)"
       gradientUnits="userSpaceOnUse" />
  </defs>
  <sodipodi:namedview
     id="base"
     pagecolor="#ffffff"
     bordercolor="#666666"
     borderopacity="1.0"
     gridtolerance="10000"
     guidetolerance="10"
     objecttolerance="10"
     inkscape:pageopacity="0.0"
     inkscape:pageshadow="2"
     inkscape:zoom="1.2872997"
     inkscape:cx="57.450541"
     inkscape:cy="636.62673"
     inkscape:document-units="px"
     inkscape:current-layer="layer1"
     showgrid="false"
     inkscape:window-width="1278"
     inkscape:window-height="996"
     inkscape:window-x="2"
     inkscape:window-y="2" />
  <metadata
     id="metadata7">
    <rdf:RDF>
      <cc:Work
         rdf:about="">
        <dc:format>image/svg+xml</dc:format>
        <dc:type
           rdf:resource="http://purl.org/dc/dcmitype/StillImage" />
      </cc:Work>
    </rdf:RDF>
  </metadata>
  <g
     inkscape:label="Layer 1"
     inkscape:groupmode="layer"
     id="layer1">
    <rect
       style="fill:#dedede;fill-opacity:1;fill-rule:evenodd;stroke:none;stroke-width:0.53544941pt;stroke-linecap:butt;stroke-linejoin:miter;stroke-opacity:1"
       id="rect2383"
       width="184.25197"
       height="113.4114"
       x="4.9446044"
       y="337.86758" />
    <g
       id="g3182">
      <g
         id="g3177">
        <path
           style="fill:url(#radialGradient3167);fill-opacity:1;fill-rule:evenodd;stroke:none;stroke-width:1px;stroke-linecap:butt;stroke-linejoin:miter;stroke-opacity:1"
           d="M 91.797606,346.54698 L 49.922606,427.76573 C 49.963856,427.74445 50.171586,427.70028 50.266356,427.67198 L 49.485106,428.29698 C 54.093326,431.31005 72.874536,434.88 80.141356,435.23448 C 87.408176,435.58894 90.797606,434.85948 90.797606,434.85948 L 90.828856,434.82823 C 95.168886,436.4048 99.849826,437.30306 104.6101,436.39073 C 117.63757,433.89396 129.17261,424.42198 129.1726,424.42198 L 91.797606,346.54698 z"
           id="path3156" />
        <path
           style="fill:#ffffff;fill-opacity:1;fill-rule:evenodd;stroke:#000000;stroke-width:1px;stroke-linecap:butt;stroke-linejoin:miter;stroke-opacity:1"
           d="M 49.88634,427.94137 L 91.76733,346.72525 L 129.13132,424.60698 C 129.13132,424.60698 117.59128,434.08085 104.56381,436.57762 C 91.536328,439.07439 79.074831,428.00506 72.695155,426.60817 C 65.73488,425.08414 50.813082,427.46325 49.88634,427.94137 z"
           id="path2382"
           sodipodi:nodetypes="cccssc" />
        <path
           style="fill:none;fill-rule:evenodd;stroke:#000000;stroke-width:1px;stroke-linecap:butt;stroke-linejoin:miter;stroke-opacity:1"
           d="M 49.449819,428.47917 C 54.058046,431.49224 72.845432,435.03703 80.112251,435.39151 C 87.37907,435.74598 90.746621,435.03703 90.746621,435.03703"
           id="path2384" />
      </g>
    </g>
    <path
       style="fill:none;fill-rule:evenodd;stroke:#000000;stroke-width:1px;stroke-linecap:butt;stroke-linejoin:miter;stroke-opacity:1"
       d="M 59.023346,413.63877 C 79.182089,381.67536 88.739793,374.37585 90.531357,372.85074 C 92.299373,371.34569 94.7554,369.29125 96.664832,367.41757 C 99.424025,364.71003 99.351839,362.33249 99.351839,362.33249"
       id="path3188"
       sodipodi:nodetypes="czsc" />
    <path
       style="fill:none;fill-rule:evenodd;stroke:#000000;stroke-width:1px;stroke-linecap:butt;stroke-linejoin:miter;stroke-opacity:1"
       d="M 82.087854,366.23849 C 82.632685,377.67993 82.490005,382.6302 84.267177,400.74443 C 85.49818,413.16592 87.536163,429.62047 87.536163,429.62047"
       id="path3190"
       sodipodi:nodetypes="csc" />
    <path
       style="fill:none;fill-rule:evenodd;stroke:#000000;stroke-width:1;stroke-linecap:butt;stroke-linejoin:miter;stroke-opacity:1;stroke-miterlimit:4;stroke-dasharray:2,1;stroke-dashoffset:0"
       d="M 99.197971,362.08073 C 97.405933,359.71062 96.110152,359.36016 93.243781,359.01693 C 90.987531,358.74675 85.221429,360.77865 83.647706,362.71661 C 83.273976,363.17684 82.202515,365.20235 82.202515,365.20235"
       id="path3192"
       sodipodi:nodetypes="cssc" />
    <g
       id="g3357"
       transform="matrix(0.1471958,0.9891074,-0.9891074,0.1471958,421.68032,256.83687)">
      <path
         id="path4509"
         d="M 118.34033,355.109 L 116.07509,338.61909"
         style="fill:none;fill-rule:evenodd;stroke:#505050;stroke-width:1px;stroke-linecap:butt;stroke-linejoin:miter;marker-mid:none;marker-end:url(#Arrow2Mend);stroke-opacity:1" />
      <path
         transform="matrix(1.0990094,-0.3998608,0.3998608,1.0990094,-264.32478,-8.1743042)"
         d="M 202.77756,404.34473 A 1.6430886,1.6430886 0 1 1 199.49139,404.34473 A 1.6430886,1.6430886 0 1 1 202.77756,404.34473 z"
         sodipodi:ry="1.6430886"
         sodipodi:rx="1.6430886"
         sodipodi:cy="404.34473"
         sodipodi:cx="201.13448"
         id="path4511"
         style="fill:#505050;fill-opacity:1;stroke:none;stroke-width:0.875;stroke-linecap:round;stroke-miterlimit:4;stroke-dasharray:none;stroke-dashoffset:0;stroke-opacity:1"
         sodipodi:type="arc" />
      <path
         id="path4537"
         d="M 114.3857,344.09652 L 115.88022,337.34133 L 119.14492,343.43825 L 116.71894,343.02429 L 114.3857,344.09652 z"
         style="fill:#505050;fill-opacity:1;fill-rule:evenodd;stroke:none;stroke-width:1px;stroke-linecap:butt;stroke-linejoin:miter;stroke-opacity:1" />
    </g>
    <g
       id="g2398"
       transform="matrix(0.1471958,0.9891074,-0.9891074,0.1471958,419.68666,236.93098)">
      <path
         id="path2400"
         d="M 118.34033,355.109 L 116.07509,338.61909"
         style="fill:none;fill-rule:evenodd;stroke:#505050;stroke-width:1px;stroke-linecap:butt;stroke-linejoin:miter;marker-mid:none;marker-end:url(#Arrow2Mend);stroke-opacity:1" />
      <path
         transform="matrix(1.0990094,-0.3998608,0.3998608,1.0990094,-264.32478,-8.1743042)"
         d="M 202.77756,404.34473 A 1.6430886,1.6430886 0 1 1 199.49139,404.34473 A 1.6430886,1.6430886 0 1 1 202.77756,404.34473 z"
         sodipodi:ry="1.6430886"
         sodipodi:rx="1.6430886"
         sodipodi:cy="404.34473"
         sodipodi:cx="201.13448"
         id="path2402"
         style="fill:#505050;fill-opacity:1;stroke:none;stroke-width:0.875;stroke-linecap:round;stroke-miterlimit:4;stroke-dasharray:none;stroke-dashoffset:0;stroke-opacity:1"
         sodipodi:type="arc" />
      <path
         id="path2404"
         d="M 114.3857,344.09652 L 115.88022,337.34133 L 119.14492,343.43825 L 116.71894,343.02429 L 114.3857,344.09652 z"
         style="fill:#505050;fill-opacity:1;fill-rule:evenodd;stroke:none;stroke-width:1px;stroke-linecap:butt;stroke-linejoin:miter;stroke-opacity:1" />
    </g>
    <g
       id="g2406"
       transform="matrix(0.1471958,0.9891074,-0.9891074,0.1471958,417.65156,220.65204)">
      <path
         id="path2408"
         d="M 118.34033,355.109 L 116.07509,338.61909"
         style="fill:none;fill-rule:evenodd;stroke:#505050;stroke-width:1px;stroke-linecap:butt;stroke-linejoin:miter;marker-mid:none;marker-end:url(#Arrow2Mend);stroke-opacity:1" />
      <path
         transform="matrix(1.0990094,-0.3998608,0.3998608,1.0990094,-264.32478,-8.1743042)"
         d="M 202.77756,404.34473 A 1.6430886,1.6430886 0 1 1 199.49139,404.34473 A 1.6430886,1.6430886 0 1 1 202.77756,404.34473 z"
         sodipodi:ry="1.6430886"
         sodipodi:rx="1.6430886"
         sodipodi:cy="404.34473"
         sodipodi:cx="201.13448"
         id="path2410"
         style="fill:#505050;fill-opacity:1;stroke:none;stroke-width:0.875;stroke-linecap:round;stroke-miterlimit:4;stroke-dasharray:none;stroke-dashoffset:0;stroke-opacity:1"
         sodipodi:type="arc" />
      <path
         id="path2412"
         d="M 114.3857,344.09652 L 115.88022,337.34133 L 119.14492,343.43825 L 116.71894,343.02429 L 114.3857,344.09652 z"
         style="fill:#505050;fill-opacity:1;fill-rule:evenodd;stroke:none;stroke-width:1px;stroke-linecap:butt;stroke-linejoin:miter;stroke-opacity:1" />
    </g>
    <g
       id="g2446"
       transform="matrix(0.6350171,-0.7724981,0.7724981,0.6350171,-251.41445,230.40315)">
      <path
         id="path2448"
         d="M 118.34033,355.109 L 116.07509,338.61909"
         style="fill:none;fill-rule:evenodd;stroke:#505050;stroke-width:1px;stroke-linecap:butt;stroke-linejoin:miter;marker-mid:none;marker-end:url(#Arrow2Mend);stroke-opacity:1" />
      <path
         transform="matrix(1.0990094,-0.3998608,0.3998608,1.0990094,-264.32478,-8.1743042)"
         d="M 202.77756,404.34473 A 1.6430886,1.6430886 0 1 1 199.49139,404.34473 A 1.6430886,1.6430886 0 1 1 202.77756,404.34473 z"
         sodipodi:ry="1.6430886"
         sodipodi:rx="1.6430886"
         sodipodi:cy="404.34473"
         sodipodi:cx="201.13448"
         id="path2450"
         style="fill:#505050;fill-opacity:1;stroke:none;stroke-width:0.875;stroke-linecap:round;stroke-miterlimit:4;stroke-dasharray:none;stroke-dashoffset:0;stroke-opacity:1"
         sodipodi:type="arc" />
      <path
         id="path2452"
         d="M 114.3857,344.09652 L 115.88022,337.34133 L 119.14492,343.43825 L 116.71894,343.02429 L 114.3857,344.09652 z"
         style="fill:#505050;fill-opacity:1;fill-rule:evenodd;stroke:none;stroke-width:1px;stroke-linecap:butt;stroke-linejoin:miter;stroke-opacity:1" />
    </g>
    <g
       id="g3922"
       transform="matrix(-0.897352,-0.4413154,0.4413154,-0.897352,-121.83178,802.4567)">
      <g
         transform="translate(-0.8144878,0)"
         id="g3924">
        <path
           style="fill:none;fill-rule:evenodd;stroke:#505050;stroke-width:1;stroke-linecap:butt;stroke-linejoin:miter;marker-mid:none;marker-end:none;stroke-miterlimit:4;stroke-dasharray:none;stroke-opacity:1"
           d="M 9.1139318,435.55947 L 17.075055,435.52116"
           id="path3926" />
        <path
           style="fill:#505050;fill-opacity:1;fill-rule:evenodd;stroke:none;stroke-width:1px;stroke-linecap:butt;stroke-linejoin:miter;stroke-opacity:1"
           d="M 14.586902,433.11402 L 17.693178,435.49903 L 14.594317,437.91853 L 14.945801,435.56976 L 14.586902,433.11402 z"
           id="path3928" />
      </g>
      <path
         transform="matrix(0.2492033,1.1426321,-1.1426321,0.2492033,420.54809,104.9498)"
         d="M 202.77756,404.34473 A 1.6430886,1.6430886 0 1 1 199.49139,404.34473 A 1.6430886,1.6430886 0 1 1 202.77756,404.34473 z"
         sodipodi:ry="1.6430886"
         sodipodi:rx="1.6430886"
         sodipodi:cy="404.34473"
         sodipodi:cx="201.13448"
         id="path3930"
         style="fill:#505050;fill-opacity:1;stroke:none;stroke-width:0.875;stroke-linecap:round;stroke-miterlimit:4;stroke-dasharray:none;stroke-dashoffset:0;stroke-opacity:1"
         sodipodi:type="arc" />
    </g>
    <g
       id="g3932"
       transform="matrix(-0.9643218,-0.2647328,0.2647328,-0.9643218,-24.818404,781.45918)">
      <g
         transform="translate(-1.813057,-0.9022217)"
         id="g3934">
        <path
           style="fill:none;fill-rule:evenodd;stroke:#505050;stroke-width:1;stroke-linecap:butt;stroke-linejoin:miter;marker-mid:none;marker-end:none;stroke-miterlimit:4;stroke-dasharray:none;stroke-opacity:1"
           d="M 10.112501,400.26195 L 21.03311,400.22364"
           id="path3936" />
        <path
           style="fill:#505050;fill-opacity:1;fill-rule:evenodd;stroke:none;stroke-width:1px;stroke-linecap:butt;stroke-linejoin:miter;stroke-opacity:1"
           d="M 17.620005,397.8165 L 21.881015,400.20151 L 17.630177,402.62101 L 18.112322,400.27224 L 17.620005,397.8165 z"
           id="path3938" />
      </g>
      <path
         transform="matrix(0.2492033,1.1426321,-1.1426321,0.2492033,420.54809,68.732237)"
         d="M 202.77756,404.34473 A 1.6430886,1.6430886 0 1 1 199.49139,404.34473 A 1.6430886,1.6430886 0 1 1 202.77756,404.34473 z"
         sodipodi:ry="1.6430886"
         sodipodi:rx="1.6430886"
         sodipodi:cy="404.34473"
         sodipodi:cx="201.13448"
         id="path3940"
         style="fill:#505050;fill-opacity:1;stroke:none;stroke-width:0.875;stroke-linecap:round;stroke-miterlimit:4;stroke-dasharray:none;stroke-dashoffset:0;stroke-opacity:1"
         sodipodi:type="arc" />
    </g>
    <g
       id="g3942"
       transform="matrix(-0.9739919,-0.2265829,0.2265829,-0.9739919,9.2041026,744.52648)">
      <g
         transform="translate(-4.63554,1.8716431)"
         id="g3944">
        <path
           style="fill:none;fill-rule:evenodd;stroke:#505050;stroke-width:1;stroke-linecap:butt;stroke-linejoin:miter;marker-mid:none;marker-end:none;stroke-miterlimit:4;stroke-dasharray:none;stroke-opacity:1"
           d="M 12.934984,373.35483 L 26.417216,373.31652"
           id="path3946" />
        <path
           style="fill:#505050;fill-opacity:1;fill-rule:evenodd;stroke:none;stroke-width:1px;stroke-linecap:butt;stroke-linejoin:miter;stroke-opacity:1"
           d="M 22.203507,370.90937 L 27.464013,373.29439 L 22.216065,375.71388 L 22.811305,373.36511 L 22.203507,370.90937 z"
           id="path3948" />
      </g>
      <path
         transform="matrix(0.2492033,1.1426321,-1.1426321,0.2492033,420.54809,44.587058)"
         d="M 202.77756,404.34473 A 1.6430886,1.6430886 0 1 1 199.49139,404.34473 A 1.6430886,1.6430886 0 1 1 202.77756,404.34473 z"
         sodipodi:ry="1.6430886"
         sodipodi:rx="1.6430886"
         sodipodi:cy="404.34473"
         sodipodi:cx="201.13448"
         id="path3950"
         style="fill:#505050;fill-opacity:1;stroke:none;stroke-width:0.875;stroke-linecap:round;stroke-miterlimit:4;stroke-dasharray:none;stroke-dashoffset:0;stroke-opacity:1"
         sodipodi:type="arc" />
    </g>
    <g
       id="g3952"
       transform="matrix(0.8532589,-0.5214876,0.5214876,0.8532589,-127.12802,44.888415)">
      <g
         transform="translate(-0.8052322,2.6546021)"
         id="g3954">
        <path
           style="fill:none;fill-rule:evenodd;stroke:#505050;stroke-width:1;stroke-linecap:butt;stroke-linejoin:miter;marker-mid:none;marker-end:none;stroke-miterlimit:4;stroke-dasharray:none;stroke-opacity:1"
           d="M 9.1046762,384.63846 L 21.238685,384.60015"
           id="path3956" />
        <path
           style="fill:#505050;fill-opacity:1;fill-rule:evenodd;stroke:none;stroke-width:1px;stroke-linecap:butt;stroke-linejoin:miter;stroke-opacity:1"
           d="M 17.446347,382.19301 L 22.180802,384.57802 L 17.457649,386.99752 L 17.993365,384.64875 L 17.446347,382.19301 z"
           id="path3958" />
      </g>
      <path
         transform="matrix(0.2492033,1.1426321,-1.1426321,0.2492033,420.54809,56.659631)"
         d="M 202.77756,404.34473 A 1.6430886,1.6430886 0 1 1 199.49139,404.34473 A 1.6430886,1.6430886 0 1 1 202.77756,404.34473 z"
         sodipodi:ry="1.6430886"
         sodipodi:rx="1.6430886"
         sodipodi:cy="404.34473"
         sodipodi:cx="201.13448"
         id="path3960"
         style="fill:#505050;fill-opacity:1;stroke:none;stroke-width:0.875;stroke-linecap:round;stroke-miterlimit:4;stroke-dasharray:none;stroke-dashoffset:0;stroke-opacity:1"
         sodipodi:type="arc" />
    </g>
  </g>
</svg>
