<?xml version="1.0" encoding="UTF-8" standalone="no"?>
<!-- Created with Inkscape (http://www.inkscape.org/) -->
<svg
   xmlns:dc="http://purl.org/dc/elements/1.1/"
   xmlns:cc="http://creativecommons.org/ns#"
   xmlns:rdf="http://www.w3.org/1999/02/22-rdf-syntax-ns#"
   xmlns:svg="http://www.w3.org/2000/svg"
   xmlns="http://www.w3.org/2000/svg"
   xmlns:sodipodi="http://sodipodi.sourceforge.net/DTD/sodipodi-0.dtd"
   xmlns:inkscape="http://www.inkscape.org/namespaces/inkscape"
   width="744.09448819"
   height="1052.3622047"
   id="svg2"
   sodipodi:version="0.32"
   inkscape:version="0.46"
   sodipodi:docname="elliptic-geom-triangle-area-proof.svg"
   inkscape:output_extension="org.inkscape.output.svg.inkscape">
  <defs
     id="defs4">
    <inkscape:perspective
       sodipodi:type="inkscape:persp3d"
       inkscape:vp_x="0 : 526.18109 : 1"
       inkscape:vp_y="0 : 1000 : 0"
       inkscape:vp_z="744.09448 : 526.18109 : 1"
       inkscape:persp3d-origin="372.04724 : 350.78739 : 1"
       id="perspective10" />
  </defs>
  <sodipodi:namedview
     id="base"
     pagecolor="#ffffff"
     bordercolor="#666666"
     borderopacity="1.0"
     gridtolerance="10000"
     guidetolerance="10"
     objecttolerance="10"
     inkscape:pageopacity="0.0"
     inkscape:pageshadow="2"
     inkscape:zoom="1.9435891"
     inkscape:cx="10.410152"
     inkscape:cy="632.54064"
     inkscape:document-units="px"
     inkscape:current-layer="layer1"
     showgrid="false"
     inkscape:window-width="1278"
     inkscape:window-height="996"
     inkscape:window-x="3"
     inkscape:window-y="7" />
  <metadata
     id="metadata7">
    <rdf:RDF>
      <cc:Work
         rdf:about="">
        <dc:format>image/svg+xml</dc:format>
        <dc:type
           rdf:resource="http://purl.org/dc/dcmitype/StillImage" />
      </cc:Work>
    </rdf:RDF>
  </metadata>
  <g
     inkscape:label="Layer 1"
     inkscape:groupmode="layer"
     id="layer1">
    <rect
       style="fill:#dedede;fill-opacity:1;fill-rule:evenodd;stroke:none;stroke-width:0.53544941pt;stroke-linecap:butt;stroke-linejoin:miter;stroke-opacity:1"
       id="rect3267"
       width="184.25197"
       height="64.728416"
       x="4.9446044"
       y="419.11765" />
    <rect
       style="fill:#dedede;fill-opacity:1;fill-rule:evenodd;stroke:none;stroke-width:0.53544941pt;stroke-linecap:butt;stroke-linejoin:miter;stroke-opacity:1"
       id="rect2383"
       width="184.25197"
       height="64.728416"
       x="4.9446044"
       y="351.74777" />
    <g
       id="g3249"
       transform="translate(-1.321924,-0.486401)">
      <path
         transform="translate(112.76442,87.660149)"
         sodipodi:open="true"
         sodipodi:end="6.2782916"
         sodipodi:start="0.00055767423"
         d="M -45.837302,364.32365 A 27.865118,27.865118 0 1 1 -45.837631,364.17174"
         sodipodi:ry="27.865118"
         sodipodi:rx="27.865118"
         sodipodi:cy="364.30811"
         sodipodi:cx="-73.702415"
         id="path3243"
         style="fill:#ffffff;fill-opacity:1;stroke:#000000;stroke-width:0.875;stroke-miterlimit:4;stroke-dasharray:3.5, 3.5;stroke-dashoffset:0;stroke-opacity:1"
         sodipodi:type="arc" />
      <path
         id="path3189"
         d="M 44.233884,424.26402 C 45.006704,429.45897 45.850844,436.39836 45.890134,444.42027 C 49.539234,443.80467 52.760574,443.34484 55.390134,443.07652 C 59.459774,442.66125 63.116354,442.39157 66.077634,442.20152 C 62.638924,432.84376 54.338674,425.83178 44.233884,424.26402 z M 45.890134,444.42027 C 37.263764,445.87553 25.872964,448.38092 12.046384,452.23277 C 12.272154,467.41279 24.654824,479.66177 39.890134,479.67027 C 40.109464,479.67039 40.328254,479.6752 40.546384,479.67027 C 42.463874,473.84897 44.718904,464.75924 45.577634,453.29527 C 45.806924,450.23429 45.904064,447.26376 45.890134,444.42027 z"
         style="fill:#848484;fill-opacity:1;stroke:none;stroke-width:0.875;stroke-miterlimit:4;stroke-dasharray:none;stroke-dashoffset:0;stroke-opacity:1" />
    </g>
    <g
       id="g3259"
       transform="translate(-270.97637,103.10231)">
      <path
         transform="translate(441.53107,-15.928559)"
         sodipodi:open="true"
         sodipodi:end="6.2782916"
         sodipodi:start="0.00055767423"
         d="M -45.837302,364.32365 A 27.865118,27.865118 0 1 1 -45.837631,364.17174"
         sodipodi:ry="27.865118"
         sodipodi:rx="27.865118"
         sodipodi:cy="364.30811"
         sodipodi:cx="-73.702415"
         id="path3245"
         style="fill:#ffffff;fill-opacity:1;stroke:#000000;stroke-width:0.875;stroke-miterlimit:4;stroke-dasharray:3.5, 3.5;stroke-dashoffset:0;stroke-opacity:1"
         sodipodi:type="arc" />
      <path
         id="path3197"
         d="M 367.59428,320.50455 C 358.37982,320.49941 350.20307,324.98313 345.12553,331.87955 C 351.74231,339.34309 362.00945,348.10007 372.75053,354.9108 C 372.93984,353.28222 373.12007,351.62118 373.25053,349.87955 C 374.12138,338.25379 372.95237,327.9962 371.71928,320.8483 C 370.37006,320.64672 368.99923,320.50533 367.59428,320.50455 z M 372.75053,354.9108 C 371.67831,364.13454 369.8024,371.39344 368.25053,376.25455 C 377.47559,376.036 385.62009,371.32095 390.53178,364.2233 C 388.54244,363.33166 386.33052,362.29945 383.62553,361.00455 C 380.0221,359.27956 376.36012,357.19958 372.75053,354.9108 z"
         style="fill:#848484;fill-opacity:1;stroke:none;stroke-width:0.875;stroke-miterlimit:4;stroke-dasharray:none;stroke-dashoffset:0;stroke-opacity:1" />
    </g>
    <g
       id="g3263"
       transform="translate(-201.74822,19.123995)">
      <path
         transform="translate(431.41512,68.049753)"
         sodipodi:open="true"
         sodipodi:end="6.2782916"
         sodipodi:start="0.00055767423"
         d="M -45.837302,364.32365 A 27.865118,27.865118 0 1 1 -45.837631,364.17174"
         sodipodi:ry="27.865118"
         sodipodi:rx="27.865118"
         sodipodi:cy="364.30811"
         sodipodi:cx="-73.702415"
         id="path3247"
         style="fill:#ffffff;fill-opacity:1;stroke:#000000;stroke-width:0.875;stroke-miterlimit:4;stroke-dasharray:3.5, 3.5;stroke-dashoffset:0;stroke-opacity:1"
         sodipodi:type="arc" />
      <path
         id="path3205"
         d="M 335.24395,416.18598 C 331.85677,420.79168 329.84791,426.50505 329.8377,432.65473 C 336.48803,430.96015 342.55546,429.52661 347.99395,428.34223 C 343.074,424.24337 338.66078,420.04006 335.24395,416.18598 z M 347.99395,428.34223 C 355.80342,434.84837 364.95486,441.10358 373.74395,445.31098 C 376.44894,446.60588 378.66086,447.6381 380.6502,448.52973 C 383.75932,444.03688 385.58443,438.59053 385.5877,432.71723 L 385.5877,432.56098 C 385.57146,429.24295 384.94832,426.07055 383.86895,423.12348 C 380.90767,423.31353 377.25109,423.55196 373.18145,423.96723 C 367.34009,424.56328 358.8714,425.97336 347.99395,428.34223 z"
         style="fill:#848484;fill-opacity:1;stroke:none;stroke-width:0.875;stroke-miterlimit:4;stroke-dasharray:none;stroke-dashoffset:0;stroke-opacity:1" />
    </g>
    <g
       id="g3253">
      <path
         transform="translate(167.61612,18.48419)"
         sodipodi:open="true"
         sodipodi:end="6.2782916"
         sodipodi:start="0.00055767423"
         d="M -45.837302,364.32365 A 27.865118,27.865118 0 1 1 -45.837631,364.17174"
         sodipodi:ry="27.865118"
         sodipodi:rx="27.865118"
         sodipodi:cy="364.30811"
         sodipodi:cx="-73.702415"
         id="path3235"
         style="fill:#ffffff;fill-opacity:1;stroke:#000000;stroke-width:0.875;stroke-miterlimit:4;stroke-dasharray:3.5, 3.5;stroke-dashoffset:0;stroke-opacity:1"
         sodipodi:type="arc" />
      <path
         id="path3237"
         d="M 71.371126,366.50287 C 71.371126,366.50287 79.958146,376.72033 92.458236,384.98126 C 104.95833,393.24219 116.91493,398.56831 116.91493,398.56831"
         style="opacity:1;fill:none;fill-opacity:1;fill-rule:evenodd;stroke:#000000;stroke-width:0.875;stroke-linecap:butt;stroke-linejoin:miter;marker:none;marker-start:none;marker-mid:none;marker-end:none;stroke-miterlimit:4;stroke-dasharray:none;stroke-dashoffset:0;stroke-opacity:1;visibility:visible;display:inline;overflow:visible;enable-background:accumulate" />
      <path
         id="path3239"
         d="M 98.219146,355.30714 C 98.219146,355.30714 100.71917,366.93765 99.849586,381.50297 C 98.980016,396.06829 94.849556,410.63361 94.849556,410.63361"
         style="opacity:1;fill:none;fill-opacity:1;fill-rule:evenodd;stroke:#000000;stroke-width:0.875;stroke-linecap:butt;stroke-linejoin:miter;marker:none;marker-start:none;marker-mid:none;marker-end:none;stroke-miterlimit:4;stroke-dasharray:none;stroke-dashoffset:0;stroke-opacity:1;visibility:visible;display:inline;overflow:visible;enable-background:accumulate" />
      <path
         id="path3241"
         d="M 66.262396,383.35081 C 66.262396,383.35081 75.501596,379.43774 92.784326,376.82903 C 110.06706,374.22031 120.17582,373.24205 120.17582,373.24205"
         style="opacity:1;fill:none;fill-opacity:1;fill-rule:evenodd;stroke:#000000;stroke-width:0.875;stroke-linecap:butt;stroke-linejoin:miter;marker:none;marker-start:none;marker-mid:none;marker-end:none;stroke-miterlimit:4;stroke-dasharray:none;stroke-dashoffset:0;stroke-opacity:1;visibility:visible;display:inline;overflow:visible;enable-background:accumulate" />
    </g>
    <text
       xml:space="preserve"
       style="font-size:10px;font-style:normal;font-variant:normal;font-weight:normal;font-stretch:normal;text-indent:0;text-align:start;text-decoration:none;line-height:125%;letter-spacing:normal;word-spacing:normal;text-transform:none;direction:ltr;block-progression:tb;writing-mode:lr-tb;text-anchor:start;opacity:1;fill:#000000;fill-opacity:1;fill-rule:nonzero;stroke:none;stroke-width:1px;stroke-linecap:butt;stroke-linejoin:miter;marker:none;marker-start:none;marker-mid:none;marker-end:none;stroke-miterlimit:4;stroke-dasharray:none;stroke-dashoffset:0;stroke-opacity:1;visibility:visible;display:inline;overflow:visible;enable-background:accumulate;font-family:Bitstream Vera Sans;-inkscape-font-specification:Bitstream Vera Sans"
       x="9.7757282"
       y="362.91605"
       id="text2395"
       sodipodi:linespacing="125%"><tspan
         sodipodi:role="line"
         id="tspan2397"
         x="9.7757282"
         y="362.91605">1</tspan></text>
    <text
       xml:space="preserve"
       style="font-size:10px;font-style:normal;font-variant:normal;font-weight:normal;font-stretch:normal;text-indent:0;text-align:start;text-decoration:none;line-height:125%;letter-spacing:normal;word-spacing:normal;text-transform:none;direction:ltr;block-progression:tb;writing-mode:lr-tb;text-anchor:start;opacity:1;fill:#000000;fill-opacity:1;fill-rule:nonzero;stroke:none;stroke-width:1px;stroke-linecap:butt;stroke-linejoin:miter;marker:none;marker-start:none;marker-mid:none;marker-end:none;stroke-miterlimit:4;stroke-dasharray:none;stroke-dashoffset:0;stroke-opacity:1;visibility:visible;display:inline;overflow:visible;enable-background:accumulate;font-family:Bitstream Vera Sans;-inkscape-font-specification:Bitstream Vera Sans"
       x="9.2612181"
       y="429.28809"
       id="text2399"
       sodipodi:linespacing="125%"><tspan
         sodipodi:role="line"
         id="tspan2401"
         x="9.2612181"
         y="429.28809">2</tspan></text>
  </g>
</svg>
