<?xml version="1.0" encoding="UTF-8" standalone="no"?>
<!-- Created with Inkscape (http://www.inkscape.org/) -->
<svg
   xmlns:dc="http://purl.org/dc/elements/1.1/"
   xmlns:cc="http://creativecommons.org/ns#"
   xmlns:rdf="http://www.w3.org/1999/02/22-rdf-syntax-ns#"
   xmlns:svg="http://www.w3.org/2000/svg"
   xmlns="http://www.w3.org/2000/svg"
   xmlns:sodipodi="http://sodipodi.sourceforge.net/DTD/sodipodi-0.dtd"
   xmlns:inkscape="http://www.inkscape.org/namespaces/inkscape"
   width="744.09448819"
   height="1052.3622047"
   id="svg2"
   sodipodi:version="0.32"
   inkscape:version="0.46"
   sodipodi:docname="no-intrinsic-curvature-in-one-dim.svg"
   inkscape:output_extension="org.inkscape.output.svg.inkscape">
  <defs
     id="defs4">
    <inkscape:perspective
       sodipodi:type="inkscape:persp3d"
       inkscape:vp_x="0 : 526.18109 : 1"
       inkscape:vp_y="0 : 1000 : 0"
       inkscape:vp_z="744.09448 : 526.18109 : 1"
       inkscape:persp3d-origin="372.04724 : 350.78739 : 1"
       id="perspective10" />
  </defs>
  <sodipodi:namedview
     id="base"
     pagecolor="#ffffff"
     bordercolor="#666666"
     borderopacity="1.0"
     gridtolerance="10000"
     guidetolerance="10"
     objecttolerance="10"
     inkscape:pageopacity="0.0"
     inkscape:pageshadow="2"
     inkscape:zoom="1.9662643"
     inkscape:cx="29.95228"
     inkscape:cy="633.93488"
     inkscape:document-units="px"
     inkscape:current-layer="layer1"
     showgrid="false"
     inkscape:window-width="1278"
     inkscape:window-height="996"
     inkscape:window-x="2"
     inkscape:window-y="5" />
  <metadata
     id="metadata7">
    <rdf:RDF>
      <cc:Work
         rdf:about="">
        <dc:format>image/svg+xml</dc:format>
        <dc:type
           rdf:resource="http://purl.org/dc/dcmitype/StillImage" />
      </cc:Work>
    </rdf:RDF>
  </metadata>
  <g
     inkscape:label="Layer 1"
     inkscape:groupmode="layer"
     id="layer1">
    <rect
       style="fill:#dedede;fill-opacity:1;fill-rule:evenodd;stroke:none;stroke-width:0.53544941pt;stroke-linecap:butt;stroke-linejoin:miter;stroke-opacity:1"
       id="rect2383"
       width="184.25197"
       height="125.7609"
       x="4.9446044"
       y="337.86758" />
    <g
       id="g3156"
       transform="translate(-1.5257359,12.714466)">
      <path
         d="M 60.017178,375.02545 C 61.479748,376.48802 58.767241,377.71855 57.586288,377.45634 C 54.385977,376.74577 53.871508,372.64657 55.155401,370.16367 C 57.451985,365.72235 63.415711,365.20205 67.309846,367.73279 C 73.024646,371.44674 73.555266,379.49045 69.74073,384.74901 C 64.656554,391.75784 54.469101,392.29397 47.86273,387.17989 C 39.549286,380.74434 39.010079,368.38638 45.431849,360.44011 C 53.209472,350.81613 67.751713,350.27506 77.033404,358.00923 C 87.971555,367.12369 88.513826,383.85823 79.464283,394.47257 C 69.016228,406.72724 50.084304,407.27033 38.139172,396.90345 C 24.566354,385.12393 24.022686,363.99118 35.708296,350.71656 C 48.817784,335.82444 72.153804,335.28034 86.756962,348.28568 C 102.96924,362.72407 103.51365,388.26515 89.187836,404.19613"
         sodipodi:t0="0"
         sodipodi:argument="-18.064157"
         sodipodi:radius="41.253551"
         sodipodi:revolution="3"
         sodipodi:expansion="1"
         sodipodi:cy="375.02545"
         sodipodi:cx="60.017178"
         id="path2382"
         style="fill:none;fill-rule:evenodd;stroke:#000000;stroke-width:1.25;stroke-linecap:butt;stroke-linejoin:miter;stroke-miterlimit:4;stroke-dasharray:none;stroke-opacity:1"
         sodipodi:type="spiral" />
      <path
         sodipodi:nodetypes="cccccccccssssssssssssc"
         id="path2384"
         d="M 89.560609,403.52975 L 134.95434,353.92965 L 126.89213,377.23994 L 145.295,364.44557 L 135.12961,384.07529 L 147.57345,373.9099 L 150.3777,400.7255 L 159.4915,391.96223 L 157.91411,410.89089 C 157.91411,410.89089 157.21305,419.12837 142.84128,424.0358 C 128.46952,428.94323 120.93311,430.87115 116.37621,425.61319 C 111.81931,420.35523 109.01507,415.27253 112.8709,414.57147 C 116.72674,413.87041 119.70625,411.76722 119.88152,416.67465 C 120.05678,421.58208 117.4278,429.11849 114.62356,429.99482 C 111.81931,430.87115 104.63343,428.24217 104.63343,421.23155 C 104.63343,414.22094 104.28289,407.67754 107.61294,407.21032 C 110.0753,406.86484 113.57197,411.94249 113.57197,418.07678 C 113.57197,424.21106 106.21082,433.32486 110.24192,436.65491 C 114.27303,439.98495 121.32829,441.68866 125.43306,438.99339 C 129.63589,436.23374 132.1501,433.32486 124.78895,425.78845 C 117.4278,418.25204 117.60307,420.53049 116.02568,415.44779 C 114.44829,410.3651 116.90201,399.84918 116.90201,399.84918"
         style="opacity:1;fill:none;fill-opacity:1;fill-rule:evenodd;stroke:#000000;stroke-width:1.25;stroke-linecap:butt;stroke-linejoin:miter;marker:none;marker-start:none;marker-mid:none;marker-end:none;stroke-miterlimit:4;stroke-dasharray:none;stroke-dashoffset:0;stroke-opacity:1;visibility:visible;display:inline;overflow:visible;enable-background:accumulate" />
    </g>
  </g>
</svg>
