<?xml version="1.0" encoding="UTF-8" standalone="no"?>
<!-- Created with Inkscape (http://www.inkscape.org/) -->
<svg
   xmlns:dc="http://purl.org/dc/elements/1.1/"
   xmlns:cc="http://creativecommons.org/ns#"
   xmlns:rdf="http://www.w3.org/1999/02/22-rdf-syntax-ns#"
   xmlns:svg="http://www.w3.org/2000/svg"
   xmlns="http://www.w3.org/2000/svg"
   xmlns:sodipodi="http://sodipodi.sourceforge.net/DTD/sodipodi-0.dtd"
   xmlns:inkscape="http://www.inkscape.org/namespaces/inkscape"
   width="744.09448819"
   height="1052.3622047"
   id="svg2"
   sodipodi:version="0.32"
   inkscape:version="0.46"
   sodipodi:docname="soccer-ball.svg"
   inkscape:output_extension="org.inkscape.output.svg.inkscape">
  <defs
     id="defs4">
    <inkscape:perspective
       sodipodi:type="inkscape:persp3d"
       inkscape:vp_x="0 : 526.18109 : 1"
       inkscape:vp_y="0 : 1000 : 0"
       inkscape:vp_z="744.09448 : 526.18109 : 1"
       inkscape:persp3d-origin="372.04724 : 350.78739 : 1"
       id="perspective10" />
    <inkscape:perspective
       id="perspective2444"
       inkscape:persp3d-origin="372.04724 : 350.78739 : 1"
       inkscape:vp_z="744.09448 : 526.18109 : 1"
       inkscape:vp_y="0 : 1000 : 0"
       inkscape:vp_x="0 : 526.18109 : 1"
       sodipodi:type="inkscape:persp3d" />
  </defs>
  <sodipodi:namedview
     id="base"
     pagecolor="#ffffff"
     bordercolor="#666666"
     borderopacity="1.0"
     gridtolerance="10000"
     guidetolerance="10"
     objecttolerance="10"
     inkscape:pageopacity="0.0"
     inkscape:pageshadow="2"
     inkscape:zoom="1.582809"
     inkscape:cx="46.483813"
     inkscape:cy="657.91259"
     inkscape:document-units="px"
     inkscape:current-layer="layer1"
     showgrid="false"
     inkscape:window-width="1278"
     inkscape:window-height="996"
     inkscape:window-x="3"
     inkscape:window-y="8" />
  <metadata
     id="metadata7">
    <rdf:RDF>
      <cc:Work
         rdf:about="">
        <dc:format>image/svg+xml</dc:format>
        <dc:type
           rdf:resource="http://purl.org/dc/dcmitype/StillImage" />
      </cc:Work>
    </rdf:RDF>
  </metadata>
  <g
     inkscape:label="Layer 1"
     inkscape:groupmode="layer"
     id="layer1">
    <rect
       style="fill:#dedede;fill-opacity:1;fill-rule:evenodd;stroke:none;stroke-width:0.53544941pt;stroke-linecap:butt;stroke-linejoin:miter;stroke-opacity:1"
       id="rect2383"
       width="184.25197"
       height="197.84741"
       x="4.9446044"
       y="337.86758" />
    <g
       id="g3262"
       transform="matrix(-1,0,0,1,-17.825555,-16.231217)">
      <path
         id="path3222"
         d="M -120.6824,402.60565 L -105.45195,408.88386 L -98.011124,430.85756 L -106.61459,444.46033 L -121.37998,437.48456 L -128.2395,417.48732 L -120.6824,402.60565 z M -105.56822,408.88386 L -87.431188,395.74614 L -68.829111,408.88386 L -75.572363,430.50877 L -98.011124,430.74131"
         style="fill:none;fill-opacity:1;fill-rule:evenodd;stroke:#292929;stroke-width:0.625;stroke-linecap:butt;stroke-linejoin:miter;marker:none;marker-start:none;marker-mid:none;marker-end:none;stroke-miterlimit:4;stroke-dasharray:none;stroke-dashoffset:0;stroke-opacity:1;visibility:visible;display:inline;overflow:visible;enable-background:accumulate" />
      <path
         id="path3224"
         d="M -128.12324,417.37106 L -129.86719,407.4887 L -123.70524,387.60773 L -117.89209,384.11984 L -120.6824,402.60565"
         style="fill:none;fill-opacity:1;fill-rule:evenodd;stroke:#292929;stroke-width:0.625;stroke-linecap:butt;stroke-linejoin:miter;marker:none;marker-start:none;marker-mid:none;marker-end:none;stroke-miterlimit:4;stroke-dasharray:none;stroke-dashoffset:0;stroke-opacity:1;visibility:visible;display:inline;overflow:visible;enable-background:accumulate" />
      <path
         id="path3226"
         d="M -117.77583,383.88731 L -100.56891,371.09839 L -85.570985,376.21395 L -87.0824,395.74614"
         style="fill:none;fill-opacity:1;fill-rule:evenodd;stroke:#292929;stroke-width:0.625;stroke-linecap:butt;stroke-linejoin:miter;marker:none;marker-start:none;marker-mid:none;marker-end:none;stroke-miterlimit:4;stroke-dasharray:none;stroke-dashoffset:0;stroke-opacity:1;visibility:visible;display:inline;overflow:visible;enable-background:accumulate" />
      <path
         id="path3228"
         d="M -85.454722,375.98143 L -65.690011,370.86585 L -47.901774,383.88731 L -48.948138,402.72192 L -68.829111,409.00012"
         style="fill:none;fill-opacity:1;fill-rule:evenodd;stroke:#292929;stroke-width:0.625;stroke-linecap:butt;stroke-linejoin:miter;marker:none;marker-start:none;marker-mid:none;marker-end:none;stroke-miterlimit:4;stroke-dasharray:none;stroke-dashoffset:0;stroke-opacity:1;visibility:visible;display:inline;overflow:visible;enable-background:accumulate" />
      <path
         id="path3230"
         d="M -75.804896,430.27626 L -62.783436,445.15792 L -43.716302,438.2984 L -36.85679,417.60358 L -49.064401,402.83818"
         style="fill:none;fill-opacity:1;fill-rule:evenodd;stroke:#292929;stroke-width:0.625;stroke-linecap:butt;stroke-linejoin:miter;marker:none;marker-start:none;marker-mid:none;marker-end:none;stroke-miterlimit:4;stroke-dasharray:none;stroke-dashoffset:0;stroke-opacity:1;visibility:visible;display:inline;overflow:visible;enable-background:accumulate" />
      <path
         id="path3232"
         d="M -47.901774,384.00357 L -35.46163,387.72399 L -29.18343,407.95375 L -36.62426,417.60358"
         style="fill:none;fill-opacity:1;fill-rule:evenodd;stroke:#292929;stroke-width:0.625;stroke-linecap:butt;stroke-linejoin:miter;marker:none;marker-start:none;marker-mid:none;marker-end:none;stroke-miterlimit:4;stroke-dasharray:none;stroke-dashoffset:0;stroke-opacity:1;visibility:visible;display:inline;overflow:visible;enable-background:accumulate" />
      <path
         id="path3234"
         d="M -29.06716,408.18628 L -28.13706,418.64995 L -33.95021,436.43819 L -41.856099,447.7157 L -43.483776,438.76345 L -43.483776,438.76345 L -43.483776,438.76345"
         style="fill:none;fill-opacity:1;fill-rule:evenodd;stroke:#292929;stroke-width:0.625;stroke-linecap:butt;stroke-linejoin:miter;marker:none;marker-start:none;marker-mid:none;marker-end:none;stroke-miterlimit:4;stroke-dasharray:none;stroke-dashoffset:0;stroke-opacity:1;visibility:visible;display:inline;overflow:visible;enable-background:accumulate" />
      <path
         id="path3236"
         d="M -106.49832,444.5766 L -93.476871,458.29563 L -71.619424,458.64442 L -62.899699,445.39044"
         style="fill:none;fill-opacity:1;fill-rule:evenodd;stroke:#292929;stroke-width:0.625;stroke-linecap:butt;stroke-linejoin:miter;marker:none;marker-start:none;marker-mid:none;marker-end:none;stroke-miterlimit:4;stroke-dasharray:none;stroke-dashoffset:0;stroke-opacity:1;visibility:visible;display:inline;overflow:visible;enable-background:accumulate" />
      <path
         id="path3238"
         d="M -120.91493,437.83335 L -118.00835,446.7856 L -99.057494,459.22574 L -93.593133,458.52817"
         style="fill:none;fill-opacity:1;fill-rule:evenodd;stroke:#292929;stroke-width:0.625;stroke-linecap:butt;stroke-linejoin:miter;marker:none;marker-start:none;marker-mid:none;marker-end:none;stroke-miterlimit:4;stroke-dasharray:none;stroke-dashoffset:0;stroke-opacity:1;visibility:visible;display:inline;overflow:visible;enable-background:accumulate" />
      <path
         id="path3240"
         d="M -71.386898,458.76068 L -58.94676,459.45827 L -41.856099,447.48318"
         style="fill:none;fill-opacity:1;fill-rule:evenodd;stroke:#292929;stroke-width:0.625;stroke-linecap:butt;stroke-linejoin:miter;marker:none;marker-start:none;marker-mid:none;marker-end:none;stroke-miterlimit:4;stroke-dasharray:none;stroke-dashoffset:0;stroke-opacity:1;visibility:visible;display:inline;overflow:visible;enable-background:accumulate" />
      <path
         id="path3242"
         d="M -98.592444,459.57453 L -91.500397,460.15584 L -71.503161,460.38837 L -58.714227,459.45827"
         style="fill:none;fill-opacity:1;fill-rule:evenodd;stroke:#292929;stroke-width:0.625;stroke-linecap:butt;stroke-linejoin:miter;marker:none;marker-start:none;marker-mid:none;marker-end:none;stroke-miterlimit:4;stroke-dasharray:none;stroke-dashoffset:0;stroke-opacity:1;visibility:visible;display:inline;overflow:visible;enable-background:accumulate" />
      <path
         id="path3244"
         d="M -100.56891,370.74959 L -90.802821,363.42502 L -69.294162,363.1925 L -65.690011,370.86585"
         style="fill:none;fill-opacity:1;fill-rule:evenodd;stroke:#292929;stroke-width:0.625;stroke-linecap:butt;stroke-linejoin:miter;marker:none;marker-start:none;marker-mid:none;marker-end:none;stroke-miterlimit:4;stroke-dasharray:none;stroke-dashoffset:0;stroke-opacity:1;visibility:visible;display:inline;overflow:visible;enable-background:accumulate" />
      <path
         id="path3246"
         d="M -69.1779,363.1925 L -56.621498,367.61049 L -40.46094,379.00426 L -35.57789,387.72399"
         style="fill:none;fill-opacity:1;fill-rule:evenodd;stroke:#292929;stroke-width:0.625;stroke-linecap:butt;stroke-linejoin:miter;marker:none;marker-start:none;marker-mid:none;marker-end:none;stroke-miterlimit:4;stroke-dasharray:none;stroke-dashoffset:0;stroke-opacity:1;visibility:visible;display:inline;overflow:visible;enable-background:accumulate" />
      <path
         id="path3248"
         d="M -123.35645,387.49146 L -114.4042,380.63195 L -101.26649,370.74959 L -90.802821,363.65755"
         style="fill:none;fill-opacity:1;fill-rule:evenodd;stroke:#292929;stroke-width:0.625;stroke-linecap:butt;stroke-linejoin:miter;marker:none;marker-start:none;marker-mid:none;marker-end:none;stroke-miterlimit:4;stroke-dasharray:none;stroke-dashoffset:0;stroke-opacity:1;visibility:visible;display:inline;overflow:visible;enable-background:accumulate" />
    </g>
    <g
       id="g3278">
      <path
         id="path3308"
         d="M 98.648582,447.61793 C 97.610113,456.44496 98.994738,465.96431 98.994738,465.96431 C 98.994738,465.96431 100.03321,466.65662 104.36019,467.86818 C 108.68716,469.07973 115.95648,472.02207 115.95648,472.02207 L 134.99516,459.38731 C 134.99516,459.38731 135.16825,452.11799 134.99516,449.17565 C 134.82209,446.2333 134.12977,440.69478 134.12977,440.69478 C 134.12977,440.69478 130.32203,438.09859 124.95658,436.88704 C 119.59113,435.67549 116.12956,435.32933 116.12956,435.32933 C 116.12956,435.32933 110.59103,437.92551 107.47561,440.34862 C 104.36019,442.77172 98.821664,447.44486 98.648582,447.61793 z"
         style="fill:none;fill-opacity:1;fill-rule:evenodd;stroke:#292929;stroke-width:0.62500000000000000;stroke-linecap:butt;stroke-linejoin:miter;marker:none;marker-start:none;marker-mid:none;marker-end:none;stroke-miterlimit:4;stroke-dasharray:none;stroke-dashoffset:0;stroke-opacity:1;visibility:visible;display:inline;overflow:visible;enable-background:accumulate" />
      <path
         id="path3310"
         d="M 134.30285,440.52169 C 140.36061,437.92551 150.39919,435.50241 150.39919,435.50241 C 150.39919,435.50241 154.20693,436.88704 158.18775,439.65631 C 162.16856,442.42557 167.7071,447.27178 167.7071,447.27178 C 167.7071,447.27178 169.43789,450.56028 169.78404,455.06033 C 170.1302,459.56039 169.2648,466.31046 169.2648,466.31046 L 153.34154,472.19515 C 153.34154,472.19515 147.45685,466.8297 144.16835,464.75275 C 140.87985,462.67581 134.99516,459.56039 134.99516,459.56039 L 134.82209,459.38731"
         style="fill:none;fill-opacity:1;fill-rule:evenodd;stroke:#292929;stroke-width:0.62500000000000000;stroke-linecap:butt;stroke-linejoin:miter;marker:none;marker-start:none;marker-mid:none;marker-end:none;stroke-miterlimit:4;stroke-dasharray:none;stroke-dashoffset:0;stroke-opacity:1;visibility:visible;display:inline;overflow:visible;enable-background:accumulate" />
      <path
         id="path3312"
         d="M 152.99538,471.84899 C 149.87996,483.96452 146.2453,493.31079 146.2453,493.31079 C 146.2453,493.31079 138.45675,494.17618 134.64901,494.17618 C 130.84127,494.17618 123.39888,493.31079 123.39888,493.31079 C 123.39888,493.31079 120.62961,487.07994 119.24498,481.88757 C 117.86035,476.6952 115.95648,472.02207 115.95648,472.02207"
         style="fill:none;fill-opacity:1;fill-rule:evenodd;stroke:#292929;stroke-width:0.62500000000000000;stroke-linecap:butt;stroke-linejoin:miter;marker:none;marker-start:none;marker-mid:none;marker-end:none;stroke-miterlimit:4;stroke-dasharray:none;stroke-dashoffset:0;stroke-opacity:1;visibility:visible;display:inline;overflow:visible;enable-background:accumulate" />
      <path
         id="path3314"
         d="M 146.07222,493.65694 C 152.64922,502.48397 155.41849,507.50326 155.41849,507.50326 C 155.41849,507.50326 160.95701,506.29171 163.72628,505.42631 C 166.49554,504.56092 171.34176,501.61858 171.34176,501.61858 C 171.34176,501.61858 175.14948,496.25313 176.36104,492.27232 C 177.57259,488.29149 178.78414,480.8491 178.78414,480.8491 C 178.78414,480.8491 177.74567,478.07984 175.49565,474.44518 C 173.24562,470.81052 169.2648,466.48354 169.2648,466.48354 L 169.2648,466.48354"
         style="fill:none;fill-opacity:1;fill-rule:evenodd;stroke:#292929;stroke-width:0.62500000000000000;stroke-linecap:butt;stroke-linejoin:miter;marker:none;marker-start:none;marker-mid:none;marker-end:none;stroke-miterlimit:4;stroke-dasharray:none;stroke-dashoffset:0;stroke-opacity:1;visibility:visible;display:inline;overflow:visible;enable-background:accumulate" />
      <path
         id="path3318"
         d="M 168.05325,447.79102 C 172.03407,448.48334 176.88028,451.77183 176.88028,451.77183"
         style="fill:none;fill-opacity:1;fill-rule:evenodd;stroke:#292929;stroke-width:0.62500000000000000;stroke-linecap:butt;stroke-linejoin:miter;marker:none;marker-start:none;marker-mid:none;marker-end:none;stroke-miterlimit:4;stroke-dasharray:none;stroke-dashoffset:0;stroke-opacity:1;visibility:visible;display:inline;overflow:visible;enable-background:accumulate" />
      <path
         id="path3320"
         d="M 179.13031,480.50294 C 181.89957,476.17597 182.93804,472.71439 182.93804,472.71439"
         style="fill:none;fill-opacity:1;fill-rule:evenodd;stroke:#292929;stroke-width:0.62500000000000000;stroke-linecap:butt;stroke-linejoin:miter;marker:none;marker-start:none;marker-mid:none;marker-end:none;stroke-miterlimit:4;stroke-dasharray:none;stroke-dashoffset:0;stroke-opacity:1;visibility:visible;display:inline;overflow:visible;enable-background:accumulate" />
      <path
         sodipodi:nodetypes="cc"
         id="path3322"
         d="M 171.51483,501.27241 C 171.68791,505.42631 170.71937,508.51763 170.71937,508.51763"
         style="fill:none;fill-opacity:1;fill-rule:evenodd;stroke:#292929;stroke-width:0.62500000000000000;stroke-linecap:butt;stroke-linejoin:miter;marker:none;marker-start:none;marker-mid:none;marker-end:none;stroke-miterlimit:4;stroke-dasharray:none;stroke-dashoffset:0;stroke-opacity:1;visibility:visible;display:inline;overflow:visible;enable-background:accumulate" />
      <path
         id="path3324"
         d="M 155.41849,507.50326 C 150.39919,516.67644 143.64912,521.69574 143.64912,521.69574 C 143.64912,521.69574 142.61064,522.56113 135.5144,522.38805 C 128.41816,522.21497 122.3604,521.1765 122.3604,521.1765 C 122.3604,521.1765 119.76422,518.23416 116.82188,514.77258 C 113.87954,511.311 112.14875,507.1571 112.14875,507.1571 C 112.14875,507.1571 114.39877,503.52245 116.64879,501.09934 C 118.89882,498.67623 123.39888,493.31079 123.39888,493.31079 L 123.22579,492.96463"
         style="fill:none;fill-opacity:1;fill-rule:evenodd;stroke:#292929;stroke-width:0.62500000000000000;stroke-linecap:butt;stroke-linejoin:miter;marker:none;marker-start:none;marker-mid:none;marker-end:none;stroke-miterlimit:4;stroke-dasharray:none;stroke-dashoffset:0;stroke-opacity:1;visibility:visible;display:inline;overflow:visible;enable-background:accumulate" />
      <path
         sodipodi:nodetypes="ccscsc"
         id="path3326"
         d="M 112.28521,507.12789 C 103.11202,505.05095 94.321609,501.44549 94.321609,501.44549 C 94.321609,501.44549 90.513873,495.38773 89.302322,489.84921 C 88.090771,484.31067 87.917689,480.50294 87.917689,480.50294 C 87.917689,480.50294 90.167717,475.82981 92.417737,473.06054 C 94.667772,470.29128 98.994738,465.61815 98.994738,465.61815"
         style="fill:none;fill-opacity:1;fill-rule:evenodd;stroke:#292929;stroke-width:0.62500000000000000;stroke-linecap:butt;stroke-linejoin:miter;marker:none;marker-start:none;marker-mid:none;marker-end:none;stroke-miterlimit:4;stroke-dasharray:none;stroke-dashoffset:0;stroke-opacity:1;visibility:visible;display:inline;overflow:visible;enable-background:accumulate" />
      <path
         id="path3328"
         d="M 98.129343,447.27178 C 90.686955,448.31025 89.302322,450.21412 89.302322,450.21412 C 89.302322,450.21412 85.667662,455.23341 83.417634,460.2527 C 81.167606,465.27199 81.167606,470.81052 81.167606,470.81052 C 81.167606,470.81052 81.686845,473.06054 83.417634,475.48365 C 85.148423,477.90676 87.917689,480.67602 87.917689,480.67602"
         style="fill:none;fill-opacity:1;fill-rule:evenodd;stroke:#292929;stroke-width:0.62500000000000000;stroke-linecap:butt;stroke-linejoin:miter;marker:none;marker-start:none;marker-mid:none;marker-end:none;stroke-miterlimit:4;stroke-dasharray:none;stroke-dashoffset:0;stroke-opacity:1;visibility:visible;display:inline;overflow:visible;enable-background:accumulate" />
      <path
         sodipodi:nodetypes="ccscsc"
         id="path3330"
         d="M 94.494691,501.61858 C 94.321609,506.29171 93.760959,510.79656 93.760959,510.79656 C 93.760959,510.79656 95.309516,512.95438 102.08837,518.25857 C 104.97995,520.52112 109.79866,522.75361 109.79866,522.75361 C 109.79866,522.75361 111.45643,523.08037 113.53337,522.90729 C 115.61032,522.73421 122.18732,521.00342 122.18732,521.00342"
         style="fill:none;fill-opacity:1;fill-rule:evenodd;stroke:#292929;stroke-width:0.62500000000000000;stroke-linecap:butt;stroke-linejoin:miter;marker:none;marker-start:none;marker-mid:none;marker-end:none;stroke-miterlimit:4;stroke-dasharray:none;stroke-dashoffset:0;stroke-opacity:1;visibility:visible;display:inline;overflow:visible;enable-background:accumulate" />
      <path
         sodipodi:nodetypes="ccsc"
         id="path3332"
         d="M 143.64912,521.52266 C 148.6684,522.90729 151.78383,522.90729 151.78383,522.90729 C 151.78383,522.90729 158.53391,519.96495 162.16856,517.19568 C 165.80322,514.42642 170.73196,508.46725 170.73196,508.46725"
         style="fill:none;fill-opacity:1;fill-rule:evenodd;stroke:#292929;stroke-width:0.62500000000000000;stroke-linecap:butt;stroke-linejoin:miter;marker:none;marker-start:none;marker-mid:none;marker-end:none;stroke-miterlimit:4;stroke-dasharray:none;stroke-dashoffset:0;stroke-opacity:1;visibility:visible;display:inline;overflow:visible;enable-background:accumulate" />
      <path
         id="path3334"
         d="M 116.30264,434.98317 C 118.89882,429.44465 122.18732,427.02154 122.18732,427.02154 C 122.18732,427.02154 125.47582,425.46383 132.05282,425.80999 C 138.62982,426.15614 142.9568,427.02154 142.9568,427.02154 C 142.9568,427.02154 145.89914,428.75233 147.28377,430.6562 C 148.6684,432.56007 150.22612,435.32933 150.22612,435.32933"
         style="fill:none;fill-opacity:1;fill-rule:evenodd;stroke:#292929;stroke-width:0.62500000000000000;stroke-linecap:butt;stroke-linejoin:miter;marker:none;marker-start:none;marker-mid:none;marker-end:none;stroke-miterlimit:4;stroke-dasharray:none;stroke-dashoffset:0;stroke-opacity:1;visibility:visible;display:inline;overflow:visible;enable-background:accumulate" />
      <path
         transform="matrix(0.4080503,0,0,0.4059893,231.79423,294.44401)"
         d="M -118.88824,448.69321 A 125.97002,125.97002 0 1 1 -370.82828,448.69321 A 125.97002,125.97002 0 1 1 -118.88824,448.69321 z"
         sodipodi:ry="125.97002"
         sodipodi:rx="125.97002"
         sodipodi:cy="448.69321"
         sodipodi:cx="-244.85826"
         id="path3336"
         style="fill:none;fill-opacity:1;stroke:#292929;stroke-width:1.53555675000000003;stroke-linecap:round;stroke-miterlimit:4;stroke-dasharray:none;stroke-dashoffset:0;stroke-opacity:1"
         sodipodi:type="arc" />
      <path
         id="path3338"
         d="M 89.272914,450.13482 L 88.710268,448.75378"
         style="fill:none;fill-opacity:1;fill-rule:evenodd;stroke:#292929;stroke-width:0.62500000000000000;stroke-linecap:butt;stroke-linejoin:miter;marker:none;marker-start:none;marker-mid:none;marker-end:none;stroke-miterlimit:4;stroke-dasharray:none;stroke-dashoffset:0;stroke-opacity:1;visibility:visible;display:inline;overflow:visible;enable-background:accumulate" />
      <g
         id="g3240">
        <path
           style="fill:none;fill-opacity:1;fill-rule:evenodd;stroke:#000000;stroke-width:1.25;stroke-linecap:butt;stroke-linejoin:miter;marker:none;marker-start:none;marker-mid:none;marker-end:none;stroke-miterlimit:4;stroke-dasharray:none;stroke-dashoffset:0;stroke-opacity:1;visibility:visible;display:inline;overflow:visible;enable-background:accumulate"
           d="M 109.42103,469.48591 C 109.42103,469.48591 111.54113,466.1607 114.89844,466.23017 C 118.90533,466.31135 120.96828,468.51528 120.96828,468.51528"
           id="path2414"
           sodipodi:nodetypes="csc" />
        <path
           style="fill:none;fill-opacity:1;fill-rule:evenodd;stroke:#000000;stroke-width:1.25;stroke-linecap:butt;stroke-linejoin:miter;marker:none;marker-start:none;marker-mid:none;marker-end:none;stroke-miterlimit:4;stroke-dasharray:none;stroke-dashoffset:0;stroke-opacity:1;visibility:visible;display:inline;overflow:visible;enable-background:accumulate"
           d="M 130.33766,462.38557 C 130.33766,462.38557 128.41493,458.94246 130.0677,456.01933 C 132.03873,452.5298 134.95723,451.75821 134.95723,451.75821"
           id="path3186"
           sodipodi:nodetypes="csc" />
        <path
           style="fill:none;fill-opacity:1;fill-rule:evenodd;stroke:#000000;stroke-width:1.25;stroke-linecap:butt;stroke-linejoin:miter;marker:none;marker-start:none;marker-mid:none;marker-end:none;stroke-miterlimit:4;stroke-dasharray:none;stroke-dashoffset:0;stroke-opacity:1;visibility:visible;display:inline;overflow:visible;enable-background:accumulate"
           d="M 134.70491,447.88756 C 134.70491,447.88756 130.77225,447.59415 129.24415,444.60396 C 127.41885,441.03604 128.38362,438.17558 128.38362,438.17558"
           id="path3188"
           sodipodi:nodetypes="csc" />
        <path
           style="fill:none;fill-opacity:1;fill-rule:evenodd;stroke:#000000;stroke-width:1.25;stroke-linecap:butt;stroke-linejoin:miter;marker:none;marker-start:none;marker-mid:none;marker-end:none;stroke-miterlimit:4;stroke-dasharray:none;stroke-dashoffset:0;stroke-opacity:1;visibility:visible;display:inline;overflow:visible;enable-background:accumulate"
           d="M 122.62286,436.47057 C 122.62286,436.47057 120.68694,439.90628 117.33083,440.0197 C 113.32547,440.15681 111.14558,438.06848 111.14558,438.06848"
           id="path3190"
           sodipodi:nodetypes="csc" />
        <path
           style="fill:none;fill-opacity:1;fill-rule:evenodd;stroke:#000000;stroke-width:1.25;stroke-linecap:butt;stroke-linejoin:miter;marker:none;marker-start:none;marker-mid:none;marker-end:none;stroke-miterlimit:4;stroke-dasharray:none;stroke-dashoffset:0;stroke-opacity:1;visibility:visible;display:inline;overflow:visible;enable-background:accumulate"
           d="M 102.77077,444.23957 C 102.77077,444.23957 104.7641,447.64229 103.17196,450.59889 C 101.27334,454.12833 98.371364,454.95995 98.371364,454.95995"
           id="path3192"
           sodipodi:nodetypes="csc" />
        <path
           style="fill:none;fill-opacity:1;fill-rule:evenodd;stroke:#000000;stroke-width:1.25;stroke-linecap:butt;stroke-linejoin:miter;marker:none;marker-start:none;marker-mid:none;marker-end:none;stroke-miterlimit:4;stroke-dasharray:none;stroke-dashoffset:0;stroke-opacity:1;visibility:visible;display:inline;overflow:visible;enable-background:accumulate"
           d="M 98.594729,458.017 C 98.594729,458.017 102.52515,458.33902 104.03143,461.34028 C 105.83071,464.92138 104.84514,467.77475 104.84514,467.77475"
           id="path3194"
           sodipodi:nodetypes="csc" />
      </g>
    </g>
    <path
       style="fill:none;fill-opacity:1;fill-rule:evenodd;stroke:#000000;stroke-width:1.25;stroke-linecap:butt;stroke-linejoin:miter;marker:none;marker-start:none;marker-mid:none;marker-end:none;stroke-miterlimit:4;stroke-dasharray:none;stroke-dashoffset:0;stroke-opacity:1;visibility:visible;display:inline;overflow:visible;enable-background:accumulate"
       d="M 44.50297,390.61066 C 44.50297,390.61066 47.113278,387.30803 50.459986,387.03257 C 54.545444,386.6963 56.705555,388.48917 56.705555,388.48917"
       id="path3252"
       sodipodi:nodetypes="csc" />
    <path
       style="fill:none;fill-opacity:1;fill-rule:evenodd;stroke:#000000;stroke-width:1.25;stroke-linecap:butt;stroke-linejoin:miter;marker:none;marker-start:none;marker-mid:none;marker-end:none;stroke-miterlimit:4;stroke-dasharray:none;stroke-dashoffset:0;stroke-opacity:1;visibility:visible;display:inline;overflow:visible;enable-background:accumulate"
       d="M 53.064833,400.47958 C 53.064833,400.47958 48.590935,400.66338 46.548572,397.99785 C 44.109667,394.81767 44.542687,390.80345 44.542687,390.80345"
       id="path3254"
       sodipodi:nodetypes="csc" />
    <path
       style="fill:none;fill-opacity:1;fill-rule:evenodd;stroke:#000000;stroke-width:1.25;stroke-linecap:butt;stroke-linejoin:miter;marker:none;marker-start:none;marker-mid:none;marker-end:none;stroke-miterlimit:4;stroke-dasharray:none;stroke-dashoffset:0;stroke-opacity:1;visibility:visible;display:inline;overflow:visible;enable-background:accumulate"
       d="M 57.003836,388.72949 C 57.003836,388.72949 60.212613,392.48818 58.789783,395.52989 C 57.093297,399.16082 53.611064,400.54969 53.611064,400.54969"
       id="path3260"
       sodipodi:nodetypes="csc" />
    <text
       xml:space="preserve"
       style="font-size:10px;font-style:normal;font-variant:normal;font-weight:normal;font-stretch:normal;text-align:start;line-height:100%;writing-mode:lr-tb;text-anchor:start;fill:#000000;fill-opacity:1;stroke:none;stroke-width:1pt;stroke-linecap:butt;stroke-linejoin:miter;stroke-opacity:1;font-family:Bitstream Vera Sans;-inkscape-font-specification:Bitstream Vera Sans"
       x="32.221195"
       y="459.74487"
       id="text2422"
       sodipodi:linespacing="100%"><tspan
         sodipodi:role="line"
         id="tspan2424"
         x="32.221195"
         y="459.74487">1</tspan></text>
    <text
       xml:space="preserve"
       style="font-size:10px;font-style:normal;font-variant:normal;font-weight:normal;font-stretch:normal;text-align:start;line-height:100%;writing-mode:lr-tb;text-anchor:start;fill:#000000;fill-opacity:1;stroke:none;stroke-width:1pt;stroke-linecap:butt;stroke-linejoin:miter;stroke-opacity:1;font-family:Bitstream Vera Sans;-inkscape-font-specification:Bitstream Vera Sans"
       x="65.074181"
       y="493.22964"
       id="text2426"
       sodipodi:linespacing="100%"><tspan
         sodipodi:role="line"
         id="tspan2428"
         x="65.074181"
         y="493.22964">2</tspan></text>
  </g>
</svg>
