<?xml version="1.0" encoding="UTF-8" standalone="no"?>
<!-- Created with Inkscape (http://www.inkscape.org/) -->
<svg
   xmlns:dc="http://purl.org/dc/elements/1.1/"
   xmlns:cc="http://creativecommons.org/ns#"
   xmlns:rdf="http://www.w3.org/1999/02/22-rdf-syntax-ns#"
   xmlns:svg="http://www.w3.org/2000/svg"
   xmlns="http://www.w3.org/2000/svg"
   xmlns:sodipodi="http://sodipodi.sourceforge.net/DTD/sodipodi-0.dtd"
   xmlns:inkscape="http://www.inkscape.org/namespaces/inkscape"
   width="744.09448819"
   height="1052.3622047"
   id="svg2"
   sodipodi:version="0.32"
   inkscape:version="0.46"
   sodipodi:docname="varying-wavelength.svg"
   inkscape:output_extension="org.inkscape.output.svg.inkscape">
  <defs
     id="defs4">
    <inkscape:perspective
       sodipodi:type="inkscape:persp3d"
       inkscape:vp_x="0 : 526.18109 : 1"
       inkscape:vp_y="0 : 1000 : 0"
       inkscape:vp_z="744.09448 : 526.18109 : 1"
       inkscape:persp3d-origin="372.04724 : 350.78739 : 1"
       id="perspective10" />
  </defs>
  <sodipodi:namedview
     id="base"
     pagecolor="#ffffff"
     bordercolor="#666666"
     borderopacity="1.0"
     gridtolerance="10000"
     guidetolerance="10"
     objecttolerance="10"
     inkscape:pageopacity="0.0"
     inkscape:pageshadow="2"
     inkscape:zoom="2.800598"
     inkscape:cx="201.09801"
     inkscape:cy="866.44371"
     inkscape:document-units="px"
     inkscape:current-layer="layer1"
     showgrid="false"
     inkscape:window-width="1278"
     inkscape:window-height="996"
     inkscape:window-x="3"
     inkscape:window-y="7" />
  <metadata
     id="metadata7">
    <rdf:RDF>
      <cc:Work
         rdf:about="">
        <dc:format>image/svg+xml</dc:format>
        <dc:type
           rdf:resource="http://purl.org/dc/dcmitype/StillImage" />
      </cc:Work>
    </rdf:RDF>
  </metadata>
  <g
     inkscape:label="Layer 1"
     inkscape:groupmode="layer"
     id="layer1">
    <rect
       style="fill:#dedede;fill-opacity:1;fill-rule:evenodd;stroke:none;stroke-width:0.53544941pt;stroke-linecap:butt;stroke-linejoin:miter;stroke-opacity:1"
       id="rect2383"
       width="184.25197"
       height="87.197716"
       x="87.7267"
       y="104.10809" />
    <g
       id="g4199">
      <path
         style="fill:none;stroke:#000000;stroke-width:1.875;stroke-miterlimit:4;stroke-dasharray:none"
         d="M 92.631448,122.53977 C 93.621249,118.73772 93.96149,117.77998 94.269648,116.93182 C 94.576917,116.08369 94.770667,115.89255 94.900523,115.70132 C 95.030361,115.51014 95.336981,115.23673 95.563347,115.26418 C 95.789744,115.29165 96.031999,115.40152 96.209241,115.70267 C 96.386486,116.00383 96.660311,116.46918 96.854154,116.98963 C 97.047154,117.50937 97.224239,117.9474 97.498354,118.933 C 97.7716,119.91861 97.707281,119.48069 98.462942,122.54567"
         id="path73" />
      <path
         style="fill:none;stroke:#000000;stroke-width:1.875;stroke-miterlimit:4;stroke-dasharray:none"
         d="M 98.473613,122.54359 C 99.454884,126.34828 99.792989,127.30605 100.09923,128.15481 C 100.4055,129.00357 100.59882,129.19512 100.72735,129.38726 C 100.85676,129.57873 101.16278,129.85278 101.3892,129.82579 C 101.61475,129.79808 101.85728,129.6894 102.03605,129.3886 C 102.21485,129.08781 102.48885,128.623 102.68385,128.10296 C 102.87891,127.5829 103.05608,127.14526 103.33243,126.16089 C 103.60788,125.17586 103.54256,125.61364 104.30514,122.55019"
         id="path75" />
      <path
         style="fill:none;stroke:#000000;stroke-width:1.875;stroke-miterlimit:4;stroke-dasharray:none"
         d="M 104.31671,122.5516 C 105.30648,118.74957 105.64674,117.79183 105.95489,116.94368 C 106.26305,116.09554 106.4568,115.9044 106.58577,115.71322 C 106.71564,115.52199 107.02226,115.24858 107.24861,115.27605 C 107.4741,115.3035 107.71636,115.41338 107.8945,115.71454 C 108.07262,116.0157 108.34556,116.48103 108.5394,117.00148 C 108.73327,117.52122 108.90948,117.95925 109.1836,118.94485 C 109.45686,119.93046 109.39254,119.49256 110.14911,122.55752"
         id="path77" />
      <path
         style="fill:none;stroke:#000000;stroke-width:1.875;stroke-miterlimit:4;stroke-dasharray:none"
         d="M 110.15978,122.55542 C 111.14103,126.36017 111.47912,127.31785 111.78447,128.16666 C 112.09074,129.01542 112.2841,129.20695 112.41261,129.39911 C 112.54203,129.5906 112.84803,129.86464 113.07445,129.83766 C 113.30091,129.80995 113.54253,129.70125 113.72133,129.40043 C 113.90012,129.09964 114.17499,128.63487 114.36913,128.11481 C 114.56327,127.59477 114.74132,127.15711 115.01769,126.17278 C 115.29404,125.18839 115.22872,125.62549 115.99128,122.56205"
         id="path79" />
      <path
         style="fill:none;stroke:#000000;stroke-width:1.875;stroke-miterlimit:4;stroke-dasharray:none"
         d="M 116.00194,122.56343 C 116.99174,118.76143 117.332,117.80368 117.63925,116.95553 C 117.94654,116.10737 118.14118,115.91623 118.27014,115.72505 C 118.39998,115.53386 118.70747,115.26043 118.93299,115.28788 C 119.15935,115.31538 119.40162,115.42523 119.57888,115.72637 C 119.75609,116.02753 120.03082,116.49291 120.22376,117.01333 C 120.41678,117.53309 120.59384,117.9711 120.86798,118.95668 C 121.14213,119.94229 121.07779,119.50441 121.83347,122.56937"
         id="path81" />
      <path
         style="fill:none;stroke:#000000;stroke-width:1.875;stroke-miterlimit:4;stroke-dasharray:none"
         d="M 121.84504,122.56729 C 122.82628,126.372 123.16438,127.32973 123.47062,128.17851 C 123.77599,129.02727 123.97021,129.21878 124.09875,129.41098 C 124.22814,129.60243 124.53416,129.87649 124.76061,129.84947 C 124.98705,129.82176 125.22957,129.7131 125.40746,129.41233 C 125.58536,129.11149 125.86027,128.64672 126.05528,128.12666 C 126.2503,127.60662 126.42749,127.16894 126.70383,126.18459 C 126.98018,125.19955 126.91486,125.63732 127.67746,122.57392"
         id="path83" />
      <path
         style="fill:none;stroke:#000000;stroke-width:1.875;stroke-miterlimit:4;stroke-dasharray:none"
         d="M 127.68809,122.57528 C 128.67789,118.77328 129.01813,117.81553 129.32629,116.9674 C 129.63445,116.11925 129.82821,115.9281 129.95717,115.73692 C 130.08702,115.54569 130.39364,115.27226 130.62,115.29973 C 130.8464,115.32719 131.08866,115.43706 131.26588,115.73822 C 131.44314,116.03941 131.71697,116.50474 131.91083,117.02519 C 132.10378,117.54494 132.28086,117.98293 132.555,118.96856 C 132.82824,119.95412 132.76392,119.51622 133.51962,122.58122"
         id="path85" />
      <path
         style="fill:none;stroke:#000000;stroke-width:1.875;stroke-miterlimit:4;stroke-dasharray:none"
         d="M 133.53029,122.57914 C 134.51153,126.38383 134.84965,127.3416 135.15587,128.19036 C 135.46214,129.03912 135.65546,129.23063 135.78401,129.42281 C 135.91342,129.61428 136.21942,129.88834 136.44588,129.86134 C 136.67139,129.83363 136.91394,129.72495 137.09271,129.42414 C 137.27151,129.12336 137.54551,128.65857 137.74051,128.13849 C 137.93466,127.61848 138.11273,127.18079 138.38908,126.19646 C 138.66454,125.2114 138.59922,125.64919 139.36267,122.58575"
         id="path87" />
      <path
         style="fill:none;stroke:#000000;stroke-width:1.875;stroke-miterlimit:4;stroke-dasharray:none"
         d="M 139.37335,122.58716 C 140.36315,118.78515 140.70338,117.82739 141.01065,116.97925 C 141.31793,116.13108 141.51257,115.93996 141.64156,115.74875 C 141.77138,115.55754 142.078,115.28411 142.30436,115.31159 C 142.52985,115.33904 142.77215,115.44893 142.95026,115.75007 C 143.12839,116.05121 143.4022,116.51659 143.59519,117.03704 C 143.78817,117.55677 143.96522,117.99478 144.23937,118.98041 C 144.51352,119.96602 144.4492,119.52809 145.20486,122.59307"
         id="path89" />
      <path
         style="fill:none;stroke:#000000;stroke-width:1.875;stroke-miterlimit:4;stroke-dasharray:none"
         d="M 145.2164,122.59099 C 146.19767,126.39571 146.53576,127.35343 146.84113,128.20219 C 147.14738,129.05097 147.34074,129.24253 147.46925,129.43467 C 147.59868,129.62613 147.90468,129.90019 148.13111,129.87317 C 148.35754,129.84546 148.60006,129.73678 148.77796,129.43599 C 148.95589,129.13521 149.23164,128.6704 149.42578,128.15036 C 149.61992,127.63031 149.79798,127.19264 150.07435,126.20829 C 150.35066,125.22327 150.28538,125.66102 151.04793,122.5976"
         id="path91" />
      <path
         style="fill:none;stroke:#000000;stroke-width:1.875;stroke-miterlimit:4;stroke-dasharray:none"
         d="M 151.04755,122.53977 C 152.03735,118.73772 152.37759,117.77998 152.68575,116.93182 C 152.99302,116.08369 153.18677,115.89255 153.31663,115.70132 C 153.44646,115.51014 153.75308,115.23673 153.97945,115.26418 C 154.20585,115.29165 154.4481,115.40152 154.62534,115.70267 C 154.80259,116.00383 155.07641,116.46918 155.27026,116.98963 C 155.46326,117.50937 155.64034,117.9474 155.91446,118.933 C 156.1877,119.91861 156.12338,119.48069 156.87904,122.54567"
         id="path2563" />
      <path
         style="fill:none;stroke:#000000;stroke-width:1.875;stroke-miterlimit:4;stroke-dasharray:none"
         d="M 156.88971,122.54359 C 157.87099,126.34828 158.20909,127.30605 158.51533,128.15481 C 158.8216,129.00357 159.01492,129.19512 159.14345,129.38726 C 159.27286,129.57873 159.57888,129.85278 159.8053,129.82579 C 160.03085,129.79808 160.27339,129.6894 160.45216,129.3886 C 160.63096,129.08781 160.90495,128.623 161.09996,128.10296 C 161.29501,127.5829 161.47218,127.14526 161.74853,126.16089 C 162.02398,125.17586 161.95866,125.61364 162.72125,122.55019"
         id="path2565" />
      <path
         style="fill:none;stroke:#000000;stroke-width:1.875;stroke-miterlimit:4;stroke-dasharray:none"
         d="M 162.73281,122.5516 C 163.72258,118.74957 164.06284,117.79183 164.371,116.94368 C 164.67915,116.09554 164.8729,115.9044 165.00187,115.71322 C 165.13174,115.52199 165.43836,115.24858 165.66471,115.27605 C 165.89021,115.3035 166.13246,115.41338 166.31061,115.71454 C 166.48872,116.0157 166.76166,116.48103 166.9555,117.00148 C 167.14937,117.52122 167.32559,117.95925 167.5997,118.94485 C 167.87296,119.93046 167.80864,119.49256 168.56521,122.55752"
         id="path2567" />
      <path
         style="fill:none;stroke:#000000;stroke-width:1.875;stroke-miterlimit:4;stroke-dasharray:none"
         d="M 168.57588,122.55542 C 169.55713,126.36017 169.89522,127.31785 170.20058,128.16666 C 170.50684,129.01542 170.7002,129.20695 170.82871,129.39911 C 170.95813,129.5906 171.26413,129.86464 171.49055,129.83766 C 171.71702,129.80995 171.95863,129.70125 172.13743,129.40043 C 172.31622,129.09964 172.59109,128.63487 172.78524,128.11481 C 172.97937,127.59477 173.15743,127.15711 173.4338,126.17278 C 173.71014,125.18839 173.64483,125.62549 174.40738,122.56205"
         id="path2569" />
      <path
         style="fill:none;stroke:#000000;stroke-width:1.875;stroke-miterlimit:4;stroke-dasharray:none"
         d="M 174.41804,122.56343 C 175.40784,118.76143 175.7481,117.80368 176.05536,116.95553 C 176.36264,116.10737 176.55728,115.91623 176.68625,115.72505 C 176.81609,115.53386 177.12358,115.26043 177.34909,115.28788 C 177.57545,115.31538 177.81772,115.42523 177.99498,115.72637 C 178.17219,116.02753 178.44692,116.49291 178.63986,117.01333 C 178.83288,117.53309 179.00995,117.9711 179.28408,118.95668 C 179.55823,119.94229 179.49389,119.50441 180.24957,122.56937"
         id="path2571" />
      <path
         style="fill:none;stroke:#000000;stroke-width:1.875;stroke-miterlimit:4;stroke-dasharray:none"
         d="M 180.26114,122.56729 C 181.24238,126.372 181.58049,127.32973 181.88672,128.17851 C 182.19209,129.02727 182.38632,129.21878 182.51485,129.41098 C 182.64424,129.60243 182.95026,129.87649 183.17672,129.84947 C 183.40315,129.82176 183.64567,129.7131 183.82357,129.41233 C 184.00147,129.11149 184.27637,128.64672 184.47138,128.12666 C 184.6664,127.60662 184.84359,127.16894 185.11993,126.18459 C 185.39628,125.19955 185.33096,125.63732 186.09356,122.57392"
         id="path2573" />
      <path
         style="fill:none;stroke:#000000;stroke-width:1.875;stroke-miterlimit:4;stroke-dasharray:none"
         d="M 186.10419,122.57528 C 187.09399,118.77328 187.43423,117.81553 187.74239,116.9674 C 188.05055,116.11925 188.24431,115.9281 188.37327,115.73692 C 188.50312,115.54569 188.80974,115.27226 189.03611,115.29973 C 189.26251,115.32719 189.50476,115.43706 189.68199,115.73822 C 189.85925,116.03941 190.13307,116.50474 190.32693,117.02519 C 190.51988,117.54494 190.69697,117.98293 190.9711,118.96856 C 191.24434,119.95412 191.18003,119.51622 191.93572,122.58122"
         id="path2575" />
      <path
         style="fill:none;stroke:#000000;stroke-width:1.875;stroke-miterlimit:4;stroke-dasharray:none"
         d="M 191.94639,122.57914 C 192.92763,126.38383 193.26575,127.3416 193.57197,128.19036 C 193.87824,129.03912 194.07156,129.23063 194.20011,129.42281 C 194.32952,129.61428 194.63553,129.88834 194.86198,129.86134 C 195.08749,129.83363 195.33005,129.72495 195.50881,129.42414 C 195.68762,129.12336 195.96161,128.65857 196.15662,128.13849 C 196.35076,127.61848 196.52884,127.18079 196.80518,126.19646 C 197.08064,125.2114 197.01532,125.64919 197.77877,122.58575"
         id="path2577" />
      <path
         style="fill:none;stroke:#000000;stroke-width:1.875;stroke-miterlimit:4;stroke-dasharray:none"
         d="M 197.78946,122.58716 C 198.77925,118.78515 199.11948,117.82739 199.42675,116.97925 C 199.73404,116.13108 199.92867,115.93996 200.05766,115.74875 C 200.18748,115.55754 200.4941,115.28411 200.72047,115.31159 C 200.94595,115.33904 201.18825,115.44893 201.36636,115.75007 C 201.54449,116.05121 201.8183,116.51659 202.01129,117.03704 C 202.20427,117.55677 202.38133,117.99478 202.65548,118.98041 C 202.92962,119.96602 202.8653,119.52809 203.62097,122.59307"
         id="path2579" />
      <path
         style="fill:none;stroke:#000000;stroke-width:1.875;stroke-miterlimit:4;stroke-dasharray:none"
         d="M 203.6325,122.59099 C 204.61378,126.39571 204.95187,127.35343 205.25723,128.20219 C 205.56349,129.05097 205.75684,129.24253 205.88536,129.43467 C 206.01478,129.62613 206.32079,129.90019 206.54721,129.87317 C 206.77364,129.84546 207.01616,129.73678 207.19406,129.43599 C 207.37199,129.13521 207.64775,128.6704 207.84188,128.15036 C 208.03603,127.63031 208.21408,127.19264 208.49046,126.20829 C 208.76676,125.22327 208.70148,125.66102 209.46404,122.5976"
         id="path2581" />
      <path
         style="fill:none;stroke:#000000;stroke-width:1.875;stroke-miterlimit:4;stroke-dasharray:none"
         d="M 209.4845,122.53977 C 210.4743,118.73772 210.81454,117.77998 211.1227,116.93182 C 211.42996,116.08369 211.62371,115.89255 211.75357,115.70132 C 211.88341,115.51014 212.19003,115.23673 212.41639,115.26418 C 212.64279,115.29165 212.88505,115.40152 213.06229,115.70267 C 213.23953,116.00383 213.51336,116.46918 213.7072,116.98963 C 213.9002,117.50937 214.07729,117.9474 214.3514,118.933 C 214.62465,119.91861 214.56033,119.48069 215.31599,122.54567"
         id="path2585" />
      <path
         style="fill:none;stroke:#000000;stroke-width:1.875;stroke-miterlimit:4;stroke-dasharray:none"
         d="M 215.32666,122.54359 C 216.30793,126.34828 216.64604,127.30605 216.95227,128.15481 C 217.25855,129.00357 217.45185,129.19512 217.5804,129.38726 C 217.70982,129.57873 218.01583,129.85278 218.24225,129.82579 C 218.46779,129.79808 218.71033,129.6894 218.8891,129.3886 C 219.06791,129.08781 219.34191,128.623 219.5369,128.10296 C 219.73195,127.5829 219.90913,127.14526 220.18549,126.16089 C 220.46093,125.17586 220.39561,125.61364 221.15818,122.55019"
         id="path2587" />
      <path
         style="fill:none;stroke:#000000;stroke-width:1.875;stroke-miterlimit:4;stroke-dasharray:none"
         d="M 221.16975,122.5516 C 222.15952,118.74957 222.49979,117.79183 222.80793,116.94368 C 223.11609,116.09554 223.30986,115.9044 223.43881,115.71322 C 223.56868,115.52199 223.87531,115.24858 224.10166,115.27605 C 224.32716,115.3035 224.56941,115.41338 224.74755,115.71454 C 224.92567,116.0157 225.19861,116.48103 225.39246,117.00148 C 225.58633,117.52122 225.76254,117.95925 226.03664,118.94485 C 226.3099,119.93046 226.24559,119.49256 227.00217,122.55752"
         id="path2589" />
      <path
         style="fill:none;stroke:#000000;stroke-width:1.875;stroke-miterlimit:4;stroke-dasharray:none"
         d="M 227.01282,122.55542 C 227.99408,126.36017 228.33216,127.31785 228.63753,128.16666 C 228.94378,129.01542 229.13713,129.20695 229.26566,129.39911 C 229.39507,129.5906 229.70107,129.86464 229.9275,129.83766 C 230.15396,129.80995 230.39559,129.70125 230.57438,129.40043 C 230.75317,129.09964 231.02803,128.63487 231.22218,128.11481 C 231.41631,127.59477 231.59437,127.15711 231.87075,126.17278 C 232.14708,125.18839 232.08178,125.62549 232.84433,122.56205"
         id="path2591" />
      <path
         style="fill:none;stroke:#000000;stroke-width:1.875;stroke-miterlimit:4;stroke-dasharray:none"
         d="M 232.85499,122.56343 C 233.8448,118.76143 234.18505,117.80368 234.4923,116.95553 C 234.79959,116.10737 234.99422,115.91623 235.12318,115.72505 C 235.25303,115.53386 235.56052,115.26043 235.78602,115.28788 C 236.0124,115.31538 236.25467,115.42523 236.43192,115.72637 C 236.60913,116.02753 236.88386,116.49291 237.0768,117.01333 C 237.26983,117.53309 237.44689,117.9711 237.72103,118.95668 C 237.99518,119.94229 237.93083,119.50441 238.68651,122.56937"
         id="path2593" />
      <path
         style="fill:none;stroke:#000000;stroke-width:1.875;stroke-miterlimit:4;stroke-dasharray:none"
         d="M 238.69808,122.56729 C 239.67933,126.372 240.01744,127.32973 240.32367,128.17851 C 240.62904,129.02727 240.82326,129.21878 240.95178,129.41098 C 241.0812,129.60243 241.38721,129.87649 241.61367,129.84947 C 241.84009,129.82176 242.08262,129.7131 242.26052,129.41233 C 242.4384,129.11149 242.71331,128.64672 242.90833,128.12666 C 243.10335,127.60662 243.28054,127.16894 243.55687,126.18459 C 243.83323,125.19955 243.7679,125.63732 244.53049,122.57392"
         id="path2595" />
      <path
         style="fill:none;stroke:#000000;stroke-width:1.875;stroke-miterlimit:4;stroke-dasharray:none"
         d="M 244.54113,122.57528 C 245.53094,118.77328 245.87117,117.81553 246.17933,116.9674 C 246.4875,116.11925 246.68126,115.9281 246.81022,115.73692 C 246.94006,115.54569 247.24669,115.27226 247.47306,115.29973 C 247.69945,115.32719 247.9417,115.43706 248.11894,115.73822 C 248.29619,116.03941 248.57001,116.50474 248.76388,117.02519 C 248.95682,117.54494 249.13392,117.98293 249.40805,118.96856 C 249.68128,119.95412 249.61698,119.51622 250.37266,122.58122"
         id="path2597" />
      <path
         style="fill:none;stroke:#000000;stroke-width:1.875;stroke-miterlimit:4;stroke-dasharray:none"
         d="M 250.38334,122.57914 C 251.36457,126.38383 251.7027,127.3416 252.00891,128.19036 C 252.31518,129.03912 252.50851,129.23063 252.63706,129.42281 C 252.76648,129.61428 253.07247,129.88834 253.29893,129.86134 C 253.52443,129.83363 253.76699,129.72495 253.94576,129.42414 C 254.12455,129.12336 254.39857,128.65857 254.59356,128.13849 C 254.78772,127.61848 254.96577,127.18079 255.24213,126.19646 C 255.51759,125.2114 255.45227,125.64919 256.21571,122.58575"
         id="path2599" />
      <path
         style="fill:none;stroke:#000000;stroke-width:1.875;stroke-miterlimit:4;stroke-dasharray:none"
         d="M 256.22639,122.58716 C 257.2162,118.78515 257.55643,117.82739 257.8637,116.97925 C 258.17098,116.13108 258.36563,115.93996 258.49461,115.74875 C 258.62443,115.55754 258.93106,115.28411 259.15741,115.31159 C 259.38289,115.33904 259.62518,115.44893 259.8033,115.75007 C 259.98145,116.05121 260.25524,116.51659 260.44823,117.03704 C 260.64121,117.55677 260.81827,117.99478 261.09241,118.98041 C 261.36656,119.96602 261.30225,119.52809 262.05791,122.59307"
         id="path2601" />
      <path
         style="fill:none;stroke:#000000;stroke-width:1.875;stroke-miterlimit:4;stroke-dasharray:none"
         d="M 262.06944,122.59099 C 263.05071,126.39571 263.38882,127.35343 263.69419,128.20219 C 264.00044,129.05097 264.19379,129.24253 264.3223,129.43467 C 264.45173,129.62613 264.75773,129.90019 264.98416,129.87317 C 265.21058,129.84546 265.45311,129.73678 265.63102,129.43599 C 265.80894,129.13521 266.08469,128.6704 266.27882,128.15036 C 266.47297,127.63031 266.65103,127.19264 266.92741,126.20829 C 267.2037,125.22327 267.13844,125.66102 267.90099,122.5976"
         id="path2603" />
      <path
         id="path3399"
         d="M 209.72703,121.65145 L 209.13048,123.86043"
         style="fill:none;fill-opacity:1;fill-rule:evenodd;stroke:#000000;stroke-width:1.875;stroke-linecap:butt;stroke-linejoin:miter;marker:none;marker-start:none;marker-mid:none;marker-end:none;stroke-miterlimit:4;stroke-dasharray:none;stroke-dashoffset:0;stroke-opacity:1;visibility:visible;display:inline;overflow:visible;enable-background:accumulate" />
      <path
         id="path3401"
         d="M 151.29905,121.71569 L 150.70251,123.92467"
         style="fill:none;fill-opacity:1;fill-rule:evenodd;stroke:#000000;stroke-width:1.875;stroke-linecap:butt;stroke-linejoin:miter;marker:none;marker-start:none;marker-mid:none;marker-end:none;stroke-miterlimit:4;stroke-dasharray:none;stroke-dashoffset:0;stroke-opacity:1;visibility:visible;display:inline;overflow:visible;enable-background:accumulate" />
    </g>
    <g
       id="g4154"
       transform="translate(0,0.3803711)">
      <path
         style="fill:none;stroke:#000000;stroke-width:1.875;stroke-miterlimit:4;stroke-dasharray:none"
         d="M 91.774935,145.67457 C 92.517281,141.88311 92.772463,140.92803 93.003579,140.08223 C 93.234031,139.23646 93.379343,139.04585 93.476735,138.85516 C 93.574113,138.6645 93.804076,138.39185 93.973851,138.41923 C 94.143649,138.44663 94.32534,138.55619 94.458272,138.85649 C 94.591203,139.15682 94.796572,139.62088 94.941953,140.13988 C 95.086702,140.65817 95.219517,141.09498 95.425101,142.07784 C 95.630036,143.06071 95.581798,142.624 96.148542,145.68045"
         id="path3407" />
      <path
         style="fill:none;stroke:#000000;stroke-width:1.875;stroke-miterlimit:4;stroke-dasharray:none"
         d="M 96.156543,145.67838 C 96.892496,149.47248 97.146074,150.42758 97.37575,151.27398 C 97.605451,152.12038 97.750444,152.3114 97.846842,152.503 C 97.943901,152.69394 98.173414,152.96723 98.34323,152.94031 C 98.512389,152.91268 98.694291,152.8043 98.828366,152.50434 C 98.962466,152.20438 99.167965,151.74087 99.314217,151.22228 C 99.460503,150.70366 99.593381,150.26724 99.800649,149.28561 C 100.00723,148.30333 99.958242,148.73988 100.53018,145.68497"
         id="path3409" />
      <path
         style="fill:none;stroke:#000000;stroke-width:1.875;stroke-miterlimit:4;stroke-dasharray:none"
         d="M 100.53886,145.68637 C 101.28118,141.89492 101.53637,140.93985 101.76749,140.09405 C 101.9986,139.24828 102.14392,139.05767 102.24064,138.86702 C 102.33804,138.67632 102.56801,138.40367 102.73777,138.43107 C 102.90689,138.45844 103.08858,138.56801 103.22219,138.86834 C 103.35578,139.16866 103.56048,139.6327 103.70586,140.1517 C 103.85126,140.66999 103.98342,141.1068 104.18901,142.08966 C 104.39396,143.07252 104.34572,142.63584 104.91314,145.69227"
         id="path3411" />
      <path
         style="fill:none;stroke:#000000;stroke-width:1.875;stroke-miterlimit:4;stroke-dasharray:none"
         d="M 104.92114,145.69017 C 105.65708,149.48434 105.91065,150.43936 106.13966,151.2858 C 106.36936,152.1322 106.51437,152.3232 106.61076,152.51482 C 106.70782,152.70578 106.93732,152.97905 107.10714,152.95215 C 107.27699,152.92452 107.4582,152.81612 107.5923,152.51614 C 107.72639,152.21618 107.93254,151.75271 108.07815,151.2341 C 108.22375,150.7155 108.35729,150.27906 108.56457,149.29747 C 108.77182,148.31582 108.72284,148.7517 109.29475,145.69679"
         id="path3413" />
      <path
         style="fill:none;stroke:#000000;stroke-width:1.875;stroke-miterlimit:4;stroke-dasharray:none"
         d="M 109.30275,145.69817 C 110.0451,141.90674 110.30029,140.95166 110.53073,140.10587 C 110.76119,139.26008 110.90717,139.06947 111.0039,138.87881 C 111.10128,138.68816 111.33189,138.41549 111.50103,138.44287 C 111.6708,138.47029 111.8525,138.57983 111.98545,138.88013 C 112.11835,139.18046 112.3244,139.64454 112.4691,140.16352 C 112.61387,140.68183 112.74667,141.11862 112.95227,142.10146 C 113.15788,143.08432 113.10962,142.64766 113.67638,145.70409"
         id="path3415" />
      <path
         style="fill:none;stroke:#000000;stroke-width:1.875;stroke-miterlimit:4;stroke-dasharray:none"
         d="M 113.68506,145.70201 C 114.42099,149.49614 114.67457,150.4512 114.90424,151.29762 C 115.13327,152.14402 115.27894,152.33499 115.37533,152.52666 C 115.47238,152.71757 115.70189,152.99087 115.87174,152.96393 C 116.04156,152.93629 116.22345,152.82794 116.35687,152.528 C 116.49029,152.228 116.69647,151.76453 116.84273,151.24591 C 116.989,150.72732 117.12188,150.29086 117.32914,149.30925 C 117.5364,148.32694 117.48741,148.7635 118.05936,145.70863"
         id="path3417" />
      <path
         style="fill:none;stroke:#000000;stroke-width:1.875;stroke-miterlimit:4;stroke-dasharray:none"
         d="M 118.06734,145.70999 C 118.80968,141.91856 119.06486,140.96348 119.29598,140.11771 C 119.5271,139.27192 119.67242,139.08131 119.76914,138.89065 C 119.86653,138.69996 120.09649,138.42729 120.26626,138.45469 C 120.43606,138.48206 120.61775,138.59163 120.75067,138.89195 C 120.88361,139.1923 121.08898,139.65633 121.23438,140.17533 C 121.37909,140.69364 121.5119,141.13041 121.7175,142.1133 C 121.92244,143.09612 121.8742,142.65944 122.44097,145.71591"
         id="path3419" />
      <path
         style="fill:none;stroke:#000000;stroke-width:1.875;stroke-miterlimit:4;stroke-dasharray:none"
         d="M 122.44897,145.71383 C 123.1849,149.50794 123.43849,150.46304 123.66815,151.30944 C 123.89785,152.15584 124.04284,152.34681 124.13926,152.53846 C 124.23631,152.72939 124.46581,153.00269 124.63565,152.97577 C 124.80479,152.94813 124.9867,152.83976 125.12078,152.53978 C 125.25488,152.23984 125.46038,151.77634 125.60663,151.25771 C 125.75224,150.73914 125.88579,150.30268 126.09305,149.32109 C 126.29965,148.33876 126.25066,148.77534 126.82324,145.72042"
         id="path3421" />
      <path
         style="fill:none;stroke:#000000;stroke-width:1.875;stroke-miterlimit:4;stroke-dasharray:none"
         d="M 126.83126,145.72183 C 127.5736,141.9304 127.82877,140.9753 128.05922,140.12953 C 128.28969,139.28371 128.43566,139.09313 128.5324,138.90245 C 128.62977,138.71178 128.85973,138.43911 129.02951,138.4665 C 129.19862,138.49388 129.38034,138.60347 129.51393,138.90377 C 129.64752,139.20407 129.85288,139.66815 129.99762,140.18715 C 130.14236,140.70544 130.27515,141.14223 130.48076,142.12512 C 130.68637,143.10798 130.63813,142.67128 131.20487,145.72773"
         id="path3423" />
      <path
         style="fill:none;stroke:#000000;stroke-width:1.875;stroke-miterlimit:4;stroke-dasharray:none"
         d="M 131.21353,145.72565 C 131.94948,149.51978 132.20305,150.47483 132.43207,151.32123 C 132.66176,152.16765 132.80678,152.35867 132.90316,152.55028 C 133.00023,152.74121 133.22973,153.01451 133.39955,152.98756 C 133.56938,152.95993 133.75126,152.85155 133.88469,152.5516 C 134.01813,152.25166 134.22495,151.78814 134.37055,151.26955 C 134.51616,150.75094 134.6497,150.31449 134.85698,149.33288 C 135.06421,148.3506 135.01525,148.78713 135.58716,145.73224"
         id="path3425" />
      <path
         style="fill:none;stroke:#000000;stroke-width:1.875;stroke-miterlimit:4;stroke-dasharray:none"
         d="M 135.58689,145.67457 C 136.32923,141.88311 136.58442,140.92803 136.81553,140.08223 C 137.04598,139.23646 137.1913,139.04585 137.28869,138.85516 C 137.38607,138.6645 137.61603,138.39185 137.7858,138.41923 C 137.9556,138.44663 138.13729,138.55619 138.27022,138.85649 C 138.40316,139.15682 138.60853,139.62088 138.75391,140.13988 C 138.89865,140.65817 139.03147,141.09498 139.23705,142.07784 C 139.44199,143.06071 139.39375,142.624 139.9605,145.68045"
         id="path3429" />
      <path
         style="fill:none;stroke:#000000;stroke-width:1.875;stroke-miterlimit:4;stroke-dasharray:none"
         d="M 139.9685,145.67838 C 140.70445,149.47248 140.95803,150.42758 141.1877,151.27398 C 141.4174,152.12038 141.5624,152.3114 141.65879,152.503 C 141.75585,152.69394 141.98537,152.96723 142.15518,152.94031 C 142.32434,152.91268 142.50624,152.8043 142.64032,152.50434 C 142.77442,152.20438 142.97992,151.74087 143.12617,151.22228 C 143.27246,150.70366 143.40533,150.26724 143.6126,149.28561 C 143.81919,148.30333 143.77019,148.73988 144.34213,145.68497"
         id="path3431" />
      <path
         style="fill:none;stroke:#000000;stroke-width:1.875;stroke-miterlimit:4;stroke-dasharray:none"
         d="M 144.35081,145.68637 C 145.09313,141.89492 145.34832,140.93985 145.57944,140.09405 C 145.81056,139.24828 145.95587,139.05767 146.05259,138.86702 C 146.15,138.67632 146.37996,138.40367 146.54972,138.43107 C 146.71884,138.45844 146.90053,138.56801 147.03414,138.86834 C 147.16773,139.16866 147.37243,139.6327 147.51781,140.1517 C 147.66322,140.66999 147.79538,141.1068 148.00096,142.08966 C 148.20591,143.07252 148.15767,142.63584 148.72509,145.69227"
         id="path3433" />
      <path
         style="fill:none;stroke:#000000;stroke-width:1.875;stroke-miterlimit:4;stroke-dasharray:none"
         d="M 148.73309,145.69017 C 149.46903,149.48434 149.7226,150.43936 149.95161,151.2858 C 150.18131,152.1322 150.32633,152.3232 150.42271,152.51482 C 150.51977,152.70578 150.74927,152.97905 150.91909,152.95215 C 151.08894,152.92452 151.27015,152.81612 151.40425,152.51614 C 151.53834,152.21618 151.74449,151.75271 151.8901,151.2341 C 152.0357,150.7155 152.16924,150.27906 152.37652,149.29747 C 152.58378,148.31582 152.53479,148.7517 153.1067,145.69679"
         id="path3435" />
      <path
         style="fill:none;stroke:#000000;stroke-width:1.875;stroke-miterlimit:4;stroke-dasharray:none"
         d="M 153.1147,145.69817 C 153.85705,141.90674 154.11224,140.95166 154.34268,140.10587 C 154.57315,139.26008 154.71912,139.06947 154.81585,138.87881 C 154.91323,138.68816 155.14384,138.41549 155.31298,138.44287 C 155.48275,138.47029 155.66446,138.57983 155.7974,138.88013 C 155.93031,139.18046 156.13635,139.64454 156.28106,140.16352 C 156.42582,140.68183 156.55862,141.11862 156.76422,142.10146 C 156.96983,143.08432 156.92158,142.64766 157.48833,145.70409"
         id="path3437" />
      <path
         style="fill:none;stroke:#000000;stroke-width:1.875;stroke-miterlimit:4;stroke-dasharray:none"
         d="M 157.49701,145.70201 C 158.23294,149.49614 158.48652,150.4512 158.7162,151.29762 C 158.94522,152.14402 159.09089,152.33499 159.18729,152.52666 C 159.28433,152.71757 159.51385,152.99087 159.68369,152.96393 C 159.85351,152.93629 160.0354,152.82794 160.16882,152.528 C 160.30225,152.228 160.50842,151.76453 160.65469,151.24591 C 160.80095,150.72732 160.93384,150.29086 161.14109,149.30925 C 161.34836,148.32694 161.29936,148.7635 161.87131,145.70863"
         id="path3439" />
      <path
         style="fill:none;stroke:#000000;stroke-width:1.875;stroke-miterlimit:4;stroke-dasharray:none"
         d="M 161.87929,145.70999 C 162.62163,141.91856 162.87682,140.96348 163.10793,140.11771 C 163.33905,139.27192 163.48437,139.08131 163.58109,138.89065 C 163.67848,138.69996 163.90844,138.42729 164.07822,138.45469 C 164.24801,138.48206 164.4297,138.59163 164.56263,138.89195 C 164.69557,139.1923 164.90094,139.65633 165.04633,140.17533 C 165.19104,140.69364 165.32386,141.13041 165.52945,142.1133 C 165.73439,143.09612 165.68615,142.65944 166.25292,145.71591"
         id="path3441" />
      <path
         style="fill:none;stroke:#000000;stroke-width:1.875;stroke-miterlimit:4;stroke-dasharray:none"
         d="M 166.26092,145.71383 C 166.99685,149.50794 167.25044,150.46304 167.4801,151.30944 C 167.7098,152.15584 167.8548,152.34681 167.95121,152.53846 C 168.04827,152.72939 168.27777,153.00269 168.44761,152.97577 C 168.61674,152.94813 168.79866,152.83976 168.93273,152.53978 C 169.06683,152.23984 169.27233,151.77634 169.41858,151.25771 C 169.56419,150.73914 169.69775,150.30268 169.905,149.32109 C 170.1116,148.33876 170.06261,148.77534 170.6352,145.72042"
         id="path3443" />
      <path
         style="fill:none;stroke:#000000;stroke-width:1.875;stroke-miterlimit:4;stroke-dasharray:none"
         d="M 170.64321,145.72183 C 171.38555,141.9304 171.64072,140.9753 171.87117,140.12953 C 172.10164,139.28371 172.24762,139.09313 172.34435,138.90245 C 172.44172,138.71178 172.67168,138.43911 172.84146,138.4665 C 173.01057,138.49388 173.19229,138.60347 173.32588,138.90377 C 173.45948,139.20407 173.66483,139.66815 173.80957,140.18715 C 173.95431,140.70544 174.0871,141.14223 174.29271,142.12512 C 174.49832,143.10798 174.45008,142.67128 175.01683,145.72773"
         id="path3445" />
      <path
         style="fill:none;stroke:#000000;stroke-width:1.875;stroke-miterlimit:4;stroke-dasharray:none"
         d="M 175.02548,145.72565 C 175.76143,149.51978 176.015,150.47483 176.24402,151.32123 C 176.47371,152.16765 176.61873,152.35867 176.71512,152.55028 C 176.81219,152.74121 177.04169,153.01451 177.2115,152.98756 C 177.38133,152.95993 177.56322,152.85155 177.69664,152.5516 C 177.83009,152.25166 178.0369,151.78814 178.1825,151.26955 C 178.32811,150.75094 178.46165,150.31449 178.66893,149.33288 C 178.87616,148.3506 178.8272,148.78713 179.39912,145.73224"
         id="path3447" />
      <path
         style="fill:none;stroke:#000000;stroke-width:1.875;stroke-miterlimit:4;stroke-dasharray:none"
         d="M 179.41446,145.67457 C 180.15681,141.88311 180.41199,140.92803 180.64311,140.08223 C 180.87356,139.23646 181.01887,139.04585 181.11626,138.85516 C 181.21364,138.6645 181.4436,138.39185 181.61338,138.41923 C 181.78318,138.44663 181.96487,138.55619 182.0978,138.85649 C 182.23073,139.15682 182.4361,139.62088 182.58148,140.13988 C 182.72623,140.65817 182.85904,141.09498 183.06463,142.07784 C 183.26956,143.06071 183.22133,142.624 183.78807,145.68045"
         id="path3451" />
      <path
         style="fill:none;stroke:#000000;stroke-width:1.875;stroke-miterlimit:4;stroke-dasharray:none"
         d="M 183.79607,145.67838 C 184.53202,149.47248 184.7856,150.42758 185.01528,151.27398 C 185.24498,152.12038 185.38997,152.3114 185.48637,152.503 C 185.58343,152.69394 185.81294,152.96723 185.98276,152.94031 C 186.15192,152.91268 186.33382,152.8043 186.46789,152.50434 C 186.60199,152.20438 186.80749,151.74087 186.95374,151.22228 C 187.10003,150.70366 187.23291,150.26724 187.44018,149.28561 C 187.64676,148.30333 187.59777,148.73988 188.16971,145.68497"
         id="path3453" />
      <path
         style="fill:none;stroke:#000000;stroke-width:1.875;stroke-miterlimit:4;stroke-dasharray:none"
         d="M 188.17838,145.68637 C 188.9207,141.89492 189.1759,140.93985 189.40701,140.09405 C 189.63813,139.24828 189.78344,139.05767 189.88017,138.86702 C 189.97757,138.67632 190.20753,138.40367 190.3773,138.43107 C 190.54642,138.45844 190.72811,138.56801 190.86172,138.86834 C 190.9953,139.16866 191.20001,139.6327 191.34539,140.1517 C 191.49079,140.66999 191.62295,141.1068 191.82854,142.08966 C 192.03348,143.07252 191.98524,142.63584 192.55267,145.69227"
         id="path3455" />
      <path
         style="fill:none;stroke:#000000;stroke-width:1.875;stroke-miterlimit:4;stroke-dasharray:none"
         d="M 192.56067,145.69017 C 193.29661,149.48434 193.55017,150.43936 193.77919,151.2858 C 194.00889,152.1322 194.1539,152.3232 194.25029,152.51482 C 194.34735,152.70578 194.57685,152.97905 194.74666,152.95215 C 194.91651,152.92452 195.09773,152.81612 195.23183,152.51614 C 195.36591,152.21618 195.57206,151.75271 195.71768,151.2341 C 195.86327,150.7155 195.99682,150.27906 196.20409,149.29747 C 196.41135,148.31582 196.36237,148.7517 196.93428,145.69679"
         id="path3457" />
      <path
         style="fill:none;stroke:#000000;stroke-width:1.875;stroke-miterlimit:4;stroke-dasharray:none"
         d="M 196.94228,145.69817 C 197.68463,141.90674 197.93982,140.95166 198.17026,140.10587 C 198.40072,139.26008 198.5467,139.06947 198.64342,138.87881 C 198.7408,138.68816 198.97142,138.41549 199.14055,138.44287 C 199.31033,138.47029 199.49203,138.57983 199.62497,138.88013 C 199.75788,139.18046 199.96393,139.64454 200.10863,140.16352 C 200.25339,140.68183 200.38619,141.11862 200.59179,142.10146 C 200.7974,143.08432 200.74915,142.64766 201.31591,145.70409"
         id="path3459" />
      <path
         style="fill:none;stroke:#000000;stroke-width:1.875;stroke-miterlimit:4;stroke-dasharray:none"
         d="M 201.32459,145.70201 C 202.06051,149.49614 202.31409,150.4512 202.54377,151.29762 C 202.7728,152.14402 202.91846,152.33499 203.01486,152.52666 C 203.11191,152.71757 203.34142,152.99087 203.51126,152.96393 C 203.68109,152.93629 203.86297,152.82794 203.9964,152.528 C 204.12982,152.228 204.336,151.76453 204.48226,151.24591 C 204.62852,150.72732 204.76141,150.29086 204.96867,149.30925 C 205.17593,148.32694 205.12694,148.7635 205.69889,145.70863"
         id="path3461" />
      <path
         style="fill:none;stroke:#000000;stroke-width:1.875;stroke-miterlimit:4;stroke-dasharray:none"
         d="M 205.70686,145.70999 C 206.44921,141.91856 206.70439,140.96348 206.93551,140.11771 C 207.16662,139.27192 207.31195,139.08131 207.40866,138.89065 C 207.50605,138.69996 207.73602,138.42729 207.90579,138.45469 C 208.07559,138.48206 208.25728,138.59163 208.3902,138.89195 C 208.52314,139.1923 208.72851,139.65633 208.8739,140.17533 C 209.01862,140.69364 209.15143,141.13041 209.35703,142.1133 C 209.56196,143.09612 209.51373,142.65944 210.08049,145.71591"
         id="path3463" />
      <path
         style="fill:none;stroke:#000000;stroke-width:1.875;stroke-miterlimit:4;stroke-dasharray:none"
         d="M 210.08849,145.71383 C 210.82442,149.50794 211.07801,150.46304 211.30768,151.30944 C 211.53738,152.15584 211.68237,152.34681 211.77878,152.53846 C 211.87584,152.72939 212.10534,153.00269 212.27518,152.97577 C 212.44432,152.94813 212.62623,152.83976 212.76031,152.53978 C 212.89441,152.23984 213.09991,151.77634 213.24616,151.25771 C 213.39177,150.73914 213.52532,150.30268 213.73258,149.32109 C 213.93917,148.33876 213.89018,148.77534 214.46277,145.72042"
         id="path3465" />
      <path
         style="fill:none;stroke:#000000;stroke-width:1.875;stroke-miterlimit:4;stroke-dasharray:none"
         d="M 214.47078,145.72183 C 215.21312,141.9304 215.46829,140.9753 215.69874,140.12953 C 215.92921,139.28371 216.07518,139.09313 216.17194,138.90245 C 216.26929,138.71178 216.49927,138.43911 216.66903,138.4665 C 216.83814,138.49388 217.01987,138.60347 217.15346,138.90377 C 217.28705,139.20407 217.4924,139.66815 217.63716,140.18715 C 217.78188,140.70544 217.91467,141.14223 218.12029,142.12512 C 218.3259,143.10798 218.27765,142.67128 218.8444,145.72773"
         id="path3467" />
      <path
         style="fill:none;stroke:#000000;stroke-width:1.875;stroke-miterlimit:4;stroke-dasharray:none"
         d="M 218.85307,145.72565 C 219.58901,149.51978 219.84258,150.47483 220.07161,151.32123 C 220.30128,152.16765 220.4463,152.35867 220.54269,152.55028 C 220.63976,152.74121 220.86926,153.01451 221.03907,152.98756 C 221.20889,152.95993 221.39079,152.85155 221.52421,152.5516 C 221.65765,152.25166 221.86449,151.78814 222.01007,151.26955 C 222.15569,150.75094 222.28922,150.31449 222.49651,149.33288 C 222.70373,148.3506 222.65477,148.78713 223.22669,145.73224"
         id="path3469" />
      <path
         style="fill:none;stroke:#000000;stroke-width:1.875;stroke-miterlimit:4;stroke-dasharray:none"
         d="M 223.23751,145.67457 C 223.97986,141.88311 224.23505,140.92803 224.46617,140.08223 C 224.69662,139.23646 224.84192,139.04585 224.93932,138.85516 C 225.0367,138.6645 225.26666,138.39185 225.43644,138.41923 C 225.60624,138.44663 225.78793,138.55619 225.92085,138.85649 C 226.05379,139.15682 226.25916,139.62088 226.40454,140.13988 C 226.54928,140.65817 226.6821,141.09498 226.88768,142.07784 C 227.09261,143.06071 227.04439,142.624 227.61112,145.68045"
         id="path3473" />
      <path
         style="fill:none;stroke:#000000;stroke-width:1.875;stroke-miterlimit:4;stroke-dasharray:none"
         d="M 227.61913,145.67838 C 228.35508,149.47248 228.60865,150.42758 228.83835,151.27398 C 229.06804,152.12038 229.21304,152.3114 229.30943,152.503 C 229.40648,152.69394 229.636,152.96723 229.80583,152.94031 C 229.97498,152.91268 230.15688,152.8043 230.29095,152.50434 C 230.42506,152.20438 230.63055,151.74087 230.77681,151.22228 C 230.92308,150.70366 231.05596,150.26724 231.26323,149.28561 C 231.46982,148.30333 231.42082,148.73988 231.99276,145.68497"
         id="path3475" />
      <path
         style="fill:none;stroke:#000000;stroke-width:1.875;stroke-miterlimit:4;stroke-dasharray:none"
         d="M 232.00144,145.68637 C 232.74377,141.89492 232.99896,140.93985 233.23008,140.09405 C 233.4612,139.24828 233.6065,139.05767 233.70323,138.86702 C 233.80063,138.67632 234.03058,138.40367 234.20037,138.43107 C 234.36948,138.45844 234.55116,138.56801 234.68478,138.86834 C 234.81837,139.16866 235.02306,139.6327 235.16845,140.1517 C 235.31384,140.66999 235.446,141.1068 235.65159,142.08966 C 235.85654,143.07252 235.8083,142.63584 236.37572,145.69227"
         id="path3477" />
      <path
         style="fill:none;stroke:#000000;stroke-width:1.875;stroke-miterlimit:4;stroke-dasharray:none"
         d="M 236.38373,145.69017 C 237.11966,149.48434 237.37323,150.43936 237.60225,151.2858 C 237.83195,152.1322 237.97697,152.3232 238.07335,152.51482 C 238.17041,152.70578 238.39991,152.97905 238.56973,152.95215 C 238.73958,152.92452 238.92079,152.81612 239.05488,152.51614 C 239.18897,152.21618 239.39513,151.75271 239.54074,151.2341 C 239.68634,150.7155 239.81987,150.27906 240.02716,149.29747 C 240.2344,148.31582 240.18542,148.7517 240.75733,145.69679"
         id="path3479" />
      <path
         style="fill:none;stroke:#000000;stroke-width:1.875;stroke-miterlimit:4;stroke-dasharray:none"
         d="M 240.76533,145.69817 C 241.50767,141.90674 241.76288,140.95166 241.99331,140.10587 C 242.22379,139.26008 242.36976,139.06947 242.46649,138.87881 C 242.56387,138.68816 242.79447,138.41549 242.9636,138.44287 C 243.13338,138.47029 243.31509,138.57983 243.44803,138.88013 C 243.58093,139.18046 243.78699,139.64454 243.93169,140.16352 C 244.07645,140.68183 244.20926,141.11862 244.41485,142.10146 C 244.62047,143.08432 244.5722,142.64766 245.13898,145.70409"
         id="path3481" />
      <path
         style="fill:none;stroke:#000000;stroke-width:1.875;stroke-miterlimit:4;stroke-dasharray:none"
         d="M 245.14764,145.70201 C 245.88357,149.49614 246.13716,150.4512 246.36683,151.29762 C 246.59586,152.14402 246.74152,152.33499 246.83791,152.52666 C 246.93496,152.71757 247.16449,152.99087 247.33431,152.96393 C 247.50414,152.93629 247.68604,152.82794 247.81946,152.528 C 247.95287,152.228 248.15906,151.76453 248.30531,151.24591 C 248.45159,150.72732 248.58446,150.29086 248.79173,149.30925 C 248.999,148.32694 248.95,148.7635 249.52196,145.70863"
         id="path3483" />
      <path
         style="fill:none;stroke:#000000;stroke-width:1.875;stroke-miterlimit:4;stroke-dasharray:none"
         d="M 249.52993,145.70999 C 250.27227,141.91856 250.52744,140.96348 250.75856,140.11771 C 250.98968,139.27192 251.13501,139.08131 251.23171,138.89065 C 251.32911,138.69996 251.55907,138.42729 251.72885,138.45469 C 251.89865,138.48206 252.08034,138.59163 252.21326,138.89195 C 252.3462,139.1923 252.55157,139.65633 252.69696,140.17533 C 252.84167,140.69364 252.97449,141.13041 253.18009,142.1133 C 253.38503,143.09612 253.33678,142.65944 253.90355,145.71591"
         id="path3485" />
      <path
         style="fill:none;stroke:#000000;stroke-width:1.875;stroke-miterlimit:4;stroke-dasharray:none"
         d="M 253.91155,145.71383 C 254.64747,149.50794 254.90106,150.46304 255.13074,151.30944 C 255.36043,152.15584 255.50543,152.34681 255.60184,152.53846 C 255.69889,152.72939 255.92839,153.00269 256.09824,152.97577 C 256.26737,152.94813 256.4493,152.83976 256.58336,152.53978 C 256.71747,152.23984 256.92297,151.77634 257.06922,151.25771 C 257.21482,150.73914 257.34837,150.30268 257.55564,149.32109 C 257.76224,148.33876 257.71323,148.77534 258.28582,145.72042"
         id="path3487" />
      <path
         style="fill:none;stroke:#000000;stroke-width:1.875;stroke-miterlimit:4;stroke-dasharray:none"
         d="M 258.29384,145.72183 C 259.03618,141.9304 259.29135,140.9753 259.5218,140.12953 C 259.75227,139.28371 259.89824,139.09313 259.995,138.90245 C 260.09235,138.71178 260.32233,138.43911 260.49209,138.4665 C 260.6612,138.49388 260.84293,138.60347 260.97652,138.90377 C 261.11011,139.20407 261.31545,139.66815 261.46022,140.18715 C 261.60493,140.70544 261.73773,141.14223 261.94335,142.12512 C 262.14896,143.10798 262.10071,142.67128 262.66746,145.72773"
         id="path3489" />
      <path
         style="fill:none;stroke:#000000;stroke-width:1.875;stroke-miterlimit:4;stroke-dasharray:none"
         d="M 262.67612,145.72565 C 263.41207,149.51978 263.66564,150.47483 263.89467,151.32123 C 264.12434,152.16765 264.26936,152.35867 264.36575,152.55028 C 264.46282,152.74121 264.69232,153.01451 264.86213,152.98756 C 265.03195,152.95993 265.21385,152.85155 265.34727,152.5516 C 265.48071,152.25166 265.68755,151.78814 265.83313,151.26955 C 265.97875,150.75094 266.11228,150.31449 266.31957,149.33288 C 266.52679,148.3506 266.47783,148.78713 267.04975,145.73224"
         id="path3491" />
      <path
         id="path3493"
         d="M 223.41901,144.78166 L 222.97161,146.98449"
         style="fill:none;fill-opacity:1;fill-rule:evenodd;stroke:#000000;stroke-width:1.875;stroke-linecap:butt;stroke-linejoin:miter;marker:none;marker-start:none;marker-mid:none;marker-end:none;stroke-miterlimit:4;stroke-dasharray:none;stroke-dashoffset:0;stroke-opacity:1;visibility:visible;display:inline;overflow:visible;enable-background:accumulate" />
      <path
         id="path3495"
         d="M 179.5963,144.78872 L 179.14889,146.99156"
         style="fill:none;fill-opacity:1;fill-rule:evenodd;stroke:#000000;stroke-width:1.875;stroke-linecap:butt;stroke-linejoin:miter;marker:none;marker-start:none;marker-mid:none;marker-end:none;stroke-miterlimit:4;stroke-dasharray:none;stroke-dashoffset:0;stroke-opacity:1;visibility:visible;display:inline;overflow:visible;enable-background:accumulate" />
      <path
         id="path3497"
         d="M 135.77545,144.85278 L 135.32805,147.05562"
         style="fill:none;fill-opacity:1;fill-rule:evenodd;stroke:#000000;stroke-width:1.875;stroke-linecap:butt;stroke-linejoin:miter;marker:none;marker-start:none;marker-mid:none;marker-end:none;stroke-miterlimit:4;stroke-dasharray:none;stroke-dashoffset:0;stroke-opacity:1;visibility:visible;display:inline;overflow:visible;enable-background:accumulate" />
    </g>
    <g
       id="g4106"
       transform="translate(8.926665,-71.056253)">
      <path
         style="fill:none;stroke:#000000;stroke-width:1.875;stroke-miterlimit:4;stroke-dasharray:none"
         d="M 81.8479,240.62613 C 82.630066,236.85683 82.898934,235.90733 83.142449,235.06648 C 83.385261,234.22565 83.538368,234.03615 83.640984,233.84657 C 83.743586,233.65703 83.985884,233.38597 84.164765,233.41319 C 84.343672,233.44043 84.535108,233.54935 84.67517,233.8479 C 84.815233,234.14648 85.031618,234.60783 85.184796,235.12378 C 85.337309,235.63905 85.477248,236.0733 85.69386,237.05042 C 85.909787,238.02754 85.858961,237.59338 86.456107,240.63197"
         id="path3120" />
      <path
         style="fill:none;stroke:#000000;stroke-width:1.875;stroke-miterlimit:4;stroke-dasharray:none"
         d="M 86.464536,240.62991 C 87.239965,244.40184 87.507146,245.35135 87.74914,246.1928 C 87.991164,247.03426 88.143933,247.22416 88.245501,247.41464 C 88.347767,247.60447 88.589592,247.87616 88.768516,247.84939 C 88.946749,247.82192 89.138407,247.71418 89.279674,247.41597 C 89.420969,247.11777 89.637489,246.65696 89.791586,246.1414 C 89.94572,245.62582 90.085726,245.19195 90.30411,244.21605 C 90.521776,243.23952 90.470156,243.67352 91.07277,240.63646"
         id="path3122" />
      <path
         style="fill:none;stroke:#000000;stroke-width:1.875;stroke-miterlimit:4;stroke-dasharray:none"
         d="M 91.081916,240.63786 C 91.864053,236.86856 92.132932,235.91908 92.376449,235.07823 C 92.619966,234.23739 92.773071,234.04791 92.874989,233.85837 C 92.977613,233.66879 93.219908,233.39773 93.398774,233.42496 C 93.576965,233.45217 93.768412,233.5611 93.909178,233.85968 C 94.049934,234.15825 94.265614,234.61957 94.418792,235.13553 C 94.572002,235.6508 94.711251,236.08506 94.927858,237.06217 C 95.143802,238.03929 95.092974,237.60515 95.69083,240.64373"
         id="path3124" />
      <path
         style="fill:none;stroke:#000000;stroke-width:1.875;stroke-miterlimit:4;stroke-dasharray:none"
         d="M 95.69926,240.64163 C 96.474674,244.41362 96.741846,245.36306 96.983137,246.20456 C 97.225162,247.04601 97.377959,247.23589 97.479521,247.4264 C 97.581777,247.61624 97.823601,247.88791 98.002518,247.86117 C 98.181473,247.8337 98.372408,247.72593 98.513697,247.4277 C 98.654985,247.1295 98.872186,246.66874 99.025609,246.15315 C 99.179023,245.63759 99.319725,245.2037 99.538122,244.22785 C 99.756496,243.25194 99.704882,243.68527 100.30747,240.64821"
         id="path3126" />
      <path
         style="fill:none;stroke:#000000;stroke-width:1.875;stroke-miterlimit:4;stroke-dasharray:none"
         d="M 100.31589,240.64959 C 101.09806,236.88031 101.36695,235.93082 101.60974,235.08998 C 101.85258,234.24912 102.00638,234.05964 102.1083,233.87009 C 102.2109,233.68055 102.45388,233.40948 102.63209,233.4367 C 102.81096,233.46395 103.00242,233.57286 103.14249,233.8714 C 103.28253,234.16998 103.49963,234.63134 103.6521,235.14729 C 103.80463,235.66256 103.94455,236.09681 104.16117,237.0739 C 104.37782,238.05102 104.32698,237.61691 104.92413,240.65547"
         id="path3128" />
      <path
         style="fill:none;stroke:#000000;stroke-width:1.875;stroke-miterlimit:4;stroke-dasharray:none"
         d="M 104.93328,240.65341 C 105.70868,244.42535 105.97586,245.37483 106.21786,246.21631 C 106.45917,247.05776 106.61265,247.24761 106.71422,247.43816 C 106.81646,247.62796 107.05829,247.89966 107.23725,247.87288 C 107.41617,247.8454 107.60782,247.73768 107.74841,247.4395 C 107.88898,247.14125 108.10621,246.68049 108.26033,246.1649 C 108.41443,245.64934 108.55446,245.21543 108.77283,244.23956 C 108.99121,243.26299 108.93958,243.697 109.54221,240.65998"
         id="path3130" />
      <path
         style="fill:none;stroke:#000000;stroke-width:1.875;stroke-miterlimit:4;stroke-dasharray:none"
         d="M 109.66266,240.66172 C 110.23531,236.81408 110.43215,235.84484 110.61043,234.98653 C 110.78871,234.1282 110.90081,233.93476 110.97542,233.74128 C 111.05054,233.54776 111.22793,233.27105 111.3589,233.29885 C 111.48988,233.32663 111.63003,233.43782 111.73257,233.74259 C 111.83512,234.0474 111.99354,234.51831 112.10569,235.045 C 112.21732,235.571 112.31978,236.01424 112.47838,237.0117 C 112.63646,238.0091 112.59925,237.56594 113.03645,240.66773"
         id="path3132" />
      <path
         style="fill:none;stroke:#000000;stroke-width:1.875;stroke-miterlimit:4;stroke-dasharray:none"
         d="M 113.04262,240.66562 C 113.61031,244.51598 113.80593,245.48524 113.98309,246.34418 C 114.16028,247.20313 114.27213,247.39693 114.3465,247.59143 C 114.42137,247.78519 114.5984,248.06254 114.72942,248.03522 C 114.85988,248.00717 115.00022,247.89719 115.10364,247.59277 C 115.20708,247.28838 115.3656,246.81801 115.47842,246.29169 C 115.59074,245.76543 115.69377,245.3225 115.85364,244.32636 C 116.01301,243.32946 115.97522,243.77251 116.41691,240.6723"
         id="path3134" />
      <path
         style="fill:none;stroke:#000000;stroke-width:1.875;stroke-miterlimit:4;stroke-dasharray:none"
         d="M 116.42309,240.67373 C 116.99573,236.82609 117.19256,235.85683 117.37034,234.99852 C 117.54811,234.14016 117.66072,233.94676 117.73534,233.75325 C 117.81045,233.55975 117.98784,233.28304 118.1188,233.31084 C 118.24925,233.33862 118.38943,233.44984 118.49248,233.75459 C 118.59554,234.05934 118.75394,234.5303 118.8656,235.057 C 118.97725,235.58297 119.07968,236.02624 119.23829,237.0237 C 119.39689,238.02113 119.35968,237.57796 119.79687,240.67972"
         id="path3136" />
      <path
         style="fill:none;stroke:#000000;stroke-width:1.875;stroke-miterlimit:4;stroke-dasharray:none"
         d="M 119.80354,240.67761 C 120.37125,244.52799 120.56685,245.4972 120.74351,246.35615 C 120.9207,247.21512 121.03256,247.40897 121.10692,247.60342 C 121.1818,247.79718 121.35883,248.07453 121.48982,248.04718 C 121.62083,248.01914 121.76114,247.90916 121.86405,247.60476 C 121.967,247.30037 122.12653,246.82998 122.23884,246.3037 C 122.35117,245.7774 122.45419,245.33448 122.61407,244.33832 C 122.77393,243.34148 122.73617,243.78448 123.17734,240.6843"
         id="path3138" />
      <path
         style="fill:none;stroke:#000000;stroke-width:1.875;stroke-miterlimit:4;stroke-dasharray:none"
         d="M 123.17712,240.62577 C 123.74976,236.7781 123.94661,235.80886 124.12489,234.95052 C 124.30266,234.09221 124.41475,233.89878 124.48988,233.70526 C 124.56499,233.51177 124.74238,233.23508 124.87335,233.26287 C 125.00433,233.29067 125.14449,233.40186 125.24703,233.70661 C 125.34957,234.01139 125.50799,234.48233 125.62014,235.00903 C 125.7318,235.535 125.83424,235.97829 125.99284,236.97572 C 126.15092,237.97316 126.1137,237.52998 126.55089,240.63174"
         id="path3140" />
      <path
         style="fill:none;stroke:#000000;stroke-width:1.875;stroke-miterlimit:4;stroke-dasharray:none"
         d="M 126.55706,240.62964 C 127.12477,244.47999 127.32038,245.44925 127.49755,246.3082 C 127.67474,247.16715 127.78659,247.361 127.86095,247.55544 C 127.93582,247.74921 128.11286,248.02655 128.24386,247.99923 C 128.37435,247.97119 128.51467,247.86121 128.61809,247.5568 C 128.72153,247.25239 128.88005,246.78201 128.99287,246.25573 C 129.10571,245.72942 129.20822,245.28653 129.3681,244.29035 C 129.52746,243.29351 129.48967,243.73653 129.93085,240.63633"
         id="path3142" />
      <path
         style="fill:none;stroke:#000000;stroke-width:1.875;stroke-miterlimit:4;stroke-dasharray:none"
         d="M 129.93755,240.63775 C 130.51017,236.79009 130.70703,235.82086 130.8853,234.96252 C 131.06359,234.10421 131.17568,233.91077 131.25029,233.7173 C 131.32543,233.52377 131.50282,233.24708 131.63378,233.27488 C 131.76424,233.30266 131.90439,233.41385 132.00746,233.71863 C 132.1105,234.02341 132.26841,234.49433 132.38056,235.02102 C 132.49272,235.547 132.59466,235.99028 132.75325,236.98771 C 132.91134,237.98515 132.87413,237.54199 133.31184,240.64374"
         id="path3144" />
      <path
         style="fill:none;stroke:#000000;stroke-width:1.875;stroke-miterlimit:4;stroke-dasharray:none"
         d="M 133.31801,240.6416 C 133.88571,244.49203 134.08131,245.46121 134.25797,246.32019 C 134.43516,247.17914 134.54702,247.37297 134.62137,247.56744 C 134.69625,247.76123 134.87328,248.03855 135.00427,248.01125 C 135.13529,247.98321 135.27508,247.8732 135.37853,247.56878 C 135.48196,247.26437 135.64098,246.79403 135.7533,246.26773 C 135.86562,245.74144 135.96863,245.29853 136.12852,244.30239 C 136.2884,243.30618 136.25062,243.74852 136.69179,240.64832"
         id="path3146" />
      <path
         style="fill:none;stroke:#000000;stroke-width:1.875;stroke-miterlimit:4;stroke-dasharray:none"
         d="M 136.69796,240.64972 C 137.27059,236.80208 137.46745,235.83284 137.64521,234.97451 C 137.82299,234.11618 137.93559,233.92275 138.0102,233.72926 C 138.08532,233.53578 138.26322,233.25907 138.39369,233.28686 C 138.52465,233.31468 138.66482,233.42585 138.76736,233.7306 C 138.86989,234.03538 139.02884,234.50634 139.14046,235.03302 C 139.25212,235.55901 139.35456,236.00228 139.51316,236.99969 C 139.67177,237.99712 139.63455,237.55399 140.07174,240.65573"
         id="path3148" />
      <path
         style="fill:none;stroke:#000000;stroke-width:1.875;stroke-miterlimit:4;stroke-dasharray:none"
         d="M 140.07844,240.65362 C 140.64612,244.504 140.84173,245.47322 141.01891,246.33219 C 141.19557,247.19114 141.30794,247.38494 141.3823,247.57945 C 141.45717,247.77319 141.63421,248.05054 141.76522,248.0232 C 141.89622,247.99515 142.03653,247.8852 142.13946,247.58081 C 142.24237,247.27636 142.40142,246.80602 142.51424,246.27971 C 142.62707,245.75343 142.72958,245.3105 142.88946,244.31434 C 143.04934,243.31747 143.01155,243.7605 143.45274,240.66034"
         id="path3150" />
      <path
         style="fill:none;stroke:#000000;stroke-width:1.875;stroke-miterlimit:4;stroke-dasharray:none"
         d="M 143.45889,240.66172 C 144.03154,236.81408 144.22838,235.84484 144.40666,234.98653 C 144.58494,234.1282 144.69705,233.93476 144.77165,233.74128 C 144.84677,233.54776 145.02417,233.27105 145.15513,233.29885 C 145.28611,233.32663 145.42627,233.43782 145.5288,233.74259 C 145.63135,234.0474 145.78977,234.51831 145.90192,235.045 C 146.01356,235.571 146.11601,236.01424 146.27461,237.0117 C 146.43269,238.0091 146.39548,237.56594 146.83268,240.66773"
         id="path3152" />
      <path
         style="fill:none;stroke:#000000;stroke-width:1.875;stroke-miterlimit:4;stroke-dasharray:none"
         d="M 146.83885,240.66562 C 147.40654,244.51598 147.60216,245.48524 147.77933,246.34418 C 147.95651,247.20313 148.06836,247.39693 148.14273,247.59143 C 148.2176,247.78519 148.39463,248.06254 148.52565,248.03522 C 148.65612,248.00717 148.79645,247.89719 148.89987,247.59277 C 149.00332,247.28838 149.16183,246.81801 149.27465,246.29169 C 149.38698,245.76543 149.49,245.3225 149.64988,244.32636 C 149.80924,243.32946 149.77145,243.77251 150.21314,240.6723"
         id="path3154" />
      <path
         style="fill:none;stroke:#000000;stroke-width:1.875;stroke-miterlimit:4;stroke-dasharray:none"
         d="M 150.24163,240.67363 C 150.86023,236.84704 151.07286,235.88309 151.26489,235.02948 C 151.45693,234.1758 151.57858,233.98346 151.65919,233.79101 C 151.74034,233.59857 151.93196,233.32338 152.07343,233.35102 C 152.21435,233.37866 152.36578,233.48926 152.47709,233.79234 C 152.58842,234.09543 152.75955,234.56381 152.88016,235.08762 C 153.00076,235.61073 153.11142,236.05157 153.28275,237.04357 C 153.45409,238.03554 153.4139,237.59479 153.88616,240.67959"
         id="path3156" />
      <path
         style="fill:none;stroke:#000000;stroke-width:1.875;stroke-miterlimit:4;stroke-dasharray:none"
         d="M 153.89338,240.67749 C 154.50664,244.5068 154.71794,245.4707 154.90879,246.32495 C 155.10018,247.17922 155.22102,247.37202 155.30134,247.56541 C 155.38223,247.7581 155.57347,248.03394 155.71498,248.00673 C 155.8565,247.97886 156.00807,247.86947 156.11924,247.56674 C 156.23044,247.26401 156.40279,246.7962 156.52411,246.27279 C 156.64545,245.74938 156.75673,245.30888 156.92946,244.31817 C 157.10213,243.32678 157.06134,243.76736 157.53792,240.68414"
         id="path3158" />
      <path
         style="fill:none;stroke:#000000;stroke-width:1.875;stroke-miterlimit:4;stroke-dasharray:none"
         d="M 157.55071,240.62594 C 158.1693,236.79931 158.38194,235.83538 158.57453,234.98174 C 158.76657,234.12812 158.88765,233.93575 158.96882,233.74328 C 159.04995,233.55085 159.24159,233.27567 159.38306,233.30331 C 159.52455,233.33096 159.67596,233.44155 159.78673,233.74462 C 159.89749,234.04774 160.06863,234.51611 160.18977,235.03992 C 160.3104,235.56301 160.42107,236.00387 160.59239,236.99585 C 160.76316,237.98783 160.72296,237.54708 161.19522,240.63187"
         id="path3160" />
      <path
         style="fill:none;stroke:#000000;stroke-width:1.875;stroke-miterlimit:4;stroke-dasharray:none"
         d="M 161.20189,240.62978 C 161.81517,244.45906 162.02647,245.42302 162.21786,246.27727 C 162.40926,247.13152 162.53009,247.3243 162.61042,247.51769 C 162.6913,247.71039 162.88254,247.98622 163.02406,247.95905 C 163.16502,247.93116 163.3166,247.82178 163.42833,247.51904 C 163.54007,247.2163 163.71131,246.74849 163.83318,246.22508 C 163.95508,245.70166 164.06581,245.26119 164.23852,244.27046 C 164.41067,243.27907 164.36984,243.71967 164.84644,240.63643"
         id="path3162" />
      <path
         style="fill:none;stroke:#000000;stroke-width:1.875;stroke-miterlimit:4;stroke-dasharray:none"
         d="M 164.85368,240.63784 C 165.47225,236.81124 165.6849,235.8473 165.87749,234.99366 C 166.07007,234.14005 166.19117,233.94767 166.27177,233.75525 C 166.35293,233.56279 166.54456,233.28761 166.68602,233.31526 C 166.82695,233.34289 166.97835,233.45347 167.08969,233.75659 C 167.20101,234.05969 167.37159,234.52804 167.49273,235.05185 C 167.61389,235.57494 167.72402,236.0158 167.89534,237.00778 C 168.06613,237.99975 168.02592,237.55902 168.49875,240.6438"
         id="path3164" />
      <path
         style="fill:none;stroke:#000000;stroke-width:1.875;stroke-miterlimit:4;stroke-dasharray:none"
         d="M 168.50542,240.64168 C 169.11868,244.47103 169.32998,245.43491 169.52081,246.2892 C 169.71223,247.14344 169.83306,247.33622 169.91338,247.52961 C 169.99426,247.72235 170.18551,247.99815 170.32701,247.971 C 170.46855,247.94311 170.61955,247.83371 170.7313,247.53094 C 170.84303,247.22821 171.01481,246.76044 171.13615,246.23702 C 171.25748,245.71361 171.36876,245.27312 171.54149,244.28243 C 171.71419,243.29168 171.67338,243.7316 172.14994,240.64836"
         id="path3166" />
      <path
         style="fill:none;stroke:#000000;stroke-width:1.875;stroke-miterlimit:4;stroke-dasharray:none"
         d="M 172.15662,240.64975 C 172.77521,236.82316 172.98786,235.85923 173.17988,235.0056 C 173.37193,234.15196 173.49357,233.95958 173.57418,233.76715 C 173.65532,233.57473 173.84749,233.29954 173.98843,233.32718 C 174.12991,233.35485 174.28132,233.46541 174.3921,233.76848 C 174.50285,234.0716 174.67455,234.53998 174.79513,235.06378 C 174.91576,235.5869 175.02643,236.02774 175.19775,237.01969 C 175.36909,238.01166 175.32888,237.57095 175.80115,240.65573"
         id="path3168" />
      <path
         style="fill:none;stroke:#000000;stroke-width:1.875;stroke-miterlimit:4;stroke-dasharray:none"
         d="M 175.80839,240.65363 C 176.42164,244.48294 176.63295,245.44686 176.82433,246.30113 C 177.01518,247.15538 177.13657,247.34812 177.21689,247.54157 C 177.29776,247.73424 177.48902,248.01008 177.63054,247.98289 C 177.77206,247.955 177.92363,247.84564 178.0348,247.54292 C 178.14598,247.24013 178.31779,246.77237 178.43967,246.24893 C 178.56155,245.72554 178.67229,245.28503 178.84499,244.29432 C 179.0177,243.3029 178.97688,243.74351 179.45348,240.66031"
         id="path3170" />
      <path
         style="fill:none;stroke:#000000;stroke-width:1.875;stroke-miterlimit:4;stroke-dasharray:none"
         d="M 179.46013,240.66168 C 180.07873,236.83509 180.29137,235.87115 180.48396,235.01754 C 180.67655,234.16391 180.79764,233.97153 180.87825,233.77911 C 180.9594,233.58665 181.15103,233.31145 181.29249,233.3391 C 181.43399,233.36672 181.58539,233.47731 181.69615,233.78042 C 181.80693,234.08356 181.97807,234.55189 182.09922,235.0757 C 182.21981,235.59881 182.33049,236.03963 182.50181,237.03164 C 182.67258,238.02358 182.63239,237.58284 183.10468,240.66765"
         id="path3172" />
      <path
         style="fill:none;stroke:#000000;stroke-width:1.875;stroke-miterlimit:4;stroke-dasharray:none"
         d="M 183.23683,240.66533 C 184.07846,244.41548 184.36848,245.35952 184.63111,246.1961 C 184.8938,247.0327 185.05961,247.22145 185.16988,247.41089 C 185.28087,247.5996 185.54334,247.86973 185.73757,247.84312 C 185.93099,247.8158 186.13902,247.70869 186.29237,247.41219 C 186.44572,247.11573 186.68073,246.65759 186.84799,246.14497 C 187.01452,245.63242 187.16726,245.20101 187.40427,244.23079 C 187.64054,243.25986 187.58451,243.69137 188.23934,240.67186"
         id="path3174" />
      <path
         style="fill:none;stroke:#000000;stroke-width:1.875;stroke-miterlimit:4;stroke-dasharray:none"
         d="M 188.2485,240.67325 C 189.09744,236.92576 189.38926,235.98172 189.6528,235.14575 C 189.91639,234.30973 190.08332,234.12136 190.19397,233.93289 C 190.3053,233.74443 190.5683,233.47491 190.76244,233.502 C 190.95584,233.52906 191.16367,233.63738 191.31644,233.93419 C 191.46923,234.23102 191.70406,234.68972 191.86962,235.20271 C 192.03511,235.71499 192.18698,236.14672 192.42214,237.11821 C 192.65726,238.08969 192.60208,237.65805 193.25023,240.67908"
         id="path3176" />
      <path
         style="fill:none;stroke:#000000;stroke-width:1.875;stroke-miterlimit:4;stroke-dasharray:none"
         d="M 193.26014,240.67702 C 194.10179,244.42718 194.39178,245.37116 194.65369,246.20776 C 194.91636,247.04436 195.08221,247.23317 195.19242,247.42256 C 195.30345,247.61129 195.56591,247.88141 195.76009,247.85478 C 195.95431,247.82747 196.16233,247.72035 196.31492,247.42387 C 196.46751,247.12741 196.70405,246.66926 196.87055,246.15668 C 197.03709,245.64408 197.18978,245.21268 197.42684,244.24245 C 197.66384,243.27156 197.60784,243.70303 198.26189,240.68354"
         id="path3178" />
      <path
         style="fill:none;stroke:#000000;stroke-width:1.875;stroke-miterlimit:4;stroke-dasharray:none"
         d="M 198.27428,240.62653 C 199.12323,236.87901 199.41507,235.935 199.67938,235.099 C 199.94293,234.26303 200.1091,234.07463 200.22049,233.88615 C 200.33186,233.6977 200.59483,233.42821 200.78899,233.45527 C 200.98318,233.48235 201.19097,233.59064 201.34298,233.88747 C 201.495,234.18432 201.72987,234.643 201.89614,235.15598 C 202.06168,235.66826 202.21355,236.10002 202.44866,237.07149 C 202.68303,238.04296 202.62788,237.61131 203.276,240.63234"
         id="path3180" />
      <path
         style="fill:none;stroke:#000000;stroke-width:1.875;stroke-miterlimit:4;stroke-dasharray:none"
         d="M 203.28517,240.6303 C 204.12681,244.38043 204.41679,245.32447 204.67948,246.16106 C 204.94216,246.99765 205.10798,247.18645 205.21821,247.37584 C 205.3292,247.56455 205.59169,247.83469 205.7859,247.80807 C 205.97934,247.78076 206.18738,247.67364 206.34069,247.37716 C 206.49406,247.08067 206.72908,246.62253 206.89634,246.10995 C 207.06361,245.59734 207.21557,245.16598 207.45261,244.19573 C 207.68888,243.22483 207.63284,243.65633 208.28692,240.63681"
         id="path3182" />
      <path
         style="fill:none;stroke:#000000;stroke-width:1.875;stroke-miterlimit:4;stroke-dasharray:none"
         d="M 208.38546,240.63853 C 209.42262,236.94692 209.77917,236.01699 210.10209,235.19346 C 210.425,234.36997 210.62802,234.18438 210.76317,233.99875 C 210.89925,233.81306 211.22055,233.5476 211.45775,233.57429 C 211.69404,233.60093 211.94789,233.70761 212.13456,234.00004 C 212.32122,234.29244 212.60721,234.74426 212.81034,235.24959 C 213.01347,235.75424 213.19814,236.17955 213.48537,237.13653 C 213.77175,238.09352 213.70433,237.66834 214.49711,240.64428"
         id="path3184" />
      <path
         style="fill:none;stroke:#000000;stroke-width:1.875;stroke-miterlimit:4;stroke-dasharray:none"
         d="M 214.50832,240.64223 C 215.53654,244.3365 215.89082,245.26638 216.21081,246.09052 C 216.53174,246.91465 216.73435,247.10062 216.86903,247.28719 C 217.00462,247.47312 217.32528,247.7392 217.56256,247.713 C 217.79986,247.68609 218.05304,247.58056 218.24039,247.28847 C 218.42773,246.9964 218.7158,246.54514 218.91923,246.04019 C 219.12265,245.53524 219.30921,245.1103 219.59884,244.15456 C 219.88838,243.19875 219.81995,243.62315 220.61904,240.64868"
         id="path3186" />
      <path
         style="fill:none;stroke:#000000;stroke-width:1.875;stroke-miterlimit:4;stroke-dasharray:none"
         d="M 220.6302,240.65003 C 221.66739,236.95844 222.02398,236.0285 222.34592,235.20498 C 222.66794,234.38146 222.87188,234.19587 223.00703,234.01022 C 223.14308,233.82459 223.46528,233.5591 223.70159,233.58575 C 223.93881,233.61246 224.19269,233.71911 224.37842,234.01152 C 224.56411,234.30394 224.85202,234.7558 225.05417,235.26111 C 225.25643,235.76578 225.442,236.19107 225.72924,237.14802 C 226.01652,238.105 225.9491,237.67984 226.74097,240.65579"
         id="path3188" />
      <path
         style="fill:none;stroke:#000000;stroke-width:1.875;stroke-miterlimit:4;stroke-dasharray:none"
         d="M 226.75309,240.65377 C 227.78131,244.34798 228.13562,245.2779 228.45651,246.10204 C 228.7765,246.92614 228.98004,247.11208 229.1147,247.29871 C 229.2503,247.48461 229.57098,247.75069 229.80826,247.72447 C 230.04554,247.69756 230.29969,247.59205 230.48609,247.30002 C 230.6725,247.00792 230.96058,246.55666 231.16494,246.05168 C 231.3693,245.54674 231.55495,245.12178 231.84455,244.16602 C 232.13413,243.20957 232.06567,243.63465 232.8648,240.66021"
         id="path3190" />
      <path
         style="fill:none;stroke:#000000;stroke-width:1.875;stroke-miterlimit:4;stroke-dasharray:none"
         d="M 232.87593,240.66153 C 233.91314,236.96993 234.26964,236.04 234.59256,235.21651 C 234.91549,234.39299 235.11851,234.2074 235.25364,234.02175 C 235.38972,233.83609 235.711,233.5706 235.94823,233.59727 C 236.18549,233.62392 236.43932,233.73061 236.62503,234.02301 C 236.81078,234.31546 237.09771,234.76727 237.30085,235.27261 C 237.50305,235.77727 237.68861,236.20254 237.97589,237.15955 C 238.2622,238.11648 238.19479,237.69131 238.98668,240.66729"
         id="path3192" />
      <path
         style="fill:none;stroke:#000000;stroke-width:1.875;stroke-miterlimit:4;stroke-dasharray:none"
         d="M 238.99785,240.66526 C 240.02609,244.35948 240.38039,245.28944 240.70128,246.11355 C 241.02221,246.93766 241.22481,247.12359 241.3595,247.3102 C 241.4951,247.49609 241.81576,247.7622 242.05305,247.73599 C 242.28937,247.70909 242.54355,247.60356 242.73087,247.31148 C 242.91825,247.01944 243.20535,246.56815 243.40969,246.06317 C 243.61314,245.55826 243.79972,245.13328 244.08931,244.17754 C 244.37796,243.22109 244.30951,243.64616 245.1095,240.67169"
         id="path3194" />
      <path
         style="fill:none;stroke:#000000;stroke-width:1.875;stroke-miterlimit:4;stroke-dasharray:none"
         d="M 245.12071,240.67306 C 246.15788,236.98146 246.51441,236.05152 246.83639,235.22802 C 247.15841,234.40446 247.36237,234.2189 247.49752,234.03325 C 247.63356,233.8476 247.95488,233.5821 248.19206,233.60878 C 248.42834,233.63543 248.68224,233.74215 248.86889,234.03453 C 249.05554,234.32692 249.34246,234.77879 249.54472,235.28412 C 249.74691,235.78876 249.93244,236.21405 250.21973,237.17106 C 250.507,238.12804 250.43959,237.70283 251.23144,240.67881"
         id="path3196" />
      <path
         style="fill:none;stroke:#000000;stroke-width:1.875;stroke-miterlimit:4;stroke-dasharray:none"
         d="M 251.24356,240.67678 C 252.27181,244.371 252.6261,245.3009 252.94608,246.12502 C 253.26697,246.94915 253.46959,247.13514 253.60426,247.32171 C 253.7399,247.50761 254.06056,247.77372 254.2978,247.74748 C 254.53507,247.72058 254.78922,247.61505 254.97562,247.32299 C 255.16206,247.03095 255.45106,246.57963 255.65446,246.07471 C 255.85793,245.56975 256.04449,245.14479 256.3341,244.18903 C 256.62365,243.23262 256.55524,243.65765 257.3543,240.68319"
         id="path3198" />
      <path
         id="path4094"
         d="M 109.70813,239.92091 L 109.50775,241.37367"
         style="opacity:1;fill:none;fill-opacity:1;fill-rule:evenodd;stroke:#000000;stroke-width:1.875;stroke-linecap:butt;stroke-linejoin:miter;marker:none;marker-start:none;marker-mid:none;marker-end:none;stroke-miterlimit:4;stroke-dasharray:none;stroke-dashoffset:0;stroke-opacity:1;visibility:visible;display:inline;overflow:visible;enable-background:accumulate" />
      <path
         id="path4096"
         d="M 123.23378,239.92091 L 123.0334,241.52396"
         style="opacity:1;fill:none;fill-opacity:1;fill-rule:evenodd;stroke:#000000;stroke-width:1.875;stroke-linecap:butt;stroke-linejoin:miter;marker:none;marker-start:none;marker-mid:none;marker-end:none;stroke-miterlimit:4;stroke-dasharray:none;stroke-dashoffset:0;stroke-opacity:1;visibility:visible;display:inline;overflow:visible;enable-background:accumulate" />
      <path
         id="path4098"
         d="M 157.69917,239.97101 L 157.49879,241.57405"
         style="opacity:1;fill:none;fill-opacity:1;fill-rule:evenodd;stroke:#000000;stroke-width:1.875;stroke-linecap:butt;stroke-linejoin:miter;marker:none;marker-start:none;marker-mid:none;marker-end:none;stroke-miterlimit:4;stroke-dasharray:none;stroke-dashoffset:0;stroke-opacity:1;visibility:visible;display:inline;overflow:visible;enable-background:accumulate" />
      <path
         id="path4100"
         d="M 182.89697,239.67044 L 183.39792,241.77443"
         style="opacity:1;fill:none;fill-opacity:1;fill-rule:evenodd;stroke:#000000;stroke-width:1.875;stroke-linecap:butt;stroke-linejoin:miter;marker:none;marker-start:none;marker-mid:none;marker-end:none;stroke-miterlimit:4;stroke-dasharray:none;stroke-dashoffset:0;stroke-opacity:1;visibility:visible;display:inline;overflow:visible;enable-background:accumulate" />
      <path
         id="path4102"
         d="M 198.52662,239.62034 L 198.07577,241.57405"
         style="opacity:1;fill:none;fill-opacity:1;fill-rule:evenodd;stroke:#000000;stroke-width:1.875;stroke-linecap:butt;stroke-linejoin:miter;marker:none;marker-start:none;marker-mid:none;marker-end:none;stroke-miterlimit:4;stroke-dasharray:none;stroke-dashoffset:0;stroke-opacity:1;visibility:visible;display:inline;overflow:visible;enable-background:accumulate" />
      <path
         id="path4104"
         d="M 208.59572,239.82072 L 208.04468,241.62415"
         style="opacity:1;fill:none;fill-opacity:1;fill-rule:evenodd;stroke:#000000;stroke-width:1.875;stroke-linecap:butt;stroke-linejoin:miter;marker:none;marker-start:none;marker-mid:none;marker-end:none;stroke-miterlimit:4;stroke-dasharray:none;stroke-dashoffset:0;stroke-opacity:1;visibility:visible;display:inline;overflow:visible;enable-background:accumulate" />
    </g>
  </g>
</svg>
