<?xml version="1.0" encoding="UTF-8" standalone="no"?>
<!-- Generator: Adobe Illustrator 11 Build 196, SVG Export Plug-In . SVG Version: 6.0.0 Build 78)  -->

<svg
   xmlns:dc="http://purl.org/dc/elements/1.1/"
   xmlns:cc="http://creativecommons.org/ns#"
   xmlns:rdf="http://www.w3.org/1999/02/22-rdf-syntax-ns#"
   xmlns:svg="http://www.w3.org/2000/svg"
   xmlns="http://www.w3.org/2000/svg"
   xmlns:sodipodi="http://sodipodi.sourceforge.net/DTD/sodipodi-0.dtd"
   xmlns:inkscape="http://www.inkscape.org/namespaces/inkscape"
   width="183.16"
   height="413.506"
   viewBox="0 0 183.16 413.506"
   style="overflow:visible;enable-background:new 0 0 183.16 413.506"
   xml:space="preserve"
   id="svg2"
   sodipodi:version="0.32"
   inkscape:version="0.48.4 r9939"
   sodipodi:docname="boost-solenoid.svg"
   version="1.1"><metadata
     id="metadata439"><rdf:RDF><cc:Work
         rdf:about=""><dc:format>image/svg+xml</dc:format><dc:type
           rdf:resource="http://purl.org/dc/dcmitype/StillImage" /></cc:Work></rdf:RDF></metadata><defs
     id="defs437"><marker
       inkscape:stockid="Arrow2Mend"
       orient="auto"
       refY="0.0"
       refX="0.0"
       id="Arrow2Mend"
       style="overflow:visible;"><path
         id="path4229"
         style="fill-rule:evenodd;stroke-width:0.62500000;stroke-linejoin:round;"
         d="M 8.7185878,4.0337352 L -2.2072895,0.016013256 L 8.7185884,-4.0017078 C 6.9730900,-1.6296469 6.9831476,1.6157441 8.7185878,4.0337352 z "
         transform="scale(0.6) rotate(180) translate(0,0)" /></marker><marker
       inkscape:stockid="Arrow2Mend"
       orient="auto"
       refY="0"
       refX="0"
       id="Arrow2Mend-3"
       style="overflow:visible"><path
         inkscape:connector-curvature="0"
         id="path4229-8"
         style="fill-rule:evenodd;stroke-width:0.625;stroke-linejoin:round"
         d="M 8.7185878,4.0337352 -2.2072895,0.01601326 8.7185884,-4.0017078 c -1.7454984,2.3720609 -1.7354408,5.6174519 -6e-7,8.035443 z"
         transform="scale(-0.6,-0.6)" /></marker><marker
       inkscape:stockid="Arrow2Mend"
       orient="auto"
       refY="0"
       refX="0"
       id="Arrow2Mend-6"
       style="overflow:visible"><path
         inkscape:connector-curvature="0"
         id="path4229-0"
         style="fill-rule:evenodd;stroke-width:0.625;stroke-linejoin:round"
         d="M 8.7185878,4.0337352 -2.2072895,0.01601326 8.7185884,-4.0017078 c -1.7454984,2.3720609 -1.7354408,5.6174519 -6e-7,8.035443 z"
         transform="scale(-0.6,-0.6)" /></marker></defs><sodipodi:namedview
     inkscape:cy="48.312506"
     inkscape:cx="35.275798"
     inkscape:zoom="2.4418845"
     inkscape:window-height="996"
     inkscape:window-width="1278"
     inkscape:pageshadow="2"
     inkscape:pageopacity="0.0"
     borderopacity="1.0"
     bordercolor="#666666"
     pagecolor="#ffffff"
     id="base"
     inkscape:window-x="0"
     inkscape:window-y="0"
     inkscape:current-layer="svg2"
     showgrid="false"
     inkscape:window-maximized="0" /><style
     type="text/css"
     id="style4" /><rect
     style="fill:#dedede;fill-opacity:1;stroke:none"
     id="rect4134"
     width="184.25197"
     height="155.07985"
     x="10.939243"
     y="244.59123" /><g
     id="g4136"
     transform="translate(30.243788,-7.7218183)"><path
       id="path138"
       d="m 138.55298,343.144 c -0.417,0.719 -1.333,0.969 -2.052,0.552 -0.719,-0.406 -0.969,-1.323 -0.552,-2.042 0.208,-0.989 0.656,-1.958 0.51,-2.979 -0.229,-1.656 -1.125,-3.146 -2.24,-4.396 -0.948,-1.062 -1.823,-2.083 -3.042,-2.896 -3.51,-2.333 -7.208,-3.583 -11.042,-4.771 -5.958,-0.896 -11.833,-2.521 -17.906,-2.135 -0.569,-0.176 -0.848,-0.092 -1.417,-0.094 -0.562,0.188 -1.124999,0.188 -1.916999,0.177 -3.156,0.458 -6.281,0.052 -9.479,0.427 -0.761,0.083 -1.558,0.056 -2.292,0.146 -3.062,0.375 -3.812,0.625 -7.239,1.312 -3.157,0.634 -6.156,1.375 -9.261,2 -4.25,1.688 -8.812,3.511 -11.281,7.615 0.021,0.01 0.042,0.021 0.062,0.031 -0.323,0.761 -1.198,1.125 -1.969,0.802 -0.76,-0.323 -1.125,-1.198 -0.802,-1.969 2.146,-4.062 6.146,-6.635 10.385,-8.177 0.312,-0.115 0.552,-0.354 0.865,-0.469 3.583,-1.302 7.333,-1.885 11.052,-2.573 3.5,-0.823 6.625,-1.323 10.49,-1.698 2.948,-0.188 5.882,-0.126 8.892,-0.389 0.245,-0.174 0.731,-0.049 1.056,-0.049 0.635999,-0.052 1.155999,-0.208 1.811999,-0.125 0.5,0.073 0.854,0.011 1.323,0.032 1.812,0.104 3.614,-0.052 5.427,0.083 4.49,0.354 8.656,1.385 13.208,2.26 1.052,0.198 2.021,0.49 2.99,0.938 2.031,0.927 4.104,1.583 6.125,2.552 2.781,1.323 4.948,3.302 6.833,5.76 1.115,1.458 1.979,2.979 2.323,4.802 0.344,1.823 -0.216,3.627 -0.862,5.273 z"
       style="fill:#ffffff;fill-opacity:1;stroke:#000000;stroke-width:0.5"
       inkscape:connector-curvature="0" /><path
       id="path140"
       d="m 138.55239,346.829 c -0.417,0.719 -1.333,0.969 -2.052,0.552 -0.719,-0.406 -0.969,-1.323 -0.552,-2.042 0.208,-0.989 0.656,-1.958 0.51,-2.979 -0.229,-1.656 -1.125,-3.146 -2.24,-4.396 -0.948,-1.062 -1.823,-2.083 -3.042,-2.896 -3.51,-2.333 -7.208,-3.583 -11.042,-4.771 -5.958,-0.896 -11.833,-2.521 -17.906,-2.135 -0.569,-0.176 -0.848,-0.092 -1.417,-0.094 -0.562,0.188 -1.125,0.188 -1.917,0.177 -3.156,0.458 -6.281,0.052 -9.479,0.427 -0.761,0.083 -1.558,0.056 -2.292,0.146 -3.062,0.375 -3.812,0.625 -7.239,1.312 -3.157,0.633 -6.156,1.375 -9.261,2 -4.25,1.688 -8.812,3.51 -11.281,7.614 0.021,0.011 0.042,0.021 0.062,0.031 -0.323,0.761 -1.198,1.125 -1.969,0.802 -0.76,-0.323 -1.125,-1.198 -0.802,-1.969 2.146,-4.062 6.146,-6.635 10.385,-8.177 0.312,-0.114 0.552,-0.354 0.865,-0.469 3.583,-1.302 7.333,-1.885 11.052,-2.573 3.5,-0.823 6.625,-1.323 10.49,-1.698 2.948,-0.188 5.882,-0.127 8.892,-0.389 0.245,-0.174 0.731,-0.048 1.056,-0.048 0.636,-0.052 1.156,-0.208 1.812,-0.125 0.5,0.073 0.854,0.01 1.323,0.031 1.812,0.104 3.614,-0.052 5.427,0.083 4.49,0.354 8.656,1.386 13.208,2.261 1.052,0.198 2.021,0.489 2.99,0.938 2.031,0.927 4.104,1.583 6.125,2.552 2.781,1.323 4.948,3.302 6.833,5.761 1.115,1.458 1.979,2.979 2.323,4.802 0.347,1.824 -0.216,3.626 -0.862,5.272 z"
       style="fill:#ffffff;fill-opacity:1;stroke:#000000;stroke-width:0.5"
       inkscape:connector-curvature="0" /><path
       id="path142"
       d="m 138.55298,350.514 c -0.417,0.719 -1.333,0.969 -2.052,0.552 -0.719,-0.406 -0.969,-1.323 -0.552,-2.042 0.208,-0.989 0.656,-1.958 0.51,-2.979 -0.229,-1.656 -1.125,-3.146 -2.24,-4.396 -0.948,-1.062 -1.823,-2.083 -3.042,-2.896 -3.51,-2.333 -7.208,-3.583 -11.042,-4.771 -5.958,-0.896 -11.833,-2.521 -17.906,-2.135 -0.569,-0.176 -0.848,-0.092 -1.417,-0.094 -0.562,0.188 -1.124999,0.188 -1.916999,0.177 -3.156,0.458 -6.281,0.052 -9.479,0.427 -0.761,0.083 -1.558,0.056 -2.292,0.146 -3.062,0.375 -3.812,0.625 -7.239,1.312 -3.157,0.633 -6.156,1.375 -9.261,2 -4.25,1.688 -8.812,3.511 -11.281,7.615 0.021,0.01 0.042,0.021 0.062,0.031 -0.323,0.761 -1.198,1.125 -1.969,0.802 -0.76,-0.323 -1.125,-1.198 -0.802,-1.969 2.146,-4.062 6.146,-6.635 10.385,-8.177 0.312,-0.115 0.552,-0.354 0.865,-0.469 3.583,-1.302 7.333,-1.885 11.052,-2.573 3.5,-0.823 6.625,-1.323 10.49,-1.698 2.948,-0.188 5.882,-0.126 8.892,-0.389 0.245,-0.174 0.731,-0.049 1.056,-0.049 0.635999,-0.052 1.155999,-0.208 1.811999,-0.125 0.5,0.073 0.854,0.011 1.323,0.032 1.812,0.104 3.614,-0.052 5.427,0.083 4.49,0.354 8.656,1.385 13.208,2.26 1.052,0.198 2.021,0.49 2.99,0.938 2.031,0.927 4.104,1.583 6.125,2.552 2.781,1.323 4.948,3.302 6.833,5.76 1.115,1.458 1.979,2.979 2.323,4.802 0.344,1.823 -0.216,3.627 -0.862,5.273 z"
       style="fill:#ffffff;fill-opacity:1;stroke:#000000;stroke-width:0.5"
       inkscape:connector-curvature="0" /><path
       id="path144"
       d="m 138.55239,354.199 c -0.417,0.719 -1.333,0.969 -2.052,0.552 -0.719,-0.407 -0.969,-1.323 -0.552,-2.042 0.208,-0.99 0.656,-1.958 0.51,-2.979 -0.229,-1.656 -1.125,-3.146 -2.24,-4.396 -0.948,-1.062 -1.823,-2.083 -3.042,-2.896 -3.51,-2.333 -7.208,-3.583 -11.042,-4.771 -5.958,-0.896 -11.833,-2.521 -17.906,-2.136 -0.569,-0.176 -0.848,-0.091 -1.417,-0.093 -0.562,0.188 -1.125,0.188 -1.917,0.177 -3.156,0.458 -6.281,0.052 -9.479,0.427 -0.761,0.083 -1.558,0.056 -2.292,0.146 -3.062,0.375 -3.812,0.625 -7.239,1.312 -3.157,0.633 -6.156,1.375 -9.261,2 -4.25,1.688 -8.812,3.51 -11.281,7.614 0.021,0.011 0.042,0.021 0.062,0.031 -0.323,0.76 -1.198,1.125 -1.969,0.802 -0.76,-0.323 -1.125,-1.198 -0.802,-1.969 2.146,-4.062 6.146,-6.636 10.385,-8.177 0.312,-0.114 0.552,-0.354 0.865,-0.469 3.583,-1.302 7.333,-1.885 11.052,-2.573 3.5,-0.823 6.625,-1.323 10.49,-1.698 2.948,-0.188 5.882,-0.127 8.892,-0.389 0.245,-0.174 0.731,-0.048 1.056,-0.048 0.636,-0.052 1.156,-0.208 1.812,-0.125 0.5,0.073 0.854,0.01 1.323,0.031 1.812,0.104 3.614,-0.052 5.427,0.083 4.49,0.354 8.656,1.386 13.208,2.261 1.052,0.198 2.021,0.489 2.99,0.938 2.031,0.927 4.104,1.583 6.125,2.552 2.781,1.323 4.948,3.302 6.833,5.761 1.115,1.458 1.979,2.979 2.323,4.802 0.347,1.824 -0.216,3.626 -0.862,5.272 z"
       style="fill:#ffffff;fill-opacity:1;stroke:#000000;stroke-width:0.5"
       inkscape:connector-curvature="0" /><path
       id="path146"
       d="m 138.55298,357.884 c -0.417,0.719 -1.333,0.969 -2.052,0.552 -0.719,-0.406 -0.969,-1.323 -0.552,-2.042 0.208,-0.989 0.656,-1.958 0.51,-2.979 -0.229,-1.656 -1.125,-3.146 -2.24,-4.396 -0.948,-1.062 -1.823,-2.083 -3.042,-2.896 -3.51,-2.333 -7.208,-3.583 -11.042,-4.771 -5.958,-0.896 -11.833,-2.521 -17.906,-2.136 -0.569,-0.176 -0.848,-0.091 -1.417,-0.094 -0.562,0.188 -1.124999,0.188 -1.916999,0.177 -3.156,0.458 -6.281,0.052 -9.479,0.427 -0.761,0.083 -1.558,0.056 -2.292,0.146 -3.062,0.375 -3.812,0.625 -7.239,1.312 -3.157,0.633 -6.156,1.375 -9.261,2 -4.25,1.688 -8.812,3.511 -11.281,7.615 0.021,0.01 0.042,0.021 0.062,0.031 -0.323,0.76 -1.198,1.125 -1.969,0.802 -0.76,-0.323 -1.125,-1.198 -0.802,-1.969 2.146,-4.062 6.146,-6.635 10.385,-8.177 0.312,-0.115 0.552,-0.354 0.865,-0.469 3.583,-1.302 7.333,-1.885 11.052,-2.573 3.5,-0.823 6.625,-1.323 10.49,-1.698 2.948,-0.188 5.882,-0.126 8.892,-0.389 0.245,-0.174 0.731,-0.049 1.056,-0.049 0.635999,-0.052 1.155999,-0.208 1.811999,-0.125 0.5,0.073 0.854,0.011 1.323,0.031 1.812,0.104 3.614,-0.052 5.427,0.083 4.49,0.354 8.656,1.385 13.208,2.26 1.052,0.198 2.021,0.49 2.99,0.938 2.031,0.927 4.104,1.583 6.125,2.552 2.781,1.323 4.948,3.302 6.833,5.76 1.115,1.458 1.979,2.979 2.323,4.802 0.344,1.823 -0.216,3.629 -0.862,5.275 z"
       style="fill:#ffffff;fill-opacity:1;stroke:#000000;stroke-width:0.5"
       inkscape:connector-curvature="0" /><path
       id="path148"
       d="m 138.55239,361.569 c -0.417,0.719 -1.333,0.969 -2.052,0.552 -0.719,-0.407 -0.969,-1.323 -0.552,-2.042 0.208,-0.99 0.656,-1.958 0.51,-2.979 -0.229,-1.656 -1.125,-3.146 -2.24,-4.396 -0.948,-1.062 -1.823,-2.083 -3.042,-2.896 -3.51,-2.333 -7.208,-3.583 -11.042,-4.771 -5.958,-0.896 -11.833,-2.521 -17.906,-2.136 -0.569,-0.176 -0.848,-0.091 -1.417,-0.093 -0.562,0.188 -1.125,0.188 -1.917,0.177 -3.156,0.458 -6.281,0.052 -9.479,0.427 -0.761,0.083 -1.558,0.056 -2.292,0.146 -3.062,0.375 -3.812,0.625 -7.239,1.312 -3.157,0.633 -6.156,1.375 -9.261,2 -4.25,1.688 -8.812,3.51 -11.281,7.614 0.021,0.011 0.042,0.021 0.062,0.031 -0.323,0.76 -1.198,1.125 -1.969,0.802 -0.76,-0.323 -1.125,-1.198 -0.802,-1.969 2.146,-4.062 6.146,-6.636 10.385,-8.177 0.312,-0.114 0.552,-0.354 0.865,-0.469 3.583,-1.302 7.333,-1.885 11.052,-2.573 3.5,-0.823 6.625,-1.323 10.49,-1.698 2.948,-0.188 5.882,-0.127 8.892,-0.389 0.245,-0.174 0.731,-0.048 1.056,-0.048 0.636,-0.052 1.156,-0.208 1.812,-0.125 0.5,0.073 0.854,0.01 1.323,0.031 1.812,0.104 3.614,-0.052 5.427,0.083 4.49,0.354 8.656,1.386 13.208,2.261 1.052,0.198 2.021,0.489 2.99,0.938 2.031,0.927 4.104,1.583 6.125,2.552 2.781,1.323 4.948,3.302 6.833,5.761 1.115,1.458 1.979,2.979 2.323,4.802 0.347,1.824 -0.216,3.626 -0.862,5.272 z"
       style="fill:#ffffff;fill-opacity:1;stroke:#000000;stroke-width:0.5"
       inkscape:connector-curvature="0" /><path
       id="path150"
       d="m 138.55298,365.254 c -0.417,0.719 -1.333,0.969 -2.052,0.552 -0.719,-0.406 -0.969,-1.323 -0.552,-2.042 0.208,-0.99 0.656,-1.958 0.51,-2.979 -0.229,-1.656 -1.125,-3.146 -2.24,-4.396 -0.948,-1.062 -1.823,-2.083 -3.042,-2.896 -3.51,-2.333 -7.208,-3.583 -11.042,-4.771 -5.958,-0.896 -11.833,-2.521 -17.906,-2.136 -0.569,-0.176 -0.848,-0.092 -1.417,-0.094 -0.562,0.188 -1.124999,0.188 -1.916999,0.177 -3.156,0.458 -6.281,0.052 -9.479,0.427 -0.761,0.083 -1.558,0.056 -2.292,0.146 -3.062,0.375 -3.812,0.625 -7.239,1.312 -3.157,0.633 -6.156,1.375 -9.261,2 -4.25,1.688 -8.812,3.511 -11.281,7.615 0.021,0.01 0.042,0.021 0.062,0.031 -0.323,0.76 -1.198,1.125 -1.969,0.802 -0.76,-0.323 -1.125,-1.198 -0.802,-1.969 2.146,-4.062 6.146,-6.636 10.385,-8.177 0.312,-0.115 0.552,-0.354 0.865,-0.469 3.583,-1.302 7.333,-1.885 11.052,-2.573 3.5,-0.823 6.625,-1.323 10.49,-1.698 2.948,-0.188 5.882,-0.126 8.892,-0.389 0.245,-0.174 0.731,-0.049 1.056,-0.049 0.635999,-0.052 1.155999,-0.208 1.811999,-0.125 0.5,0.073 0.854,0.011 1.323,0.031 1.812,0.104 3.614,-0.052 5.427,0.083 4.49,0.354 8.656,1.385 13.208,2.26 1.052,0.198 2.021,0.49 2.99,0.938 2.031,0.927 4.104,1.583 6.125,2.552 2.781,1.323 4.948,3.302 6.833,5.76 1.115,1.458 1.979,2.979 2.323,4.802 0.344,1.823 -0.216,3.629 -0.862,5.275 z"
       style="fill:#ffffff;fill-opacity:1;stroke:#000000;stroke-width:0.5"
       inkscape:connector-curvature="0" /><path
       id="path152"
       d="m 138.55298,368.939 c -0.417,0.719 -1.333,0.969 -2.052,0.552 -0.719,-0.406 -0.969,-1.323 -0.552,-2.042 0.208,-0.99 0.656,-1.958 0.51,-2.979 -0.229,-1.656 -1.125,-3.146 -2.24,-4.396 -0.948,-1.062 -1.823,-2.083 -3.042,-2.896 -3.51,-2.333 -7.208,-3.583 -11.042,-4.771 -5.958,-0.896 -11.833,-2.521 -17.906,-2.136 -0.569,-0.176 -0.848,-0.091 -1.417,-0.094 -0.562,0.188 -1.124999,0.188 -1.916999,0.177 -3.156,0.458 -6.281,0.052 -9.479,0.427 -0.761,0.083 -1.558,0.056 -2.292,0.146 -3.062,0.375 -3.812,0.625 -7.239,1.312 -3.157,0.633 -6.156,1.375 -9.261,2 -4.25,1.688 -8.812,3.511 -11.281,7.615 0.021,0.01 0.042,0.021 0.062,0.031 -0.323,0.76 -1.198,1.125 -1.969,0.802 -0.76,-0.323 -1.125,-1.198 -0.802,-1.969 2.146,-4.062 6.146,-6.636 10.385,-8.177 0.312,-0.115 0.552,-0.354 0.865,-0.469 3.583,-1.302 7.333,-1.885 11.052,-2.573 3.5,-0.823 6.625,-1.323 10.49,-1.698 2.948,-0.188 5.882,-0.126 8.892,-0.389 0.245,-0.174 0.731,-0.049 1.056,-0.049 0.635999,-0.052 1.155999,-0.208 1.811999,-0.125 0.5,0.073 0.854,0.011 1.323,0.031 1.812,0.104 3.614,-0.052 5.427,0.083 4.49,0.354 8.656,1.385 13.208,2.26 1.052,0.198 2.021,0.49 2.99,0.938 2.031,0.927 4.104,1.583 6.125,2.552 2.781,1.323 4.948,3.302 6.833,5.76 1.115,1.458 1.979,2.979 2.323,4.802 0.344,1.823 -0.216,3.629 -0.862,5.275 z"
       style="fill:#ffffff;fill-opacity:1;stroke:#000000;stroke-width:0.5"
       inkscape:connector-curvature="0" /><path
       id="path154"
       d="m 138.55298,372.624 c -0.417,0.719 -1.333,0.969 -2.052,0.552 -0.719,-0.406 -0.969,-1.323 -0.552,-2.042 0.208,-0.99 0.656,-1.958 0.51,-2.979 -0.229,-1.656 -1.125,-3.146 -2.24,-4.396 -0.948,-1.062 -1.823,-2.083 -3.042,-2.896 -3.51,-2.333 -7.208,-3.583 -11.042,-4.771 -5.958,-0.896 -11.833,-2.521 -17.906,-2.136 -0.569,-0.176 -0.848,-0.092 -1.417,-0.094 -0.562,0.188 -1.124999,0.188 -1.916999,0.177 -3.156,0.458 -6.281,0.052 -9.479,0.427 -0.761,0.083 -1.558,0.056 -2.292,0.146 -3.062,0.375 -3.812,0.625 -7.239,1.312 -3.157,0.633 -6.156,1.375 -9.261,2 -4.25,1.688 -8.812,3.511 -11.281,7.615 0.021,0.01 0.042,0.021 0.062,0.031 -0.323,0.76 -1.198,1.125 -1.969,0.802 -0.76,-0.323 -1.125,-1.198 -0.802,-1.969 2.146,-4.062 6.146,-6.636 10.385,-8.177 0.312,-0.115 0.552,-0.354 0.865,-0.469 3.583,-1.302 7.333,-1.885 11.052,-2.573 3.5,-0.823 6.625,-1.323 10.49,-1.698 2.948,-0.188 5.882,-0.126 8.892,-0.389 0.245,-0.174 0.731,-0.049 1.056,-0.049 0.635999,-0.052 1.155999,-0.208 1.811999,-0.125 0.5,0.073 0.854,0.011 1.323,0.031 1.812,0.104 3.614,-0.052 5.427,0.083 4.49,0.354 8.656,1.385 13.208,2.26 1.052,0.198 2.021,0.49 2.99,0.938 2.031,0.927 4.104,1.583 6.125,2.552 2.781,1.323 4.948,3.302 6.833,5.76 1.115,1.458 1.979,2.979 2.323,4.802 0.344,1.823 -0.216,3.629 -0.862,5.275 z"
       style="fill:#ffffff;fill-opacity:1;stroke:#000000;stroke-width:0.5"
       inkscape:connector-curvature="0" /><path
       id="path156"
       d="m 138.55253,364.856 c -0.417,-0.719 -1.333,-0.969 -2.052,-0.552 -0.719,0.406 -0.969,1.323 -0.552,2.042 0.208,0.99 0.656,1.958 0.511,2.979 -0.229,1.656 -1.125,3.146 -2.24,4.396 -0.948,1.062 -1.823,2.083 -3.042,2.896 -3.511,2.333 -7.208,3.583 -11.042,4.771 -5.958,0.896 -11.833,2.521 -17.906,2.136 -0.569,0.176 -0.848,0.092 -1.417,0.094 -0.562,-0.188 -1.124997,-0.188 -1.916997,-0.177 -3.156,-0.458 -6.281,-0.052 -9.479,-0.427 -0.76,-0.083 -1.558,-0.056 -2.292,-0.146 -3.062,-0.375 -3.812,-0.625 -7.24,-1.312 -3.156,-0.633 -6.156,-1.375 -9.26,-2 -4.25,-1.688 -8.812,-3.511 -11.281,-7.615 0.021,-0.01 0.042,-0.021 0.062,-0.031 -0.323,-0.76 -1.198,-1.125 -1.969,-0.802 -0.76,0.323 -1.125,1.198 -0.802,1.969 2.146,4.062 6.146,6.636 10.386,8.177 0.312,0.115 0.552,0.354 0.864,0.469 3.583,1.302 7.333,1.885 11.052,2.573 3.5,0.823 6.625,1.323 10.49,1.698 2.948,0.188 5.882,0.126 8.892,0.389 0.245,0.174 0.73,0.049 1.056,0.049 0.634997,0.052 1.155997,0.208 1.811997,0.125 0.5,-0.073 0.854,-0.011 1.323,-0.031 1.812,-0.104 3.615,0.052 5.427,-0.083 4.49,-0.354 8.656,-1.385 13.208,-2.26 1.052,-0.198 2.021,-0.49 2.989,-0.938 2.031,-0.927 4.104,-1.583 6.125,-2.552 2.781,-1.323 4.948,-3.302 6.833,-5.76 1.115,-1.458 1.979,-2.979 2.323,-4.802 0.344,-1.823 -0.217,-3.629 -0.862,-5.275 z"
       style="fill:#ffffff;fill-opacity:1;stroke:#000000;stroke-width:0.5"
       inkscape:connector-curvature="0" /><path
       id="path158"
       d="m 138.55253,361.171 c -0.417,-0.719 -1.333,-0.969 -2.052,-0.552 -0.719,0.406 -0.969,1.323 -0.552,2.042 0.208,0.99 0.656,1.958 0.511,2.979 -0.229,1.656 -1.125,3.146 -2.24,4.396 -0.948,1.062 -1.823,2.083 -3.042,2.896 -3.511,2.333 -7.208,3.583 -11.042,4.771 -5.958,0.896 -11.833,2.521 -17.906,2.136 -0.569,0.176 -0.848,0.092 -1.417,0.094 -0.562,-0.188 -1.124997,-0.188 -1.916997,-0.177 -3.156,-0.458 -6.281,-0.052 -9.479,-0.427 -0.76,-0.083 -1.558,-0.056 -2.292,-0.146 -3.062,-0.375 -3.812,-0.625 -7.24,-1.312 -3.156,-0.633 -6.156,-1.375 -9.26,-2 -4.25,-1.688 -8.812,-3.511 -11.281,-7.615 0.021,-0.01 0.042,-0.021 0.062,-0.031 -0.323,-0.76 -1.198,-1.125 -1.969,-0.802 -0.76,0.323 -1.125,1.198 -0.802,1.969 2.146,4.062 6.146,6.636 10.386,8.177 0.312,0.115 0.552,0.354 0.864,0.469 3.583,1.302 7.333,1.885 11.052,2.573 3.5,0.823 6.625,1.323 10.49,1.698 2.948,0.188 5.882,0.127 8.892,0.389 0.245,0.174 0.73,0.049 1.056,0.049 0.634997,0.052 1.155997,0.208 1.811997,0.125 0.5,-0.073 0.854,-0.011 1.323,-0.031 1.812,-0.104 3.615,0.052 5.427,-0.083 4.49,-0.354 8.656,-1.385 13.208,-2.26 1.052,-0.198 2.021,-0.49 2.989,-0.938 2.031,-0.927 4.104,-1.583 6.125,-2.552 2.781,-1.323 4.948,-3.302 6.833,-5.76 1.115,-1.458 1.979,-2.979 2.323,-4.802 0.344,-1.823 -0.217,-3.629 -0.862,-5.275 z"
       style="fill:#ffffff;fill-opacity:1;stroke:#000000;stroke-width:0.5"
       inkscape:connector-curvature="0" /><path
       id="path160"
       d="m 138.55253,357.486 c -0.417,-0.719 -1.333,-0.969 -2.052,-0.552 -0.719,0.406 -0.969,1.323 -0.552,2.042 0.208,0.99 0.656,1.958 0.511,2.979 -0.229,1.656 -1.125,3.146 -2.24,4.396 -0.948,1.062 -1.823,2.083 -3.042,2.896 -3.511,2.333 -7.208,3.583 -11.042,4.771 -5.958,0.896 -11.833,2.521 -17.906,2.136 -0.569,0.176 -0.848,0.092 -1.417,0.094 -0.562,-0.188 -1.124997,-0.188 -1.916997,-0.177 -3.156,-0.458 -6.281,-0.052 -9.479,-0.427 -0.76,-0.083 -1.558,-0.056 -2.292,-0.146 -3.062,-0.375 -3.812,-0.625 -7.24,-1.312 -3.156,-0.633 -6.156,-1.375 -9.26,-2 -4.25,-1.688 -8.812,-3.511 -11.281,-7.615 0.021,-0.01 0.042,-0.021 0.062,-0.031 -0.323,-0.76 -1.198,-1.125 -1.969,-0.802 -0.76,0.323 -1.125,1.198 -0.802,1.969 2.146,4.062 6.146,6.636 10.386,8.177 0.312,0.115 0.552,0.354 0.864,0.469 3.583,1.302 7.333,1.885 11.052,2.573 3.5,0.823 6.625,1.323 10.49,1.698 2.948,0.188 5.882,0.126 8.892,0.389 0.245,0.174 0.73,0.049 1.056,0.049 0.634997,0.052 1.155997,0.208 1.811997,0.125 0.5,-0.073 0.854,-0.011 1.323,-0.031 1.812,-0.104 3.615,0.052 5.427,-0.083 4.49,-0.354 8.656,-1.385 13.208,-2.26 1.052,-0.198 2.021,-0.49 2.989,-0.938 2.031,-0.927 4.104,-1.583 6.125,-2.552 2.781,-1.323 4.948,-3.302 6.833,-5.76 1.115,-1.458 1.979,-2.979 2.323,-4.802 0.344,-1.823 -0.217,-3.629 -0.862,-5.275 z"
       style="fill:#ffffff;fill-opacity:1;stroke:#000000;stroke-width:0.5"
       inkscape:connector-curvature="0" /><path
       id="path162"
       d="m 138.55253,353.801 c -0.417,-0.719 -1.333,-0.969 -2.052,-0.552 -0.719,0.406 -0.969,1.323 -0.552,2.042 0.208,0.99 0.656,1.958 0.511,2.979 -0.229,1.656 -1.125,3.146 -2.24,4.396 -0.948,1.062 -1.823,2.083 -3.042,2.896 -3.511,2.333 -7.208,3.583 -11.042,4.771 -5.958,0.896 -11.833,2.521 -17.906,2.136 -0.569,0.176 -0.848,0.092 -1.417,0.094 -0.562,-0.188 -1.124997,-0.188 -1.916997,-0.177 -3.156,-0.458 -6.281,-0.052 -9.479,-0.427 -0.76,-0.083 -1.558,-0.056 -2.292,-0.146 -3.062,-0.375 -3.812,-0.625 -7.24,-1.312 -3.156,-0.633 -6.156,-1.375 -9.26,-2 -4.25,-1.688 -8.812,-3.511 -11.281,-7.615 0.021,-0.01 0.042,-0.021 0.062,-0.031 -0.323,-0.76 -1.198,-1.125 -1.969,-0.802 -0.76,0.323 -1.125,1.198 -0.802,1.969 2.146,4.062 6.146,6.636 10.386,8.177 0.312,0.115 0.552,0.354 0.864,0.469 3.583,1.302 7.333,1.885 11.052,2.573 3.5,0.823 6.625,1.323 10.49,1.698 2.948,0.188 5.882,0.127 8.892,0.389 0.245,0.174 0.73,0.049 1.056,0.049 0.634997,0.052 1.155997,0.208 1.811997,0.125 0.5,-0.073 0.854,-0.011 1.323,-0.031 1.812,-0.104 3.615,0.052 5.427,-0.083 4.49,-0.354 8.656,-1.385 13.208,-2.26 1.052,-0.198 2.021,-0.49 2.989,-0.938 2.031,-0.927 4.104,-1.583 6.125,-2.552 2.781,-1.323 4.948,-3.302 6.833,-5.76 1.115,-1.458 1.979,-2.979 2.323,-4.802 0.344,-1.823 -0.217,-3.629 -0.862,-5.275 z"
       style="fill:#ffffff;fill-opacity:1;stroke:#000000;stroke-width:0.5"
       inkscape:connector-curvature="0" /><path
       id="path164"
       d="m 138.55253,350.116 c -0.417,-0.719 -1.333,-0.969 -2.052,-0.552 -0.719,0.406 -0.969,1.323 -0.552,2.042 0.208,0.99 0.656,1.958 0.511,2.979 -0.229,1.657 -1.125,3.146 -2.24,4.396 -0.948,1.062 -1.823,2.083 -3.042,2.896 -3.511,2.333 -7.208,3.583 -11.042,4.771 -5.958,0.896 -11.833,2.521 -17.906,2.136 -0.569,0.176 -0.848,0.092 -1.417,0.094 -0.562,-0.188 -1.124997,-0.188 -1.916997,-0.177 -3.156,-0.458 -6.281,-0.052 -9.479,-0.427 -0.76,-0.083 -1.558,-0.056 -2.292,-0.146 -3.062,-0.375 -3.812,-0.625 -7.24,-1.312 -3.156,-0.633 -6.156,-1.375 -9.26,-2 -4.25,-1.688 -8.812,-3.511 -11.281,-7.615 0.021,-0.01 0.042,-0.021 0.062,-0.031 -0.323,-0.76 -1.198,-1.125 -1.969,-0.802 -0.76,0.323 -1.125,1.198 -0.802,1.968 2.146,4.062 6.146,6.636 10.386,8.177 0.312,0.115 0.552,0.354 0.864,0.469 3.583,1.302 7.333,1.885 11.052,2.573 3.5,0.823 6.625,1.323 10.49,1.698 2.948,0.188 5.882,0.126 8.892,0.389 0.245,0.174 0.73,0.049 1.056,0.049 0.634997,0.052 1.155997,0.208 1.811997,0.125 0.5,-0.073 0.854,-0.011 1.323,-0.031 1.812,-0.104 3.615,0.052 5.427,-0.083 4.49,-0.354 8.656,-1.385 13.208,-2.26 1.052,-0.198 2.021,-0.49 2.989,-0.938 2.031,-0.927 4.104,-1.583 6.125,-2.552 2.781,-1.323 4.948,-3.302 6.833,-5.76 1.115,-1.458 1.979,-2.979 2.323,-4.802 0.344,-1.823 -0.217,-3.628 -0.862,-5.274 z"
       style="fill:#ffffff;fill-opacity:1;stroke:#000000;stroke-width:0.5"
       inkscape:connector-curvature="0" /><path
       id="path166"
       d="m 138.55253,346.431 c -0.417,-0.719 -1.333,-0.969 -2.052,-0.552 -0.719,0.406 -0.969,1.323 -0.552,2.042 0.208,0.99 0.656,1.958 0.511,2.979 -0.229,1.656 -1.125,3.146 -2.24,4.396 -0.948,1.062 -1.823,2.083 -3.042,2.896 -3.511,2.333 -7.208,3.583 -11.042,4.771 -5.958,0.896 -11.833,2.521 -17.906,2.136 -0.569,0.176 -0.848,0.092 -1.417,0.094 -0.562,-0.188 -1.124997,-0.188 -1.916997,-0.177 -3.156,-0.458 -6.281,-0.052 -9.479,-0.427 -0.76,-0.083 -1.558,-0.056 -2.292,-0.146 -3.062,-0.375 -3.812,-0.625 -7.24,-1.312 -3.156,-0.633 -6.156,-1.375 -9.26,-2 -4.25,-1.688 -8.812,-3.511 -11.281,-7.615 0.021,-0.01 0.042,-0.021 0.062,-0.031 -0.323,-0.76 -1.198,-1.125 -1.969,-0.802 -0.76,0.323 -1.125,1.198 -0.802,1.969 2.146,4.062 6.146,6.636 10.386,8.177 0.312,0.115 0.552,0.354 0.864,0.469 3.583,1.302 7.333,1.885 11.052,2.573 3.5,0.823 6.625,1.323 10.49,1.698 2.948,0.188 5.882,0.127 8.892,0.389 0.245,0.174 0.73,0.049 1.056,0.049 0.634997,0.052 1.155997,0.208 1.811997,0.125 0.5,-0.073 0.854,-0.011 1.323,-0.031 1.812,-0.104 3.615,0.052 5.427,-0.083 4.49,-0.354 8.656,-1.385 13.208,-2.26 1.052,-0.198 2.021,-0.49 2.989,-0.938 2.031,-0.927 4.104,-1.583 6.125,-2.552 2.781,-1.323 4.948,-3.302 6.833,-5.76 1.115,-1.458 1.979,-2.979 2.323,-4.802 0.344,-1.823 -0.217,-3.629 -0.862,-5.275 z"
       style="fill:#ffffff;fill-opacity:1;stroke:#000000;stroke-width:0.5"
       inkscape:connector-curvature="0" /><path
       id="path168"
       d="m 138.55253,342.746 c -0.417,-0.719 -1.333,-0.969 -2.052,-0.552 -0.719,0.406 -0.969,1.323 -0.552,2.042 0.208,0.99 0.656,1.958 0.511,2.979 -0.229,1.657 -1.125,3.146 -2.24,4.396 -0.948,1.062 -1.823,2.083 -3.042,2.896 -3.511,2.333 -7.208,3.583 -11.042,4.771 -5.958,0.896 -11.833,2.521 -17.906,2.136 -0.569,0.176 -0.848,0.092 -1.417,0.094 -0.562,-0.188 -1.124997,-0.188 -1.916997,-0.177 -3.156,-0.458 -6.281,-0.052 -9.479,-0.427 -0.76,-0.083 -1.558,-0.056 -2.292,-0.146 -3.062,-0.375 -3.812,-0.625 -7.24,-1.312 -3.156,-0.633 -6.156,-1.375 -9.26,-2 -4.25,-1.688 -8.812,-3.51 -11.281,-7.615 0.021,-0.01 0.042,-0.021 0.062,-0.031 -0.323,-0.76 -1.198,-1.125 -1.969,-0.802 -0.76,0.323 -1.125,1.198 -0.802,1.968 2.146,4.062 6.146,6.636 10.386,8.177 0.312,0.115 0.552,0.354 0.864,0.469 3.583,1.302 7.333,1.886 11.052,2.573 3.5,0.823 6.625,1.323 10.49,1.698 2.948,0.188 5.882,0.127 8.892,0.389 0.245,0.174 0.73,0.049 1.056,0.049 0.634997,0.052 1.155997,0.208 1.811997,0.125 0.5,-0.073 0.854,-0.01 1.323,-0.031 1.812,-0.104 3.615,0.052 5.427,-0.083 4.49,-0.354 8.656,-1.385 13.208,-2.26 1.052,-0.198 2.021,-0.49 2.989,-0.938 2.031,-0.927 4.104,-1.583 6.125,-2.552 2.781,-1.323 4.948,-3.302 6.833,-5.76 1.115,-1.458 1.979,-2.979 2.323,-4.802 0.344,-1.823 -0.217,-3.628 -0.862,-5.274 z"
       style="fill:#ffffff;fill-opacity:1;stroke:#000000;stroke-width:0.5"
       inkscape:connector-curvature="0" /><path
       id="path170"
       d="m 138.55214,339.061 c -0.417,-0.719 -1.333,-0.969 -2.052,-0.552 -0.719,0.406 -0.969,1.323 -0.552,2.042 0.208,0.99 0.656,1.958 0.511,2.979 -0.229,1.656 -1.125,3.146 -2.24,4.396 -0.948,1.062 -1.823,2.083 -3.042,2.896 -3.511,2.333 -7.208,3.583 -11.042,4.771 -5.958,0.896 -11.833,2.521 -17.906,2.136 -0.569,0.176 -0.848,0.092 -1.417,0.094 -0.562,-0.188 -1.125001,-0.188 -1.917001,-0.177 -3.156,-0.458 -6.281,-0.052 -9.479,-0.427 -0.76,-0.083 -1.558,-0.056 -2.292,-0.146 -3.062,-0.375 -3.812,-0.625 -7.24,-1.312 -3.156,-0.633 -6.156,-1.375 -9.26,-2 -4.25,-1.688 -8.812,-3.511 -11.281,-7.615 0.021,-0.01 0.042,-0.021 0.062,-0.031 -0.323,-0.76 -1.198,-1.125 -1.969,-0.802 -0.76,0.323 -1.125,1.198 -0.802,1.969 2.146,4.062 6.146,6.635 10.386,8.177 0.312,0.115 0.552,0.354 0.864,0.469 3.583,1.302 7.333,1.885 11.052,2.573 3.5,0.823 6.625,1.323 10.49,1.698 2.948,0.188 5.882,0.127 8.892,0.389 0.245,0.174 0.73,0.049 1.056,0.049 0.635001,0.052 1.156001,0.208 1.812001,0.125 0.5,-0.073 0.854,-0.011 1.323,-0.031 1.812,-0.104 3.615,0.052 5.427,-0.083 4.49,-0.354 8.656,-1.385 13.208,-2.26 1.052,-0.198 2.021,-0.49 2.989,-0.938 2.031,-0.927 4.104,-1.583 6.125,-2.552 2.781,-1.323 4.948,-3.302 6.833,-5.76 1.115,-1.458 1.979,-2.979 2.323,-4.802 0.346,-1.827 -0.217,-3.629 -0.862,-5.275 z"
       style="fill:#ffffff;fill-opacity:1;stroke:#000000;stroke-width:0.5"
       inkscape:connector-curvature="0" /><path
       id="path172"
       d="m 138.55214,335.376 c -0.417,-0.719 -1.333,-0.969 -2.052,-0.552 -0.719,0.406 -0.969,1.323 -0.552,2.042 0.208,0.99 0.656,1.958 0.511,2.979 -0.229,1.656 -1.125,3.146 -2.24,4.396 -0.948,1.062 -1.823,2.083 -3.042,2.896 -3.511,2.333 -7.208,3.583 -11.042,4.771 -5.958,0.896 -11.833,2.521 -17.906,2.135 -0.569,0.176 -0.848,0.092 -1.417,0.094 -0.562,-0.188 -1.125001,-0.188 -1.917001,-0.177 -3.156,-0.458 -6.281,-0.052 -9.479,-0.427 -0.76,-0.083 -1.558,-0.056 -2.292,-0.146 -3.062,-0.375 -3.812,-0.625 -7.24,-1.312 -3.156,-0.633 -6.156,-1.375 -9.26,-2 -4.25,-1.688 -8.812,-3.51 -11.281,-7.615 0.021,-0.01 0.042,-0.021 0.062,-0.031 -0.323,-0.76 -1.198,-1.125 -1.969,-0.802 -0.76,0.323 -1.125,1.198 -0.802,1.969 2.146,4.062 6.146,6.635 10.386,8.177 0.312,0.115 0.552,0.354 0.864,0.469 3.583,1.302 7.333,1.886 11.052,2.573 3.5,0.823 6.625,1.323 10.49,1.698 2.948,0.188 5.882,0.127 8.892,0.389 0.245,0.174 0.73,0.049 1.056,0.049 0.635001,0.052 1.156001,0.208 1.812001,0.125 0.5,-0.073 0.854,-0.01 1.323,-0.031 1.812,-0.104 3.615,0.052 5.427,-0.083 4.49,-0.354 8.656,-1.385 13.208,-2.26 1.052,-0.198 2.021,-0.49 2.989,-0.938 2.031,-0.927 4.104,-1.583 6.125,-2.552 2.781,-1.323 4.948,-3.302 6.833,-5.76 1.115,-1.458 1.979,-2.979 2.323,-4.802 0.346,-1.826 -0.217,-3.629 -0.862,-5.274 z"
       style="fill:#ffffff;fill-opacity:1;stroke:#000000;stroke-width:0.5"
       inkscape:connector-curvature="0" /><path
       id="path174"
       d="m 138.55214,331.691 c -0.417,-0.719 -1.333,-0.969 -2.052,-0.552 -0.719,0.406 -0.969,1.323 -0.552,2.042 0.208,0.99 0.656,1.958 0.511,2.979 -0.229,1.656 -1.125,3.146 -2.24,4.396 -0.948,1.062 -1.823,2.083 -3.042,2.896 -3.511,2.333 -7.208,3.583 -11.042,4.771 -5.958,0.896 -11.833,2.521 -17.906,2.135 -0.569,0.176 -0.848,0.092 -1.417,0.094 -0.562,-0.188 -1.125001,-0.188 -1.917001,-0.177 -3.156,-0.458 -6.281,-0.052 -9.479,-0.427 -0.76,-0.083 -1.558,-0.056 -2.292,-0.146 -3.062,-0.375 -3.812,-0.625 -7.24,-1.312 -3.156,-0.633 -6.156,-1.375 -9.26,-2 -4.25,-1.688 -8.812,-3.51 -11.281,-7.615 0.021,-0.01 0.042,-0.021 0.062,-0.031 -0.323,-0.76 -1.198,-1.125 -1.969,-0.802 -0.76,0.323 -1.125,1.198 -0.802,1.969 2.146,4.062 6.146,6.635 10.386,8.177 0.312,0.115 0.552,0.354 0.864,0.469 3.583,1.302 7.333,1.886 11.052,2.573 3.5,0.823 6.625,1.323 10.49,1.698 2.948,0.188 5.882,0.127 8.892,0.389 0.245,0.174 0.73,0.049 1.056,0.049 0.635001,0.052 1.156001,0.208 1.812001,0.125 0.5,-0.073 0.854,-0.01 1.323,-0.031 1.812,-0.104 3.615,0.052 5.427,-0.083 4.49,-0.354 8.656,-1.385 13.208,-2.26 1.052,-0.198 2.021,-0.49 2.989,-0.938 2.031,-0.927 4.104,-1.583 6.125,-2.552 2.781,-1.323 4.948,-3.302 6.833,-5.76 1.115,-1.458 1.979,-2.979 2.323,-4.802 0.346,-1.826 -0.217,-3.629 -0.862,-5.274 z"
       style="fill:#ffffff;fill-opacity:1;stroke:#000000;stroke-width:0.5"
       inkscape:connector-curvature="0" /><path
       id="path176"
       d="m 138.55214,328.006 c -0.417,-0.719 -1.333,-0.969 -2.052,-0.552 -0.719,0.406 -0.969,1.323 -0.552,2.042 0.208,0.99 0.656,1.958 0.511,2.979 -0.229,1.656 -1.125,3.146 -2.24,4.396 -0.948,1.062 -1.823,2.083 -3.042,2.896 -3.511,2.333 -7.208,3.583 -11.042,4.771 -5.958,0.896 -11.833,2.521 -17.906,2.135 -0.569,0.176 -0.848,0.092 -1.417,0.094 -0.562,-0.188 -1.125001,-0.188 -1.917001,-0.177 -3.156,-0.458 -6.281,-0.052 -9.479,-0.427 -0.76,-0.083 -1.558,-0.056 -2.292,-0.146 -3.062,-0.375 -3.812,-0.625 -7.24,-1.312 -3.156,-0.633 -6.156,-1.375 -9.26,-2 -4.25,-1.688 -8.812,-3.51 -11.281,-7.615 0.021,-0.01 0.042,-0.021 0.062,-0.031 -0.323,-0.76 -1.198,-1.125 -1.969,-0.802 -0.76,0.323 -1.125,1.198 -0.802,1.969 2.146,4.062 6.146,6.635 10.386,8.177 0.312,0.115 0.552,0.354 0.864,0.469 3.583,1.302 7.333,1.886 11.052,2.573 3.5,0.823 6.625,1.323 10.49,1.698 2.948,0.188 5.882,0.127 8.892,0.389 0.245,0.174 0.73,0.049 1.056,0.049 0.635001,0.052 1.156001,0.208 1.812001,0.125 0.5,-0.073 0.854,-0.01 1.323,-0.031 1.812,-0.104 3.615,0.052 5.427,-0.083 4.49,-0.354 8.656,-1.385 13.208,-2.26 1.052,-0.198 2.021,-0.49 2.989,-0.938 2.031,-0.927 4.104,-1.583 6.125,-2.552 2.781,-1.323 4.948,-3.302 6.833,-5.76 1.115,-1.458 1.979,-2.979 2.323,-4.802 0.346,-1.826 -0.217,-3.629 -0.862,-5.274 z"
       style="fill:#ffffff;fill-opacity:1;stroke:#000000;stroke-width:0.5"
       inkscape:connector-curvature="0" /><path
       id="path274"
       d="m 136.48687,335.146 c 0,0.007 -0.001,0.014 0,0.021 l 2.438,-3.967 c 0.204,-0.514 0.382,-1.042 0.489,-1.608 0.344,-1.823 -0.219,-3.625 -0.865,-5.271 -0.417,-0.719 -1.333,-0.969 -2.052,-0.552 -0.719,0.406 -0.969,1.323 -0.552,2.042 0.193,0.915 0.57,1.813 0.514,2.75 -1.73,-2.077 -3.71,-3.764 -6.172,-4.936 -2.021,-0.969 -4.094,-1.625 -6.125,-2.552 -0.969,-0.448 -1.938,-0.74 -2.99,-0.938 -4.552,-0.875 -8.719,-1.906 -13.208,-2.261 -1.812,-0.135 -3.614,0.021 -5.427,-0.083 -0.469,-0.021 -0.823,0.042 -1.323,-0.031 -0.656,-0.083 -1.177,0.073 -1.811996,0.125 -0.325,0 -0.811,-0.125 -1.056,0.048 -3.009,0.262 -5.944,0.202 -8.892,0.389 -3.865,0.375 -6.99,0.875 -10.49,1.698 -3.719,0.688 -7.469,1.271 -11.052,2.573 -0.312,0.115 -0.552,0.354 -0.865,0.469 -4.24,1.542 -8.24,4.115 -10.385,8.177 -0.048,0.113 -0.076,0.229 -0.095,0.345 -0.079,0.306 -0.067,0.639 0.065,0.955 2.146,4.062 6.146,6.635 10.386,8.177 0.312,0.114 0.552,0.354 0.864,0.468 3.583,1.302 7.333,1.886 11.052,2.573 3.5,0.823 6.625,1.323 10.489,1.698 2.948,0.188 5.882,0.127 8.892,0.389 0.245,0.174 0.73,0.049 1.056,0.049 0.634996,0.052 1.155996,0.208 1.811996,0.125 0.5,-0.073 0.854,-0.01 1.323,-0.031 1.812,-0.104 3.615,0.052 5.427,-0.083 4.489,-0.354 8.656,-1.386 13.208,-2.261 1.052,-0.198 2.021,-0.489 2.989,-0.938 2.031,-0.927 4.104,-1.583 6.125,-2.552 2.492,-1.183 4.488,-2.897 6.232,-5.007 z m -5.314,0.935 c -3.51,2.333 -7.208,3.583 -11.042,4.771 -5.958,0.896 -11.833,2.521 -17.906,2.135 -0.569,0.176 -0.848,0.092 -1.417,0.094 -0.562,-0.188 -1.124996,-0.188 -1.916996,-0.177 -3.156,-0.458 -6.281,-0.052 -9.479,-0.427 -0.76,-0.083 -1.558,-0.056 -2.292,-0.146 -3.062,-0.375 -3.812,-0.625 -7.24,-1.312 -3.156,-0.633 -6.156,-1.375 -9.26,-2 -4.063,-1.613 -8.39,-3.373 -10.922,-7.108 2.527,-3.764 6.873,-5.53 10.951,-7.149 3.104,-0.625 6.104,-1.367 9.261,-2 3.427,-0.688 4.177,-0.938 7.239,-1.312 0.734,-0.09 1.531,-0.062 2.292,-0.146 3.198,-0.375 6.323,0.031 9.479,-0.427 0.792,0.011 1.353996,0.011 1.916996,-0.177 0.569,0.002 0.848,-0.083 1.417,0.094 6.073,-0.386 11.948,1.239 17.906,2.135 3.833,1.188 7.531,2.438 11.042,4.771 1.219,0.812 2.094,1.833 3.042,2.896 0.357,0.4 0.687,0.827 0.984,1.274 -0.305,0.463 -0.646,0.904 -1.014,1.317 -0.946,1.061 -1.821,2.082 -3.041,2.894 z"
       style="fill:#ffffff;fill-opacity:1;stroke:#000000;stroke-width:0.5"
       inkscape:connector-curvature="0" /><line
       id="line276"
       y2="328.561"
       x2="98.696915"
       y1="331.80399"
       x1="97.338913"
       style="fill:#ffffff;fill-opacity:1;stroke:#000000;stroke-width:0.5" /><path
       id="path138-7"
       d="m 138.55298,299.26275 c -0.417,0.719 -1.333,0.969 -2.052,0.552 -0.719,-0.406 -0.969,-1.323 -0.552,-2.042 0.208,-0.989 0.656,-1.958 0.51,-2.979 -0.229,-1.656 -1.125,-3.146 -2.24,-4.396 -0.948,-1.062 -1.823,-2.083 -3.042,-2.896 -3.51,-2.333 -7.208,-3.583 -11.042,-4.771 -5.958,-0.896 -11.833,-2.521 -17.906,-2.135 -0.569,-0.176 -0.848,-0.092 -1.417,-0.094 -0.562,0.188 -1.124999,0.188 -1.916999,0.177 -3.156,0.458 -6.281,0.052 -9.479,0.427 -0.761,0.083 -1.558,0.056 -2.292,0.146 -3.062,0.375 -3.812,0.625 -7.239,1.312 -3.157,0.634 -6.156,1.375 -9.261,2 -4.25,1.688 -8.812,3.511 -11.281,7.615 0.021,0.01 0.042,0.021 0.062,0.031 -0.323,0.761 -1.198,1.125 -1.969,0.802 -0.76,-0.323 -1.125,-1.198 -0.802,-1.969 2.146,-4.062 6.146,-6.635 10.385,-8.177 0.312,-0.115 0.552,-0.354 0.865,-0.469 3.583,-1.302 7.333,-1.885 11.052,-2.573 3.5,-0.823 6.625,-1.323 10.49,-1.698 2.948,-0.188 5.882,-0.126 8.892,-0.389 0.245,-0.174 0.731,-0.049 1.056,-0.049 0.635999,-0.052 1.155999,-0.208 1.811999,-0.125 0.5,0.073 0.854,0.011 1.323,0.032 1.812,0.104 3.614,-0.052 5.427,0.083 4.49,0.354 8.656,1.385 13.208,2.26 1.052,0.198 2.021,0.49 2.99,0.938 2.031,0.927 4.104,1.583 6.125,2.552 2.781,1.323 4.948,3.302 6.833,5.76 1.115,1.458 1.979,2.979 2.323,4.802 0.344,1.823 -0.216,3.627 -0.862,5.273 z"
       style="fill:#ffffff;fill-opacity:1;stroke:#000000;stroke-width:0.5;overflow:visible"
       inkscape:connector-curvature="0" /><path
       id="path140-3"
       d="m 138.55239,302.94775 c -0.417,0.719 -1.333,0.969 -2.052,0.552 -0.719,-0.406 -0.969,-1.323 -0.552,-2.042 0.208,-0.989 0.656,-1.958 0.51,-2.979 -0.229,-1.656 -1.125,-3.146 -2.24,-4.396 -0.948,-1.062 -1.823,-2.083 -3.042,-2.896 -3.51,-2.333 -7.208,-3.583 -11.042,-4.771 -5.958,-0.896 -11.833,-2.521 -17.906,-2.135 -0.569,-0.176 -0.848,-0.092 -1.417,-0.094 -0.562,0.188 -1.125,0.188 -1.917,0.177 -3.156,0.458 -6.281,0.052 -9.479,0.427 -0.761,0.083 -1.558,0.056 -2.292,0.146 -3.062,0.375 -3.812,0.625 -7.239,1.312 -3.157,0.633 -6.156,1.375 -9.261,2 -4.25,1.688 -8.812,3.51 -11.281,7.614 0.021,0.011 0.042,0.021 0.062,0.031 -0.323,0.761 -1.198,1.125 -1.969,0.802 -0.76,-0.323 -1.125,-1.198 -0.802,-1.969 2.146,-4.062 6.146,-6.635 10.385,-8.177 0.312,-0.114 0.552,-0.354 0.865,-0.469 3.583,-1.302 7.333,-1.885 11.052,-2.573 3.5,-0.823 6.625,-1.323 10.49,-1.698 2.948,-0.188 5.882,-0.127 8.892,-0.389 0.245,-0.174 0.731,-0.048 1.056,-0.048 0.636,-0.052 1.156,-0.208 1.812,-0.125 0.5,0.073 0.854,0.01 1.323,0.031 1.812,0.104 3.614,-0.052 5.427,0.083 4.49,0.354 8.656,1.386 13.208,2.261 1.052,0.198 2.021,0.489 2.99,0.938 2.031,0.927 4.104,1.583 6.125,2.552 2.781,1.323 4.948,3.302 6.833,5.761 1.115,1.458 1.979,2.979 2.323,4.802 0.347,1.824 -0.216,3.626 -0.862,5.272 z"
       style="fill:#ffffff;fill-opacity:1;stroke:#000000;stroke-width:0.5;overflow:visible"
       inkscape:connector-curvature="0" /><path
       id="path142-9"
       d="m 138.55298,306.63275 c -0.417,0.719 -1.333,0.969 -2.052,0.552 -0.719,-0.406 -0.969,-1.323 -0.552,-2.042 0.208,-0.989 0.656,-1.958 0.51,-2.979 -0.229,-1.656 -1.125,-3.146 -2.24,-4.396 -0.948,-1.062 -1.823,-2.083 -3.042,-2.896 -3.51,-2.333 -7.208,-3.583 -11.042,-4.771 -5.958,-0.896 -11.833,-2.521 -17.906,-2.135 -0.569,-0.176 -0.848,-0.092 -1.417,-0.094 -0.562,0.188 -1.124999,0.188 -1.916999,0.177 -3.156,0.458 -6.281,0.052 -9.479,0.427 -0.761,0.083 -1.558,0.056 -2.292,0.146 -3.062,0.375 -3.812,0.625 -7.239,1.312 -3.157,0.633 -6.156,1.375 -9.261,2 -4.25,1.688 -8.812,3.511 -11.281,7.615 0.021,0.01 0.042,0.021 0.062,0.031 -0.323,0.761 -1.198,1.125 -1.969,0.802 -0.76,-0.323 -1.125,-1.198 -0.802,-1.969 2.146,-4.062 6.146,-6.635 10.385,-8.177 0.312,-0.115 0.552,-0.354 0.865,-0.469 3.583,-1.302 7.333,-1.885 11.052,-2.573 3.5,-0.823 6.625,-1.323 10.49,-1.698 2.948,-0.188 5.882,-0.126 8.892,-0.389 0.245,-0.174 0.731,-0.049 1.056,-0.049 0.635999,-0.052 1.155999,-0.208 1.811999,-0.125 0.5,0.073 0.854,0.011 1.323,0.032 1.812,0.104 3.614,-0.052 5.427,0.083 4.49,0.354 8.656,1.385 13.208,2.26 1.052,0.198 2.021,0.49 2.99,0.938 2.031,0.927 4.104,1.583 6.125,2.552 2.781,1.323 4.948,3.302 6.833,5.76 1.115,1.458 1.979,2.979 2.323,4.802 0.344,1.823 -0.216,3.627 -0.862,5.273 z"
       style="fill:#ffffff;fill-opacity:1;stroke:#000000;stroke-width:0.5;overflow:visible"
       inkscape:connector-curvature="0" /><path
       id="path144-9"
       d="m 138.55239,310.31775 c -0.417,0.719 -1.333,0.969 -2.052,0.552 -0.719,-0.407 -0.969,-1.323 -0.552,-2.042 0.208,-0.99 0.656,-1.958 0.51,-2.979 -0.229,-1.656 -1.125,-3.146 -2.24,-4.396 -0.948,-1.062 -1.823,-2.083 -3.042,-2.896 -3.51,-2.333 -7.208,-3.583 -11.042,-4.771 -5.958,-0.896 -11.833,-2.521 -17.906,-2.136 -0.569,-0.176 -0.848,-0.091 -1.417,-0.093 -0.562,0.188 -1.125,0.188 -1.917,0.177 -3.156,0.458 -6.281,0.052 -9.479,0.427 -0.761,0.083 -1.558,0.056 -2.292,0.146 -3.062,0.375 -3.812,0.625 -7.239,1.312 -3.157,0.633 -6.156,1.375 -9.261,2 -4.25,1.688 -8.812,3.51 -11.281,7.614 0.021,0.011 0.042,0.021 0.062,0.031 -0.323,0.76 -1.198,1.125 -1.969,0.802 -0.76,-0.323 -1.125,-1.198 -0.802,-1.969 2.146,-4.062 6.146,-6.636 10.385,-8.177 0.312,-0.114 0.552,-0.354 0.865,-0.469 3.583,-1.302 7.333,-1.885 11.052,-2.573 3.5,-0.823 6.625,-1.323 10.49,-1.698 2.948,-0.188 5.882,-0.127 8.892,-0.389 0.245,-0.174 0.731,-0.048 1.056,-0.048 0.636,-0.052 1.156,-0.208 1.812,-0.125 0.5,0.073 0.854,0.01 1.323,0.031 1.812,0.104 3.614,-0.052 5.427,0.083 4.49,0.354 8.656,1.386 13.208,2.261 1.052,0.198 2.021,0.489 2.99,0.938 2.031,0.927 4.104,1.583 6.125,2.552 2.781,1.323 4.948,3.302 6.833,5.761 1.115,1.458 1.979,2.979 2.323,4.802 0.347,1.824 -0.216,3.626 -0.862,5.272 z"
       style="fill:#ffffff;fill-opacity:1;stroke:#000000;stroke-width:0.5;overflow:visible"
       inkscape:connector-curvature="0" /><path
       id="path146-5"
       d="m 138.55298,314.00275 c -0.417,0.719 -1.333,0.969 -2.052,0.552 -0.719,-0.406 -0.969,-1.323 -0.552,-2.042 0.208,-0.989 0.656,-1.958 0.51,-2.979 -0.229,-1.656 -1.125,-3.146 -2.24,-4.396 -0.948,-1.062 -1.823,-2.083 -3.042,-2.896 -3.51,-2.333 -7.208,-3.583 -11.042,-4.771 -5.958,-0.896 -11.833,-2.521 -17.906,-2.136 -0.569,-0.176 -0.848,-0.091 -1.417,-0.094 -0.562,0.188 -1.124999,0.188 -1.916999,0.177 -3.156,0.458 -6.281,0.052 -9.479,0.427 -0.761,0.083 -1.558,0.056 -2.292,0.146 -3.062,0.375 -3.812,0.625 -7.239,1.312 -3.157,0.633 -6.156,1.375 -9.261,2 -4.25,1.688 -8.812,3.511 -11.281,7.615 0.021,0.01 0.042,0.021 0.062,0.031 -0.323,0.76 -1.198,1.125 -1.969,0.802 -0.76,-0.323 -1.125,-1.198 -0.802,-1.969 2.146,-4.062 6.146,-6.635 10.385,-8.177 0.312,-0.115 0.552,-0.354 0.865,-0.469 3.583,-1.302 7.333,-1.885 11.052,-2.573 3.5,-0.823 6.625,-1.323 10.49,-1.698 2.948,-0.188 5.882,-0.126 8.892,-0.389 0.245,-0.174 0.731,-0.049 1.056,-0.049 0.635999,-0.052 1.155999,-0.208 1.811999,-0.125 0.5,0.073 0.854,0.011 1.323,0.031 1.812,0.104 3.614,-0.052 5.427,0.083 4.49,0.354 8.656,1.385 13.208,2.26 1.052,0.198 2.021,0.49 2.99,0.938 2.031,0.927 4.104,1.583 6.125,2.552 2.781,1.323 4.948,3.302 6.833,5.76 1.115,1.458 1.979,2.979 2.323,4.802 0.344,1.823 -0.216,3.629 -0.862,5.275 z"
       style="fill:#ffffff;fill-opacity:1;stroke:#000000;stroke-width:0.5;overflow:visible"
       inkscape:connector-curvature="0" /><path
       id="path148-6"
       d="m 138.55239,317.68775 c -0.417,0.719 -1.333,0.969 -2.052,0.552 -0.719,-0.407 -0.969,-1.323 -0.552,-2.042 0.208,-0.99 0.656,-1.958 0.51,-2.979 -0.229,-1.656 -1.125,-3.146 -2.24,-4.396 -0.948,-1.062 -1.823,-2.083 -3.042,-2.896 -3.51,-2.333 -7.208,-3.583 -11.042,-4.771 -5.958,-0.896 -11.833,-2.521 -17.906,-2.136 -0.569,-0.176 -0.848,-0.091 -1.417,-0.093 -0.562,0.188 -1.125,0.188 -1.917,0.177 -3.156,0.458 -6.281,0.052 -9.479,0.427 -0.761,0.083 -1.558,0.056 -2.292,0.146 -3.062,0.375 -3.812,0.625 -7.239,1.312 -3.157,0.633 -6.156,1.375 -9.261,2 -4.25,1.688 -8.812,3.51 -11.281,7.614 0.021,0.011 0.042,0.021 0.062,0.031 -0.323,0.76 -1.198,1.125 -1.969,0.802 -0.76,-0.323 -1.125,-1.198 -0.802,-1.969 2.146,-4.062 6.146,-6.636 10.385,-8.177 0.312,-0.114 0.552,-0.354 0.865,-0.469 3.583,-1.302 7.333,-1.885 11.052,-2.573 3.5,-0.823 6.625,-1.323 10.49,-1.698 2.948,-0.188 5.882,-0.127 8.892,-0.389 0.245,-0.174 0.731,-0.048 1.056,-0.048 0.636,-0.052 1.156,-0.208 1.812,-0.125 0.5,0.073 0.854,0.01 1.323,0.031 1.812,0.104 3.614,-0.052 5.427,0.083 4.49,0.354 8.656,1.386 13.208,2.261 1.052,0.198 2.021,0.489 2.99,0.938 2.031,0.927 4.104,1.583 6.125,2.552 2.781,1.323 4.948,3.302 6.833,5.761 1.115,1.458 1.979,2.979 2.323,4.802 0.347,1.824 -0.216,3.626 -0.862,5.272 z"
       style="fill:#ffffff;fill-opacity:1;stroke:#000000;stroke-width:0.5;overflow:visible"
       inkscape:connector-curvature="0" /><path
       id="path150-3"
       d="m 138.55298,321.37275 c -0.417,0.719 -1.333,0.969 -2.052,0.552 -0.719,-0.406 -0.969,-1.323 -0.552,-2.042 0.208,-0.99 0.656,-1.958 0.51,-2.979 -0.229,-1.656 -1.125,-3.146 -2.24,-4.396 -0.948,-1.062 -1.823,-2.083 -3.042,-2.896 -3.51,-2.333 -7.208,-3.583 -11.042,-4.771 -5.958,-0.896 -11.833,-2.521 -17.906,-2.136 -0.569,-0.176 -0.848,-0.092 -1.417,-0.094 -0.562,0.188 -1.124999,0.188 -1.916999,0.177 -3.156,0.458 -6.281,0.052 -9.479,0.427 -0.761,0.083 -1.558,0.056 -2.292,0.146 -3.062,0.375 -3.812,0.625 -7.239,1.312 -3.157,0.633 -6.156,1.375 -9.261,2 -4.25,1.688 -8.812,3.511 -11.281,7.615 0.021,0.01 0.042,0.021 0.062,0.031 -0.323,0.76 -1.198,1.125 -1.969,0.802 -0.76,-0.323 -1.125,-1.198 -0.802,-1.969 2.146,-4.062 6.146,-6.636 10.385,-8.177 0.312,-0.115 0.552,-0.354 0.865,-0.469 3.583,-1.302 7.333,-1.885 11.052,-2.573 3.5,-0.823 6.625,-1.323 10.49,-1.698 2.948,-0.188 5.882,-0.126 8.892,-0.389 0.245,-0.174 0.731,-0.049 1.056,-0.049 0.635999,-0.052 1.155999,-0.208 1.811999,-0.125 0.5,0.073 0.854,0.011 1.323,0.031 1.812,0.104 3.614,-0.052 5.427,0.083 4.49,0.354 8.656,1.385 13.208,2.26 1.052,0.198 2.021,0.49 2.99,0.938 2.031,0.927 4.104,1.583 6.125,2.552 2.781,1.323 4.948,3.302 6.833,5.76 1.115,1.458 1.979,2.979 2.323,4.802 0.344,1.823 -0.216,3.629 -0.862,5.275 z"
       style="fill:#ffffff;fill-opacity:1;stroke:#000000;stroke-width:0.5;overflow:visible"
       inkscape:connector-curvature="0" /><path
       id="path152-6"
       d="m 138.55298,325.05775 c -0.417,0.719 -1.333,0.969 -2.052,0.552 -0.719,-0.406 -0.969,-1.323 -0.552,-2.042 0.208,-0.99 0.656,-1.958 0.51,-2.979 -0.229,-1.656 -1.125,-3.146 -2.24,-4.396 -0.948,-1.062 -1.823,-2.083 -3.042,-2.896 -3.51,-2.333 -7.208,-3.583 -11.042,-4.771 -5.958,-0.896 -11.833,-2.521 -17.906,-2.136 -0.569,-0.176 -0.848,-0.091 -1.417,-0.094 -0.562,0.188 -1.124999,0.188 -1.916999,0.177 -3.156,0.458 -6.281,0.052 -9.479,0.427 -0.761,0.083 -1.558,0.056 -2.292,0.146 -3.062,0.375 -3.812,0.625 -7.239,1.312 -3.157,0.633 -6.156,1.375 -9.261,2 -4.25,1.688 -8.812,3.511 -11.281,7.615 0.021,0.01 0.042,0.021 0.062,0.031 -0.323,0.76 -1.198,1.125 -1.969,0.802 -0.76,-0.323 -1.125,-1.198 -0.802,-1.969 2.146,-4.062 6.146,-6.636 10.385,-8.177 0.312,-0.115 0.552,-0.354 0.865,-0.469 3.583,-1.302 7.333,-1.885 11.052,-2.573 3.5,-0.823 6.625,-1.323 10.49,-1.698 2.948,-0.188 5.882,-0.126 8.892,-0.389 0.245,-0.174 0.731,-0.049 1.056,-0.049 0.635999,-0.052 1.155999,-0.208 1.811999,-0.125 0.5,0.073 0.854,0.011 1.323,0.031 1.812,0.104 3.614,-0.052 5.427,0.083 4.49,0.354 8.656,1.385 13.208,2.26 1.052,0.198 2.021,0.49 2.99,0.938 2.031,0.927 4.104,1.583 6.125,2.552 2.781,1.323 4.948,3.302 6.833,5.76 1.115,1.458 1.979,2.979 2.323,4.802 0.344,1.823 -0.216,3.629 -0.862,5.275 z"
       style="fill:#ffffff;fill-opacity:1;stroke:#000000;stroke-width:0.5;overflow:visible"
       inkscape:connector-curvature="0" /><path
       id="path154-9"
       d="m 138.55298,328.74275 c -0.417,0.719 -1.333,0.969 -2.052,0.552 -0.719,-0.406 -0.969,-1.323 -0.552,-2.042 0.208,-0.99 0.656,-1.958 0.51,-2.979 -0.229,-1.656 -1.125,-3.146 -2.24,-4.396 -0.948,-1.062 -1.823,-2.083 -3.042,-2.896 -3.51,-2.333 -7.208,-3.583 -11.042,-4.771 -5.958,-0.896 -11.833,-2.521 -17.906,-2.136 -0.569,-0.176 -0.848,-0.092 -1.417,-0.094 -0.562,0.188 -1.124999,0.188 -1.916999,0.177 -3.156,0.458 -6.281,0.052 -9.479,0.427 -0.761,0.083 -1.558,0.056 -2.292,0.146 -3.062,0.375 -3.812,0.625 -7.239,1.312 -3.157,0.633 -6.156,1.375 -9.261,2 -4.25,1.688 -8.812,3.511 -11.281,7.615 0.021,0.01 0.042,0.021 0.062,0.031 -0.323,0.76 -1.198,1.125 -1.969,0.802 -0.76,-0.323 -1.125,-1.198 -0.802,-1.969 2.146,-4.062 6.146,-6.636 10.385,-8.177 0.312,-0.115 0.552,-0.354 0.865,-0.469 3.583,-1.302 7.333,-1.885 11.052,-2.573 3.5,-0.823 6.625,-1.323 10.49,-1.698 2.948,-0.188 5.882,-0.126 8.892,-0.389 0.245,-0.174 0.731,-0.049 1.056,-0.049 0.635999,-0.052 1.155999,-0.208 1.811999,-0.125 0.5,0.073 0.854,0.011 1.323,0.031 1.812,0.104 3.614,-0.052 5.427,0.083 4.49,0.354 8.656,1.385 13.208,2.26 1.052,0.198 2.021,0.49 2.99,0.938 2.031,0.927 4.104,1.583 6.125,2.552 2.781,1.323 4.948,3.302 6.833,5.76 1.115,1.458 1.979,2.979 2.323,4.802 0.344,1.823 -0.216,3.629 -0.862,5.275 z"
       style="fill:#ffffff;fill-opacity:1;stroke:#000000;stroke-width:0.5;overflow:visible"
       inkscape:connector-curvature="0" /><path
       id="path156-9"
       d="m 138.55253,320.97475 c -0.417,-0.719 -1.333,-0.969 -2.052,-0.552 -0.719,0.406 -0.969,1.323 -0.552,2.042 0.208,0.99 0.656,1.958 0.511,2.979 -0.229,1.656 -1.125,3.146 -2.24,4.396 -0.948,1.062 -1.823,2.083 -3.042,2.896 -3.511,2.333 -7.208,3.583 -11.042,4.771 -5.958,0.896 -11.833,2.521 -17.906,2.136 -0.569,0.176 -0.848,0.092 -1.417,0.094 -0.562,-0.188 -1.124997,-0.188 -1.916997,-0.177 -3.156,-0.458 -6.281,-0.052 -9.479,-0.427 -0.76,-0.083 -1.558,-0.056 -2.292,-0.146 -3.062,-0.375 -3.812,-0.625 -7.24,-1.312 -3.156,-0.633 -6.156,-1.375 -9.26,-2 -4.25,-1.688 -8.812,-3.511 -11.281,-7.615 0.021,-0.01 0.042,-0.021 0.062,-0.031 -0.323,-0.76 -1.198,-1.125 -1.969,-0.802 -0.76,0.323 -1.125,1.198 -0.802,1.969 2.146,4.062 6.146,6.636 10.386,8.177 0.312,0.115 0.552,0.354 0.864,0.469 3.583,1.302 7.333,1.885 11.052,2.573 3.5,0.823 6.625,1.323 10.49,1.698 2.948,0.188 5.882,0.126 8.892,0.389 0.245,0.174 0.73,0.049 1.056,0.049 0.634997,0.052 1.155997,0.208 1.811997,0.125 0.5,-0.073 0.854,-0.011 1.323,-0.031 1.812,-0.104 3.615,0.052 5.427,-0.083 4.49,-0.354 8.656,-1.385 13.208,-2.26 1.052,-0.198 2.021,-0.49 2.989,-0.938 2.031,-0.927 4.104,-1.583 6.125,-2.552 2.781,-1.323 4.948,-3.302 6.833,-5.76 1.115,-1.458 1.979,-2.979 2.323,-4.802 0.344,-1.823 -0.217,-3.629 -0.862,-5.275 z"
       style="fill:#ffffff;fill-opacity:1;stroke:#000000;stroke-width:0.5;overflow:visible"
       inkscape:connector-curvature="0" /><path
       id="path158-1"
       d="m 138.55253,317.28975 c -0.417,-0.719 -1.333,-0.969 -2.052,-0.552 -0.719,0.406 -0.969,1.323 -0.552,2.042 0.208,0.99 0.656,1.958 0.511,2.979 -0.229,1.656 -1.125,3.146 -2.24,4.396 -0.948,1.062 -1.823,2.083 -3.042,2.896 -3.511,2.333 -7.208,3.583 -11.042,4.771 -5.958,0.896 -11.833,2.521 -17.906,2.136 -0.569,0.176 -0.848,0.092 -1.417,0.094 -0.562,-0.188 -1.124997,-0.188 -1.916997,-0.177 -3.156,-0.458 -6.281,-0.052 -9.479,-0.427 -0.76,-0.083 -1.558,-0.056 -2.292,-0.146 -3.062,-0.375 -3.812,-0.625 -7.24,-1.312 -3.156,-0.633 -6.156,-1.375 -9.26,-2 -4.25,-1.688 -8.812,-3.511 -11.281,-7.615 0.021,-0.01 0.042,-0.021 0.062,-0.031 -0.323,-0.76 -1.198,-1.125 -1.969,-0.802 -0.76,0.323 -1.125,1.198 -0.802,1.969 2.146,4.062 6.146,6.636 10.386,8.177 0.312,0.115 0.552,0.354 0.864,0.469 3.583,1.302 7.333,1.885 11.052,2.573 3.5,0.823 6.625,1.323 10.49,1.698 2.948,0.188 5.882,0.127 8.892,0.389 0.245,0.174 0.73,0.049 1.056,0.049 0.634997,0.052 1.155997,0.208 1.811997,0.125 0.5,-0.073 0.854,-0.011 1.323,-0.031 1.812,-0.104 3.615,0.052 5.427,-0.083 4.49,-0.354 8.656,-1.385 13.208,-2.26 1.052,-0.198 2.021,-0.49 2.989,-0.938 2.031,-0.927 4.104,-1.583 6.125,-2.552 2.781,-1.323 4.948,-3.302 6.833,-5.76 1.115,-1.458 1.979,-2.979 2.323,-4.802 0.344,-1.823 -0.217,-3.629 -0.862,-5.275 z"
       style="fill:#ffffff;fill-opacity:1;stroke:#000000;stroke-width:0.5;overflow:visible"
       inkscape:connector-curvature="0" /><path
       id="path160-9"
       d="m 138.55253,313.60475 c -0.417,-0.719 -1.333,-0.969 -2.052,-0.552 -0.719,0.406 -0.969,1.323 -0.552,2.042 0.208,0.99 0.656,1.958 0.511,2.979 -0.229,1.656 -1.125,3.146 -2.24,4.396 -0.948,1.062 -1.823,2.083 -3.042,2.896 -3.511,2.333 -7.208,3.583 -11.042,4.771 -5.958,0.896 -11.833,2.521 -17.906,2.136 -0.569,0.176 -0.848,0.092 -1.417,0.094 -0.562,-0.188 -1.124997,-0.188 -1.916997,-0.177 -3.156,-0.458 -6.281,-0.052 -9.479,-0.427 -0.76,-0.083 -1.558,-0.056 -2.292,-0.146 -3.062,-0.375 -3.812,-0.625 -7.24,-1.312 -3.156,-0.633 -6.156,-1.375 -9.26,-2 -4.25,-1.688 -8.812,-3.511 -11.281,-7.615 0.021,-0.01 0.042,-0.021 0.062,-0.031 -0.323,-0.76 -1.198,-1.125 -1.969,-0.802 -0.76,0.323 -1.125,1.198 -0.802,1.969 2.146,4.062 6.146,6.636 10.386,8.177 0.312,0.115 0.552,0.354 0.864,0.469 3.583,1.302 7.333,1.885 11.052,2.573 3.5,0.823 6.625,1.323 10.49,1.698 2.948,0.188 5.882,0.126 8.892,0.389 0.245,0.174 0.73,0.049 1.056,0.049 0.634997,0.052 1.155997,0.208 1.811997,0.125 0.5,-0.073 0.854,-0.011 1.323,-0.031 1.812,-0.104 3.615,0.052 5.427,-0.083 4.49,-0.354 8.656,-1.385 13.208,-2.26 1.052,-0.198 2.021,-0.49 2.989,-0.938 2.031,-0.927 4.104,-1.583 6.125,-2.552 2.781,-1.323 4.948,-3.302 6.833,-5.76 1.115,-1.458 1.979,-2.979 2.323,-4.802 0.344,-1.823 -0.217,-3.629 -0.862,-5.275 z"
       style="fill:#ffffff;fill-opacity:1;stroke:#000000;stroke-width:0.5;overflow:visible"
       inkscape:connector-curvature="0" /><path
       id="path162-1"
       d="m 138.55253,309.91975 c -0.417,-0.719 -1.333,-0.969 -2.052,-0.552 -0.719,0.406 -0.969,1.323 -0.552,2.042 0.208,0.99 0.656,1.958 0.511,2.979 -0.229,1.656 -1.125,3.146 -2.24,4.396 -0.948,1.062 -1.823,2.083 -3.042,2.896 -3.511,2.333 -7.208,3.583 -11.042,4.771 -5.958,0.896 -11.833,2.521 -17.906,2.136 -0.569,0.176 -0.848,0.092 -1.417,0.094 -0.562,-0.188 -1.124997,-0.188 -1.916997,-0.177 -3.156,-0.458 -6.281,-0.052 -9.479,-0.427 -0.76,-0.083 -1.558,-0.056 -2.292,-0.146 -3.062,-0.375 -3.812,-0.625 -7.24,-1.312 -3.156,-0.633 -6.156,-1.375 -9.26,-2 -4.25,-1.688 -8.812,-3.511 -11.281,-7.615 0.021,-0.01 0.042,-0.021 0.062,-0.031 -0.323,-0.76 -1.198,-1.125 -1.969,-0.802 -0.76,0.323 -1.125,1.198 -0.802,1.969 2.146,4.062 6.146,6.636 10.386,8.177 0.312,0.115 0.552,0.354 0.864,0.469 3.583,1.302 7.333,1.885 11.052,2.573 3.5,0.823 6.625,1.323 10.49,1.698 2.948,0.188 5.882,0.127 8.892,0.389 0.245,0.174 0.73,0.049 1.056,0.049 0.634997,0.052 1.155997,0.208 1.811997,0.125 0.5,-0.073 0.854,-0.011 1.323,-0.031 1.812,-0.104 3.615,0.052 5.427,-0.083 4.49,-0.354 8.656,-1.385 13.208,-2.26 1.052,-0.198 2.021,-0.49 2.989,-0.938 2.031,-0.927 4.104,-1.583 6.125,-2.552 2.781,-1.323 4.948,-3.302 6.833,-5.76 1.115,-1.458 1.979,-2.979 2.323,-4.802 0.344,-1.823 -0.217,-3.629 -0.862,-5.275 z"
       style="fill:#ffffff;fill-opacity:1;stroke:#000000;stroke-width:0.5;overflow:visible"
       inkscape:connector-curvature="0" /><path
       id="path164-6"
       d="m 138.55253,306.23475 c -0.417,-0.719 -1.333,-0.969 -2.052,-0.552 -0.719,0.406 -0.969,1.323 -0.552,2.042 0.208,0.99 0.656,1.958 0.511,2.979 -0.229,1.657 -1.125,3.146 -2.24,4.396 -0.948,1.062 -1.823,2.083 -3.042,2.896 -3.511,2.333 -7.208,3.583 -11.042,4.771 -5.958,0.896 -11.833,2.521 -17.906,2.136 -0.569,0.176 -0.848,0.092 -1.417,0.094 -0.562,-0.188 -1.124997,-0.188 -1.916997,-0.177 -3.156,-0.458 -6.281,-0.052 -9.479,-0.427 -0.76,-0.083 -1.558,-0.056 -2.292,-0.146 -3.062,-0.375 -3.812,-0.625 -7.24,-1.312 -3.156,-0.633 -6.156,-1.375 -9.26,-2 -4.25,-1.688 -8.812,-3.511 -11.281,-7.615 0.021,-0.01 0.042,-0.021 0.062,-0.031 -0.323,-0.76 -1.198,-1.125 -1.969,-0.802 -0.76,0.323 -1.125,1.198 -0.802,1.968 2.146,4.062 6.146,6.636 10.386,8.177 0.312,0.115 0.552,0.354 0.864,0.469 3.583,1.302 7.333,1.885 11.052,2.573 3.5,0.823 6.625,1.323 10.49,1.698 2.948,0.188 5.882,0.126 8.892,0.389 0.245,0.174 0.73,0.049 1.056,0.049 0.634997,0.052 1.155997,0.208 1.811997,0.125 0.5,-0.073 0.854,-0.011 1.323,-0.031 1.812,-0.104 3.615,0.052 5.427,-0.083 4.49,-0.354 8.656,-1.385 13.208,-2.26 1.052,-0.198 2.021,-0.49 2.989,-0.938 2.031,-0.927 4.104,-1.583 6.125,-2.552 2.781,-1.323 4.948,-3.302 6.833,-5.76 1.115,-1.458 1.979,-2.979 2.323,-4.802 0.344,-1.823 -0.217,-3.628 -0.862,-5.274 z"
       style="fill:#ffffff;fill-opacity:1;stroke:#000000;stroke-width:0.5;overflow:visible"
       inkscape:connector-curvature="0" /><path
       id="path166-0"
       d="m 138.55253,302.54975 c -0.417,-0.719 -1.333,-0.969 -2.052,-0.552 -0.719,0.406 -0.969,1.323 -0.552,2.042 0.208,0.99 0.656,1.958 0.511,2.979 -0.229,1.656 -1.125,3.146 -2.24,4.396 -0.948,1.062 -1.823,2.083 -3.042,2.896 -3.511,2.333 -7.208,3.583 -11.042,4.771 -5.958,0.896 -11.833,2.521 -17.906,2.136 -0.569,0.176 -0.848,0.092 -1.417,0.094 -0.562,-0.188 -1.124997,-0.188 -1.916997,-0.177 -3.156,-0.458 -6.281,-0.052 -9.479,-0.427 -0.76,-0.083 -1.558,-0.056 -2.292,-0.146 -3.062,-0.375 -3.812,-0.625 -7.24,-1.312 -3.156,-0.633 -6.156,-1.375 -9.26,-2 -4.25,-1.688 -8.812,-3.511 -11.281,-7.615 0.021,-0.01 0.042,-0.021 0.062,-0.031 -0.323,-0.76 -1.198,-1.125 -1.969,-0.802 -0.76,0.323 -1.125,1.198 -0.802,1.969 2.146,4.062 6.146,6.636 10.386,8.177 0.312,0.115 0.552,0.354 0.864,0.469 3.583,1.302 7.333,1.885 11.052,2.573 3.5,0.823 6.625,1.323 10.49,1.698 2.948,0.188 5.882,0.127 8.892,0.389 0.245,0.174 0.73,0.049 1.056,0.049 0.634997,0.052 1.155997,0.208 1.811997,0.125 0.5,-0.073 0.854,-0.011 1.323,-0.031 1.812,-0.104 3.615,0.052 5.427,-0.083 4.49,-0.354 8.656,-1.385 13.208,-2.26 1.052,-0.198 2.021,-0.49 2.989,-0.938 2.031,-0.927 4.104,-1.583 6.125,-2.552 2.781,-1.323 4.948,-3.302 6.833,-5.76 1.115,-1.458 1.979,-2.979 2.323,-4.802 0.344,-1.823 -0.217,-3.629 -0.862,-5.275 z"
       style="fill:#ffffff;fill-opacity:1;stroke:#000000;stroke-width:0.5;overflow:visible"
       inkscape:connector-curvature="0" /><path
       id="path168-1"
       d="m 138.55253,298.86475 c -0.417,-0.719 -1.333,-0.969 -2.052,-0.552 -0.719,0.406 -0.969,1.323 -0.552,2.042 0.208,0.99 0.656,1.958 0.511,2.979 -0.229,1.657 -1.125,3.146 -2.24,4.396 -0.948,1.062 -1.823,2.083 -3.042,2.896 -3.511,2.333 -7.208,3.583 -11.042,4.771 -5.958,0.896 -11.833,2.521 -17.906,2.136 -0.569,0.176 -0.848,0.092 -1.417,0.094 -0.562,-0.188 -1.124997,-0.188 -1.916997,-0.177 -3.156,-0.458 -6.281,-0.052 -9.479,-0.427 -0.76,-0.083 -1.558,-0.056 -2.292,-0.146 -3.062,-0.375 -3.812,-0.625 -7.24,-1.312 -3.156,-0.633 -6.156,-1.375 -9.26,-2 -4.25,-1.688 -8.812,-3.51 -11.281,-7.615 0.021,-0.01 0.042,-0.021 0.062,-0.031 -0.323,-0.76 -1.198,-1.125 -1.969,-0.802 -0.76,0.323 -1.125,1.198 -0.802,1.968 2.146,4.062 6.146,6.636 10.386,8.177 0.312,0.115 0.552,0.354 0.864,0.469 3.583,1.302 7.333,1.886 11.052,2.573 3.5,0.823 6.625,1.323 10.49,1.698 2.948,0.188 5.882,0.127 8.892,0.389 0.245,0.174 0.73,0.049 1.056,0.049 0.634997,0.052 1.155997,0.208 1.811997,0.125 0.5,-0.073 0.854,-0.01 1.323,-0.031 1.812,-0.104 3.615,0.052 5.427,-0.083 4.49,-0.354 8.656,-1.385 13.208,-2.26 1.052,-0.198 2.021,-0.49 2.989,-0.938 2.031,-0.927 4.104,-1.583 6.125,-2.552 2.781,-1.323 4.948,-3.302 6.833,-5.76 1.115,-1.458 1.979,-2.979 2.323,-4.802 0.344,-1.823 -0.217,-3.628 -0.862,-5.274 z"
       style="fill:#ffffff;fill-opacity:1;stroke:#000000;stroke-width:0.5;overflow:visible"
       inkscape:connector-curvature="0" /><path
       id="path170-5"
       d="m 138.55214,295.17975 c -0.417,-0.719 -1.333,-0.969 -2.052,-0.552 -0.719,0.406 -0.969,1.323 -0.552,2.042 0.208,0.99 0.656,1.958 0.511,2.979 -0.229,1.656 -1.125,3.146 -2.24,4.396 -0.948,1.062 -1.823,2.083 -3.042,2.896 -3.511,2.333 -7.208,3.583 -11.042,4.771 -5.958,0.896 -11.833,2.521 -17.906,2.136 -0.569,0.176 -0.848,0.092 -1.417,0.094 -0.562,-0.188 -1.125001,-0.188 -1.917001,-0.177 -3.156,-0.458 -6.281,-0.052 -9.479,-0.427 -0.76,-0.083 -1.558,-0.056 -2.292,-0.146 -3.062,-0.375 -3.812,-0.625 -7.24,-1.312 -3.156,-0.633 -6.156,-1.375 -9.26,-2 -4.25,-1.688 -8.812,-3.511 -11.281,-7.615 0.021,-0.01 0.042,-0.021 0.062,-0.031 -0.323,-0.76 -1.198,-1.125 -1.969,-0.802 -0.76,0.323 -1.125,1.198 -0.802,1.969 2.146,4.062 6.146,6.635 10.386,8.177 0.312,0.115 0.552,0.354 0.864,0.469 3.583,1.302 7.333,1.885 11.052,2.573 3.5,0.823 6.625,1.323 10.49,1.698 2.948,0.188 5.882,0.127 8.892,0.389 0.245,0.174 0.73,0.049 1.056,0.049 0.635001,0.052 1.156001,0.208 1.812001,0.125 0.5,-0.073 0.854,-0.011 1.323,-0.031 1.812,-0.104 3.615,0.052 5.427,-0.083 4.49,-0.354 8.656,-1.385 13.208,-2.26 1.052,-0.198 2.021,-0.49 2.989,-0.938 2.031,-0.927 4.104,-1.583 6.125,-2.552 2.781,-1.323 4.948,-3.302 6.833,-5.76 1.115,-1.458 1.979,-2.979 2.323,-4.802 0.346,-1.827 -0.217,-3.629 -0.862,-5.275 z"
       style="fill:#ffffff;fill-opacity:1;stroke:#000000;stroke-width:0.5;overflow:visible"
       inkscape:connector-curvature="0" /><path
       id="path172-9"
       d="m 138.55214,291.49475 c -0.417,-0.719 -1.333,-0.969 -2.052,-0.552 -0.719,0.406 -0.969,1.323 -0.552,2.042 0.208,0.99 0.656,1.958 0.511,2.979 -0.229,1.656 -1.125,3.146 -2.24,4.396 -0.948,1.062 -1.823,2.083 -3.042,2.896 -3.511,2.333 -7.208,3.583 -11.042,4.771 -5.958,0.896 -11.833,2.521 -17.906,2.135 -0.569,0.176 -0.848,0.092 -1.417,0.094 -0.562,-0.188 -1.125001,-0.188 -1.917001,-0.177 -3.156,-0.458 -6.281,-0.052 -9.479,-0.427 -0.76,-0.083 -1.558,-0.056 -2.292,-0.146 -3.062,-0.375 -3.812,-0.625 -7.24,-1.312 -3.156,-0.633 -6.156,-1.375 -9.26,-2 -4.25,-1.688 -8.812,-3.51 -11.281,-7.615 0.021,-0.01 0.042,-0.021 0.062,-0.031 -0.323,-0.76 -1.198,-1.125 -1.969,-0.802 -0.76,0.323 -1.125,1.198 -0.802,1.969 2.146,4.062 6.146,6.635 10.386,8.177 0.312,0.115 0.552,0.354 0.864,0.469 3.583,1.302 7.333,1.886 11.052,2.573 3.5,0.823 6.625,1.323 10.49,1.698 2.948,0.188 5.882,0.127 8.892,0.389 0.245,0.174 0.73,0.049 1.056,0.049 0.635001,0.052 1.156001,0.208 1.812001,0.125 0.5,-0.073 0.854,-0.01 1.323,-0.031 1.812,-0.104 3.615,0.052 5.427,-0.083 4.49,-0.354 8.656,-1.385 13.208,-2.26 1.052,-0.198 2.021,-0.49 2.989,-0.938 2.031,-0.927 4.104,-1.583 6.125,-2.552 2.781,-1.323 4.948,-3.302 6.833,-5.76 1.115,-1.458 1.979,-2.979 2.323,-4.802 0.346,-1.826 -0.217,-3.629 -0.862,-5.274 z"
       style="fill:#ffffff;fill-opacity:1;stroke:#000000;stroke-width:0.5;overflow:visible"
       inkscape:connector-curvature="0" /><path
       id="path174-7"
       d="m 138.55214,287.80975 c -0.417,-0.719 -1.333,-0.969 -2.052,-0.552 -0.719,0.406 -0.969,1.323 -0.552,2.042 0.208,0.99 0.656,1.958 0.511,2.979 -0.229,1.656 -1.125,3.146 -2.24,4.396 -0.948,1.062 -1.823,2.083 -3.042,2.896 -3.511,2.333 -7.208,3.583 -11.042,4.771 -5.958,0.896 -11.833,2.521 -17.906,2.135 -0.569,0.176 -0.848,0.092 -1.417,0.094 -0.562,-0.188 -1.125001,-0.188 -1.917001,-0.177 -3.156,-0.458 -6.281,-0.052 -9.479,-0.427 -0.76,-0.083 -1.558,-0.056 -2.292,-0.146 -3.062,-0.375 -3.812,-0.625 -7.24,-1.312 -3.156,-0.633 -6.156,-1.375 -9.26,-2 -4.25,-1.688 -8.812,-3.51 -11.281,-7.615 0.021,-0.01 0.042,-0.021 0.062,-0.031 -0.323,-0.76 -1.198,-1.125 -1.969,-0.802 -0.76,0.323 -1.125,1.198 -0.802,1.969 2.146,4.062 6.146,6.635 10.386,8.177 0.312,0.115 0.552,0.354 0.864,0.469 3.583,1.302 7.333,1.886 11.052,2.573 3.5,0.823 6.625,1.323 10.49,1.698 2.948,0.188 5.882,0.127 8.892,0.389 0.245,0.174 0.73,0.049 1.056,0.049 0.635001,0.052 1.156001,0.208 1.812001,0.125 0.5,-0.073 0.854,-0.01 1.323,-0.031 1.812,-0.104 3.615,0.052 5.427,-0.083 4.49,-0.354 8.656,-1.385 13.208,-2.26 1.052,-0.198 2.021,-0.49 2.989,-0.938 2.031,-0.927 4.104,-1.583 6.125,-2.552 2.781,-1.323 4.948,-3.302 6.833,-5.76 1.115,-1.458 1.979,-2.979 2.323,-4.802 0.346,-1.826 -0.217,-3.629 -0.862,-5.274 z"
       style="fill:#ffffff;fill-opacity:1;stroke:#000000;stroke-width:0.5;overflow:visible"
       inkscape:connector-curvature="0" /><path
       id="path176-3"
       d="m 138.55214,284.12475 c -0.417,-0.719 -1.333,-0.969 -2.052,-0.552 -0.719,0.406 -0.969,1.323 -0.552,2.042 0.208,0.99 0.656,1.958 0.511,2.979 -0.229,1.656 -1.125,3.146 -2.24,4.396 -0.948,1.062 -1.823,2.083 -3.042,2.896 -3.511,2.333 -7.208,3.583 -11.042,4.771 -5.958,0.896 -11.833,2.521 -17.906,2.135 -0.569,0.176 -0.848,0.092 -1.417,0.094 -0.562,-0.188 -1.125001,-0.188 -1.917001,-0.177 -3.156,-0.458 -6.281,-0.052 -9.479,-0.427 -0.76,-0.083 -1.558,-0.056 -2.292,-0.146 -3.062,-0.375 -3.812,-0.625 -7.24,-1.312 -3.156,-0.633 -6.156,-1.375 -9.26,-2 -4.25,-1.688 -8.812,-3.51 -11.281,-7.615 0.021,-0.01 0.042,-0.021 0.062,-0.031 -0.323,-0.76 -1.198,-1.125 -1.969,-0.802 -0.76,0.323 -1.125,1.198 -0.802,1.969 2.146,4.062 6.146,6.635 10.386,8.177 0.312,0.115 0.552,0.354 0.864,0.469 3.583,1.302 7.333,1.886 11.052,2.573 3.5,0.823 6.625,1.323 10.49,1.698 2.948,0.188 5.882,0.127 8.892,0.389 0.245,0.174 0.73,0.049 1.056,0.049 0.635001,0.052 1.156001,0.208 1.812001,0.125 0.5,-0.073 0.854,-0.01 1.323,-0.031 1.812,-0.104 3.615,0.052 5.427,-0.083 4.49,-0.354 8.656,-1.385 13.208,-2.26 1.052,-0.198 2.021,-0.49 2.989,-0.938 2.031,-0.927 4.104,-1.583 6.125,-2.552 2.781,-1.323 4.948,-3.302 6.833,-5.76 1.115,-1.458 1.979,-2.979 2.323,-4.802 0.346,-1.826 -0.217,-3.629 -0.862,-5.274 z"
       style="fill:#ffffff;fill-opacity:1;stroke:#000000;stroke-width:0.5;overflow:visible"
       inkscape:connector-curvature="0" /><path
       id="path274-6"
       d="m 136.48687,291.26475 c 0,0.007 -0.001,0.014 0,0.021 l 2.438,-3.967 c 0.204,-0.514 0.382,-1.042 0.489,-1.608 0.344,-1.823 -0.219,-3.625 -0.865,-5.271 -0.417,-0.719 -1.333,-0.969 -2.052,-0.552 -0.719,0.406 -0.969,1.323 -0.552,2.042 0.193,0.915 0.57,1.813 0.514,2.75 -1.73,-2.077 -3.71,-3.764 -6.172,-4.936 -2.021,-0.969 -4.094,-1.625 -6.125,-2.552 -0.969,-0.448 -1.938,-0.74 -2.99,-0.938 -4.552,-0.875 -8.719,-1.906 -13.208,-2.261 -1.812,-0.135 -3.614,0.021 -5.427,-0.083 -0.469,-0.021 -0.823,0.042 -1.323,-0.031 -0.656,-0.083 -1.177,0.073 -1.811996,0.125 -0.325,0 -0.811,-0.125 -1.056,0.048 -3.009,0.262 -5.944,0.202 -8.892,0.389 -3.865,0.375 -6.99,0.875 -10.49,1.698 -3.719,0.688 -7.469,1.271 -11.052,2.573 -0.312,0.115 -0.552,0.354 -0.865,0.469 -4.24,1.542 -8.24,4.115 -10.385,8.177 -0.048,0.113 -0.076,0.229 -0.095,0.345 -0.079,0.306 -0.067,0.639 0.065,0.955 2.146,4.062 6.146,6.635 10.386,8.177 0.312,0.114 0.552,0.354 0.864,0.468 3.583,1.302 7.333,1.886 11.052,2.573 3.5,0.823 6.625,1.323 10.489,1.698 2.948,0.188 5.882,0.127 8.892,0.389 0.245,0.174 0.73,0.049 1.056,0.049 0.634996,0.052 1.155996,0.208 1.811996,0.125 0.5,-0.073 0.854,-0.01 1.323,-0.031 1.812,-0.104 3.615,0.052 5.427,-0.083 4.489,-0.354 8.656,-1.386 13.208,-2.261 1.052,-0.198 2.021,-0.489 2.989,-0.938 2.031,-0.927 4.104,-1.583 6.125,-2.552 2.492,-1.183 4.488,-2.897 6.232,-5.007 z m -5.314,0.935 c -3.51,2.333 -7.208,3.583 -11.042,4.771 -5.958,0.896 -11.833,2.521 -17.906,2.135 -0.569,0.176 -0.848,0.092 -1.417,0.094 -0.562,-0.188 -1.124996,-0.188 -1.916996,-0.177 -3.156,-0.458 -6.281,-0.052 -9.479,-0.427 -0.76,-0.083 -1.558,-0.056 -2.292,-0.146 -3.062,-0.375 -3.812,-0.625 -7.24,-1.312 -3.156,-0.633 -6.156,-1.375 -9.26,-2 -4.063,-1.613 -8.39,-3.373 -10.922,-7.108 2.527,-3.764 6.873,-5.53 10.951,-7.149 3.104,-0.625 6.104,-1.367 9.261,-2 3.427,-0.688 4.177,-0.938 7.239,-1.312 0.734,-0.09 1.531,-0.062 2.292,-0.146 3.198,-0.375 6.323,0.031 9.479,-0.427 0.792,0.011 1.353996,0.011 1.916996,-0.177 0.569,0.002 0.848,-0.083 1.417,0.094 6.073,-0.386 11.948,1.239 17.906,2.135 3.833,1.188 7.531,2.438 11.042,4.771 1.219,0.812 2.094,1.833 3.042,2.896 0.357,0.4 0.687,0.827 0.984,1.274 -0.305,0.463 -0.646,0.904 -1.014,1.317 -0.946,1.061 -1.821,2.082 -3.041,2.894 z"
       style="fill:#ffffff;fill-opacity:1;stroke:#000000;stroke-width:0.5;overflow:visible"
       inkscape:connector-curvature="0" /><path
       transform="translate(0,-1.8476164e-6)"
       inkscape:connector-curvature="0"
       id="path3364"
       d="m 135.11028,288.00787 c 0.17063,-0.17063 1.42191,-3.35572 1.42191,-3.35572"
       style="color:#000000;fill:#ffffff;fill-opacity:1;stroke:#000000;stroke-width:1.25;stroke-linecap:butt;stroke-linejoin:miter;stroke-miterlimit:4;stroke-opacity:1;stroke-dasharray:none;stroke-dashoffset:0;marker:none;visibility:visible;display:inline;overflow:visible;enable-background:accumulate" /></g><rect
     style="fill:#ffffff;fill-opacity:1;stroke:none"
     id="rect4184"
     width="5.2356825"
     height="5.5303731"
     x="84.5065"
     y="319.86545" /><path
     sodipodi:type="arc"
     style="fill:#000000;fill-opacity:1;stroke:none"
     id="path4182"
     sodipodi:cx="60.648449"
     sodipodi:cy="235.74332"
     sodipodi:rx="1.7695833"
     sodipodi:ry="1.7695833"
     d="m 62.418032,235.74332 a 1.7695833,1.7695833 0 1 1 -3.539166,0 1.7695833,1.7695833 0 1 1 3.539166,0 z"
     transform="translate(26.592863,86.904422)" /><text
     xml:space="preserve"
     style="font-size:10px;font-style:normal;font-variant:normal;font-weight:normal;font-stretch:normal;text-indent:0;text-align:start;text-decoration:none;line-height:125%;letter-spacing:0px;word-spacing:0px;text-transform:none;direction:ltr;block-progression:tb;writing-mode:lr-tb;text-anchor:start;baseline-shift:baseline;color:#000000;fill:#000000;fill-opacity:1;fill-rule:nonzero;stroke:none;stroke-width:1px;marker:none;visibility:visible;display:inline;overflow:visible;enable-background:accumulate;font-family:Sans;-inkscape-font-specification:Sans"
     x="74.601967"
     y="326.66797"
     id="text4186"
     sodipodi:linespacing="125%"><tspan
       sodipodi:role="line"
       id="tspan4188"
       x="74.601967"
       y="326.66797">P</tspan></text>
<g
     id="g3077"
     transform="translate(0,-2)"><path
       inkscape:connector-curvature="0"
       id="path4196"
       d="m 37.439002,365.05176 20.591516,0"
       style="color:#000000;fill:none;stroke:#000000;stroke-width:1;stroke-linecap:butt;stroke-linejoin:miter;stroke-miterlimit:4;stroke-opacity:1;stroke-dasharray:none;stroke-dashoffset:0;marker:none;marker-end:url(#Arrow2Mend);visibility:visible;display:inline;overflow:visible;enable-background:accumulate" /><path
       inkscape:connector-curvature="0"
       id="path4196-0"
       d="m 37.9379,365.53072 0,-20.59152"
       style="color:#000000;fill:none;stroke:#000000;stroke-width:1;stroke-linecap:butt;stroke-linejoin:miter;stroke-miterlimit:4;stroke-opacity:1;stroke-dasharray:none;stroke-dashoffset:0;marker:none;marker-end:url(#Arrow2Mend);visibility:visible;display:inline;overflow:visible;enable-background:accumulate" /><text
       sodipodi:linespacing="125%"
       id="text4666"
       y="367.95218"
       x="60.726376"
       style="font-size:10px;font-style:normal;font-variant:normal;font-weight:normal;font-stretch:normal;text-indent:0;text-align:start;text-decoration:none;line-height:125%;letter-spacing:0px;word-spacing:0px;text-transform:none;direction:ltr;block-progression:tb;writing-mode:lr-tb;text-anchor:start;baseline-shift:baseline;color:#000000;fill:#000000;fill-opacity:1;fill-rule:nonzero;stroke:none;stroke-width:1px;marker:none;visibility:visible;display:inline;overflow:visible;enable-background:accumulate;font-family:Sans;-inkscape-font-specification:Sans"
       xml:space="preserve"><tspan
         y="367.95218"
         x="60.726376"
         id="tspan4668"
         sodipodi:role="line">y</tspan></text>
<text
       sodipodi:linespacing="125%"
       id="text4670"
       y="341.34512"
       x="35.369305"
       style="font-size:10px;font-style:normal;font-variant:normal;font-weight:normal;font-stretch:normal;text-indent:0;text-align:start;text-decoration:none;line-height:125%;letter-spacing:0px;word-spacing:0px;text-transform:none;direction:ltr;block-progression:tb;writing-mode:lr-tb;text-anchor:start;baseline-shift:baseline;color:#000000;fill:#000000;fill-opacity:1;fill-rule:nonzero;stroke:none;stroke-width:1px;marker:none;visibility:visible;display:inline;overflow:visible;enable-background:accumulate;font-family:Sans;-inkscape-font-specification:Sans"
       xml:space="preserve"><tspan
         y="341.34512"
         x="35.369305"
         id="tspan4672"
         sodipodi:role="line">z</tspan></text>
<path
       sodipodi:nodetypes="cc"
       inkscape:connector-curvature="0"
       id="path4196-8"
       d="m 37.991674,365.19228 -5.41299,10.64751"
       style="color:#000000;fill:none;stroke:#000000;stroke-width:1;stroke-linecap:butt;stroke-linejoin:miter;stroke-miterlimit:4;stroke-opacity:1;stroke-dasharray:none;stroke-dashoffset:0;marker:none;marker-end:url(#Arrow2Mend);visibility:visible;display:inline;overflow:visible;enable-background:accumulate" /><text
       sodipodi:linespacing="125%"
       id="text3073"
       y="383.81583"
       x="27.404591"
       style="font-size:10px;font-style:normal;font-variant:normal;font-weight:normal;font-stretch:normal;text-indent:0;text-align:start;text-decoration:none;line-height:125%;letter-spacing:0px;word-spacing:0px;text-transform:none;direction:ltr;block-progression:tb;writing-mode:lr-tb;text-anchor:start;baseline-shift:baseline;color:#000000;fill:#000000;fill-opacity:1;fill-rule:nonzero;stroke:none;stroke-width:1px;marker:none;visibility:visible;display:inline;overflow:visible;enable-background:accumulate;font-family:Sans;-inkscape-font-specification:Sans"
       xml:space="preserve"><tspan
         y="383.81583"
         x="27.404591"
         id="tspan3075"
         sodipodi:role="line">x</tspan></text>
</g></svg>