<?xml version="1.0" encoding="iso-8859-1"?>
<!-- Generator: Adobe Illustrator 11 Build 196, SVG Export Plug-In . SVG Version: 6.0.0 Build 78)  -->
<!DOCTYPE svg PUBLIC "-//W3C//DTD SVG 1.0//EN"    "http://www.w3.org/TR/2001/REC-SVG-20010904/DTD/svg10.dtd" [
	<!ENTITY ns_flows "http://ns.adobe.com/Flows/1.0/">
	<!ENTITY ns_svg "http://www.w3.org/2000/svg">
	<!ENTITY ns_xlink "http://www.w3.org/1999/xlink">
]>
<svg
	 width="320.315" height="219.135" viewBox="0 0 320.315 219.135"
	 style="overflow:visible;enable-background:new 0 0 320.315 219.135" xml:space="preserve">
	<metadata>
<?xpacket begin='﻿' id='W5M0MpCehiHzreSzNTczkc9d'?><x:xmpmeta xmlns:x='adobe:ns:meta/' x:xmptk='XMP toolkit 3.0-29, framework 1.6'>
<rdf:RDF xmlns:rdf='http://www.w3.org/1999/02/22-rdf-syntax-ns#' xmlns:iX='http://ns.adobe.com/iX/1.0/'>

 <rdf:Description rdf:about=''
  xmlns:pdf='http://ns.adobe.com/pdf/1.3/'>
 </rdf:Description>

 <rdf:Description rdf:about=''
  xmlns:tiff='http://ns.adobe.com/tiff/1.0/'>
 </rdf:Description>

 <rdf:Description rdf:about=''
  xmlns:xap='http://ns.adobe.com/xap/1.0/'
  xmlns:xapGImg='http://ns.adobe.com/xap/1.0/g/img/'>
  <xap:CreateDate>2006-07-16T21:13:25Z</xap:CreateDate>
  <xap:ModifyDate>2006-07-16T21:13:25Z</xap:ModifyDate>
  <xap:CreatorTool>Illustrator</xap:CreatorTool>
  <xap:Thumbnails>
   <rdf:Alt>
    <rdf:li rdf:parseType='Resource'>
     <xapGImg:format>JPEG</xapGImg:format>
     <xapGImg:width>256</xapGImg:width>
     <xapGImg:height>176</xapGImg:height>
     <xapGImg:image>/9j/4AAQSkZJRgABAgEASABIAAD/7QAsUGhvdG9zaG9wIDMuMAA4QklNA+0AAAAAABAASAAAAAEA&#xA;AQBIAAAAAQAB/+4ADkFkb2JlAGTAAAAAAf/bAIQABgQEBAUEBgUFBgkGBQYJCwgGBggLDAoKCwoK&#xA;DBAMDAwMDAwQDA4PEA8ODBMTFBQTExwbGxscHx8fHx8fHx8fHwEHBwcNDA0YEBAYGhURFRofHx8f&#xA;Hx8fHx8fHx8fHx8fHx8fHx8fHx8fHx8fHx8fHx8fHx8fHx8fHx8fHx8fHx8f/8AAEQgAsAEAAwER&#xA;AAIRAQMRAf/EAaIAAAAHAQEBAQEAAAAAAAAAAAQFAwIGAQAHCAkKCwEAAgIDAQEBAQEAAAAAAAAA&#xA;AQACAwQFBgcICQoLEAACAQMDAgQCBgcDBAIGAnMBAgMRBAAFIRIxQVEGE2EicYEUMpGhBxWxQiPB&#xA;UtHhMxZi8CRygvElQzRTkqKyY3PCNUQnk6OzNhdUZHTD0uIIJoMJChgZhJRFRqS0VtNVKBry4/PE&#xA;1OT0ZXWFlaW1xdXl9WZ2hpamtsbW5vY3R1dnd4eXp7fH1+f3OEhYaHiImKi4yNjo+Ck5SVlpeYmZ&#xA;qbnJ2en5KjpKWmp6ipqqusra6voRAAICAQIDBQUEBQYECAMDbQEAAhEDBCESMUEFURNhIgZxgZEy&#xA;obHwFMHR4SNCFVJicvEzJDRDghaSUyWiY7LCB3PSNeJEgxdUkwgJChgZJjZFGidkdFU38qOzwygp&#xA;0+PzhJSktMTU5PRldYWVpbXF1eX1RlZmdoaWprbG1ub2R1dnd4eXp7fH1+f3OEhYaHiImKi4yNjo&#xA;+DlJWWl5iZmpucnZ6fkqOkpaanqKmqq6ytrq+v/aAAwDAQACEQMRAD8A9U4q7FXYq7FXYq7FXYq7&#xA;FXYq7FXYq7FXYqoX17b2NjcX1yxW2tYnmmZVZyEjUsxCqCzbDoBXFWMR+b9XuQZU02axiJ/dxXVn&#xA;fyTEeLiGAxp8g7fPsFV/+JtY/wB8/wDcv1T/AKo4q7/E2sf75/7l+qf9UcVd/ibWP98/9y/VP+qO&#xA;Ku/xNrH++f8AuX6p/wBUcVd/ibWP98/9y/VP+qOKu0LzRrmoanbLNZRJpF2swgvD6kUrvDTdYJBz&#xA;CdRWTi1eikb4qyvFXYq7FXYq7FWiQBU7AdTirGNV87WyRf7i+E6u3pJqEnM2xk/kgWMNLeS7GkcC&#xA;mpBUshxVL08pahrzetrvJYW5CtysclyVJ6QxDnb2aEVFV5zMpHKRWGKpv5R0nTtJbWNP063W2s4b&#xA;5fThToC1lbMxJNSWZiSSdydzirIcVdirsVdirsVdirsVdirsVdirsVdirsVdirsVSnzZ/wAorrP/&#xA;ADA3P/JlsVTbFXYq7FXYq7FXYqxTR/8Apnv+jz+OKsrxV2KuxV2KuxVjfmXR4Na1nTtNvJZhYNbX&#xA;c81tFIUjleOS2VPVXpIqiRvhao9umKoDT77yp5b06TWdcv4bSZ7u6sY9Qv5h6jLHdSRxW8Rc7DhE&#xA;P3cY3pWlanFWG+c/+clPLOkao2n6EI9bdJI4JZlZo7dXaSNZGW4oySiJZkqkQZqsOwOKvT9G/wCO&#xA;jr3/ADHJ/wBQNtiqbYq7FXYq7FXYq7FXYq7FXYq7FXYq7FXYq7FXYqlPmz/lFdZ/5gbn/ky2Kpti&#xA;rxLztoX5n33mPzpf6LcX9paWMYfTpUvtQUyp+h6Nb2WnohtZWe6YH1QwdHG3xYqlN35g/O/SoLDT&#xA;lvr2VrvU7bQ4L+8s7ZHH1+xtZ1ut4BzW1lW5QmjeD8mXFVLVPMX56zT3YtoNUnntNQMtjCbJ7eGq&#xA;RagEhd44rdZIGZbeo9SdPssZQW4Kqmknmj82o7vRhYz65e6fJdATT3uhx200yerbCRJo0tzxRVeb&#xA;i0gtNqtzfgPUVe6YqxTR/wDpnv8Ao8/jirK8VdirsVdirsVSm5/5SrTv+YG+/wCT1pirzD80/wAs&#xA;NR/MPypY6TZiMCDV9WmeaZykcTF7uOJ24/GwWV1NFB99q4qjfy5/5x/8n6C7a1renRal5nlvZ736&#xA;zcH147ctPI8K26MOC8VcNWhPP4q7LRV6Fo3/AB0de/5jk/6gbbFU2xV2KuxV2KuxV2KuxV2KuxV2&#xA;KuxV2KuxV2KuxVKfNn/KK6z/AMwNz/yZbFU2xV2KoW50rTLq7tL26s4J7ywLtY3MsaPLA0i8HMTs&#xA;CyFl2bidxiq+C9tp57iCJ+UtoypcLQ/CzoJAKkU+ywO2C0kK+FDsVYpo/wD0z3/R5/HFWV4q7FXY&#xA;q7FXYqlNz/ylWnf8wN9/yetMVd5Z/wCOdN/zHah/1HTYqjNPnlnhd5KVE00agCnwxysi13O9FwAp&#xA;IQejf8dHXv8AmOT/AKgbbChNsVdirsVdirsVdirsVdirsVdirsVdirsVdirsVSnzZ/yius/8wNz/&#xA;AMmWxVNsVWySRxRvLIwSNAWd2NAFAqST7YkpAJNB4zrf/OSFlDePDo+ktd2yMQt1PL6XMDaqxhGI&#xA;B7VNfbMOWq7g9bp/ZWRjeSfCe4C/ttMfK/5pwQoGvrQB9Sc3srRyVkHrgFQEYDkEQKg36LmRiNxv&#xA;veb1mLw8soc+E18nqFjfWt9ax3VrIJYJRVHH+exHcZY4qvirFNH/AOme/wCjz+OKsrxV2KoO41nS&#xA;Lav1m+t4KdfUlRP+JEYqk/k7z7oXmmOZLOUJf2pIurJmBkUA05r/ADIezD6d8VZJiqU3P/KVad/z&#xA;A33/ACetMVYv5n8yXPl38udW1K0YJei9vobViAeMkuoSpyAPdQSw+WVZp8Mbdl2RpBn1EYS+nmfg&#xA;kn5M+Yb27upbS5mM3r20dy7O/JmmIUu9DvVizcj40yWP6Q09oREdRkA2AnIfa9D0b/jo69/zHJ/1&#xA;A22TcNNsVdirsVdirsVdirsVQdrrOj3c3oWt9b3E/wC+HpRSo71tpBDP8Kkn91KQj/ytsd8VRmKu&#xA;xV2KuxV2KuxV2KpT5s/5RXWf+YG5/wCTLYqm2Ksc/MZ7lPIevNbf3osZqnwQoQ52/wAiuV5voLn9&#xA;lgHU475cQfIOat9UegQ2LNptlcBi8iwW5QEE8QI16BaE/Tm0w/SHyvtT/Gcn9c/e9a/J6+vHi1K0&#xA;nBEcTROgrtyKcHZR2DlK5Y4D0fFWKaP/ANM9/wBHn8cVZXirR6HFXnHnPyj5h1H1Pqdp6vKtP3kS&#xA;/wDEmGKvLvy5/LHzZrHnCDXre8n0TTdOmrJfRGksxU0aGEEMjqacXLAr2oemKvpnFUpuf+Uq07/m&#xA;Bvv+T1pirzn82AT+Vl3QdNYua/8ASfPmNqvp+Lv/AGa/xsf1Sh/yasOWp2t1wIMemoK9PtLH+uuW&#xA;4vpDre0v8Zyf15fe9O0b/jo69/zHJ/1A22WOEm2KuxV2KuxV2KuxV2KsB8j+VZdP8++c9XkPp295&#xA;cRLp1kzws8SOnq3M1Ink4rcznmvOjbdBirPsVdirsVdirsVeN/nN5o1DnDF5d1C8tLiAMtzPbTPH&#xA;C47KEGxYH9ofLfsqkv8AzjxrnnrVvNesDXNZutQ02ys1WO3uH5qJppQVff4iQsbDr3xV7R5s/wCU&#xA;V1n/AJgbn/ky2Kptiqhf2cV7Y3FnNvDcxPDIP8mRSp/A4JCxTPHMwkJDmDb4y1nSL/R9TuNNv4jF&#xA;dWzmN1YUrQ05DxU9Qc1JFGi+t4M8csBOJsF6bptlK2iaU8UbO8ttCoVVJJPAUp132zZ4fpD5h2p/&#xA;jOT+ufveweRPLj6Pp8ss6GO6vCrPGSCURR8KkjvuScscBk+KsU0f/pnv+jz+OKsrxV2KuxVZFFFD&#xA;GsUSLHEgoiIAqgDsAOmKr8VSm5/5SrTv+YG+/wCT1pirFfNfl6+8wflvq2mafH6t899dvbx8lXk0&#xA;epyORViF3UHqcqzRMo0HZ9j6qODUxnPaO9/EJj+XPlO50HSo/ryKl+YIIJEUhuIhSh3Xb4m/UMnA&#xA;VEBxdblGTNOceUpEj4lOdG/46Ovf8xyf9QNtknGTbFXYq7FXYq7FXYq7FXlX5f6JNbfnR+Yt42pX&#xA;VwT+jRJBMyGJhNA0iUVUXj6AHCOh+yTy5HfFXquKuxV2KuxVZLGskbRt0YUOKsM1D8vINTvaXDen&#xA;aA1cr9ph4L4fPFU68v8Ak7QvL93fXGkwfVhfrCJogarWAMFIrvvz3364qrebP+UV1n/mBuf+TLYq&#xA;m2KuxVpkV1KuAytsVIqCMUg0h7fTtPtnL29rDC52LRxqp+8AYgKSSbKJxQ7FWKaP/wBM9/0efxxV&#xA;leKuxV2KuxV2KpTc/wDKVad/zA33/J60xV3ln/jnTf8AMdqH/UdNiqakgCp2A6nFUm8u3EF1PrF3&#xA;bSLNaz3oME6HlHIEtLeNijDZgHRlqO4OKp1irsVdirsVdirsVdirz/yZ/wCTZ/Mb/tzf9Qb4q9Ax&#xA;V2KuxV2KuxV2KuxVA67ZT3+iahYwFRPdW00ERckJzkjKryIDECp3oDiqH+s+av8Aq3WP/SdN/wBk&#xA;mKu+s+av+rdY/wDSdN/2SYq76z5q/wCrdY/9J03/AGSYq76z5q/6t1j/ANJ03/ZJirvrPmr/AKt1&#xA;j/0nTf8AZJirvrPmr/q3WP8A0nTf9kmKoHy9oetxNay6tJbxfURKttaWhaUEysaySTSLGTt9lVjW&#xA;nct2VZJirsVdirsVdiqU3P8AylWnf8wN9/yetMVSvSfMFrb289haxvqGqC9vmNjbULIrX03FpnYr&#xA;HCpFSC7DlQ8Qx2xVGjQbzUz6nmGZZoTuNIty31Me0zMFe5/2YVD/AL7rviqeKqqoVQFVRRVGwAHY&#xA;Yq3irsVdirsVUbu7tbO2kubuZLe2iHKWaVgiKPFmNAMVSj9I61qx46VEbCwNK6ndxkSuK7/V7ZuL&#xA;DatHmoBsQjqcVQ+q+XL6Ox/3FvNe6gxo0l9ql9bR71rIVtuak139NERewK4q8b0jyZ+Zr/mb53h0&#xA;vzBDJNbiwa6keS9tVkaW3LQIqiS7k4xpVeTzE1odxVcVZV5d0X8257cwXN3p7XFrC4uWub/Uhcm6&#xA;YcokeO0u5YkjB+EycuTD4vTWlGFppG2flj85fqr/AF2fRTdGJ1j9C/15UE3WNzznYlD9gr1H2uR+&#xA;wShbD5V/N+10+NGvNMvbkczLNdanrEdB9patDwVqfZ/u12+Lc7Yqmei22qX+nRxRTNqF+eX1nWIL&#xA;vU4NLQ1+zCsl1LLdFK9UYIxBqyH4cVTzylp02m32rWkuo3WosjQM0l1M8vFnjLFY1dm9NPAdfEsd&#xA;8VZLirsVYf8AmDqV9aS6LFC93FbXE92bk6eC11IYNOuZ4oYVAbk7PGGVaHkVCkEEgqsQ/LS71uDz&#xA;Bp8Ul5q0kOqJfSz6Rq6amWtIoY7TgVm1OOKWdllJ5OqhKylQKBcVSm7g/NHS74apbR6nDFdXupxT&#xA;XEV3qOrS/VjfnjL+iriJrW29GzV3t/S5+oQi0POhVQupa1+cEMt7LZXWvM17BaxaZevpylUhjutS&#xA;PrTWi2M6pPLGlqjr6cZ/eBn4qoCKr9K1/wDOX67ZlX1JIb69+sSm/srgRo0xt3NqUj0y6kS3SJ2C&#xA;8pIeLcg0tVZQqn3lu58/an5e81vf32rwapJpNqIZryxmthb35S4N1FZRW8IaREcqokiWRyOJDPRS&#xA;VWIaQ/5uSazZmWLXLW0e7gPluES6jcQRw/pVRfDUpbqOKZk+ohjEb1A1PsqGxV9G4q7FXYq7FXj/&#xA;AOYPn/V7Cy16a1179D6hY38tto1k4t1iuRa2dvNJEzT2t16k0j3BMcCvG0goFZaM2KpvrHmvzI/l&#xA;LU3s5bpNStdfh0yGazSzF28E95B8Ea3g+qiVYbj0qybVFTvirDYfPXmC41AaNrKaddahZXotrS11&#xA;+1t7jVbkXV4IXgjFg8VqJbaARzzekrqUZK8d2xVINL/OTzPZeW4NO0u40ezdtEF3NdRWcMEy6mbF&#xA;dSuJvq8dx6bJQyK7GBF9RZCNkZcVZGv55+apry5geXRtNs0uZLeTU7r0nWz9MTmP17eDUJpz9Z9B&#xA;VjaVIAGYACTbkqm/mb829c8v6J5In52jzavY295rE18ixrJGwt1m+rus9vxlHrs5VYpAqgsQqjdV&#xA;KtJ/OXzK2i2r3Gu6C3OKBrrWJ4JhFazNDdObO7WO4jQ3MrWyceJSnI0jb4OSq+P86vMupyaXaxz2&#xA;GjXwvFGu20sTSS2sJ1eGzihmWSVPTMsEwYsQCeq8ajFXuWKpJJ5ie7le20GAajKjFJbstwsomBow&#xA;aYBvUdd/giDEEUbh1xVfaeXUNxHe6tOdT1CI84ndeEELeNvb1ZUIrs7FpKbFyMVYL55/PbRdEnks&#xA;NFiXVb9KrJNypbRsO3IVMhHcLt75jZNSBsN3pOzvZzJmHFkPBH7T+r8bPP2/MD82teIuBfHTLCQ/&#xA;A0MSxJ2PwEhpW2P81PfKonJP3Ow1GLs3RiiPEn3XZ+PQff5Jjpln59nklS0nvdQmuQpuZ5HciRQO&#xA;Kh9+FKdOf35lQx1zJLzOr1gyn0whCP8ARH6ef3PYvJuma5p+mGLVZ1diQYIFofSWm6lgBUk/Rljg&#xA;2ib/AMwwQ3D2NjE2paoo+K0gIpHUAg3Ep+CEUNfiPIivBW6Yqxfzvcatp2lR6jqVknmG5kmWO38t&#xA;wzi2tzVWbZXV3vZF4/ZK7/aWNSMVSi880fnXqKxpH5DbT7Bh++SLV7NbpweiiQrSEeNF5+DKcVa8&#xA;v+aPzKtPNlpoa/l4unaJPD699crfRTNE5cr9YkuAOMzuFoUP7w05VxVOrPVPOL/m1d6fK17/AIQS&#xA;0L2ztZIsBvuMXOH6zx5mJIzzRtuUjOvI+mFxVnmKsM/MvzXc6Dp8X1LTbXUr70ru+hF9N6EES6fA&#xA;Z2lDenKWkG3BRxrv8agVxVjGm/nBeajq3G08q87qZ307T9WnN1a2zzQ3Ahlhnu5LIxRqzK8kawST&#xA;k8TyCttiqhD+feqXFmZ7bys1xI8sUNpBb3FzdtK36Oh1C4HGzsblxwF1GkZ48XNSzIBuqjYfzm1+&#xA;9mvl0vydeXEFs8yRXMiagkYNrci2nWcx2Ew58uRRLU3DHieQShxVMdd/NoabceV47fT49Si15bWS&#xA;8nt55uNrDezxW8MqFrYLKrSTUHNomNOldsVSPSPzs8x3Om2K3GgWT6vdaPDr37vUvTtWs3gkkkPM&#xA;wSNFNyhPGH4hQ7y7MQqipPznv719Ij0bSoPU1K9aCT63cMOFvFqqacW4xxt8cgk5jei/5VN1WT6Z&#xA;57mvfzE1XyabCONtKtkvJb0XSuWinEfogQBA4YsZOYJ+ABDVvUFFWXYq7FXYqxXQ/Mei3HnbXtDs&#xA;9NvLfVLUQ3Gr3UiBbZ+UapbSKwkYM0sakKVWtIyGpxUYqxm//NGz8q65quir5ZvG0/Tprm5u763m&#xA;gkZ1Numo3Nx6csisQvrksC1aU4Bj8Kqqrfn75Rk1eTR9Os73VdSW4ktoLayaxkeUwiUyPxN0hiVf&#xA;q7bTiNjsVUjfFU9vPzN0C1bSFeG6b9O2sF5pZVEpKtzcW9ssY5Ov7xWvYmYdlqa7Yqy7FXYq7FXY&#xA;qww2/mfXZrmW7htZ9HS4uLeDTRdS26SLbzNCWueNvK0vL0z8HIR0NGVuuKp3FJ5liiSKLTNPjijU&#xA;LHGt7KqqqigAAtKAAYquafzQwKtptgVOxBvZqEf9ImKsXtvJWiXMa3Np5W0GWMtVJobpytUah4sl&#xA;p2YUyvwY9znntTUkUckvmnEekXyEMNA0tmX7LPdyuR8i1oSMscBHrP5oVQq6bYKo2AF7KAP+nTFU&#xA;vabVNSbUF1W7j0fTdNkEV2tpM3KQejHMWa8dYWij4zUPBVaorz7YqusZ55rVLPytZR2GljddSniK&#xA;RHl8Ra3t/geUt19RyqmvIF+mKpnpug2VjM10S93qMq8ZtQuSHnZdvhBAVY0qK8I1VK78cVTLFXYq&#xA;7FXYql+s+X9B1u3S21rTbXU7aNxLHDeQR3CLIAQHCyKwDAHriqTa5+W3lLVLS+ij0+00+41PgL6+&#xA;t7HT5JpljYMqy/W7e5ikFVH20NO1Diqrafl15Jt9AttBl0azvdOtvSPp3lvDcepLBCsCTS81IeX0&#xA;o1XnStAB0FMVVbryB5Du5LqW68t6XcSX3E3ry2Vu7TFCCnqlkPPjTbl0xVE3vlHypfCzF7othdDT&#xA;09KwE1tDJ6EdAOEPJT6a0Rdlp0GKoVPy98gpZmyTy1pS2RmW5NsLG2EXroOKy8AnHmF2DUriqu/k&#xA;vyc93c3j6FpzXd4yyXdw1pAZJnR1kRpHKcnKvGrAnoQD2xVVm8reWJro3c2kWUl00nrtO9vE0hlD&#xA;Rv6hcrXlyt4m5daov8oxVNMVdirsVY035e+Wl1ybXrVLiy1m6mjmvb62uZke4ETxuIpgWZXi/cqv&#xA;ClAtVWgZqqqmoeQPKeoX9/f3lk0t1qUElret686q8U0H1aQCNZAiloQFLKA2w32GKtW/5f8Ala3v&#xA;Vu4oLjmly95DA15ePbRTyJKjvDbNMYIuS3MlQiAb/LFUHq35c6VqGoeVnDCDTfKok+p2iCX1SWt/&#xA;q8QFwJQyrGvxfZLFgp5Ch5KsrghSGGOFCxSNQil2aRiFFBydyzMfEsanFV+KuxV2KpNF5euIPVW2&#xA;1i9gikmmn9FVs2VWnlaVwpe3ZqcnNKk4qwjznr2t6R5z8u6BaedreyfVHDXNnqUFkJWgEgQtBNW3&#xA;HqSMRHFGIXLNv9kHFUqt/wAu/wA1PNmparaefdfubPylcSGSx0rTJbdJpI9lEN5cRwxtTgBySMcW&#xA;PKp6VVeh6N5Mj0TTLfStI1O5sdOtF4W9rBFYJGgqSaAWvUkkk9SdzviqM/Q2o/8AV+vv+Asf+ybF&#xA;XfobUf8Aq/X3/AWP/ZNiqha+ULCO+lvb24uNTnkmW4QXZjMUcqRrGsiQxJFFzCxrRmUsOxFcVT3F&#xA;XYq7FXYq7FXYq7FXYq7FXYq7FXYq7FXYq7FXYqw78zYPU0mxk4o7Wl1JeLFKoeKQ21lczCORSCCj&#xA;8OLexqN6HFVb/Dn/AH6uh/8AI3/syxV3+HP+/V0P/kb/ANmWKu/w5/36uh/8jf8AsyxV3+HP+/V0&#xA;P/kb/wBmWKu/w5/36uh/8jf+zLFXf4c/79XQ/wDkb/2ZYq7/AA5/36uh/wDI3/syxVQlsNR0i/sN&#xA;RtNK0/TYBcR2t8lnO376G7kSEVjFtCpaOVkdWJqAGUfaOKsyxVgg88eYZrzSJLa0tP0RqOvX2jyy&#xA;yPKLiOOy+sQgpGAUdpJrN25l14rxHBiSwVWah5s81zeQ117S5bC01C0uJrPUY7q1muYZJba8awlM&#xA;IjubZo19WNnXkzbbe+KpLefm95j0OW/g1jSbe/FvdPp9jeWLXEZnuo3s4iHs0ivpY42kvagxvK+3&#xA;HgTQsqm11+YnmZtH8u3tnoUUGoaxPdwT6Xqs01hwFpFO5dZZoFlVXFvzT1LYFlIqqblVUq0v87tR&#xA;1T9E/U/L0S/4kE3+HxPqAQsbWdLef68Egk+rfE9U4ery6fC22Kon8vvzin81ecb3y/NpqWaRW4ur&#xA;ecyk8uMFq0sMbBWS4ZJbhizApxQxnieRoqv8jfmtrWv6la2d5pEEVtNcGxbUYbhuRufqI1CgtWja&#xA;ienVeXrE17b7KpTZ/nJ5v9W9kn0Szn061WKSW+SW8jSCJpbqN5LgQW2oOo/0YUPDgByZ3UbBV6+H&#xA;BQPUEEVqDUU9jiqQXvnfRrCYx3xaFQf70Auo+YX4vwxVvyf5y0zzRbXctkQHs7h4JY61PEEmKSmx&#xA;pIm/zqO2KsgxV2KuxV2KuxV2KuxV2KuxV2KuxVin5i/8ceP/AKPP+6XeYqyvFWLa1+ZnlDRvMdt5&#xA;dvrp11S5a3QIkMrxxm7kMUHqyqpROcg47nqR44qynFXYq7FXYq7FUp8zf8c6H/mO0/8A6jocVTbF&#xA;WAWXm/8ALKyuZ7VLp5n/AEq89tFJZXMii9up2gkaxYQfvQblpA0kRYK7sCwBpiqA0T8xfy0g8taX&#xA;psAuruG9Npxtri1aQvPqE0MlZ5uIszMJLxJplWSq1qF6DFVa6/ML8l73S5by9SKbTbqQJcSXGk3R&#xA;jf66nL1JPUtv7qZbfeVvgPDdvhxVE3+o/lQ3lOyXVdFtv0FFeXdnp2lPpouwk1jLNFM0Npbx3HFF&#xA;+ryPzVaBd2piqBufM35KS3t7anSrS8XVA36Snj0v147qS1a29OJgIWe8krexGMRrJ9G1VXTfmZ+T&#xA;umpLf2dsJbnTIzKn1PSpxKjLaopijkMMaLMtqqq0fMMqLQgBDRVXl/MP8q9GupLazsGW/s76KGa1&#xA;ttLmhliuJ4XhSY+pFCOPpRGMyg0C0UmhxVCTeZ/yK1G3S5vtKs5iiQvGs2jvcNzaZUWOBkt5Umki&#xA;uL7iyws5R5DWlTir0TTNT0/WtKg1CwlMlleJzhkKvG3E7fEkgV0YHYqygg7EYq81/NPyte2+nm+t&#xA;JjcmWRYo7RUZpmd6kBAgbkaAntiqQfkz5B/MvRfNja1exRWGh3UTRXlncP8A6RKOsTJGgYKyP/OQ&#xA;aVFN8Ve0anrOn6YkZupKSzErb28atJNKw3KxRIGdyOpoNhudsVSe+vLySFbrW72Py3pBYAQtPHHc&#xA;yHduMtxy9OKqg1SIltqiQbjFWE6z+YnlX9LWui+TkvPOGr3D8ZIbHWblIYlpy5NOZmQ/DyPw1Ap8&#xA;RXaqrPtO8vpNYW8t+t5aXskatc2seqX0yxSEVZBL6kfPiduXEVxVVn0HRoIzJPdXkUY6u+pXqgfS&#xA;Z8VQIHkwtwGtOW/lGsXNfu+sYqj4vL+kTRiSG5vJI2+y6ajesD8iJ8VXf4Z07/f19/3EL7/qtiqW&#xA;6lDoNnOLON9SvdSZQ6afa39683FqgO9Z1SJDxPxyMq12rXbFUssbS+h806cH1Gc3CSv9d0a2urq7&#xA;ggga2lKtdyzM9WMnDhtGD2VqcsVZ1yXlxqOQFSO9MVYr+Yv/ABx4/wDo8/7pd5irK8VeIeetBTUv&#xA;zg03VIH06WWGbS0t7hr21j9H6pdyNdxXVqx9ed5Ay+hxB4yKvSmKvb8VS7X9btdF02S+uPi4/DFG&#xA;Ni7noo+7FXjupfmd5ku73/R78QRlq+nEihFWoXiGBLsanqcVZF5c/MfULeVItWl+s27MFZyoEkan&#xA;9rktOQHcEV98VeoKyuodSGVgCrDcEHviqVeZv+OdD/zHaf8A9R0OKptirDLT8rdFt9Tt78319P8A&#xA;UZzNplrI8Po2qtMbh4YgsSuUeQivqMzUUAMBirGLH8lLiDXbC2F7NH5R0gwT2UBu1nnlubb6sUdo&#xA;jZwiLkbQc/38gP7Cx8jiqYar+QvlHUrayglvb+MWOmx6RG6NasxtokZN/Vt5AsjB93QKewoCwKqe&#xA;z/lzYPpVrY22p39jPaXN7dQ6lbtb/Wa6jJLJcofUhki4MZzT93yFBQ1FcVSrUvyP8mX+nwWDtcpb&#xA;WvrfVoz9XmRPWktpN47iGaOQJ9RjCrKrChbkDtRVev5LeVl0afSUuLmKCeV52aBbO34yPp/6OLJF&#xA;BbxQJ+7+Oix0570p8OKoaD8i/LkN1NcpqmpBp5DK6j6koJNw1w1StqrOWeWQFnJajfa2TiqjLD8n&#xA;fL9mbNF1DUJbTTZo7nTbKR4PSt5Vu4r2Vk4wq7evPbhpObNSrBOAOKso8v6DHolo1nBdz3FryLQx&#xA;T+kfS5EswQxxxsQzMT8Zb22xVHXd5aWdtJdXcyW9tEOUs0rBEUeJZqAYqlH6R1rVvh0uI6fYnrqd&#xA;3GRK4rv9Xtm4sO9HmpQ0IR1OKsM8wfmj+XnkXV4tNY3GreYb6UW1zMjwGYMakfWLq7ltoY41Yn4F&#xA;fjGT9lcVS6/8pfmx+YE9xD5q+q+WvLSPW10dGa5mlKuQPrLWs8XING5BpMBUA8K74q9O0by7pOh6&#xA;OmkaLCNPsouZiSL4irSMXZqyepyYsxJLVxV4x5o/NX8w47yaxstLvba1RiqS3MBW5dQaciY441Wv&#xA;+SPpzCOokDy+b12n7A084Ayyi/6JFfaxKPUvOd9OZ5tH1K+lkNAVFwd69qIxr9OI1Ej0Tk9n9KP8&#xA;sB7zH9bLfKXlXzlqlyon8vNp1sTylub2VoaDbYR8PUJ9qU9xlsMkz0dXq9DpMQ2zcZ7oi/tunrdj&#xA;a6P5U05zcXRH1iWpZ+TPLKRQJFGObu5C7KtWOZDpEJqWsX8ixteSvodjOStvbRgTapdUFSscaCT0&#xA;9tyEDvx3rGRiq7TdCv5bcwJGdB0uQlpLaGTnqFwxHEvc3YZ+DMOpR2kOx9UHbFVbVZE8v6csOkwx&#xA;20S1bgqihY9Wb+Zm6ljue+KvD/PP5lea7TWLbV7e4WK7sAyRhVojxsaski1+JT/nvirP086t5z/L&#xA;ux11tPm055TfRvDMPhZk0u7BkhY/biJ+y3zHbFXqeKvAvzJ8raOn5yaXrd/q1nodnDJp9xDLewz2&#xA;0RnguXml9G44CzlklQlGEj8vir+yMVe7TiWe0f6pOIpJU/c3AUSAVGzAE0bAUh5N+ces6ppFppkO&#xA;rmK6gmeYRzWqtEzFVUfHG7OBQN1D/QMpyZTDnu7Xs3ss6wyETw8Pf5vKrTzZplqWCRTGM04qQlR4&#xA;713rlf5vydt/oUyfz4/Io+38/wCkRHk9lNIwNQSVp27V+eP5vyX/AEKZP58fkX0l5Xd38uaZI4Km&#xA;S1icI3VQ6Bgp91BpmVE2LeXzY+CZjd8JI+S3zN/xzof+Y7T/APqOhwtabYq7FXYq7FXYq7FXYq7F&#xA;XYqgNdv59P0S/v7eNZZrS3lnjjkJVWMaFqEgMe3hiqQ2mj+Zzcx32q2tlqWoRHlC73kqQQn/AJd4&#xA;BasqEVoHYtJTYuRiqb/WfNX/AFbrH/pOm/7JMVd9Z81f9W6x/wCk6b/skxV31nzV/wBW6x/6Tpv+&#xA;yTFXfWfNX/Vusf8ApOm/7JMVd9Z81f8AVusf+k6b/skxV31nzV/1brH/AKTpv+yTFUv1jXPMFilu&#xA;LqPTtNhuZWifUJLmSaOAJDJMztG0VqCOMJG8goTXfpiqF02yvLqb6zpiyiSROEvmXVE5XUiHcra2&#xA;xEYjWviiJX4gj1rirINM0Ow095J4w017OALm/nb1J5KdAznooO4RaIv7KjFUwxVQurG0ul43ESyr&#xA;4NirDtZ/KXyvq2t2l5cW6LYWykyWSAgTy8qj1Cf2AO3f9aqL/MCKKHQoIokWOKNbtI40AVVVdLuw&#xA;AANgAMVZbirw3U9Ln8z/AJzXUptYLtdKNrC8FrqGmPPFCkrCaS5hlinuVjkQp+7RkPUdTXFXtdlZ&#xA;WtjZW9lZxLBaWsaQ28KCipHGoVFUeCqKYqwr84fI175r8uRJpoDalYS+tbxMQokVhxdORoATsRXw&#xA;yjPjMhtzd12F2jHTZiZ/RIUfLzfO8/kPzrBcC3k0G/8AVNeKrbSuDTrxKqQfozB8OXc97HtLTkWM&#xA;kK/rBkOg/kh591SWP17MaZasfjnumVSB3pEpMlfmB88nHBI9HA1PtDpcY2lxnuH6+T6dsrVLSzgt&#xA;UJZLeNIlY9SEUKCafLNjEUKfOsk+KRl3lL/M3/HOh/5jtP8A+o6HCwTbFXYq7FXYq7FXYq7FXYq7&#xA;FVOeCC4gkgnjWWCVSksTgMjowoysp2II2IOKpXN5Z8oQQvNNpOnxQxKXkke3gVVVRUsxK0AAxVCt&#xA;pn5fLcrataaSLp1jdIDHbeoVmLCJgtKkOUYL40NOmKoW8f8AKmy1eLRr1tCttYn4CDTZjZx3LmQ0&#xA;ThC1JG5HpQb4qmMvl7yXDNBBLpmmxzXLFLaJ4IFaRlUuwRStWIVSxp2GKu/w75M+tfVP0Zp31rh6&#xA;v1f0IPU9OvHnw48uPLauKtyeXPJkc0UEml6ck0/L0ImggDPwFW4KVq1BuaYqlEt5+UEMN7PNP5fj&#xA;h02VbfUZXeyVbeZiQsczE0jclSArUOKp5beW/K6SQ3VtpViskZEtvPHBECpps6Mq7bHqMVTXFXYq&#xA;7FXYq7FWKfmL/wAceP8A6PP+6XeYqyvFXnNh+UNxp/nL/Etj5kuoCbm8uDYi3tGQxajcpdXUBkaM&#xA;ycXaJQGryUfZpir0bFXYq7FXYq7FUp8zf8c6H/mO0/8A6jocVTbFXYq7FXYq7FXYq7FXYq7FXYqx&#xA;38wrC9v/ACXq9rZRtNPJAT9XTdpkUhpIVHcyorJTvWmKsE1X8v8AzdFrWtaz9eg1JNek09LQRWk8&#xA;N3BJFqi3MLzMZZUEdnb/ALXFa8R8IavNVOfN/wCXGu63qGrXdtq7W9tdyabLFpX7kW07afMsp+su&#xA;1tLcJunw+lIPcYqwx/yJ8zC3jktbfQ7W+ghFqKGSZJn+pXVvNqMhmtnH1m5e5j9RWR9kBZ5CAMVQ&#xA;8P8Azj/5mjsRAkWkwiJHihjWYTE2xu1uls2e406aL0uTuTW3ZeSqfT+M8FWVeR/ys1nQPM9hqNxb&#xA;6cYbSNlfUlnkm1F0azhtktXP1W3jaKFoWKleCkHaNN6qpFefkn5yOuHWbSawkGnTBNF0i+uGlh+q&#xA;FL5WV54rGB4+J1DmiskzVBBkO1FXrnlPRDoPlXRtDaX1zpVjbWJnpTmbaFYudP8AK41xVNsVdirs&#xA;VdirsVY7590rUdR8uXA0xRLqFuksltbsQBKXgkgeOpoAzRzNwJIHKldq4qjP0/8A9q2+/wCRP/N2&#xA;Ku/T/wD2rb7/AJE/83Yq79P/APatvv8AkT/zdirv0/8A9q2+/wCRP/N2Ku/T/wD2rb7/AJE/83Yq&#xA;79P/APatvv8AkT/zdirv0/8A9q2+/wCRP/N2KoTU76fUYYLWHT7tHN3Zyl5YwiBIbqOVyWJ7IhxV&#xA;kOKuxV2KuxV2KuxV2KuxV2KuxVIfPVrrV35WvING9Y3zGE+nbTC2uJIVnRriKGcsgilkgDoj8l4s&#xA;Qajrirx2Hyl+cFioezmvdEsohqNzZNPcx3S2xmvb24A1GQ6nHG7PHLEXlNvcsP5lIOKqOi2vnnzP&#xA;Y31/5UvNVXTbSa+SyE+sm+9R2h0dfT9eG99O45INQ9LhcBY5D9uJ+iqYweUvzk+s2Sy6jrEdotu/&#xA;CaFoWnhLSXDPBIkutyRM3B41jkl+tNspMiGuKp7Jon5iv+WdxpkNrf2+qSaggUi/lOpfUqozSJLJ&#xA;qlwEk5Ajh9e4lN6AnhirFNG8nfnDFZgy2usWuqtNDJrNyNXt/SvbJLaCG4gt447krHezSRMyXDKh&#xA;A6yCvFVU2uPLX5qzW8+lm11N9M1ONFjMuqRvJZ26zahyguZfrJleZobi2UvGXrx3kJQEqo3UU80a&#xA;drfkLR9PkvY/rGmIus6MLxWuYl0lobpW3mZGMzK1rJIZOLc1Vn44q9ejZnjV2QxswBMbU5KSOh4l&#xA;lqPY4quxV2KuxV2KpX5k1xNF0lr4xevI0tva20HLh6lxdzpbQIWo3ENLKoLUNBvirCNI/N/UrjzF&#xA;caZq/lmfRbVbm3isbi5mb157W8upbKC6NsYU9INcpGvpu/Kj8ugHJVrzH+dFroPmu60e7g0/6rZX&#xA;lvZzj9I01Qxz20Vy11Hp31c84IhN8T+t+yxptTFV15+d1jZ3qwXXl/UbRI7W4vLw3UljDJHHDHFL&#xA;DxDXJjf6x64VR6gYN8LAb0VQj/8AOQvlqIG4uNNurewkt7aS1mnnsLd3nnmvYZIH+sXMMMZjOmS/&#xA;EZqNQgfsc1U+8ofmppvmzVrODSdOuxpF/ZXV9Z61cCOOGf6pLbwyJDGGeU8XuirGRUoV+HkDUKpT&#xA;afntpGoTtHpOh6jqHpSzxzJA1mzmOGIyi4hYXBglidVan70NtspJAKqY6Z+cXlzUtR020gsdQW31&#xA;qSSPRtReOEW12IJBFNJHSUyqkbsoPqIpaoKhhviqY/l/5+h852t9e22nT2Nlbvai1kuGiLTR3mn2&#xA;1+jMkbP6bKl2oK1I6HlWqqqyvFXYq7FXYq7FXYq7FXYq7FXYq7FXYq7FXYq7FXYq7FXYq7FXYq7F&#xA;XYq7FUl83WNhqGkrZXd5HYSS3Vq9hcSlaC9t50uLYKpZPUPqwr8ANWG2KsX13Rfy7023h80XOpiC&#xA;yvNR0+W51S4uri/E5iuTJZ28Ms0s3owreSLJSP4FANQB8Sqq51v8ntc0SW/k1fTZ9K1m/tbmeWS9&#xA;ESyX8UUBgjcPIjJL6VvFygIFQKMu7VVQtp5L/JvUPrdna3EN7PpDM1+0erXM11bEBUAnmFy08Yi+&#xA;qr6YdqRslU4la4qidK/Lv8r76Iz6MzTiEqn1uw1W9Mkb8pblaTQ3PNHP1+VqhgSsrfstuqnek+Qv&#xA;K2lazLrNlayrqE0UsLyS3VzOnC4aN5+MU0rxK0zwI0jKvJ2FWJJOKpUv5M/l4gASxuk4okSFNS1F&#xA;SscaNEsSkXAKxiKQx8B8PCi04gAKq8/5S+QZpJZG06RXkcyJ6V3eRCBmk9V/qojmUWwkk+KQQ8A5&#xA;+1XFU38ueUtA8twyQaLbNawSpbo8XqzSLS0t47SGgldwCsEEaFhu3EcqnFU4xV2KuxV2KuxV2Kux&#xA;V2KuxV2KuxV2KuxV2KuxV2KuxV2KuxV2KuxV2KuxViX5p6Jq2s+Sb2y0aJpNbElvPpMiGNTDdwXC&#xA;SwzFpWjAWN05PQ8uNaBj8JVUZPI2oz+R4fKxu7e0XTbjTzpNxFC8qi30q4t7iATxtJGWdzbUfi4G&#xA;+2KsYvvyFSe20+GPWAv1LT4dKnjaO7ihuLdLaO3m9RbG9sZT6vog8WlKgEgq2xCrK/LfkA6DLJNb&#xA;XyyStFfRoXgNA17fy3ys/wC8LP6fq8CK1alaiuKtflv5EvvJWjpoq6nDfaZG80yD6mtvP6k7LISX&#xA;ik9MqH9Wg9OvFlWtE+JVmGKuxV2KuxV//9k=</xapGImg:image>
    </rdf:li>
   </rdf:Alt>
  </xap:Thumbnails>
 </rdf:Description>

 <rdf:Description rdf:about=''
  xmlns:dc='http://purl.org/dc/elements/1.1/'>
  <dc:format>image/svg+xml</dc:format>
 </rdf:Description>

</rdf:RDF>
</x:xmpmeta>
                                                                                                                                                                                                                                                                                                                                                                                                                                                                                                                                                                                                                                                                                                                                                                                                                                                                                                                                                                                                                                                                                                                                                                                                                                                                                                                                                                                                                                                                                                                                                                                                                                                                                                                                                                                                                                                                                                                                                                                                                                                                                                                                <?xpacket end='w'?>
			</metadata>
		<g id="Layer_1">
			<polygon style="fill:none;stroke:#000000;stroke-width:0.5;" points="63.457,115.446 104.053,92.007 42.165,92.007 
				1.568,115.446 "/>
			<polyline style="fill:none;stroke:#000000;stroke-width:0.5;" points="1.568,115.446 1.568,123.337 63.257,123.337 
				63.257,115.446 "/>
			<polyline style="fill:none;stroke:#000000;stroke-width:0.5;" points="63.223,123.342 103.819,99.903 103.819,92.196 "/>
			<g>
				<line style="fill:none;stroke:#000000;stroke-width:2;" x1="86.798" y1="106.392" x2="105.719" y2="106.392"/>
				<path d="M109.288,106.392c-1.679,0.623-3.763,1.686-5.054,2.812l1.017-2.812l-1.017-2.812
					C105.525,104.706,107.609,105.769,109.288,106.392z"/>
			</g>
			<g>
				<line style="fill:none;stroke:#000000;stroke-width:2;" x1="53.831" y1="100.649" x2="53.831" y2="72.464"/>
				<path d="M53.831,68.896c0.623,1.679,1.687,3.762,2.812,5.053l-2.812-1.017l-2.811,1.017
					C52.145,72.658,53.208,70.575,53.831,68.896z"/>
			</g>
			<g>
				<line style="fill:none;stroke:#000000;stroke-width:2;" x1="32.035" y1="119.99" x2="23.183" y2="125.101"/>
				<path d="M20.093,126.885c1.143-1.379,2.415-3.342,2.97-4.962l0.525,2.943l2.286,1.926
					C24.194,126.464,21.858,126.585,20.093,126.885z"/>
			</g>
			<g>
				<text transform="matrix(1 0 0 1 112.3345 108.5552)"><tspan x="0" y="0" style="font-family:'Helvetica'; font-size:10;">x</tspan></text>
			</g>
			<g>
				<text transform="matrix(1 0 0 1 51.4312 64.7993)"><tspan x="0" y="0" style="font-family:'Helvetica'; font-size:10;">y</tspan></text>
			</g>
			<g>
				<text transform="matrix(1 0 0 1 14.1797 130.4331)"><tspan x="0" y="0" style="font-family:'Helvetica'; font-size:10;">z</tspan></text>
			</g>
			<rect x="139.57" y="7.899" style="fill:none;stroke:#000000;stroke-width:0.5;" width="61.889" height="78.248"/> 
			<polyline style="fill:none;stroke:#000000;stroke-width:0.5;" points="206.202,5.153 144.313,5.153 139.582,7.885 "/>
			<polyline style="fill:none;stroke:#000000;stroke-width:0.5;" points="201.546,7.977 206.422,5.161 206.422,83.409 
				201.546,86.224 "/>
			<polygon style="fill:none;stroke:#000000;stroke-width:0.5;" points="293.011,78.68 293.011,0.433 271.747,12.709 
				271.747,90.958 "/>
			<polyline style="fill:none;stroke:#000000;stroke-width:0.5;" points="292.936,0.42 287.123,0.42 265.858,12.697 265.858,90.945 
				271.834,90.945 "/>
			<line style="fill:none;stroke:#000000;stroke-width:0.5;" x1="265.847" y1="12.607" x2="271.747" y2="12.607"/>
			<polygon style="fill:none;stroke:#000000;stroke-width:0.5;" points="217.352,142.32 139.104,142.32 98.999,165.475 
				177.247,165.475 "/>
			<polyline style="fill:none;stroke:#000000;stroke-width:0.5;" points="217.429,142.431 217.429,147.626 177.324,170.781 
				99.076,170.781 99.076,165.474 "/>
			<line style="fill:none;stroke:#000000;stroke-width:0.5;" x1="177.324" y1="170.781" x2="177.324" y2="165.475"/>
			<rect x="239.865" y="125.723" style="fill:none;stroke:#000000;stroke-width:0.5;" width="78.248" height="61.889"/> 
			<polyline style="fill:none;stroke:#000000;stroke-width:0.5;" points="237.12,120.979 237.12,182.869 239.852,187.6 "/>
			<polyline style="fill:none;stroke:#000000;stroke-width:0.5;" points="239.943,125.919 237.127,121.043 315.375,121.043 
				318.19,125.919 "/>
			<g>
				<text transform="matrix(1 0 0 1 10.686 141.4785)"><tspan x="0" y="0" style="font-family:'Helvetica'; font-size:10;">(1) </tspan></text>
				<text transform="matrix(1 0 0 1 25.5063 141.4785)"><tspan x="0" y="0" style="font-family:'Helvetica'; font-size:10;">The book in its</tspan></text>
				<text transform="matrix(1 0 0 1 10.686 153.4785)"><tspan x="0" y="0" style="font-family:'Helvetica'; font-size:10;">original orientation.</tspan></text>
			</g>
			<g>
				<text transform="matrix(1 0 0 1 135.4492 98.832)"><tspan x="0" y="0" style="font-family:'Helvetica'; font-size:10;">(2) Rotated 90</tspan></text>
				<text transform="matrix(1 0 0 1 135.4492 110.832)"><tspan x="0" y="0" style="font-family:'Helvetica'; font-size:10;">degrees about x.</tspan></text>
			</g>
			<g>
				<text transform="matrix(1 0 0 1 241.8818 100.606)"><tspan x="0" y="0" style="font-family:'Helvetica'; font-size:10;">(3) Rotated about</tspan></text>
				<text transform="matrix(1 0 0 1 241.8818 112.606)"><tspan x="0" y="0" style="font-family:'Helvetica'; font-size:10;">x, then y</tspan></text>
				<text transform="matrix(1 0 0 1 278.9399 112.606)"><tspan x="0" y="0" style="font-family:'Helvetica'; font-size:10;">.</tspan></text>
			</g>
			<g>
				<text transform="matrix(1 0 0 1 107.6582 186.1152)"><tspan x="0" y="0" style="font-family:'Helvetica'; font-size:10;">(4) Rotated 90</tspan></text>
				<text transform="matrix(1 0 0 1 107.6582 198.1152)"><tspan x="0" y="0" style="font-family:'Helvetica'; font-size:10;">degrees about y</tspan></text>
				<text transform="matrix(1 0 0 1 178.6372 198.1152)"><tspan x="0" y="0" style="font-family:'Helvetica'; font-size:10;">.</tspan></text>
			</g>
			<g>
				<text transform="matrix(1 0 0 1 237.1519 202.6719)"><tspan x="0" y="0" style="font-family:'Helvetica'; font-size:10;">(5) Rotated about</tspan></text>
				<text transform="matrix(1 0 0 1 237.1519 214.6719)"><tspan x="0" y="0" style="font-family:'Helvetica'; font-size:10;">y</tspan></text>
				<text transform="matrix(1 0 0 1 241.4116 214.6719)"><tspan x="0" y="0" style="font-family:'Helvetica'; font-size:10;">, then x.</tspan></text>
			</g>
			
				<linearGradient id="XMLID_5_" gradientUnits="userSpaceOnUse" x1="130.0142" y1="391.4683" x2="202.4077" y2="391.4683" gradientTransform="matrix(0.2957 0 0 0.2957 190.1266 -62.6606)">
				<stop  offset="0" style="stop-color:#FFFFFF"/>
				<stop  offset="1" style="stop-color:#000000"/>
				<midPointStop  offset="0" style="stop-color:#FFFFFF"/>
				<midPointStop  offset="0.5" style="stop-color:#FFFFFF"/>
				<midPointStop  offset="1" style="stop-color:#000000"/>
			</linearGradient>
			<polygon style="fill:url(#XMLID_5_);" points="249.749,53.096 240.639,44.959 240.639,48.81 228.342,48.81 228.342,57.383 
				240.639,57.383 240.639,61.233 "/>
			
				<linearGradient id="XMLID_6_" gradientUnits="userSpaceOnUse" x1="130.0142" y1="391.4663" x2="202.4077" y2="391.4663" gradientTransform="matrix(0.2957 0 0 0.2957 174.3371 41.9766)">
				<stop  offset="0" style="stop-color:#FFFFFF"/>
				<stop  offset="1" style="stop-color:#000000"/>
				<midPointStop  offset="0" style="stop-color:#FFFFFF"/>
				<midPointStop  offset="0.5" style="stop-color:#FFFFFF"/>
				<midPointStop  offset="1" style="stop-color:#000000"/>
			</linearGradient>
			<polygon style="fill:url(#XMLID_6_);" points="233.959,157.733 224.85,149.596 224.85,153.446 212.553,153.446 212.553,162.02 
				224.85,162.02 224.85,165.871 "/>
			
				<linearGradient id="XMLID_7_" gradientUnits="userSpaceOnUse" x1="130.0142" y1="393.5024" x2="202.439" y2="393.5024" gradientTransform="matrix(0.2284 -0.1876 0.1876 0.2284 5.9624 10.416)">
				<stop  offset="0" style="stop-color:#FFFFFF"/>
				<stop  offset="1" style="stop-color:#000000"/>
				<midPointStop  offset="0" style="stop-color:#FFFFFF"/>
				<midPointStop  offset="0.5" style="stop-color:#FFFFFF"/>
				<midPointStop  offset="1" style="stop-color:#000000"/>
			</linearGradient>
			<polygon style="fill:url(#XMLID_7_);" points="126.277,62.104 114.073,61.598 116.517,64.573 107.014,72.378 112.456,79.003 
				121.958,71.198 124.402,74.173 "/>
			
				<linearGradient id="XMLID_8_" gradientUnits="userSpaceOnUse" x1="130.0142" y1="393.354" x2="202.4243" y2="393.354" gradientTransform="matrix(0.278 0.1006 -0.1006 0.278 101.3226 15.8778)">
				<stop  offset="0" style="stop-color:#FFFFFF"/>
				<stop  offset="1" style="stop-color:#000000"/>
				<midPointStop  offset="0" style="stop-color:#FFFFFF"/>
				<midPointStop  offset="0.5" style="stop-color:#FFFFFF"/>
				<midPointStop  offset="1" style="stop-color:#000000"/>
			</linearGradient>
			<polygon style="fill:url(#XMLID_8_);" points="117.722,145.487 111.927,134.734 110.617,138.354 99.054,134.167 96.135,142.229 
				107.697,146.416 106.386,150.036 "/>
			<g>
				<text transform="matrix(1 0 0 1 152.0708 28.2095)"><tspan x="0" y="0" style="font-family:'Helvetica-Bold'; font-size:10;">Physics</tspan></text>
			</g>
			<path style="fill:#D02031;" d="M172.235,46.02l-0.165-1.123l-1.619,0.08c0,0-0.002,0.006-0.002,0.006
				c-2.075-0.122-8.983-0.638-10.874,4.927c-1.926,5.669-0.793,8.13,0.566,14.334c1.359,6.205,4.758,5.669,4.758,5.669l3.512,0.107
				l3.512,0.535V46.167L172.235,46.02z"/>
			<path style="fill:#999999;" d="M172.22,44.594c-0.048,0-0.094,0.006-0.142,0.007v26.466c0.048,0,0.094,0.007,0.142,0.007
				c7.312,0,13.24-5.928,13.24-13.24C185.46,50.521,179.532,44.594,172.22,44.594z"/>
			
				<ellipse transform="matrix(-0.4582 0.8889 -0.8889 -0.4582 302.639 -82.8386)" style="fill:#737373;" cx="176.568" cy="50.821" rx="1.626" ry="2.788"/> 
			<circle style="fill:#737373;" cx="180.521" cy="54.272" r="1.626"/> 
			<circle style="fill:#737373;" cx="178.057" cy="54.764" r="1.394"/> 
			
				<ellipse transform="matrix(0.1153 0.9933 -0.9933 0.1153 214.6958 -135.0182)" style="fill:#737373;" cx="183.149" cy="53.024" rx="1.672" ry="0.836"/> 
			<ellipse style="fill:#737373;" cx="173.787" cy="53.286" rx="1.858" ry="1.394"/> 
			<ellipse style="fill:#737373;" cx="178.878" cy="57.721" rx="1.394" ry="0.929"/> 
			<ellipse style="fill:#737373;" cx="182.82" cy="56.736" rx="1.162" ry="1.858"/> 
			<circle style="fill:none;stroke:#CCCCCC;stroke-width:0.5;" cx="173.129" cy="63.634" r="0.465"/> 
			<circle style="fill:none;stroke:#CCCCCC;stroke-width:0.5;" cx="174.061" cy="65.496" r="0.465"/> 
			<circle style="fill:none;stroke:#CCCCCC;stroke-width:0.5;" cx="174.992" cy="67.359" r="0.465"/> 
			<circle style="fill:none;stroke:#CCCCCC;stroke-width:0.5;" cx="175.923" cy="69.221" r="0.465"/> 
			<circle style="fill:none;stroke:#CCCCCC;stroke-width:0.5;" cx="173.458" cy="68.426" r="0.465"/> 
			<circle style="fill:none;stroke:#CCCCCC;stroke-width:0.5;" cx="172.867" cy="66.454" r="0.465"/> 
			<circle style="fill:none;stroke:#CCCCCC;stroke-width:0.5;" cx="172.965" cy="69.74" r="0.465"/> 
			<circle style="fill:none;stroke:#CCCCCC;stroke-width:0.5;" cx="174.115" cy="69.411" r="0.465"/> 
			
				<ellipse transform="matrix(0.314 -0.9494 0.9494 0.314 63.2835 216.3826)" style="fill:none;stroke:#CCCCCC;stroke-width:0.5;" cx="181.382" cy="64.398" rx="0.929" ry="0.465"/> 
			
				<ellipse transform="matrix(-0.9026 0.4304 -0.4304 -0.9026 369.4478 22.9263)" style="fill:none;stroke:#CCCCCC;stroke-width:0.5;" cx="182.131" cy="53.252" rx="0.31" ry="0.929"/> 
			<polygon style="fill:#8E6A5C;" points="171.093,45.127 172.954,39.542 173.064,37.572 174.378,38.338 171.859,45.237 "/>
			<g>
				<text transform="matrix(0 -1 1 0 259.1084 174.8862)"><tspan x="0" y="0" style="font-family:'Helvetica-Bold'; font-size:10;">Physics</tspan></text>
			</g>
			<path style="fill:#D02031;" d="M276.919,155.289l-1.123,0.166l0.08,1.619c0,0,0.006,0.001,0.007,0.002
				c-0.122,2.076-0.638,8.984,4.927,10.874c5.669,1.926,8.129,0.793,14.334-0.566c6.204-1.359,5.669-4.758,5.669-4.758l0.107-3.512
				l0.535-3.512h-24.389L276.919,155.289z"/>
			<path style="fill:#999999;" d="M275.493,155.304c0,0.048,0.007,0.094,0.007,0.142h26.466c0-0.048,0.007-0.094,0.007-0.142
				c0-7.312-5.928-13.24-13.24-13.24C281.421,142.064,275.493,147.992,275.493,155.304z"/>
			
				<ellipse transform="matrix(0.8889 0.4581 -0.4581 0.8889 100.4553 -112.2872)" style="fill:#737373;" cx="281.72" cy="150.956" rx="1.626" ry="2.787"/> 
			<circle style="fill:#737373;" cx="285.171" cy="147.003" r="1.626"/> 
			<circle style="fill:#737373;" cx="285.664" cy="149.467" r="1.394"/> 
			
				<ellipse transform="matrix(0.9933 -0.1153 0.1153 0.9933 -14.7547 33.7042)" style="fill:#737373;" cx="283.923" cy="144.375" rx="1.673" ry="0.836"/> 
			<ellipse style="fill:#737373;" cx="284.186" cy="153.737" rx="1.394" ry="1.858"/> 
			<ellipse style="fill:#737373;" cx="288.62" cy="148.646" rx="0.929" ry="1.394"/> 
			<ellipse style="fill:#737373;" cx="287.635" cy="144.704" rx="1.858" ry="1.161"/> 
			<circle style="fill:none;stroke:#CCCCCC;stroke-width:0.5;" cx="294.533" cy="154.395" r="0.464"/> 
			<circle style="fill:none;stroke:#CCCCCC;stroke-width:0.5;" cx="296.396" cy="153.463" r="0.465"/> 
			<circle style="fill:none;stroke:#CCCCCC;stroke-width:0.5;" cx="298.258" cy="152.532" r="0.465"/> 
			<circle style="fill:none;stroke:#CCCCCC;stroke-width:0.5;" cx="300.12" cy="151.601" r="0.465"/> 
			<circle style="fill:none;stroke:#CCCCCC;stroke-width:0.5;" cx="299.324" cy="154.066" r="0.465"/> 
			<circle style="fill:none;stroke:#CCCCCC;stroke-width:0.5;" cx="297.354" cy="154.657" r="0.465"/> 
			<circle style="fill:none;stroke:#CCCCCC;stroke-width:0.5;" cx="300.638" cy="154.559" r="0.465"/> 
			<circle style="fill:none;stroke:#CCCCCC;stroke-width:0.5;" cx="300.31" cy="153.409" r="0.465"/> 
			
				<ellipse transform="matrix(-0.9494 -0.314 0.314 -0.9494 529.7665 377.6215)" style="fill:none;stroke:#CCCCCC;stroke-width:0.5;" cx="295.298" cy="146.142" rx="0.929" ry="0.465"/> 
			
				<ellipse transform="matrix(0.4311 0.9023 -0.9023 0.4311 292.8552 -173.6766)" style="fill:none;stroke:#CCCCCC;stroke-width:0.5;" cx="284.152" cy="145.393" rx="0.31" ry="0.929"/> 
			<polygon style="fill:#8E6A5C;" points="276.026,156.431 270.442,154.57 268.471,154.46 269.237,153.146 276.136,155.665 "/>
			<g>
				<text transform="matrix(1.1909 0 -0.8881 0.4596 45.228 96.4849)"><tspan x="0" y="0" style="font-family:'Helvetica-Bold'; font-size:10;">Physics</tspan></text>
			</g>
			<path style="fill:#D02031;" d="M56.929,102.226l0.672-0.434l-1.679,0.031c0,0-0.006,0.002-0.007,0.003
				c-1.984-0.047-8.508-0.246-14.549,1.901c-6.154,2.188-6.856,3.138-10.124,5.533s0.53,2.188,0.53,2.188l3.433,0.042l3.113,0.207
				l18.189-9.414L56.929,102.226z"/>
			<path style="fill:#999999;" d="M57.977,101.675c-0.047,0-0.099,0.002-0.146,0.003l-19.738,10.215
				c0.047,0,0.088,0.002,0.136,0.002c7.312,0,17.661-2.288,23.114-5.11C66.796,103.963,65.29,101.675,57.977,101.675z"/>
			<path style="fill:#737373;" d="M55.858,104.636c0.843,0.272,2.342,0.243,3.348-0.065c1.007-0.308,1.14-0.778,0.297-1.051
				c-0.842-0.272-2.341-0.243-3.348,0.065C55.149,103.894,55.016,104.364,55.858,104.636z"/>
			<path style="fill:#737373;" d="M57.848,106.038c0.898,0,2.169-0.281,2.839-0.627c0.669-0.347,0.484-0.627-0.414-0.627
				s-2.169,0.281-2.838,0.627C56.765,105.757,56.95,106.038,57.848,106.038z"/>
			<path style="fill:#737373;" d="M55.19,106.139c0.77,0,1.859-0.241,2.433-0.538c0.574-0.297,0.416-0.538-0.354-0.538
				c-0.77,0-1.859,0.241-2.433,0.538C54.262,105.897,54.42,106.139,55.19,106.139z"/>
			<path style="fill:#737373;" d="M61.573,105.57c0.499-0.021,1.371-0.324,1.949-0.678c0.578-0.354,0.642-0.625,0.143-0.604
				s-1.371,0.324-1.948,0.678S61.075,105.59,61.573,105.57z"/>
			<path style="fill:#737373;" d="M52.022,105.568c1.026,0,2.323-0.241,2.897-0.538c0.574-0.297,0.208-0.538-0.819-0.538
				s-2.324,0.241-2.897,0.538C50.629,105.327,50.996,105.568,52.022,105.568z"/>
			<path style="fill:#737373;" d="M54.153,107.101c0.77,0,1.704-0.161,2.086-0.359c0.383-0.198,0.069-0.358-0.701-0.358
				c-0.77,0-1.704,0.161-2.086,0.358C53.069,106.94,53.383,107.101,54.153,107.101z"/>
			<path style="fill:#737373;" d="M58.137,107.079c0.642,0,1.782-0.321,2.547-0.717c0.765-0.396,0.866-0.717,0.224-0.717
				c-0.641,0-1.782,0.321-2.547,0.717C57.596,106.757,57.495,107.079,58.137,107.079z"/>
			<path style="fill:none;stroke:#CCCCCC;stroke-width:0.5;" d="M44.341,109.204c0.256,0,0.62-0.081,0.811-0.18
				c0.191-0.099,0.138-0.179-0.118-0.179c-0.257,0-0.62,0.081-0.811,0.179C44.031,109.123,44.084,109.204,44.341,109.204z"/>
			<path style="fill:none;stroke:#CCCCCC;stroke-width:0.5;" d="M43.883,109.922c0.257,0,0.62-0.081,0.811-0.18
				s0.139-0.179-0.118-0.179c-0.256,0-0.62,0.08-0.811,0.179S43.626,109.922,43.883,109.922z"/>
			<path style="fill:none;stroke:#CCCCCC;stroke-width:0.5;" d="M43.425,110.641c0.256,0,0.62-0.081,0.811-0.18
				c0.191-0.099,0.138-0.179-0.118-0.179c-0.257,0-0.62,0.081-0.811,0.179C43.116,110.561,43.168,110.641,43.425,110.641z"/>
			<path style="fill:none;stroke:#CCCCCC;stroke-width:0.5;" d="M42.968,111.36c0.256,0,0.62-0.081,0.811-0.179
				c0.191-0.099,0.139-0.18-0.118-0.18c-0.257,0-0.62,0.081-0.812,0.18C42.658,111.279,42.711,111.36,42.968,111.36z"/>
			<path style="fill:none;stroke:#CCCCCC;stroke-width:0.5;" d="M41.096,111.053c0.257,0,0.62-0.08,0.811-0.179
				s0.139-0.18-0.118-0.18c-0.256,0-0.62,0.081-0.811,0.18S40.839,111.053,41.096,111.053z"/>
			<path style="fill:none;stroke:#CCCCCC;stroke-width:0.5;" d="M41.975,110.292c0.257,0,0.62-0.081,0.811-0.179
				c0.191-0.099,0.139-0.179-0.118-0.179c-0.256,0-0.62,0.08-0.811,0.179C41.665,110.211,41.718,110.292,41.975,110.292z"/>
			<path style="fill:none;stroke:#CCCCCC;stroke-width:0.5;" d="M39.623,111.56c0.257,0,0.62-0.081,0.811-0.18
				s0.139-0.179-0.118-0.179c-0.256,0-0.62,0.08-0.811,0.179C39.314,111.479,39.367,111.56,39.623,111.56z"/>
			<path style="fill:none;stroke:#CCCCCC;stroke-width:0.5;" d="M41.018,111.433c0.256,0,0.62-0.08,0.811-0.179
				c0.191-0.099,0.138-0.18-0.118-0.18c-0.257,0-0.62,0.081-0.811,0.18S40.761,111.433,41.018,111.433z"/>
			<path style="fill:none;stroke:#CCCCCC;stroke-width:0.5;" d="M53.319,108.979c0.184,0.031-0.093,0.209-0.617,0.397
				s-1.099,0.315-1.282,0.284c-0.184-0.031,0.093-0.209,0.618-0.397S53.135,108.947,53.319,108.979z"/>
			<path style="fill:none;stroke:#CCCCCC;stroke-width:0.5;" d="M61.051,105.068c-0.124,0.179-0.055,0.301,0.154,0.272
				c0.209-0.029,0.479-0.197,0.604-0.375c0.124-0.179,0.055-0.3-0.154-0.272C61.446,104.722,61.176,104.89,61.051,105.068z"/>
			<polygon style="fill:#8E6A5C;" points="56.452,101.881 62.479,99.726 64.058,98.965 64.8,99.26 57.137,101.923 "/>
			<g>
				<text transform="matrix(0.8893 -0.4573 0 2.4669 276.2593 27.4253)"><tspan x="0" y="0" style="font-family:'Helvetica-Bold'; font-size:4;">Physics</tspan></text>
			</g>
			<path style="fill:#D02031;" d="M282.107,42.245l-0.06-1.092l-0.583,0.38c0,0,0,0.006-0.001,0.007
				c-0.748,0.263-3.238,1.028-3.92,6.943c-0.694,6.026-0.286,8.277,0.204,14.229s1.715,4.787,1.715,4.787l1.266-0.544l1.266-0.116
				V42.449L282.107,42.245z"/>
			<path style="fill:#999999;" d="M282.102,40.821c-0.017,0.009-0.034,0.024-0.051,0.033v26.466c0.017-0.008,0.034-0.011,0.051-0.02
				c2.636-1.355,4.773-8.382,4.773-15.694S284.738,39.465,282.102,40.821z"/>
			<path style="fill:#737373;" d="M283.401,47.826c0.494,0.452,1.014,0.109,1.162-0.766c0.148-0.875-0.131-1.949-0.625-2.401
				c-0.493-0.452-1.013-0.109-1.162,0.766S282.908,47.374,283.401,47.826z"/>
			<path style="fill:#737373;" d="M285.095,50.586c0.324-0.167,0.586-1.029,0.586-1.927s-0.262-1.491-0.586-1.325
				s-0.586,1.029-0.586,1.928C284.508,50.16,284.771,50.753,285.095,50.586z"/>
			<path style="fill:#737373;" d="M284.207,51.304c0.277-0.143,0.502-0.882,0.502-1.652c0-0.77-0.225-1.278-0.502-1.136
				c-0.277,0.143-0.502,0.882-0.502,1.652C283.704,50.938,283.929,51.446,284.207,51.304z"/>
			<path style="fill:#737373;" d="M286.111,48.851c0.166-0.139,0.269-0.979,0.23-1.876c-0.038-0.898-0.203-1.514-0.369-1.375
				c-0.166,0.139-0.269,0.979-0.23,1.876C285.781,48.374,285.946,48.989,286.111,48.851z"/>
			<path style="fill:#737373;" d="M282.667,50.617c0.37-0.19,0.67-0.969,0.67-1.738s-0.3-1.24-0.67-1.049s-0.67,0.969-0.67,1.738
				S282.297,50.807,282.667,50.617z"/>
			<path style="fill:#737373;" d="M284.502,53.644c0.278-0.143,0.502-0.674,0.502-1.188s-0.225-0.813-0.502-0.671
				c-0.277,0.143-0.502,0.674-0.502,1.188S284.225,53.786,284.502,53.644z"/>
			<path style="fill:#737373;" d="M285.924,52.856c0.231-0.119,0.418-1.047,0.418-2.074s-0.188-1.762-0.418-1.643
				c-0.231,0.119-0.419,1.047-0.419,2.074S285.692,52.975,285.924,52.856z"/>
			<path style="fill:none;stroke:#CCCCCC;stroke-width:0.5;" d="M282.43,60.157c0.092-0.047,0.167-0.294,0.167-0.55
				c0-0.257-0.075-0.426-0.167-0.379c-0.093,0.048-0.167,0.294-0.167,0.551C282.263,60.036,282.337,60.205,282.43,60.157z"/>
			<path style="fill:none;stroke:#CCCCCC;stroke-width:0.5;" d="M282.766,61.847c0.093-0.048,0.167-0.294,0.167-0.551
				c0-0.256-0.075-0.426-0.167-0.378c-0.092,0.047-0.167,0.294-0.167,0.551S282.673,61.895,282.766,61.847z"/>
			<path style="fill:none;stroke:#CCCCCC;stroke-width:0.5;" d="M283.102,63.537c0.092-0.047,0.167-0.294,0.167-0.55
				c0-0.257-0.075-0.426-0.167-0.378c-0.092,0.047-0.167,0.294-0.167,0.551C282.934,63.415,283.009,63.584,283.102,63.537z"/>
			<path style="fill:none;stroke:#CCCCCC;stroke-width:0.5;" d="M283.437,65.227c0.093-0.047,0.168-0.294,0.168-0.551
				c0-0.256-0.075-0.426-0.168-0.378c-0.092,0.048-0.167,0.294-0.167,0.551C283.27,65.105,283.345,65.274,283.437,65.227z"/>
			<path style="fill:none;stroke:#CCCCCC;stroke-width:0.5;" d="M282.549,64.888c0.092-0.047,0.167-0.294,0.167-0.55
				c0-0.257-0.075-0.426-0.167-0.378c-0.093,0.047-0.167,0.294-0.167,0.55C282.381,64.766,282.456,64.936,282.549,64.888z"/>
			<path style="fill:none;stroke:#CCCCCC;stroke-width:0.5;" d="M282.335,63.026c0.092-0.047,0.167-0.294,0.167-0.55
				c0-0.257-0.075-0.426-0.167-0.379c-0.092,0.048-0.167,0.294-0.167,0.551C282.168,62.905,282.243,63.074,282.335,63.026z"/>
			<path style="fill:none;stroke:#CCCCCC;stroke-width:0.5;" d="M282.371,66.293c0.092-0.048,0.167-0.294,0.167-0.551
				c0-0.257-0.075-0.426-0.167-0.378c-0.093,0.047-0.167,0.294-0.167,0.55C282.204,66.171,282.278,66.341,282.371,66.293z"/>
			<path style="fill:none;stroke:#CCCCCC;stroke-width:0.5;" d="M282.786,65.751c0.092-0.047,0.167-0.294,0.167-0.55
				c0-0.257-0.075-0.426-0.167-0.379c-0.093,0.048-0.167,0.294-0.167,0.551C282.618,65.63,282.693,65.799,282.786,65.751z"/>
			<path style="fill:none;stroke:#CCCCCC;stroke-width:0.5;" d="M285.51,57.991c0.088,0.036,0.112,0.483,0.054,1
				s-0.176,0.907-0.264,0.872c-0.088-0.036-0.112-0.483-0.054-1S285.422,57.956,285.51,57.991z"/>
			<path style="fill:none;stroke:#CCCCCC;stroke-width:0.5;" d="M285.574,47.828c0.08,0.422,0.189,0.682,0.245,0.579
				c0.056-0.102,0.036-0.527-0.043-0.949c-0.08-0.422-0.189-0.682-0.245-0.579C285.475,46.98,285.495,47.406,285.574,47.828z"/>
			<polygon style="fill:#8E6A5C;" points="281.696,41.563 282.367,35.634 282.406,33.643 282.88,34.166 281.972,41.531 "/>
			<g>
				<text transform="matrix(0.8591 -0.5119 1.3518 0.0299 128.6826 159.6997)"><tspan x="0" y="0" style="font-family:'Helvetica-Bold'; font-size:7;">Physics</tspan></text>
			</g>
			<path style="fill:#D02031;" d="M156.395,153.927l-1.249,0.039l-0.966,0.625c0,0,0.005,0.001,0.005,0.001
				c-1.466,0.797-6.458,3.448-2.019,4.302c4.523,0.87,7.759,0.488,14.951,0.104c7.192-0.384,8.846-1.706,8.846-1.706l2.38-1.351
				l2.815-1.341l-24.816-0.549L156.395,153.927z"/>
			<path style="fill:#999999;" d="M154.935,153.901c-0.031,0.019-0.054,0.037-0.084,0.055l26.929,0.596
				c0.032-0.018,0.068-0.036,0.099-0.054c4.729-2.818,2.53-5.236-4.91-5.4C169.528,148.932,159.663,151.083,154.935,153.901z"/>
			<path style="fill:#737373;" d="M165.071,152.686c1.603-0.511,2.459-1.069,1.913-1.246c-0.546-0.177-2.288,0.095-3.89,0.606
				c-1.603,0.511-2.459,1.069-1.913,1.246C161.727,153.468,163.469,153.197,165.071,152.686z"/>
			<path style="fill:#737373;" d="M171.804,150.957c0.581-0.346,0.311-0.643-0.603-0.663c-0.914-0.02-2.125,0.244-2.706,0.59
				c-0.581,0.346-0.311,0.643,0.603,0.663C170.012,151.567,171.224,151.303,171.804,150.957z"/>
			<path style="fill:#737373;" d="M170.476,151.912c0.498-0.297,0.267-0.551-0.517-0.568c-0.783-0.018-1.822,0.209-2.319,0.505
				c-0.498,0.297-0.267,0.551,0.517,0.569C168.94,152.435,169.979,152.208,170.476,151.912z"/>
			<path style="fill:#737373;" d="M172.395,149.842c0.243-0.178-0.374-0.306-1.376-0.285s-2.012,0.181-2.254,0.359
				c-0.243,0.178,0.374,0.306,1.376,0.285S172.152,150.021,172.395,149.842z"/>
			<path style="fill:#737373;" d="M166.21,153.524c0.664-0.396,0.567-0.73-0.216-0.748c-0.783-0.017-1.956,0.289-2.62,0.685
				c-0.664,0.396-0.567,0.73,0.216,0.748C164.374,154.227,165.547,153.92,166.21,153.524z"/>
			<path style="fill:#737373;" d="M173.543,151.652c0.498-0.297,0.478-0.546-0.044-0.558c-0.522-0.012-1.349,0.22-1.847,0.516
				c-0.498,0.296-0.478,0.546,0.044,0.558C172.218,152.179,173.045,151.948,173.543,151.652z"/>
			<path style="fill:#737373;" d="M176.035,150.131c0.415-0.247-0.096-0.466-1.14-0.489c-1.044-0.023-2.227,0.158-2.642,0.406
				c-0.415,0.247,0.095,0.466,1.14,0.489C174.437,150.56,175.62,150.378,176.035,150.131z"/>
			<path style="fill:none;stroke:#CCCCCC;stroke-width:0.5;" d="M175.369,153.99c0.166-0.099,0.088-0.184-0.172-0.189
				c-0.261-0.006-0.607,0.07-0.773,0.168c-0.166,0.099-0.088,0.184,0.172,0.189C174.857,154.164,175.203,154.089,175.369,153.99z"/>
			<path style="fill:none;stroke:#CCCCCC;stroke-width:0.5;" d="M177.866,153.673c0.166-0.099,0.089-0.184-0.172-0.189
				s-0.607,0.07-0.773,0.168c-0.166,0.099-0.088,0.184,0.172,0.189C177.354,153.847,177.7,153.771,177.866,153.673z"/>
			<path style="fill:none;stroke:#CCCCCC;stroke-width:0.5;" d="M180.363,153.356c0.166-0.099,0.088-0.184-0.172-0.189
				c-0.261-0.006-0.607,0.07-0.773,0.168c-0.166,0.099-0.089,0.184,0.172,0.189C179.851,153.53,180.197,153.455,180.363,153.356z"/>
			<path style="fill:none;stroke:#CCCCCC;stroke-width:0.5;" d="M182.86,153.039c0.166-0.099,0.089-0.184-0.172-0.189
				s-0.607,0.07-0.773,0.168c-0.166,0.099-0.089,0.184,0.172,0.189C182.348,153.213,182.694,153.138,182.86,153.039z"/>
			<path style="fill:none;stroke:#CCCCCC;stroke-width:0.5;" d="M180.457,153.971c0.166-0.099,0.089-0.184-0.172-0.189
				c-0.261-0.006-0.607,0.069-0.773,0.168s-0.089,0.184,0.172,0.189C179.944,154.146,180.291,154.07,180.457,153.971z"/>
			<path style="fill:none;stroke:#CCCCCC;stroke-width:0.5;" d="M178.069,154.154c0.166-0.099,0.089-0.184-0.172-0.189
				c-0.261-0.006-0.607,0.07-0.773,0.168c-0.166,0.099-0.089,0.184,0.172,0.189C177.557,154.329,177.903,154.253,178.069,154.154z"
				/>
			<path style="fill:none;stroke:#CCCCCC;stroke-width:0.5;" d="M181.475,154.19c0.166-0.099,0.089-0.184-0.172-0.189
				s-0.607,0.07-0.773,0.168c-0.166,0.099-0.089,0.184,0.172,0.19C180.963,154.365,181.309,154.29,181.475,154.19z"/>
			<path style="fill:none;stroke:#CCCCCC;stroke-width:0.5;" d="M181.884,153.74c0.166-0.099,0.089-0.184-0.172-0.189
				c-0.261-0.006-0.607,0.069-0.773,0.168c-0.166,0.099-0.089,0.184,0.172,0.189C181.372,153.915,181.718,153.839,181.884,153.74z"
				/>
			<path style="fill:none;stroke:#CCCCCC;stroke-width:0.5;" d="M180.301,150.684c0.24-0.092,0.751-0.107,1.143-0.034
				c0.392,0.073,0.515,0.207,0.275,0.299c-0.24,0.092-0.751,0.107-1.143,0.035C180.185,150.91,180.062,150.776,180.301,150.684z"/>
			<path style="fill:none;stroke:#CCCCCC;stroke-width:0.5;" d="M170.109,150.388c0.614-0.075,1.132-0.185,1.157-0.246
				s-0.453-0.05-1.067,0.025c-0.614,0.074-1.132,0.185-1.157,0.246C169.017,150.473,169.495,150.462,170.109,150.388z"/>
			<polygon style="fill:#8E6A5C;" points="154.748,154.347 150.27,153.504 148.335,153.417 149.965,152.929 155.355,154.054 "/>
			<rect y="107.018" style="fill:none;" width="320.315" height="2.835"/> 
		</g>
	</svg>
