<?xml version="1.0" encoding="UTF-8" standalone="no"?>
<!-- Created with Inkscape (http://www.inkscape.org/) -->
<svg
   xmlns:dc="http://purl.org/dc/elements/1.1/"
   xmlns:cc="http://creativecommons.org/ns#"
   xmlns:rdf="http://www.w3.org/1999/02/22-rdf-syntax-ns#"
   xmlns:svg="http://www.w3.org/2000/svg"
   xmlns="http://www.w3.org/2000/svg"
   xmlns:sodipodi="http://sodipodi.sourceforge.net/DTD/sodipodi-0.dtd"
   xmlns:inkscape="http://www.inkscape.org/namespaces/inkscape"
   width="744.09448819"
   height="1052.3622047"
   id="svg2"
   sodipodi:version="0.32"
   inkscape:version="0.46"
   sodipodi:docname="hafele-keating-directions.svg"
   inkscape:output_extension="org.inkscape.output.svg.inkscape">
  <defs
     id="defs4">
    <inkscape:perspective
       sodipodi:type="inkscape:persp3d"
       inkscape:vp_x="0 : 526.18109 : 1"
       inkscape:vp_y="0 : 1000 : 0"
       inkscape:vp_z="744.09448 : 526.18109 : 1"
       inkscape:persp3d-origin="372.04724 : 350.78739 : 1"
       id="perspective10" />
    <inkscape:perspective
       id="perspective2444"
       inkscape:persp3d-origin="372.04724 : 350.78739 : 1"
       inkscape:vp_z="744.09448 : 526.18109 : 1"
       inkscape:vp_y="0 : 1000 : 0"
       inkscape:vp_x="0 : 526.18109 : 1"
       sodipodi:type="inkscape:persp3d" />
    <inkscape:perspective
       id="perspective3440"
       inkscape:persp3d-origin="372.04724 : 350.78739 : 1"
       inkscape:vp_z="744.09448 : 526.18109 : 1"
       inkscape:vp_y="0 : 1000 : 0"
       inkscape:vp_x="0 : 526.18109 : 1"
       sodipodi:type="inkscape:persp3d" />
    <inkscape:perspective
       id="perspective4441"
       inkscape:persp3d-origin="372.04724 : 350.78739 : 1"
       inkscape:vp_z="744.09448 : 526.18109 : 1"
       inkscape:vp_y="0 : 1000 : 0"
       inkscape:vp_x="0 : 526.18109 : 1"
       sodipodi:type="inkscape:persp3d" />
  </defs>
  <sodipodi:namedview
     id="base"
     pagecolor="#ffffff"
     bordercolor="#666666"
     borderopacity="1.0"
     gridtolerance="10000"
     guidetolerance="10"
     objecttolerance="10"
     inkscape:pageopacity="0.0"
     inkscape:pageshadow="2"
     inkscape:zoom="2.0494732"
     inkscape:cx="-48.305097"
     inkscape:cy="789.07796"
     inkscape:document-units="px"
     inkscape:current-layer="layer1"
     showgrid="false"
     inkscape:window-width="1278"
     inkscape:window-height="996"
     inkscape:window-x="1"
     inkscape:window-y="1" />
  <metadata
     id="metadata7">
    <rdf:RDF>
      <cc:Work
         rdf:about="">
        <dc:format>image/svg+xml</dc:format>
        <dc:type
           rdf:resource="http://purl.org/dc/dcmitype/StillImage" />
      </cc:Work>
    </rdf:RDF>
  </metadata>
  <g
     inkscape:label="Layer 1"
     inkscape:groupmode="layer"
     id="layer1">
    <g
       id="g3966">
      <path
         sodipodi:nodetypes="cc"
         id="path5214"
         d="M -87.943055,223.16044 L -70.638306,338.26183"
         style="fill:none;fill-rule:evenodd;stroke:#000000;stroke-width:1px;stroke-linecap:butt;stroke-linejoin:miter;stroke-opacity:1" />
      <path
         transform="matrix(0.993261,-0.1158991,0.1158991,0.993261,-218.07489,-115.39562)"
         d="M 142.12711,410.95056 A 48.375,48.375 0 1 1 45.377113,410.95056 A 48.375,48.375 0 1 1 142.12711,410.95056 z"
         sodipodi:ry="48.375"
         sodipodi:rx="48.375"
         sodipodi:cy="410.95056"
         sodipodi:cx="93.752113"
         id="path5218"
         style="fill:#ffffff;fill-opacity:1;fill-rule:evenodd;stroke:#000000;stroke-width:0.875;stroke-linecap:butt;stroke-linejoin:miter;marker:none;marker-start:none;marker-mid:none;marker-end:none;stroke-miterlimit:4;stroke-dasharray:none;stroke-dashoffset:0;stroke-opacity:1;visibility:visible;display:inline;overflow:visible;enable-background:accumulate"
         sodipodi:type="arc" />
      <path
         id="path5220"
         d="M -90.202965,328.64866 C -90.235395,328.5997 -88.811405,328.63473 -88.635675,328.64816 C -88.332465,328.67131 -88.038755,328.69938 -87.735165,328.7133 C -87.314115,328.73261 -87.474735,328.54639 -87.364815,328.30532 C -87.182765,327.90606 -87.103275,327.92873 -86.609255,327.77944 C -86.190485,327.65288 -85.738055,327.81125 -85.317515,327.85973 C -84.956435,327.90134 -84.712845,327.7717 -84.509195,327.70462 C -84.449935,327.6851 -84.136825,327.32359 -83.935465,327.24858 C -83.525855,327.09603 -83.012985,327.17861 -82.598695,327.22635 C -82.257815,327.26564 -81.916805,327.1875 -81.583775,327.13224 C -81.314425,327.08755 -81.045465,327.02943 -80.775455,326.97713 C -80.459405,326.91592 -80.053615,327.00098 -79.745145,327.01498 C -79.448075,327.02846 -79.170485,327.05729 -78.880715,327.09649 C -78.610485,327.13304 -78.416355,327.22814 -78.132525,327.24021 C -77.818405,327.25357 -77.506565,327.2991 -77.191725,327.32496 C -76.878625,327.35069 -76.569265,327.39558 -76.257495,327.43481 C -75.974665,327.47041 -75.686245,327.42201 -75.407065,327.39638 C -75.129645,327.37091 -74.835905,327.26598 -74.564065,327.2129 C -74.525105,327.20529 -74.371315,326.62771 -74.360875,326.5934 C -74.278545,326.32293 -73.919665,326.65477 -73.847385,326.6794 C -73.526675,326.78865 -73.668785,326.77235 -73.629775,326.26493 C -73.621355,326.15538 -73.138815,326.50332 -73.075155,326.54065 C -72.756145,326.72776 -72.647595,326.80316 -72.277845,326.86102 C -71.974525,326.90849 -71.663395,326.89332 -71.361395,326.89999 C -71.117995,326.90537 -70.885335,326.8022 -70.658955,326.73291 C -70.071965,326.55325 -69.502595,326.38112 -68.897005,326.28414 C -68.748945,326.26043 -68.465025,326.32417 -68.311345,326.33739 C -68.079765,326.35733 -67.846265,326.30139 -67.616465,326.26846 C -66.989415,326.17865 -66.372085,326.08119 -65.756165,325.92981 C -65.467745,325.85893 -65.237305,325.851 -64.958185,325.84886 C -64.609435,325.84618 -64.205855,325.97408 -63.862815,326.03718 C -63.554535,326.09387 -63.371355,326.04816 -63.087365,326.00748 C -62.881105,325.97793 -62.776625,325.93775 -62.525065,325.94187 C -62.306175,325.94546 -62.043085,325.70829 -61.862375,325.59704 C -61.657555,325.47096 -61.371905,325.56659 -61.140355,325.59792 C -60.879985,325.63314 -60.604995,325.59412 -60.339145,325.62602 C -60.083435,325.65669 -59.843605,325.79981 -59.573185,325.84061 C -59.242895,325.89043 -58.790995,325.71523 -58.464975,325.6505 C -58.253865,325.60859 -57.970845,325.62369 -57.757915,325.60447 C -57.602325,325.59042 -57.416405,325.09716 -57.356535,324.97402 C -57.246335,324.74739 -57.112305,324.53067 -57.007595,324.30104 C -56.866125,323.99078 -56.693525,324.24298 -56.508115,324.26708 C -56.295575,324.29469 -56.182945,324.55054 -55.997125,324.65733 C -55.806825,324.76667 -55.206945,324.5159 -55.012145,324.46944 C -54.933445,324.45067 -55.164235,324.41423 -55.240285,324.38663"
         style="fill:none;fill-opacity:0.75;fill-rule:evenodd;stroke:#444444;stroke-width:0.625;stroke-linecap:butt;stroke-linejoin:miter;marker:none;marker-start:none;marker-mid:none;marker-end:none;stroke-miterlimit:4;stroke-dasharray:none;stroke-dashoffset:0;stroke-opacity:1;visibility:visible;display:inline;overflow:visible;enable-background:accumulate" />
      <path
         sodipodi:nodetypes="cssssssssssssssssssssssssssssssssssssssssssssssssssssssssssssssssssssssssssssssssssssssssssssssssssssssssssssssssssssssssssssssssssssssssssssssssssssssssssssc"
         id="path5222"
         d="M -69.370885,257.42615 C -69.536945,257.31145 -68.709045,257.31729 -68.875105,257.20259 C -69.174625,256.99571 -70.046435,257.63975 -70.288775,257.78191 C -70.560755,257.94146 -70.673435,258.20266 -70.847865,258.45206 C -70.989585,258.65466 -70.923395,259.07976 -70.933465,259.22606 C -70.943155,259.36672 -71.600675,259.69759 -71.718385,259.77683 C -71.957645,259.93789 -72.188385,260.10775 -72.427495,260.26871 C -72.687375,260.44366 -72.900235,260.59177 -73.178735,260.73437 C -73.538265,260.91845 -73.778885,260.93322 -74.097795,261.18888 C -74.271225,261.32792 -74.488045,261.76076 -74.641015,261.94104 C -74.864015,262.20383 -75.456295,262.42266 -75.749025,262.61307 C -76.093595,262.8372 -76.388035,263.30233 -76.648645,263.6185 C -76.950385,263.98456 -77.302105,264.19558 -77.706055,264.42811 C -78.021385,264.60962 -78.235335,264.80599 -78.490605,265.02577 C -78.635325,265.15036 -78.234895,265.79171 -78.174815,265.94784 C -78.061025,266.24354 -78.364835,266.53972 -78.500325,266.75493 C -78.708955,267.08632 -78.888575,267.39574 -79.056915,267.75329 C -79.223485,268.10707 -79.411005,268.4186 -79.559915,268.78079 C -79.685475,269.08618 -79.698665,269.43066 -79.743165,269.74857 C -79.788655,270.07361 -79.722115,270.45252 -79.723855,270.78305 C -79.725505,271.09587 -79.875135,271.49356 -79.933365,271.8066 C -79.996715,272.1472 -79.451455,272.61739 -79.266075,272.83297 C -78.907415,273.25003 -78.610135,273.64931 -78.390755,274.14583 C -78.201005,274.57527 -78.018185,274.97496 -77.801885,275.38642 C -77.495715,275.96881 -77.144735,276.50032 -76.737395,277.01221 C -76.377385,277.4646 -76.145645,277.91158 -75.941205,278.4455 C -75.812185,278.78248 -75.651505,279.0773 -75.484225,279.38762 C -75.311235,279.70851 -75.037905,279.85727 -74.762495,280.05332 C -74.361695,280.33864 -73.650625,279.87142 -73.308955,279.70246 C -72.797685,279.44961 -72.351335,279.06808 -71.867455,278.77136 C -71.507415,278.55057 -71.232995,278.51406 -70.920715,278.44863 C -70.762025,278.41538 -70.355135,279.59642 -70.285655,279.74766 C -70.068205,280.22109 -69.843495,280.30718 -69.387995,280.48896 C -69.008965,280.64022 -68.502035,280.43717 -68.134865,280.35275 C -67.802505,280.2763 -67.439795,280.26526 -67.102785,280.22314 C -66.678645,280.17014 -66.255845,280.08907 -65.838555,280.04292 C -65.429855,279.99772 -65.038445,280.05137 -64.629835,280.0827 C -64.156045,280.11902 -64.108185,280.55292 -63.945105,280.89506 C -63.794215,281.21165 -63.737105,281.53291 -63.667045,281.87003 C -63.590985,282.23593 -63.498485,282.46244 -63.355305,282.75988 C -63.189425,283.10447 -62.245695,282.93927 -62.016125,282.91058 C -61.526965,282.84945 -61.142815,282.58776 -60.731835,282.36102 C -60.466585,282.21467 -60.398785,283.25669 -60.392765,283.33578 C -60.355245,283.82897 -60.688815,284.44678 -60.868935,284.88484 C -61.095975,285.43707 -61.493885,285.86473 -61.691825,286.45563 C -61.805055,286.79363 -61.783795,287.07507 -61.764545,287.42009 C -61.746965,287.7353 -61.757925,288.06052 -61.749655,288.37545 C -61.746555,288.49371 -61.526625,288.29653 -61.415095,288.25706 C -61.121745,288.15326 -61.503795,288.87524 -61.503325,289.18641 C -61.502745,289.57787 -61.474685,289.92861 -61.422325,290.31445 C -61.362145,290.75779 -61.239685,291.16849 -61.122905,291.59121 C -61.005585,292.01584 -60.883825,292.45157 -60.766175,292.88243 C -60.638995,293.34821 -60.612805,293.83638 -60.591365,294.31494 C -60.568225,294.83164 -60.742355,295.32871 -60.884915,295.81649 C -60.986925,296.16555 -61.078055,296.50605 -61.193485,296.84625 C -61.324025,297.23102 -61.816895,297.63952 -62.061725,297.96879 C -62.307535,298.29941 -62.508365,298.6382 -62.721075,298.98804 C -62.892525,299.27 -62.982745,299.61467 -63.102805,299.92133 C -63.211045,300.19777 -63.310195,300.45174 -63.405405,300.73419 C -63.506455,301.03398 -63.509485,301.31508 -63.543525,301.61974 C -63.573415,301.8872 -63.539475,302.1891 -63.548565,302.46088 C -63.563465,302.90625 -63.577125,303.34502 -63.603275,303.78868 C -63.622845,304.12074 -63.737045,304.45775 -63.805375,304.7829 C -63.917105,305.31461 -64.177875,305.82976 -64.292635,306.37597 C -64.413055,306.94904 -64.493095,307.52414 -64.557785,308.10309 C -64.591165,308.4018 -64.626845,308.704 -64.661535,308.99732 C -64.693965,309.2716 -64.363265,309.93643 -64.290015,310.22986 C -64.201075,310.58613 -64.237055,310.97666 -64.216765,311.34035 C -64.200765,311.62714 -64.328085,311.90024 -64.401075,312.16744 C -64.474335,312.43562 -64.714365,312.69183 -64.871845,312.92227 C -65.162075,313.34701 -65.007685,313.3733 -64.857675,313.78387 C -64.775435,314.00888 -64.241675,314.00663 -64.058935,314.04779 C -63.782655,314.11003 -63.387825,313.78374 -63.177595,313.64616 C -62.903175,313.46658 -62.606095,313.47328 -62.325505,313.40874 C -62.030475,313.3409 -61.539075,313.79344 -61.326505,313.94161 C -61.032425,314.14658 -60.757255,314.31373 -60.453185,314.48957 C -60.198805,314.63665 -59.917345,314.61526 -59.640025,314.64793 C -59.255635,314.69323 -58.744565,314.26645 -58.416705,314.09858 C -57.916935,313.8427 -57.456145,313.32149 -57.072365,312.92457 C -56.651705,312.48952 -56.178075,312.08373 -55.732425,311.67144 C -55.324065,311.29365 -54.911155,310.93524 -54.528915,310.5243 C -54.262355,310.23771 -53.908665,310.07066 -53.615335,309.84999 C -53.270485,309.59056 -52.758385,309.678 -52.358505,309.6991 C -52.104295,309.71251 -51.861005,309.72491 -51.622555,309.72879 C -51.293295,309.73414 -51.016395,309.20567 -50.861995,308.98468 C -50.544145,308.52975 -50.398475,307.90954 -50.203215,307.38809 C -50.014055,306.88296 -49.719415,306.40159 -49.447985,305.94062 C -49.210175,305.53671 -49.042595,305.34533 -48.680745,305.07341 C -48.249405,304.74924 -47.797835,304.55616 -47.298455,304.37695 C -46.931665,304.24534 -46.521655,304.18944 -46.145815,304.05937 C -45.765185,303.92766 -45.406985,303.65582 -45.075525,303.44023 C -44.618245,303.14277 -44.335135,302.5343 -44.052715,302.09147 C -43.549495,301.30246 -43.476505,300.21717 -43.269405,299.3251 C -43.085385,298.53239 -42.811745,297.77896 -42.562745,297.00738 C -42.362265,296.38616 -42.091105,295.87443 -41.954925,295.22631 C -41.863895,294.79312 -41.659685,294.46478 -41.437475,294.09326 C -41.185125,293.67139 -40.702785,293.32435 -40.344135,292.99632 C -39.991775,292.67405 -39.643055,292.37938 -39.272285,292.08116 C -38.852485,291.74349 -38.500295,291.22578 -38.107565,290.84622 C -37.711565,290.46349 -37.397955,290.01615 -37.038205,289.60281 C -36.580605,289.07705 -36.185475,288.47225 -35.800905,287.88698 C -35.418415,287.30491 -35.193885,286.6022 -34.869975,285.98465 C -34.521065,285.31944 -34.459005,284.57465 -34.402155,283.84067 C -34.374335,283.4816 -34.265325,283.10758 -34.212215,282.7498 C -34.143205,282.28473 -34.901105,282.87358 -35.136765,282.98452 C -35.540145,283.1744 -36.012175,283.27409 -36.437285,283.40519 C -36.876995,283.54077 -36.788985,283.29516 -37.004215,283.04374 C -37.209345,282.80412 -37.268525,282.16599 -37.352465,281.86387 C -37.445335,281.52962 -37.379895,281.22175 -37.348495,280.88206 C -37.318595,280.55848 -37.977385,280.45346 -38.194845,280.37212 C -38.536135,280.24443 -38.576015,279.74102 -38.659225,279.45934 C -38.755915,279.13206 -38.842165,278.80853 -38.948755,278.48148 C -39.069115,278.11218 -39.279075,277.78418 -39.410525,277.41336 C -39.576115,276.94617 -39.655265,276.52757 -39.672575,276.03683 C -39.689275,275.56382 -39.768845,275.08695 -39.839635,274.62186 C -39.922615,274.07667 -39.961465,273.53001 -40.061705,272.99023 C -40.135295,272.59399 -40.251945,272.25087 -40.367455,271.88347 C -40.543355,271.32397 -40.780495,270.79178 -40.936615,270.22665 C -41.032345,269.88014 -41.167295,269.55776 -41.306355,269.22856 C -41.465105,268.85272 -41.622375,268.53258 -41.836505,268.19 C -41.981255,267.95841 -42.121675,267.75802 -42.295055,267.54389 C -42.459595,267.34069 -42.635775,267.14288 -42.802775,266.94778 C -42.984515,266.73549 -43.127455,266.49246 -43.273145,266.25189 C -43.406825,266.03118 -43.530315,265.77769 -43.644435,265.54981 C -43.734105,265.37077 -43.969275,265.30667 -44.116005,265.19684 C -44.190135,265.14134 -44.569515,265.00532 -44.666715,264.96428 C -44.896645,264.86718 -45.162985,264.80536 -45.400395,264.73236 C -45.641765,264.65815 -45.909815,264.4454 -46.124035,264.31578 C -46.427195,264.13233 -46.678705,263.96778 -46.955575,263.74716 C -47.174595,263.57265 -47.441205,263.46325 -47.690675,263.32769 C -47.988045,263.1661 -48.218075,262.97325 -48.472675,262.75597 C -48.656785,262.59888 -48.855025,262.50647 -49.058845,262.37407 C -49.287035,262.22583 -49.618375,262.2511 -49.872005,262.21571 C -50.102235,262.18358 -50.399185,262.30215 -50.625745,262.35314 C -50.888285,262.4122 -50.724055,262.92172 -50.719105,263.10958 C -50.701965,263.76176 -50.761165,263.48106 -51.095225,263.77909 C -51.325095,263.98416 -52.218185,263.26057 -52.373275,263.14462 C -52.638385,262.9464 -52.859195,262.53811 -53.069805,262.28247 C -53.375305,261.91169 -53.831535,261.60618 -54.216915,261.32223 C -54.552945,261.07467 -54.917705,260.85305 -55.274275,260.63424 C -55.646915,260.40558 -55.987765,260.31383 -56.409705,260.20736 C -56.828695,260.10165 -57.158135,259.96586 -57.529965,259.7687 C -57.957645,259.54195 -57.253425,259.26856 -57.099915,259.17521 C -56.700955,258.93257 -56.709545,258.90062 -56.537125,258.4904 C -56.437555,258.25353 -56.871165,257.79442 -56.989695,257.6274 C -57.154035,257.39586 -57.257255,257.18254 -57.425325,256.98709 C -57.697675,256.67038 -58.634405,257.00405 -58.934245,257.07438 C -59.264585,257.15185 -59.566875,257.25108 -59.885045,257.36487 C -60.248045,257.4947 -60.525095,257.54902 -60.916415,257.58825 C -61.429575,257.63972 -62.054265,257.41438 -62.561255,257.34484 C -62.928995,257.29441 -63.286675,257.26552 -63.652405,257.22553 C -64.059765,257.18099 -64.544905,257.3186 -64.974645,257.29752 C -65.399905,257.27666 -65.799205,257.15664 -66.207715,257.0644 C -66.519495,256.99401 -66.755245,256.64898 -66.963465,256.43691 C -67.147535,256.24944 -67.343635,256.09283 -67.481575,255.97858 C -67.535635,255.93382 -68.230535,256.42052 -68.312665,256.47089 C -68.530825,256.60468 -68.828045,256.70213 -69.026905,256.78988 C -69.259765,256.89264 -68.838035,256.80945 -68.585065,256.78147"
         style="fill:none;fill-opacity:0.75;fill-rule:evenodd;stroke:#444444;stroke-width:0.62500006;stroke-linecap:butt;stroke-linejoin:miter;marker:none;marker-start:none;marker-mid:none;marker-end:none;stroke-miterlimit:4;stroke-dasharray:none;stroke-dashoffset:0;stroke-opacity:1;visibility:visible;display:inline;overflow:visible;enable-background:accumulate" />
      <path
         id="path5224"
         d="M -68.884545,253.95538 C -69.722555,254.32518 -68.945275,252.51638 -68.900015,252.42268 C -68.724885,252.06004 -68.598415,251.67593 -68.447265,251.3045 C -68.331515,251.02005 -68.250185,250.73397 -68.156485,250.44185 C -68.106805,250.28701 -67.010635,250.65297 -66.877585,250.68654 C -66.479225,250.78705 -66.098865,250.98462 -65.704075,251.10743 C -65.481685,251.17661 -65.268855,251.19626 -65.039865,251.22822 C -64.729935,251.27147 -64.367675,251.17977 -64.056955,251.14861 C -63.696455,251.11247 -63.656105,250.75761 -63.528195,250.50202 C -63.402835,250.25155 -63.644715,249.876 -63.729035,249.65574 C -63.848865,249.34279 -64.025995,249.21178 -64.237485,248.96585 C -64.432555,248.739 -64.572105,248.49757 -64.730755,248.26419 C -64.972055,247.9092 -64.069965,247.88271 -63.948485,247.86876 C -63.619475,247.83095 -63.329975,247.85691 -62.988495,247.78337 C -62.693865,247.71992 -62.450015,247.49415 -62.214335,247.3235 C -61.937035,247.12272 -61.870815,246.90973 -61.517395,246.73495 C -61.258635,246.60697 -60.748035,246.65609 -60.447235,246.59935 C -60.132085,246.53991 -59.842025,246.35337 -59.558125,246.21528 C -59.292115,246.08589 -59.130085,246.03989 -58.885315,245.96383 C -58.680555,245.90021 -58.219095,246.18201 -58.032995,246.25689 C -57.752725,246.36963 -57.493445,246.5235 -57.233195,246.66149 C -56.947545,246.81294 -56.614165,246.9162 -56.322875,247.06277 C -55.983365,247.23361 -55.614525,247.34503 -55.252505,247.45764 C -54.918885,247.56142 -54.600055,247.61889 -54.259695,247.67693 C -53.853105,247.7463 -53.748525,247.47414 -53.504045,247.2904 C -53.333155,247.16197 -53.671865,246.49959 -53.728515,246.34455 C -53.845135,246.02539 -54.037265,245.76919 -54.234315,245.49932 C -54.415035,245.25185 -54.349585,244.84249 -54.374905,244.55905 C -54.406575,244.20432 -54.476615,244.00626 -54.610125,243.7041 C -54.666515,243.57644 -55.040175,244.18385 -55.108935,244.28024 C -55.316025,244.57061 -55.441235,244.83151 -55.563465,245.16396 C -55.696125,245.52475 -56.027425,245.74997 -56.281545,245.98119 C -56.483865,246.16528 -56.908575,246.09844 -57.153565,246.10436 C -57.578345,246.11467 -57.391825,245.81179 -57.500525,245.59563 C -57.566405,245.46464 -57.644675,244.97511 -57.681455,244.86357 C -57.758205,244.63075 -58.635075,244.87023 -58.775225,244.8996 C -59.043775,244.95587 -59.316775,244.9682 -59.582565,245.0079 C -60.086465,245.08316 -60.000435,244.78291 -60.173475,244.5 C -60.264065,244.35192 -60.142965,243.91315 -60.129655,243.74666 C -60.085625,243.19619 -60.058635,243.37431 -59.803785,242.98647 C -59.738775,242.88754 -58.870665,242.52104 -58.687665,242.37888 C -58.508075,242.23937 -58.531015,241.68952 -58.511465,241.48733 C -58.466685,241.02425 -58.370405,241.02783 -58.044395,240.74716 C -57.699445,240.45019 -56.906065,240.5243 -56.494785,240.49855 C -55.906965,240.46173 -55.711895,240.45263 -55.197385,240.66989 C -54.818205,240.83001 -54.566945,241.17012 -54.310825,241.45518 C -54.088415,241.70274 -53.823925,241.91577 -53.581335,242.13846 C -53.326485,242.37239 -52.880415,242.41034 -52.557145,242.47487 C -52.135735,242.55897 -51.722035,242.5218 -51.298895,242.51154 C -50.976595,242.50373 -50.658615,242.38478 -50.366595,242.29436 C -50.022725,242.1879 -50.373565,242.28454 -50.393575,242.25636"
         style="fill:none;fill-opacity:0.75;fill-rule:evenodd;stroke:#444444;stroke-width:0.62500006;stroke-linecap:butt;stroke-linejoin:miter;marker:none;marker-start:none;marker-mid:none;marker-end:none;stroke-miterlimit:4;stroke-dasharray:none;stroke-dashoffset:0;stroke-opacity:1;visibility:visible;display:inline;overflow:visible;enable-background:accumulate" />
      <path
         id="path5226"
         d="M -68.019125,254.96934 C -67.633145,254.84984 -67.317025,255.44293 -66.913655,255.46667 C -66.637935,255.4829 -66.315195,255.38419 -66.041635,255.34349 C -65.768465,255.30284 -65.503575,255.32264 -65.233595,255.32898 C -64.987015,255.33475 -64.699055,255.47456 -64.473295,255.552 C -64.186155,255.6505 -63.985705,255.27749 -63.817065,255.12478 C -63.565065,254.89658 -63.420565,254.67373 -63.204745,254.43686 C -63.061005,254.27911 -63.217665,253.77497 -63.245525,253.58416 C -63.285755,253.30876 -62.691185,253.1051 -62.514215,253.00429 C -62.237315,252.84653 -61.938105,252.72364 -61.652085,252.5822 C -61.526315,252.52 -61.061755,252.44928 -60.921625,252.3921 C -60.669165,252.28912 -60.654895,251.91627 -60.511485,251.68437 C -60.413395,251.52578 -59.897005,252.12083 -59.832965,252.18318 C -59.602005,252.40805 -59.475465,252.47604 -59.200625,252.62353 C -58.850615,252.81136 -58.413105,252.60675 -58.076885,252.51706 C -57.857695,252.4586 -57.653705,252.35342 -57.442135,252.27161 C -57.156945,252.16133 -57.268435,252.85929 -57.149605,253.14102 C -57.046365,253.38585 -56.959335,253.61634 -56.843005,253.85799 C -56.711745,254.13065 -56.498035,254.25367 -56.285745,254.451 C -56.073485,254.6483 -55.742965,254.80579 -55.504095,254.97582 C -55.242525,255.16203 -55.063885,255.32408 -54.844075,255.54795 C -54.646355,255.74932 -54.541495,255.87487 -54.374785,256.10316 C -54.198275,256.34489 -54.143315,256.69837 -54.059345,256.97836 C -53.975055,257.25944 -53.951265,257.55109 -53.911735,257.8424 C -53.899435,257.93301 -53.434775,257.37722 -53.389655,257.31893 C -53.180685,257.04902 -53.213415,256.87711 -53.162855,256.56495 C -53.060255,255.93144 -53.208035,256.67117 -53.102925,256.42406 C -53.100135,256.41751 -52.521085,256.68222 -52.456515,256.71197 C -52.207985,256.82646 -52.474375,256.15265 -52.580845,255.9006 C -52.690145,255.64184 -52.995645,255.5459 -53.198375,255.40157 C -53.392265,255.26356 -53.568555,255.1172 -53.746805,254.9668 C -53.996485,254.75614 -54.228555,254.51298 -54.464835,254.28642 C -54.748455,254.0145 -54.858625,253.75647 -55.009085,253.4003 C -55.334215,252.63059 -54.936585,253.22305 -54.818215,252.93365 C -54.666345,252.56234 -53.476845,253.64296 -53.363155,253.78438 C -53.150375,254.04912 -52.979175,254.34652 -52.781205,254.61763 C -52.581045,254.89175 -52.364085,255.13841 -52.176685,255.40977 C -52.009605,255.6517 -51.912755,255.89127 -51.805025,256.15874 C -51.683875,256.45959 -51.650245,256.78068 -51.576855,257.08991 C -51.507915,257.38044 -51.370425,257.69536 -51.242205,257.98556 C -51.176405,258.1345 -50.885045,258.38477 -50.796185,258.4881 C -50.668715,258.63634 -50.629315,259.35971 -50.570645,259.57462 C -50.483145,259.89504 -50.229695,259.95038 -49.998565,260.10895 C -49.653975,260.3454 -49.683665,260.01675 -49.447745,259.85793 C -49.184885,259.68099 -49.380385,259.26358 -49.404265,259.05769 C -49.426795,258.86356 -49.121265,258.78673 -48.965025,258.66932 C -48.762495,258.51712 -49.500865,258.03354 -49.561065,257.98853 C -49.798165,257.81125 -49.833445,257.68003 -49.968645,257.52688 C -50.135905,257.33745 -49.261155,257.38366 -49.165385,257.38636 C -48.915675,257.39339 -48.722995,257.18829 -48.527295,257.07936 C -48.228195,256.91286 -48.030755,257.32518 -47.887915,257.44348 C -47.845975,257.47819 -48.120465,258.15239 -48.148735,258.23567 C -48.278275,258.61747 -48.205645,258.80309 -48.114985,259.1646 C -48.061455,259.37798 -47.691705,259.68015 -47.545545,259.85427 C -47.348035,260.0896 -47.182455,260.24665 -46.950215,260.44129 C -46.716985,260.63678 -46.332115,260.70606 -46.055415,260.80746 C -45.848325,260.88335 -45.635565,260.95782 -45.428565,261.02803 C -45.390095,261.04108 -45.058665,260.78035 -44.988605,260.73343 C -44.794875,260.6037 -44.298045,261.06703 -44.169585,261.15848 C -43.919915,261.3362 -43.689705,261.36551 -43.416335,261.45773 C -43.322445,261.48941 -42.818635,261.13537 -42.710215,261.07429 C -42.333655,260.86215 -42.203315,261.37647 -42.077515,261.56153 C -41.856155,261.8872 -41.998285,262.18005 -42.051165,262.51978 C -42.085535,262.74061 -42.352015,263.10288 -42.456885,263.30663 C -42.652685,263.687 -42.736285,264.18363 -42.866435,264.5917 C -42.952025,264.86 -43.015945,265.13593 -43.085125,265.41014 C -43.096625,265.45569 -42.559655,265.97575 -42.500895,266.04115 C -42.248005,266.32262 -42.159575,266.78571 -42.027685,267.11215 C -41.876095,267.48737 -41.716095,267.83831 -41.588485,268.22136 C -41.410535,268.75549 -41.208325,269.27428 -41.054055,269.82263 C -40.915875,270.31377 -40.887455,270.7989 -40.730295,271.29273 C -40.580745,271.76257 -40.257965,272.2157 -40.079355,272.67377 C -39.955585,272.99119 -39.875985,273.34332 -39.793535,273.66629 C -39.679545,274.11277 -39.522835,274.55264 -39.371775,274.98952 C -39.239805,275.37119 -39.149695,275.76074 -38.993205,276.14584 C -38.858985,276.47614 -38.735405,276.78915 -38.589445,277.10573 C -38.412105,277.49036 -38.304045,277.88466 -38.206835,278.29427 C -38.113195,278.6888 -37.908745,279.08412 -37.744365,279.45616 C -37.569205,279.85257 -37.419205,280.24502 -37.277835,280.65029 C -37.174235,280.94725 -37.088285,281.20951 -37.023385,281.5257 C -36.928015,281.99041 -36.496345,281.71563 -36.122965,281.62808 C -35.844315,281.56274 -35.543495,281.32656 -35.283745,281.20021 C -35.051805,281.08739 -34.799615,280.81234 -34.597915,280.65566 C -34.350795,280.46369 -34.037105,280.32773 -33.766825,280.16336 C -33.461435,279.97762 -33.279475,279.66587 -33.082765,279.38433 C -32.862725,279.0694 -32.950795,278.75041 -32.949045,278.41967 C -32.949015,278.41222 -32.337875,277.94628 -32.282065,277.90155 C -31.989075,277.66665 -31.902875,276.93002 -31.819285,276.5987 C -31.674575,276.02519 -31.690055,275.35931 -31.650225,274.76935 C -31.626635,274.42023 -31.657175,274.04441 -31.662115,273.70553 C -31.665425,273.47867 -32.506215,273.55679 -32.612435,273.55936 C -33.031425,273.56952 -32.954535,273.13276 -32.995185,272.85438 C -33.039645,272.54995 -32.979455,272.16217 -32.976055,271.86081 C -32.973405,271.62545 -33.615315,272.91117 -33.758955,273.17647 C -34.014755,273.64891 -34.109125,273.22932 -34.309315,272.99082 C -34.505815,272.75669 -34.386825,272.12895 -34.378855,271.86565 C -34.368845,271.53496 -34.383595,271.21862 -34.412965,270.88985 C -34.453035,270.44118 -35.174225,270.88416 -35.289405,270.93391 C -35.357785,270.96345 -35.560745,269.71843 -35.589535,269.56337 C -35.643965,269.27037 -35.771335,268.98684 -35.859135,268.69975 C -36.024965,268.15758 -35.090595,269.46171 -34.971505,269.62571 C -34.701955,269.99692 -34.489235,270.41176 -34.242155,270.79254 C -34.053295,271.08362 -33.808685,271.34552 -33.580345,271.59913 C -33.378155,271.82371 -33.082225,272.00083 -32.840125,272.1915 C -32.706095,272.29706 -32.272225,272.2569 -32.103815,272.26809 C -31.665325,272.29719 -31.410975,272.85734 -31.223945,273.17649 C -31.034735,273.49935 -30.944385,273.80561 -30.823895,274.15104 C -30.646265,274.66019 -30.510045,275.17305 -30.423265,275.70293 C -30.365045,276.05834 -30.362635,276.42627 -30.331145,276.78697 C -30.296045,277.18926 -30.222775,277.57261 -30.154425,277.97038 C -30.060865,278.51476 -29.788315,279.10352 -29.608185,279.62141 C -29.517605,279.8818 -29.458615,280.16777 -29.373315,280.42948 C -29.251375,280.80355 -29.220725,281.21928 -29.108965,281.60378 C -29.002515,281.97002 -28.961375,282.35198 -28.864205,282.71075 C -28.801895,282.94079 -29.075235,282.49961 -29.156145,282.41868"
         style="fill:none;fill-opacity:0.75;fill-rule:evenodd;stroke:#444444;stroke-width:0.62500006;stroke-linecap:butt;stroke-linejoin:miter;marker:none;marker-start:none;marker-mid:none;marker-end:none;stroke-miterlimit:4;stroke-dasharray:none;stroke-dashoffset:0;stroke-opacity:1;visibility:visible;display:inline;overflow:visible;enable-background:accumulate" />
      <path
         id="path5228"
         d="M -46.784265,255.19472 C -46.694985,255.52438 -47.143255,256.34656 -47.298155,256.79668 C -47.457015,257.25835 -47.145325,257.37327 -46.876245,257.63633 C -46.645215,257.86219 -46.092135,257.79602 -45.811355,257.81143 C -45.607975,257.82257 -45.177695,257.57976 -44.967375,257.50956 C -44.645655,257.40217 -44.263515,257.55495 -43.960135,257.6233 C -43.437095,257.74112 -43.166515,258.12347 -42.855515,258.51042 C -42.565025,258.87182 -42.258145,258.95455 -41.856155,259.09017 C -41.586645,259.18109 -41.657715,257.83871 -41.672065,257.7326 C -41.746185,257.18425 -42.274925,256.78112 -42.657545,256.46994 C -42.890525,256.28047 -43.201965,256.2465 -43.479545,256.15334 C -43.829875,256.03576 -44.283725,256.13101 -44.646145,256.1398 C -45.003315,256.14846 -45.288245,255.99155 -45.601235,255.86762 C -45.825305,255.7789 -45.983665,255.22873 -46.084115,255.02817 C -46.191545,254.81368 -46.553945,255.12764 -46.784265,255.19472 z"
         style="fill:none;fill-opacity:0.75;fill-rule:evenodd;stroke:#444444;stroke-width:0.62500006;stroke-linecap:butt;stroke-linejoin:miter;marker:none;marker-start:none;marker-mid:none;marker-end:none;stroke-miterlimit:4;stroke-dasharray:none;stroke-dashoffset:0;stroke-opacity:1;visibility:visible;display:inline;overflow:visible;enable-background:accumulate" />
      <path
         id="path5230"
         d="M -39.718155,256.50959 C -39.870545,256.20531 -40.035985,257.79064 -40.023865,257.91447 C -39.992975,258.23036 -39.674755,258.66234 -39.528095,258.94436 C -39.271965,259.43686 -39.017205,259.88951 -38.697895,260.33944 C -38.420175,260.73074 -38.274555,260.98171 -38.121565,261.43645 C -37.996975,261.80675 -37.853175,262.17248 -37.716735,262.53701 C -37.600025,262.84882 -37.391625,263.08165 -37.188365,263.34112 C -36.958825,263.63415 -36.626305,262.90378 -36.570925,262.82611 C -36.330165,262.48856 -36.679065,261.99099 -36.823435,261.70159 C -37.144755,261.05753 -37.535295,260.4818 -37.988065,259.94133 C -38.215205,259.6702 -38.131895,259.06699 -38.138185,258.74905 C -38.147905,258.25701 -38.230005,257.91909 -38.426145,257.47518 C -38.570405,257.14868 -38.760845,256.92648 -38.988885,256.66238 C -39.235735,256.37652 -39.119825,256.49837 -39.718155,256.50959 z"
         style="fill:none;fill-opacity:0.75;fill-rule:evenodd;stroke:#444444;stroke-width:0.62500006;stroke-linecap:butt;stroke-linejoin:miter;marker:none;marker-start:none;marker-mid:none;marker-end:none;stroke-miterlimit:4;stroke-dasharray:none;stroke-dashoffset:0;stroke-opacity:1;visibility:visible;display:inline;overflow:visible;enable-background:accumulate" />
      <path
         id="path5232"
         d="M -65.982095,244.62563 C -66.298285,244.25947 -66.867665,244.52481 -67.217445,244.59474 C -67.522995,244.65583 -67.328065,245.17426 -67.314505,245.36586 C -67.283455,245.80456 -67.209255,245.62568 -67.028185,245.9217 C -66.921595,246.09596 -66.186605,245.99206 -66.009835,245.99145 C -65.598815,245.99002 -65.645975,245.73981 -65.460785,245.50598 C -65.249025,245.23863 -65.762495,244.88656 -65.982095,244.62563 z"
         style="fill:none;fill-opacity:0.75;fill-rule:evenodd;stroke:#444444;stroke-width:0.62500006;stroke-linecap:butt;stroke-linejoin:miter;marker:none;marker-start:none;marker-mid:none;marker-end:none;stroke-miterlimit:4;stroke-dasharray:none;stroke-dashoffset:0;stroke-opacity:1;visibility:visible;display:inline;overflow:visible;enable-background:accumulate" />
      <path
         id="path5234"
         d="M -65.007755,243.42066 C -64.725365,243.06412 -64.809025,244.31344 -64.631825,244.73232 C -64.510325,245.01952 -64.408395,245.33013 -64.282015,245.61618 C -64.112905,245.99893 -64.358715,246.18151 -64.519565,246.46107 C -64.703055,246.77997 -64.863765,246.93632 -64.989605,247.30967 C -65.109155,247.6643 -64.541295,247.64482 -64.403455,247.69156 C -64.181895,247.76671 -63.596895,247.47467 -63.368745,247.40662 C -63.118345,247.33195 -62.880405,247.16206 -62.654875,247.04075 C -62.314135,246.85746 -62.476335,246.59597 -62.492755,246.30164 C -62.503445,246.10998 -62.996695,245.63876 -63.124255,245.47151 C -63.253945,245.30143 -63.516495,245.12176 -63.673395,244.94295 C -63.887645,244.69876 -63.859975,244.45186 -63.919365,244.17888 C -64.001255,243.80247 -64.041565,243.83651 -64.354635,243.58545 C -64.363085,243.57868 -64.367205,243.60308 -64.373495,243.61189"
         style="fill:none;fill-opacity:0.75;fill-rule:evenodd;stroke:#444444;stroke-width:0.62500006;stroke-linecap:butt;stroke-linejoin:miter;marker:none;marker-start:none;marker-mid:none;marker-end:none;stroke-miterlimit:4;stroke-dasharray:none;stroke-dashoffset:0;stroke-opacity:1;visibility:visible;display:inline;overflow:visible;enable-background:accumulate" />
      <path
         id="path5236"
         d="M -39.961805,303.17046 C -40.127575,303.03752 -39.992975,302.7466 -40.008565,302.53466 C -40.053035,301.93015 -40.321925,303.27921 -40.806135,303.42543 C -40.977135,303.47708 -41.352045,304.28865 -41.465485,304.44468 C -41.722535,304.7982 -42.075305,305.02292 -42.443055,305.22764 C -42.785705,305.41838 -43.077095,305.41012 -43.455555,305.42457 C -43.725375,305.43488 -43.953705,305.47267 -44.209655,305.51511 C -44.380765,305.54348 -44.500595,306.34305 -44.541485,306.49218 C -44.635745,306.8358 -44.774795,307.16047 -44.903655,307.49282 C -45.038845,307.84148 -45.372535,308.0948 -45.629135,308.33937 C -45.903015,308.60043 -46.227145,308.79616 -46.539015,308.99901 C -46.847785,309.19984 -46.975705,309.46612 -47.169835,309.76025 C -47.321825,309.99053 -47.373335,310.25327 -47.457625,310.51445 C -47.563685,310.84309 -47.508595,311.08676 -47.508145,311.3909 C -47.507655,311.7205 -46.960915,311.6353 -46.808495,311.66104 C -46.417435,311.72709 -46.021085,311.39746 -45.729355,311.20011 C -45.407755,310.98253 -45.139215,310.53863 -44.901835,310.23889 C -44.612235,309.87323 -44.436885,309.36788 -44.213945,308.96165 C -43.987345,308.54873 -43.634455,308.16472 -43.346065,307.79221 C -42.939335,307.26684 -42.514965,306.74347 -42.169035,306.17039 C -41.877305,305.68709 -41.530345,305.20855 -41.200175,304.74562 C -40.754355,304.12056 -39.975525,303.10962 -40.099865,302.55843 C -40.150915,302.33217 -39.986385,302.10866 -39.929655,301.88377"
         style="fill:none;fill-opacity:0.75;fill-rule:evenodd;stroke:#444444;stroke-width:0.62500006;stroke-linecap:butt;stroke-linejoin:miter;marker:none;marker-start:none;marker-mid:none;marker-end:none;stroke-miterlimit:4;stroke-dasharray:none;stroke-dashoffset:0;stroke-opacity:1;visibility:visible;display:inline;overflow:visible;enable-background:accumulate" />
      <path
         id="path5238"
         d="M -74.501105,234.72293 C -74.051685,234.78131 -75.426785,234.94612 -75.747325,235.2665 C -75.982675,235.50171 -76.271785,235.66301 -76.539635,235.84658 C -76.805025,236.02848 -77.004625,236.12681 -77.310455,236.24491 C -77.570175,236.34519 -77.894705,236.37624 -78.162905,236.43543 C -78.485695,236.50665 -78.818125,236.82937 -79.107875,236.9926 C -79.391445,237.15238 -79.667665,237.30294 -79.954485,237.4498 C -80.240335,237.59616 -80.148435,238.07356 -80.165415,238.28579 C -80.194635,238.65122 -79.739865,238.83046 -79.561605,238.98414 C -79.442845,239.08653 -78.818225,238.68598 -78.691365,238.62651 C -78.187415,238.39028 -77.676165,238.15198 -77.171935,237.91787 C -76.773815,237.73302 -76.328295,237.63286 -75.909485,237.5032 C -75.500135,237.37647 -75.176105,237.21116 -74.753505,237.12406 C -74.324945,237.03574 -73.911735,237.01824 -73.477465,236.99362 C -72.931515,236.96268 -72.325505,237.20627 -71.797525,237.33949 C -71.436535,237.43057 -71.082825,237.50384 -70.720815,237.56435 C -70.355105,237.62549 -70.148695,237.47786 -69.834345,237.33561 C -69.438555,237.15651 -69.500035,236.9931 -69.355455,236.64524 C -69.185265,236.23573 -68.439895,236.36657 -68.061625,236.34769 C -67.653755,236.32732 -67.026975,236.55432 -66.603455,236.60639 C -66.147565,236.66244 -65.714685,236.61337 -65.254255,236.57242 C -64.767795,236.52915 -64.271755,236.9177 -63.873785,237.13912 C -63.494315,237.35027 -63.133345,237.63958 -62.751375,237.85912 C -62.494405,238.00681 -62.293835,238.14198 -62.012565,238.26394 C -61.702915,238.39821 -61.290005,238.35323 -60.963555,238.35702 C -60.249015,238.36532 -60.560895,238.2142 -60.310295,238.03823 C -60.160805,237.93326 -60.417155,237.68888 -60.470585,237.51418 C -60.627895,236.99985 -59.486695,237.95067 -58.982935,238.13914 C -58.360815,238.37189 -58.836015,238.33287 -58.763445,238.42852"
         style="fill:none;fill-opacity:0.75;fill-rule:evenodd;stroke:#444444;stroke-width:0.62500006;stroke-linecap:butt;stroke-linejoin:miter;marker:none;marker-start:none;marker-mid:none;marker-end:none;stroke-miterlimit:4;stroke-dasharray:none;stroke-dashoffset:0;stroke-opacity:1;visibility:visible;display:inline;overflow:visible;enable-background:accumulate" />
      <path
         id="path5240"
         d="M -68.411655,238.94258 C -68.061145,239.07372 -69.123485,238.68382 -69.496495,238.65326 C -70.020065,238.61039 -69.507275,238.63808 -69.793195,238.2352 C -69.984625,237.96547 -70.572265,238.36689 -70.748415,238.4466 C -71.255595,238.67611 -70.941405,238.91356 -70.929385,239.21214 C -70.922935,239.37214 -70.108705,239.44283 -70.016425,239.45809 C -69.646115,239.51932 -69.436565,239.69314 -69.143825,239.91227 C -68.882045,240.10822 -68.629775,240.22295 -68.343675,240.36375 C -68.063845,240.50147 -67.772635,240.22484 -67.552565,240.12655 C -67.200745,239.96942 -67.631525,239.3168 -67.720115,239.14827 C -67.858335,238.88537 -68.109335,238.9782 -68.411655,238.94258 z"
         style="fill:none;fill-opacity:0.75;fill-rule:evenodd;stroke:#444444;stroke-width:0.62500006;stroke-linecap:butt;stroke-linejoin:miter;marker:none;marker-start:none;marker-mid:none;marker-end:none;stroke-miterlimit:4;stroke-dasharray:none;stroke-dashoffset:0;stroke-opacity:1;visibility:visible;display:inline;overflow:visible;enable-background:accumulate" />
      <path
         id="path5242"
         d="M -57.700005,254.45297 C -58.005175,253.87247 -58.170785,255.40169 -58.160515,255.55358 C -58.136455,255.90938 -57.653465,255.75745 -57.487845,255.7857 C -57.181075,255.83803 -57.211235,255.26908 -57.176415,255.13107 C -57.106545,254.85418 -57.502425,254.65916 -57.700005,254.45297 z"
         style="fill:none;fill-opacity:0.75;fill-rule:evenodd;stroke:#444444;stroke-width:0.62500006;stroke-linecap:butt;stroke-linejoin:miter;marker:none;marker-start:none;marker-mid:none;marker-end:none;stroke-miterlimit:4;stroke-dasharray:none;stroke-dashoffset:0;stroke-opacity:1;visibility:visible;display:inline;overflow:visible;enable-background:accumulate" />
      <path
         id="path5244"
         d="M -54.539305,257.52807 C -54.480925,257.29673 -55.014185,257.57465 -55.251625,257.59794 C -55.830425,257.65471 -54.153375,258.13411 -53.840985,258.62466 C -53.608205,258.9902 -54.234075,257.83569 -54.539305,257.52807 z"
         style="fill:none;fill-opacity:0.75;fill-rule:evenodd;stroke:#444444;stroke-width:0.62500006;stroke-linecap:butt;stroke-linejoin:miter;marker:none;marker-start:none;marker-mid:none;marker-end:none;stroke-miterlimit:4;stroke-dasharray:none;stroke-dashoffset:0;stroke-opacity:1;visibility:visible;display:inline;overflow:visible;enable-background:accumulate" />
      <path
         id="path5246"
         d="M -68.652385,253.8985 C -68.449445,253.9609 -68.246515,254.0233 -68.043585,254.08569 C -67.702655,254.19053 -67.816545,254.55413 -67.807825,254.86733 C -67.803085,255.0376 -67.827595,255.23121 -67.836625,255.39749"
         style="fill:none;fill-opacity:0.75;fill-rule:evenodd;stroke:#444444;stroke-width:0.62500006;stroke-linecap:butt;stroke-linejoin:miter;marker:none;marker-start:none;marker-mid:none;marker-end:none;stroke-miterlimit:4;stroke-dasharray:none;stroke-dashoffset:0;stroke-opacity:1;visibility:visible;display:inline;overflow:visible;enable-background:accumulate" />
      <path
         id="path5248"
         d="M -121.2308,284.72703 C -121.1872,284.9241 -121.14361,285.12117 -121.10001,285.31825 C -121.03757,285.6005 -121.07116,285.94385 -121.05501,286.23237 C -121.03732,286.54827 -121.13921,286.86165 -121.19876,287.1652 C -121.25588,287.45636 -121.37431,287.75943 -121.4463,288.05529 C -121.51538,288.33919 -121.45411,288.70511 -121.45676,288.99479 C -121.45916,289.25743 -121.3954,289.54502 -121.38137,289.8112 C -121.36541,290.11404 -121.3257,290.41618 -121.28985,290.71693 C -121.2436,291.10496 -121.1372,291.48 -121.03635,291.85468 C -120.94273,292.20251 -120.85016,292.5455 -120.76408,292.89684 C -120.66002,293.32159 -120.58632,293.67734 -120.41842,294.07946 C -120.25093,294.48056 -120.09608,294.87447 -119.96002,295.28781 C -119.79528,295.78831 -119.4458,296.18464 -119.15539,296.61809 C -118.86285,297.05471 -118.63557,297.51646 -118.35969,297.96536 C -118.06273,298.44856 -117.77851,298.95478 -117.50223,299.45517 C -117.24714,299.91719 -116.98929,300.34625 -116.77362,300.82992 C -116.61701,301.18115 -116.36815,301.49614 -116.15248,301.80907 C -115.89587,302.18141 -115.71089,302.13209 -115.35796,302.21894 C -115.11116,302.27967 -114.77053,302.23422 -114.5036,302.2952 C -114.09331,302.38895 -114.08615,302.57098 -113.92103,302.92779 C -113.69922,303.4071 -113.4521,303.84593 -113.28008,304.34912 C -113.07835,304.93915 -112.81468,305.47765 -112.52096,306.02578 C -112.22512,306.57785 -111.77637,307.03762 -111.44967,307.56921 C -111.13709,308.07781 -110.75557,308.56266 -110.39182,309.0382 C -109.96638,309.59441 -109.51854,310.10128 -109.06019,310.62684 C -108.55809,311.20256 -108.06938,311.76852 -107.60327,312.37729 C -107.17781,312.933 -106.72343,313.4778 -106.28684,314.01478 C -105.90244,314.48758 -105.58394,315.01417 -105.20305,315.49447 C -104.74952,316.06637 -104.4108,316.64518 -104.07443,317.28884 C -103.8115,317.79197 -103.52946,318.17591 -103.12399,318.56205 C -102.71989,318.94691 -102.09458,319.29757 -101.62254,319.62816 C -101.13891,319.96687 -100.66556,320.2659 -100.15691,320.5624 C -99.629595,320.86976 -99.190515,321.29294 -98.710915,321.65388 C -98.316255,321.95091 -97.971495,322.33512 -97.582535,322.64902 C -97.212955,322.9473 -96.842125,323.23175 -96.443465,323.50389 C -96.027365,323.78793 -95.586215,324.01303 -95.148775,324.22307 C -94.777235,324.40146 -94.524515,324.43197 -94.131545,324.46974 C -93.857595,324.49608 -93.536445,324.39301 -93.265615,324.3441 C -92.721805,324.2459 -93.883115,323.85273 -94.132655,323.73215 C -94.536425,323.53704 -94.829995,323.28687 -95.166135,322.99654 C -95.656825,322.57272 -96.169125,322.23139 -96.606805,321.73501 C -96.881495,321.42349 -96.951115,321.20061 -97.072265,320.81997 C -97.260695,320.22796 -97.203805,320.70623 -97.513415,320.43852 C -97.745405,320.23793 -98.126865,320.4837 -98.433055,320.46626 C -98.860685,320.44191 -98.885985,319.82008 -98.936085,319.54264 C -98.974115,319.33208 -98.841295,318.85029 -98.819155,318.66077 C -98.799385,318.49146 -99.832615,317.96581 -99.968045,317.88451 C -100.13813,317.78243 -100.20909,317.56939 -100.32961,317.41184 C -100.47943,317.21596 -99.852525,317.2604 -99.649795,317.11998 C -99.385285,316.93678 -99.957745,316.5544 -100.09288,316.26239 C -100.27807,315.86222 -99.967845,315.57852 -99.763055,315.29595 C -99.641085,315.12765 -99.314755,314.90593 -99.184405,314.77644 C -98.956755,314.55027 -99.259595,314.01332 -99.335885,313.80469 C -99.441305,313.51639 -99.806085,313.47065 -100.04901,313.38014 C -100.42991,313.23819 -100.85674,313.18938 -101.24517,313.07355 C -101.59547,312.96909 -101.92059,312.8259 -102.2544,312.67172 C -102.7059,312.46317 -101.16356,312.60692 -100.82933,312.58345 C -100.38691,312.55235 -99.717295,312.60522 -99.373815,312.59726 C -99.286485,312.59523 -99.412915,311.74351 -99.421505,311.66825 C -99.456535,311.36131 -99.593585,311.12779 -99.612305,310.8112 C -99.625855,310.58205 -99.413915,310.09674 -99.352265,309.85737 C -99.267195,309.52711 -99.480015,309.05776 -99.565505,308.74307 C -99.693345,308.27248 -99.227675,308.02045 -98.924385,307.70504 C -98.637395,307.4066 -99.125745,307.08877 -99.269935,306.92205 C -99.522315,306.63025 -99.956685,306.38973 -100.22651,306.08034 C -100.50912,305.75629 -100.35348,305.48999 -100.29746,305.15554 C -100.23415,304.7776 -99.542115,304.36736 -99.268075,304.13962 C -98.919925,303.85029 -98.556645,303.82669 -98.114155,303.74677 C -97.840585,303.69737 -97.566295,303.63247 -97.291185,303.58277 C -97.031135,303.53582 -96.775475,303.50607 -96.518285,303.47393 C -96.201655,303.4344 -96.297875,302.70759 -96.292245,302.46476 C -96.284815,302.14396 -96.352875,301.80238 -96.397205,301.48462 C -96.458025,301.04872 -96.503585,300.61404 -96.572935,300.17909 C -96.648155,299.70732 -96.459795,299.12309 -96.391775,298.65542 C -96.315615,298.13171 -96.528735,297.59876 -96.671355,297.10735 C -96.824025,296.58128 -97.343625,296.09567 -97.592335,295.59826 C -97.762655,295.25764 -97.461655,295.08469 -97.224885,294.84021 C -96.924455,294.53 -96.791415,294.33399 -96.623095,293.91689 C -96.419505,293.41236 -96.155425,292.97663 -95.999095,292.45157 C -95.825445,291.86831 -95.898545,291.06308 -95.866395,290.46015 C -95.839015,289.94673 -95.972265,289.37677 -95.976905,288.8508 C -95.981105,288.37539 -96.170575,288.51969 -96.486075,288.35867 C -96.809925,288.1934 -97.437705,289.03366 -97.605865,289.20646 C -97.970965,289.58165 -97.975205,289.36412 -98.225885,288.96492 C -98.420235,288.65543 -98.731195,288.46587 -99.013345,288.26172 C -99.302675,288.0524 -99.655005,288.08326 -100.01088,288.05761 C -100.34846,288.03328 -100.72717,287.90035 -101.06925,287.84911 C -101.45643,287.7911 -101.84062,287.71802 -102.22334,287.64252 C -102.44293,287.59919 -102.86768,287.71515 -103.09465,287.7384 C -103.36368,287.76593 -103.63422,287.58889 -103.87123,287.49437 C -104.22412,287.35363 -104.59012,287.07456 -104.90915,286.86715 C -105.26256,286.63741 -105.31468,286.64405 -105.70274,286.59547 C -105.90258,286.57044 -106.40833,287.28654 -106.55861,287.44172 C -106.64136,287.52716 -106.75506,286.68642 -106.79687,286.45491 C -106.82802,286.28241 -106.96455,286.14703 -107.04839,285.9931 C -107.18941,285.73416 -106.50939,286.28865 -106.21453,286.28825 C -106.13747,286.28814 -106.89583,285.60583 -106.99842,285.53831 C -107.22835,285.38701 -107.45373,285.10819 -107.67134,284.93741 C -107.94519,284.72248 -108.16772,284.47356 -108.40065,284.22373 C -108.66231,283.94307 -108.85164,283.43313 -109.02541,283.09153 C -109.18416,282.77944 -109.35188,282.54773 -109.54451,282.2784 C -109.69158,282.07278 -110.07503,282.21176 -110.27452,282.22579 C -110.52343,282.24327 -110.77394,282.3006 -111.02147,282.34531 C -111.30947,282.39732 -111.58106,282.4543 -111.87309,282.48373 C -112.22125,282.51884 -112.35509,282.24792 -112.58352,282.07406 C -112.78721,281.91903 -112.94927,281.39948 -113.08387,281.16532 C -113.30631,280.77833 -113.60524,280.43664 -113.84818,280.05831 C -114.07792,279.70056 -114.33023,279.36796 -114.59636,279.04063 C -114.87292,278.70048 -114.98829,278.91448 -115.29955,278.93706 C -115.52488,278.95341 -115.91363,279.58325 -116.05345,279.74953 C -116.27722,280.01562 -116.47722,279.88085 -116.72882,279.93297 C -116.84487,279.95701 -117.44498,279.64406 -117.59399,279.59736 C -117.8257,279.52474 -118.08267,279.45673 -118.29005,279.40028 C -118.41846,279.3653 -118.62653,279.0066 -118.68918,278.919 C -118.7927,278.77428 -119.01596,279.06 -119.17935,279.1305 C -119.43969,279.24282 -119.38256,278.60063 -119.50164,278.34331 C -119.63106,278.06366 -119.96231,278.64686 -120.01414,278.69717 C -120.19727,278.87486 -120.19877,279.34736 -120.25005,279.58516 C -120.31472,279.88499 -120.40295,280.14823 -120.49403,280.42851 C -120.5726,280.67025 -120.90174,280.9507 -121.0583,281.16061 C -121.19982,281.35036 -121.25501,281.56324 -121.33009,281.71693 C -121.39968,281.85937 -121.55367,281.94176 -121.66547,282.05417"
         style="fill:none;fill-opacity:0.75;fill-rule:evenodd;stroke:#444444;stroke-width:0.625;stroke-linecap:butt;stroke-linejoin:miter;stroke-miterlimit:4;stroke-dasharray:none;stroke-opacity:1" />
      <path
         id="path5250"
         d="M -122.20204,282.67367 C -122.64267,283.57558 -122.97225,282.83944 -123.16556,282.52489 C -123.37878,282.17797 -123.50067,281.72832 -123.66509,281.35471 C -123.84193,280.95289 -123.9787,280.53027 -124.11724,280.11447 C -124.23572,279.75883 -124.28618,279.44319 -124.32867,279.07671 C -124.36581,278.7563 -124.25765,278.37167 -124.29051,278.02461 C -124.32512,277.65912 -124.53655,277.3142 -124.68176,276.98857 C -124.79751,276.72897 -124.89631,276.49014 -124.99867,276.23114 C -125.03769,276.1324 -125.05181,276.02555 -125.07838,275.92275"
         style="fill:none;fill-opacity:0.75;fill-rule:evenodd;stroke:#444444;stroke-width:0.625;stroke-linecap:butt;stroke-linejoin:miter;stroke-miterlimit:4;stroke-dasharray:none;stroke-opacity:1" />
      <path
         id="path5252"
         d="M -121.85977,281.44369 C -121.98077,281.13753 -122.47899,280.64503 -122.66973,280.28344 C -122.84762,279.9462 -123.00793,279.62781 -123.16295,279.28119 C -123.31207,278.94776 -123.24737,278.65423 -123.2187,278.30753 C -123.18417,277.88987 -123.12482,277.47397 -123.08488,277.0537 C -123.05685,276.75871 -123.08892,276.50467 -123.11644,276.21401 C -123.15224,275.83596 -123.51509,275.65063 -123.77241,275.44097 C -124.05216,275.21305 -123.79427,274.58894 -123.73069,274.34212 C -123.60451,273.85228 -123.45355,273.37462 -123.3214,272.88483 C -123.22123,272.51362 -123.15951,272.1717 -123.1088,271.80123 C -123.01428,271.11063 -123.7588,271.70384 -123.77441,271.70624 C -123.93732,271.73128 -123.91477,272.963 -123.91623,273.11521 C -123.92029,273.53684 -124.06433,273.77047 -124.22905,274.10933 C -124.2688,274.19112 -124.32979,274.26074 -124.38017,274.33644"
         style="fill:none;fill-opacity:0.75;fill-rule:evenodd;stroke:#444444;stroke-width:0.625;stroke-linecap:butt;stroke-linejoin:miter;stroke-miterlimit:4;stroke-dasharray:none;stroke-opacity:1" />
      <path
         id="path5254"
         d="M -122.30318,270.41071 C -122.50274,270.82123 -121.36453,270.39079 -120.94246,270.56461 C -120.60337,270.70424 -120.44004,271.05009 -120.2516,271.33134 C -120.13372,271.50729 -119.83317,271.93056 -119.81396,271.95936 C -119.67114,272.17352 -119.89248,271.44637 -119.98594,271.20651 C -120.11154,270.8842 -120.46095,270.67084 -120.68574,270.45676 C -120.93949,270.21511 -121.2359,270.19179 -121.53303,270.08718 C -121.81036,269.98952 -122.13609,270.30442 -122.30318,270.41071 z"
         style="fill:none;fill-opacity:0.75;fill-rule:evenodd;stroke:#444444;stroke-width:0.625;stroke-linecap:butt;stroke-linejoin:miter;stroke-miterlimit:4;stroke-dasharray:none;stroke-opacity:1" />
      <path
         id="path5256"
         d="M -119.54882,273.09503 C -119.61266,273.07254 -118.56033,272.73206 -118.37165,272.69799 C -117.79253,272.5934 -118.32764,272.60425 -118.19821,272.32851 C -118.12802,272.17898 -118.69324,271.76833 -118.76915,271.69382 C -118.99244,271.47466 -119.39891,272.35043 -119.44077,272.42994 C -119.54539,272.62869 -119.51281,272.87333 -119.54882,273.09503 z"
         style="fill:none;fill-opacity:0.75;fill-rule:evenodd;stroke:#444444;stroke-width:0.625;stroke-linecap:butt;stroke-linejoin:miter;stroke-miterlimit:4;stroke-dasharray:none;stroke-opacity:1" />
      <path
         id="path5258"
         d="M -122.72307,266.29031 C -122.93084,266.68502 -122.04338,265.70401 -121.65606,265.4828 C -121.64646,265.47731 -121.43661,264.74195 -121.40671,264.66921 C -121.32876,264.47964 -121.1241,264.37226 -120.9828,264.22377 C -120.74205,263.97077 -121.18988,264.89105 -121.30724,265.21998 C -121.39846,265.47558 -121.28415,265.78253 -121.24349,266.03848 C -121.19084,266.36986 -121.20122,266.68424 -121.21099,267.01635 C -121.22156,267.37542 -121.10477,267.5841 -120.99693,267.86919 C -120.91629,268.08237 -120.48236,266.92869 -120.47567,266.89891 C -120.39114,266.52254 -120.46182,266.03693 -120.43757,265.64701 C -120.40987,265.20147 -120.51697,264.728 -120.58648,264.29053 C -120.64231,263.93911 -120.64752,263.6061 -120.65298,263.25733 C -120.65698,263.00212 -120.16907,262.64668 -120.00999,262.49564 C -119.76598,262.26393 -119.44307,262.0643 -119.19163,261.84062 C -118.91607,261.59545 -118.72483,261.26101 -118.53526,260.95353 C -118.34516,260.64519 -118.21288,260.39833 -118.08465,260.05751 C -117.97201,259.75814 -117.83403,259.47253 -117.72976,259.16339 C -117.61619,258.82667 -117.55856,258.46102 -117.47421,258.11815 C -117.3808,257.73842 -117.17391,257.44083 -116.98428,257.10742 C -116.75381,256.70221 -116.50074,256.39341 -116.17497,256.06976 C -115.88459,255.78127 -115.57734,255.54429 -115.24482,255.30232 C -114.78909,254.97069 -114.4258,254.59738 -113.92559,254.29554 C -113.46293,254.01636 -113.05677,253.6867 -112.58216,253.42273 C -112.2014,253.21093 -111.92814,252.93781 -111.52853,252.74058 C -111.25267,252.60442 -110.97747,252.47221 -110.69936,252.34491 C -110.49476,252.25124 -110.26939,252.04429 -110.04106,251.93397 C -109.80736,251.82106 -109.54071,251.76515 -109.29235,251.69116 C -109.03467,251.61441 -109.13689,251.20006 -109.11903,250.92207 C -109.09516,250.55062 -109.10212,250.17904 -109.05674,249.80412 C -108.99121,249.2628 -109.4923,249.84611 -109.68021,250.00895 C -110.01238,250.29681 -110.26253,250.52441 -110.52446,250.85309 C -110.60168,250.95 -109.94901,250.14034 -109.77418,249.88757 C -109.47936,249.46133 -109.01144,249.05389 -108.66345,248.65715 C -108.4426,248.40535 -108.26494,248.27042 -107.99715,248.09107 C -107.84419,247.98863 -107.55814,248.09926 -107.39419,248.10514 C -107.13643,248.11439 -106.88813,247.44365 -106.79953,247.27532 C -106.49641,246.69948 -106.86026,247.20447 -106.6626,247.43504 C -106.32858,247.82469 -106.52064,247.83877 -105.91279,247.92983 C -105.52341,247.98816 -104.96269,247.50921 -104.66859,247.3055 C -104.39249,247.11427 -104.21812,246.58073 -104.0713,246.29075 C -103.87414,245.90135 -104.19263,245.21527 -104.29091,244.80871 C -104.41583,244.29198 -104.50187,244.29008 -104.83059,244.01467 C -105.0161,243.85924 -105.65643,244.54845 -105.76168,244.64394 C -106.17873,245.02232 -106.48083,245.55226 -106.8679,245.96579 C -107.22546,246.34779 -107.60969,246.68879 -107.99388,247.04526 C -108.6944,247.69523 -108.31443,247.00558 -108.44835,246.98899 C -108.7847,246.94736 -108.32776,246.32197 -108.26883,245.98822"
         style="fill:none;fill-opacity:0.75;fill-rule:evenodd;stroke:#444444;stroke-width:0.625;stroke-linecap:butt;stroke-linejoin:miter;stroke-miterlimit:4;stroke-dasharray:none;stroke-opacity:1" />
      <path
         id="path5260"
         d="M -106.09137,249.06877 C -106.44058,249.02555 -106.16512,249.76865 -106.20199,250.11859 C -106.21088,250.203 -105.29354,249.85583 -105.25559,249.84009 C -105.03229,249.74747 -104.85344,249.43587 -104.70201,249.24824 C -104.40872,248.88487 -105.6555,248.9012 -106.09137,249.06877 z"
         style="fill:none;fill-opacity:0.75;fill-rule:evenodd;stroke:#444444;stroke-width:0.625;stroke-linecap:butt;stroke-linejoin:miter;stroke-miterlimit:4;stroke-dasharray:none;stroke-opacity:1" />
      <path
         id="path5262"
         d="M -113.84788,250.86919 C -113.57154,250.52683 -114.18336,251.70266 -114.47912,252.02841 C -114.79077,252.37164 -114.60393,251.4371 -114.60097,251.42022 C -114.54723,251.11384 -114.1142,251.0299 -113.84788,250.86919 z"
         style="fill:none;fill-opacity:0.75;fill-rule:evenodd;stroke:#444444;stroke-width:0.625;stroke-linecap:butt;stroke-linejoin:miter;stroke-miterlimit:4;stroke-dasharray:none;stroke-opacity:1" />
      <path
         id="path3104"
         d="M -122.09048,283.21816 C -122.05197,283.29715 -121.55131,283.98416 -121.31875,284.2702 C -121.13966,284.49047 -121.13869,284.89071 -121.06905,285.15174 C -121.03209,285.2903 -121.06897,285.43855 -121.06892,285.58197"
         style="fill:none;fill-opacity:0.75;fill-rule:evenodd;stroke:#444444;stroke-width:0.625;stroke-linecap:butt;stroke-linejoin:miter;marker:none;marker-start:none;marker-mid:none;marker-end:none;stroke-miterlimit:4;stroke-dasharray:none;stroke-dashoffset:0;stroke-opacity:1;visibility:visible;display:inline;overflow:visible;enable-background:accumulate" />
      <path
         sodipodi:open="true"
         sodipodi:end="10.576099"
         sodipodi:start="5.2728635"
         transform="matrix(0.9896206,-0.143705,0.143705,0.9896206,-39.209691,-12.628155)"
         d="M -77.378133,227.80228 A 8.8917046,3.7646332 0 1 1 -85.726283,227.55269"
         sodipodi:ry="3.7646332"
         sodipodi:rx="8.8917046"
         sodipodi:cy="230.99094"
         sodipodi:cx="-82.104858"
         id="path2408"
         style="fill:none;fill-opacity:1;stroke:#000000;stroke-width:1.25;stroke-miterlimit:4;stroke-dasharray:none;stroke-dashoffset:0;stroke-opacity:1"
         sodipodi:type="arc" />
      <path
         sodipodi:nodetypes="ccccc"
         id="path3958"
         d="M -81.316077,221.41801 L -85.188271,223.21069 L -82.391686,226.79605 L -82.82193,223.85606 L -81.316077,221.41801 z"
         style="fill:#000000;fill-rule:evenodd;stroke:none;stroke-width:1px;stroke-linecap:butt;stroke-linejoin:miter;stroke-opacity:1;fill-opacity:1" />
      <path
         id="path3960"
         d="M -87.734966,230.29052 L -87.557509,230.94711 L -87.096119,230.92937 L -86.368544,230.82289 L -85.80068,230.69867 L -85.80068,230.02433 L -87.734966,230.29052 z"
         style="fill:#ffffff;fill-rule:evenodd;stroke:none;stroke-width:1px;stroke-linecap:butt;stroke-linejoin:miter;stroke-opacity:1;fill-opacity:1" />
      <path
         sodipodi:nodetypes="ccccccc"
         id="path3964"
         d="M -87.415543,232.22481 L -86.812187,232.13608 L -86.17334,232.04735 L -85.729697,231.95862 L -85.321545,232.59746 L -87.84144,232.98787 L -87.415543,232.22481 z"
         style="fill:#ffffff;fill-rule:evenodd;stroke:none;stroke-width:1px;stroke-linecap:butt;stroke-linejoin:miter;stroke-opacity:1;fill-opacity:1" />
    </g>
    <path
       style="fill:#606060;fill-opacity:1;fill-rule:evenodd;stroke:#000000;stroke-width:0.61763918;stroke-linecap:butt;stroke-linejoin:miter;stroke-miterlimit:4;stroke-dasharray:none;stroke-opacity:1"
       d="M -35.866215,265.83565 C -36.574019,265.51928 -37.938553,265.21678 -38.112835,265.20617 C -38.345207,265.19205 -39.469128,265.50615 -41.324702,265.97642 C -43.180297,266.44667 -46.13489,267.76614 -47.944677,268.12256 L -48.464284,268.29867 C -50.812243,268.1911 -52.359316,268.11031 -53.886125,267.87068 C -56.311929,267.48994 -59.860528,266.86997 -59.860528,266.86997 L -59.983225,267.06643 L -60.232856,266.95603 L -58.750694,269.97535 L -58.333115,270.6913 L -61.123814,270.49574 L -61.811146,270.79466 L -58.819759,271.6162 L -59.08572,271.67767 C -59.08572,271.67767 -58.71141,272.09672 -58.406306,272.19304 C -58.101193,272.28934 -52.285325,272.0698 -51.302935,271.89627 C -50.320574,271.72277 -37.816045,268.51677 -37.252651,268.20116 C -36.689247,267.88557 -35.368393,266.52858 -35.461033,266.13423 C -35.484188,266.03564 -35.630287,265.94111 -35.866215,265.83565 z M -52.040219,269.4332 L -55.775738,270.60461 L -58.649109,267.6266 L -52.040219,269.4332 z"
       id="path5216" />
    <g
       id="g4056"
       transform="translate(11.671821,73.274144)">
      <path
         sodipodi:open="true"
         sodipodi:end="10.575948"
         sodipodi:start="4.2932211"
         d="M -58.672671,193.29752 A 4.6998582,4.6998582 0 1 1 -58.674639,193.2984"
         sodipodi:ry="4.6998582"
         sodipodi:rx="4.6998582"
         sodipodi:cy="197.5905"
         sodipodi:cx="-56.759827"
         id="path3997"
         style="fill:#ffffff;fill-opacity:1;stroke:#000000;stroke-width:1.25;stroke-miterlimit:4;stroke-dasharray:none;stroke-dashoffset:0;stroke-opacity:1"
         sodipodi:type="arc" />
      <path
         sodipodi:nodetypes="ccc"
         id="path3999"
         d="M -56.828139,193.70466 L -56.828139,197.95943 L -54.651846,196.49227"
         style="fill:none;fill-rule:evenodd;stroke:#000000;stroke-width:1px;stroke-linecap:butt;stroke-linejoin:miter;stroke-opacity:1" />
      <g
         transform="matrix(0,-1,1,0,-254.40856,140.72171)"
         id="g4021">
        <path
           style="fill:none;fill-rule:evenodd;stroke:#000000;stroke-width:0.625;stroke-linecap:butt;stroke-linejoin:miter;stroke-miterlimit:4;stroke-dasharray:none;stroke-opacity:1"
           d="M -60.618311,197.58042 L -59.811371,197.58042"
           id="path4023" />
        <path
           style="fill:none;fill-rule:evenodd;stroke:#000000;stroke-width:0.625;stroke-linecap:butt;stroke-linejoin:miter;stroke-miterlimit:4;stroke-dasharray:none;stroke-opacity:1"
           d="M -53.83268,197.58041 L -53.02574,197.58041"
           id="path4025" />
      </g>
      <g
         transform="translate(6.2186884e-2,2.2306015e-2)"
         id="g4039">
        <g
           id="g4005"
           transform="translate(0,-1.2221138e-2)">
          <path
             id="path4001"
             d="M -60.618311,197.58042 L -59.811371,197.58042"
             style="fill:none;fill-rule:evenodd;stroke:#000000;stroke-width:0.625;stroke-linecap:butt;stroke-linejoin:miter;stroke-miterlimit:4;stroke-dasharray:none;stroke-opacity:1" />
          <path
             id="path4003"
             d="M -53.83268,197.58041 L -53.02574,197.58041"
             style="fill:none;fill-rule:evenodd;stroke:#000000;stroke-width:0.625;stroke-linecap:butt;stroke-linejoin:miter;stroke-miterlimit:4;stroke-dasharray:none;stroke-opacity:1" />
        </g>
        <g
           id="g4009"
           transform="matrix(0.8660254,-0.5,0.5,0.8660254,-106.40292,-1.9524768)">
          <path
             id="path4011"
             d="M -60.618311,197.58042 L -59.811371,197.58042"
             style="fill:none;fill-rule:evenodd;stroke:#000000;stroke-width:0.625;stroke-linecap:butt;stroke-linejoin:miter;stroke-miterlimit:4;stroke-dasharray:none;stroke-opacity:1" />
          <path
             id="path4013"
             d="M -53.83268,197.58041 L -53.02574,197.58041"
             style="fill:none;fill-rule:evenodd;stroke:#000000;stroke-width:0.625;stroke-linecap:butt;stroke-linejoin:miter;stroke-miterlimit:4;stroke-dasharray:none;stroke-opacity:1" />
        </g>
        <g
           id="g4015"
           transform="matrix(0.5,-0.8660254,0.8660254,0.5,-199.52067,49.568669)">
          <path
             id="path4017"
             d="M -60.618311,197.58042 L -59.811371,197.58042"
             style="fill:none;fill-rule:evenodd;stroke:#000000;stroke-width:0.625;stroke-linecap:butt;stroke-linejoin:miter;stroke-miterlimit:4;stroke-dasharray:none;stroke-opacity:1" />
          <path
             id="path4019"
             d="M -53.83268,197.58041 L -53.02574,197.58041"
             style="fill:none;fill-rule:evenodd;stroke:#000000;stroke-width:0.625;stroke-linecap:butt;stroke-linejoin:miter;stroke-miterlimit:4;stroke-dasharray:none;stroke-opacity:1" />
        </g>
        <g
           id="g4027"
           transform="matrix(-0.5,-0.8660254,0.8660254,-0.5,-256.3427,247.14908)">
          <path
             id="path4029"
             d="M -60.618311,197.58042 L -59.811371,197.58042"
             style="fill:none;fill-rule:evenodd;stroke:#000000;stroke-width:0.625;stroke-linecap:butt;stroke-linejoin:miter;stroke-miterlimit:4;stroke-dasharray:none;stroke-opacity:1" />
          <path
             id="path4031"
             d="M -53.83268,197.58041 L -53.02574,197.58041"
             style="fill:none;fill-rule:evenodd;stroke:#000000;stroke-width:0.625;stroke-linecap:butt;stroke-linejoin:miter;stroke-miterlimit:4;stroke-dasharray:none;stroke-opacity:1" />
        </g>
        <g
           id="g4033"
           transform="matrix(-0.8660254,-0.5,0.5,-0.8660254,-204.82155,340.26684)">
          <path
             id="path4035"
             d="M -60.618311,197.58042 L -59.811371,197.58042"
             style="fill:none;fill-rule:evenodd;stroke:#000000;stroke-width:0.625;stroke-linecap:butt;stroke-linejoin:miter;stroke-miterlimit:4;stroke-dasharray:none;stroke-opacity:1" />
          <path
             id="path4037"
             d="M -53.83268,197.58041 L -53.02574,197.58041"
             style="fill:none;fill-rule:evenodd;stroke:#000000;stroke-width:0.625;stroke-linecap:butt;stroke-linejoin:miter;stroke-miterlimit:4;stroke-dasharray:none;stroke-opacity:1" />
        </g>
      </g>
    </g>
    <g
       id="g4171"
       transform="translate(-43.906851,145.93388)">
      <path
         id="path4079"
         d="M -79.343057,140.18998 C -78.826596,139.61176 -77.705194,138.77755 -77.550502,138.69657 C -77.344237,138.58863 -76.190169,138.41548 -74.304575,138.08556 C -72.418974,137.7556 -69.183141,137.75101 -67.385905,137.33591 L -66.839717,137.28407 C -64.741198,136.22544 -63.362536,135.51886 -62.06734,134.67563 C -60.00953,133.33589 -57.025021,131.31856 -57.025021,131.31856 L -56.832697,131.44763 L -56.650069,131.24477 L -56.767446,134.60623 L -56.855618,135.43035 L -54.389091,134.11032 L -53.639616,134.10193 L -56.033208,136.07526 L -55.765372,136.02255 C -55.765372,136.02255 -55.935514,136.55806 -56.17452,136.77076 C -56.413548,136.98344 -61.810362,139.16218 -62.777779,139.4057 C -63.745161,139.64923 -76.467071,141.83891 -77.110276,141.78138 C -77.753482,141.72388 -79.513866,141.02593 -79.590647,140.62819 C -79.609847,140.52875 -79.515202,140.38273 -79.343057,140.18998 z M -63.112564,136.85654 L -59.224702,136.39738 L -57.820936,132.50454 L -63.112564,136.85654 z"
         style="fill:#606060;fill-opacity:1;fill-rule:evenodd;stroke:#000000;stroke-width:0.61763918;stroke-linecap:butt;stroke-linejoin:miter;stroke-miterlimit:4;stroke-dasharray:none;stroke-opacity:1" />
      <g
         transform="translate(-9.735142,-58.627674)"
         id="g4081">
        <path
           sodipodi:type="arc"
           style="fill:#ffffff;fill-opacity:1;stroke:#000000;stroke-width:1.25;stroke-miterlimit:4;stroke-dasharray:none;stroke-dashoffset:0;stroke-opacity:1"
           id="path4083"
           sodipodi:cx="-56.759827"
           sodipodi:cy="197.5905"
           sodipodi:rx="4.6998582"
           sodipodi:ry="4.6998582"
           d="M -58.672671,193.29752 A 4.6998582,4.6998582 0 1 1 -58.674639,193.2984"
           sodipodi:start="4.2932211"
           sodipodi:end="10.575948"
           sodipodi:open="true" />
        <path
           style="fill:none;fill-rule:evenodd;stroke:#000000;stroke-width:1px;stroke-linecap:butt;stroke-linejoin:miter;stroke-opacity:1"
           d="M -56.828139,193.70466 L -56.828139,197.95943 L -54.651846,196.49227"
           id="path4085"
           sodipodi:nodetypes="ccc" />
        <g
           id="g4087"
           transform="matrix(0,-1,1,0,-254.40856,140.72171)">
          <path
             id="path4089"
             d="M -60.618311,197.58042 L -59.811371,197.58042"
             style="fill:none;fill-rule:evenodd;stroke:#000000;stroke-width:0.625;stroke-linecap:butt;stroke-linejoin:miter;stroke-miterlimit:4;stroke-dasharray:none;stroke-opacity:1" />
          <path
             id="path4091"
             d="M -53.83268,197.58041 L -53.02574,197.58041"
             style="fill:none;fill-rule:evenodd;stroke:#000000;stroke-width:0.625;stroke-linecap:butt;stroke-linejoin:miter;stroke-miterlimit:4;stroke-dasharray:none;stroke-opacity:1" />
        </g>
        <g
           id="g4093"
           transform="translate(6.2186884e-2,2.2306015e-2)">
          <g
             transform="translate(0,-1.2221138e-2)"
             id="g4095">
            <path
               style="fill:none;fill-rule:evenodd;stroke:#000000;stroke-width:0.625;stroke-linecap:butt;stroke-linejoin:miter;stroke-miterlimit:4;stroke-dasharray:none;stroke-opacity:1"
               d="M -60.618311,197.58042 L -59.811371,197.58042"
               id="path4097" />
            <path
               style="fill:none;fill-rule:evenodd;stroke:#000000;stroke-width:0.625;stroke-linecap:butt;stroke-linejoin:miter;stroke-miterlimit:4;stroke-dasharray:none;stroke-opacity:1"
               d="M -53.83268,197.58041 L -53.02574,197.58041"
               id="path4099" />
          </g>
          <g
             transform="matrix(0.8660254,-0.5,0.5,0.8660254,-106.40292,-1.9524768)"
             id="g4101">
            <path
               style="fill:none;fill-rule:evenodd;stroke:#000000;stroke-width:0.625;stroke-linecap:butt;stroke-linejoin:miter;stroke-miterlimit:4;stroke-dasharray:none;stroke-opacity:1"
               d="M -60.618311,197.58042 L -59.811371,197.58042"
               id="path4103" />
            <path
               style="fill:none;fill-rule:evenodd;stroke:#000000;stroke-width:0.625;stroke-linecap:butt;stroke-linejoin:miter;stroke-miterlimit:4;stroke-dasharray:none;stroke-opacity:1"
               d="M -53.83268,197.58041 L -53.02574,197.58041"
               id="path4105" />
          </g>
          <g
             transform="matrix(0.5,-0.8660254,0.8660254,0.5,-199.52067,49.568669)"
             id="g4107">
            <path
               style="fill:none;fill-rule:evenodd;stroke:#000000;stroke-width:0.625;stroke-linecap:butt;stroke-linejoin:miter;stroke-miterlimit:4;stroke-dasharray:none;stroke-opacity:1"
               d="M -60.618311,197.58042 L -59.811371,197.58042"
               id="path4109" />
            <path
               style="fill:none;fill-rule:evenodd;stroke:#000000;stroke-width:0.625;stroke-linecap:butt;stroke-linejoin:miter;stroke-miterlimit:4;stroke-dasharray:none;stroke-opacity:1"
               d="M -53.83268,197.58041 L -53.02574,197.58041"
               id="path4111" />
          </g>
          <g
             transform="matrix(-0.5,-0.8660254,0.8660254,-0.5,-256.3427,247.14908)"
             id="g4113">
            <path
               style="fill:none;fill-rule:evenodd;stroke:#000000;stroke-width:0.625;stroke-linecap:butt;stroke-linejoin:miter;stroke-miterlimit:4;stroke-dasharray:none;stroke-opacity:1"
               d="M -60.618311,197.58042 L -59.811371,197.58042"
               id="path4115" />
            <path
               style="fill:none;fill-rule:evenodd;stroke:#000000;stroke-width:0.625;stroke-linecap:butt;stroke-linejoin:miter;stroke-miterlimit:4;stroke-dasharray:none;stroke-opacity:1"
               d="M -53.83268,197.58041 L -53.02574,197.58041"
               id="path4117" />
          </g>
          <g
             transform="matrix(-0.8660254,-0.5,0.5,-0.8660254,-204.82155,340.26684)"
             id="g4119">
            <path
               style="fill:none;fill-rule:evenodd;stroke:#000000;stroke-width:0.625;stroke-linecap:butt;stroke-linejoin:miter;stroke-miterlimit:4;stroke-dasharray:none;stroke-opacity:1"
               d="M -60.618311,197.58042 L -59.811371,197.58042"
               id="path4121" />
            <path
               style="fill:none;fill-rule:evenodd;stroke:#000000;stroke-width:0.625;stroke-linecap:butt;stroke-linejoin:miter;stroke-miterlimit:4;stroke-dasharray:none;stroke-opacity:1"
               d="M -53.83268,197.58041 L -53.02574,197.58041"
               id="path4123" />
          </g>
        </g>
      </g>
    </g>
    <g
       id="g4127"
       transform="translate(-22.541244,78.721206)">
      <path
         sodipodi:open="true"
         sodipodi:end="10.575948"
         sodipodi:start="4.2932211"
         d="M -58.672671,193.29752 A 4.6998582,4.6998582 0 1 1 -58.674639,193.2984"
         sodipodi:ry="4.6998582"
         sodipodi:rx="4.6998582"
         sodipodi:cy="197.5905"
         sodipodi:cx="-56.759827"
         id="path4129"
         style="fill:#ffffff;fill-opacity:1;stroke:#000000;stroke-width:1.25;stroke-miterlimit:4;stroke-dasharray:none;stroke-dashoffset:0;stroke-opacity:1"
         sodipodi:type="arc" />
      <path
         sodipodi:nodetypes="ccc"
         id="path4131"
         d="M -56.828139,193.70466 L -56.828139,197.95943 L -54.651846,196.49227"
         style="fill:none;fill-rule:evenodd;stroke:#000000;stroke-width:1px;stroke-linecap:butt;stroke-linejoin:miter;stroke-opacity:1" />
      <g
         transform="matrix(0,-1,1,0,-254.40856,140.72171)"
         id="g4133">
        <path
           style="fill:none;fill-rule:evenodd;stroke:#000000;stroke-width:0.625;stroke-linecap:butt;stroke-linejoin:miter;stroke-miterlimit:4;stroke-dasharray:none;stroke-opacity:1"
           d="M -60.618311,197.58042 L -59.811371,197.58042"
           id="path4135" />
        <path
           style="fill:none;fill-rule:evenodd;stroke:#000000;stroke-width:0.625;stroke-linecap:butt;stroke-linejoin:miter;stroke-miterlimit:4;stroke-dasharray:none;stroke-opacity:1"
           d="M -53.83268,197.58041 L -53.02574,197.58041"
           id="path4137" />
      </g>
      <g
         transform="translate(6.2186884e-2,2.2306015e-2)"
         id="g4139">
        <g
           id="g4141"
           transform="translate(0,-1.2221138e-2)">
          <path
             id="path4143"
             d="M -60.618311,197.58042 L -59.811371,197.58042"
             style="fill:none;fill-rule:evenodd;stroke:#000000;stroke-width:0.625;stroke-linecap:butt;stroke-linejoin:miter;stroke-miterlimit:4;stroke-dasharray:none;stroke-opacity:1" />
          <path
             id="path4145"
             d="M -53.83268,197.58041 L -53.02574,197.58041"
             style="fill:none;fill-rule:evenodd;stroke:#000000;stroke-width:0.625;stroke-linecap:butt;stroke-linejoin:miter;stroke-miterlimit:4;stroke-dasharray:none;stroke-opacity:1" />
        </g>
        <g
           id="g4147"
           transform="matrix(0.8660254,-0.5,0.5,0.8660254,-106.40292,-1.9524768)">
          <path
             id="path4149"
             d="M -60.618311,197.58042 L -59.811371,197.58042"
             style="fill:none;fill-rule:evenodd;stroke:#000000;stroke-width:0.625;stroke-linecap:butt;stroke-linejoin:miter;stroke-miterlimit:4;stroke-dasharray:none;stroke-opacity:1" />
          <path
             id="path4151"
             d="M -53.83268,197.58041 L -53.02574,197.58041"
             style="fill:none;fill-rule:evenodd;stroke:#000000;stroke-width:0.625;stroke-linecap:butt;stroke-linejoin:miter;stroke-miterlimit:4;stroke-dasharray:none;stroke-opacity:1" />
        </g>
        <g
           id="g4153"
           transform="matrix(0.5,-0.8660254,0.8660254,0.5,-199.52067,49.568669)">
          <path
             id="path4155"
             d="M -60.618311,197.58042 L -59.811371,197.58042"
             style="fill:none;fill-rule:evenodd;stroke:#000000;stroke-width:0.625;stroke-linecap:butt;stroke-linejoin:miter;stroke-miterlimit:4;stroke-dasharray:none;stroke-opacity:1" />
          <path
             id="path4157"
             d="M -53.83268,197.58041 L -53.02574,197.58041"
             style="fill:none;fill-rule:evenodd;stroke:#000000;stroke-width:0.625;stroke-linecap:butt;stroke-linejoin:miter;stroke-miterlimit:4;stroke-dasharray:none;stroke-opacity:1" />
        </g>
        <g
           id="g4159"
           transform="matrix(-0.5,-0.8660254,0.8660254,-0.5,-256.3427,247.14908)">
          <path
             id="path4161"
             d="M -60.618311,197.58042 L -59.811371,197.58042"
             style="fill:none;fill-rule:evenodd;stroke:#000000;stroke-width:0.625;stroke-linecap:butt;stroke-linejoin:miter;stroke-miterlimit:4;stroke-dasharray:none;stroke-opacity:1" />
          <path
             id="path4163"
             d="M -53.83268,197.58041 L -53.02574,197.58041"
             style="fill:none;fill-rule:evenodd;stroke:#000000;stroke-width:0.625;stroke-linecap:butt;stroke-linejoin:miter;stroke-miterlimit:4;stroke-dasharray:none;stroke-opacity:1" />
        </g>
        <g
           id="g4165"
           transform="matrix(-0.8660254,-0.5,0.5,-0.8660254,-204.82155,340.26684)">
          <path
             id="path4167"
             d="M -60.618311,197.58042 L -59.811371,197.58042"
             style="fill:none;fill-rule:evenodd;stroke:#000000;stroke-width:0.625;stroke-linecap:butt;stroke-linejoin:miter;stroke-miterlimit:4;stroke-dasharray:none;stroke-opacity:1" />
          <path
             id="path4169"
             d="M -53.83268,197.58041 L -53.02574,197.58041"
             style="fill:none;fill-rule:evenodd;stroke:#000000;stroke-width:0.625;stroke-linecap:butt;stroke-linejoin:miter;stroke-miterlimit:4;stroke-dasharray:none;stroke-opacity:1" />
        </g>
      </g>
    </g>
    <path
       style="fill:#646464;fill-opacity:1;stroke:#000000;stroke-width:0.875;stroke-miterlimit:4;stroke-dasharray:none;stroke-dashoffset:0;stroke-opacity:1"
       d="M -105.94058,290.58526 L -105.68,293.00879 L -113.38559,293.8373 L -113.0415,297.0376 L -105.33591,296.20909 L -105.03523,299.00547 L -101.21081,293.94261 L -105.94058,290.58526 z"
       id="rect4198" />
    <path
       style="fill:#646464;fill-opacity:1;stroke:#000000;stroke-width:0.875;stroke-miterlimit:4;stroke-dasharray:none;stroke-dashoffset:0;stroke-opacity:1"
       d="M -69.403128,283.25226 L -68.918119,285.73662 L -84.529647,288.7844 L -83.95482,291.72882 L -68.343291,288.68103 L -67.786428,291.53344 L -64.403365,286.1925 L -69.403128,283.25226 z"
       id="rect4202" />
    <path
       style="fill:#646464;fill-opacity:1;stroke:#000000;stroke-width:0.875;stroke-miterlimit:4;stroke-dasharray:none;stroke-dashoffset:0;stroke-opacity:1"
       d="M -29.602438,270.87005 L -28.7982,273.36882 L -51.049107,280.53036 L -50.177849,283.23737 L -27.926941,276.07581 L -27.007813,278.93154 L -24.25062,273.21831 L -29.602438,270.87005 z"
       id="rect4206" />
  </g>
</svg>
