<?xml version="1.0" encoding="UTF-8" standalone="no"?>
<!-- Created with Inkscape (http://www.inkscape.org/) -->

<svg
   xmlns:dc="http://purl.org/dc/elements/1.1/"
   xmlns:cc="http://creativecommons.org/ns#"
   xmlns:rdf="http://www.w3.org/1999/02/22-rdf-syntax-ns#"
   xmlns:svg="http://www.w3.org/2000/svg"
   xmlns="http://www.w3.org/2000/svg"
   xmlns:sodipodi="http://sodipodi.sourceforge.net/DTD/sodipodi-0.dtd"
   xmlns:inkscape="http://www.inkscape.org/namespaces/inkscape"
   width="744.09448819"
   height="1052.3622047"
   id="svg2"
   sodipodi:version="0.32"
   inkscape:version="0.48.4 r9939"
   sodipodi:docname="dq-pole-paradox.svg"
   inkscape:output_extension="org.inkscape.output.svg.inkscape"
   version="1.1">
  <defs
     id="defs4">
    <marker
       inkscape:stockid="Arrow2Mend"
       orient="auto"
       refY="0.0"
       refX="0.0"
       id="Arrow2Mend"
       style="overflow:visible;">
      <path
         id="path3210"
         style="font-size:12.0;fill-rule:evenodd;stroke-width:0.62500000;stroke-linejoin:round;"
         d="M 8.7185878,4.0337352 L -2.2072895,0.016013256 L 8.7185884,-4.0017078 C 6.9730900,-1.6296469 6.9831476,1.6157441 8.7185878,4.0337352 z "
         transform="scale(0.6) rotate(180) translate(0,0)" />
    </marker>
    <inkscape:perspective
       sodipodi:type="inkscape:persp3d"
       inkscape:vp_x="0 : 526.18109 : 1"
       inkscape:vp_y="0 : 1000 : 0"
       inkscape:vp_z="744.09448 : 526.18109 : 1"
       inkscape:persp3d-origin="372.04724 : 350.78739 : 1"
       id="perspective10" />
  </defs>
  <sodipodi:namedview
     id="base"
     pagecolor="#ffffff"
     bordercolor="#666666"
     borderopacity="1.0"
     gridtolerance="10000"
     guidetolerance="10"
     objecttolerance="10"
     inkscape:pageopacity="0.0"
     inkscape:pageshadow="2"
     inkscape:zoom="1.6818055"
     inkscape:cx="-62.342422"
     inkscape:cy="71.933563"
     inkscape:document-units="px"
     inkscape:current-layer="layer1"
     showgrid="false"
     inkscape:window-width="1278"
     inkscape:window-height="996"
     inkscape:window-x="3"
     inkscape:window-y="6"
     inkscape:window-maximized="0" />
  <metadata
     id="metadata7">
    <rdf:RDF>
      <cc:Work
         rdf:about="">
        <dc:format>image/svg+xml</dc:format>
        <dc:type
           rdf:resource="http://purl.org/dc/dcmitype/StillImage" />
        <dc:title />
      </cc:Work>
    </rdf:RDF>
  </metadata>
  <g
     inkscape:label="Layer 1"
     inkscape:groupmode="layer"
     id="layer1">
    <rect
       style="fill:#dedede;fill-opacity:1;stroke:none"
       id="rect3046-5"
       width="176.84225"
       height="178.02916"
       x="-46.528271"
       y="884.87433" />
    <rect
       style="fill:#aaaaaa;fill-opacity:1;stroke:#000000;stroke-width:0.625;stroke-miterlimit:4;stroke-opacity:1;stroke-dasharray:none;stroke-dashoffset:0"
       id="rect3187"
       width="87.830154"
       height="87.830154"
       x="-1049.2017"
       y="-32.358654"
       transform="matrix(0,-1,1,0,0,0)"
       inkscape:export-xdpi="300.23862"
       inkscape:export-ydpi="300.23862" />
    <rect
       style="fill:none;stroke:#000000;stroke-width:0.79464078;stroke-miterlimit:4;stroke-opacity:1;stroke-dasharray:none;stroke-dashoffset:0"
       id="rect3189"
       width="111.66945"
       height="111.66945"
       x="-1504.0424"
       y="695.19122"
       transform="matrix(0.43705671,-0.89943395,0.89943395,-0.43705671,0,0)"
       inkscape:export-filename="/home/bcrowell/Documents/writing/books/physics/share/relativity/figs/rect3187.png"
       inkscape:export-xdpi="300.23862"
       inkscape:export-ydpi="300.23862" />
    <path
       sodipodi:type="arc"
       style="fill:#000000;fill-opacity:1;stroke:none"
       id="path3152"
       sodipodi:cx="-37.137035"
       sodipodi:cy="887.89819"
       sodipodi:rx="3.8905466"
       sodipodi:ry="3.8905466"
       d="m -33.246489,887.89819 a 3.8905466,3.8905466 0 1 1 -7.781093,0 3.8905466,3.8905466 0 1 1 7.781093,0 z"
       transform="matrix(0.7436286,0,0,0.7436286,61.626818,366.98015)" />
    <path
       sodipodi:type="arc"
       style="fill:#000000;fill-opacity:1;stroke:none"
       id="path3154"
       sodipodi:cx="-37.137035"
       sodipodi:cy="887.89819"
       sodipodi:rx="3.8905466"
       sodipodi:ry="3.8905466"
       d="m -33.246489,887.89819 a 3.8905466,3.8905466 0 1 1 -7.781093,0 3.8905466,3.8905466 0 1 1 7.781093,0 z"
       transform="matrix(0.7436286,0,0,0.7436286,23.316374,366.98015)" />
    <text
       xml:space="preserve"
       style="font-size:10px;font-style:normal;font-variant:normal;font-weight:normal;font-stretch:normal;text-align:start;line-height:125%;writing-mode:lr-tb;text-anchor:start;fill:#000000;fill-opacity:1;stroke:none;font-family:Bitstream Vera Sans;-inkscape-font-specification:Bitstream Vera Sans"
       x="38.197975"
       y="1023.1271"
       id="text3166"
       sodipodi:linespacing="125%"><tspan
         sodipodi:role="line"
         id="tspan3168"
         x="38.197975"
         y="1023.1271">B</tspan></text>
    <text
       xml:space="preserve"
       style="font-size:10px;font-style:normal;font-variant:normal;font-weight:normal;font-stretch:normal;text-align:start;line-height:125%;writing-mode:lr-tb;text-anchor:start;fill:#000000;fill-opacity:1;stroke:none;font-family:Bitstream Vera Sans;-inkscape-font-specification:Bitstream Vera Sans"
       x="-1.7465637"
       y="1023.1271"
       id="text3170"
       sodipodi:linespacing="125%"><tspan
         sodipodi:role="line"
         id="tspan3172"
         x="-1.7465637"
         y="1023.1271">A</tspan></text>
    <text
       xml:space="preserve"
       style="font-size:10px;font-style:normal;font-weight:normal;line-height:125%;letter-spacing:0px;word-spacing:0px;fill:#000000;fill-opacity:1;stroke:none;font-family:Sans"
       x="58.580284"
       y="1035.4651"
       id="text3773"
       sodipodi:linespacing="125%"><tspan
         sodipodi:role="line"
         id="tspan3775"
         x="58.580284"
         y="1035.4651">original</tspan><tspan
         sodipodi:role="line"
         x="58.580284"
         y="1047.9651"
         id="tspan3777">frame, 1</tspan></text>
    <text
       xml:space="preserve"
       style="font-size:10px;font-style:normal;font-weight:normal;line-height:125%;letter-spacing:0px;word-spacing:0px;fill:#000000;fill-opacity:1;stroke:none;font-family:Sans"
       x="84.109993"
       y="985.80829"
       id="text3779"
       sodipodi:linespacing="125%"><tspan
         sodipodi:role="line"
         id="tspan3781"
         x="84.109993"
         y="985.80829">frame 2</tspan></text>
    <rect
       style="fill:#dedede;fill-opacity:1;stroke:none"
       id="rect3046"
       width="208.67699"
       height="178.02916"
       x="-270.98047"
       y="884.87433" />
    <path
       style="fill:none;stroke:#000000;stroke-width:0.625;stroke-miterlimit:4;stroke-opacity:1;stroke-dasharray:none"
       d="m -208.87804,941.77771 0,0.0312 c -0.0297,-0.004 -0.0635,0 -0.0937,0 -0.65608,0 -1.1875,0.85472 -1.1875,1.90625 0,1.05153 0.53142,1.875 1.1875,1.875 0.0303,0 0.064,0.004 0.0937,0 l 0,0.0312 96.5,0 0,-3.84375 -96.5,0 z"
       id="rect3783"
       inkscape:connector-curvature="0" />
    <text
       xml:space="preserve"
       style="font-size:10px;font-style:normal;font-variant:normal;font-weight:normal;font-stretch:normal;text-align:start;line-height:125%;writing-mode:lr-tb;text-anchor:start;fill:#000000;fill-opacity:1;stroke:none;font-family:Bitstream Vera Sans;-inkscape-font-specification:Bitstream Vera Sans"
       x="-117.17416"
       y="937.05298"
       id="text3166-7"
       sodipodi:linespacing="125%"><tspan
         sodipodi:role="line"
         id="tspan3168-7"
         x="-117.17416"
         y="937.05298">B</tspan></text>
    <text
       xml:space="preserve"
       style="font-size:10px;font-style:normal;font-variant:normal;font-weight:normal;font-stretch:normal;text-align:start;line-height:125%;writing-mode:lr-tb;text-anchor:start;fill:#000000;fill-opacity:1;stroke:none;font-family:Bitstream Vera Sans;-inkscape-font-specification:Bitstream Vera Sans"
       x="-210.25941"
       y="937.05298"
       id="text3170-3"
       sodipodi:linespacing="125%"><tspan
         sodipodi:role="line"
         id="tspan3172-3"
         x="-210.25941"
         y="937.05298">A</tspan></text>
    <path
       style="fill:none;stroke:#000000;stroke-width:0.625;stroke-linecap:butt;stroke-linejoin:miter;stroke-miterlimit:4;stroke-opacity:1;stroke-dasharray:none"
       d="m -237.61597,974.42887 c -1.09001,2.18 -2.28928,4.7621 -2.36169,5.995 -0.10176,1.7324 0.36333,4.9959 0.36333,4.9959 0,0 2.27086,4.0876 2.08919,4.9051 -0.18167,0.8175 1.27168,6.9942 1.54418,7.5392 0.27251,0.545 0.36334,0.8175 0.36334,0.8175 0,0 -1.45335,3.27013 -1.45335,3.72423 0,0.4542 0,2.5434 0.18167,3.1792 0.18167,0.6359 0.76472,4.5651 0.90834,4.9959 0.27251,0.8175 0.54501,5.3592 0.54501,5.3592 l 4.54172,0.091 c 0,0 -0.36334,-13.8068 -0.27251,-14.5334 0.0908,-0.7267 -0.18167,-0.9084 0.27251,-1.54423 0.45417,-0.6359 0.36333,-1.8167 0.36333,-2.3617 0,-0.545 0,-2.3617 0,-2.3617 0,0 0.99918,-6.9034 0.99918,-8.5384 0,-1.6351 -0.18167,-4.3601 -0.18167,-4.3601 l -0.18167,-7.9026 z"
       id="path3851"
       inkscape:connector-curvature="0"
       sodipodi:nodetypes="cscsscsssccssscsccc" />
    <path
       style="fill:none;stroke:#000000;stroke-width:0.625;stroke-linecap:butt;stroke-linejoin:miter;stroke-miterlimit:4;stroke-opacity:1;stroke-dasharray:none"
       d="m -235.34512,1016.1218 -0.36333,3.8151 c 0,0 4.81422,0.3633 6.81257,0.091 1.99836,-0.2725 4.36005,-0.4542 4.36005,-0.4542 0,0 0.18167,-1.1809 -0.72668,-1.5442 -0.90834,-0.3633 -5.08672,-1.635 -5.08672,-1.635"
       id="path3853"
       inkscape:connector-curvature="0" />
    <path
       style="fill:none;stroke:#000000;stroke-width:0.625;stroke-linecap:butt;stroke-linejoin:miter;stroke-miterlimit:4;stroke-opacity:1;stroke-dasharray:none"
       d="m -238.07014,974.61047 c 0.545,-1.9983 0.72667,-1.5442 0.45417,-3.3608 -0.27251,-1.8167 -0.18167,-1.8167 -0.72668,-3.1792 -0.545,-1.3626 -1.72585,-4.26924 -2.08919,-5.90426 -0.36333,-1.63502 -1.01832,-4.78797 -0.90834,-7.08508 0.10697,-2.23424 0.17966,-2.7254 0.54501,-4.72338 0.35898,-1.96319 0.43223,-4.02463 1.70391,-4.47881 1.27168,-0.45417 2.22004,-1.27204 2.45301,-1.89465 0.22284,-0.59551 0.19948,-1.47476 0.19948,-1.47476 l -0.92789,-2.24507"
       id="path3857"
       inkscape:connector-curvature="0"
       sodipodi:nodetypes="cssssssscc" />
    <path
       style="fill:none;stroke:#000000;stroke-width:0.625;stroke-linecap:butt;stroke-linejoin:miter;stroke-miterlimit:4;stroke-opacity:1;stroke-dasharray:none"
       d="m -229.98589,974.24717 c -0.2725,-2.2709 -0.36334,-2.9067 -0.36334,-4.3601 0,-1.4533 -0.45417,-3.0883 -0.18167,-3.81499 0.27251,-0.72667 0.81751,-4.26921 0.81751,-4.72338 0,-0.45417 0.27251,-1.54418 0.27251,-1.54418"
       id="path3859"
       inkscape:connector-curvature="0" />
    <path
       style="fill:none;stroke:#000000;stroke-width:0.625;stroke-linecap:butt;stroke-linejoin:miter;stroke-miterlimit:4;stroke-opacity:1;stroke-dasharray:none"
       d="m -228.62448,933.40997 c 0.24042,0.75582 0.26602,1.05564 0.1889,1.4424 -0.0771,0.38676 -0.0246,0.56527 0.18281,0.9757 0.20737,0.41044 0.55557,0.68094 0.74434,0.97749 0.18876,0.29655 0.63835,0.90126 0.67184,1.10626 0.0335,0.20499 -0.0846,0.34121 -0.42994,0.37425 -0.34538,0.033 -0.31843,-0.0883 -0.31843,-0.0883 l -0.26544,-0.0501 -0.14783,-0.046"
       id="path3930"
       inkscape:connector-curvature="0"
       sodipodi:nodetypes="csssssccc" />
    <path
       style="fill:none;stroke:#000000;stroke-width:0.625;stroke-linecap:butt;stroke-linejoin:miter;stroke-miterlimit:4;stroke-opacity:1;stroke-dasharray:none"
       d="m -227.45292,938.43346 c -0.28211,0.42025 -0.22956,0.59875 -0.20723,0.73541 0.0223,0.13666 0.0521,0.31888 0.0442,0.41371 -0.008,0.0948 -0.12222,0.25382 -0.12222,0.25382 0,0 0.11671,0.28494 0.0633,0.38722 -0.0534,0.10227 -0.15989,0.16643 -0.29655,0.18876 -0.13667,0.0224 -0.24311,0.0865 -0.24311,0.0865 0,0 -0.25144,0.3217 -0.24817,0.48486 0.003,0.16316 0.19576,0.48249 -0.30251,0.86791 -0.49827,0.38542 0.20132,-0.14376 -0.11756,-0.0917 -0.31888,0.0521 -0.96255,0.17648 -1.48419,0.46884 -0.22236,0.12464 -0.3208,0.25876 -0.48634,0.57361 -0.21734,0.3355 -0.31234,0.32568 -0.46895,0.65531 -0.15662,0.3296 -0.14204,0.48436 -0.14204,0.48436"
       id="path3932"
       inkscape:connector-curvature="0"
       sodipodi:nodetypes="csccccccsssccc" />
    <path
       style="fill:none;stroke:#000000;stroke-width:0.625;stroke-linecap:butt;stroke-linejoin:miter;stroke-miterlimit:4;stroke-opacity:1;stroke-dasharray:none"
       d="m -228.70026,933.37558 c -0.1767,-0.50899 -0.51984,-1.17787 -0.743,-1.39865 -0.22315,-0.22077 -0.23997,-0.89619 -0.70623,-1.03048 -0.46626,-0.13428 -0.96601,-0.47356 -1.46666,-0.53207 -0.50065,-0.0585 -1.0013,-0.11702 -1.38852,-0.0537 -0.38721,0.0633 -1.99277,0.25543 -2.40693,0.44003 -0.41416,0.1846 -1.03659,0.23952 -1.51253,0.76161 -0.47594,0.52209 -0.62511,0.89723 -1.01501,1.80281 -0.3899,0.90557 -0.48369,1.76276 -0.53059,2.19137 -0.0469,0.42859 0.2879,1.33268 0.32422,1.84122 0.0363,0.50855 0.13026,0.7972 0.28463,1.16953 0.15438,0.37232 0.55603,0.54055 0.53563,0.9882 -0.0204,0.44765 0.001,0.86509 0.001,0.86509"
       id="path3934"
       inkscape:connector-curvature="0" />
    <path
       id="path10"
       d="m -215.75052,945.00718 c 0.25936,3.82387 0.0523,15.72415 0.0523,15.72415 l 3.0303,-0.20546 c 0,0 -1.28267,-10.89319 -1.5983,-15.54661"
       style="fill:#dedede;fill-opacity:1;stroke:#000000;stroke-width:0.625;stroke-miterlimit:4;stroke-dasharray:none"
       inkscape:connector-curvature="0" />
    <path
       id="path12"
       d="m -211.76969,944.98689 -0.0367,-0.54121 -0.45343,0.0312 0.0364,0.53415 -4.19341,0.28454 -9e-5,-0.007 c -2.68021,0.19483 -4.45061,1.50166 -4.45061,1.50166 0,0 1.81469,-3.63389 4.31736,-3.80327 l 5e-4,0.007 4.17052,-0.28297 0.0364,0.53417 0.45344,-0.0312 -0.0367,-0.5412 0.8519,-0.058 0.1569,2.31308 -0.85252,0.0583 z"
       style="fill:#dedede;fill-opacity:1;stroke:#000000;stroke-width:0.625;stroke-miterlimit:4;stroke-dasharray:none"
       inkscape:connector-curvature="0" />
    <path
       style="fill:#dedede;fill-opacity:1;stroke:#000000;stroke-width:0.625;stroke-linecap:butt;stroke-linejoin:miter;stroke-miterlimit:4;stroke-opacity:1;stroke-dasharray:none"
       d="m -235.89761,946.55905 c -1.15363,3.19467 -0.35496,3.63838 -0.26622,5.50193 0.0887,1.86355 2.57348,3.63836 2.92844,5.05821 0.35496,1.41985 1.59733,3.10592 1.59733,3.10592 0,0 2.66222,0.62119 3.90459,0.88741 1.24237,0.26622 2.57348,-0.17748 3.54963,-0.17748 0.97614,0 4.08207,-0.88741 4.88073,-0.88741 0.79867,0 1.86355,-1.24237 2.396,-1.15363 0.53244,0.0887 3.63836,0.26623 4.08207,0 0.4437,-0.26622 0.53244,-1.06488 0.53244,-1.06488 l -0.0887,-2.12978 -1.06489,-1.06489 -2.04103,0.26623 -1.24237,0.62118 -1.06489,0.62118 -2.92844,0.0888 -5.41318,-0.35497 -1.50859,0.44371 -0.79866,-4.43704 -2.30726,-5.23569 -0.88741,-0.44371 -0.26622,-2.39599"
       id="path4146"
       inkscape:connector-curvature="0"
       sodipodi:nodetypes="csscsssccccccccccccccc" />
    <path
       style="fill:none;stroke:#000000;stroke-width:0.625;stroke-linecap:butt;stroke-linejoin:miter;stroke-miterlimit:4;stroke-opacity:1;stroke-dasharray:none"
       d="m -88.120041,1016.2221 0.36334,3.815 c 0,0 -4.81422,0.3633 -6.81257,0.091 -1.99836,-0.2725 -4.360049,-0.4542 -4.360049,-0.4542 0,0 -0.18167,-1.1808 0.72668,-1.5442 0.908339,-0.3633 5.086719,-1.635 5.086719,-1.635"
       id="path3853-2"
       inkscape:connector-curvature="0" />
    <path
       style="fill:none;stroke:#000000;stroke-width:0.625;stroke-linecap:butt;stroke-linejoin:miter;stroke-miterlimit:4;stroke-opacity:1;stroke-dasharray:none"
       d="m -100.97458,949.24427 c -0.71897,-0.37229 -0.6083,-0.51557 -1.28463,-0.48894 -0.67634,0.0266 -1.10128,0.20168 -1.54883,0.26777 -0.44754,0.0661 -1.05694,0.47992 -1.25884,0.24773 -0.20195,-0.23219 -0.45587,-0.19959 -0.41384,-0.6094 0.042,-0.4098 0.39062,-0.3083 0.0446,-0.59082 -0.34605,-0.28252 -0.39466,-0.25907 -0.42899,-0.39233 -0.0343,-0.13327 0.0152,-0.21705 0.0152,-0.21705 l -0.21705,-0.0151 c 0,0 -0.13159,-0.0863 -0.21368,-0.25649 -0.0821,-0.17016 -0.0778,-0.47186 -0.28143,-0.58338 -0.20362,-0.11152 -0.46673,-0.28423 -0.46673,-0.28423 0,0 -0.40233,0.28403 -0.53391,0.19761 -0.13159,-0.0863 -0.3612,-0.0655 -0.34434,-0.40321 0.0169,-0.33773 0.0966,-0.85564 0.0966,-0.85564 l 0.0766,-1.14562 -0.23539,-0.42579 c 0,0 -0.45415,-0.32027 -0.50106,-0.4175 -0.0469,-0.0972 -0.001,-0.7484 -0.0241,-0.85736 -0.0226,-0.10895 -0.15478,-1.00404 -0.15478,-1.00404 l -0.0801,-1.15991 0.32454,-0.75585 c 0,0 -0.0155,-1.46076 0.0708,-1.59231 0.0863,-0.13159 1.68916,-1.6539 1.68916,-1.6539 0,0 2.25482,-1.53725 2.68979,-1.5673 0.43497,-0.0301 3.15225,-0.98136 4.76988,1.56429 1.617617,2.54565 2.205649,3.64033 2.137619,4.18254 -0.068,0.54221 -0.22413,1.33666 -0.14631,1.80852 0.0778,0.47185 0.25346,1.70554 0.25346,1.70554 0,0 0.54369,0.81643 0.77993,1.18189 0.23626,0.36545 0.20277,0.17186 0.20277,0.17186"
       id="path4276"
       inkscape:connector-curvature="0" />
    <path
       style="fill:none;stroke:#000000;stroke-width:0.625;stroke-linecap:butt;stroke-linejoin:miter;stroke-miterlimit:4;stroke-opacity:1;stroke-dasharray:none"
       d="m -92.398101,1016.277 -4.95365,-13.7507 c 0,0 -0.683269,-1.6227 -1.195709,-2.306 -0.51245,-0.68333 -1.96438,-0.85413 -1.19571,-2.64763 0.76867,-1.7936 1.70815,-4.5267 1.70815,-4.5267 l 1.793569,-4.9536 1.53734,-5.0391 c 0,0 1.45193,-1.9644 1.62275,-2.3914 0.17081,-0.427 0.59785,-3.6725 0.59785,-3.6725 0,0 -0.34163,-1.1957 0,-1.1957 0.34164,0 6.66182,0 6.66182,0 0,0 0.59785,-1.1958 1.62275,0 1.02489,1.1957 0.68326,0.9394 1.02489,2.9892 0.34163,2.0498 0.1878,3.6536 -0.30294,5.7175 -0.22133,0.9309 -1.24647,3.1313 -1.7489,3.9577 -0.47164,0.7758 -1.5994,1.5837 -1.92719,2.1352 -0.62476,1.0512 -2.25574,2.8798 -2.93901,3.6485 -0.68326,0.7686 -2.56223,1.9643 -2.56223,1.9643 l -0.42704,1.452 c 0,0 1.02489,0.9395 1.28112,1.7935 0.25622,0.85413 1.36652,2.13523 1.28111,3.16013 -0.0854,1.0249 -0.25622,2.6477 -0.25622,3.5872 0,0.9394 1.62275,5.3806 1.70816,5.9785 0.0854,0.5979 0.42704,3.7579 0.42704,3.7579"
       id="path4324"
       inkscape:connector-curvature="0"
       sodipodi:nodetypes="ccsscccccscsssssscccsscc" />
    <path
       style="fill:none;stroke:#000000;stroke-width:0.625;stroke-linecap:butt;stroke-linejoin:miter;stroke-miterlimit:4;stroke-opacity:1;stroke-dasharray:none"
       d="m -84.220361,975.63517 c -0.4205,-2.3828 -0.14017,-5.046 -0.14017,-6.4477 0,-1.4016 -1.12133,-6.58778 -1.2615,-7.42878 -0.14016,-0.841 -2.80333,-6.02715 -2.80333,-6.02715 0,0 -0.98116,-3.92466 -2.38282,-4.90583 -1.40167,-0.98116 -4.62549,-5.46648 -4.62549,-5.46648 l 0,0"
       id="path4326"
       inkscape:connector-curvature="0" />
    <path
       style="fill:none;stroke:#000000;stroke-width:0.625;stroke-linecap:butt;stroke-linejoin:miter;stroke-miterlimit:4;stroke-opacity:1;stroke-dasharray:none"
       d="m -100.90016,949.14372 0.841,2.10249"
       id="path4330"
       inkscape:connector-curvature="0" />
    <path
       style="fill:#dedede;fill-opacity:1;stroke:#000000;stroke-width:0.625;stroke-linecap:butt;stroke-linejoin:miter;stroke-miterlimit:4;stroke-opacity:1;stroke-dasharray:none"
       d="m -93.191011,950.68555 c 1.82216,1.12133 4.62549,3.92466 4.62549,3.92466 l 5.74682,5.74682 -0.70083,2.66316 c 0,0 -0.98117,3.78448 -1.40167,4.90578 -0.4205,1.1214 -1.96233,5.4665 -1.96233,5.4665 l -0.70083,3.364 -0.4205,1.682 -1.68199,0.5607 c 0,0 -1.682,-0.841 -1.682,-1.682 0,-0.841 0.70083,-3.364 0.70083,-3.364 l 1.54183,-5.3263 0.70083,-6.02718 -5.60665,-3.92466 -3.22383,-3.92466 -0.280332,-1.96233"
       id="path4332"
       inkscape:connector-curvature="0" />
    <path
       style="fill:none;stroke:#000000;stroke-width:0.625;stroke-linecap:butt;stroke-linejoin:miter;stroke-miterlimit:4;stroke-opacity:1;stroke-dasharray:none"
       d="m -99.63866,951.10605 c 0.28033,1.82216 -0.70083,5.18616 -0.70083,5.18616 0,0 0.841,3.64432 1.682,4.76565 0.840987,1.12133 -0.42051,1.12133 0.14016,1.54183 0.560657,0.4205 3.784489,5.04598 3.784489,5.04598 l 1.40166,7.2887"
       id="path4334"
       inkscape:connector-curvature="0"
       sodipodi:nodetypes="ccsscc" />
  </g>
</svg>
