<?xml version="1.0" encoding="UTF-8" standalone="no"?>
<!-- Created with Inkscape (http://www.inkscape.org/) -->

<svg
   xmlns:dc="http://purl.org/dc/elements/1.1/"
   xmlns:cc="http://creativecommons.org/ns#"
   xmlns:rdf="http://www.w3.org/1999/02/22-rdf-syntax-ns#"
   xmlns:svg="http://www.w3.org/2000/svg"
   xmlns="http://www.w3.org/2000/svg"
   xmlns:sodipodi="http://sodipodi.sourceforge.net/DTD/sodipodi-0.dtd"
   xmlns:inkscape="http://www.inkscape.org/namespaces/inkscape"
   width="744.09448819"
   height="1052.3622047"
   id="svg2802"
   sodipodi:version="0.32"
   inkscape:version="0.48.4 r9939"
   sodipodi:docname="smooshing.svg"
   inkscape:output_extension="org.inkscape.output.svg.inkscape"
   version="1.1">
  <defs
     id="defs2804">
    <inkscape:perspective
       sodipodi:type="inkscape:persp3d"
       inkscape:vp_x="0 : 526.18109 : 1"
       inkscape:vp_y="0 : 1000 : 0"
       inkscape:vp_z="744.09448 : 526.18109 : 1"
       inkscape:persp3d-origin="372.04724 : 350.78739 : 1"
       id="perspective2810" />
  </defs>
  <sodipodi:namedview
     id="base"
     pagecolor="#ffffff"
     bordercolor="#666666"
     borderopacity="1.0"
     gridtolerance="10000"
     guidetolerance="10"
     objecttolerance="10"
     inkscape:pageopacity="0.0"
     inkscape:pageshadow="2"
     inkscape:zoom="2.7726734"
     inkscape:cx="270.47808"
     inkscape:cy="520.31916"
     inkscape:document-units="px"
     inkscape:current-layer="layer1"
     showgrid="false"
     inkscape:window-width="1278"
     inkscape:window-height="996"
     inkscape:window-x="3"
     inkscape:window-y="4"
     inkscape:window-maximized="0" />
  <metadata
     id="metadata2807">
    <rdf:RDF>
      <cc:Work
         rdf:about="">
        <dc:format>image/svg+xml</dc:format>
        <dc:type
           rdf:resource="http://purl.org/dc/dcmitype/StillImage" />
      </cc:Work>
    </rdf:RDF>
  </metadata>
  <g
     inkscape:label="Layer 1"
     inkscape:groupmode="layer"
     id="layer1">
    <g
       id="g3720">
      <path
         style="fill:none;stroke:#000000;stroke-width:0.75;stroke-miterlimit:4;stroke-dasharray:none"
         d="M 283.96943,462.2022 C 286.83032,460.77621 288.50236,461.55065 289.37448,460.90078 C 290.24598,460.24876 294.60045,458.14628 296.0957,456.70262 C 297.59154,455.25751 301.64045,452.01648 302.69706,451.66349 C 303.75368,451.3105 305.99429,449.91183 306.74109,449.57359 C 307.4879,449.23534 310.29099,446.81402 311.1637,446.16269 C 311.76862,445.71193 313.53022,444.45095 314.08581,444.96412 C 314.64138,445.47729 315.56663,446.58997 315.37662,447.44209 C 315.18604,448.29566 314.24579,450.25393 313.56022,450.8196 C 312.87466,451.38526 307.45321,456.14448 306.89154,456.78176 C 306.32985,457.41903 304.52298,458.87818 303.77597,459.60035 C 303.02715,460.32329 301.51286,465.60726 300.70138,466.48601 C 299.8917,467.364 298.51796,468.88146 296.83415,470.794 C 295.14975,472.70798 291.84784,475.22686 289.92436,475.46104 C 287.99907,475.69597 281.12073,473.83786 281.12073,473.83786"
         id="path667" />
      <path
         style="fill:none;stroke:#000000;stroke-width:0.75;stroke-miterlimit:4;stroke-dasharray:none"
         d="M 296.27368,471.43198 C 296.70803,471.49101 298.6321,471.25537 300.18916,470.03768 C 301.74622,468.81999 303.24328,467.37559 304.42807,465.94453 C 305.61347,464.512 305.6828,463.2043 306.99352,461.46016 C 308.30545,459.71672 309.29536,460.28891 310.4175,459.01365 C 311.54022,457.73695 313.34104,457.43185 313.9033,456.79311 C 314.46498,456.15584 316.26983,455.08137 316.96086,453.36311 C 317.6519,451.64484 315.73271,450.72934 314.43436,449.78505 C 314.43436,449.78505 316.49044,448.08589 317.17744,447.137 C 317.86502,446.18664 319.98175,444.71636 320.60344,444.3058 C 321.22635,443.89595 322.10738,441.32557 322.42128,440.54508 C 322.73576,439.76311 321.19026,438.67775 320.69469,438.39131 C 320.20035,438.10557 319.32477,439.52334 318.51531,440.01739 C 317.70647,440.51361 315.21462,442.53696 313.78204,443.8248 L 305.3154,449.3256 L 301.26792,452.18342"
         id="path669" />
      <path
         style="fill:none;stroke:#000000;stroke-width:0.75;stroke-miterlimit:4;stroke-dasharray:none"
         d="M 320.45157,437.48087 C 321.01325,436.8436 322.38519,435.32688 323.0661,435.52843 C 323.74822,435.73068 325.23249,436.58861 324.85451,437.90815 C 324.47593,439.22915 323.97346,440.47853 322.41497,442.07945"
         id="path671" />
      <line
         style="fill:none;stroke:#000000;stroke-width:0.75;stroke-miterlimit:4;stroke-dasharray:none"
         x1="310.99277"
         y1="455.68866"
         x2="311.29367"
         y2="457.59442"
         id="line673" />
      <path
         style="fill:none;stroke:#000000;stroke-width:0.75;stroke-miterlimit:4;stroke-dasharray:none"
         d="M 286.3175,464.32933 C 286.67762,466.84721 285.42491,469.20275 285.42491,469.20275"
         id="path675" />
      <line
         style="fill:none;stroke:#000000;stroke-width:0.75;stroke-miterlimit:4;stroke-dasharray:none"
         x1="307.36984"
         y1="460.90778"
         x2="306.56995"
         y2="459.48349"
         id="line677" />
      <line
         style="fill:none;stroke:#000000;stroke-width:0.75;stroke-miterlimit:4;stroke-dasharray:none"
         x1="298.63211"
         y1="471.25537"
         x2="291.78842"
         y2="474.99869"
         id="line679" />
    </g>
    <g
       id="g3763">
      <path
         style="fill:none;stroke:#000000;stroke-width:0.75;stroke-miterlimit:4;stroke-dasharray:none"
         d="M 373.92017,569.76501 C 374.28136,567.40646 373.99271,565.81904 375.0276,563.59357 C 376.0617,561.36694 378.86794,555.6946 379.27609,555.14328 C 379.68426,554.59195 382.98779,549.9486 382.98779,549.9486 C 382.98779,549.9486 384.68241,546.38764 384.81433,545.71513 C 384.94625,545.0426 385.6917,541.22855 386.14358,540.45265 C 386.59546,539.67676 388.84427,538.38764 388.84427,538.38764 L 390.29072,539.66973 C 390.29072,539.66973 390.99876,542.17311 390.74679,542.95389 C 390.49364,543.73573 390.52992,546.10614 390.00054,546.76679 C 389.47194,547.42859 387.82103,550.76498 387.82103,550.76498"
         id="path683" />
      <polyline
         transform="matrix(0.7829264,1.1641533,-1.1655976,1.051063,394.7226,346.71178)"
         style="fill:none;stroke:#000000;stroke-width:0.50798282;stroke-miterlimit:4;stroke-dasharray:none"
         points="104.399,73.855 103.609,68.967 102.423,64.911       101.831,61.063 101.633,58.775 102.028,57.319 102.917,57.215 "
         id="polyline685" />
      <path
         style="fill:none;stroke:#000000;stroke-width:0.75;stroke-miterlimit:4;stroke-dasharray:none"
         d="M 394.11389,545.64404 L 399.35775,539.25289 L 403.23437,533.72435 L 406.42815,528.62827 L 409.85539,525.90622 C 409.85539,525.90622 411.89555,525.17553 412.47035,526.31977 C 412.87263,527.11839 412.09847,529.24152 412.09847,529.24152 L 410.6001,530.77781"
         id="path687" />
      <path
         style="fill:none;stroke:#000000;stroke-width:0.75;stroke-miterlimit:4;stroke-dasharray:none"
         d="M 398.24784,543.39372 L 402.48812,537.53724 L 406.28724,531.89344 C 406.28724,531.89344 408.63417,529.59198 409.34089,530.0637 C 410.04762,530.53543 411.18481,531.35768 410.93167,532.13951 C 410.67852,532.92134 410.7024,533.82553 409.93058,534.70479 C 409.15954,535.58522 407.32059,538.35246 407.32059,538.35246 L 405.44784,540.77989"
         id="path689" />
      <polyline
         transform="matrix(0.7829264,1.1641533,-1.1655976,1.051063,394.7226,346.71178)"
         style="fill:none;stroke:#000000;stroke-width:0.50798282;stroke-miterlimit:4;stroke-dasharray:none"
         points="108.746,72.919 108.252,70.111 107.561,66.471       107.956,64.599 109.734,64.08 110.624,65.223 110.821,67.095 111.315,70.215 112.105,73.231 113.291,76.455 116.65,83.215       118.33,90.911 "
         id="polyline691" />
      <line
         style="fill:none;stroke:#000000;stroke-width:0.75;stroke-miterlimit:4;stroke-dasharray:none"
         x1="384.95865"
         y1="546.50885"
         x2="386.88998"
         y2="547.3537"
         id="line693" />
    </g>
    <rect
       style="fill:#b4b4b4;fill-opacity:1;stroke:none;stroke-width:1;stroke-miterlimit:4;stroke-dasharray:none"
       id="rect2981"
       width="100.44849"
       height="100.42169"
       x="274.09665"
       y="479.29828" />
    <path
       inkscape:connector-curvature="0"
       style="fill:none;stroke:#000000;stroke-width:0.75;stroke-linecap:butt;stroke-linejoin:miter;stroke-miterlimit:4;stroke-opacity:1;stroke-dasharray:none"
       d="M 305.67113,465.2499 275.03658,579.58007"
       id="path2984" />
    <path
       inkscape:connector-curvature="0"
       style="fill:none;stroke:#000000;stroke-width:0.75;stroke-linecap:butt;stroke-linejoin:miter;stroke-miterlimit:4;stroke-opacity:1;stroke-dasharray:none"
       d="M 334.44351,457.5404 303.80897,571.87057"
       id="path2986" />
    <path
       inkscape:connector-curvature="0"
       style="fill:none;stroke:#000000;stroke-width:0.75;stroke-linecap:butt;stroke-linejoin:miter;stroke-miterlimit:4;stroke-opacity:1;stroke-dasharray:none"
       d="M 363.21591,449.83089 332.58136,564.16106"
       id="path2988" />
    <path
       inkscape:connector-curvature="0"
       style="fill:none;stroke:#000000;stroke-width:0.75;stroke-linecap:butt;stroke-linejoin:miter;stroke-miterlimit:4;stroke-opacity:1;stroke-dasharray:none"
       d="M 391.98829,442.12139 361.35375,556.45155"
       id="path2990" />
    <path
       inkscape:connector-curvature="0"
       style="fill:none;stroke:#000000;stroke-width:0.75;stroke-linecap:butt;stroke-linejoin:miter;stroke-miterlimit:4;stroke-opacity:1;stroke-dasharray:none"
       d="M 420.76068,434.41188 390.12613,548.74207"
       id="path2992" />
    <path
       inkscape:connector-curvature="0"
       style="fill:none;stroke:#000000;stroke-width:0.75;stroke-linecap:butt;stroke-linejoin:miter;stroke-miterlimit:4;stroke-opacity:1;stroke-dasharray:none"
       d="M 305.67481,465.24892 420.757,434.41286"
       id="path2994"
       sodipodi:nodetypes="cc" />
    <path
       inkscape:connector-curvature="0"
       style="fill:none;stroke:#000000;stroke-width:0.75;stroke-linecap:butt;stroke-linejoin:miter;stroke-miterlimit:4;stroke-opacity:1;stroke-dasharray:none"
       d="m 275.17623,579.07163 115.0822,-30.83605"
       id="path2996"
       sodipodi:nodetypes="cc" />
    <path
       inkscape:connector-curvature="0"
       style="fill:none;stroke:#000000;stroke-width:0.75;stroke-linecap:butt;stroke-linejoin:miter;stroke-miterlimit:4;stroke-opacity:1;stroke-dasharray:none"
       d="M 298.05015,493.70458 413.13234,462.86852"
       id="path3000"
       sodipodi:nodetypes="cc" />
    <path
       inkscape:connector-curvature="0"
       style="fill:none;stroke:#000000;stroke-width:0.75;stroke-linecap:butt;stroke-linejoin:miter;stroke-miterlimit:4;stroke-opacity:1;stroke-dasharray:none"
       d="m 290.42551,522.16025 115.0822,-30.83606"
       id="path3002"
       sodipodi:nodetypes="cc" />
    <path
       inkscape:connector-curvature="0"
       style="fill:none;stroke:#000000;stroke-width:0.75;stroke-linecap:butt;stroke-linejoin:miter;stroke-miterlimit:4;stroke-opacity:1;stroke-dasharray:none"
       d="M 282.80089,550.61596 397.88309,519.7799"
       id="path3006"
       sodipodi:nodetypes="cc" />
    <text
       xml:space="preserve"
       style="font-size:10px;font-style:normal;font-variant:normal;font-weight:normal;font-stretch:normal;text-align:start;line-height:125%;writing-mode:lr-tb;text-anchor:start;fill:#000000;fill-opacity:1;stroke:none;font-family:Bitstream Vera Sans;-inkscape-font-specification:Bitstream Vera Sans"
       x="-437.5863"
       y="421.1792"
       id="text2408"
       sodipodi:linespacing="125%"
       transform="matrix(0.28193455,-0.95943364,0.95943364,0.28193455,0,0)"><tspan
         sodipodi:role="line"
         id="tspan2410"
         x="-437.5863"
         y="421.1792">slope=1/v</tspan></text>
    <text
       xml:space="preserve"
       style="font-size:10px;font-style:normal;font-variant:normal;font-weight:normal;font-stretch:normal;text-align:start;line-height:125%;writing-mode:lr-tb;text-anchor:start;fill:#000000;fill-opacity:1;stroke:none;font-family:Bitstream Vera Sans;-inkscape-font-specification:Bitstream Vera Sans"
       x="264.94678"
       y="487.83807"
       id="text2410"
       sodipodi:linespacing="125%"><tspan
         sodipodi:role="line"
         id="tspan2412"
         x="264.94678"
         y="487.83807">t</tspan></text>
    <text
       xml:space="preserve"
       style="font-size:10px;font-style:normal;font-variant:normal;font-weight:normal;font-stretch:normal;text-align:start;line-height:125%;writing-mode:lr-tb;text-anchor:start;fill:#000000;fill-opacity:1;stroke:none;font-family:Bitstream Vera Sans;-inkscape-font-specification:Bitstream Vera Sans"
       x="367.18332"
       y="587.78918"
       id="text2414"
       sodipodi:linespacing="125%"><tspan
         sodipodi:role="line"
         id="tspan2416"
         x="367.18332"
         y="587.78918">x</tspan></text>
    <g
       id="g3742">
      <path
         style="fill:none;stroke:#000000;stroke-width:0.75;stroke-miterlimit:4;stroke-dasharray:none"
         d="M 440.50733,405.31139 C 438.19076,407.26437 429.76818,413.00353 428.44636,413.78049 C 427.12455,414.55744 422.65003,417.77884 422.18059,418.25189 C 421.71003,418.72558 418.1079,421.04 417.42886,421.63623 C 416.74983,422.23247 413.6077,424.37505 413.41548,424.68515 C 413.22325,424.99525 412.00001,426.89689 412.13596,427.6054 C 412.27193,428.31391 412.10878,431.85915 412.3403,432.41294 C 412.57181,432.96673 413.34413,435.07514 413.91327,435.72614 C 414.48241,436.37713 415.80461,437.66957 416.2714,437.9865 C 416.73819,438.30345 417.6729,438.93667 417.99429,438.84631 C 418.31568,438.75595 419.00151,438.64848 419.23,437.92286 C 419.45961,437.19658 419.67752,436.77283 419.18769,435.77956 C 418.69786,434.7863 418.19746,434.09489 418.02524,433.80191 C 417.72387,433.28919 418.20198,431.23421 418.20198,431.23421 L 418.41044,431.11167 C 418.41044,431.11167 418.07281,431.01446 418.51657,430.65508 C 418.96032,430.29569 421.26632,428.64459 421.54465,428.48098 C 421.82299,428.31738 422.29355,427.84368 422.29355,427.84368"
         id="path599" />
      <path
         style="fill:none;stroke:#000000;stroke-width:0.75;stroke-miterlimit:4;stroke-dasharray:none"
         d="M 420.94642,424.59485 C 421.73763,426.10083 422.37966,427.99017 422.84381,429.09709 C 423.30683,430.20467 423.75096,431.91467 424.29064,433.46995 C 424.83033,435.02524 424.68795,435.89735 426.26544,436.34985 C 427.8418,436.80302 428.42831,437.64091 429.27579,438.1283 C 429.86903,438.46947 430.98858,438.69232 431.70413,438.47034 C 431.70413,438.47034 438.36723,434.16415 438.65613,433.69868"
         id="path601" />
      <path
         style="fill:none;stroke:#000000;stroke-width:0.75;stroke-miterlimit:4;stroke-dasharray:none"
         d="M 427.38026,425.34651 C 428.1084,427.38234 429.00876,429.71115 429.57525,431.15212 C 430.14175,432.59309 430.72071,435.01226 431.40278,435.69544 C 432.08483,436.37861 433.96635,436.55386 434.94109,435.98091 C 435.91583,435.40797 436.57182,434.1354 436.27422,432.83204 C 435.97661,431.52866 434.76431,428.98901 434.76431,428.98901"
         id="path603" />
      <path
         style="fill:none;stroke:#000000;stroke-width:0.75;stroke-miterlimit:4;stroke-dasharray:none"
         d="M 436.26365,433.1339 C 437.97974,433.50493 440.14639,434.00535 441.18306,432.90323 C 442.21975,431.80111 441.89533,430.61206 441.89343,429.33199 C 441.89322,429.18202 441.90248,429.02495 441.92076,428.86258"
         id="path605" />
      <path
         style="fill:none;stroke:#000000;stroke-width:0.75;stroke-miterlimit:4;stroke-dasharray:none"
         d="M 440.01531,426.29672 C 441.03613,427.07642 441.92666,427.63706 441.92666,427.63706"
         id="path607" />
      <path
         style="fill:none;stroke:#000000;stroke-width:0.75;stroke-miterlimit:4;stroke-dasharray:none"
         d="M 431.88236,423.29152 C 431.47789,424.5148 431.95451,426.59992 433.11393,427.29815"
         id="path609" />
      <path
         style="fill:none;stroke:#000000;stroke-width:0.75;stroke-miterlimit:4;stroke-dasharray:none"
         d="M 427.1223,420.76759 C 425.82353,422.22087 426.92291,424.72836 426.92291,424.72836"
         id="path611" />
      <path
         style="fill:none;stroke:#000000;stroke-width:0.75;stroke-miterlimit:4;stroke-dasharray:none"
         d="M 428.76928,419.10964 C 431.2475,417.75152 431.76111,417.35106 431.76111,417.35106"
         id="path613" />
      <line
         style="fill:none;stroke:#000000;stroke-width:0.75;stroke-miterlimit:4;stroke-dasharray:none"
         x1="417.09882"
         y1="429.51736"
         x2="418.51657"
         y2="430.65509"
         id="line615" />
      <line
         style="fill:none;stroke:#000000;stroke-width:0.75;stroke-miterlimit:4;stroke-dasharray:none"
         x1="416.25287"
         y1="434.44949"
         x2="418.19177"
         y2="433.60547"
         id="line617" />
      <path
         style="fill:none;stroke:#000000;stroke-width:0.75;stroke-miterlimit:4;stroke-dasharray:none"
         d="M 442.69293,427.18665 C 444.55518,425.89493 451.06074,418.32598 450.92478,417.61748"
         id="path619" />
      <path
         style="fill:none;stroke:#000000;stroke-width:0.75;stroke-miterlimit:4;stroke-dasharray:none"
         d="M 443.53547,418.90573 C 443.53547,418.90573 442.84475,426.01333 442.30055,427.31874"
         id="path621" />
      <path
         style="fill:none;stroke:#000000;stroke-width:0.75;stroke-miterlimit:4;stroke-dasharray:none"
         d="M 427.07931,436.46278 C 427.94792,436.34643 430.34267,434.05183 430.42311,433.70889"
         id="path623" />
    </g>
  </g>
</svg>
