<?xml version="1.0" encoding="iso-8859-1"?>
<!-- Generator: Adobe Illustrator 11 Build 196, SVG Export Plug-In . SVG Version: 6.0.0 Build 78)  -->
<!DOCTYPE svg PUBLIC "-//W3C//DTD SVG 1.0//EN"    "http://www.w3.org/TR/2001/REC-SVG-20010904/DTD/svg10.dtd" [
	<!ENTITY ns_flows "http://ns.adobe.com/Flows/1.0/">
	<!ENTITY ns_svg "http://www.w3.org/2000/svg">
	<!ENTITY ns_xlink "http://www.w3.org/1999/xlink">
]>
<svg  
	 width="320.315" height="234.767" viewBox="0 0 320.315 234.767"
	 style="overflow:visible;enable-background:new 0 0 320.315 234.767" xml:space="preserve">
	<style type="text/css">
	
	</style>
	<g id="Layer_1">
		<rect x="0.001" y="123.75" width="320.241" height="111.017"/> 
		<rect x="0" y="123.75" width="64.048" height="111.017"/> 
		<rect x="5.338" y="142.964" style="fill:#FFFFFF;" width="53.374" height="72.588"/> 
		<rect x="64.049" y="123.75" width="64.048" height="111.017"/> 
		<rect x="69.386" y="142.964" style="fill:#FFFFFF;" width="53.374" height="72.588"/> 
		<rect x="128.097" y="123.75" width="64.048" height="111.017"/> 
		<rect x="133.388" y="143.105" style="fill:#FFFFFF;" width="53.374" height="72.589"/> 
		<rect x="192.146" y="123.75" width="64.049" height="111.017"/> 
		<rect x="197.483" y="142.964" style="fill:#FFFFFF;" width="53.374" height="72.588"/> 
		<rect x="256.194" y="123.75" width="64.048" height="111.017"/> 
		<rect x="261.532" y="142.964" style="fill:#FFFFFF;" width="53.374" height="72.588"/> 
		<circle style="fill:#DCDCDC;stroke:#000000;stroke-width:0.5;" cx="224.168" cy="190.87" r="5.281"/> 
		<circle style="fill:#DCDCDC;stroke:#000000;stroke-width:0.5;" cx="287.616" cy="180.534" r="5.281"/> 
		<circle style="fill:#B4B4B4;stroke:#000000;stroke-width:0.5;" cx="224.17" cy="170.366" r="1.553"/> 
		<circle style="fill:#B4B4B4;stroke:#000000;stroke-width:0.5;" cx="287.616" cy="145.45" r="1.553"/> 
		<circle style="fill:#DCDCDC;stroke:#000000;stroke-width:0.5;" cx="160.205" cy="202.575" r="5.281"/> 
		<circle style="fill:#B4B4B4;stroke:#000000;stroke-width:0.5;" cx="160.206" cy="195.762" r="1.553"/> 
		<circle style="fill:#B4B4B4;stroke:#000000;stroke-width:0.5;" cx="95.947" cy="196.315" r="1.553"/> 
		<circle style="fill:#B4B4B4;stroke:#000000;stroke-width:0.5;" cx="32.024" cy="196.596" r="1.553"/> 
		<g>
			<path style="fill:#FFFFFF;" d="M308.713,222.312c0-0.767,0.622-1.388,1.388-1.388h2.775c0.767,0,1.388,0.621,1.388,1.388v5.551
				c0,0.766-0.621,1.388-1.388,1.388h-2.775c-0.766,0-1.388-0.622-1.388-1.388V222.312z"/>
			<path style="fill:#FFFFFF;" d="M287.364,222.312c0-0.767,0.621-1.388,1.388-1.388h2.775c0.766,0,1.388,0.621,1.388,1.388v5.551
				c0,0.766-0.622,1.388-1.388,1.388h-2.775c-0.767,0-1.388-0.622-1.388-1.388V222.312z"/>
			<path style="fill:#FFFFFF;" d="M266.014,222.312c0-0.767,0.621-1.388,1.388-1.388h2.775c0.766,0,1.388,0.621,1.388,1.388v5.551
				c0,0.766-0.622,1.388-1.388,1.388h-2.775c-0.767,0-1.388-0.622-1.388-1.388V222.312z"/>
			<path style="fill:#FFFFFF;" d="M244.665,222.312c0-0.767,0.621-1.388,1.388-1.388h2.775c0.767,0,1.388,0.621,1.388,1.388v5.551
				c0,0.766-0.621,1.388-1.388,1.388h-2.775c-0.767,0-1.388-0.622-1.388-1.388V222.312z"/>
			<path style="fill:#FFFFFF;" d="M223.315,222.312c0-0.767,0.622-1.388,1.388-1.388h2.775c0.767,0,1.388,0.621,1.388,1.388v5.551
				c0,0.766-0.621,1.388-1.388,1.388h-2.775c-0.766,0-1.388-0.622-1.388-1.388V222.312z"/>
			<path style="fill:#FFFFFF;" d="M201.966,222.312c0-0.767,0.621-1.388,1.388-1.388h2.775c0.766,0,1.388,0.621,1.388,1.388v5.551
				c0,0.766-0.622,1.388-1.388,1.388h-2.775c-0.767,0-1.388-0.622-1.388-1.388V222.312z"/>
			<path style="fill:#FFFFFF;" d="M180.616,222.312c0-0.767,0.621-1.388,1.388-1.388h2.775c0.766,0,1.388,0.621,1.388,1.388v5.551
				c0,0.766-0.622,1.388-1.388,1.388h-2.775c-0.767,0-1.388-0.622-1.388-1.388V222.312z"/>
			<path style="fill:#FFFFFF;" d="M159.267,222.312c0-0.767,0.621-1.388,1.388-1.388h2.775c0.767,0,1.388,0.621,1.388,1.388v5.551
				c0,0.766-0.621,1.388-1.388,1.388h-2.775c-0.767,0-1.388-0.622-1.388-1.388V222.312z"/>
			<path style="fill:#FFFFFF;" d="M137.917,222.312c0-0.767,0.621-1.388,1.387-1.388h2.775c0.767,0,1.388,0.621,1.388,1.388v5.551
				c0,0.766-0.622,1.388-1.388,1.388h-2.775c-0.766,0-1.387-0.622-1.387-1.388V222.312z"/>
			<path style="fill:#FFFFFF;" d="M116.568,222.312c0-0.767,0.621-1.388,1.388-1.388h2.775c0.766,0,1.388,0.621,1.388,1.388v5.551
				c0,0.766-0.622,1.388-1.388,1.388h-2.775c-0.767,0-1.388-0.622-1.388-1.388V222.312z"/>
			<path style="fill:#FFFFFF;" d="M95.218,222.312c0-0.767,0.621-1.388,1.388-1.388h2.775c0.766,0,1.388,0.621,1.388,1.388v5.551
				c0,0.766-0.622,1.388-1.388,1.388h-2.775c-0.767,0-1.388-0.622-1.388-1.388V222.312z"/>
			<path style="fill:#FFFFFF;" d="M73.869,222.312c0-0.767,0.622-1.388,1.388-1.388h2.775c0.767,0,1.388,0.621,1.388,1.388v5.551
				c0,0.766-0.621,1.388-1.388,1.388h-2.775c-0.766,0-1.388-0.622-1.388-1.388V222.312z"/>
			<path style="fill:#FFFFFF;" d="M52.519,222.312c0-0.767,0.622-1.388,1.388-1.388h2.775c0.767,0,1.388,0.621,1.388,1.388v5.551
				c0,0.766-0.621,1.388-1.388,1.388h-2.775c-0.766,0-1.388-0.622-1.388-1.388V222.312z"/>
			<path style="fill:#FFFFFF;" d="M31.17,222.312c0-0.767,0.621-1.388,1.388-1.388h2.775c0.766,0,1.388,0.621,1.388,1.388v5.551
				c0,0.766-0.622,1.388-1.388,1.388h-2.775c-0.767,0-1.388-0.622-1.388-1.388V222.312z"/>
			<path style="fill:#FFFFFF;" d="M9.82,222.312c0-0.767,0.621-1.388,1.388-1.388h2.775c0.766,0,1.388,0.621,1.388,1.388v5.551
				c0,0.766-0.622,1.388-1.388,1.388h-2.775c-0.767,0-1.388-0.622-1.388-1.388V222.312z"/>
		</g>
		<g>
			<path style="fill:#FFFFFF;" d="M308.713,129.655c0-0.766,0.622-1.388,1.388-1.388h2.775c0.767,0,1.388,0.622,1.388,1.388v5.551
				c0,0.766-0.621,1.388-1.388,1.388h-2.775c-0.766,0-1.388-0.622-1.388-1.388V129.655z"/>
			<path style="fill:#FFFFFF;" d="M287.364,129.655c0-0.766,0.621-1.388,1.388-1.388h2.775c0.766,0,1.388,0.622,1.388,1.388v5.551
				c0,0.766-0.622,1.388-1.388,1.388h-2.775c-0.767,0-1.388-0.622-1.388-1.388V129.655z"/>
			<path style="fill:#FFFFFF;" d="M266.014,129.655c0-0.766,0.621-1.388,1.388-1.388h2.775c0.766,0,1.388,0.622,1.388,1.388v5.551
				c0,0.766-0.622,1.388-1.388,1.388h-2.775c-0.767,0-1.388-0.622-1.388-1.388V129.655z"/>
			<path style="fill:#FFFFFF;" d="M244.665,129.655c0-0.766,0.621-1.388,1.388-1.388h2.775c0.767,0,1.388,0.622,1.388,1.388v5.551
				c0,0.766-0.621,1.388-1.388,1.388h-2.775c-0.767,0-1.388-0.622-1.388-1.388V129.655z"/>
			<path style="fill:#FFFFFF;" d="M223.315,129.655c0-0.766,0.622-1.388,1.388-1.388h2.775c0.767,0,1.388,0.622,1.388,1.388v5.551
				c0,0.766-0.621,1.388-1.388,1.388h-2.775c-0.766,0-1.388-0.622-1.388-1.388V129.655z"/>
			<path style="fill:#FFFFFF;" d="M201.966,129.655c0-0.766,0.621-1.388,1.388-1.388h2.775c0.766,0,1.388,0.622,1.388,1.388v5.551
				c0,0.766-0.622,1.388-1.388,1.388h-2.775c-0.767,0-1.388-0.622-1.388-1.388V129.655z"/>
			<path style="fill:#FFFFFF;" d="M180.616,129.655c0-0.766,0.621-1.388,1.388-1.388h2.775c0.766,0,1.388,0.622,1.388,1.388v5.551
				c0,0.766-0.622,1.388-1.388,1.388h-2.775c-0.767,0-1.388-0.622-1.388-1.388V129.655z"/>
			<path style="fill:#FFFFFF;" d="M159.267,129.655c0-0.766,0.621-1.388,1.388-1.388h2.775c0.767,0,1.388,0.622,1.388,1.388v5.551
				c0,0.766-0.621,1.388-1.388,1.388h-2.775c-0.767,0-1.388-0.622-1.388-1.388V129.655z"/>
			<path style="fill:#FFFFFF;" d="M137.917,129.655c0-0.766,0.621-1.388,1.387-1.388h2.775c0.767,0,1.388,0.622,1.388,1.388v5.551
				c0,0.766-0.622,1.388-1.388,1.388h-2.775c-0.766,0-1.387-0.622-1.387-1.388V129.655z"/>
			<path style="fill:#FFFFFF;" d="M116.568,129.655c0-0.766,0.621-1.388,1.388-1.388h2.775c0.766,0,1.388,0.622,1.388,1.388v5.551
				c0,0.766-0.622,1.388-1.388,1.388h-2.775c-0.767,0-1.388-0.622-1.388-1.388V129.655z"/>
			<path style="fill:#FFFFFF;" d="M95.218,129.655c0-0.766,0.621-1.388,1.388-1.388h2.775c0.766,0,1.388,0.622,1.388,1.388v5.551
				c0,0.766-0.622,1.388-1.388,1.388h-2.775c-0.767,0-1.388-0.622-1.388-1.388V129.655z"/>
			<path style="fill:#FFFFFF;" d="M73.869,129.655c0-0.766,0.622-1.388,1.388-1.388h2.775c0.767,0,1.388,0.622,1.388,1.388v5.551
				c0,0.766-0.621,1.388-1.388,1.388h-2.775c-0.766,0-1.388-0.622-1.388-1.388V129.655z"/>
			<path style="fill:#FFFFFF;" d="M52.519,129.655c0-0.766,0.622-1.388,1.388-1.388h2.775c0.767,0,1.388,0.622,1.388,1.388v5.551
				c0,0.766-0.621,1.388-1.388,1.388h-2.775c-0.766,0-1.388-0.622-1.388-1.388V129.655z"/>
			<path style="fill:#FFFFFF;" d="M31.17,129.655c0-0.766,0.621-1.388,1.388-1.388h2.775c0.766,0,1.388,0.622,1.388,1.388v5.551
				c0,0.766-0.622,1.388-1.388,1.388h-2.775c-0.767,0-1.388-0.622-1.388-1.388V129.655z"/>
			<path style="fill:#FFFFFF;" d="M9.82,129.655c0-0.766,0.621-1.388,1.388-1.388h2.775c0.766,0,1.388,0.622,1.388,1.388v5.551
				c0,0.766-0.622,1.388-1.388,1.388h-2.775c-0.767,0-1.388-0.622-1.388-1.388V129.655z"/>
		</g>
		<rect y="133.781" style="fill:none;" width="320.315" height="2.834"/> 
		<rect x="0.001" width="320.241" height="111.017"/> 
		<rect x="0" width="64.048" height="111.017"/> 
		<rect x="5.338" y="19.214" style="fill:#FFFFFF;" width="53.374" height="72.588"/> 
		<rect x="64.049" width="64.048" height="111.017"/> 
		<rect x="69.386" y="19.214" style="fill:#FFFFFF;" width="53.374" height="72.588"/> 
		<rect x="128.097" width="64.048" height="111.017"/> 
		<rect x="133.388" y="19.355" style="fill:#FFFFFF;" width="53.374" height="72.589"/> 
		<rect x="192.146" width="64.049" height="111.017"/> 
		<rect x="197.483" y="19.214" style="fill:#FFFFFF;" width="53.374" height="72.588"/> 
		<rect x="256.194" width="64.048" height="111.017"/> 
		<rect x="261.532" y="19.214" style="fill:#FFFFFF;" width="53.374" height="72.588"/> 
		<g>
			<path style="fill:#FFFFFF;" d="M308.713,98.562c0-0.767,0.622-1.388,1.388-1.388h2.775c0.767,0,1.388,0.621,1.388,1.388v5.551
				c0,0.766-0.621,1.388-1.388,1.388h-2.775c-0.766,0-1.388-0.622-1.388-1.388V98.562z"/>
			<path style="fill:#FFFFFF;" d="M287.364,98.562c0-0.767,0.621-1.388,1.388-1.388h2.775c0.766,0,1.388,0.621,1.388,1.388v5.551
				c0,0.766-0.622,1.388-1.388,1.388h-2.775c-0.767,0-1.388-0.622-1.388-1.388V98.562z"/>
			<path style="fill:#FFFFFF;" d="M266.014,98.562c0-0.767,0.621-1.388,1.388-1.388h2.775c0.766,0,1.388,0.621,1.388,1.388v5.551
				c0,0.766-0.622,1.388-1.388,1.388h-2.775c-0.767,0-1.388-0.622-1.388-1.388V98.562z"/>
			<path style="fill:#FFFFFF;" d="M244.665,98.562c0-0.767,0.621-1.388,1.388-1.388h2.775c0.767,0,1.388,0.621,1.388,1.388v5.551
				c0,0.766-0.621,1.388-1.388,1.388h-2.775c-0.767,0-1.388-0.622-1.388-1.388V98.562z"/>
			<path style="fill:#FFFFFF;" d="M223.315,98.562c0-0.767,0.622-1.388,1.388-1.388h2.775c0.767,0,1.388,0.621,1.388,1.388v5.551
				c0,0.766-0.621,1.388-1.388,1.388h-2.775c-0.766,0-1.388-0.622-1.388-1.388V98.562z"/>
			<path style="fill:#FFFFFF;" d="M201.966,98.562c0-0.767,0.621-1.388,1.388-1.388h2.775c0.766,0,1.388,0.621,1.388,1.388v5.551
				c0,0.766-0.622,1.388-1.388,1.388h-2.775c-0.767,0-1.388-0.622-1.388-1.388V98.562z"/>
			<path style="fill:#FFFFFF;" d="M180.616,98.562c0-0.767,0.621-1.388,1.388-1.388h2.775c0.766,0,1.388,0.621,1.388,1.388v5.551
				c0,0.766-0.622,1.388-1.388,1.388h-2.775c-0.767,0-1.388-0.622-1.388-1.388V98.562z"/>
			<path style="fill:#FFFFFF;" d="M159.267,98.562c0-0.767,0.621-1.388,1.388-1.388h2.775c0.767,0,1.388,0.621,1.388,1.388v5.551
				c0,0.766-0.621,1.388-1.388,1.388h-2.775c-0.767,0-1.388-0.622-1.388-1.388V98.562z"/>
			<path style="fill:#FFFFFF;" d="M137.917,98.562c0-0.767,0.621-1.388,1.387-1.388h2.775c0.767,0,1.388,0.621,1.388,1.388v5.551
				c0,0.766-0.622,1.388-1.388,1.388h-2.775c-0.766,0-1.387-0.622-1.387-1.388V98.562z"/>
			<path style="fill:#FFFFFF;" d="M116.568,98.562c0-0.767,0.621-1.388,1.388-1.388h2.775c0.766,0,1.388,0.621,1.388,1.388v5.551
				c0,0.766-0.622,1.388-1.388,1.388h-2.775c-0.767,0-1.388-0.622-1.388-1.388V98.562z"/>
			<path style="fill:#FFFFFF;" d="M95.218,98.562c0-0.767,0.621-1.388,1.388-1.388h2.775c0.766,0,1.388,0.621,1.388,1.388v5.551
				c0,0.766-0.622,1.388-1.388,1.388h-2.775c-0.767,0-1.388-0.622-1.388-1.388V98.562z"/>
			<path style="fill:#FFFFFF;" d="M73.869,98.562c0-0.767,0.622-1.388,1.388-1.388h2.775c0.767,0,1.388,0.621,1.388,1.388v5.551
				c0,0.766-0.621,1.388-1.388,1.388h-2.775c-0.766,0-1.388-0.622-1.388-1.388V98.562z"/>
			<path style="fill:#FFFFFF;" d="M52.519,98.562c0-0.767,0.622-1.388,1.388-1.388h2.775c0.767,0,1.388,0.621,1.388,1.388v5.551
				c0,0.766-0.621,1.388-1.388,1.388h-2.775c-0.766,0-1.388-0.622-1.388-1.388V98.562z"/>
			<path style="fill:#FFFFFF;" d="M31.17,98.562c0-0.767,0.621-1.388,1.388-1.388h2.775c0.766,0,1.388,0.621,1.388,1.388v5.551
				c0,0.766-0.622,1.388-1.388,1.388h-2.775c-0.767,0-1.388-0.622-1.388-1.388V98.562z"/>
			<path style="fill:#FFFFFF;" d="M9.82,98.562c0-0.767,0.621-1.388,1.388-1.388h2.775c0.766,0,1.388,0.621,1.388,1.388v5.551
				c0,0.766-0.622,1.388-1.388,1.388h-2.775c-0.767,0-1.388-0.622-1.388-1.388V98.562z"/>
		</g>
		<g>
			<path style="fill:#FFFFFF;" d="M308.713,5.905c0-0.766,0.622-1.388,1.388-1.388h2.775c0.767,0,1.388,0.622,1.388,1.388v5.551
				c0,0.766-0.621,1.388-1.388,1.388h-2.775c-0.766,0-1.388-0.622-1.388-1.388V5.905z"/>
			<path style="fill:#FFFFFF;" d="M287.364,5.905c0-0.766,0.621-1.388,1.388-1.388h2.775c0.766,0,1.388,0.622,1.388,1.388v5.551
				c0,0.766-0.622,1.388-1.388,1.388h-2.775c-0.767,0-1.388-0.622-1.388-1.388V5.905z"/>
			<path style="fill:#FFFFFF;" d="M266.014,5.905c0-0.766,0.621-1.388,1.388-1.388h2.775c0.766,0,1.388,0.622,1.388,1.388v5.551
				c0,0.766-0.622,1.388-1.388,1.388h-2.775c-0.767,0-1.388-0.622-1.388-1.388V5.905z"/>
			<path style="fill:#FFFFFF;" d="M244.665,5.905c0-0.766,0.621-1.388,1.388-1.388h2.775c0.767,0,1.388,0.622,1.388,1.388v5.551
				c0,0.766-0.621,1.388-1.388,1.388h-2.775c-0.767,0-1.388-0.622-1.388-1.388V5.905z"/>
			<path style="fill:#FFFFFF;" d="M223.315,5.905c0-0.766,0.622-1.388,1.388-1.388h2.775c0.767,0,1.388,0.622,1.388,1.388v5.551
				c0,0.766-0.621,1.388-1.388,1.388h-2.775c-0.766,0-1.388-0.622-1.388-1.388V5.905z"/>
			<path style="fill:#FFFFFF;" d="M201.966,5.905c0-0.766,0.621-1.388,1.388-1.388h2.775c0.766,0,1.388,0.622,1.388,1.388v5.551
				c0,0.766-0.622,1.388-1.388,1.388h-2.775c-0.767,0-1.388-0.622-1.388-1.388V5.905z"/>
			<path style="fill:#FFFFFF;" d="M180.616,5.905c0-0.766,0.621-1.388,1.388-1.388h2.775c0.766,0,1.388,0.622,1.388,1.388v5.551
				c0,0.766-0.622,1.388-1.388,1.388h-2.775c-0.767,0-1.388-0.622-1.388-1.388V5.905z"/>
			<path style="fill:#FFFFFF;" d="M159.267,5.905c0-0.766,0.621-1.388,1.388-1.388h2.775c0.767,0,1.388,0.622,1.388,1.388v5.551
				c0,0.766-0.621,1.388-1.388,1.388h-2.775c-0.767,0-1.388-0.622-1.388-1.388V5.905z"/>
			<path style="fill:#FFFFFF;" d="M137.917,5.905c0-0.766,0.621-1.388,1.387-1.388h2.775c0.767,0,1.388,0.622,1.388,1.388v5.551
				c0,0.766-0.622,1.388-1.388,1.388h-2.775c-0.766,0-1.387-0.622-1.387-1.388V5.905z"/>
			<path style="fill:#FFFFFF;" d="M116.568,5.905c0-0.766,0.621-1.388,1.388-1.388h2.775c0.766,0,1.388,0.622,1.388,1.388v5.551
				c0,0.766-0.622,1.388-1.388,1.388h-2.775c-0.767,0-1.388-0.622-1.388-1.388V5.905z"/>
			<path style="fill:#FFFFFF;" d="M95.218,5.905c0-0.766,0.621-1.388,1.388-1.388h2.775c0.766,0,1.388,0.622,1.388,1.388v5.551
				c0,0.766-0.622,1.388-1.388,1.388h-2.775c-0.767,0-1.388-0.622-1.388-1.388V5.905z"/>
			<path style="fill:#FFFFFF;" d="M73.869,5.905c0-0.766,0.622-1.388,1.388-1.388h2.775c0.767,0,1.388,0.622,1.388,1.388v5.551
				c0,0.766-0.621,1.388-1.388,1.388h-2.775c-0.766,0-1.388-0.622-1.388-1.388V5.905z"/>
			<path style="fill:#FFFFFF;" d="M52.519,5.905c0-0.766,0.622-1.388,1.388-1.388h2.775c0.767,0,1.388,0.622,1.388,1.388v5.551
				c0,0.766-0.621,1.388-1.388,1.388h-2.775c-0.766,0-1.388-0.622-1.388-1.388V5.905z"/>
			<path style="fill:#FFFFFF;" d="M31.17,5.905c0-0.766,0.621-1.388,1.388-1.388h2.775c0.766,0,1.388,0.622,1.388,1.388v5.551
				c0,0.766-0.622,1.388-1.388,1.388h-2.775c-0.767,0-1.388-0.622-1.388-1.388V5.905z"/>
			<path style="fill:#FFFFFF;" d="M9.82,5.905c0-0.766,0.621-1.388,1.388-1.388h2.775c0.766,0,1.388,0.622,1.388,1.388v5.551
				c0,0.766-0.622,1.388-1.388,1.388h-2.775c-0.767,0-1.388-0.622-1.388-1.388V5.905z"/>
		</g>
		<rect y="10.031" style="fill:none;" width="320.315" height="2.834"/> 
		<g>
			<g>
				<g>
					<text transform="matrix(1 0 0 1 8.0532 30.2622)"><tspan x="0" y="0" style="font-family:Bitstream Vera Sans; font-size:7.650000;">(1)</tspan></text>
				</g>
			</g>
		</g>
		<g>
			<g>
				<g>
					<text transform="matrix(1 0 0 1 8.0532 153.2622)"><tspan x="0" y="0" style="font-family:Bitstream Vera Sans; font-size:7.650000;">(2)</tspan></text>
				</g>
			</g>
		</g>
		<circle style="fill:#DCDCDC;stroke:#000000;stroke-width:0.5;" cx="224.168" cy="71.425" r="5.281"/> 
		<circle style="fill:#DCDCDC;stroke:#000000;stroke-width:0.5;" cx="288.218" cy="74.505" r="5.281"/> 
		<circle style="fill:#B4B4B4;stroke:#000000;stroke-width:0.5;" cx="224.17" cy="50.921" r="1.553"/> 
		<circle style="fill:#B4B4B4;stroke:#000000;stroke-width:0.5;" cx="288.219" cy="39.421" r="1.553"/> 
		<circle style="fill:#DCDCDC;stroke:#000000;stroke-width:0.5;" cx="160.122" cy="68.734" r="5.281"/> 
		<circle style="fill:#DCDCDC;stroke:#000000;stroke-width:0.5;" cx="95.071" cy="71.05" r="5.281"/> 
		<circle style="fill:#DCDCDC;stroke:#000000;stroke-width:0.5;" cx="32.025" cy="73.887" r="5.281"/> 
		<circle style="fill:#B4B4B4;stroke:#000000;stroke-width:0.5;" cx="160.123" cy="61.921" r="1.553"/> 
		<circle style="fill:#B4B4B4;stroke:#000000;stroke-width:0.5;" cx="95.5" cy="49.921" r="1.553"/> 
		<circle style="fill:#B4B4B4;stroke:#000000;stroke-width:0.5;" cx="32.024" cy="38.975" r="1.553"/> 
		<path style="fill:#DCDCDC;" d="M90.643,215.583h9.757c-0.792-1.916-2.676-3.266-4.878-3.266S91.436,213.667,90.643,215.583z"/>
		<path style="fill:none;stroke:#000000;stroke-width:0.5;" d="M100.396,215.429c-0.792-1.916-2.676-3.266-4.878-3.266
			s-4.086,1.35-4.879,3.266"/>
	</g>
</svg>
