<?xml version="1.0" encoding="iso-8859-1"?>
<!-- Generator: Adobe Illustrator 11 Build 196, SVG Export Plug-In . SVG Version: 6.0.0 Build 78)  -->
<!DOCTYPE svg PUBLIC "-//W3C//DTD SVG 1.0//EN"    "http://www.w3.org/TR/2001/REC-SVG-20010904/DTD/svg10.dtd" [
	<!ENTITY ns_flows "http://ns.adobe.com/Flows/1.0/">
	<!ENTITY ns_svg "http://www.w3.org/2000/svg">
	<!ENTITY ns_xlink "http://www.w3.org/1999/xlink">
]>
<svg  
	 width="320.315" height="111.018" viewBox="0 0 320.315 111.018"
	 style="overflow:visible;enable-background:new 0 0 320.315 111.018" xml:space="preserve">
	<g id="Layer_1">
		<rect x="0.001" width="320.241" height="111.017"/> 
		<rect x="0" width="64.049" height="111.018"/> 
		<rect x="5.338" y="19.214" style="fill:#FFFFFF;" width="53.374" height="72.589"/> 
		<rect x="64.049" width="64.048" height="111.018"/> 
		<rect x="69.386" y="19.214" style="fill:#FFFFFF;" width="53.374" height="72.589"/> 
		<rect x="128.098" width="64.048" height="111.018"/> 
		<rect x="133.388" y="19.355" style="fill:#FFFFFF;" width="53.374" height="72.589"/> 
		<rect x="192.146" width="64.048" height="111.018"/> 
		<rect x="197.483" y="19.214" style="fill:#FFFFFF;" width="53.374" height="72.589"/> 
		<rect x="256.194" width="64.048" height="111.018"/> 
		<rect x="261.532" y="19.214" style="fill:#FFFFFF;" width="53.374" height="72.589"/> 
		<ellipse style="fill:#DCDCDC;stroke:#000000;stroke-width:0.5;" cx="224.168" cy="67.121" rx="5.281" ry="3.539"/> 
		<ellipse style="fill:#DCDCDC;stroke:#000000;stroke-width:0.5;" cx="287.616" cy="56.784" rx="5.281" ry="3.538"/> 
		<ellipse style="fill:#B4B4B4;stroke:#000000;stroke-width:0.5;" cx="224.17" cy="60.986" rx="1.553" ry="0.311"/> 
		<ellipse style="fill:#B4B4B4;stroke:#000000;stroke-width:0.5;" cx="287.616" cy="48.986" rx="1.553" ry="0.311"/> 
		<ellipse style="fill:#DCDCDC;stroke:#000000;stroke-width:0.5;" cx="160.205" cy="77.158" rx="5.281" ry="2.958"/> 
		<circle style="fill:#B4B4B4;stroke:#000000;stroke-width:0.5;" cx="160.206" cy="72.013" r="1.553"/> 
		<circle style="fill:#B4B4B4;stroke:#000000;stroke-width:0.5;" cx="95.947" cy="72.566" r="1.553"/> 
		<circle style="fill:#B4B4B4;stroke:#000000;stroke-width:0.5;" cx="32.025" cy="72.846" r="1.553"/> 
		<g>
			<path style="fill:#FFFFFF;" d="M308.713,98.562c0-0.766,0.622-1.388,1.388-1.388h2.775c0.767,0,1.388,0.622,1.388,1.388v5.551
				c0,0.766-0.622,1.387-1.388,1.387h-2.775c-0.766,0-1.388-0.621-1.388-1.387V98.562z"/>
			<path style="fill:#FFFFFF;" d="M287.364,98.562c0-0.766,0.621-1.388,1.388-1.388h2.775c0.767,0,1.388,0.622,1.388,1.388v5.551
				c0,0.766-0.621,1.387-1.388,1.387h-2.775c-0.767,0-1.388-0.621-1.388-1.387V98.562z"/>
			<path style="fill:#FFFFFF;" d="M266.014,98.562c0-0.766,0.622-1.388,1.388-1.388h2.775c0.767,0,1.388,0.622,1.388,1.388v5.551
				c0,0.766-0.622,1.387-1.388,1.387h-2.775c-0.766,0-1.388-0.621-1.388-1.387V98.562z"/>
			<path style="fill:#FFFFFF;" d="M244.665,98.562c0-0.766,0.622-1.388,1.388-1.388h2.775c0.767,0,1.388,0.622,1.388,1.388v5.551
				c0,0.766-0.621,1.387-1.388,1.387h-2.775c-0.766,0-1.388-0.621-1.388-1.387V98.562z"/>
			<path style="fill:#FFFFFF;" d="M223.315,98.562c0-0.766,0.621-1.388,1.388-1.388h2.775c0.766,0,1.388,0.622,1.388,1.388v5.551
				c0,0.766-0.622,1.387-1.388,1.387h-2.775c-0.767,0-1.388-0.621-1.388-1.387V98.562z"/>
			<path style="fill:#FFFFFF;" d="M201.966,98.562c0-0.766,0.621-1.388,1.388-1.388h2.775c0.767,0,1.388,0.622,1.388,1.388v5.551
				c0,0.766-0.621,1.387-1.388,1.387h-2.775c-0.767,0-1.388-0.621-1.388-1.387V98.562z"/>
			<path style="fill:#FFFFFF;" d="M180.616,98.562c0-0.766,0.622-1.388,1.388-1.388h2.775c0.767,0,1.388,0.622,1.388,1.388v5.551
				c0,0.766-0.621,1.387-1.388,1.387h-2.775c-0.766,0-1.388-0.621-1.388-1.387V98.562z"/>
			<path style="fill:#FFFFFF;" d="M159.267,98.562c0-0.766,0.622-1.388,1.388-1.388h2.775c0.767,0,1.388,0.622,1.388,1.388v5.551
				c0,0.766-0.622,1.387-1.388,1.387h-2.775c-0.767,0-1.388-0.621-1.388-1.387V98.562z"/>
			<path style="fill:#FFFFFF;" d="M137.917,98.562c0-0.766,0.621-1.388,1.388-1.388h2.775c0.766,0,1.388,0.622,1.388,1.388v5.551
				c0,0.766-0.622,1.387-1.388,1.387h-2.775c-0.767,0-1.388-0.621-1.388-1.387V98.562z"/>
			<path style="fill:#FFFFFF;" d="M116.568,98.562c0-0.766,0.621-1.388,1.388-1.388h2.775c0.767,0,1.388,0.622,1.388,1.388v5.551
				c0,0.766-0.621,1.387-1.388,1.387h-2.775c-0.767,0-1.388-0.621-1.388-1.387V98.562z"/>
			<path style="fill:#FFFFFF;" d="M95.218,98.562c0-0.766,0.622-1.388,1.388-1.388h2.775c0.767,0,1.388,0.622,1.388,1.388v5.551
				c0,0.766-0.622,1.387-1.388,1.387h-2.775c-0.767,0-1.388-0.621-1.388-1.387V98.562z"/>
			<path style="fill:#FFFFFF;" d="M73.869,98.562c0-0.766,0.621-1.388,1.388-1.388h2.775c0.766,0,1.388,0.622,1.388,1.388v5.551
				c0,0.766-0.622,1.387-1.388,1.387h-2.775c-0.767,0-1.388-0.621-1.388-1.387V98.562z"/>
			<path style="fill:#FFFFFF;" d="M52.52,98.562c0-0.766,0.621-1.388,1.388-1.388h2.775c0.766,0,1.388,0.622,1.388,1.388v5.551
				c0,0.766-0.622,1.387-1.388,1.387h-2.775c-0.767,0-1.388-0.621-1.388-1.387V98.562z"/>
			<path style="fill:#FFFFFF;" d="M31.17,98.562c0-0.766,0.621-1.388,1.388-1.388h2.775c0.767,0,1.388,0.622,1.388,1.388v5.551
				c0,0.766-0.621,1.387-1.388,1.387h-2.775c-0.767,0-1.388-0.621-1.388-1.387V98.562z"/>
			<path style="fill:#FFFFFF;" d="M9.821,98.562c0-0.766,0.621-1.388,1.387-1.388h2.776c0.766,0,1.387,0.622,1.387,1.388v5.551
				c0,0.766-0.621,1.387-1.387,1.387h-2.776c-0.766,0-1.387-0.621-1.387-1.387V98.562z"/>
		</g>
		<g>
			<path style="fill:#FFFFFF;" d="M308.713,5.905c0-0.766,0.622-1.388,1.388-1.388h2.775c0.767,0,1.388,0.622,1.388,1.388v5.551
				c0,0.767-0.622,1.388-1.388,1.388h-2.775c-0.766,0-1.388-0.621-1.388-1.388V5.905z"/>
			<path style="fill:#FFFFFF;" d="M287.364,5.905c0-0.766,0.621-1.388,1.388-1.388h2.775c0.767,0,1.388,0.622,1.388,1.388v5.551
				c0,0.767-0.621,1.388-1.388,1.388h-2.775c-0.767,0-1.388-0.621-1.388-1.388V5.905z"/>
			<path style="fill:#FFFFFF;" d="M266.014,5.905c0-0.766,0.622-1.388,1.388-1.388h2.775c0.767,0,1.388,0.622,1.388,1.388v5.551
				c0,0.767-0.622,1.388-1.388,1.388h-2.775c-0.766,0-1.388-0.621-1.388-1.388V5.905z"/>
			<path style="fill:#FFFFFF;" d="M244.665,5.905c0-0.766,0.622-1.388,1.388-1.388h2.775c0.767,0,1.388,0.622,1.388,1.388v5.551
				c0,0.767-0.621,1.388-1.388,1.388h-2.775c-0.766,0-1.388-0.621-1.388-1.388V5.905z"/>
			<path style="fill:#FFFFFF;" d="M223.315,5.905c0-0.766,0.621-1.388,1.388-1.388h2.775c0.766,0,1.388,0.622,1.388,1.388v5.551
				c0,0.767-0.622,1.388-1.388,1.388h-2.775c-0.767,0-1.388-0.621-1.388-1.388V5.905z"/>
			<path style="fill:#FFFFFF;" d="M201.966,5.905c0-0.766,0.621-1.388,1.388-1.388h2.775c0.767,0,1.388,0.622,1.388,1.388v5.551
				c0,0.767-0.621,1.388-1.388,1.388h-2.775c-0.767,0-1.388-0.621-1.388-1.388V5.905z"/>
			<path style="fill:#FFFFFF;" d="M180.616,5.905c0-0.766,0.622-1.388,1.388-1.388h2.775c0.767,0,1.388,0.622,1.388,1.388v5.551
				c0,0.767-0.621,1.388-1.388,1.388h-2.775c-0.766,0-1.388-0.621-1.388-1.388V5.905z"/>
			<path style="fill:#FFFFFF;" d="M159.267,5.905c0-0.766,0.622-1.388,1.388-1.388h2.775c0.767,0,1.388,0.622,1.388,1.388v5.551
				c0,0.767-0.622,1.388-1.388,1.388h-2.775c-0.767,0-1.388-0.621-1.388-1.388V5.905z"/>
			<path style="fill:#FFFFFF;" d="M137.917,5.905c0-0.766,0.621-1.388,1.388-1.388h2.775c0.766,0,1.388,0.622,1.388,1.388v5.551
				c0,0.767-0.622,1.388-1.388,1.388h-2.775c-0.767,0-1.388-0.621-1.388-1.388V5.905z"/>
			<path style="fill:#FFFFFF;" d="M116.568,5.905c0-0.766,0.621-1.388,1.388-1.388h2.775c0.767,0,1.388,0.622,1.388,1.388v5.551
				c0,0.767-0.621,1.388-1.388,1.388h-2.775c-0.767,0-1.388-0.621-1.388-1.388V5.905z"/>
			<path style="fill:#FFFFFF;" d="M95.218,5.905c0-0.766,0.622-1.388,1.388-1.388h2.775c0.767,0,1.388,0.622,1.388,1.388v5.551
				c0,0.767-0.622,1.388-1.388,1.388h-2.775c-0.767,0-1.388-0.621-1.388-1.388V5.905z"/>
			<path style="fill:#FFFFFF;" d="M73.869,5.905c0-0.766,0.621-1.388,1.388-1.388h2.775c0.766,0,1.388,0.622,1.388,1.388v5.551
				c0,0.767-0.622,1.388-1.388,1.388h-2.775c-0.767,0-1.388-0.621-1.388-1.388V5.905z"/>
			<path style="fill:#FFFFFF;" d="M52.52,5.905c0-0.766,0.621-1.388,1.388-1.388h2.775c0.766,0,1.388,0.622,1.388,1.388v5.551
				c0,0.767-0.622,1.388-1.388,1.388h-2.775c-0.767,0-1.388-0.621-1.388-1.388V5.905z"/>
			<path style="fill:#FFFFFF;" d="M31.17,5.905c0-0.766,0.621-1.388,1.388-1.388h2.775c0.767,0,1.388,0.622,1.388,1.388v5.551
				c0,0.767-0.621,1.388-1.388,1.388h-2.775c-0.767,0-1.388-0.621-1.388-1.388V5.905z"/>
			<path style="fill:#FFFFFF;" d="M9.821,5.905c0-0.766,0.621-1.388,1.387-1.388h2.776c0.766,0,1.387,0.622,1.387,1.388v5.551
				c0,0.767-0.621,1.388-1.387,1.388h-2.776c-0.766,0-1.387-0.621-1.387-1.388V5.905z"/>
		</g>
		<rect y="10.031" style="fill:none;" width="320.315" height="2.835"/> 
		<ellipse style="fill:#DCDCDC;stroke:#000000;stroke-width:0.5;" cx="95.658" cy="91.884" rx="5.281" ry="2.958"/> 
		<rect x="87.033" y="92.05" width="18.375" height="4"/> 
	</g>
</svg>
