<?xml version="1.0" encoding="UTF-8" standalone="no"?>
<!-- Created with Inkscape (http://www.inkscape.org/) -->
<svg
   xmlns:dc="http://purl.org/dc/elements/1.1/"
   xmlns:cc="http://creativecommons.org/ns#"
   xmlns:rdf="http://www.w3.org/1999/02/22-rdf-syntax-ns#"
   xmlns:svg="http://www.w3.org/2000/svg"
   xmlns="http://www.w3.org/2000/svg"
   xmlns:xlink="http://www.w3.org/1999/xlink"
   xmlns:sodipodi="http://sodipodi.sourceforge.net/DTD/sodipodi-0.dtd"
   xmlns:inkscape="http://www.inkscape.org/namespaces/inkscape"
   width="744.09448819"
   height="1052.3622047"
   id="svg2"
   sodipodi:version="0.32"
   inkscape:version="0.46"
   sodipodi:docname="gravity-probe-b-frame-dragging.svg"
   inkscape:output_extension="org.inkscape.output.svg.inkscape">
  <defs
     id="defs4">
    <marker
       inkscape:stockid="Arrow2Mend"
       orient="auto"
       refY="0.0"
       refX="0.0"
       id="Arrow2Mend"
       style="overflow:visible;">
      <path
         id="path3235"
         style="font-size:12.0;fill-rule:evenodd;stroke-width:0.62500000;stroke-linejoin:round;"
         d="M 8.7185878,4.0337352 L -2.2072895,0.016013256 L 8.7185884,-4.0017078 C 6.9730900,-1.6296469 6.9831476,1.6157441 8.7185878,4.0337352 z "
         transform="scale(0.6) rotate(180) translate(0,0)" />
    </marker>
    <linearGradient
       id="linearGradient3173">
      <stop
         style="stop-color:#ffffff;stop-opacity:1;"
         offset="0"
         id="stop3175" />
      <stop
         id="stop3181"
         offset="0.5"
         style="stop-color:#000000;stop-opacity:1;" />
      <stop
         style="stop-color:#000000;stop-opacity:1;"
         offset="1"
         id="stop3177" />
    </linearGradient>
    <inkscape:perspective
       sodipodi:type="inkscape:persp3d"
       inkscape:vp_x="0 : 526.18109 : 1"
       inkscape:vp_y="0 : 1000 : 0"
       inkscape:vp_z="744.09448 : 526.18109 : 1"
       inkscape:persp3d-origin="372.04724 : 350.78739 : 1"
       id="perspective10" />
    <inkscape:perspective
       id="perspective2427"
       inkscape:persp3d-origin="372.04724 : 350.78739 : 1"
       inkscape:vp_z="744.09448 : 526.18109 : 1"
       inkscape:vp_y="0 : 1000 : 0"
       inkscape:vp_x="0 : 526.18109 : 1"
       sodipodi:type="inkscape:persp3d" />
    <radialGradient
       inkscape:collect="always"
       xlink:href="#linearGradient3173"
       id="radialGradient4007"
       gradientUnits="userSpaceOnUse"
       cx="243.20241"
       cy="514.15546"
       fx="243.20241"
       fy="514.15546"
       r="7.6137986" />
  </defs>
  <sodipodi:namedview
     id="base"
     pagecolor="#ffffff"
     bordercolor="#666666"
     borderopacity="1.0"
     gridtolerance="10000"
     guidetolerance="10"
     objecttolerance="10"
     inkscape:pageopacity="0.0"
     inkscape:pageshadow="2"
     inkscape:zoom="2.0895917"
     inkscape:cx="104.88643"
     inkscape:cy="429.08085"
     inkscape:document-units="px"
     inkscape:current-layer="layer1"
     showgrid="false"
     inkscape:window-width="1278"
     inkscape:window-height="996"
     inkscape:window-x="3"
     inkscape:window-y="3" />
  <metadata
     id="metadata7">
    <rdf:RDF>
      <cc:Work
         rdf:about="">
        <dc:format>image/svg+xml</dc:format>
        <dc:type
           rdf:resource="http://purl.org/dc/dcmitype/StillImage" />
      </cc:Work>
    </rdf:RDF>
  </metadata>
  <g
     inkscape:label="Layer 1"
     inkscape:groupmode="layer"
     id="layer1">
    <rect
       style="opacity:1;fill:#dedede;fill-opacity:1;fill-rule:evenodd;stroke:none;stroke-width:0.875;stroke-linecap:butt;stroke-linejoin:miter;marker:none;marker-start:none;marker-mid:none;marker-end:none;stroke-miterlimit:4;stroke-dasharray:none;stroke-dashoffset:0;stroke-opacity:1;visibility:visible;display:inline;overflow:visible;enable-background:accumulate"
       id="rect4023"
       width="184.25197"
       height="154.84752"
       x="16.769615"
       y="637.65118" />
    <rect
       style="opacity:1;fill:#dedede;fill-opacity:1;fill-rule:evenodd;stroke:none;stroke-width:0.875;stroke-linecap:butt;stroke-linejoin:miter;marker:none;marker-start:none;marker-mid:none;marker-end:none;stroke-miterlimit:4;stroke-dasharray:none;stroke-dashoffset:0;stroke-opacity:1;visibility:visible;display:inline;overflow:visible;enable-background:accumulate"
       id="rect3453"
       width="184.25197"
       height="183.30222"
       x="16.695219"
       y="446.14102" />
    <g
       id="g3470"
       transform="translate(-0.7823383,-6.890488)">
      <path
         transform="matrix(0.3011193,0,0,0.3011193,53.300307,378.16204)"
         d="M 423.23358,535.81146 A 139.60831,139.60831 0 1 1 144.01697,535.81146 A 139.60831,139.60831 0 1 1 423.23358,535.81146 z"
         sodipodi:ry="139.60831"
         sodipodi:rx="139.60831"
         sodipodi:cy="535.81146"
         sodipodi:cx="283.62527"
         id="path3233"
         style="fill:#ffffff;fill-opacity:1;fill-rule:evenodd;stroke:none;stroke-width:0.90810138;stroke-linecap:butt;stroke-linejoin:miter;marker:none;marker-start:none;marker-mid:none;marker-end:none;stroke-miterlimit:4;stroke-dasharray:none;stroke-dashoffset:0;stroke-opacity:1;visibility:visible;display:inline;overflow:visible;enable-background:accumulate"
         sodipodi:type="arc" />
      <path
         id="path3205"
         d="M 129.78031,498.48088 C 129.63164,498.55521 129.48297,498.62955 129.33429,498.70389 C 128.96894,498.88656 128.75131,499.27414 128.33075,499.48442 C 127.79296,499.75331 127.70791,500.00252 127.1042,500.15345 C 126.69663,500.25534 126.22586,500.67283 125.87765,500.93398 C 125.55427,501.17651 124.9168,501.51524 124.6511,501.71451 C 124.24153,502.02169 123.87445,502.27009 123.42454,502.49505 C 122.85327,502.78068 122.4379,503.25868 121.97498,503.7216 C 121.46028,504.23631 121.34592,504.42219 121.08295,504.94815 C 120.71874,505.67657 121.03184,505.85529 121.41746,505.95169 C 121.86729,506.06415 123.0701,504.76797 123.42454,504.50213 C 124.02,504.05554 124.80935,503.80973 125.43163,503.49859 C 125.96573,503.23154 126.74471,503.08669 127.32721,502.94107 C 127.92459,502.79172 128.3605,502.49505 128.99978,502.49505 C 129.64763,502.49505 130.03161,502.47383 130.44934,502.16053 C 130.92775,501.80172 130.68823,501.26055 131.34138,500.93398 C 131.90507,500.65214 132.55729,500.54904 133.12545,500.26495 C 133.83336,499.911 134.46851,499.87094 135.13254,499.37292 C 135.59153,499.02867 136.28026,498.94661 136.80511,498.81539 C 137.50773,498.63974 137.77304,498.79758 138.25467,499.0384 C 138.65538,499.23876 139.1545,498.59043 139.59273,498.48088 C 140.29958,498.30416 140.67757,498.20119 141.3768,498.48088 C 141.94245,498.70714 142.66738,498.59238 143.27238,498.59238 C 143.70521,498.59238 144.20577,498.35903 144.61044,498.25787 C 144.88505,498.18921 145.11636,497.99201 145.39097,497.92335"
         style="fill:none;fill-opacity:0.75;fill-rule:evenodd;stroke:#5f5f5f;stroke-width:0.5025;stroke-linecap:butt;stroke-linejoin:miter;marker:none;marker-start:none;marker-mid:none;marker-end:none;stroke-miterlimit:4;stroke-dasharray:none;stroke-dashoffset:0;stroke-opacity:1;visibility:visible;display:inline;overflow:visible;enable-background:accumulate" />
      <path
         id="path3207"
         d="M 122.97852,501.38 C 123.64342,501.21378 121.90208,502.23344 121.41746,502.71806 C 121.05564,503.07987 120.45393,503.18195 120.0794,503.27558 C 119.69827,503.37087 119.09483,503.38234 118.62984,503.49859 C 118.22624,503.59949 117.87561,503.98721 117.5148,504.16762 C 116.99778,504.42612 116.58291,504.54198 116.28824,504.83665 C 116.26196,504.86293 116.28824,504.91098 116.28824,504.94815 C 116.28824,505.38658 115.83456,506.07086 115.61922,506.28621 C 115.59293,506.31249 115.61922,506.36054 115.61922,506.39771 C 115.61922,506.55946 114.56839,507.26946 114.39267,507.40126 C 113.98223,507.70908 113.84987,507.94405 113.50063,508.29329 C 113.07862,508.7153 112.96183,508.88741 112.8316,509.40834 C 112.73345,509.80092 112.23787,510.08642 111.82806,510.18887 C 111.41273,510.2927 111.11797,510.2094 110.71301,510.41188 C 110.25707,510.63985 110.01973,511.01791 109.82097,511.41542 C 109.67301,511.71135 109.30085,512.15855 109.04044,512.41897 C 108.67917,512.78023 108.53527,513.37016 108.25991,513.64552 C 108.03853,513.86689 107.22724,513.75702 106.81035,513.75702 C 106.47548,513.75702 105.85324,514.49112 105.58379,514.76056 C 105.19987,515.14448 104.96146,515.4944 104.58025,515.87561 C 104.14378,516.31208 103.8625,516.81637 103.57671,517.10216 C 103.20883,517.47004 103.03164,517.64723 102.79617,517.8827"
         style="fill:none;fill-opacity:0.75;fill-rule:evenodd;stroke:#5f5f5f;stroke-width:0.5025;stroke-linecap:butt;stroke-linejoin:miter;marker:none;marker-start:none;marker-mid:none;marker-end:none;stroke-miterlimit:4;stroke-dasharray:none;stroke-dashoffset:0;stroke-opacity:1;visibility:visible;display:inline;overflow:visible;enable-background:accumulate" />
      <path
         id="path3209"
         d="M 111.60505,511.30392 C 111.10471,511.80425 110.63302,511.24088 110.15549,512.19595 C 109.79035,512.92622 109.98274,513.11861 110.71301,512.75348 C 111.21827,512.50085 111.59486,512.42916 111.93956,512.08445 C 111.96584,512.05817 112.0139,512.08445 112.05107,512.08445 C 112.55124,512.08445 112.60859,511.36099 112.60859,511.19241 C 112.60859,510.5085 110.86585,511.37408 110.71301,511.52693"
         style="fill:none;fill-opacity:0.75;fill-rule:evenodd;stroke:#5f5f5f;stroke-width:0.5025;stroke-linecap:butt;stroke-linejoin:miter;marker:none;marker-start:none;marker-mid:none;marker-end:none;stroke-miterlimit:4;stroke-dasharray:none;stroke-dashoffset:0;stroke-opacity:1;visibility:visible;display:inline;overflow:visible;enable-background:accumulate" />
      <path
         id="path3211"
         d="M 97.44395,536.83849 C 97.44395,536.83849 97.44395,536.83849 97.44395,536.83849 z"
         style="fill:none;fill-opacity:0.75;fill-rule:evenodd;stroke:#5f5f5f;stroke-width:0.5025;stroke-linecap:butt;stroke-linejoin:miter;marker:none;marker-start:none;marker-mid:none;marker-end:none;stroke-miterlimit:4;stroke-dasharray:none;stroke-dashoffset:0;stroke-opacity:1;visibility:visible;display:inline;overflow:visible;enable-background:accumulate" />
      <path
         id="path3213"
         d="M 96.886428,536.95 C 96.886428,536.31487 97.401412,538.11791 97.555456,538.73407 C 97.688855,539.26767 97.778464,539.60526 97.778464,540.18364 C 97.778464,540.74296 97.78174,541.20027 97.88997,541.63319 C 98.046148,542.25791 97.917424,542.44118 98.335985,542.85975 C 98.584748,543.10851 98.761806,543.62008 99.005019,543.86329 C 99.303927,544.1622 99.485088,544.60042 99.674047,544.97834 C 99.988328,545.6069 100.17349,545.8611 100.34307,546.5394 C 100.50603,547.19122 100.63292,547.81029 100.78909,548.43498 C 100.93146,549.00443 101.11082,549.49887 101.23511,549.99605 C 101.38746,550.60545 101.53266,551.18626 101.68113,551.78012 C 101.79791,552.24724 102.1544,552.81092 102.57317,553.22969 C 102.91763,553.57414 103.2552,553.81322 103.46521,554.23322 C 103.67876,554.66034 104.46623,555.0955 104.80326,555.34827 C 105.27921,555.70523 105.40972,555.95473 105.8068,556.35182 C 106.14645,556.69146 106.50331,557.15983 106.92185,557.57837 C 107.37255,558.02906 107.57835,558.22235 107.81389,558.69341 C 107.83051,558.72666 107.81389,558.76775 107.81389,558.80492 C 107.81389,559.04389 108.27316,559.86149 108.37141,560.25448 C 108.5014,560.77445 108.48292,561.34622 108.48292,561.92705 C 108.48292,562.27023 108.0075,562.84849 107.81389,563.0421 C 107.38179,563.47419 107.94838,564.22496 108.1484,564.49166 C 108.53994,565.01371 108.55273,565.43992 108.70592,566.05272 C 108.85614,566.6536 109.04044,567.06393 109.04044,567.72529 C 109.04044,568.47607 108.97268,568.77258 108.48292,568.28282 C 107.98567,567.78557 107.67679,567.45111 108.1484,568.39432 C 108.16502,568.42756 108.1484,568.46866 108.1484,568.50583 C 108.1484,568.7819 109.01494,569.56987 109.15194,569.84388"
         style="fill:none;fill-opacity:0.75;fill-rule:evenodd;stroke:#5f5f5f;stroke-width:0.5025;stroke-linecap:butt;stroke-linejoin:miter;marker:none;marker-start:none;marker-mid:none;marker-end:none;stroke-miterlimit:4;stroke-dasharray:none;stroke-dashoffset:0;stroke-opacity:1;visibility:visible;display:inline;overflow:visible;enable-background:accumulate" />
      <path
         id="path3215"
         d="M 148.84762,578.87576 C 148.74905,578.67863 148.59903,578.24697 148.4016,577.98373 C 148.13727,577.63129 147.63238,577.35997 147.50956,576.86868 C 147.40576,576.45351 147.29237,575.88841 147.17505,575.41912 C 147.06002,574.959 146.85756,574.48369 146.72903,573.96956 C 146.60357,573.46773 146.39451,572.98727 146.39451,572.52 C 146.39451,571.96192 146.39451,571.43599 146.39451,570.95893 C 146.39451,570.3648 146.44708,570.02747 146.84053,569.73238 C 147.06318,569.56539 148.06708,569.17552 148.06708,568.84034 C 148.06708,568.26991 147.96454,567.96623 147.73257,567.50229 C 147.54242,567.12197 147.5226,566.55092 147.39805,566.05272 C 147.27826,565.57354 147.16821,565.24483 147.06354,564.82617 C 146.92235,564.26139 146.67663,563.94085 146.39451,563.37661 C 146.14434,562.87628 145.80005,562.76984 145.50248,562.37307 C 145.09765,561.8333 144.76612,561.74822 144.38743,561.36953 C 144.08841,561.07051 143.71395,560.83423 143.8299,560.25448 C 143.94194,559.69429 143.95261,559.30642 144.05291,558.80492 C 144.16265,558.25624 144.25936,557.75611 144.38743,557.24385 C 144.54316,556.62092 144.43351,556.53059 143.7184,556.35182 C 143.29236,556.24531 142.77018,556.12881 142.15734,556.12881 C 141.77017,556.12881 141.05493,556.58747 140.70777,556.24031 C 140.45245,555.98499 140.03058,555.67462 139.70423,555.34827 C 139.30621,554.95026 139.13187,554.90225 138.36618,554.90225 C 137.77913,554.90225 137.40816,554.79075 136.91661,554.79075 C 136.51982,554.79075 135.76125,554.83106 135.46705,555.12526 C 135.12625,555.46606 135.0111,555.5205 134.46351,555.79429 C 133.77859,556.13675 133.9846,555.94382 133.23696,555.79429 C 132.80583,555.70807 132.23111,555.26522 131.8989,555.34827 C 131.44701,555.46125 130.7124,555.57128 130.22633,555.57128 C 129.63189,555.57128 129.2596,555.9058 128.66527,555.9058 C 128.09816,555.9058 127.66559,555.69053 127.43871,555.23676 C 127.27702,554.91338 126.86202,554.46974 126.54668,554.23322 C 126.23702,554.00099 125.57035,553.52205 125.20862,553.34119 C 124.73989,553.10682 124.25969,552.72677 123.87056,552.33765 C 123.44499,551.91207 123.21712,551.6842 122.75552,551.2226 C 122.32499,550.79207 122.08964,550.55673 121.64047,550.10755 C 121.23584,549.70292 120.79278,549.37137 120.41392,548.99251 C 120.06837,548.64696 119.63339,548.22788 119.63339,547.54294 C 119.63339,547.01093 119.5046,546.27398 119.63339,545.75887 C 119.724,545.39642 119.85178,544.77379 119.9679,544.30931 C 120.10526,543.75986 120.42283,543.38163 120.52542,542.97125 C 120.61115,542.62833 121.1842,541.9267 121.08295,541.52169 C 120.94588,540.97345 120.76731,540.70518 120.63693,540.18364 C 120.50155,539.64213 120.24415,539.14628 120.63693,538.62257 C 120.9304,538.23127 121.30317,537.7361 121.52897,537.28451 C 121.74368,536.85507 122.26134,536.19651 122.53251,535.83495 C 122.75762,535.5348 122.96273,534.97451 123.20154,534.49689 C 123.42046,534.05905 123.71152,533.7639 124.09358,533.38184 C 124.41869,533.05673 124.6797,532.92153 125.09711,532.71282 C 125.51558,532.50359 125.86395,532.27708 126.32367,531.93229 C 126.83682,531.54742 127.32721,531.30421 127.32721,530.59423 C 127.32721,530.14233 127.36105,529.33384 127.66172,529.03316 C 127.953,528.74188 128.28766,528.21842 128.66527,528.02962 C 128.82341,527.95055 130.00402,527.80591 130.11483,527.69511 C 130.284,527.52594 131.34138,526.21673 131.34138,526.02254 C 130.77525,526.02254 132.35322,526.55426 132.90245,526.69157 C 133.29405,526.78947 133.84562,526.67648 134.352,526.80307 C 134.82393,526.92105 135.17228,527.15553 135.69006,527.02608 C 135.99806,526.94908 136.52252,526.41663 136.69361,526.24555 C 137.18551,525.75365 137.29218,525.5105 137.92016,525.35351 C 138.28215,525.26301 138.76457,525.68802 139.25821,525.68802 C 139.70463,525.68802 140.26218,525.68791 140.70777,525.57652 C 141.21146,525.4506 141.75398,525.37072 142.26884,525.242 C 142.81205,525.1062 143.27203,524.93528 143.60689,525.019 C 144.00975,525.11971 144.16441,525.76419 144.16441,526.24555 C 144.16441,526.9269 144.40658,527.15109 143.8299,527.58361 C 143.30042,527.98072 144.1647,528.19702 144.49893,528.36414 C 145.06046,528.6449 145.6169,528.81016 146.28301,528.81016 C 146.44823,528.81016 147.37809,529.39057 147.73257,529.47918 C 148.02137,529.55138 148.62021,530.58543 148.73611,530.81724 C 148.94671,531.23843 149.7441,531.15286 150.18567,531.26326 C 150.59701,531.36609 151.45369,531.14139 151.85824,531.04025 C 152.61126,530.852 152.79903,530.84524 152.97329,530.14821 C 153.10422,529.6245 152.86178,529.16895 152.86178,528.58715 C 152.86178,528.22695 153.69015,528.14113 154.08834,528.14113 C 154.63492,528.14113 155.05593,528.57816 155.5379,528.69865 C 156.08243,528.83479 156.30024,529.11225 156.87595,529.25617 C 157.39542,529.38604 157.91498,529.57168 158.43702,529.70219 C 158.82767,529.79986 159.37522,529.59068 159.88658,529.59068 C 160.35381,529.59068 160.2211,530.35862 160.2211,530.81724 C 160.2211,531.22453 160.43538,531.89739 160.4441,531.93229 C 160.57159,532.44223 160.66711,530.89686 160.66711,530.37122 C 160.66711,530.03807 160.97416,529.31111 161.11313,529.03316 C 161.33724,528.58495 161.22463,529.90137 161.22463,530.03671 C 161.22463,530.58516 161.71932,530.7544 162.00517,531.04025 C 162.28155,531.31663 162.57716,531.83525 162.89721,532.1553 C 163.24001,532.4981 163.10392,533.03104 163.45473,533.38184 C 163.7809,533.70802 163.98611,534.24774 164.34676,534.6084 C 164.82589,535.08752 164.84987,535.33452 165.23881,535.72345 C 165.51295,535.99759 165.89288,536.58559 166.13085,537.0615 C 166.15443,537.10866 166.49423,537.15235 166.57686,537.17301 C 166.6512,537.32168 166.72553,537.47035 166.79987,537.61903 C 167.02965,538.07859 166.92224,538.53281 167.13439,538.95709 C 167.15101,538.99032 167.13439,539.03142 167.13439,539.06859 C 167.13439,539.41711 167.80518,540.0739 167.91492,540.18364 C 168.31433,540.58305 168.43915,540.94251 168.58395,541.52169 C 168.72866,542.10055 168.7502,542.21809 169.36448,542.52523 C 169.84311,542.76455 170.08469,542.68792 170.47953,543.08276 C 170.72497,543.3282 170.89443,544.13557 171.03705,544.42081 C 171.28995,544.92663 171.52222,544.96025 172.04059,545.08984 C 172.60124,545.23 172.87027,545.06527 173.26714,544.86683 C 173.73411,544.63335 174.1958,544.52316 174.6052,544.42081 C 175.06822,544.30506 175.23899,543.78702 175.60874,543.41727 C 175.90021,543.1258 175.40399,544.04978 175.27423,544.30931 C 175.01881,544.82014 174.95974,545.45577 174.82821,545.98188 C 174.70665,546.46811 174.82821,547.15028 174.82821,547.65445 C 174.82821,548.15112 174.6052,548.6318 174.6052,549.10401 C 174.6052,549.51334 174.20525,550.23843 174.04768,550.55357 C 173.75098,551.14696 173.53237,551.62641 173.15564,552.00313 C 172.73505,552.42372 172.40059,552.75817 171.92908,553.22969 C 171.50811,553.65066 171.38732,553.8672 171.14856,554.34473 C 170.89842,554.84501 170.3705,555.3458 170.03351,555.68279 C 169.69129,556.02501 169.58652,556.35374 169.36448,556.79783 C 169.13537,557.25604 168.95207,557.62266 168.69545,558.13589 C 168.44882,558.62916 168.28047,558.74285 168.02642,559.25094 C 167.76372,559.77634 167.4689,559.99951 167.4689,560.7005 C 167.4689,561.2526 167.91365,561.58746 168.02642,562.03856 C 168.1605,562.57487 168.14253,563.02368 168.02642,563.48811 C 167.90588,563.97031 167.83125,564.49181 167.69191,565.04918 C 167.55089,565.61325 167.27938,565.80727 167.13439,566.38724 C 167.0309,566.80118 166.37637,567.25677 166.01934,567.61379 C 165.62091,568.01222 165.20151,568.31079 164.79279,568.61733 C 164.39522,568.9155 164.09506,569.31506 163.78924,569.62088 C 163.46128,569.94884 163.27939,570.35374 163.00871,570.62442 C 162.64429,570.98885 162.50846,571.29041 162.22818,571.85097 C 162.03436,572.23861 161.45379,572.62536 161.11313,572.96602 C 160.75803,573.32112 160.13271,573.61192 159.77508,573.96956 C 159.36281,574.38182 158.72111,574.89942 158.32551,575.19611 C 157.88939,575.52321 157.35025,575.94837 156.98746,576.31116 C 156.55875,576.73987 156.0492,577.04272 155.5379,577.4262 C 154.94273,577.87258 154.13655,578.01537 153.53081,578.31824 C 153.09477,578.53626 152.40779,578.39988 152.08125,578.31824 C 151.60216,578.19847 150.91906,578.50907 150.63169,578.65275 C 150.13728,578.89995 150.17877,579.21027 149.40514,579.21027 C 149.1078,579.21027 149.32337,579.23258 148.84762,578.87576 z"
         style="fill:none;fill-opacity:0.75;fill-rule:evenodd;stroke:#5f5f5f;stroke-width:0.5025;stroke-linecap:butt;stroke-linejoin:miter;marker:none;marker-start:none;marker-mid:none;marker-end:none;stroke-miterlimit:4;stroke-dasharray:none;stroke-dashoffset:0;stroke-opacity:1;visibility:visible;display:inline;overflow:visible;enable-background:accumulate" />
      <path
         id="path3217"
         d="M 172.1521,563.0421 C 171.91856,563.0421 171.06106,564.14514 170.81404,564.26865 C 170.61279,564.36928 170.03416,564.99294 169.8105,565.16069 C 169.25685,565.57592 169.10216,565.20641 168.91846,565.94122 C 168.80644,566.38931 168.53333,566.71148 168.36094,567.05627 C 168.09872,567.58069 167.83466,567.7743 167.5804,568.28282 C 167.24413,568.95536 167.02288,568.80329 167.02288,569.39786 C 167.02288,569.58778 168.327,568.86579 168.36094,568.84034 C 168.77622,568.52888 169.03245,568.16883 169.36448,567.8368 C 169.69769,567.50359 169.96478,566.88772 170.25652,566.49874 C 170.56059,566.09331 170.73749,565.68325 171.14856,565.27219 C 171.38312,565.03762 171.63246,564.40398 171.81758,564.15715 C 172.06633,563.82549 172.1521,563.45379 172.1521,563.0421 z"
         style="fill:none;fill-opacity:0.75;fill-rule:evenodd;stroke:#5f5f5f;stroke-width:0.5025;stroke-linecap:butt;stroke-linejoin:miter;marker:none;marker-start:none;marker-mid:none;marker-end:none;stroke-miterlimit:4;stroke-dasharray:none;stroke-dashoffset:0;stroke-opacity:1;visibility:visible;display:inline;overflow:visible;enable-background:accumulate" />
      <path
         id="path3219"
         d="M 162.89721,531.70928 C 163.23136,531.26374 162.47855,529.72956 163.45473,530.70574 C 163.84063,531.09164 164.03711,531.51941 164.34676,531.93229 C 164.6617,532.3522 164.9771,532.77274 165.35031,533.27034 C 165.71975,533.76292 165.90797,534.05116 166.13085,534.49689 C 166.29192,534.81905 166.7538,535.14166 167.02288,535.50044 C 167.40325,536.0076 167.60415,536.49848 168.02642,537.0615 C 168.39202,537.54896 168.68916,537.94724 169.02997,538.28805 C 169.40202,538.66012 169.66248,538.77255 169.92201,539.2916 C 170.20522,539.85803 170.36802,540.15191 170.36802,540.85266 C 170.36802,541.32553 170.65724,541.98863 170.81404,542.30222 C 171.03888,542.7519 171.23196,543.16617 171.59457,543.52878 C 171.97422,543.90842 172.52389,542.82247 172.82113,542.52523 C 173.24781,542.09855 173.51362,541.92078 173.82467,541.29868 C 174.03647,540.87508 174.19503,540.35885 174.4937,539.96062 C 174.86652,539.46353 175.10698,539.25442 175.49724,538.73407 C 175.76568,538.37615 176.1771,538.16572 176.50078,537.84203 C 176.84249,537.50033 176.9468,537.12985 176.9468,536.50398 C 176.9468,536.02692 176.9468,535.50098 176.9468,534.94291 C 176.9468,534.36564 177.0583,533.87668 177.0583,533.27034 C 177.0583,532.56446 177.32601,532.45641 176.72379,532.1553 C 176.22867,531.90773 176.06514,531.73005 175.83175,531.26326 C 175.81513,531.23001 175.83175,531.18892 175.83175,531.15175 C 175.83175,530.42393 175.02198,531.62702 174.93972,531.70928 C 174.55632,532.09267 174.06291,532.04379 173.71316,532.04379 C 173.34148,532.04379 173.30695,531.41457 173.04413,531.15175 C 172.90993,531.01755 172.67017,531.77448 172.37511,530.59423 C 172.25858,530.12811 171.90621,529.79082 171.59457,529.47918 C 171.22125,529.10586 170.85785,528.63095 170.59103,528.36414 C 169.96319,527.7363 170.74195,527.54756 171.26006,527.80661 C 171.85181,528.10249 172.1227,528.66925 172.48661,529.03316 C 172.96103,529.50758 173.19811,529.72342 173.60165,529.9252 C 174.21085,530.2298 174.53745,529.65844 174.7167,529.47918 C 175.10487,529.09101 175.25223,529.18942 175.83175,529.47918 C 176.49951,529.81306 176.48781,529.86816 176.9468,529.25617 C 177.32584,528.75079 177.61743,528.78268 178.17335,528.92166 C 178.58604,529.02483 178.83728,529.57031 178.95388,530.03671 C 178.95388,530.03671 178.95388,530.03671 178.95388,530.03671"
         style="fill:none;fill-opacity:0.75;fill-rule:evenodd;stroke:#5f5f5f;stroke-width:0.5025;stroke-linecap:butt;stroke-linejoin:miter;marker:none;marker-start:none;marker-mid:none;marker-end:none;stroke-miterlimit:4;stroke-dasharray:none;stroke-dashoffset:0;stroke-opacity:1;visibility:visible;display:inline;overflow:visible;enable-background:accumulate" />
      <path
         id="path3221"
         d="M 161.78216,528.36414 C 161.97257,529.12577 162.89721,527.91021 162.89721,527.4721 C 162.89721,526.87821 163.12022,526.50493 163.12022,525.91103 C 163.12022,525.45368 162.90252,524.92875 162.7857,524.46147 C 162.68952,524.07676 161.99232,523.50726 161.67066,523.34643 C 161.39398,523.20809 161.01669,523.92806 160.66711,524.01545 C 160.1287,524.15006 159.55753,523.76593 159.21755,523.68094 C 158.63698,523.53579 158.1545,523.8092 157.8795,524.01545 C 157.54745,524.26449 157.14795,524.33434 156.76445,524.23846 C 156.6148,524.20105 156.06801,523.2075 155.87241,523.01191 C 155.42627,522.56578 155.21674,522.28481 155.09188,521.78536 C 154.96281,521.26908 156.06545,521.35432 156.54144,521.11633 C 157.02837,520.87287 157.02368,520.67031 157.76799,520.67031 C 158.41686,520.67031 158.71834,520.78182 159.32906,520.78182 C 160.01538,520.78182 160.39694,520.73356 160.77862,520.4473 C 161.14937,520.16924 161.75299,520.23159 162.22818,520.11279 C 162.707,519.99309 163.12173,519.66071 163.23172,519.22075 C 163.3191,518.87124 162.82842,517.96813 162.6742,517.65968 C 162.36355,517.0384 162.03456,516.91438 161.44765,516.76765 C 161.16874,516.69792 160.41416,517.17288 160.10959,517.32517 C 159.62529,517.56732 159.0187,517.39301 158.66003,517.21367 C 158.01704,516.89217 158.03803,516.38914 157.32197,516.21013 C 156.68203,516.05014 156.35858,516.16998 155.98392,516.54464 C 155.57095,516.95761 155.42267,517.10962 155.20338,517.54818 C 155.03514,517.88467 154.98037,518.47809 154.98037,518.88624 C 154.98037,519.54178 155.1602,519.91491 155.42639,520.4473 C 155.74754,521.0896 155.1269,521.10758 154.64586,521.22784 C 154.34114,521.30401 153.92633,520.78182 153.41931,520.78182 C 152.999,520.78182 152.45334,521.4872 152.30426,521.78536 C 152.13475,522.12439 152.6192,522.53268 152.52727,522.90041 C 152.44564,523.22693 153.20429,522.70727 153.53081,522.7889 C 154.01459,522.90985 153.0848,523.68094 152.86178,524.12696 C 152.58545,524.67962 152.12193,524.84721 151.96975,524.23846 C 151.78798,523.51141 152.54703,523.7007 151.96975,523.12342 C 151.66772,522.82139 151.25177,522.62844 150.96621,522.34288 C 150.6046,521.98128 150.40868,521.47247 150.40868,521.00483 C 150.40868,520.3577 150.17032,520.13683 149.62815,520.00129 C 149.19628,519.89332 148.74477,519.78044 148.29009,519.66677 C 147.83718,519.55354 147.53058,519.24177 147.17505,518.88624 C 146.84314,518.55434 146.82672,518.07807 146.61752,517.65968 C 146.38554,517.19572 146.22497,517.0888 145.72548,517.21367 C 145.23857,517.33539 144.83345,517.66732 144.83345,518.21721 C 144.83345,518.80442 145.08608,519.1685 145.27947,519.55527 C 145.29609,519.58851 145.27947,519.62961 145.27947,519.66677 C 145.27947,520.02287 146.02029,520.5191 146.1715,520.67031 C 146.54969,521.0485 147.00597,521.00483 147.62106,521.00483 C 148.22595,521.00483 148.54011,520.85107 149.07063,521.11633 C 149.7162,521.43912 148.69716,522.0836 148.6246,522.11988 C 148.13586,522.36424 148.19261,522.14792 148.6246,523.01191 C 149.03453,523.83176 147.99109,523.53143 147.84407,523.45793 C 147.72135,523.39657 147.56981,522.24936 147.50956,522.00837 C 147.4105,521.61214 146.69805,521.56235 146.28301,521.56235 C 145.91176,521.56235 145.29116,520.95492 144.94495,520.78182 C 144.66967,520.64418 144.26471,519.86735 144.16441,519.66677 C 143.86246,519.06284 143.71581,518.77473 143.04937,518.77473 C 142.62989,518.77473 142.0365,519.16967 141.71132,519.33226 C 141.15937,519.60823 140.82891,519.66677 140.15025,519.66677 C 139.53386,519.66677 139.28226,519.37599 138.70069,519.66677 C 138.32081,519.85671 138.074,520.40496 137.80865,520.67031 C 137.4647,521.01426 137.30573,521.36779 136.91661,521.56235 C 136.49174,521.77479 136.10155,522.16591 135.80157,522.56589 C 135.44709,523.03853 135.71311,523.58876 135.57856,524.12696 C 135.50705,524.41296 134.99713,524.70839 134.79802,524.90749 C 134.61368,525.09184 133.93751,525.28987 133.68298,525.35351 C 133.15091,525.48653 132.78257,525.69012 132.34492,525.79952 C 131.85919,525.92096 131.31939,525.30954 131.11837,524.90749 C 130.87948,524.42972 129.87386,525.13948 129.66881,525.242 C 129.06152,525.54565 129.11129,525.54149 129.11129,524.68448 C 129.11129,524.09243 129.1316,523.61007 128.88827,523.12342 C 128.64254,522.63193 129.20217,521.9381 129.33429,521.67386 C 129.50511,521.33222 129.60215,520.49094 129.66881,520.22429 C 129.80781,519.66827 130.21874,519.44187 130.67235,519.55527 C 131.19247,519.6853 131.62932,519.66677 132.23342,519.66677 C 132.88505,519.66677 133.26174,519.54907 133.68298,519.44376 C 134.26504,519.29825 134.78927,519.11363 135.24404,518.88624 C 135.63337,518.69157 135.80157,517.88669 135.80157,517.43668 C 135.80157,516.98214 135.20982,516.46184 135.02103,516.21013 C 134.73714,515.83161 134.46351,515.83051 134.46351,515.31809 C 134.46351,515.29819 135.7358,514.91639 135.91307,514.87207 C 136.3771,514.75606 136.71341,514.16343 136.91661,513.75702 C 137.10185,513.38654 137.13167,512.83843 137.36263,512.53047 C 137.50786,512.33683 138.31485,511.99861 138.58918,511.86144 C 139.0433,511.63438 139.45907,511.54908 139.81573,511.19241 C 140.19421,510.81394 140.51743,510.45805 140.70777,510.07737 C 140.97255,509.5478 141.0913,509.21658 141.59981,508.96232 C 142.23024,508.6471 142.69399,509.16446 142.93787,509.40834 C 143.202,509.67247 142.73577,510.161 142.82636,510.52339 C 142.90279,510.82911 143.83665,510.88746 144.16441,510.9694 C 144.48988,511.05077 145.3835,510.69251 145.61398,510.63489 C 146.13367,510.50497 146.62067,510.02004 147.17505,509.74285 C 147.69244,509.48415 147.06565,508.85504 146.95203,508.62781 C 146.681,508.08573 146.6338,507.68936 146.50602,507.17824 C 146.38988,506.71368 146.36695,506.06449 146.28301,505.72869 C 146.08637,504.94212 145.36269,506.00826 145.27947,506.1747 C 145.05245,506.62874 144.94495,506.93213 144.94495,507.51276 C 144.94495,508.01137 144.73748,508.59672 144.61044,508.85081 C 144.30927,509.45315 143.47063,508.68979 143.38389,508.5163 C 143.12807,508.00467 143.27198,507.79142 142.60335,507.62426 C 142.25098,507.53617 141.38235,508.06751 141.15379,508.18179 C 140.55091,508.48323 140.20418,507.62062 140.03874,507.28975 C 139.76427,506.74079 140.48282,506.20404 140.81928,505.95169 C 141.28413,505.60305 141.67852,504.95471 141.93432,504.61363 C 142.27456,504.15999 142.34479,503.75231 142.49185,503.16408 C 142.64536,502.55001 142.61406,502.14983 143.04937,501.71451 C 143.40836,501.35552 143.9117,501.11609 144.27592,500.93398 C 144.57114,500.78637 145.0334,500.22073 145.39097,500.04194 C 145.9529,499.76098 146.20217,499.59592 146.84053,499.59592 C 147.47856,499.59592 147.74377,500.05315 148.17859,500.48796 C 148.69852,501.00789 149.05425,501.098 149.51664,501.71451 C 149.89741,502.22221 149.99689,502.58114 149.85116,503.16408 C 149.72532,503.66741 149.6308,503.72425 150.07417,504.16762 C 150.50146,504.59491 151.09719,504.32513 151.41222,504.16762 C 151.85345,503.947 151.74673,503.04701 151.74673,502.60655 C 151.74673,501.94844 152.14196,501.65381 152.19276,501.60301 C 152.57091,501.22486 153.11783,501.38 152.08125,501.38"
         style="fill:none;fill-opacity:0.75;fill-rule:evenodd;stroke:#5f5f5f;stroke-width:0.5025;stroke-linecap:butt;stroke-linejoin:miter;marker:none;marker-start:none;marker-mid:none;marker-end:none;stroke-miterlimit:4;stroke-dasharray:none;stroke-dashoffset:0;stroke-opacity:1;visibility:visible;display:inline;overflow:visible;enable-background:accumulate" />
      <path
         id="path3223"
         d="M 133.34846,510.52339 C 133.74878,510.12307 132.93262,511.57809 132.67943,512.08445 C 132.51324,512.41683 131.812,512.44069 131.45288,512.53047 C 130.82661,512.68704 131.87138,511.33144 131.8989,511.30392 C 132.34183,510.86099 132.75705,510.87823 133.34846,510.52339 z"
         style="fill:none;fill-opacity:0.75;fill-rule:evenodd;stroke:#5f5f5f;stroke-width:0.5025;stroke-linecap:butt;stroke-linejoin:miter;marker:none;marker-start:none;marker-mid:none;marker-end:none;stroke-miterlimit:4;stroke-dasharray:none;stroke-dashoffset:0;stroke-opacity:1;visibility:visible;display:inline;overflow:visible;enable-background:accumulate" />
      <path
         id="path3225"
         d="M 134.352,509.29683 C 134.77579,508.87305 134.57502,510.48159 134.57502,511.08091 C 134.57502,511.71864 134.47431,511.92975 134.352,512.41897 C 134.27391,512.73136 133.89065,513.14934 133.79448,513.53401 C 133.67686,514.00448 134.92165,513.75702 135.13254,513.75702 C 135.58916,513.75702 136.21256,513.55152 136.47059,513.42251 C 136.81314,513.25124 136.95799,512.37759 137.13962,512.19595 C 137.57844,511.75714 136.95031,511.48802 136.5821,511.30392 C 136.1045,511.06512 135.90406,510.73738 135.57856,510.41188 C 135.32081,510.15413 135.46705,509.69567 135.46705,509.18533 C 135.46705,508.86559 134.99671,508.70535 134.68652,508.62781 C 134.15714,508.49546 134.26903,508.88194 134.352,509.29683 z"
         style="fill:none;fill-opacity:0.75;fill-rule:evenodd;stroke:#5f5f5f;stroke-width:0.5025;stroke-linecap:butt;stroke-linejoin:miter;marker:none;marker-start:none;marker-mid:none;marker-end:none;stroke-miterlimit:4;stroke-dasharray:none;stroke-dashoffset:0;stroke-opacity:1;visibility:visible;display:inline;overflow:visible;enable-background:accumulate" />
      <path
         id="path3227"
         d="M 131.11837,504.83665 C 131.11702,504.83631 131.83676,503.94461 130.78386,503.94461 C 130.12446,503.94461 130.25013,504.05611 129.66881,504.05611 C 128.86004,504.05611 130.17943,504.75744 130.33784,504.83665 C 131.129,505.23223 130.89961,505.38355 131.11837,504.83665 z"
         style="fill:none;fill-opacity:0.75;fill-rule:evenodd;stroke:#5f5f5f;stroke-width:0.5025;stroke-linecap:butt;stroke-linejoin:miter;marker:none;marker-start:none;marker-mid:none;marker-end:none;stroke-miterlimit:4;stroke-dasharray:none;stroke-dashoffset:0;stroke-opacity:1;visibility:visible;display:inline;overflow:visible;enable-background:accumulate" />
      <path
         id="path3229"
         d="M 142.49185,521.89686 C 142.55587,521.92887 141.80756,523.58469 142.82636,522.56589 C 143.00267,522.38959 142.60335,522.11988 142.49185,521.89686 z"
         style="fill:none;fill-opacity:0.75;fill-rule:evenodd;stroke:#5f5f5f;stroke-width:0.5025;stroke-linecap:butt;stroke-linejoin:miter;marker:none;marker-start:none;marker-mid:none;marker-end:none;stroke-miterlimit:4;stroke-dasharray:none;stroke-dashoffset:0;stroke-opacity:1;visibility:visible;display:inline;overflow:visible;enable-background:accumulate" />
      <path
         id="path3231"
         d="M 147.73257,524.23846 C 148.1539,523.81713 146.52656,524.20545 145.9485,524.34997 C 145.90073,524.36191 147.0122,524.99333 147.06354,525.019 C 147.32166,525.14805 147.65376,524.43548 147.73257,524.23846 z"
         style="fill:none;fill-opacity:0.75;fill-rule:evenodd;stroke:#5f5f5f;stroke-width:0.5025;stroke-linecap:butt;stroke-linejoin:miter;marker:none;marker-start:none;marker-mid:none;marker-end:none;stroke-miterlimit:4;stroke-dasharray:none;stroke-dashoffset:0;stroke-opacity:1;visibility:visible;display:inline;overflow:visible;enable-background:accumulate" />
    </g>
    <g
       id="g3197">
      <path
         sodipodi:open="true"
         sodipodi:end="4.0890211"
         sodipodi:start="2.9412464"
         transform="translate(-15.595345,-33.722087)"
         d="M 85.490499,587.29402 A 69.343582,104.99009 0 0 1 112.96615,481.15685"
         sodipodi:ry="104.99009"
         sodipodi:rx="69.343582"
         sodipodi:cy="566.40009"
         sodipodi:cx="153.44705"
         id="path3183"
         style="fill:none;fill-opacity:1;stroke:#000000;stroke-opacity:1"
         sodipodi:type="arc" />
      <path
         sodipodi:open="true"
         sodipodi:end="2.949389"
         sodipodi:start="1.9890061"
         transform="translate(-15.465952,-33.785361)"
         d="M 125.28488,662.34186 A 69.343582,104.99009 0 0 1 85.380385,586.45555"
         sodipodi:ry="104.99009"
         sodipodi:rx="69.343582"
         sodipodi:cy="566.40009"
         sodipodi:cx="153.44705"
         id="path3185"
         style="fill:none;fill-opacity:1;stroke:#000000;stroke-width:1;stroke-miterlimit:4;stroke-dasharray:4, 4;stroke-dashoffset:0;stroke-opacity:1"
         sodipodi:type="arc" />
      <path
         sodipodi:open="true"
         sodipodi:end="5.8351375"
         sodipodi:start="5.3528658"
         transform="translate(-16.147438,-34.904693)"
         d="M 194.88524,482.21789 A 69.343582,104.99009 0 0 1 215.94604,520.91766"
         sodipodi:ry="104.99009"
         sodipodi:rx="69.343582"
         sodipodi:cy="566.40009"
         sodipodi:cx="153.44705"
         id="path3193"
         style="fill:none;fill-opacity:1;stroke:#000000;stroke-width:1;stroke-miterlimit:4;stroke-dasharray:4, 4;stroke-dashoffset:0;stroke-opacity:1"
         sodipodi:type="arc" />
      <path
         sodipodi:open="true"
         sodipodi:end="1.1531494"
         sodipodi:start="0.46928626"
         transform="translate(-15.420985,-34.17824)"
         d="M 215.29399,613.88183 A 69.343582,104.99009 0 0 1 181.57356,662.36585"
         sodipodi:ry="104.99009"
         sodipodi:rx="69.343582"
         sodipodi:cy="566.40009"
         sodipodi:cx="153.44705"
         id="path3195"
         style="fill:none;fill-opacity:1;stroke:#000000;stroke-width:1;stroke-miterlimit:4;stroke-dasharray:4, 4;stroke-dashoffset:0;stroke-opacity:1"
         sodipodi:type="arc" />
    </g>
    <path
       sodipodi:type="arc"
       style="fill:none;fill-opacity:1;stroke:#000000;stroke-width:0.875;stroke-miterlimit:4;stroke-dasharray:none;stroke-dashoffset:0;stroke-opacity:1"
       id="path3993"
       sodipodi:cx="70.061554"
       sodipodi:cy="553.0144"
       sodipodi:rx="9.7661562"
       sodipodi:ry="9.7661562"
       d="M 79.82771,553.0144 A 9.7661562,9.7661562 0 1 1 60.295398,553.0144 A 9.7661562,9.7661562 0 1 1 79.82771,553.0144 z" />
    <path
       sodipodi:type="arc"
       style="fill:none;fill-opacity:1;stroke:#000000;stroke-width:0.875;stroke-miterlimit:4;stroke-dasharray:none;stroke-dashoffset:0;stroke-opacity:1"
       id="path3995"
       sodipodi:cx="112.7354"
       sodipodi:cy="712.45752"
       sodipodi:rx="69.000015"
       sodipodi:ry="69.000015"
       d="M 181.73541,712.45752 A 69.000015,69.000015 0 1 1 43.735382,712.45752 A 69.000015,69.000015 0 1 1 181.73541,712.45752 z" />
    <path
       style="opacity:1;fill:none;fill-opacity:1;fill-rule:evenodd;stroke:#000000;stroke-width:0.875;stroke-linecap:butt;stroke-linejoin:miter;marker:none;marker-start:none;marker-mid:none;marker-end:none;stroke-miterlimit:4;stroke-dasharray:none;stroke-dashoffset:0;stroke-opacity:1;visibility:visible;display:inline;overflow:visible;enable-background:accumulate"
       d="M 78.020729,547.3784 L 167.9269,671.06283"
       id="path3997"
       sodipodi:nodetypes="cc" />
    <path
       style="opacity:1;fill:none;fill-opacity:1;fill-rule:evenodd;stroke:#000000;stroke-width:0.875;stroke-linecap:butt;stroke-linejoin:miter;marker:none;marker-start:none;marker-mid:none;marker-end:none;stroke-miterlimit:4;stroke-dasharray:none;stroke-dashoffset:0;stroke-opacity:1;visibility:visible;display:inline;overflow:visible;enable-background:accumulate"
       d="M 60.426316,551.0297 L 43.761728,709.8851"
       id="path3999"
       sodipodi:nodetypes="cc" />
    <path
       style="opacity:1;fill:none;fill-opacity:1;fill-rule:evenodd;stroke:#000000;stroke-width:0.875;stroke-linecap:butt;stroke-linejoin:miter;marker:none;marker-start:none;marker-mid:none;marker-end:none;stroke-miterlimit:4;stroke-dasharray:none;stroke-dashoffset:0;stroke-opacity:1;visibility:visible;display:inline;overflow:visible;enable-background:accumulate"
       d="M 141.59599,649.93148 L 148.30317,679.36854"
       id="path4009"
       sodipodi:nodetypes="cc" />
    <path
       style="opacity:1;fill:none;fill-opacity:1;fill-rule:evenodd;stroke:#000000;stroke-width:0.875;stroke-linecap:butt;stroke-linejoin:miter;marker:none;marker-start:none;marker-mid:none;marker-end:none;stroke-miterlimit:4;stroke-dasharray:5.25,1.75;stroke-dashoffset:0;stroke-opacity:1;visibility:visible;display:inline;overflow:visible;enable-background:accumulate"
       d="M 148.11686,679.92747 L 165.25743,757.43264"
       id="path4011"
       sodipodi:nodetypes="cc" />
    <g
       id="g4001"
       transform="translate(350.7757,-17.18085)">
      <path
         transform="translate(-444.34823,179.19636)"
         style="fill:url(#radialGradient4007);fill-opacity:1;stroke:none"
         d="M 248.97122,516.73145 A 7.6137986,7.6137986 0 1 1 233.74362,516.73145 A 7.6137986,7.6137986 0 1 1 248.97122,516.73145 z"
         sodipodi:ry="7.6137986"
         sodipodi:rx="7.6137986"
         sodipodi:cy="516.73145"
         sodipodi:cx="241.35742"
         id="path2401"
         sodipodi:type="arc" />
      <path
         id="path3203"
         d="M -205.45246,697.19221 L -240.02539,714.02"
         style="fill:none;fill-rule:evenodd;stroke:#000000;stroke-width:0.875;stroke-linecap:butt;stroke-linejoin:miter;marker-end:url(#Arrow2Mend);stroke-miterlimit:4;stroke-dasharray:none;stroke-opacity:1" />
      <path
         id="path3985"
         d="M -206.5783,701.18817 L -229.04694,732.39108"
         style="fill:none;fill-rule:evenodd;stroke:#000000;stroke-width:0.875;stroke-linecap:butt;stroke-linejoin:miter;marker-end:url(#Arrow2Mend);stroke-miterlimit:4;stroke-dasharray:none;stroke-opacity:1" />
      <path
         id="path3987"
         d="M -230.1989,733.64104 L -240.22809,733.64104 L -240.22809,714.01249 L -240.22809,714.01249 L -240.22809,714.01249"
         style="opacity:1;fill:none;fill-opacity:1;fill-rule:evenodd;stroke:#000000;stroke-width:0.875;stroke-linecap:butt;stroke-linejoin:miter;marker:none;marker-start:none;marker-mid:none;marker-end:none;stroke-miterlimit:4;stroke-dasharray:1.75, 1.75;stroke-dashoffset:0;stroke-opacity:1;visibility:visible;display:inline;overflow:visible;enable-background:accumulate" />
    </g>
    <text
       xml:space="preserve"
       style="font-size:10px;font-style:normal;font-variant:normal;font-weight:normal;font-stretch:normal;text-indent:0;text-align:start;text-decoration:none;line-height:125%;letter-spacing:normal;word-spacing:normal;text-transform:none;direction:ltr;block-progression:tb;writing-mode:lr-tb;text-anchor:start;opacity:1;fill:#000000;fill-opacity:1;fill-rule:nonzero;stroke:none;stroke-width:1px;stroke-linecap:butt;stroke-linejoin:miter;marker:none;marker-start:none;marker-mid:none;marker-end:none;stroke-miterlimit:4;stroke-dasharray:none;stroke-dashoffset:0;stroke-opacity:1;visibility:visible;display:inline;overflow:visible;enable-background:accumulate;font-family:Bitstream Vera Sans;-inkscape-font-specification:Bitstream Vera Sans"
       x="63.762848"
       y="707.72662"
       id="text4013"
       sodipodi:linespacing="125%"><tspan
         sodipodi:role="line"
         id="tspan4015"
         x="63.762848"
         y="707.72662">geodetic</tspan></text>
    <text
       xml:space="preserve"
       style="font-size:10px;font-style:normal;font-variant:normal;font-weight:normal;font-stretch:normal;text-indent:0;text-align:start;text-decoration:none;line-height:125%;letter-spacing:normal;word-spacing:normal;text-transform:none;direction:ltr;block-progression:tb;writing-mode:lr-tb;text-anchor:start;opacity:1;fill:#000000;fill-opacity:1;fill-rule:nonzero;stroke:none;stroke-width:1px;stroke-linecap:butt;stroke-linejoin:miter;marker:none;marker-start:none;marker-mid:none;marker-end:none;stroke-miterlimit:4;stroke-dasharray:none;stroke-dashoffset:0;stroke-opacity:1;visibility:visible;display:inline;overflow:visible;enable-background:accumulate;font-family:Bitstream Vera Sans;-inkscape-font-specification:Bitstream Vera Sans"
       x="104.3392"
       y="732.49402"
       id="text4017"
       sodipodi:linespacing="125%"><tspan
         sodipodi:role="line"
         x="104.3392"
         y="732.49402"
         id="tspan4021">frame</tspan><tspan
         sodipodi:role="line"
         x="104.3392"
         y="744.99402"
         id="tspan2431">dragging</tspan></text>
    <path
       sodipodi:type="arc"
       style="fill:#000000;fill-opacity:1;stroke:none;stroke-width:0.875;stroke-miterlimit:4;stroke-dasharray:5.25, 1.75;stroke-dashoffset:0;stroke-opacity:1"
       id="path4025"
       sodipodi:cx="70.228653"
       sodipodi:cy="553.21277"
       sodipodi:rx="2.2084482"
       sodipodi:ry="2.2084482"
       d="M 72.437101,553.21277 A 2.2084482,2.2084482 0 1 1 68.020205,553.21277 A 2.2084482,2.2084482 0 1 1 72.437101,553.21277 z"
       transform="translate(-0.3212288,-0.5621504)" />
    <path
       style="opacity:1;fill:none;fill-opacity:1;fill-rule:evenodd;stroke:#000000;stroke-width:0.875;stroke-linecap:butt;stroke-linejoin:miter;marker:none;marker-start:none;marker-mid:none;marker-end:url(#Arrow2Mend);stroke-miterlimit:4;stroke-dasharray:none;stroke-dashoffset:0;stroke-opacity:1;visibility:visible;display:inline;overflow:visible;enable-background:accumulate"
       d="M 69.447849,512.83141 L 69.198336,514.95227"
       id="path4027" />
    <path
       sodipodi:type="arc"
       style="fill:none;fill-opacity:1;stroke:#000000;stroke-width:0.875;marker-end:url(#Arrow2Mend);stroke-miterlimit:4;stroke-dasharray:none;stroke-dashoffset:0;stroke-opacity:1"
       id="path4544"
       sodipodi:cx="137.58618"
       sodipodi:cy="532.67407"
       sodipodi:rx="41.92902"
       sodipodi:ry="13.590059"
       d="M 152.56434,545.36743 A 41.92902,13.590059 0 0 1 116.69732,544.45753"
       sodipodi:start="1.2054995"
       sodipodi:end="2.092313"
       sodipodi:open="true"
       transform="matrix(-1,0,0,1,271.71886,0.4213972)" />
  </g>
</svg>
