<?xml version="1.0" encoding="iso-8859-1"?>
<!-- Generator: Adobe Illustrator 11 Build 196, SVG Export Plug-In . SVG Version: 6.0.0 Build 78)  -->
<!DOCTYPE svg PUBLIC "-//W3C//DTD SVG 1.0//EN"    "http://www.w3.org/TR/2001/REC-SVG-20010904/DTD/svg10.dtd" [
	<!ENTITY ns_flows "http://ns.adobe.com/Flows/1.0/">
	<!ENTITY ns_svg "http://www.w3.org/2000/svg">
	<!ENTITY ns_xlink "http://www.w3.org/1999/xlink">
]>
<svg
	 width="102.152" height="20.181" viewBox="0 0 102.152 20.181" style="overflow:visible;enable-background:new 0 0 102.152 20.181"
	 xml:space="preserve">
	<metadata>
<?xpacket begin='﻿' id='W5M0MpCehiHzreSzNTczkc9d'?><x:xmpmeta xmlns:x='adobe:ns:meta/' x:xmptk='XMP toolkit 3.0-29, framework 1.6'>
<rdf:RDF xmlns:rdf='http://www.w3.org/1999/02/22-rdf-syntax-ns#' xmlns:iX='http://ns.adobe.com/iX/1.0/'>

 <rdf:Description rdf:about=''
  xmlns:pdf='http://ns.adobe.com/pdf/1.3/'>
 </rdf:Description>

 <rdf:Description rdf:about=''
  xmlns:tiff='http://ns.adobe.com/tiff/1.0/'>
 </rdf:Description>

 <rdf:Description rdf:about=''
  xmlns:xap='http://ns.adobe.com/xap/1.0/'
  xmlns:xapGImg='http://ns.adobe.com/xap/1.0/g/img/'>
  <xap:CreateDate>2006-07-17T00:09:58Z</xap:CreateDate>
  <xap:ModifyDate>2006-07-17T00:09:58Z</xap:ModifyDate>
  <xap:CreatorTool>Illustrator</xap:CreatorTool>
  <xap:Thumbnails>
   <rdf:Alt>
    <rdf:li rdf:parseType='Resource'>
     <xapGImg:format>JPEG</xapGImg:format>
     <xapGImg:width>256</xapGImg:width>
     <xapGImg:height>52</xapGImg:height>
     <xapGImg:image>/9j/4AAQSkZJRgABAgEASABIAAD/7QAsUGhvdG9zaG9wIDMuMAA4QklNA+0AAAAAABAASAAAAAEA&#xA;AQBIAAAAAQAB/+4ADkFkb2JlAGTAAAAAAf/bAIQABgQEBAUEBgUFBgkGBQYJCwgGBggLDAoKCwoK&#xA;DBAMDAwMDAwQDA4PEA8ODBMTFBQTExwbGxscHx8fHx8fHx8fHwEHBwcNDA0YEBAYGhURFRofHx8f&#xA;Hx8fHx8fHx8fHx8fHx8fHx8fHx8fHx8fHx8fHx8fHx8fHx8fHx8fHx8fHx8f/8AAEQgANAEAAwER&#xA;AAIRAQMRAf/EAaIAAAAHAQEBAQEAAAAAAAAAAAQFAwIGAQAHCAkKCwEAAgIDAQEBAQEAAAAAAAAA&#xA;AQACAwQFBgcICQoLEAACAQMDAgQCBgcDBAIGAnMBAgMRBAAFIRIxQVEGE2EicYEUMpGhBxWxQiPB&#xA;UtHhMxZi8CRygvElQzRTkqKyY3PCNUQnk6OzNhdUZHTD0uIIJoMJChgZhJRFRqS0VtNVKBry4/PE&#xA;1OT0ZXWFlaW1xdXl9WZ2hpamtsbW5vY3R1dnd4eXp7fH1+f3OEhYaHiImKi4yNjo+Ck5SVlpeYmZ&#xA;qbnJ2en5KjpKWmp6ipqqusra6voRAAICAQIDBQUEBQYECAMDbQEAAhEDBCESMUEFURNhIgZxgZEy&#xA;obHwFMHR4SNCFVJicvEzJDRDghaSUyWiY7LCB3PSNeJEgxdUkwgJChgZJjZFGidkdFU38qOzwygp&#xA;0+PzhJSktMTU5PRldYWVpbXF1eX1RlZmdoaWprbG1ub2R1dnd4eXp7fH1+f3OEhYaHiImKi4yNjo&#xA;+DlJWWl5iZmpucnZ6fkqOkpaanqKmqq6ytrq+v/aAAwDAQACEQMRAD8A9U4q7FXi/wCdet6pe/mN&#xA;+XfkvQL24ttTn1EapqP1Z2QLYwVDGXjTkGRZaAmmxr1GKvaMVdirsVdirsVdirsVdirsVdirsVdi&#xA;rsVdirsVdirsVdirsVdirsVdirsVdirsVdirsVdirsVeWfmr+ausaLrNv5T8pwW9x5int/rd5d3f&#xA;I21lbFiiM6IQzyuwPBK+52xVgE3mH89TbyNbedoZLllISOTS7RIwSP2WVWcU7V5fLFWK+VbT8xov&#xA;zIbU9U8xmDzfqFgyWuofVre/VbS2KLNG3qJbqnN3Rl4R1pUE7nkq9VtvzJ/M7y23qeY9PtvNGjL/&#xA;AHt7pEbW2oRKOsjWbvJHN/qxuDir1Py35m0LzNo1vrOh3kd9p10KxTxnuOqspoysp2ZWFR3xVNMV&#xA;dirsVdirsVdirsVdirsVdirsVdirsVdirsVdirsVdirsVdirsVdirsVdirsVdirsVfLHlnUZPMV5&#xA;q3nS5BFz5kunmiVusdlATDaRf7GNK/M4qz/QNOjuZFVqCuKpP5nsoNK/NfQ6uOP6J1AlhuP7628M&#xA;VTZdQmghM07CQSN+6C9OI71xVKfLuryeTvzEsNQtF9Hyv5wuEsNYtgf3cWpyAi1ukUfZaUqIpKUB&#xA;qCd8VfQGKuxV5ZrvnXzNa/8AORHlvyjBecPL1/o815d2PpRHnOhuOL+qUMop6S7BqbYq9TxVi2gT&#xA;3b+cfMEcnm221eCP0PR8txRWyT6XVd/VkiZpn9X7Q9RR7YqmOoecvKGnakml6hrmn2epyU9OxuLq&#xA;CKduX2eMTsHNe22KoLzD5qsD5Y8z3Gh6nbT6lolpdmYW8kU7211DC7KsyAvxdWT7Ljt0xViv5X/m&#xA;npc35Y+XNY87+Y7C01jU4JZZJb6e1sjLwnkjDLHWFaAKB8K4qy7zp5w0zy75Qv8AX3vrOER20smn&#xA;S3UqLBNcCJnhjViyczIV2VWqe2KpT+UH5i2/nryXYapLd2MmtmFX1exsZA31Z3dwivEXlki5CMkB&#xA;zvvirN8VSC38/wDkO41EaZb+ZNLm1ItwFlHe27T8h1X0w5evtTFUy1XWtH0iBLjVr+30+3kkWGOa&#xA;6lSFGlf7MatIVBZqbDriqCk86+TYtXGjS69pyawzcF01ruAXJb+UQl/Urt4Yqm8ssUMTyyuscUal&#xA;5JHIVVVRUkk7AAYq8w/Nj81dOtfyu8xax5H8yWFzrOmR27pLZTWt60XqXUUTFo/3y7q5HxLirP8A&#xA;yveXN95a0m9un9S5urK3mnkoF5SSRKzGigAVJ7DFXj//ADk5+YP5h+Uj5Zi8l3xs7jUP0g90ggt5&#xA;zItpHFKABPHLSil/s9cVeseSfMtv5o8o6R5gt6cNTtYrhlH7Lso9RP8AYPVfoxV4b5z/ADm89D8/&#xA;dM8t6Bf+h5SttU03R9UjEEDia5uG5zr6skbyAhCUPBhTj71Kr6B1XWdH0eza91a+t9Os1IDXN3Kk&#xA;EQJ6AvIVXt44qoaJ5m8t67E8uh6tZ6rFGaSSWVxFcKp8GMTMBirzzQfzv0rUvzc1jyi+q6P+g7e3&#xA;tv0NeR3Cerc3k5RXt1kMxjlcOxUIi8q7Yq7Qfzv0rUvzc1jyi+q6P+g7e3tv0NeR3Cerc3k5RXt1&#xA;kMxjlcOxUIi8q7Yq9E1rzJ5d0KFJ9c1Sz0qCQ8Y5b2eK3RiOoVpWUE74qidO1PTdTs473TbuG+s5&#xA;hWK5tpFliceKuhZT9BxVLJPPXkiK3muZfMOmJbW05tLidry3CR3I6wuxeiyD+Q74q+bvIcctjora&#xA;Hc/Df6Bc3Gl3kfcPbSsqn5MnFhirNdP1J7cgqaEYqk17dfpL809E9YllXS7+o7H97b7HFWaXFnDL&#xA;EIygIX7C14gfcDirDPzXtrmHyRqlzDJxW0WCa0iAJPrQzxvFSncuoxV9IYq7FXiHmf8A9a18n/8A&#xA;gP3H67vFXt+KvnjRddm0D8z/AM9NcgUNPpmn293CrbgyQ2bugPtyUYqnH5L/AJSeRta/LKy1rzPp&#xA;Nvr2ueZY3vtU1O/QTXDPO7ECOVqvFxSg/dkb74qxT8ntIGjeWPzt0gTPcLp09/apPIxZ3WGC4RWd&#xA;j1ai74qnv/OPH5ReQNR/KbS9V1vRrXWdR1eOUz3N9GJ2jjWaSKOOAycvRCovVKGu/hiqWflRp2n6&#xA;j+QXnrR9StotQsPL2oa1BpMV2iziEQWqyxMnqA0dHmYhhuK4qz//AJxu0XRrH8pNAvrKwt7W+1G1&#xA;VtQuoYkjluGjlkCGZ1AaQqGNORNK4qnf5zWlle/lrrVnfeYU8r2VxGkd1rLp6vpxGRecYQPEWMo/&#xA;d0DVPLauKvAvON7+RVz+VN/pflTyfd6hd2dkTa+YrfSHhIMIP+mT3sipJ6RIq3JjWtKeCqe/nDc3&#xA;2of84y+Rbie5kN7cyaKz3ZJMnqNbN+85deVd6+OKsj/OH8m/y50X8mNbbTtEtodQ0u2Fzb6vwU3z&#xA;TRurF5Lkj1X578gWpv8ALFUh8+6pqPm/SPyZ8l6hdSCx84W1rfeYpEYq9wsNtBKYyw3+Nncn34nt&#xA;iqY/85F/lB5BsPym1HVtD0e00bUNHWBoZ7KNYGliaaOJ4pygHq8latXqeQG/XFXs3kr/AJQ3Qf8A&#xA;tnWn/JhMVeZ/nTHHL+a/5SRyKHje/wBQV0O4KmKEEEYqgPyg8xweQ9F8/wDlLVXpF5Buri9s1Y0Z&#xA;tNuFa4gAr1JIPT+YYq8+03Qbux0X8p9b1IV1jzX5xTXL+Qjcm6kQxde3phW+k4q9D/OKP8s4PzN0&#xA;TWPPWsjUY7KzMem+RUs5LxpZpJGrdOqM6kEbcZI6Nw6mlMVYlpWpeU2/5yH8j3nkzy5eeWLDUIL6&#xA;3vTJZfo23vkS2dx6UHwhgjAcm4j4gPCuKsl8oeTvKKf85MebYE0TT1g0/TrC8sIhawhILn90/rwr&#xA;xpHJy+LmtDXFXeUPJ3lFP+cmPNsCaJp6wafp1heWEQtYQkFz+6f14V40jk5fFzWhrirCfLPmzQ9f&#xA;88+bfM3nDyNrvni5TUJdO0lLLTF1PT7K0tyQsPGR1jEpDAt8P+V1Y4qyn8pjeWf503b+WfKOv+V/&#xA;I+taezX9jqlhJZ2sWoRGqyRANJEgZBQDkNyRSlMVQv5A/l35T1/zD581vXtPh1aS08w3ttZW16gn&#xA;t4avzkkWFw0fN/gBYivwimKpx+c2hQ6D+YmjeY7RDFa+aFk03WCKiM3lvGJLOQ9vUeNXj+S4qlwJ&#xA;xVLNPNfzR0j/ALZd9/ydt8Vek4qxfX7dvM3mrQPJFr+89e5i1TXaCqxadYyCX46dPXmVI1+nFXvu&#xA;KuxV4p+ZPl38yLb87dB89eV/LH+I7LTdJeymh+vWtj+9lecEcp2LfCsqtshGKpzD+YP55NKiyflN&#xA;6cbMA8n+INPbipO7UCb0xVB+Xfy01qT8yPzQutbsvS8uebbe3tLO5EkLmaP6u0M1EVmdOPL9tRiq&#xA;VeUbT8//ACFoUfkmw8t2HmOzsi0ej+ZWv47WKKF3ZlFzav8AvnMdeidtgWpXFWP/AJEaFrMvl384&#xA;NLef9J6vcX99YtcikYubv0pkZwXNAJJHrue++KvW/wAk/LmteWvyu0DQ9bt/qmqWUMiXVvzjk4M0&#xA;8jgc4mdD8LDocVYt+U/5c+aNL/L/AM8aBrVsNPvNf1XVZrEtJHKpgvLaOKKUmFpKDkp2PxbdMVTX&#xA;8hLDz5onk2Lyv5s8vrpH6DjSGxv0vILlb1XklZmEcRYw+mOH2j8Ve1KYqrfnx+Xer+e/Iy6Zo8kS&#xA;6lZXkOoW0FwSIZ2gDqYZCK7MJD9IHTrirGPMsH58+ffJ9/5am8saf5OhubV4rq5mv47556JtDbx2&#xA;44wiVhxLSMeK16nqqlPmPyF+ZevfkN5Y8ryeXfqmv6Je2EUtl9ctZOdrZRGP6z6nNYhyr9jkSPfF&#xA;Xqn5uaDq3mD8tfMOjaRB9Z1K+tGitYOaR83JFBykKIPpOKsF8x/lH5p1P8vPy+n0mSLTvPvka0sn&#xA;tY7hg0LSxW8SXFtI8ZZaF4RuCVNKdGqFUn/MrTvz+/MfyJeaFN5UtvLaKsctxbjUbe7m1CSN0ZIo&#xA;ipSKCMN+8b1HJ+EAe6r27yvZ3Nj5a0myuk9O5tbK3hnjqG4yRxKrCqkg0I7HFWD/AJl+T/MWtfmJ&#xA;+XOr6ZafWNO0G9u5tWn9SJPRjljiVDxdlZ6lD9gHFWFfnr+T3nfzJ53tb/ypHTTPMVpFpPm2USxR&#xA;+nbwXUcyzFZHRnPFafACaLTvirMPzR8ia1qeq/lz/h+xEun+W9atrm9AkijEFnBxHICRkLcVXolT&#xA;7Yqk3mTyj+Y3ln84r/8AMLyroVv5stdaso7K506S7isbi1aJEXlHLOOHBvRUmlSSTsOuKpVr3lf8&#xA;8dQ/MXyl+YV3ollcjSZLiAeWLS9jR7W3uIzGZpbubgkrnmSwjXoqgdTRVkFx5c/MDQvz6u/NWlaF&#xA;HrXl3zHaWVjf3QvIbZ7ERPGkkzRy/HLwRC/BB8XiDtirrjy5+YGhfn1d+atK0KPWvLvmO0srG/uh&#xA;eQ2z2IieNJJmjl+OXgiF+CD4vEHbFUDbeUPzN/LTzXrt95H0W381eVvMd0b6TRmu49PubO6cEuyS&#xA;zAxtGT8z0FBSpVZJ5A0L8zbzzVfeb/O91+jUnt0tdL8o2d081pbJUM0txxPpST125LXvvSgCqG/I&#xA;zyX5l8sf4y/Tln9U/Suv3V/YfvIpfUtpacJP3Tvxr4NQ+2Ksg/NryVP5w8kXml2TLHq8LR3ujzvs&#xA;I7y2cSRGvblQoT2DHFXh8N551o0U3kXXxdW+14sdqpiDDZvRlaRVmFehStRiqAsfMOlW3my28w6k&#xA;82lWmn282nXcF/bXMFwtzdsrxRiNo/iJW2k+yT0xVmVt5g81eZyLbyPoNzcCWg/TuqRSWOmxKf8A&#xA;dg9ULNPT+WNPpxV6f+Xf5d2flCzuZZbl9T8wam4m1nWZhxed12VEUVEcUYNEQbAYqy/FXYq7FXYq&#xA;o3tnbXtnPZ3UYmtbmN4Z4m6PHIpVlPsQaYq8i078jPO+g2R0Tyn+ZN9pHlbkxj0ySxtrqeJJHLOs&#xA;N2zI8f2tuK7HfFWffl95B0PyL5cj0LR/UeISNPdXU7c5ri4kp6k0rbDk3EDbsBirJcVdirsVdirs&#xA;VdirsVdirsVdirsVdirsVdirsVdirsVdirsVdirsVdirsVdirsVdirsVdirsVdirsVdirsVdirsV&#xA;dirsVdirsVdirsVdirsVdirsVdirsVdirsVdirsVdir/AP/Z</xapGImg:image>
    </rdf:li>
   </rdf:Alt>
  </xap:Thumbnails>
 </rdf:Description>

 <rdf:Description rdf:about=''
  xmlns:dc='http://purl.org/dc/elements/1.1/'>
  <dc:format>image/svg+xml</dc:format>
 </rdf:Description>

</rdf:RDF>
</x:xmpmeta>
                                                                                                                                                                                                                                                                                                                                                                                                                                                                                                                                                                                                                                                                                                                                                                                                                                                                                                                                                                                                                                                                                                                                                                                                                                                                                                                                                                                                                                                                                                                                                                                                                                                                                                                                                                                                                                                                                                                                                                                                                                                                                                                                <?xpacket end='w'?>
			</metadata>
		<g id="Layer_1">
			<g>
				<path style="fill:#BFBFBF;" d="M8.392,4.4l-0.23,0.115v14.337l0.23,0.044c4.003,0,7.248-3.245,7.248-7.248
					C15.64,7.645,12.395,4.4,8.392,4.4z"/>
				
					<radialGradient id="XMLID_9_" cx="-244.6316" cy="-199.52" r="1.0623" fx="-244.6316" fy="-199.52" gradientTransform="matrix(1.17 0 0 1.17 296.548 241.3381)" gradientUnits="userSpaceOnUse">
					<stop  offset="0" style="stop-color:#999999"/>
					<stop  offset="0.378" style="stop-color:#9C9C9C"/>
					<stop  offset="0.6497" style="stop-color:#A5A5A5"/>
					<stop  offset="0.8875" style="stop-color:#B5B5B5"/>
					<stop  offset="1" style="stop-color:#BFBFBF"/>
					<midPointStop  offset="0" style="stop-color:#999999"/>
					<midPointStop  offset="0.77" style="stop-color:#999999"/>
					<midPointStop  offset="1" style="stop-color:#BFBFBF"/>
				</radialGradient>
				<ellipse style="fill:url(#XMLID_9_);" cx="10.308" cy="7.878" rx="1.172" ry="1.31"/> 
				
					<radialGradient id="XMLID_10_" cx="-243.0898" cy="-197.3535" r="1.385" fx="-243.0898" fy="-197.3535" gradientTransform="matrix(1.17 0 0 1.17 296.7023 240.0114)" gradientUnits="userSpaceOnUse">
					<stop  offset="0" style="stop-color:#999999"/>
					<stop  offset="0.378" style="stop-color:#9C9C9C"/>
					<stop  offset="0.6497" style="stop-color:#A5A5A5"/>
					<stop  offset="0.8875" style="stop-color:#B5B5B5"/>
					<stop  offset="1" style="stop-color:#BFBFBF"/>
					<midPointStop  offset="0" style="stop-color:#999999"/>
					<midPointStop  offset="0.77" style="stop-color:#999999"/>
					<midPointStop  offset="1" style="stop-color:#BFBFBF"/>
				</radialGradient>
				<ellipse style="fill:url(#XMLID_10_);" cx="12.267" cy="9.087" rx="1.654" ry="1.586"/> 
				
					<radialGradient id="XMLID_11_" cx="-240.8816" cy="-195.4785" r="0.8549" fx="-240.8816" fy="-195.4785" gradientTransform="matrix(1.2 0 0 1.2 303.2118 245.1738)" gradientUnits="userSpaceOnUse">
					<stop  offset="0" style="stop-color:#999999"/>
					<stop  offset="0.378" style="stop-color:#9C9C9C"/>
					<stop  offset="0.6497" style="stop-color:#A5A5A5"/>
					<stop  offset="0.8875" style="stop-color:#B5B5B5"/>
					<stop  offset="1" style="stop-color:#BFBFBF"/>
					<midPointStop  offset="0" style="stop-color:#999999"/>
					<midPointStop  offset="0.77" style="stop-color:#999999"/>
					<midPointStop  offset="1" style="stop-color:#BFBFBF"/>
				</radialGradient>
				<ellipse style="fill:url(#XMLID_11_);" cx="14.142" cy="10.587" rx="1.061" ry="0.99"/> 
				
					<radialGradient id="XMLID_12_" cx="-240.5066" cy="-198.312" r="0.6718" fx="-240.5066" fy="-198.312" gradientTransform="matrix(0.4104 1.1276 -1.1276 0.4104 -110.7035 360.6915)" gradientUnits="userSpaceOnUse">
					<stop  offset="0" style="stop-color:#999999"/>
					<stop  offset="0.378" style="stop-color:#9C9C9C"/>
					<stop  offset="0.6497" style="stop-color:#A5A5A5"/>
					<stop  offset="0.8875" style="stop-color:#B5B5B5"/>
					<stop  offset="1" style="stop-color:#BFBFBF"/>
					<midPointStop  offset="0" style="stop-color:#999999"/>
					<midPointStop  offset="0.77" style="stop-color:#999999"/>
					<midPointStop  offset="1" style="stop-color:#BFBFBF"/>
				</radialGradient>
				<path style="fill:url(#XMLID_12_);" d="M13.735,8.488c0.187,0.514,0.577,0.844,0.87,0.737s0.38-0.61,0.193-1.124
					s-0.577-0.844-0.87-0.737S13.548,7.975,13.735,8.488z"/>
				
					<radialGradient id="XMLID_13_" cx="-260.3816" cy="-194.812" r="0.3254" fx="-260.3816" fy="-194.812" gradientTransform="matrix(1.3 0 0 1.3 350.7916 264.4546)" gradientUnits="userSpaceOnUse">
					<stop  offset="0" style="stop-color:#999999"/>
					<stop  offset="0.378" style="stop-color:#9C9C9C"/>
					<stop  offset="0.6497" style="stop-color:#A5A5A5"/>
					<stop  offset="0.8875" style="stop-color:#B5B5B5"/>
					<stop  offset="1" style="stop-color:#BFBFBF"/>
					<midPointStop  offset="0" style="stop-color:#999999"/>
					<midPointStop  offset="0.77" style="stop-color:#999999"/>
					<midPointStop  offset="1" style="stop-color:#BFBFBF"/>
				</radialGradient>
				<ellipse style="fill:url(#XMLID_13_);" cx="12.308" cy="11.212" rx="0.383" ry="0.46"/> 
				
					<radialGradient id="XMLID_14_" cx="-263.4648" cy="-196.77" r="0.7095" fx="-263.4648" fy="-196.77" gradientTransform="matrix(1.4 0 0 1.4 378.1003 284.7563)" gradientUnits="userSpaceOnUse">
					<stop  offset="0" style="stop-color:#999999"/>
					<stop  offset="0.378" style="stop-color:#9C9C9C"/>
					<stop  offset="0.6497" style="stop-color:#A5A5A5"/>
					<stop  offset="0.8875" style="stop-color:#B5B5B5"/>
					<stop  offset="1" style="stop-color:#BFBFBF"/>
					<midPointStop  offset="0" style="stop-color:#999999"/>
					<midPointStop  offset="0.77" style="stop-color:#999999"/>
					<midPointStop  offset="1" style="stop-color:#BFBFBF"/>
				</radialGradient>
				<ellipse style="fill:url(#XMLID_14_);" cx="9.225" cy="9.253" rx="1.072" ry="0.907"/> 
				
					<radialGradient id="XMLID_15_" cx="-264.1313" cy="-195.7285" r="0.5606" fx="-264.1313" fy="-195.7285" gradientTransform="matrix(1 0 0 1 272.6895 206.0234)" gradientUnits="userSpaceOnUse">
					<stop  offset="0" style="stop-color:#999999"/>
					<stop  offset="0.378" style="stop-color:#9C9C9C"/>
					<stop  offset="0.6497" style="stop-color:#A5A5A5"/>
					<stop  offset="0.8875" style="stop-color:#B5B5B5"/>
					<stop  offset="1" style="stop-color:#BFBFBF"/>
					<midPointStop  offset="0" style="stop-color:#999999"/>
					<midPointStop  offset="0.77" style="stop-color:#999999"/>
					<midPointStop  offset="1" style="stop-color:#BFBFBF"/>
				</radialGradient>
				<ellipse style="fill:url(#XMLID_15_);" cx="8.558" cy="10.295" rx="0.53" ry="0.589"/> 
				
					<radialGradient id="XMLID_16_" cx="-264.6731" cy="-194.562" r="5.9628" fx="-264.6731" fy="-194.562" gradientTransform="matrix(1 0 0 1 271.1895 203.2734)" gradientUnits="userSpaceOnUse">
					<stop  offset="0" style="stop-color:#FFFFFF"/>
					<stop  offset="0.0042" style="stop-color:#FEFEFE"/>
					<stop  offset="0.1153" style="stop-color:#DEDEDE"/>
					<stop  offset="0.235" style="stop-color:#C4C4C4"/>
					<stop  offset="0.3673" style="stop-color:#B0B0B0"/>
					<stop  offset="0.5169" style="stop-color:#A1A1A1"/>
					<stop  offset="0.6983" style="stop-color:#999999"/>
					<stop  offset="1" style="stop-color:#969696"/>
					<midPointStop  offset="0" style="stop-color:#FFFFFF"/>
					<midPointStop  offset="0.2" style="stop-color:#FFFFFF"/>
					<midPointStop  offset="1" style="stop-color:#969696"/>
				</radialGradient>
				<path style="fill:url(#XMLID_16_);" d="M8.173,4.369L7.379,4.765c-0.038-0.036-0.08-0.069-0.136-0.076
					c-0.738-0.027-1.34-0.469-2.07-0.613C3.989,3.842,2.751,4.162,1.872,4.975C1.2,5.596,1.048,6.521,0.665,7.33
					C0.329,8.033-0.007,8.76,0.013,9.533c0.023,1.043,0.199,2.098,0.68,3.055c0.238,0.484,0.574,0.902,0.852,1.359
					c0.238,1.164,0.691,2.246,1.117,3.359c0.223,0.582,0.719,1.016,1.281,1.25c0.398,0.164,0.816-0.074,1.23-0.156
					c0.754-0.145,1.398,0.227,2.102,0.43c0.176,0.051,0.352,0.047,0.527,0.047c0.117,0,0.202-0.089,0.229-0.198l0.143,0.027V4.369z"
					/>
				<path d="M7.267,3.899C6.782,3.934,6.184,3.907,5.833,4.29C5.743,4.395,5.75,4.551,5.856,4.645
					c0.102,0.09,0.258,0.083,0.352-0.023c0.285-0.21,0.699-0.218,1.059-0.223c0.136,0,0.25-0.113,0.25-0.25
					C7.517,4.012,7.403,3.899,7.267,3.899L7.267,3.899z"/>
				<path d="M7.231,4.774c-0.738-0.027-1.339-0.469-2.07-0.613C3.977,3.926,2.739,4.247,1.86,5.059
					C1.188,5.68,1.036,6.606,0.653,7.415C0.317,8.118-0.019,8.844,0,9.618c0.024,1.043,0.199,2.098,0.68,3.055
					c0.238,0.484,0.574,0.902,0.852,1.359c0.239,1.164,0.691,2.246,1.118,3.359c0.222,0.583,0.718,1.016,1.281,1.25
					c0.399,0.164,0.816-0.074,1.23-0.156c0.754-0.145,1.398,0.226,2.102,0.43c0.176,0.051,0.352,0.046,0.527,0.046
					c0.137,0,0.25-0.113,0.25-0.25c0-0.137-0.113-0.25-0.25-0.25c-0.105,0-0.21,0.016-0.309-0.008
					c-0.801-0.203-1.516-0.625-2.363-0.465c-0.34,0.066-0.645,0.262-0.965,0.184c-0.414-0.098-0.757-0.418-0.953-0.801
					c-0.285-0.566-0.438-1.164-0.688-1.742c-0.25-0.574-0.293-1.199-0.535-1.769c-0.227-0.524-0.644-0.941-0.867-1.457
					c-0.445-1.036-0.777-2.161-0.531-3.321c0.25-1.167,0.847-2.109,1.269-3.184c0.066-0.171,0.164-0.332,0.301-0.453
					C2.907,4.77,3.942,4.508,4.922,4.633c0.786,0.098,1.445,0.625,2.254,0.641c0.137,0.012,0.262-0.086,0.278-0.223
					C7.465,4.915,7.368,4.79,7.231,4.774L7.231,4.774z"/>
				<path style="fill:none;stroke:#000000;stroke-width:0.6;" d="M8.392,18.834c4.002,0,7.248-3.245,7.248-7.248
					c0-4.002-3.245-7.248-7.248-7.248"/>
				<line style="fill:none;stroke:#000000;stroke-width:0.6;" x1="8.142" y1="5.211" x2="8.142" y2="17.961"/>
				<path style="fill:none;stroke:#000000;stroke-width:0.5;" d="M7.892,4.649c0.125-0.8,0.449-1.57,0.804-2.308
					C8.844,2.04,8.958,1.728,9.008,1.395L9.04,1.27C9.09,1.188,9.09,1.083,9.04,1L9.004,0.95C8.985,0.915,8.969,0.883,8.95,0.849
					l-0.129-0.18l-0.046,0.39V1.044c0.039-0.008,0.066-0.083,0.117-0.02c0.136-0.02,0.23-0.148,0.21-0.285
					c-0.019-0.136-0.148-0.23-0.285-0.21C8.774,0.536,8.735,0.544,8.692,0.551l-0.18,0.082C8.411,0.696,8.368,0.825,8.411,0.934
					l0.106,0.165l0.004,0.004l0.097,0.164L8.579,1.125L8.517,1.317c0-0.008,0-0.012,0-0.019c-0.024,0.125-0.04,0.25-0.083,0.367
					c-0.387,0.98-0.938,1.929-1.042,2.984c0,0.137,0.113,0.25,0.25,0.25C7.778,4.899,7.892,4.786,7.892,4.649L7.892,4.649z"/>
			</g>
			<g>
				<text transform="matrix(1 0 0 1 22.6602 15.2715)"><tspan x="0" y="0" style="font-family:'Helvetica'; font-size:11;">Light and Matter</tspan></text>
			</g>
		</g>
	</svg>
