<?xml version="1.0" encoding="UTF-8" standalone="no"?>
<!-- Created with Inkscape (http://www.inkscape.org/) -->

<svg
   xmlns:dc="http://purl.org/dc/elements/1.1/"
   xmlns:cc="http://creativecommons.org/ns#"
   xmlns:rdf="http://www.w3.org/1999/02/22-rdf-syntax-ns#"
   xmlns:svg="http://www.w3.org/2000/svg"
   xmlns="http://www.w3.org/2000/svg"
   xmlns:sodipodi="http://sodipodi.sourceforge.net/DTD/sodipodi-0.dtd"
   xmlns:inkscape="http://www.inkscape.org/namespaces/inkscape"
   width="744.09448819"
   height="1052.3622047"
   id="svg2"
   sodipodi:version="0.32"
   inkscape:version="0.47pre4 r22446"
   sodipodi:docname="chiao-paradox.svg"
   inkscape:output_extension="org.inkscape.output.svg.inkscape"
   version="1.1">
  <defs
     id="defs4">
    <inkscape:perspective
       sodipodi:type="inkscape:persp3d"
       inkscape:vp_x="0 : 526.18109 : 1"
       inkscape:vp_y="0 : 1000 : 0"
       inkscape:vp_z="744.09448 : 526.18109 : 1"
       inkscape:persp3d-origin="372.04724 : 350.78739 : 1"
       id="perspective10" />
    <inkscape:perspective
       id="perspective2444"
       inkscape:persp3d-origin="372.04724 : 350.78739 : 1"
       inkscape:vp_z="744.09448 : 526.18109 : 1"
       inkscape:vp_y="0 : 1000 : 0"
       inkscape:vp_x="0 : 526.18109 : 1"
       sodipodi:type="inkscape:persp3d" />
    <inkscape:perspective
       id="perspective3440"
       inkscape:persp3d-origin="372.04724 : 350.78739 : 1"
       inkscape:vp_z="744.09448 : 526.18109 : 1"
       inkscape:vp_y="0 : 1000 : 0"
       inkscape:vp_x="0 : 526.18109 : 1"
       sodipodi:type="inkscape:persp3d" />
    <inkscape:perspective
       id="perspective4441"
       inkscape:persp3d-origin="372.04724 : 350.78739 : 1"
       inkscape:vp_z="744.09448 : 526.18109 : 1"
       inkscape:vp_y="0 : 1000 : 0"
       inkscape:vp_x="0 : 526.18109 : 1"
       sodipodi:type="inkscape:persp3d" />
    <inkscape:perspective
       id="perspective4258"
       inkscape:persp3d-origin="0.5 : 0.33333333 : 1"
       inkscape:vp_z="1 : 0.5 : 1"
       inkscape:vp_y="0 : 1000 : 0"
       inkscape:vp_x="0 : 0.5 : 1"
       sodipodi:type="inkscape:persp3d" />
  </defs>
  <sodipodi:namedview
     id="base"
     pagecolor="#ffffff"
     bordercolor="#666666"
     borderopacity="1.0"
     gridtolerance="10000"
     guidetolerance="10"
     objecttolerance="10"
     inkscape:pageopacity="0.0"
     inkscape:pageshadow="2"
     inkscape:zoom="1.3051421"
     inkscape:cx="164.66393"
     inkscape:cy="698.16486"
     inkscape:document-units="px"
     inkscape:current-layer="layer1"
     showgrid="false"
     inkscape:window-width="1278"
     inkscape:window-height="996"
     inkscape:window-x="3"
     inkscape:window-y="5"
     inkscape:window-maximized="0" />
  <metadata
     id="metadata7">
    <rdf:RDF>
      <cc:Work
         rdf:about="">
        <dc:format>image/svg+xml</dc:format>
        <dc:type
           rdf:resource="http://purl.org/dc/dcmitype/StillImage" />
        <dc:title></dc:title>
      </cc:Work>
    </rdf:RDF>
  </metadata>
  <g
     inkscape:label="Layer 1"
     inkscape:groupmode="layer"
     id="layer1">
    <rect
       style="fill:#dedede;fill-opacity:1;fill-rule:evenodd;stroke:none"
       id="rect2383"
       width="184.25197"
       height="164.20064"
       x="3.2957809"
       y="325.48279" />
    <g
       id="g4283"
       transform="translate(2.2448952,-3.1282083)">
      <g
         transform="matrix(0.5811528,-0.8137945,0.8137945,0.5811528,-295.73674,248.1812)"
         id="g3368">
        <g
           id="g3341">
          <path
             d="m 142.12711,410.95056 c 0,26.71678 -21.65822,48.375 -48.374997,48.375 -26.716774,0 -48.375,-21.65822 -48.375,-48.375 0,-26.71677 21.658226,-48.375 48.375,-48.375 26.716777,0 48.374997,21.65823 48.374997,48.375 z"
             sodipodi:ry="48.375"
             sodipodi:rx="48.375"
             sodipodi:cy="410.95056"
             sodipodi:cx="93.752113"
             id="path3262"
             style="fill:none;stroke:#000000;stroke-width:0.875;stroke-linecap:butt;stroke-linejoin:miter;stroke-miterlimit:4;stroke-opacity:1;stroke-dasharray:none;stroke-dashoffset:0;marker:none;visibility:visible;display:inline;overflow:visible;enable-background:accumulate"
             sodipodi:type="arc" />
          <g
             id="g3316">
            <path
               style="fill:none;stroke:#444444;stroke-width:0.625;stroke-linecap:butt;stroke-linejoin:miter;stroke-miterlimit:4;stroke-opacity:1;stroke-dasharray:none;stroke-dashoffset:0;marker:none;visibility:visible;display:inline;overflow:visible;enable-background:accumulate"
               d="m 75.545863,455.8721 c -0.02654,-0.0524 1.383796,0.14745 1.556783,0.18115 0.29849,0.0581 0.586963,0.12006 0.886895,0.16907 0.415972,0.068 0.278021,-0.1356 0.415141,-0.3623 0.227098,-0.37547 0.303425,-0.34374 0.811415,-0.43477 0.430614,-0.0772 0.861638,0.13257 1.273731,0.22946 0.353817,0.0832 0.610798,-0.0174 0.820848,-0.0604 0.06112,-0.0125 0.414021,-0.33531 0.622713,-0.38647 0.424539,-0.10405 0.924375,0.0374 1.330342,0.13285 0.334034,0.0785 0.681797,0.0404 1.018985,0.0242 0.272722,-0.0132 0.546596,-0.0397 0.820848,-0.0604 0.321019,-0.0242 0.714214,0.10735 1.018986,0.157 0.293507,0.0478 0.56588,0.10863 0.849154,0.18115 0.264174,0.0676 0.445972,0.18458 0.726498,0.22947 0.310455,0.0497 0.614913,0.13104 0.924635,0.19322 0.308007,0.0618 0.610074,0.14228 0.915198,0.21738 0.276804,0.0681 0.568888,0.0535 0.849155,0.0604 0.278502,0.007 0.582428,-0.0633 0.858589,-0.0845 0.03957,-0.003 0.259268,-0.5589 0.273616,-0.59177 0.113125,-0.25911 0.431124,0.11209 0.500058,0.14493 0.30589,0.14569 0.166626,0.11302 0.264181,-0.38646 0.02106,-0.10783 0.460025,0.29369 0.518927,0.33815 0.295173,0.22282 0.394254,0.31029 0.754804,0.41062 0.295779,0.0823 0.606572,0.10329 0.905764,0.14492 0.241135,0.0335 0.484184,-0.042 0.717064,-0.0845 0.603867,-0.11042 1.189348,-0.2154 1.802094,-0.24154 0.149805,-0.006 0.424425,0.0898 0.575538,0.12077 0.227711,0.0466 0.466119,0.0181 0.69819,0.0121 0.63323,-0.0165 1.257701,-0.0418 1.887015,-0.12076 0.29469,-0.037 0.52449,-0.0181 0.80198,0.0121 0.34671,0.0378 0.73275,0.21157 1.06616,0.314 0.29964,0.092 0.48688,0.0679 0.77367,0.0604 0.20829,-0.005 0.31673,-0.0332 0.56611,0 0.217,0.0289 0.50581,-0.17615 0.69819,-0.2657 0.21806,-0.10149 0.4907,0.0266 0.71706,0.0845 0.25453,0.0652 0.53219,0.0583 0.79255,0.12077 0.25043,0.0601 0.47206,0.23005 0.73593,0.30192 0.32229,0.0878 0.79145,-0.0339 1.12277,-0.0604 0.21455,-0.0172 0.49391,0.0306 0.70763,0.0362 0.15617,0.004 0.39801,-0.46431 0.47175,-0.57968 0.13572,-0.21233 0.29397,-0.41206 0.42458,-0.628 0.17648,-0.29178 0.31869,-0.0213 0.50005,0.0242 0.20791,0.0521 0.29013,0.31924 0.46232,0.44685 0.17634,0.13066 0.80125,-0.0489 1.00012,-0.0725 0.0803,-0.01 -0.14467,-0.0725 -0.21701,-0.10869"
               id="path3252" />
            <path
               style="fill:none;stroke:#444444;stroke-width:0.62500006;stroke-linecap:butt;stroke-linejoin:miter;stroke-miterlimit:4;stroke-opacity:1;stroke-dasharray:none;stroke-dashoffset:0;marker:none;visibility:visible;display:inline;overflow:visible;enable-background:accumulate"
               d="m 104.49218,387.54398 c -0.15165,-0.13317 0.67,-0.0314 0.51835,-0.16459 -0.27353,-0.2402 -1.2141,0.29846 -1.47129,0.41157 -0.28864,0.12695 -0.43083,0.37334 -0.63299,0.60084 -0.16425,0.18481 -0.14777,0.61471 -0.17473,0.75886 -0.0259,0.13859 -0.71736,0.39102 -0.84346,0.45609 -0.25632,0.13224 -0.50519,0.27422 -0.76134,0.40638 -0.27841,0.14365 -0.507,0.26609 -0.80015,0.37545 -0.378445,0.14117 -0.619156,0.12795 -0.965548,0.34493 -0.188375,0.118 -0.4539,0.5228 -0.62673,0.68413 -0.25195,0.23518 -0.865602,0.38389 -1.178431,0.53909 -0.368224,0.18268 -0.71459,0.61055 -1.010089,0.89439 -0.342133,0.32862 -0.715939,0.49745 -1.144113,0.6816 -0.334239,0.14374 -0.569511,0.31399 -0.848532,0.5027 -0.158181,0.10698 0.165213,0.79042 0.206795,0.95246 0.07875,0.30689 -0.257341,0.56586 -0.416858,0.76392 -0.245634,0.30498 -0.4599,0.5915 -0.66855,0.92713 -0.206448,0.33209 -0.428805,0.61978 -0.618697,0.96227 -0.160107,0.28878 -0.213128,0.62941 -0.294175,0.94002 -0.08286,0.31758 -0.06068,0.70165 -0.100721,1.02975 -0.03789,0.31052 -0.232608,0.68819 -0.32672,0.99237 -0.102399,0.33096 0.384693,0.86118 0.543839,1.09679 0.307903,0.45582 0.556905,0.88686 0.717262,1.40546 0.138698,0.44854 0.27396,0.86673 0.441117,1.30048 0.236604,0.61395 0.523616,1.18256 0.868888,1.73821 0.305146,0.49107 0.483529,0.96189 0.624701,1.51591 0.0891,0.34966 0.214529,0.66112 0.344718,0.98873 0.134628,0.33878 0.388881,0.51822 0.63971,0.74486 0.365033,0.32985 1.125461,-0.0518 1.484406,-0.18003 0.537136,-0.19189 1.024692,-0.51911 1.539698,-0.75775 0.383206,-0.17758 0.66001,-0.18204 0.97777,-0.21083 0.16147,-0.0146 0.42874,1.2056 0.48022,1.36388 0.16112,0.49544 0.37433,0.60699 0.8057,0.84034 0.35894,0.19417 0.88599,0.0512 1.26047,0.01 0.33898,-0.0374 0.70052,-0.006 1.04014,-0.009 0.42743,-0.003 0.85677,-0.035 1.2766,-0.0325 0.41119,0.002 0.79374,0.10113 1.19597,0.1796 0.46638,0.091 0.46363,0.52751 0.58596,0.88625 0.11318,0.33194 0.13267,0.65766 0.16319,1.00063 0.0331,0.37224 0.0988,0.60795 0.2065,0.91998 0.12483,0.36149 1.08134,0.30678 1.31269,0.30489 0.49295,-0.004 0.90484,-0.21943 1.33933,-0.39701 0.28043,-0.11462 0.227,0.92824 0.22381,1.00749 -0.0199,0.49422 -0.42282,1.0692 -0.65249,1.48344 -0.28952,0.52219 -0.73431,0.90085 -0.9994,1.46483 -0.15164,0.3226 -0.16314,0.60461 -0.18401,0.94953 -0.0191,0.31512 -0.0677,0.63688 -0.0959,0.95065 -0.0106,0.11782 0.23068,-0.0525 0.34603,-0.0788 0.3034,-0.0691 -0.15975,0.60373 -0.19535,0.91286 -0.0448,0.38889 -0.0576,0.74052 -0.0503,1.12983 0.008,0.44733 0.0824,0.86945 0.14943,1.30286 0.0673,0.43536 0.13775,0.88227 0.20467,1.32386 0.0723,0.47738 0.0418,0.9653 0.008,1.44312 -0.0369,0.5159 -0.26747,0.98944 -0.4656,1.45741 -0.14178,0.33488 -0.27176,0.66252 -0.42584,0.98705 -0.17426,0.36705 -0.71115,0.71567 -0.99249,1.01435 -0.28247,0.2999 -0.52122,0.61313 -0.77304,0.93596 -0.20297,0.26019 -0.33253,0.59208 -0.48732,0.88276 -0.13955,0.26203 -0.26747,0.5028 -0.39477,0.77231 -0.13512,0.28606 -0.17071,0.56491 -0.23983,0.86358 -0.0607,0.26219 -0.062,0.56599 -0.10249,0.83488 -0.0664,0.44065 -0.13084,0.87488 -0.20823,1.31252 -0.0579,0.32755 -0.21042,0.64905 -0.31597,0.96409 -0.1726,0.51518 -0.49132,0.99664 -0.66861,1.52586 -0.18603,0.55525 -0.33218,1.1172 -0.46354,1.68475 -0.0678,0.29283 -0.13824,0.58886 -0.20669,0.87618 -0.064,0.26868 0.18742,0.96735 0.22617,1.2673 0.047,0.36417 -0.0339,0.7479 -0.0559,1.11149 -0.0174,0.28671 -0.17546,0.54322 -0.27893,0.80016 -0.10385,0.25788 -0.37195,0.48454 -0.55508,0.69518 -0.3375,0.38824 -0.1872,0.43224 -0.0858,0.85743 0.0556,0.23303 0.58603,0.29266 0.76276,0.35472 0.26721,0.0938 0.6972,-0.18449 0.92195,-0.29678 0.29339,-0.14656 0.58769,-0.10548 0.87387,-0.13706 0.3009,-0.0332 0.73654,0.47325 0.93051,0.64506 0.26834,0.23767 0.52228,0.43559 0.80392,0.64548 0.23562,0.17558 0.51767,0.18695 0.78933,0.25154 0.37655,0.0895 0.93364,-0.27512 1.27874,-0.40386 0.52606,-0.19624 1.04416,-0.66053 1.47135,-1.0103 0.46825,-0.38336 0.98572,-0.73152 1.47615,-1.08938 0.44939,-0.32792 0.90106,-0.63606 1.32835,-0.99993 0.29798,-0.25376 0.66865,-0.37869 0.98558,-0.56388 0.37259,-0.21771 0.8711,-0.0715 1.26584,-0.004 0.25095,0.0428 0.49116,0.0833 0.72755,0.11479 0.32643,0.0435 0.66271,-0.44934 0.84168,-0.65095 0.36843,-0.41502 0.585,-1.01417 0.83938,-1.50948 0.24643,-0.4798 0.59488,-0.92378 0.9179,-1.35018 0.28303,-0.37363 0.47166,-0.54429 0.86258,-0.77245 0.46601,-0.27199 0.93691,-0.41143 1.4537,-0.53155 0.37957,-0.0882 0.79329,-0.0962 1.18168,-0.18185 0.39333,-0.0867 0.78062,-0.31521 1.13483,-0.49093 0.48868,-0.24245 0.8404,-0.81401 1.17224,-1.22112 0.59127,-0.72538 0.78956,-1.79489 1.09865,-2.65695 0.27465,-0.76604 0.63377,-1.48268 0.97052,-2.2202 0.27113,-0.59379 0.59977,-1.07065 0.81015,-1.69862 0.14062,-0.41972 0.38151,-0.72218 0.64528,-1.06544 0.29954,-0.38978 0.81886,-0.67858 1.21311,-0.96283 0.38733,-0.27926 0.76785,-0.53153 1.17069,-0.78477 0.45611,-0.28674 0.86592,-0.76014 1.3,-1.09163 0.43769,-0.33425 0.80103,-0.74223 1.20626,-1.11109 0.51545,-0.46918 0.97802,-1.02411 1.42783,-1.56086 0.44737,-0.53382 0.75183,-1.20577 1.14513,-1.78162 0.42366,-0.62029 0.57162,-1.35287 0.71316,-2.07531 0.0692,-0.35343 0.22087,-0.71229 0.31509,-1.06151 0.12244,-0.45393 -0.6986,0.0431 -0.94553,0.12599 -0.42267,0.14185 -0.90307,0.18616 -1.34051,0.2671 -0.45246,0.0837 -0.33658,-0.15005 -0.52122,-0.42472 -0.17597,-0.26178 -0.16079,-0.90246 -0.20915,-1.21228 -0.0535,-0.34276 0.0472,-0.64097 0.11773,-0.97473 0.0672,-0.31794 -0.57498,-0.4986 -0.78154,-0.6046 -0.32419,-0.16638 -0.30546,-0.67102 -0.35546,-0.96045 -0.0581,-0.33628 -0.10628,-0.66762 -0.17425,-1.00482 -0.0768,-0.38076 -0.24728,-0.73089 -0.33486,-1.11444 -0.11033,-0.48324 -0.14043,-0.90819 -0.10075,-1.39763 0.0382,-0.47176 0.0145,-0.95463 -0.002,-1.42479 -0.0192,-0.55114 0.006,-1.09862 -0.0315,-1.64638 -0.0272,-0.4021 -0.10327,-0.75642 -0.17542,-1.13473 -0.10987,-0.57612 -0.28373,-1.13221 -0.3733,-1.71162 -0.0549,-0.35527 -0.1516,-0.69112 -0.25157,-1.03422 -0.11412,-0.39171 -0.23322,-0.72792 -0.40621,-1.09301 -0.11693,-0.2468 -0.23318,-0.46212 -0.38057,-0.6949 -0.13988,-0.2209 -0.29195,-0.43779 -0.43521,-0.65093 -0.15591,-0.23193 -0.26972,-0.48989 -0.38655,-0.74572 -0.1072,-0.23472 -0.20048,-0.50081 -0.28742,-0.74038 -0.0683,-0.18823 -0.29447,-0.27915 -0.42748,-0.40525 -0.0672,-0.0637 -0.42826,-0.24279 -0.52004,-0.29482 -0.21713,-0.12309 -0.47451,-0.21536 -0.70186,-0.31539 -0.23114,-0.10168 -0.47273,-0.34406 -0.67048,-0.49764 -0.27986,-0.21735 -0.5106,-0.40994 -0.76004,-0.66116 -0.19732,-0.19872 -0.44945,-0.33828 -0.68153,-0.50184 -0.27663,-0.19497 -0.48276,-0.41318 -0.71047,-0.6585 -0.16466,-0.17737 -0.35085,-0.29213 -0.53795,-0.44726 -0.20948,-0.17369 -0.54151,-0.18699 -0.78933,-0.25154 -0.22495,-0.0586 -0.53365,0.0248 -0.76459,0.0491 -0.26761,0.0282 -0.16354,0.55336 -0.1804,0.74053 -0.0586,0.64977 -0.0848,0.3641 -0.45118,0.6214 -0.25209,0.17705 -1.0553,-0.64517 -1.1959,-0.77832 -0.24035,-0.22761 -0.41235,-0.65874 -0.59192,-0.93706 -0.26047,-0.40369 -0.67821,-0.76002 -1.02809,-1.08672 -0.30507,-0.28484 -0.64169,-0.54724 -0.97049,-0.8059 -0.34363,-0.27031 -0.67155,-0.40095 -1.07831,-0.5556 -0.40391,-0.15356 -0.71539,-0.32662 -1.06187,-0.56554 -0.39851,-0.27479 0.33265,-0.46472 0.49594,-0.53965 0.42439,-0.19477 0.41956,-0.2275 0.63837,-0.61497 0.12635,-0.22373 -0.25113,-0.73 -0.3495,-0.90963 -0.1364,-0.24903 -0.2142,-0.47288 -0.35849,-0.68649 -0.2338,-0.34614 -1.20289,-0.12328 -1.50886,-0.0882 -0.3371,0.0387 -0.64885,0.10219 -0.97806,0.17834 -0.3756,0.0869 -0.65708,0.10872 -1.05031,0.10234 -0.51567,-0.008 -1.11003,-0.30458 -1.60555,-0.43241 -0.35941,-0.0927 -0.71134,-0.16286 -1.06997,-0.24497 -0.39945,-0.0915 -0.89727,-0.011 -1.32167,-0.0817 -0.41998,-0.07 -0.80267,-0.2355 -1.19774,-0.37446 -0.30152,-0.10605 -0.49569,-0.47608 -0.67793,-0.71085 -0.1611,-0.20754 -0.33773,-0.38583 -0.4615,-0.51529 -0.0485,-0.0507 -0.79513,0.35216 -0.88255,0.39267 -0.23219,0.1076 -0.53871,0.16995 -0.7464,0.23406 -0.2432,0.0751 0.18533,0.0413 0.43984,0.0428"
               id="path3236"
               sodipodi:nodetypes="cssssssssssssssssssssssssssssssssssssssssssssssssssssssssssssssssssssssssssssssssssssssssssssssssssssssssssssssssssssssssssssssssssssssssssssssssssssssssssssc" />
            <path
               style="fill:none;stroke:#444444;stroke-width:0.62500006;stroke-linecap:butt;stroke-linejoin:miter;stroke-miterlimit:4;stroke-opacity:1;stroke-dasharray:none;stroke-dashoffset:0;marker:none;visibility:visible;display:inline;overflow:visible;enable-background:accumulate"
               d="m 105.3775,384.15297 c -0.87522,0.27018 0.10646,-1.43634 0.16227,-1.52417 0.21598,-0.33989 0.38612,-0.70676 0.5793,-1.05817 0.14794,-0.26911 0.26187,-0.54384 0.3888,-0.82313 0.0673,-0.14804 1.11366,0.3425 1.24192,0.39126 0.38403,0.146 0.73893,0.38633 1.11682,0.55406 0.21288,0.0945 0.42199,0.13868 0.64574,0.19696 0.30283,0.0789 0.67327,0.0298 0.98551,0.0349 0.36226,0.006 0.44346,-0.34191 0.60014,-0.58095 0.15354,-0.23426 -0.0432,-0.63531 -0.10141,-0.86386 -0.0828,-0.32473 -0.2435,-0.47538 -0.42506,-0.74417 -0.16747,-0.24793 -0.2781,-0.5039 -0.40863,-0.7541 -0.19853,-0.38056 0.70055,-0.30232 0.82283,-0.3021 0.33117,5.8e-4 0.61571,0.0599 0.96342,0.0265 0.3,-0.0289 0.56837,-0.22486 0.82224,-0.36705 0.2987,-0.16729 0.38916,-0.37117 0.76046,-0.50381 0.27184,-0.0971 0.77331,0.0108 1.07866,-0.0106 0.31991,-0.0225 0.62964,-0.17418 0.92763,-0.27844 0.27921,-0.0977 0.44548,-0.1246 0.69742,-0.17177 0.21075,-0.0395 0.63644,0.29392 0.81261,0.38986 0.26531,0.14447 0.50501,0.32735 0.74752,0.49457 0.26617,0.18354 0.58534,0.32474 0.85768,0.50408 0.31742,0.20904 0.67086,0.36246 1.01739,0.51627 0.31934,0.14174 0.62936,0.23578 0.9607,0.33288 0.39581,0.11602 0.53123,-0.14218 0.79536,-0.29635 0.18462,-0.10776 -0.075,-0.80493 -0.11334,-0.96549 -0.0788,-0.33053 -0.23998,-0.60727 -0.40443,-0.89816 -0.15082,-0.26675 -0.0384,-0.66576 -0.0307,-0.95023 0.01,-0.35601 -0.037,-0.56085 -0.13455,-0.87645 -0.0412,-0.13333 -0.48276,0.42668 -0.56222,0.51445 -0.23935,0.26441 -0.39396,0.50904 -0.55389,0.82509 -0.17358,0.34298 -0.52875,0.52828 -0.80796,0.72849 -0.22229,0.1594 -0.63639,0.0438 -0.88042,0.0213 -0.42311,-0.039 -0.20274,-0.31822 -0.28566,-0.54552 -0.0502,-0.13774 -0.0713,-0.63304 -0.0949,-0.74809 -0.0493,-0.24015 -0.94797,-0.10391 -1.09058,-0.091 -0.27326,0.0248 -0.54585,0.005 -0.81445,0.014 -0.50923,0.0163 -0.38898,-0.27191 -0.52806,-0.57297 -0.0728,-0.15758 0.0983,-0.57936 0.13083,-0.74318 0.10754,-0.54166 0.1137,-0.36161 0.41178,-0.7173 0.076,-0.0907 0.98078,-0.35415 1.17902,-0.47414 0.19455,-0.11775 0.23549,-0.66656 0.27834,-0.86512 0.0982,-0.45477 0.19337,-0.44005 0.54971,-0.68105 0.37704,-0.25499 1.15649,-0.0894 1.56798,-0.0673 0.58813,0.0316 0.78294,0.0451 1.2688,0.32055 0.35807,0.20299 0.56821,0.56992 0.78957,0.88275 0.19222,0.27167 0.43024,0.51392 0.64538,0.76322 0.22602,0.26189 0.66469,0.35129 0.9783,0.45285 0.40882,0.13237 0.82404,0.1434 1.24552,0.18225 0.32103,0.0296 0.65066,-0.0517 0.95119,-0.10766 0.35389,-0.0659 -0.006,-0.0106 -0.0224,-0.0409"
               id="path3238" />
            <path
               style="fill:none;stroke:#444444;stroke-width:0.62500006;stroke-linecap:butt;stroke-linejoin:miter;stroke-miterlimit:4;stroke-opacity:1;stroke-dasharray:none;stroke-dashoffset:0;marker:none;visibility:visible;display:inline;overflow:visible;enable-background:accumulate"
               d="m 106.11957,385.2604 c 0.39723,-0.074 0.64248,0.55177 1.04038,0.6221 0.27198,0.0481 0.60399,-0.0126 0.88042,-0.0213 0.27604,-0.009 0.53685,0.0417 0.80428,0.0792 0.24425,0.0343 0.51406,0.20655 0.72933,0.30964 0.27379,0.13111 0.51612,-0.21615 0.70132,-0.34829 0.27675,-0.19745 0.4461,-0.40205 0.68792,-0.61231 0.16106,-0.14003 0.0639,-0.65893 0.0583,-0.85168 -0.008,-0.27821 0.60613,-0.41159 0.79359,-0.49121 0.29332,-0.1246 0.60476,-0.21198 0.90524,-0.31932 0.13213,-0.0472 0.60176,-0.0636 0.74757,-0.10416 0.2627,-0.073 0.32008,-0.44171 0.4894,-0.65543 0.11581,-0.14615 0.55976,0.50474 0.61614,0.57409 0.20334,0.25012 0.32115,0.33232 0.57704,0.51067 0.32588,0.22713 0.78416,0.0746 1.12851,0.0245 0.22449,-0.0327 0.43929,-0.11349 0.65892,-0.17023 0.29605,-0.0765 0.10442,0.60385 0.18979,0.89746 0.0742,0.25514 0.1339,0.49416 0.22144,0.74767 0.0988,0.28603 0.29679,0.43299 0.48477,0.6536 0.18797,0.22057 0.49801,0.4153 0.71556,0.61187 0.23823,0.21527 0.39688,0.39694 0.58926,0.64477 0.17305,0.22293 0.26266,0.35979 0.40178,0.60586 0.14731,0.26056 0.16093,0.61803 0.21188,0.90586 0.0511,0.28896 0.041,0.5814 0.0465,0.87533 0.002,0.0914 0.52766,-0.40677 0.57923,-0.45943 0.23884,-0.24388 0.22626,-0.41842 0.31266,-0.72262 0.17533,-0.61735 -0.0572,0.10027 0.0759,-0.13299 0.004,-0.006 0.548,0.32385 0.60869,0.36089 0.23358,0.14252 0.0471,-0.55763 -0.0295,-0.82032 -0.0786,-0.26968 -0.37089,-0.40038 -0.55553,-0.56723 -0.17659,-0.15956 -0.33473,-0.32536 -0.49435,-0.49541 -0.22358,-0.23818 -0.4259,-0.50659 -0.63433,-0.75901 -0.25019,-0.30296 -0.32972,-0.57202 -0.43788,-0.94323 -0.23373,-0.8022 0.0926,-0.16765 0.24366,-0.44138 0.19389,-0.35121 1.25013,0.85999 1.34666,1.01364 0.18066,0.28761 0.31624,0.60285 0.48146,0.89508 0.16704,0.29547 0.35395,0.56561 0.50863,0.85686 0.13792,0.25967 0.20635,0.50885 0.28235,0.787 0.0855,0.31286 0.0817,0.63569 0.11871,0.95134 0.0348,0.29656 0.13487,0.6253 0.22859,0.9284 0.0481,0.15556 0.30849,0.43791 0.38477,0.55085 0.10944,0.16201 0.0647,0.88507 0.0981,1.10533 0.0498,0.32841 0.2951,0.41275 0.50629,0.59704 0.31487,0.27479 0.32347,-0.0551 0.57621,-0.18549 0.28159,-0.14528 0.13579,-0.58254 0.13593,-0.78981 1.2e-4,-0.19543 0.3125,-0.23633 0.48129,-0.33484 0.21881,-0.12771 -0.45854,-0.6936 -0.51312,-0.74529 -0.21495,-0.20356 -0.23479,-0.33799 -0.35133,-0.50577 -0.14418,-0.20754 0.71932,-0.0603 0.81414,-0.0465 0.24721,0.0359 0.46236,-0.14546 0.66937,-0.23098 0.31638,-0.13071 0.4647,0.30171 0.59287,0.43577 0.0376,0.0393 -0.31315,0.67718 -0.35088,0.75663 -0.17292,0.36421 -0.12229,0.557 -0.0741,0.92658 0.0284,0.21814 0.36068,0.56113 0.48567,0.75102 0.16891,0.25663 0.31517,0.43181 0.52328,0.65206 0.20901,0.2212 0.58325,0.33462 0.84633,0.46741 0.1969,0.0994 0.3996,0.198 0.59707,0.29173 0.0367,0.0174 0.39611,-0.20314 0.47114,-0.24162 0.20746,-0.1064 0.64724,0.41139 0.76423,0.51711 0.22739,0.20546 0.45265,0.26125 0.71349,0.38453 0.0896,0.0423 0.63104,-0.25091 0.74581,-0.29901 0.39861,-0.16707 0.46846,0.35889 0.57196,0.55728 0.18213,0.34913 0.007,0.62354 -0.0849,0.95485 -0.0597,0.21536 -0.3664,0.5443 -0.49418,0.73452 -0.23856,0.35512 -0.37916,0.83871 -0.55573,1.22895 -0.1161,0.25657 -0.21157,0.52323 -0.31207,0.78757 -0.0167,0.0439 0.45638,0.6227 0.50716,0.69447 0.21856,0.30889 0.25273,0.7791 0.34589,1.11863 0.10709,0.39026 0.22533,0.75738 0.30769,1.15264 0.11484,0.55115 0.25556,1.08988 0.34524,1.65242 0.0803,0.50384 0.0523,0.989 0.1512,1.49771 0.0941,0.48401 0.36217,0.9715 0.48649,1.44718 0.0861,0.32963 0.1244,0.68861 0.16886,1.01896 0.0615,0.45668 0.16615,0.91175 0.26556,1.36319 0.0868,0.3944 0.1312,0.79176 0.242,1.19241 0.095,0.34363 0.1815,0.66885 0.28979,1.00021 0.13156,0.40259 0.1932,0.80676 0.24228,1.22488 0.0473,0.40272 0.20454,0.81907 0.32469,1.20766 0.12803,0.41404 0.23154,0.82123 0.32499,1.24015 0.0685,0.30697 0.12346,0.57742 0.15127,0.899 0.0409,0.47263 0.50148,0.24974 0.88249,0.20605 0.28434,-0.0326 0.61051,-0.23233 0.88315,-0.32772 0.24346,-0.0852 0.52582,-0.32915 0.74432,-0.4614 0.26771,-0.16203 0.59504,-0.26072 0.88255,-0.39266 0.32486,-0.14909 0.54173,-0.43765 0.76974,-0.69449 0.25506,-0.28731 0.20455,-0.61436 0.24462,-0.94267 8.9e-4,-0.007 0.66192,-0.39936 0.72254,-0.43732 0.31824,-0.19936 0.48923,-0.92104 0.61066,-1.24043 0.2102,-0.55288 0.272,-1.21607 0.37994,-1.79743 0.0639,-0.34404 0.0771,-0.72086 0.11148,-1.05803 0.023,-0.22572 -0.82117,-0.24557 -0.92697,-0.25533 -0.41734,-0.0385 -0.29035,-0.46337 -0.29847,-0.74459 -0.009,-0.30753 0.0959,-0.68572 0.13416,-0.98466 0.0299,-0.23346 -0.75669,0.9692 -0.93011,1.21606 -0.30883,0.43961 -0.35393,0.0119 -0.52513,-0.24818 -0.16804,-0.25533 0.0229,-0.86505 0.0613,-1.12565 0.0483,-0.3273 0.0703,-0.64322 0.0792,-0.97318 0.0122,-0.45029 -0.75547,-0.0939 -0.87564,-0.0578 -0.0713,0.0214 -0.12864,-1.23874 -0.13927,-1.39609 -0.0201,-0.29734 -0.11375,-0.59372 -0.16769,-0.88905 -0.10187,-0.55773 0.67505,0.8459 0.77433,1.0226 0.22471,0.39995 0.38792,0.83664 0.5892,1.24349 0.15385,0.31101 0.36646,0.5995 0.56387,0.87786 0.1748,0.2465 0.44821,0.45673 0.66658,0.67417 0.12089,0.12038 0.55649,0.13078 0.72247,0.16141 0.43216,0.0797 0.61988,0.66558 0.76866,1.00426 0.15051,0.34261 0.20476,0.65728 0.2844,1.01434 0.11742,0.52631 0.19329,1.0515 0.21807,1.58787 0.0166,0.35976 -0.0236,0.72549 -0.0341,1.08741 -0.0118,0.40365 0.0166,0.79291 0.0384,1.19592 0.0298,0.55155 0.23231,1.16793 0.35121,1.70321 0.0598,0.26913 0.0852,0.56001 0.13963,0.82984 0.0778,0.38569 0.06,0.80217 0.12647,1.19703 0.0633,0.37611 0.0599,0.76026 0.11481,1.12788 0.0352,0.23571 -0.18514,-0.23418 -0.25612,-0.32394"
               id="path3240" />
            <path
               style="fill:none;stroke:#444444;stroke-width:0.62500006;stroke-linecap:butt;stroke-linejoin:miter;stroke-miterlimit:4;stroke-opacity:1;stroke-dasharray:none;stroke-dashoffset:0;marker:none;visibility:visible;display:inline;overflow:visible;enable-background:accumulate"
               d="m 127.18521,387.94536 c 0.0505,0.33778 -0.49007,1.10247 -0.69609,1.5316 -0.2113,0.44015 0.085,0.59042 0.32175,0.88289 0.20329,0.25112 0.76032,0.2495 1.03742,0.29734 0.20072,0.0346 0.65624,-0.15666 0.87328,-0.20201 0.33199,-0.0694 0.69385,0.12666 0.98727,0.22971 0.50586,0.17764 0.7303,0.58878 0.99436,1.00916 0.24664,0.39263 0.54187,0.51038 0.92543,0.69167 0.25716,0.12154 0.34214,-1.22003 0.34019,-1.32708 -0.0101,-0.55325 -0.48852,-1.01494 -0.8325,-1.36837 -0.20945,-0.2152 -0.51485,-0.28503 -0.77977,-0.40974 -0.33434,-0.15739 -0.79617,-0.11538 -1.15716,-0.14865 -0.35577,-0.0328 -0.6206,-0.22167 -0.91711,-0.38104 -0.21228,-0.1141 -0.30581,-0.67891 -0.38234,-0.88976 -0.0818,-0.2255 -0.47819,0.0443 -0.71473,0.0843 z"
               id="path3242" />
            <path
               style="fill:none;stroke:#444444;stroke-width:0.62500006;stroke-linecap:butt;stroke-linejoin:miter;stroke-miterlimit:4;stroke-opacity:1;stroke-dasharray:none;stroke-dashoffset:0;marker:none;visibility:visible;display:inline;overflow:visible;enable-background:accumulate"
               d="m 134.05131,390.07032 c -0.1161,-0.31989 -0.46416,1.23558 -0.46648,1.35998 -0.006,0.31735 0.26008,0.7833 0.37307,1.08041 0.19732,0.51887 0.3979,0.998 0.66292,1.4819 0.23049,0.42085 0.34604,0.68701 0.4453,1.15642 0.0808,0.38224 0.18128,0.76217 0.27455,1.14006 0.0798,0.32323 0.25979,0.57865 0.43161,0.85993 0.19403,0.31765 0.60896,-0.36925 0.67297,-0.43998 0.27826,-0.30737 -0.0106,-0.84203 -0.12048,-1.14621 -0.24451,-0.67696 -0.56569,-1.29407 -0.95277,-1.88338 -0.19418,-0.29562 -0.0415,-0.88511 -0.0109,-1.20164 0.0474,-0.48985 0.005,-0.83501 -0.13838,-1.29866 -0.10545,-0.34102 -0.26885,-0.58379 -0.46475,-0.87254 -0.21205,-0.31255 -0.11104,-0.17808 -0.70664,-0.23629 z"
               id="path3244" />
            <path
               style="fill:none;stroke:#444444;stroke-width:0.62500006;stroke-linecap:butt;stroke-linejoin:miter;stroke-miterlimit:4;stroke-opacity:1;stroke-dasharray:none;stroke-dashoffset:0;marker:none;visibility:visible;display:inline;overflow:visible;enable-background:accumulate"
               d="m 109.3417,375.22248 c -0.27162,-0.40034 -0.86792,-0.20277 -1.22344,-0.17385 -0.31058,0.0253 -0.17704,0.56279 -0.18578,0.75467 -0.02,0.43934 0.0744,0.27027 0.21997,0.58528 0.0857,0.18544 0.82775,0.16742 1.0034,0.1873 0.40842,0.0462 0.39057,-0.20777 0.60162,-0.41856 0.24131,-0.24101 -0.22789,-0.65021 -0.41577,-0.93484 z"
               id="path3246" />
            <path
               style="fill:none;stroke:#444444;stroke-width:0.62500006;stroke-linecap:butt;stroke-linejoin:miter;stroke-miterlimit:4;stroke-opacity:1;stroke-dasharray:none;stroke-dashoffset:0;marker:none;visibility:visible;display:inline;overflow:visible;enable-background:accumulate"
               d="m 110.44913,374.13856 c 0.32181,-0.32141 0.0939,0.90979 0.22138,1.34639 0.0874,0.29935 0.15263,0.61968 0.24501,0.91845 0.12361,0.39977 -0.1417,0.55263 -0.33387,0.81166 -0.21921,0.29548 -0.39696,0.43215 -0.56523,0.7884 -0.15984,0.33839 0.40645,0.38485 0.53794,0.44725 0.21136,0.10033 0.82627,-0.12194 1.06076,-0.16309 0.25737,-0.0451 0.5134,-0.18632 0.75147,-0.28067 0.35968,-0.14256 0.22888,-0.42109 0.24669,-0.71534 0.0116,-0.19161 -0.42372,-0.71682 -0.53103,-0.89773 -0.10911,-0.18396 -0.34907,-0.39285 -0.48418,-0.58864 -0.18451,-0.26738 -0.12841,-0.5094 -0.15576,-0.78743 -0.0377,-0.38336 -0.0817,-0.35422 -0.36356,-0.63988 -0.008,-0.008 -0.0145,0.0161 -0.0218,0.0241"
               id="path3248" />
            <path
               style="fill:none;stroke:#444444;stroke-width:0.62500006;stroke-linecap:butt;stroke-linejoin:miter;stroke-miterlimit:4;stroke-opacity:1;stroke-dasharray:none;stroke-dashoffset:0;marker:none;visibility:visible;display:inline;overflow:visible;enable-background:accumulate"
               d="m 128.40135,436.38851 c -0.14925,-0.15126 0.0182,-0.42462 0.0272,-0.63694 0.0259,-0.60559 -0.39754,0.70322 -0.89543,0.79233 -0.17584,0.0315 -0.64228,0.79413 -0.77304,0.93596 -0.29629,0.32135 -0.67273,0.50367 -1.06173,0.66439 -0.36245,0.14974 -0.65091,0.10776 -1.0285,0.0783 -0.26919,-0.021 -0.50037,-0.01 -0.75951,0.003 -0.17324,0.008 -0.38494,0.78864 -0.44284,0.93203 -0.13345,0.33038 -0.30919,0.63675 -0.4757,0.95192 -0.17469,0.33064 -0.53549,0.54358 -0.8187,0.75677 -0.30229,0.22755 -0.64693,0.3844 -0.9802,0.54974 -0.32997,0.16369 -0.48789,0.41335 -0.7148,0.68299 -0.17765,0.21112 -0.25927,0.46612 -0.37326,0.71577 -0.14344,0.31413 -0.11696,0.56254 -0.15176,0.86469 -0.0377,0.32743 0.51522,0.30617 0.66363,0.3494 0.38077,0.11093 0.81265,-0.17054 1.12528,-0.33275 0.34465,-0.17884 0.66283,-0.58863 0.93335,-0.85883 0.33003,-0.32963 0.56277,-0.81126 0.83129,-1.18891 0.27293,-0.38387 0.66795,-0.7244 0.99757,-1.06097 0.46488,-0.47469 0.94704,-0.94535 1.35706,-1.47448 0.34578,-0.44623 0.74586,-0.88133 1.12746,-1.30287 0.51526,-0.56918 1.40601,-1.48304 1.34639,-2.04493 -0.0245,-0.23065 0.16484,-0.43359 0.24726,-0.65039"
               id="path3250" />
            <path
               style="fill:none;stroke:#444444;stroke-width:0.62500006;stroke-linecap:butt;stroke-linejoin:miter;stroke-miterlimit:4;stroke-opacity:1;stroke-dasharray:none;stroke-dashoffset:0;marker:none;visibility:visible;display:inline;overflow:visible;enable-background:accumulate"
               d="m 102.02781,364.39917 c 0.43963,0.11008 -0.9453,0.1144 -1.30082,0.39547 -0.26102,0.20635 -0.56688,0.33306 -0.854199,0.48435 -0.284685,0.14991 -0.494332,0.22445 -0.811788,0.3063 -0.269595,0.0695 -0.595533,0.0627 -0.868789,0.0904 -0.328864,0.0333 -0.696463,0.31535 -1.003173,0.4439 -0.300185,0.12583 -0.591986,0.24337 -0.893894,0.35599 -0.300894,0.11225 -0.264939,0.59708 -0.306399,0.80591 -0.07138,0.35958 0.359556,0.59032 0.518797,0.76363 0.106094,0.11546 0.77293,-0.21 0.905824,-0.25436 0.527935,-0.17623 1.063359,-0.35367 1.591325,-0.52777 0.416862,-0.13746 0.870983,-0.18531 1.301996,-0.26555 0.42128,-0.0784 0.76229,-0.20508 1.19214,-0.24261 0.4359,-0.0381 0.84836,-0.008 1.28256,0.0183 0.54585,0.0325 1.11955,0.34473 1.62853,0.53824 0.348,0.13231 0.69083,0.24608 1.04339,0.34814 0.35616,0.10311 0.57829,-0.0196 0.90701,-0.12446 0.41388,-0.13202 0.37175,-0.30146 0.55567,-0.63022 0.21651,-0.38702 0.94169,-0.17068 1.3196,-0.14559 0.40748,0.027 1.00373,0.32516 1.41836,0.42596 0.44632,0.10851 0.88197,0.10994 1.34405,0.12263 0.48819,0.0134 0.93586,0.45682 1.30548,0.72288 0.35244,0.2537 0.67745,0.5829 1.0314,0.84523 0.23812,0.17648 0.42167,0.33398 0.68691,0.48772 0.29201,0.16925 0.70735,0.17243 1.03116,0.21403 0.70876,0.0911 0.4165,-0.0952 0.6858,-0.24093 0.16065,-0.0869 -0.0656,-0.35938 -0.0985,-0.53909 -0.0966,-0.5291 0.92667,0.54758 1.40519,0.79316 0.59095,0.30329 0.12348,0.20945 0.18447,0.31287"
               id="path3254" />
            <path
               style="fill:none;stroke:#444444;stroke-width:0.62500006;stroke-linecap:butt;stroke-linejoin:miter;stroke-miterlimit:4;stroke-opacity:1;stroke-dasharray:none;stroke-dashoffset:0;marker:none;visibility:visible;display:inline;overflow:visible;enable-background:accumulate"
               d="m 107.58717,369.29615 c 0.33295,0.17088 -0.67704,-0.33952 -1.04399,-0.4131 -0.51508,-0.10327 -0.009,-0.0163 -0.24625,-0.44963 -0.15888,-0.2901 -0.78908,0.0405 -0.97328,0.0993 -0.53037,0.16918 -0.24582,0.44145 -0.26848,0.73941 -0.0121,0.15967 0.78841,0.32425 0.8783,0.3501 0.36072,0.10374 0.54871,0.30067 0.81408,0.55225 0.23731,0.22497 0.47458,0.36817 0.74243,0.54118 0.26199,0.16922 0.58329,-0.0718 0.81327,-0.14391 0.36766,-0.1153 0.0154,-0.81345 -0.053,-0.99111 -0.10681,-0.27715 -0.36688,-0.21403 -0.66304,-0.28445 z"
               id="path3256" />
            <path
               style="fill:none;stroke:#444444;stroke-width:0.62500006;stroke-linecap:butt;stroke-linejoin:miter;stroke-miterlimit:4;stroke-opacity:1;stroke-dasharray:none;stroke-dashoffset:0;marker:none;visibility:visible;display:inline;overflow:visible;enable-background:accumulate"
               d="m 116.429,385.94348 c -0.23584,-0.61195 -0.57757,0.88777 -0.58497,1.03982 -0.0173,0.35619 0.48001,0.26127 0.64124,0.30852 0.29863,0.0875 0.33462,-0.48108 0.3852,-0.61412 0.10149,-0.26693 -0.26912,-0.50652 -0.44147,-0.73422 z"
               id="path3258" />
            <path
               style="fill:none;stroke:#444444;stroke-width:0.62500006;stroke-linecap:butt;stroke-linejoin:miter;stroke-miterlimit:4;stroke-opacity:1;stroke-dasharray:none;stroke-dashoffset:0;marker:none;visibility:visible;display:inline;overflow:visible;enable-background:accumulate"
               d="m 119.212,389.36418 c 0.0848,-0.22301 -0.47708,-0.009 -0.71562,-0.0132 -0.58148,-0.0107 1.02871,0.65985 1.28214,1.1833 0.18884,0.39005 -0.299,-0.82921 -0.56652,-1.17014 z"
               id="path3260" />
            <path
               style="fill:none;stroke:#444444;stroke-width:0.62500006;stroke-linecap:butt;stroke-linejoin:miter;stroke-miterlimit:4;stroke-opacity:1;stroke-dasharray:none;stroke-dashoffset:0;marker:none;visibility:visible;display:inline;overflow:visible;enable-background:accumulate"
               d="m 105.61469,384.12338 c 0.19434,0.0855 0.38867,0.171 0.583,0.25649 0.32648,0.14364 0.17122,0.49159 0.14358,0.80369 -0.015,0.16967 -0.0618,0.35914 -0.09,0.52325"
               id="path3264" />
            <path
               style="fill:none;stroke:#444444;stroke-width:0.625;stroke-linecap:butt;stroke-linejoin:miter;stroke-miterlimit:4;stroke-opacity:1;stroke-dasharray:none"
               d="m 49.81761,408.65036 c 0.02046,0.2008 0.04092,0.40159 0.06139,0.6024 0.0293,0.28758 -0.04386,0.62473 -0.06125,0.91317 -0.01904,0.31583 -0.156564,0.61528 -0.250899,0.90989 -0.09048,0.28257 -0.243235,0.56988 -0.349033,0.8554 -0.101518,0.27398 -0.08307,0.64453 -0.119274,0.93196 -0.03282,0.26059 -0.0028,0.55363 -0.01974,0.81964 -0.01925,0.30265 -0.01482,0.60736 -0.01407,0.91023 9.72e-4,0.39078 0.06319,0.77562 0.119933,1.15947 0.05268,0.35633 0.104867,0.70774 0.149647,1.06669 0.05413,0.43395 0.0861,0.79584 0.206271,1.21471 0.119873,0.41781 0.228023,0.82701 0.315255,1.25334 0.105625,0.51622 0.406819,0.95038 0.645035,1.41457 0.239963,0.46758 0.412192,0.95256 0.634186,1.43041 0.238962,0.51436 0.462597,1.05011 0.679017,1.57915 0.19982,0.48847 0.406206,0.94452 0.564366,1.44993 0.11485,0.36701 0.325523,0.70872 0.503471,1.04454 0.211732,0.39957 0.401177,0.37202 0.741666,0.49919 0.238097,0.0889 0.581695,0.0833 0.839765,0.17477 0.396662,0.14067 0.382672,0.3223 0.505327,0.69585 0.164764,0.50178 0.359351,0.9663 0.471902,1.48603 0.131982,0.60944 0.331459,1.17487 0.559677,1.75334 0.229864,0.58264 0.622301,1.09132 0.885187,1.65719 0.251528,0.54141 0.574286,1.06721 0.880463,1.5817 0.358118,0.60177 0.744188,1.15713 1.138534,1.73227 0.431993,0.63003 0.851818,1.24882 1.244226,1.90751 0.358195,0.60127 0.74637,1.19506 1.117781,1.77903 0.327009,0.51416 0.582338,1.07412 0.904996,1.59532 0.384187,0.62061 0.653539,1.23478 0.913045,1.91309 0.202842,0.53021 0.438489,0.94425 0.796469,1.37478 0.356774,0.4291 0.937224,0.84987 1.36777,1.23294 0.441114,0.39248 0.876621,0.74436 1.347472,1.09781 0.488135,0.36641 0.875216,0.83763 1.309743,1.25172 0.357577,0.34077 0.655484,0.76234 1.00544,1.11921 0.332525,0.3391 0.667885,0.66462 1.032319,0.98113 0.380374,0.33035 0.792466,0.60506 1.202618,0.86438 0.348353,0.22025 0.595842,0.27985 0.981785,0.36291 0.269049,0.0579 0.599983,-0.007 0.874657,-0.0244 0.551521,-0.0345 -0.556392,-0.55962 -0.790277,-0.70831 -0.378437,-0.24059 -0.641036,-0.5231 -0.941256,-0.85043 -0.438265,-0.47784 -0.907557,-0.87624 -1.284755,-1.42 -0.236732,-0.34126 -0.280053,-0.57071 -0.356271,-0.96282 -0.118548,-0.60986 -0.117471,-0.12822 -0.393965,-0.43001 -0.207175,-0.22613 -0.614551,-0.0262 -0.916656,-0.079 -0.421929,-0.0738 -0.374988,-0.69432 -0.392599,-0.9757 -0.01337,-0.21355 0.174393,-0.6767 0.218351,-0.86238 0.03927,-0.16587 -0.926081,-0.80773 -1.051182,-0.90418 -0.157102,-0.12111 -0.202892,-0.34093 -0.304337,-0.51139 -0.126113,-0.21192 0.491419,-0.0951 0.70905,-0.2111 0.283964,-0.15131 -0.240317,-0.59746 -0.340699,-0.90317 -0.137562,-0.41893 0.203452,-0.66477 0.439608,-0.9217 0.140659,-0.15303 0.490489,-0.33543 0.63496,-0.44894 0.252331,-0.19826 0.01377,-0.76669 -0.03783,-0.98276 -0.0713,-0.29858 -0.428318,-0.38628 -0.659106,-0.50434 -0.361883,-0.18514 -0.780183,-0.28309 -1.152572,-0.44316 -0.335833,-0.14435 -0.642163,-0.32426 -0.955852,-0.51609 -0.42429,-0.25947 1.090993,0.0621 1.425695,0.0775 0.443037,0.0204 1.102007,0.15051 1.444102,0.18241 0.08697,0.008 0.06011,-0.85253 0.0603,-0.92828 7.75e-4,-0.30893 -0.108288,-0.55676 -0.09019,-0.87338 0.0131,-0.22918 0.279857,-0.68666 0.368842,-0.91727 0.122773,-0.31817 -0.03422,-0.80903 -0.08266,-1.1315 -0.07244,-0.48224 0.419305,-0.6786 0.757104,-0.95673 0.319644,-0.26317 -0.128576,-0.63546 -0.252469,-0.81776 -0.216863,-0.31909 -0.620425,-0.60833 -0.852573,-0.94691 -0.243149,-0.35462 -0.05769,-0.60108 0.03672,-0.92679 0.106681,-0.36805 0.841596,-0.69532 1.140186,-0.88977 0.379337,-0.24703 0.742898,-0.22837 1.191667,-0.25646 0.277454,-0.0174 0.557418,-0.05 0.83644,-0.0675 0.263734,-0.0165 0.521118,-0.0164 0.780305,-0.0185 0.31907,-0.003 0.307742,-0.73563 0.341474,-0.97618 0.04456,-0.31777 0.01655,-0.66494 0.0093,-0.98569 -0.0099,-0.44002 -0.0048,-0.87705 -0.02323,-1.3171 -0.02004,-0.47731 0.234763,-1.03577 0.356525,-1.49241 0.136345,-0.51135 -0.01357,-1.06541 -0.09827,-1.57004 -0.09068,-0.54022 -0.550488,-1.08278 -0.739878,-1.60566 -0.129694,-0.35807 0.18932,-0.49496 0.452835,-0.71035 0.334362,-0.2733 0.489223,-0.45257 0.704747,-0.84736 0.260691,-0.47753 0.573491,-0.87972 0.789619,-1.38312 0.240084,-0.5592 0.260801,-1.36748 0.362614,-1.96262 0.0867,-0.50679 0.02041,-1.08835 0.07675,-1.61131 0.05093,-0.4727 -0.153985,-0.35133 -0.448701,-0.54783 -0.302513,-0.20169 -1.023441,0.56015 -1.210496,0.7123 -0.40613,0.33034 -0.385128,0.11379 -0.587853,-0.31178 -0.157163,-0.32993 -0.44406,-0.55425 -0.700648,-0.78972 -0.263119,-0.24145 -0.616656,-0.25163 -0.967156,-0.31835 -0.332481,-0.0633 -0.693235,-0.23922 -1.027071,-0.32976 -0.377849,-0.10249 -0.750981,-0.21961 -1.12237,-0.33896 -0.21309,-0.0685 -0.648417,-0.003 -0.876547,-0.006 -0.270413,-0.004 -0.518604,-0.21103 -0.743067,-0.33239 -0.3342,-0.18069 -0.665386,-0.5003 -0.95823,-0.74328 -0.3244,-0.26915 -0.376936,-0.2686 -0.75675,-0.36183 -0.195595,-0.048 -0.780933,0.60464 -0.94819,0.74135 -0.09209,0.0753 -0.107582,-0.77297 -0.122278,-1.00777 -0.01095,-0.17495 -0.130867,-0.32524 -0.1963,-0.48785 -0.110065,-0.27354 0.501114,0.35603 0.794023,0.38981 0.07656,0.009 -0.597616,-0.75679 -0.691688,-0.83574 -0.210838,-0.17693 -0.40239,-0.47999 -0.598737,-0.67484 -0.247093,-0.24522 -0.43928,-0.51826 -0.641677,-0.7934 -0.227372,-0.3091 -0.356325,-0.83754 -0.489332,-1.19698 -0.121513,-0.32839 -0.261243,-0.57797 -0.421367,-0.86781 -0.122243,-0.22128 -0.519219,-0.12768 -0.718989,-0.13687 -0.249259,-0.0115 -0.504725,0.0164 -0.755772,0.0322 -0.292079,0.0183 -0.568443,0.0434 -0.861918,0.0388 -0.349883,-0.005 -0.451418,-0.29008 -0.658162,-0.48925 -0.184348,-0.17759 -0.285103,-0.71242 -0.391654,-0.9606 -0.176093,-0.41016 -0.433405,-0.7842 -0.630863,-1.18813 -0.18673,-0.38197 -0.398791,-0.74157 -0.625192,-1.09754 -0.235273,-0.36991 -0.374667,-0.17072 -0.686441,-0.18437 -0.225705,-0.01 -0.684832,0.57066 -0.842987,0.71962 -0.253104,0.23836 -0.436133,0.0813 -0.692076,0.10393 -0.118053,0.0104 -0.677847,-0.36997 -0.820446,-0.43362 -0.221728,-0.099 -0.469092,-0.19632 -0.668522,-0.27643 -0.123491,-0.0496 -0.288591,-0.43002 -0.340664,-0.52429 -0.08605,-0.15575 -0.340924,0.10217 -0.511384,0.15326 -0.271602,0.0814 -0.140426,-0.54985 -0.228882,-0.81924 -0.09613,-0.29276 -0.492742,0.24812 -0.550057,0.29208 -0.202485,0.15527 -0.258738,0.62441 -0.337239,0.85466 -0.09898,0.29032 -0.217122,0.54156 -0.340072,0.80939 -0.106059,0.23101 -0.465491,0.47142 -0.645321,0.66177 -0.162559,0.17207 -0.242049,0.37712 -0.334439,0.52107 -0.08563,0.13342 -0.248132,0.1974 -0.372199,0.2961"
               id="path2450" />
            <path
               style="fill:none;stroke:#444444;stroke-width:0.625;stroke-linecap:butt;stroke-linejoin:miter;stroke-miterlimit:4;stroke-opacity:1;stroke-dasharray:none"
               d="m 49.090893,406.49828 c -0.542189,0.84476 -0.784231,0.0754 -0.939787,-0.25945 -0.171567,-0.3693 -0.240528,-0.83004 -0.360541,-1.22019 -0.12907,-0.41961 -0.215944,-0.85523 -0.305351,-1.28429 -0.07647,-0.36697 -0.09001,-0.68633 -0.08973,-1.05527 2.41e-4,-0.32255 0.152254,-0.69206 0.159837,-1.04059 0.008,-0.36703 -0.16205,-0.73413 -0.268534,-1.0744 -0.08489,-0.27127 -0.15534,-0.51994 -0.226991,-0.78905 -0.02732,-0.1026 -0.02896,-0.21037 -0.04343,-0.31555"
               id="path2452" />
            <path
               style="fill:none;stroke:#444444;stroke-width:0.625;stroke-linecap:butt;stroke-linejoin:miter;stroke-miterlimit:4;stroke-opacity:1;stroke-dasharray:none"
               d="m 49.573408,405.31625 c -0.0847,-0.31812 -0.522485,-0.86504 -0.670025,-1.2463 -0.137607,-0.35559 -0.259936,-0.69041 -0.373735,-1.05266 -0.109475,-0.34847 -0.01119,-0.63252 0.05747,-0.97356 0.08271,-0.41084 0.189853,-0.81706 0.278235,-1.22987 0.06204,-0.28975 0.05962,-0.5458 0.06597,-0.83769 0.0083,-0.37965 -0.330662,-0.60579 -0.561952,-0.84386 -0.251448,-0.2588 0.07704,-0.84882 0.168796,-1.08661 0.182095,-0.47191 0.387405,-0.92886 0.575432,-1.40003 0.142511,-0.3571 0.243442,-0.68956 0.33675,-1.05166 0.173929,-0.67499 -0.634327,-0.17206 -0.650114,-0.17149 -0.164715,0.006 -0.285068,1.23202 -0.304167,1.38304 -0.0529,0.41832 -0.223041,0.63368 -0.425923,0.95116 -0.04896,0.0766 -0.117614,0.13872 -0.176423,0.20807"
               id="path2454" />
            <path
               style="fill:none;stroke:#444444;stroke-width:0.625;stroke-linecap:butt;stroke-linejoin:miter;stroke-miterlimit:4;stroke-opacity:1;stroke-dasharray:none"
               d="m 50.411699,394.30623 c -0.245794,0.38463 0.934631,0.089 1.33372,0.31057 0.320614,0.17799 0.442759,0.54044 0.597336,0.84164 0.0967,0.18842 0.346166,0.64367 0.361907,0.67451 0.117038,0.22927 -0.01854,-0.51864 -0.08357,-0.76771 -0.08739,-0.3347 -0.409723,-0.58712 -0.608185,-0.82581 -0.224029,-0.26943 -0.515742,-0.32694 -0.798747,-0.46529 -0.264145,-0.12914 -0.624175,0.14589 -0.802459,0.23209 z"
               id="path2456" />
            <path
               style="fill:none;stroke:#444444;stroke-width:0.625;stroke-linecap:butt;stroke-linejoin:miter;stroke-miterlimit:4;stroke-opacity:1;stroke-dasharray:none"
               d="m 52.83639,397.29169 c -0.06081,-0.0297 1.023895,-0.24596 1.215254,-0.25793 0.587338,-0.0368 0.05458,-0.088 0.215096,-0.34689 0.08705,-0.14038 -0.42677,-0.61378 -0.493533,-0.69658 -0.196386,-0.24356 -0.701622,0.57919 -0.752414,0.65332 -0.126948,0.18528 -0.122936,0.43205 -0.184403,0.64808 z"
               id="path2458" />
            <path
               style="fill:none;stroke:#444444;stroke-width:0.625;stroke-linecap:butt;stroke-linejoin:miter;stroke-miterlimit:4;stroke-opacity:1;stroke-dasharray:none"
               d="m 50.472187,390.16494 c -0.252112,0.36797 0.743063,-0.50358 1.153416,-0.67841 0.01017,-0.004 0.30383,-0.71042 0.341962,-0.7792 0.09939,-0.17926 0.315119,-0.2622 0.472678,-0.39331 0.268452,-0.22339 -0.283015,0.63878 -0.437716,0.95189 -0.120224,0.24331 -0.04226,0.56144 -0.03154,0.82038 0.01389,0.33525 -0.03286,0.6463 -0.08106,0.97504 -0.05211,0.35543 0.03971,0.57624 0.113774,0.8719 0.05539,0.22109 0.620111,-0.87452 0.630203,-0.90332 0.127578,-0.36404 0.11366,-0.85457 0.182936,-1.23905 0.07916,-0.43933 0.02764,-0.92202 0.0093,-1.3646 -0.01473,-0.35552 0.01869,-0.68689 0.05369,-1.03394 0.02561,-0.25396 0.551426,-0.55045 0.726936,-0.68204 0.269221,-0.20187 0.613094,-0.36272 0.888763,-0.55576 0.302119,-0.21158 0.530834,-0.5216 0.754759,-0.80503 0.224558,-0.28423 0.384553,-0.5141 0.551423,-0.83776 0.146577,-0.2843 0.316733,-0.55199 0.456125,-0.84696 0.151833,-0.32129 0.251449,-0.6778 0.374967,-1.00858 0.136796,-0.36635 0.376781,-0.63795 0.60378,-0.94714 0.275876,-0.37577 0.563025,-0.65316 0.924112,-0.93687 0.321859,-0.25289 0.654502,-0.45266 1.01283,-0.65446 0.491092,-0.27658 0.895203,-0.60527 1.427026,-0.8471 0.491898,-0.22368 0.93353,-0.50404 1.43553,-0.71123 0.402749,-0.16624 0.705817,-0.40585 1.125592,-0.55543 0.289781,-0.10327 0.578452,-0.2027 0.869444,-0.29691 0.214079,-0.0693 0.461909,-0.24876 0.701491,-0.33187 0.245212,-0.0851 0.516542,-0.10969 0.771802,-0.1544 0.264838,-0.0464 0.211334,-0.46977 0.261293,-0.74382 0.06675,-0.36618 0.102905,-0.73606 0.191439,-1.1032 0.127824,-0.53007 -0.437494,-0.009 -0.643009,0.13119 -0.363299,0.24742 -0.638142,0.4445 -0.936396,0.74061 -0.08793,0.0873 0.654182,-0.64126 0.857126,-0.87206 0.342237,-0.3892 0.854223,-0.73966 1.245846,-1.0934 0.248549,-0.2245 0.440647,-0.33793 0.727424,-0.48504 0.163798,-0.084 0.435102,0.059 0.597267,0.0839 0.254946,0.0391 0.579309,-0.59838 0.686829,-0.75531 0.367809,-0.53683 -0.05211,-0.0774 0.117487,0.17452 0.286611,0.42573 0.09421,0.41746 0.687419,0.57836 0.37999,0.10306 0.992439,-0.30768 1.308174,-0.47593 0.296403,-0.15794 0.531432,-0.66767 0.710872,-0.93868 0.240966,-0.36393 0.0041,-1.0823 -0.04637,-1.49751 -0.06419,-0.52772 -0.149422,-0.53958 -0.44401,-0.85123 -0.166249,-0.17589 -0.882142,0.43446 -0.997746,0.51711 -0.458097,0.3275 -0.819583,0.81885 -1.25197,1.18473 -0.399418,0.33799 -0.820582,0.63216 -1.2435,0.9417 -0.77113,0.5644 -0.313793,-0.0766 -0.444888,-0.10856 -0.329257,-0.0803 0.197083,-0.64855 0.294297,-0.97322"
               id="path2460" />
            <path
               style="fill:none;stroke:#444444;stroke-width:0.625;stroke-linecap:butt;stroke-linejoin:miter;stroke-miterlimit:4;stroke-opacity:1;stroke-dasharray:none"
               d="m 68.987773,374.98705 c -0.341847,-0.0834 -0.154365,0.68662 -0.231547,1.02993 -0.01862,0.0828 0.932775,-0.1557 0.972302,-0.16694 0.232522,-0.0661 0.446287,-0.35489 0.618442,-0.5237 0.333427,-0.32693 -0.906848,-0.45521 -1.359197,-0.33929 z"
               id="path2462" />
            <path
               style="fill:none;stroke:#444444;stroke-width:0.625;stroke-linecap:butt;stroke-linejoin:miter;stroke-miterlimit:4;stroke-opacity:1;stroke-dasharray:none"
               d="m 61.074866,375.87637 c 0.314156,-0.30803 -0.429816,0.78897 -0.761339,1.07824 -0.349333,0.3048 -0.05544,-0.60179 -0.05054,-0.61821 0.08889,-0.29809 0.528726,-0.33127 0.811874,-0.46003 z"
               id="path2464" />
            <path
               style="fill:none;stroke:#444444;stroke-width:0.625;stroke-linecap:butt;stroke-linejoin:miter;stroke-miterlimit:4;stroke-opacity:1;stroke-dasharray:none;stroke-dashoffset:0;marker:none;visibility:visible;display:inline;overflow:visible;enable-background:accumulate"
               d="m 49.138597,407.05203 c 0.0291,0.0829 0.446758,0.82332 0.644601,1.13439 0.152351,0.23954 0.106924,0.6372 0.145842,0.90454 0.02066,0.14191 -0.03316,0.28489 -0.04973,0.42734"
               id="path3266" />
          </g>
        </g>
      </g>
    </g>
    <path
       sodipodi:type="arc"
       style="fill:#000000;fill-opacity:1;fill-rule:evenodd;stroke:#000000;stroke-width:1px;stroke-linecap:butt;stroke-linejoin:miter;stroke-opacity:1"
       id="path3476"
       sodipodi:cx="118.41762"
       sodipodi:cy="337.80106"
       sodipodi:rx="5.2269573"
       sodipodi:ry="5.2269573"
       d="m 123.64458,337.80106 a 5.2269573,5.2269573 0 1 1 -10.45392,0 5.2269573,5.2269573 0 1 1 10.45392,0 z"
       transform="translate(38.554557,25.854592)" />
    <path
       sodipodi:type="arc"
       style="fill:none;stroke:#000000;stroke-width:1;stroke-miterlimit:4;stroke-opacity:1;stroke-dasharray:4, 2;stroke-dashoffset:0"
       id="path4281"
       sodipodi:cx="105.78255"
       sodipodi:cy="422.00012"
       sodipodi:rx="76.214417"
       sodipodi:ry="76.214417"
       d="m 181.99696,422.00012 a 76.214417,76.214417 0 1 1 -152.42883,0 76.214417,76.214417 0 1 1 152.42883,0 z"
       transform="translate(-10.360782,-14.417015)" />
    <g
       id="g4276"
       transform="translate(13.375154,-1.969757)">
      <path
         d="m 123.64458,337.80106 c 0,2.88676 -2.34019,5.22695 -5.22696,5.22695 -2.88677,0 -5.22696,-2.34019 -5.22696,-5.22695 0,-2.88677 2.34019,-5.22696 5.22696,-5.22696 2.88677,0 5.22696,2.34019 5.22696,5.22696 z"
         sodipodi:ry="5.2269573"
         sodipodi:rx="5.2269573"
         sodipodi:cy="337.80106"
         sodipodi:cx="118.41762"
         id="path3476-1"
         style="fill:#ffffff;fill-opacity:1;fill-rule:evenodd;stroke:#000000;stroke-width:1px;stroke-linecap:butt;stroke-linejoin:miter;stroke-opacity:1"
         sodipodi:type="arc"
         transform="translate(13.337755,13.698245)" />
      <text
         sodipodi:linespacing="125%"
         id="text4272"
         y="353.81931"
         x="128.83537"
         style="font-size:10px;font-style:normal;font-variant:normal;font-weight:normal;font-stretch:normal;text-align:start;line-height:125%;writing-mode:lr-tb;text-anchor:start;fill:#000000;fill-opacity:1;stroke:none;font-family:FreeSans;-inkscape-font-specification:FreeSans"
         xml:space="preserve"><tspan
           y="353.81931"
           x="128.83537"
           id="tspan4274"
           sodipodi:role="line">+</tspan></text>
    </g>
  </g>
</svg>
