<?xml version="1.0" encoding="UTF-8" standalone="no"?>
<!-- Created with Inkscape (http://www.inkscape.org/) -->
<svg
   xmlns:dc="http://purl.org/dc/elements/1.1/"
   xmlns:cc="http://creativecommons.org/ns#"
   xmlns:rdf="http://www.w3.org/1999/02/22-rdf-syntax-ns#"
   xmlns:svg="http://www.w3.org/2000/svg"
   xmlns="http://www.w3.org/2000/svg"
   xmlns:sodipodi="http://sodipodi.sourceforge.net/DTD/sodipodi-0.dtd"
   xmlns:inkscape="http://www.inkscape.org/namespaces/inkscape"
   width="744.09448819"
   height="1052.3622047"
   id="svg2"
   sodipodi:version="0.32"
   inkscape:version="0.46"
   sodipodi:docname="ep-violating-string-on-globe.svg"
   inkscape:output_extension="org.inkscape.output.svg.inkscape">
  <defs
     id="defs4">
    <inkscape:perspective
       sodipodi:type="inkscape:persp3d"
       inkscape:vp_x="0 : 526.18109 : 1"
       inkscape:vp_y="0 : 1000 : 0"
       inkscape:vp_z="744.09448 : 526.18109 : 1"
       inkscape:persp3d-origin="372.04724 : 350.78739 : 1"
       id="perspective10" />
    <inkscape:perspective
       id="perspective2444"
       inkscape:persp3d-origin="372.04724 : 350.78739 : 1"
       inkscape:vp_z="744.09448 : 526.18109 : 1"
       inkscape:vp_y="0 : 1000 : 0"
       inkscape:vp_x="0 : 526.18109 : 1"
       sodipodi:type="inkscape:persp3d" />
    <inkscape:perspective
       id="perspective2511"
       inkscape:persp3d-origin="372.04724 : 350.78739 : 1"
       inkscape:vp_z="744.09448 : 526.18109 : 1"
       inkscape:vp_y="0 : 1000 : 0"
       inkscape:vp_x="0 : 526.18109 : 1"
       sodipodi:type="inkscape:persp3d" />
    <inkscape:perspective
       id="perspective3422"
       inkscape:persp3d-origin="372.04724 : 350.78739 : 1"
       inkscape:vp_z="744.09448 : 526.18109 : 1"
       inkscape:vp_y="0 : 1000 : 0"
       inkscape:vp_x="0 : 526.18109 : 1"
       sodipodi:type="inkscape:persp3d" />
    <inkscape:perspective
       id="perspective2480"
       inkscape:persp3d-origin="372.04724 : 350.78739 : 1"
       inkscape:vp_z="744.09448 : 526.18109 : 1"
       inkscape:vp_y="0 : 1000 : 0"
       inkscape:vp_x="0 : 526.18109 : 1"
       sodipodi:type="inkscape:persp3d" />
  </defs>
  <sodipodi:namedview
     id="base"
     pagecolor="#ffffff"
     bordercolor="#666666"
     borderopacity="1.0"
     gridtolerance="10000"
     guidetolerance="10"
     objecttolerance="10"
     inkscape:pageopacity="0.0"
     inkscape:pageshadow="2"
     inkscape:zoom="1.3900275"
     inkscape:cx="104.98025"
     inkscape:cy="587.81545"
     inkscape:document-units="px"
     inkscape:current-layer="layer1"
     showgrid="false"
     inkscape:window-width="1278"
     inkscape:window-height="996"
     inkscape:window-x="1"
     inkscape:window-y="1" />
  <metadata
     id="metadata7">
    <rdf:RDF>
      <cc:Work
         rdf:about="">
        <dc:format>image/svg+xml</dc:format>
        <dc:type
           rdf:resource="http://purl.org/dc/dcmitype/StillImage" />
      </cc:Work>
    </rdf:RDF>
  </metadata>
  <g
     inkscape:label="Layer 1"
     inkscape:groupmode="layer"
     id="layer1">
    <path
       sodipodi:type="arc"
       style="opacity:1;fill:none;fill-opacity:1;fill-rule:evenodd;stroke:#000000;stroke-width:1.38072264;stroke-linecap:butt;stroke-linejoin:miter;marker:none;marker-start:none;marker-mid:none;marker-end:none;stroke-miterlimit:4;stroke-dasharray:none;stroke-dashoffset:0;stroke-opacity:1;visibility:visible;display:inline;overflow:visible;enable-background:accumulate"
       id="path2517"
       sodipodi:cx="123.70633"
       sodipodi:cy="70.922157"
       sodipodi:rx="203.07542"
       sodipodi:ry="203.07542"
       d="M 326.78175,70.922157 A 203.07542,203.07542 0 1 1 -79.369095,70.922157 A 203.07542,203.07542 0 1 1 326.78175,70.922157 z"
       transform="matrix(0.3709069,-0.2594813,0.2594813,0.3709069,124.89255,460.08585)" />
    <g
       id="g3455"
       transform="matrix(0.8193912,-0.5732347,0.5732347,0.8193912,-225.54268,190.06018)">
      <path
         id="path3289"
         d="M 165.00166,393.38625 C 164.93606,393.75949 164.87045,394.13272 164.80484,394.50596 C 164.70311,395.0847 164.55247,395.6361 164.45493,396.21351 C 164.34971,396.83645 164.45493,397.56709 164.45493,398.20098 C 164.45493,398.89626 164.55493,399.57588 164.60802,400.27243 C 164.65239,400.85455 164.52242,401.50808 164.4768,402.09195 C 164.41286,402.91047 164.57332,403.81767 164.60802,404.63928 C 164.64387,405.48836 164.7009,405.95869 164.91419,406.73873 C 165.0312,407.16667 165.83159,407.75649 166.13886,408.08237 C 166.5973,408.56857 167.01111,408.68455 167.56036,408.95014 C 167.88856,409.10884 168.73735,409.34968 168.85065,409.39802 C 168.98048,409.45342 167.13134,409.86111 166.86055,409.90189 C 166.41295,409.96929 166.5069,411.07014 166.4669,411.46948 C 166.40249,412.11259 166.65962,412.93252 166.7512,413.56892 C 166.84032,414.18819 166.95689,414.8055 167.05737,415.41643 C 167.18002,416.16211 166.83813,416.81882 166.55438,417.48789 C 166.11038,418.53479 165.69284,419.25895 165.54839,420.39912 C 165.43099,421.32583 165.43577,421.83734 165.02353,422.66652 C 164.48711,423.7455 162.95857,424.78394 162.1368,425.68972 C 161.35476,426.55169 160.5523,427.32598 159.84053,428.23704 C 159.19656,429.06133 158.2429,429.36265 157.28183,429.60868 C 156.42563,429.82787 155.55731,429.96019 154.70126,430.19653 C 154.13629,430.3525 153.52268,430.7537 152.97359,430.95233 C 152.45614,431.13951 151.66007,430.98386 150.98349,431.26025 C 150.43437,431.48457 152.13846,431.58866 152.1863,431.59616 C 152.39501,431.62887 152.56537,431.40954 152.7549,431.31623 C 153.72076,430.84073 151.24292,432.86406 150.63359,433.75159 C 150.27711,434.27081 149.84503,434.76786 149.47452,435.29118 C 148.9949,435.9686 148.60615,436.59668 148.03115,437.19468 C 147.58254,437.66123 147.63448,435.95808 147.3532,435.37516 C 146.97218,434.58553 146.22097,436.44767 146.1504,436.60683 C 145.81621,437.36051 145.34727,438.09654 144.90385,438.79026 C 144.49118,439.43585 143.99023,439.74228 143.41674,440.18989 C 142.85138,440.63115 142.43958,441.34471 141.90777,441.84145 C 141.28239,442.42559 140.31807,442.65149 139.56776,443.07312 C 138.6187,443.60645 136.99762,443.54134 135.95934,443.49301 C 134.90947,443.44415 134.12534,444.07347 133.22569,444.52874 C 132.59578,444.8475 131.91954,445.03021 131.25746,445.22855 C 130.9764,445.31275 130.07903,444.9687 129.83596,444.89264 C 129.41452,444.76078 128.45574,446.60725 128.26137,446.88012 C 127.82128,447.49796 127.41264,448.10646 126.94922,448.69964 C 126.51367,449.25715 125.96672,449.80599 125.48398,450.3512 C 124.92506,450.98245 124.43867,451.64507 123.9094,452.28269 C 123.45913,452.82513 122.96929,453.24709 122.42229,453.68232 C 122.01146,454.00921 121.58214,454.28436 121.19761,454.63407 C 120.738,455.05207 121.14354,455.7573 121.26322,456.22965 C 121.33554,456.51507 120.2285,457.32489 119.95107,457.62928 C 119.70876,457.89512 120.11531,458.81961 120.2135,459.11289 C 120.38444,459.62341 119.3431,460.78954 119.09817,461.18434 C 118.74119,461.75974 118.53902,462.43665 118.28901,463.05984 C 118.01579,463.74087 117.76767,464.39317 117.56732,465.1033 C 117.42735,465.59947 117.31451,466.11778 117.21742,466.6149 C 117.08113,467.31268 116.60162,465.33225 116.25517,464.71141 C 115.98954,464.2354 115.28019,466.17898 115.18358,466.39096 C 114.95594,466.89046 115.33743,467.72347 115.46788,468.21048 C 115.59797,468.69614 115.54549,469.30504 115.57722,469.80606 C 115.62055,470.49005 115.36176,470.72601 115.20545,471.14971 C 115.0543,471.5594 114.30326,471.52249 114.15573,471.9335 C 113.93775,472.54076 113.98436,473.22948 113.9589,473.86499 C 113.93553,474.44827 113.94733,475.02306 113.9589,475.60053 C 113.98254,476.78069 114.68097,475.83081 115.00863,475.68451 C 115.41511,475.50301 115.67156,473.5707 115.81779,473.16517 C 116.00351,472.6501 116.21676,472.16388 116.36452,471.62558 C 116.56263,470.90384 116.67248,470.22566 116.73629,469.47015 C 116.78398,468.90557 116.5772,468.20224 116.53947,467.62264 C 116.49381,466.92128 116.98456,466.50423 117.39237,465.99907 C 117.96542,465.28922 118.58015,464.58854 119.18565,463.89962 C 119.3933,463.66336 119.50639,463.35843 119.66677,463.08784 C 120.06667,462.4131 119.72438,464.65545 119.75425,465.43921 C 119.78366,466.21092 119.61919,466.44837 119.33873,467.09078 C 119.09535,467.64825 118.56455,468.15931 118.2234,468.65836 C 117.85111,469.20298 117.83823,469.82871 117.74228,470.47788 C 117.66026,471.03282 117.78374,471.61268 117.82975,472.15744 C 117.88683,472.8332 117.96967,473.48175 117.98284,474.17291 C 117.99414,474.76608 117.80924,475.40768 117.72041,475.99243 C 117.61868,476.6621 117.44708,477.31811 117.30489,477.9799 C 117.12015,478.83981 116.9811,479.65848 116.88938,480.52723 C 116.81462,481.2353 116.81582,481.97011 116.8019,482.68266 C 116.79014,483.28477 116.54299,483.75666 116.40826,484.16627 C 116.37751,484.25973 114.98463,484.21755 114.78993,484.22225 C 114.12539,484.2383 114.0171,484.47044 113.49965,484.81009 C 113.00286,485.13619 113.4201,486.19492 113.47778,486.54564 C 113.5881,487.21641 114.36994,487.95108 114.76806,488.47713 C 115.17096,489.00947 115.31625,489.8187 115.53349,490.43661 C 115.8252,491.26638 115.91491,492.25694 116.03648,493.1239 C 116.17252,494.09408 116.61498,494.81667 117.0862,495.64323 C 117.53327,496.42742 117.96143,497.14044 118.46396,497.88264 C 118.94711,498.59621 119.4345,499.0898 120.06042,499.64617 C 120.59943,500.1253 121.19089,500.54706 121.74435,500.98982 C 122.31492,501.44628 122.65856,501.84303 123.07837,502.41744 C 123.48625,502.97554 123.43151,503.74817 123.47201,504.40492 C 123.50956,505.0137 123.4615,505.64186 123.45014,506.25243 C 123.43201,507.22741 123.85667,508.26524 124.21557,509.13567 C 124.5424,509.92834 124.91309,510.66077 125.35277,511.37508 C 125.68519,511.91514 126.58034,512.25468 127.08044,512.60675 C 127.75465,513.0814 128.28116,513.2244 129.0924,513.39054 C 129.94575,513.56531 129.93829,513.83568 130.31708,514.51025 C 130.61932,515.0485 130.54131,515.95071 130.57951,516.55371 C 130.61516,517.11643 130.85286,517.5964 131.01689,518.12129 C 131.15953,518.57773 131.50467,518.96959 131.80419,519.35297 C 132.19712,519.85592 132.83382,520.25341 133.26942,520.69661 C 133.72241,521.1575 134.20375,521.49188 134.64719,521.95628 C 135.11453,522.44571 135.5827,522.9459 136.06868,523.43989 C 136.52321,523.9019 136.67123,524.43335 136.89972,525.03546 C 137.25943,525.98342 136.7763,525.54097 136.68102,525.93123 C 136.49173,526.70657 135.22277,525.19765 134.42849,525.11944 C 133.72263,525.04994 133.22395,524.9636 132.54774,524.72755 C 131.81599,524.4721 130.73298,524.44825 130.03278,524.30766 C 129.62807,524.2264 130.10087,524.2205 129.83596,524.55959"
         style="fill:none;fill-opacity:0.75;fill-rule:evenodd;stroke:#5f5f5f;stroke-width:0.625;stroke-linecap:butt;stroke-linejoin:miter;marker:none;marker-start:none;marker-mid:none;marker-end:none;stroke-miterlimit:4;stroke-dasharray:none;stroke-dashoffset:0;stroke-opacity:1;visibility:visible;display:inline;overflow:visible;enable-background:accumulate" />
      <path
         id="path3291"
         d="M 166.09513,393.77815 C 165.92111,393.74321 166.2814,396.00409 166.33569,396.32548 C 166.43583,396.91831 166.47254,397.54638 166.55438,398.145 C 166.62477,398.65987 166.57743,399.25223 166.59812,399.76857 C 166.61891,400.28751 166.65758,400.7694 166.70746,401.28017 C 166.76511,401.87049 167.06998,402.31102 167.3198,402.81976 C 167.54134,403.27089 168.30794,403.37223 168.69756,403.51958 C 169.31542,403.75324 169.55934,402.95533 169.83476,402.53984 C 170.2208,401.95747 170.26988,401.68944 170.35962,401.00024 C 170.41601,400.56722 171.49394,401.5826 171.54056,401.61608 C 172.33655,402.18764 172.19105,401.88083 172.98393,401.61608 C 173.18362,401.5494 173.84336,400.52642 173.98991,400.35641 C 174.27039,400.03106 174.89265,400.3997 175.21459,400.46838 C 175.69691,400.57128 176.03894,400.65167 176.52674,400.80429 C 177.14814,400.99872 177.74124,401.16498 178.34189,401.39214 C 178.86792,401.59107 179.38047,401.83994 179.8946,402.03597 C 180.19167,402.14923 180.06458,403.45201 180.06956,403.68753 C 180.08447,404.39384 179.93773,404.65542 179.67591,405.25512 C 179.51329,405.62761 180.98985,405.42764 181.07554,405.42307 C 181.58444,405.39593 182.17516,405.02903 182.65013,404.86322 C 183.14466,404.69059 182.57389,403.81839 182.54078,403.29564 C 182.50824,402.78193 183.66382,402.84765 183.89667,402.79177 C 184.24225,402.70883 184.82888,402.81976 185.20882,402.81976 C 185.93205,402.81976 185.95078,403.62644 186.12733,404.1914 C 186.38291,405.00926 185.6555,405.12052 185.07761,405.36709 C 184.3265,405.68756 185.70853,405.824 185.84303,405.87096 C 186.34928,406.04768 187.14857,405.51317 187.59257,405.3111 C 188.1792,405.04412 189.03601,405.18593 189.64828,405.17114 C 190.27817,405.15593 190.90285,405.25883 191.52903,405.3111 C 192.18748,405.36607 191.71491,406.31213 191.70398,406.57077 C 191.68857,406.93567 191.187,407.83483 191.06978,408.25033 C 190.93077,408.74304 191.34042,409.94175 191.37595,410.51773 C 191.41828,411.20414 190.94869,411.52111 190.54492,411.97334 C 190.03586,412.54348 189.8433,413.14211 189.60454,413.84885 C 189.37153,414.53856 189.3386,415.37218 189.23276,416.08826 C 189.10891,416.92621 188.77915,417.17279 188.20491,417.73982 C 187.61145,418.32582 187.19022,418.49339 186.69593,419.22343 C 186.24733,419.88598 186.11147,420.6488 185.93051,421.40685 C 185.74939,422.16559 185.44465,422.868 185.09948,423.56228 C 184.83226,424.09977 185.07775,424.85106 185.14322,425.3818 C 185.21657,425.97648 185.7888,426.58097 186.10546,427.06136 C 186.39489,427.50043 186.76582,427.79409 187.11145,428.06909 C 187.40339,428.30138 187.02824,429.48859 186.98023,429.80463 C 186.8971,430.35187 186.56969,430.99479 186.38976,431.48419 C 186.30304,431.72007 186.52098,431.96939 186.58659,432.21199 C 186.7167,432.69313 186.03088,433.06743 185.93051,433.55564 C 185.88888,433.75811 186.47842,435.21374 186.54285,435.57111 C 186.64221,436.12226 186.28264,436.91138 186.12733,437.44661 C 185.95519,438.03982 185.99611,438.70874 185.99611,439.32212 C 185.99611,439.89365 185.38022,440.46426 185.16508,440.80572 C 185.06951,440.95743 184.5981,441.42935 184.39966,441.70149 C 184.03732,442.19842 184.89662,443.88577 185.03387,444.44476 C 185.19644,445.10687 185.4985,445.45666 185.55873,446.2083 C 185.56639,446.30384 186.79074,446.02552 187.0021,445.98436 C 187.11721,445.96193 186.99463,448.35198 186.98023,448.53168 C 186.91191,449.38431 187.47907,449.73822 188.02995,450.23923 C 188.45653,450.62719 188.671,451.39905 188.94846,451.89079 C 189.30156,452.51659 189.96656,451.97561 190.58865,451.66685 C 191.29033,451.31859 191.6483,450.97446 192.16324,450.43518 C 192.65816,449.91686 192.97512,451.06151 193.05988,451.16299 C 193.20128,451.33231 191.65862,452.94867 191.48529,453.17845 C 190.74925,454.15423 191.81553,453.55888 192.14137,453.93425 C 192.41159,454.24555 193.77397,452.92727 193.93464,452.78656 C 194.25663,452.50457 194.62185,451.40606 195.07184,450.93905 C 195.63552,450.35404 196.12304,450.13881 196.82138,449.84733 C 197.66969,449.49326 197.3219,451.1036 197.3025,451.44291 C 197.25487,452.27619 195.9895,453.70379 195.50923,454.38214 C 195.04859,455.03274 194.99603,455.41228 194.89689,456.17366 C 194.79774,456.93514 194.99132,457.5031 194.78754,458.32909 C 194.65251,458.87641 194.27894,459.33838 194.08773,459.86869 C 193.93219,460.30006 194.99054,459.68876 195.42175,459.53277 C 195.87014,459.37058 194.65367,460.09869 194.28455,460.40055 C 193.81029,460.78839 193.46107,461.45105 193.10361,461.94014 C 192.7989,462.35707 192.36984,462.61902 192.01015,462.94787 C 191.73614,463.1984 190.87801,462.75354 190.61052,462.66795 C 189.97506,462.4646 189.29127,462.82418 188.72977,463.00386 C 188.29924,463.14163 187.57596,463.93824 187.15518,464.20754 C 186.85316,464.40083 186.00116,464.18055 185.64621,464.15155 C 184.88032,464.08898 184.09625,464.11564 183.32807,464.09557 C 182.53365,464.07482 182.06575,464.19859 181.33797,464.43148 C 180.69005,464.63882 180.06943,465.02131 179.52283,465.35524 C 178.9555,465.70182 178.10538,465.91817 177.48899,466.22301 C 176.92476,466.50205 176.67299,467.00042 176.32992,467.45468 C 176.09889,467.76059 176.08119,468.60085 176.00188,468.96628 C 175.87322,469.55918 175.19875,469.19473 175.01777,469.24621 C 174.73855,469.32563 175.7037,470.58604 175.78319,470.70182 C 176.1323,471.21033 176.28014,471.633 176.48301,472.21342 C 176.67083,472.75081 176.63218,473.41344 176.7017,473.97696 C 176.78476,474.65029 176.74544,475.34198 176.74544,476.02042 C 176.74544,476.48706 177.17829,477.24901 177.3359,477.69997 C 177.55515,478.32727 177.88196,478.65086 178.25441,479.12759 C 178.69675,479.6938 178.75401,480.44311 178.88862,481.11507 C 179.04752,481.9083 178.59085,482.28001 178.16694,482.82262 C 177.80342,483.28792 177.15475,483.69674 176.72357,484.13827 C 176.10722,484.76941 176.00294,484.67274 175.76132,485.67787 C 175.56121,486.51034 176.17659,486.99817 176.54861,487.52538 C 176.94736,488.09046 178.4512,487.13477 178.7574,486.96553 C 179.66123,486.46595 180.06912,485.29087 180.55068,484.44619 C 180.95209,483.74209 180.85644,483.61173 181.6004,483.07455 C 182.05479,482.74646 183.1551,482.74907 183.69985,482.59868 C 184.21358,482.45685 185.32306,482.98544 185.82116,483.10255 C 186.62564,483.29168 186.73675,482.90675 187.24266,482.48671 C 187.6159,482.17682 187.58106,481.28743 187.63631,480.86314 C 187.73542,480.10197 188.06335,479.3959 188.16117,478.62373 C 188.26176,477.82972 188.90118,477.64436 189.51706,477.36406 C 190.10893,477.0947 190.61526,476.71805 191.13538,476.32833 C 191.6194,475.96568 191.97879,474.98102 192.33819,474.45283 C 192.69038,473.93525 192.92045,473.92832 193.43165,473.64104 C 194.07286,473.28072 194.26674,473.90651 194.61259,474.06093 C 194.67668,474.08955 194.84579,475.65803 194.87502,475.79648 C 195.01523,476.46049 195.16694,476.89473 195.18119,477.588 C 195.191,478.06527 194.3874,479.15779 194.17521,479.54748 C 193.6582,480.49698 193.90662,480.61437 194.35016,481.395 C 194.59297,481.82234 195.26708,482.27901 195.61857,482.59868 C 195.78746,482.75227 195.95321,483.90746 196.03409,484.16627 C 196.17974,484.63236 197.72711,484.22449 197.95858,484.19426 C 198.41942,484.13407 199.41294,483.33155 199.90494,483.10255 C 200.43442,482.8561 200.98377,482.58337 201.50139,482.34674 C 201.86461,482.18071 201.76781,484.06935 201.76383,484.16627 C 201.73652,484.83042 201.19738,485.69758 201.02027,486.37768 C 200.8528,487.02078 200.57596,487.63595 200.40793,488.28118 C 200.20061,489.07732 200.37621,489.66919 200.53915,490.40861 C 200.68252,491.05929 200.93525,491.72802 201.15148,492.3681 C 201.3495,492.9542 201.82775,493.5103 202.15747,494.01966 C 202.56086,494.64283 202.71084,494.93812 202.87916,495.64323 C 203.02349,496.24785 203.13422,496.75732 203.18532,497.37877 C 203.23213,497.94797 203.30602,498.394 203.29467,498.94636 C 203.27816,499.74943 202.68141,500.48713 202.22308,501.0738 C 201.72841,501.70697 202.12519,501.9486 202.48551,502.5574 C 202.84298,503.16138 202.94318,503.29464 203.44775,503.76109 C 204.01054,504.28136 204.09598,504.73342 204.38813,505.35666 C 204.67018,505.95836 204.41556,506.70582 204.32252,507.31615 C 204.21173,508.04295 203.93083,507.91907 203.46962,508.32388 C 203.12506,508.62631 202.57597,508.44701 202.15747,508.43585 C 201.49307,508.41813 200.94429,508.0299 200.38606,507.76403 C 199.71385,507.44387 199.27658,506.91581 198.52718,506.64433 C 198.0279,506.46345 197.44761,505.93856 196.97447,505.66458 C 195.81974,504.99594 197.27988,504.7349 197.43372,504.51689 C 197.59012,504.29525 199.75405,503.96509 200.1455,503.87306 C 200.84689,503.70816 201.18278,503.5871 201.7857,503.20124 C 202.22169,502.9222 202.59855,502.49889 202.81355,502.24949 C 203.12369,501.88971 201.89895,502.50799 201.43579,502.61339 C 201.02857,502.70606 200.42299,502.5854 199.99242,502.5854 C 199.06941,502.5854 199.77193,501.68626 199.90494,501.32573 C 200.07274,500.8709 198.56937,501.57223 198.22101,501.71763 C 197.62917,501.96466 197.28592,501.91195 196.71203,501.96956 C 196.02045,502.03899 195.83223,500.86063 195.2468,500.48595 C 194.49661,500.00584 193.52272,499.81069 192.73184,499.36625 C 192.32958,499.1402 191.91321,499.03685 191.52903,498.89037 C 191.17461,498.75524 192.06593,501.28157 192.16324,501.4657 C 192.66442,502.41402 193.17531,502.94553 192.27258,501.66164 C 191.93185,501.17704 191.76743,500.28815 191.52903,499.75814 C 191.21094,499.05098 190.39149,499.08505 189.82323,498.91837 C 189.06102,498.69479 188.47881,499.13836 187.87687,499.45023 C 186.94112,499.93503 187.42571,499.84069 188.31425,500.01008 C 189.11005,500.16179 189.9749,500.90106 190.65426,501.32573 C 191.52279,501.86866 190.75492,502.31152 190.34809,502.75335 C 189.91014,503.229 189.3671,503.61378 188.86098,504.06901 C 188.53126,504.36558 188.24976,504.97858 188.00808,505.35666 C 187.7736,505.72351 188.2434,504.86378 188.24865,504.8528"
         style="fill:none;fill-opacity:0.75;fill-rule:evenodd;stroke:#5f5f5f;stroke-width:0.625;stroke-linecap:butt;stroke-linejoin:miter;marker:none;marker-start:none;marker-mid:none;marker-end:none;stroke-miterlimit:4;stroke-dasharray:none;stroke-dashoffset:0;stroke-opacity:1;visibility:visible;display:inline;overflow:visible;enable-background:accumulate" />
      <path
         id="path3293"
         d="M 189.38585,506.56035 C 189.03328,507.11192 189.29837,505.25403 189.25463,504.60086 C 188.03871,506.50311 190.17988,507.4974 191.44155,507.70804 C 192.56587,507.89575 191.1087,509.00914 190.82921,509.24764 C 190.42538,509.59224 189.85999,508.73346 189.51706,508.37987 C 189.07464,507.92368 187.81364,508.14267 187.26453,508.15593 C 186.71652,508.16916 186.05662,508.37575 185.49312,508.43585 C 184.78868,508.51099 184.25283,508.66085 183.52489,508.60381 C 182.88881,508.55396 183.56956,507.10537 183.63424,506.92425 C 184.03107,505.81312 183.60083,506.83586 183.3062,506.05648 C 183.17183,505.70102 181.76147,505.30106 181.40358,505.10473 C 181.00151,504.88417 180.07844,505.72431 179.78526,505.91652 C 179.31609,506.22411 178.93232,506.11843 178.4731,506.16845 C 178.00606,506.21933 177.60028,506.2484 177.29217,506.30842 C 176.88366,506.38798 176.91604,507.46628 176.85478,507.70804 C 176.6588,508.48154 176.58711,508.14594 176.1331,508.60381 C 175.85333,508.88595 175.08996,508.32741 174.84281,508.2399 C 174.14651,507.99338 173.46238,507.7607 172.78711,507.4841 C 172.53607,507.38128 171.98887,506.95923 171.71552,506.78429 C 171.32634,506.53521 170.73894,506.70031 170.31588,506.70031 C 169.7777,506.70031 169.28655,507.09939 168.89439,507.31615 C 168.37691,507.60217 167.76813,507.73534 167.23232,508.04395 C 166.77392,508.308 165.9955,508.08493 165.50466,508.04395 C 165.02011,508.0035 164.76952,508.2838 164.36746,508.43585 C 163.74738,508.67036 163.77473,509.13624 163.53643,509.63954 C 163.2619,510.21934 163.03864,510.60711 162.61792,511.09515 C 162.20199,511.57763 161.85233,511.00261 161.48072,510.8992 C 160.90019,510.73766 160.32686,510.44697 159.75305,510.25537 C 159.0351,510.01564 158.46285,509.87718 157.69734,509.83548 C 157.13368,509.80478 156.56682,509.55444 156.03528,509.41559 C 155.24473,509.20908 154.55276,509.23809 153.76088,509.27563 C 153.20405,509.30203 152.69101,509.55907 152.1863,509.75151 C 151.76027,509.91394 151.2141,509.82375 150.7648,509.83548 C 150.41695,509.84457 150.22131,511.20203 150.15246,511.45905 C 149.96254,512.16809 149.5318,512.78773 149.14648,513.39054 C 148.81834,513.9039 148.35262,514.34051 147.94367,514.76218 C 147.27657,515.45004 147.39686,514.84555 146.7846,514.76218 C 146.56169,514.73182 145.7633,513.69776 145.55993,513.50251 C 145.53858,513.48202 144.44549,513.3718 144.37899,513.36255 C 143.71262,513.26984 144.27232,512.05859 144.33525,511.79496 C 144.4746,511.21121 144.9564,510.51716 145.14441,509.89147 C 145.3281,509.28016 145.29355,508.58314 145.3631,507.95998 C 145.43073,507.35404 144.76159,506.63662 144.4446,506.16845 C 144.13905,505.71719 143.63744,505.23176 143.26366,504.79681 C 142.85237,504.31823 142.52703,503.73322 142.1702,503.22923 C 141.76638,502.65888 141.44043,502.41227 140.83617,502.02554 C 140.2783,501.6685 139.756,501.4451 139.13038,501.21376 C 138.61157,501.02192 137.99491,501.08842 137.44645,501.0738 C 136.90091,501.05925 136.81667,499.85914 136.70289,499.42223 C 136.49557,498.62613 136.25502,497.81062 135.93747,497.04286 C 135.63446,496.31025 135.07549,495.58981 134.66905,494.91543 C 134.32137,494.33853 133.62338,493.89757 133.09447,493.4878 C 132.50685,493.03255 131.77136,492.65484 131.14811,492.22814 C 130.73823,491.94751 130.0789,491.82585 129.61726,491.66828 C 129.07563,491.48341 128.53245,492.09039 128.15203,492.34011 C 127.64266,492.67446 127.17138,493.33199 126.7524,493.76773 C 126.2446,494.29583 126.02208,494.32302 125.35277,494.52353 C 124.8397,494.67723 124.68443,495.02762 124.34678,495.41929 C 123.96467,495.86254 123.68662,496.37997 123.38454,496.87491 C 123.09904,497.34266 123.24128,497.83991 123.23145,498.33052 C 123.22059,498.87278 123.62888,499.60752 123.77818,500.12205 C 123.97434,500.79805 124.36263,501.46046 124.63108,502.10952 C 124.83014,502.5908 125.35148,502.95977 125.70267,503.3412 C 126.13616,503.81199 126.42046,504.28956 126.86174,504.76882 C 127.24658,505.18678 127.77275,505.23736 128.28324,505.44064 C 128.85441,505.66809 129.40824,505.77654 129.96717,505.91652 C 130.44465,506.03609 130.89354,506.20028 131.30119,506.33641 C 131.82343,506.51079 132.19793,506.95982 132.63522,507.26017 C 133.04728,507.54318 133.38017,508.08121 133.68494,508.43585 C 134.00601,508.80946 134.33041,509.16702 134.62532,509.58355 C 135.47111,510.77816 134.38098,510.05267 134.14419,510.5073 C 134.02387,510.73832 133.02576,510.55721 132.7883,510.56329 C 132.29565,510.5759 131.74,510.28754 131.27933,510.1434 C 130.80899,509.99624 130.37143,509.96825 129.90156,509.89147 C 129.57962,509.83886 130.46087,511.74966 130.47016,511.76697 C 130.71699,512.22651 131.66947,512.62516 132.11036,512.88668 C 132.61274,513.18467 132.98277,513.46054 133.42251,513.81043 C 134.02844,514.29256 134.31603,515.13182 134.64719,515.7979 C 134.96593,516.43904 135.22755,517.06987 135.47822,517.7294 C 135.80499,518.58917 135.27699,518.51006 134.69092,518.82111 C 134.44717,518.95048 133.76961,518.90366 133.48812,518.93308 C 132.99621,518.98448 134.08694,519.72307 134.42849,520.08078 C 134.77641,520.44514 135.10991,520.78776 135.50009,521.1445 C 135.9737,521.57752 136.31283,522.12898 136.74663,522.60011 C 137.19407,523.08606 137.67233,523.55857 138.12439,524.02773 C 138.52282,524.44124 138.86999,524.85422 139.21785,525.31539 C 139.63438,525.86759 140.02846,525.87078 140.55187,526.09919 C 140.90623,526.25381 141.76298,526.07119 142.1702,526.07119 C 142.75873,526.07119 143.34351,526.09707 143.91974,526.12718 C 144.4181,526.15321 144.81457,526.78327 145.12254,527.07892 C 145.48604,527.42789 145.79984,528.01587 146.12853,528.42257 C 146.55835,528.95441 147.0992,529.23734 147.6375,529.59826 C 148.18385,529.96457 148.81593,530.19002 149.40891,530.46603 C 149.85947,530.67574 150.27874,530.9382 150.69919,531.19384 C 151.13478,531.45867 151.67584,531.64367 152.12069,531.89365 C 152.64379,532.18761 153.34292,532.32676 153.91397,532.50949 C 154.36646,532.65429 154.86008,533.03365 155.37921,533.18131 C 156.03821,533.36876 156.70678,533.51416 157.39118,533.65719 C 157.95948,533.77595 158.50543,533.85883 159.05324,533.9931 C 159.48281,534.09839 159.89879,534.94625 160.10296,535.28076 C 160.42049,535.801 161.01046,535.94701 161.52446,536.17652 C 162.03807,536.40586 162.63557,536.53885 163.16465,536.73637 C 163.60219,536.89972 164.10088,537.00541 164.54241,537.12827 C 165.02689,537.26308 165.4101,537.09376 165.85456,537.04429 C 166.29426,536.99535 165.91005,537.93397 166.02952,538.35995 C 166.16552,538.8449 168.28045,538.97566 168.63195,539.00377 C 169.23514,539.05203 169.90323,539.34426 170.49084,539.47965 C 171.00867,539.59896 171.47965,540.03576 171.91234,540.31943 C 172.48463,540.69462 172.8492,540.95694 173.50879,541.1872 C 174.35952,541.48418 175.43585,541.42671 176.32992,541.5511 C 176.92482,541.63387 177.54972,542.08088 178.07946,542.3069 C 178.64153,542.54672 178.01864,543.87533 177.92637,544.1824 C 177.58178,545.32921 178.24471,544.28785 178.64806,543.8185 C 178.68486,543.77568 178.66264,543.70653 178.66993,543.65055"
         style="fill:none;fill-opacity:0.75;fill-rule:evenodd;stroke:#5f5f5f;stroke-width:0.625;stroke-linecap:butt;stroke-linejoin:miter;marker:none;marker-start:none;marker-mid:none;marker-end:none;stroke-miterlimit:4;stroke-dasharray:none;stroke-dashoffset:0;stroke-opacity:1;visibility:visible;display:inline;overflow:visible;enable-background:accumulate" />
      <path
         id="path3295"
         d="M 195.57483,470.33792 C 195.72038,470.16856 197.20772,472.51521 197.38998,472.82926 C 197.79798,473.53228 197.91804,474.33593 198.06793,475.12466 C 198.25568,476.11267 198.48523,476.99994 198.87709,477.92392 C 199.12045,478.49774 199.87585,479.11623 200.21111,479.74343 C 200.39495,480.08736 201.24822,480.43108 201.52326,480.61121 C 202.17585,481.03857 202.28853,479.8799 202.39803,479.51949 C 202.62567,478.77024 202.19412,477.79536 202.00438,477.08414 C 201.78579,476.26472 203.02403,478.44002 203.5571,479.0996 C 203.64285,479.20571 204.28536,477.43775 204.36626,477.19611 C 204.61404,476.45609 204.86162,475.80878 205.04421,475.06867 C 205.16708,474.57061 204.96586,473.93704 204.89112,473.4451 C 204.69988,472.1862 205.17561,473.38441 205.5472,473.30514 C 206.09362,473.18856 206.06953,474.29506 206.37823,474.76075 C 206.46425,474.89052 208.23966,473.79989 208.36833,473.72502 C 209.13589,473.27844 209.19733,473.22411 209.593,472.40937 C 209.86693,471.84533 209.98815,471.1876 210.16161,470.58985 C 210.41039,469.73249 209.69923,469.01113 209.2431,468.40643 C 208.7907,467.80669 208.71117,467.3514 208.54329,466.67089 C 208.42132,466.17653 209.38439,465.14701 209.61487,464.68341 C 210.05979,463.78849 209.71771,462.86181 209.37432,462.05211 C 209.00296,461.17649 208.47408,460.29557 207.95281,459.50478 C 207.60697,458.98012 207.71684,457.8079 207.69038,457.1814 C 207.66174,456.50315 207.69038,455.81716 207.69038,455.13794 C 207.69038,454.41268 207.51882,453.94292 207.253,453.26243 C 207.05769,452.76245 206.53942,452.81235 206.02832,452.73057 C 205.45702,452.63916 204.94208,452.76076 204.36626,452.87054 C 203.45029,453.04515 202.84305,453.70253 202.20121,454.29816 C 201.94205,454.53866 202.52732,452.65912 202.63859,452.28269 C 202.88708,451.44208 202.46653,451.38226 202.02625,450.85507 C 201.65308,450.40822 200.79052,450.93057 200.4298,451.05102 C 199.69354,451.29686 199.27749,452.20711 198.92083,452.78656 C 198.65401,453.22003 198.39738,454.02616 198.24288,454.38214 C 198.04371,454.84102 197.71773,454.68308 197.76176,455.75377 C 197.79077,456.45943 197.91747,457.17967 197.95858,457.88121 C 197.97259,458.12035 197.12243,458.31377 196.90886,458.38508 C 196.41314,458.5506 195.78272,459.39665 195.37801,459.72872 C 194.86631,460.14858 194.65647,460.65483 194.37203,461.29631 C 193.99781,462.14025 194.14765,462.02565 194.52511,462.80791 C 194.74701,463.26778 196.47113,463.3218 196.9526,463.39575 C 197.57689,463.49165 198.27243,462.30013 198.61466,461.91215 C 199.23613,461.20757 199.79439,460.36755 200.36419,459.61675 C 200.8425,458.98652 200.10043,458.36932 199.7956,457.96519 C 199.12193,457.07209 200.31653,458.76668 200.51728,459.16887 C 200.92821,459.99217 201.5326,460.77054 202.02625,461.54824 C 202.54353,462.36315 202.52563,462.58751 202.50738,463.45174 C 202.49675,463.95507 202.01436,464.77476 201.93878,465.35524 C 201.84337,466.088 202.09009,466.94063 202.1356,467.67862 C 202.17339,468.29126 200.80141,468.71044 200.38606,468.93829 C 199.68903,469.32067 199.46334,469.0146 198.85522,468.93829 C 198.46024,468.88872 197.76658,468.44018 197.34624,468.29446 C 196.61998,468.04269 196.39429,468.6378 195.96848,469.05026 C 195.6461,469.36254 195.68529,469.90289 195.57483,470.33792 z"
         style="fill:none;fill-opacity:0.75;fill-rule:evenodd;stroke:#5f5f5f;stroke-width:0.625;stroke-linecap:butt;stroke-linejoin:miter;marker:none;marker-start:none;marker-mid:none;marker-end:none;stroke-miterlimit:4;stroke-dasharray:none;stroke-dashoffset:0;stroke-opacity:1;visibility:visible;display:inline;overflow:visible;enable-background:accumulate" />
      <path
         id="path3297"
         d="M 189.60454,440.38583 C 189.00608,440.96553 188.8767,438.85234 188.29238,438.2584 C 187.76446,437.72177 187.30239,439.05685 187.15518,439.29412 C 186.84264,439.7979 186.73589,440.44428 186.58659,441.00167 C 186.4807,441.39698 186.12007,441.7588 185.97425,442.26134 C 185.76997,442.9653 187.00326,444.45326 187.35201,444.97662 C 187.79932,445.6479 188.08364,446.38582 188.35799,447.13205 C 188.60295,447.79834 189.00679,448.2974 189.40772,448.86759 C 189.84522,449.48982 190.49738,449.97983 191.02604,450.46317 C 191.50142,450.89781 192.78335,450.60957 193.34418,450.54715 C 194.43529,450.4257 194.04705,448.79536 193.91277,448.27975 C 193.60944,447.11496 193.5673,447.26596 193.69408,446.29227 C 193.76193,445.77123 196.0655,444.39308 196.55895,443.80093 C 197.38705,442.80721 197.41191,443.02252 196.29652,442.59725 C 195.57779,442.32321 194.83793,442.36524 194.04399,442.34532 C 192.69795,442.31153 193.0947,442.13032 193.91277,441.30959 C 194.53048,440.68989 194.69982,439.98767 194.9625,439.21015 C 195.11285,438.76511 194.21709,437.63901 194.00025,437.22267 C 193.63223,436.51608 193.12892,436.61595 192.44754,436.57884 C 191.78803,436.54292 191.40798,436.80378 190.85108,437.08271 C 190.08687,437.46548 189.71212,438.52038 189.40772,439.23814 C 189.25616,439.59548 189.53893,440.00327 189.60454,440.38583 z"
         style="fill:none;fill-opacity:0.75;fill-rule:evenodd;stroke:#5f5f5f;stroke-width:0.625;stroke-linecap:butt;stroke-linejoin:miter;marker:none;marker-start:none;marker-mid:none;marker-end:none;stroke-miterlimit:4;stroke-dasharray:none;stroke-dashoffset:0;stroke-opacity:1;visibility:visible;display:inline;overflow:visible;enable-background:accumulate" />
      <path
         id="path3299"
         d="M 192.66623,465.04732 C 192.40532,465.66252 192.84118,463.72233 192.92866,463.05984 C 193.10967,461.68899 192.69705,465.82346 192.4038,467.17476 C 192.29266,467.68687 192.3594,468.35286 192.33819,468.8823 C 192.32811,469.13405 190.72108,468.70617 190.61052,468.68636 C 190.17645,468.60857 190.17326,467.38753 190.1294,467.09078 C 190.01624,466.32519 189.72508,465.9419 189.36398,465.35524 C 189.11967,464.95833 188.53315,465.28382 189.8451,465.21527 C 191.21754,465.14357 192.68668,465.1026 192.27258,463.9836 C 192.10692,463.53596 193.13196,463.26732 193.21296,463.19981"
         style="fill:none;fill-opacity:0.75;fill-rule:evenodd;stroke:#5f5f5f;stroke-width:0.625;stroke-linecap:butt;stroke-linejoin:miter;marker:none;marker-start:none;marker-mid:none;marker-end:none;stroke-miterlimit:4;stroke-dasharray:none;stroke-dashoffset:0;stroke-opacity:1;visibility:visible;display:inline;overflow:visible;enable-background:accumulate" />
      <path
         id="path3301"
         d="M 221.70856,488.25318 C 221.27473,487.08089 223.28963,486.28345 223.808,485.14601 C 224.06609,484.57968 224.21364,483.96121 224.42034,483.38247 C 224.60724,482.85915 224.95825,482.37626 225.2295,481.89886 C 225.53877,481.35455 225.80025,480.80474 226.12614,480.27529 C 226.46324,479.72764 226.81163,479.24694 227.19773,478.7357 C 227.53619,478.28754 228.10159,478.27991 228.55362,478.11986 C 229.23504,477.87861 229.62022,477.52538 230.12821,477.02815 C 230.51649,476.64809 230.78646,475.6306 231.04671,475.15265 C 231.39975,474.50428 231.44264,474.00203 231.92148,473.38911 C 232.3856,472.79505 233.01223,472.47719 233.62728,472.10145 C 234.34039,471.66581 235.26554,471.51063 236.0329,470.98175 C 236.6905,470.52851 237.27282,469.59189 237.82617,468.99427 C 238.33164,468.44837 238.157,468.23057 238.19795,467.56665 C 238.20378,467.47214 236.84514,467.25936 236.84206,467.25873 C 236.36197,467.16041 237.24125,466.36041 237.49813,465.94308 C 237.56407,465.83595 237.85005,465.41428 238.00112,465.18728 C 238.19023,464.90313 237.52197,463.31447 237.41065,462.91988 C 237.21751,462.23525 237.11292,461.678 237.08261,460.9604 C 237.05504,460.3073 237.35211,459.83778 237.60748,459.25285 C 237.81173,458.785 237.8265,458.18762 237.93552,457.68526 C 238.11449,456.86055 237.50056,455.89892 237.17009,455.19392 C 236.83941,454.48845 236.71721,453.55868 236.42654,452.81455 C 236.16407,452.14262 236.00509,451.4665 235.8142,450.77109 C 235.65951,450.20756 235.58417,449.62809 235.48616,449.06354 C 235.37921,448.44751 235.5566,447.73409 235.66112,447.13205 C 235.78791,446.40173 235.631,445.59884 235.57364,444.86465 C 235.49757,443.89101 235.23152,444.33189 234.78635,443.9129 C 234.46604,443.61143 233.91346,444.02992 233.47419,444.05287 C 232.82628,444.08672 233.36992,442.75571 233.23363,442.12138 C 233.07565,441.38603 232.16214,441.44509 231.63718,441.33758 C 231.07985,441.22344 230.36172,441.38705 229.80017,441.44955 C 229.04975,441.53308 228.40691,441.72041 227.67885,441.92543 C 227.10474,442.0871 226.57769,442.75269 226.14801,443.1571 C 225.6808,443.59682 225.35412,443.72008 224.77024,443.9409 C 224.14886,444.17589 223.34292,444.19962 222.69267,444.33279 C 222.00458,444.47371 221.40693,444.62076 220.74631,444.83666 C 219.91844,445.10721 219.20911,445.84029 218.53752,446.34826 C 217.90068,446.82994 217.41262,447.29608 216.85359,447.85986 C 216.36653,448.35105 216.02034,449.05248 215.65078,449.62339 C 215.34135,450.10141 215.36131,451.13799 215.279,451.69485 C 215.14448,452.60502 215.383,453.03353 215.782,453.7663 C 216.05182,454.26184 216.63693,454.67064 217.02854,455.05396 C 217.29693,455.31667 217.28156,456.52697 217.35658,456.90147 C 217.47871,457.51116 217.31527,457.98074 217.20349,458.55303 C 217.07692,459.20107 217.02064,459.76712 217.00667,460.42854 C 216.99097,461.17245 217.37069,462.03082 217.5534,462.75192 C 217.70012,463.33099 217.58752,463.96112 217.5534,464.54345 C 217.50466,465.37536 217.79765,465.22713 218.25322,465.71914 C 218.51037,465.99687 219.11292,466.08002 219.45602,466.22301 C 219.74913,466.34516 218.42426,466.99398 218.29695,467.06278 C 217.63516,467.42045 217.78986,467.20981 217.72836,468.1545 C 217.67928,468.90833 218.14152,468.99106 218.47191,469.44216 C 218.6679,469.70975 219.76731,469.67715 220.09023,469.72208 C 220.72658,469.81062 219.0176,471.49322 218.99677,471.51361 C 218.57566,471.9258 218.30736,471.64434 217.81583,471.73755 C 217.24589,471.84563 217.01804,472.57285 216.72237,473.0532 C 216.30214,473.73592 216.18793,474.39317 216.08817,475.18064 C 215.9973,475.89787 215.95357,476.6192 215.89134,477.33607 C 215.82691,478.07834 215.66692,478.72699 215.65078,479.4915 C 215.62849,480.54714 216.12729,481.59531 216.32872,482.62667 C 216.4698,483.34897 216.63219,484.06423 216.78798,484.7821 C 216.90576,485.32484 216.91605,485.94697 216.9848,486.48965 C 217.06226,487.10105 217.97332,487.40223 218.38443,487.66534 C 218.83155,487.95149 219.32901,487.4983 219.71846,487.35742 C 220.25613,487.16292 220.64972,487.12926 220.92126,487.0775 C 221.38457,486.98917 221.44612,487.86129 221.70856,488.25318 z"
         style="fill:none;fill-opacity:0.75;fill-rule:evenodd;stroke:#5f5f5f;stroke-width:0.625;stroke-linecap:butt;stroke-linejoin:miter;marker:none;marker-start:none;marker-mid:none;marker-end:none;stroke-miterlimit:4;stroke-dasharray:none;stroke-dashoffset:0;stroke-opacity:1;visibility:visible;display:inline;overflow:visible;enable-background:accumulate" />
      <path
         id="path3303"
         d="M 240.363,475.65652 C 240.71489,475.58943 240.26094,474.94737 240.20991,474.59279 C 240.16238,474.26248 239.04505,474.74295 238.96337,474.76075 C 238.31251,474.90255 238.24132,475.39114 237.95739,475.82447 C 237.66,476.27832 238.55206,476.88674 238.72281,477.11213 C 238.95833,477.42301 239.08294,477.52561 239.35702,478.03589 C 239.57121,478.43468 240.31245,478.42044 240.66917,478.51176 C 241.10518,478.62338 241.4888,478.30664 241.87197,478.17585 C 242.24261,478.04934 242.6393,479.23846 242.74674,479.46351 C 243.08142,480.1645 243.46021,479.17106 243.70899,478.81968 C 244.09923,478.26849 244.40694,477.67573 244.71497,477.05614 C 244.94895,476.58553 245.33324,476.2774 245.69909,475.90845 C 246.01452,475.59034 245.86433,474.84704 245.89591,474.45283 C 245.94316,473.86321 245.5444,473.20116 245.32731,472.6893 C 245.0402,472.01232 244.43323,472.2762 243.81833,472.32539 C 243.12879,472.38056 242.66459,472.90163 242.13441,473.30514 C 241.69759,473.63759 241.55052,474.34063 241.39085,474.84473 C 241.11645,475.7111 239.09464,475.85945 241.41272,475.48856"
         style="fill:none;fill-opacity:0.75;fill-rule:evenodd;stroke:#5f5f5f;stroke-width:0.625;stroke-linecap:butt;stroke-linejoin:miter;marker:none;marker-start:none;marker-mid:none;marker-end:none;stroke-miterlimit:4;stroke-dasharray:none;stroke-dashoffset:0;stroke-opacity:1;visibility:visible;display:inline;overflow:visible;enable-background:accumulate" />
      <path
         id="path3305"
         d="M 253.7907,493.34784 C 253.78093,493.37867 253.26961,491.35603 253.24397,491.05244 C 253.1743,490.22754 253.37715,490.72273 252.9378,489.90475 C 252.66537,489.39752 253.45114,488.74381 253.70322,488.42114 C 254.04747,487.98051 254.34761,487.47046 254.66547,487.02151 C 255.14859,486.33914 255.44025,487.02151 255.82454,487.02151 C 256.09252,487.02151 255.70024,488.78134 255.67146,488.92501 C 255.53982,489.58214 255.7263,490.42389 255.67146,491.10843 C 255.62762,491.65554 254.01191,493.04851 253.7907,493.34784 z"
         style="fill:none;fill-opacity:0.75;fill-rule:evenodd;stroke:#5f5f5f;stroke-width:0.625;stroke-linecap:butt;stroke-linejoin:miter;marker:none;marker-start:none;marker-mid:none;marker-end:none;stroke-miterlimit:4;stroke-dasharray:none;stroke-dashoffset:0;stroke-opacity:1;visibility:visible;display:inline;overflow:visible;enable-background:accumulate" />
      <path
         id="path3307"
         d="M 257.42099,493.23587 C 257.35448,494.06599 257.98604,491.66654 258.3395,490.91248 C 258.81823,489.89118 258.15615,490.70015 257.88025,490.38062 C 257.68558,490.15518 257.70419,490.10405 257.39912,489.62482 C 257.36927,489.57792 257.84314,488.27902 257.88025,488.16921 C 258.0199,487.75584 257.40385,487.43648 257.2023,487.04951 C 256.95982,486.58395 257.71903,486.13312 257.92398,485.64987 C 258.09384,485.24938 257.06134,485.76599 256.6337,485.84582 C 255.76827,486.00737 256.04789,485.70303 255.62772,485.14601 C 255.49276,484.96709 255.40489,483.84583 255.32155,483.55043 C 255.26812,483.36107 254.27458,483.20209 254.09687,483.15853 C 253.33977,482.97296 254.12111,481.99872 254.20621,481.7869 C 254.36341,481.39565 255.0126,481.03287 255.36528,480.80715 C 255.8006,480.52855 256.16813,480.02449 256.50248,479.65946 C 257.21366,478.88303 257.16541,479.69648 257.63969,480.02336 C 258.00036,480.27195 257.80301,480.88434 257.90211,481.31102 C 257.96144,481.56643 258.88553,482.14325 259.10492,482.31875 C 259.70282,482.79707 259.91141,482.77865 260.65764,482.93459 C 261.12551,483.03237 261.68178,483.04888 262.101,483.13054 C 262.16564,483.14313 262.27702,484.47346 262.29783,484.64214 C 262.37733,485.2866 262.18553,485.8822 262.05727,486.48965 C 261.93255,487.0803 261.47363,487.54338 261.16063,488.00125 C 260.8994,488.3834 260.38111,488.69111 260.06717,489.09296 C 259.67627,489.59332 259.43957,490.07401 259.14866,490.63255 C 258.88463,491.1395 258.67142,491.65724 258.38324,492.14416 C 258.13617,492.56161 257.74174,492.87197 257.42099,493.23587 z"
         style="fill:none;fill-opacity:0.75;fill-rule:evenodd;stroke:#5f5f5f;stroke-width:0.625;stroke-linecap:butt;stroke-linejoin:miter;marker:none;marker-start:none;marker-mid:none;marker-end:none;stroke-miterlimit:4;stroke-dasharray:none;stroke-dashoffset:0;stroke-opacity:1;visibility:visible;display:inline;overflow:visible;enable-background:accumulate" />
      <path
         id="path3309"
         d="M 275.63805,479.18358 C 275.42618,479.54156 274.8945,479.55682 274.52272,479.74343 C 274.13992,479.93559 273.70941,480.06757 273.31991,480.21931 C 272.85517,480.40036 272.43097,480.55905 271.98589,480.77916 C 271.47873,481.02998 271.90421,481.94338 271.94216,482.23477 C 272.0279,482.8933 272.85546,482.71232 273.25431,482.76663 C 273.83014,482.84505 274.37988,482.27786 274.80702,482.01083 C 274.87684,481.96719 274.9674,481.97351 275.04758,481.95485"
         style="fill:none;fill-opacity:0.75;fill-rule:evenodd;stroke:#5f5f5f;stroke-width:0.625;stroke-linecap:butt;stroke-linejoin:miter;marker:none;marker-start:none;marker-mid:none;marker-end:none;stroke-miterlimit:4;stroke-dasharray:none;stroke-dashoffset:0;stroke-opacity:1;visibility:visible;display:inline;overflow:visible;enable-background:accumulate" />
      <path
         id="path3311"
         d="M 274.30403,485.06203 C 274.94603,484.66071 272.83791,485.49443 272.18271,485.87381 C 271.69955,486.15359 271.17339,486.28456 270.65187,486.46166 C 270.22958,486.60506 269.82205,486.94094 269.42719,487.13348 C 268.99367,487.34487 268.66969,488.5287 268.46495,488.953 C 268.17726,489.5492 267.89948,490.09969 267.59018,490.66055 C 267.28228,491.21887 266.5937,491.67725 266.10307,492.06018 C 265.58929,492.46118 265.33387,492.81421 264.96587,493.37583 C 264.51896,494.05789 264.34295,495.20056 264.06924,495.97914 C 263.84068,496.62925 263.74065,497.28585 263.47877,497.93863 C 263.26743,498.46539 262.86791,499.0064 262.56026,499.50621 C 262.23577,500.03339 261.90707,500.52395 261.64175,501.0738 C 261.41057,501.5529 261.47835,502.26802 261.44493,502.78135 C 261.40554,503.38638 261.05534,503.80574 260.76698,504.29295 C 260.45391,504.82193 260.03878,505.2104 259.60792,505.66458 C 259.11664,506.18244 258.77021,506.91292 258.40511,507.4841 C 258.0428,508.05091 257.75526,508.56509 257.31165,509.07968 C 256.99723,509.4444 256.4757,509.30486 256.0651,509.35961 C 255.15687,509.48071 255.5626,509.12264 255.23407,508.96771 C 255.15478,508.93032 255.66019,507.4252 255.69332,507.31615 C 255.94133,506.49987 255.95576,505.89043 255.95576,505.07674 C 255.95576,504.42775 255.8135,503.82935 255.67146,503.20124 C 255.49463,502.41933 255.77699,502.24902 256.15258,501.63365 C 256.5993,500.90174 257.22513,500.36599 257.81464,499.75814 C 258.3215,499.23551 258.85046,499.04028 259.52044,498.80639 C 260.11576,498.59857 260.54989,498.16647 261.00754,497.77067 C 261.37459,497.45323 261.6568,496.92449 261.94792,496.53899 C 262.37947,495.96756 262.17645,495.53556 262.21035,494.97141 C 262.2374,494.52128 261.08069,494.40036 260.83259,494.32758 C 260.39506,494.19924 259.94971,493.86642 259.45483,493.73973 C 258.73422,493.55526 259.66807,492.87787 259.80474,492.67602 C 260.17466,492.12967 260.4867,491.5584 260.83259,490.99646 C 261.11884,490.53142 261.48572,490.16268 261.90418,489.76479 C 262.35377,489.3373 262.46875,488.53838 262.64774,487.97326 C 262.80022,487.4918 262.99046,486.99385 263.12886,486.48965 C 263.29531,485.88324 263.35342,485.38423 263.39129,484.75411 C 263.42552,484.18456 263.44914,483.66596 263.52251,483.10255 C 263.59381,482.55494 263.84504,481.97297 264.00363,481.45098 C 264.18656,480.84887 264.45905,480.28673 264.6597,479.68745 C 264.93567,478.86324 265.03148,478.44535 265.03148,477.56001 C 265.03148,476.85087 265.03148,476.14172 265.03148,475.43257 C 265.03148,474.88706 264.81858,474.32159 264.68157,473.809 C 264.48682,473.08032 264.61903,473.04143 264.79092,472.38138 C 265.03033,471.46206 265.52148,471.87161 265.94999,471.70956 C 266.35497,471.5564 266.79044,471.92375 267.2184,471.98948 C 267.51919,472.03568 268.08097,471.95004 268.44308,471.98948 C 268.6404,472.01098 269.39331,470.87333 269.53654,470.70182 C 269.87755,470.2935 270.07261,469.85631 270.32383,469.41416 C 270.6178,468.89678 270.22278,468.1886 270.0614,467.70661 C 269.85051,467.07674 270.21864,466.28705 270.36757,465.66315 C 270.56091,464.85324 270.88272,464.40225 270.93617,463.53572 C 270.97478,462.90964 270.24427,462.34062 269.88645,461.91215 C 269.4837,461.42989 269.27079,460.6612 269.01168,460.09263 C 268.84038,459.71675 268.95455,459.02146 268.94607,458.60902 C 268.93593,458.11556 269.08579,457.70862 269.2085,457.23738 C 269.33795,456.7403 269.5621,456.27399 269.73336,455.80976 C 270.19173,454.56733 270.06777,455.74861 269.42719,455.86574 C 269.24228,455.89956 268.59652,457.08013 268.46495,457.26537 C 268.08603,457.79889 267.90734,457.98596 267.39336,458.35709 C 266.58659,458.93962 267.03762,457.96245 266.73728,457.62928 C 266.51084,457.37809 266.30585,456.50354 266.12494,456.14567 C 265.90409,455.70878 265.35356,455.22747 265.05335,454.80203 C 264.7674,454.3968 264.60336,453.84921 264.39728,453.3744 C 263.91576,452.26499 263.73123,453.3744 263.34755,453.3744 C 262.92064,453.3744 263.31804,455.91971 263.34755,456.08968 C 263.50842,457.01627 263.90714,457.91413 264.24419,458.77697 C 264.52228,459.4889 264.81581,460.18205 265.11896,460.87642 C 265.37579,461.4647 265.53751,462.06738 265.68756,462.69594 C 265.8372,463.32279 266.41552,464.073 266.73728,464.62743 C 267.03814,465.14584 267.37314,465.56691 267.72139,466.02706 C 268.07781,466.49799 268.40718,466.98174 268.72738,467.48267 C 269.13071,468.11366 268.99583,468.80971 268.96794,469.47015 C 268.94836,469.93393 268.08422,470.33274 267.76513,470.56186 C 267.35449,470.85672 267.09837,470.79817 266.6498,470.92576 C 266.25407,471.03833 265.71173,470.8909 265.31578,470.86978 C 264.79716,470.84212 265.00269,470.02968 264.98774,469.6661 C 264.94321,468.58304 264.80219,469.76264 264.68157,470.28193 C 264.56307,470.79217 263.9454,471.29276 263.63185,471.68156 C 263.25045,472.1545 262.77018,472.546 262.34157,472.96923 C 261.92647,473.3791 261.5626,472.3685 261.44493,472.24142 C 261.25694,472.03839 261.47758,470.89463 261.48867,470.61785 C 261.50872,470.11745 260.55616,469.83808 260.22025,469.6661 C 259.64762,469.37291 259.42095,469.08363 258.9737,468.65836 C 258.57688,468.28104 259.1847,467.23127 259.30174,466.92282 C 259.57697,466.19752 259.8078,465.52746 259.97969,464.76739 C 260.13787,464.06796 260.0447,463.39539 260.00156,462.69594 C 259.96782,462.1489 259.85937,461.58982 259.80474,461.04438 C 259.7334,460.33213 259.48261,459.7357 259.21427,459.08489 C 258.97303,458.49983 258.8779,457.84442 258.71128,457.23738 C 258.52461,456.55733 258.26038,456.57145 258.14268,456.3976 C 257.84722,455.96123 257.61329,456.31651 257.55221,455.22191 C 257.51017,454.46856 257.82607,453.55995 257.96772,452.81455 C 258.091,452.16582 258.01146,451.43103 258.01146,450.77109 C 258.01146,449.98684 258.04827,449.20369 258.03333,448.41971 C 258.02082,447.76333 257.84387,447.14943 257.68342,446.51621 C 257.52639,445.89647 257.13623,445.30138 256.87426,444.75268 C 256.49268,443.95345 257.07846,444.09584 257.83651,443.88491 C 258.60309,443.6716 259.22765,443.54114 259.95782,443.1851 C 260.41506,442.96214 260.87667,442.27202 261.24811,441.89744 C 261.70422,441.43745 262.08415,440.91949 262.49465,440.44182 C 262.94773,439.9146 263.40377,440.23019 263.89428,440.21788 C 264.60758,440.19998 264.79233,441.21273 264.98774,441.67349 C 265.26247,442.32127 264.72643,442.86903 264.46288,443.35305 C 264.18682,443.86004 263.87081,444.18994 263.63185,444.6687 C 263.36027,445.21282 264.67768,445.28288 264.81279,445.34053 C 265.28218,445.5408 265.7995,444.7646 266.05933,444.55673 C 266.44629,444.24717 266.20712,443.32551 266.19055,442.93316 C 266.16846,442.41015 265.87171,441.92963 265.66569,441.47755 C 265.43352,440.96811 265.26596,440.44315 265.09709,439.90996 C 264.9324,439.38997 264.93439,438.74343 264.85653,438.20241 C 264.80229,437.82555 263.84754,437.58917 263.56624,437.4746 C 263.16717,437.31207 262.58135,437.20934 262.21035,437.08271 C 261.70011,436.90854 262.5879,435.74364 262.64774,435.62709 C 262.81205,435.30705 263.0997,435.06724 263.32568,434.78731 C 263.52541,434.53991 262.82048,432.89303 262.71334,432.5759 C 262.46709,431.84697 262.19805,431.16493 261.90418,430.44846 C 261.61633,429.74664 261.53415,428.94655 261.40119,428.20905 C 261.26795,427.47004 261.02307,426.80616 260.76698,426.10961 C 260.38978,425.08363 260.20193,425.61327 259.65165,425.40979 C 259.13004,425.21691 259.4496,425.32358 259.06118,425.15786 C 258.91342,425.09481 259.09547,423.59027 259.10492,423.36633 C 259.12684,422.84717 259.11726,422.35213 259.08305,421.82674 C 259.03125,421.03101 258.69907,421.53184 258.31763,421.23889 C 258.25957,421.1943 256.68934,421.37886 256.54622,421.37886 C 255.97672,421.37886 255.41735,421.36536 254.86229,421.35086 C 254.4945,421.34126 253.92748,421.45368 253.57201,421.49083 C 253.37089,421.51184 252.60894,420.89468 252.43481,420.79101 C 252.08436,420.58237 251.79331,421.29488 251.47256,421.54681 C 251.39955,421.60416 251.26312,420.07628 251.25387,419.97923 C 251.17699,419.17224 251.51317,419.09669 251.75686,418.63558 C 251.88245,418.39795 253.40641,418.48394 253.72509,418.46763 C 254.34218,418.43603 254.8194,418.33222 255.40902,418.1877 C 255.96379,418.05173 256.55969,417.47207 257.00547,417.15197 C 257.51539,416.78584 257.98062,417.17468 258.44885,417.29194 C 258.69711,417.35411 256.91911,416.98299 256.39314,416.92803 C 255.6319,416.84849 254.78758,417.01532 254.03126,417.09599 C 253.30412,417.17355 252.59872,416.92746 251.93182,416.76008 C 251.47131,416.6445 251.49312,415.33138 251.45069,414.99654 C 251.37826,414.42479 250.59028,415.31101 250.20415,415.61238 C 249.76448,415.95554 248.40387,415.3287 247.95162,415.19249 C 247.05331,414.92194 246.26346,414.08402 245.23984,413.79286 C 244.44165,413.56582 243.63258,413.38956 242.81235,413.261 C 241.67502,413.08274 240.57328,412.6593 239.46636,412.36524 C 238.75726,412.17686 238.39612,411.62896 237.97926,411.07758 C 237.62763,410.6125 237.65349,409.62132 237.52,409.06211 C 237.36092,408.3957 237.44624,407.8508 237.49813,407.18661 C 237.54806,406.54753 238.0173,406.05433 238.32916,405.56304 C 238.81773,404.79336 238.47759,404.95681 238.00112,404.30337 C 237.68386,403.86826 236.53953,403.43613 236.12037,403.15567 C 235.54218,402.76881 234.9065,402.45372 234.32709,402.09195 C 233.94818,401.85536 233.49053,401.6821 233.10242,401.47612 C 232.24,401.0184 232.54186,401.79711 232.27139,401.95199 C 231.91831,402.15417 232.05044,402.74236 231.85587,403.09969 C 231.20476,404.29548 230.3143,403.59956 229.75643,403.15567 C 228.97491,402.53384 228.70378,401.22001 228.3568,400.35641 C 228.00309,399.47607 227.98502,398.62168 227.98502,397.69712 C 227.98502,396.53596 227.81828,397.04368 227.41642,396.43745 C 227.24313,396.17603 224.98616,396.45736 224.63903,396.46544 C 223.61781,396.48921 223.93492,396.54415 223.43622,397.3612 C 222.85315,398.3165 223.18177,398.74646 222.49585,399.54463 C 221.73073,400.43494 219.22851,399.42057 218.4063,399.09675 C 217.60665,398.7818 216.83702,398.55017 216.0663,398.22897 C 215.53788,398.00876 214.99416,397.73379 214.49171,397.50117 C 214.0357,397.29004 213.75972,396.97401 213.26704,396.77336 C 212.69331,396.5397 211.01745,397.18097 210.18348,397.02529 C 209.77045,396.94819 209.55516,396.94251 209.00254,396.77336 C 208.47465,396.61178 208.38779,395.8472 207.99655,395.45771 C 207.71922,395.18161 205.65447,396.99524 205.41599,397.19325 C 204.88552,397.63368 204.12732,397.84772 203.46962,398.31295 C 202.64426,398.89679 201.89367,399.69306 201.10775,400.32842 C 200.78017,400.59324 200.39463,400.77482 200.03616,401.11221 C 199.44183,401.67158 198.88349,402.42945 198.35222,403.0717 C 197.87735,403.64577 197.64215,403.54422 197.14942,403.7995 C 196.78691,403.98732 196.14654,402.96746 195.99035,402.79177 C 195.54071,402.286 195.08493,402.10593 194.50324,401.84002 C 194.08474,401.6487 192.81656,402.10618 192.31632,402.14794 C 191.28657,402.2339 190.69374,402.29491 189.75762,402.76378 C 189.23979,403.02314 189.03985,403.01731 188.55482,403.12768 C 188.27626,403.19107 188.13854,401.96859 188.09556,401.81203 C 187.89787,401.09181 187.97214,400.29007 187.76752,399.54463 C 187.6243,399.02287 187.46251,398.54557 187.30827,398.08901 C 187.19726,397.76043 186.81257,397.60381 186.56472,397.3612 C 186.2358,397.03926 188.54152,396.2367 188.66416,396.18551 C 189.34676,395.9006 190.52342,396.37514 191.2666,396.29748 C 191.75532,396.24642 191.3286,394.74513 191.28847,394.53395 C 191.19851,394.06056 190.45185,393.69726 190.1294,393.41425 C 189.8219,393.14435 189.39784,392.90932 189.10155,392.63045 C 188.63622,392.1925 189.74067,390.62081 189.93258,390.22309 C 190.37801,389.29998 191.03046,388.45949 191.57277,387.59179 C 191.9062,387.05829 191.99724,386.16914 192.20698,385.54833 C 192.38613,385.01803 192.85523,384.58224 193.12548,384.17669 C 193.33398,383.86381 194.08434,383.34063 194.3939,383.001 C 194.77743,382.5802 194.97745,381.84722 195.22493,381.34944 C 195.55431,380.68689 194.74538,379.70682 194.43763,379.222 C 193.992,378.51995 193.81305,378.22516 193.62847,377.43047 C 193.44151,376.62551 193.66757,375.63649 193.73782,374.82716 C 193.79749,374.13973 194.00148,373.5859 194.19708,372.95165 C 194.31219,372.57837 194.80941,372.46645 195.11558,372.22385 C 195.21951,372.14149 196.17788,374.11792 196.25278,374.2953 C 196.5479,374.99413 196.82628,375.43023 197.3025,376.00285 C 197.73007,376.51697 198.51961,376.8162 199.11765,377.09456 C 199.65446,377.34442 200.014,377.47227 200.51728,377.79437 C 201.32217,378.3095 200.95,379.56717 200.84532,380.31371 C 200.7122,381.26305 200.03927,382.31959 199.55503,383.11297 C 199.16029,383.75971 199.07995,383.92249 198.98644,384.68056 C 198.90538,385.3376 199.22881,385.85315 199.46756,386.4161 C 199.76369,387.11434 200.26725,385.12543 200.7141,384.5126 C 201.07272,384.02078 201.92407,383.93665 202.44177,383.78479 C 203.05607,383.6046 203.15765,383.62952 203.73206,383.25293 C 204.05044,383.04419 203.80376,381.68971 203.79766,381.37743 C 203.77687,380.31296 203.58318,380.42956 204.80365,380.20174 C 205.78374,380.01879 206.73772,380.00408 207.73412,379.94981 C 208.68145,379.89821 209.52175,379.92381 210.46778,379.75386 C 211.35381,379.59468 212.02708,379.41795 212.939,379.41795 C 213.57717,379.41795 214.16152,379.62072 214.84162,379.5859 C 215.43354,379.55559 215.99179,378.6318 216.32872,378.24226 C 216.7397,377.76712 217.3336,377.34744 217.79396,376.9546 C 218.44957,376.39514 216.66716,376.14974 216.4162,376.11482 C 215.75943,376.02344 215.11353,375.80373 214.46984,375.63894 C 213.77589,375.46129 214.01652,375.14807 213.72629,374.63121 C 213.37756,374.01017 213.20235,374.00145 212.87339,373.67946 C 212.70339,373.51306 212.40685,373.77277 212.17358,373.81943 C 211.96908,373.86032 213.03324,372.55252 213.11395,372.47578 C 213.48064,372.12711 213.79546,371.77769 214.0762,371.49604 C 214.11397,371.45814 216.11681,371.52777 216.30685,371.49604 C 216.69699,371.43091 217.73943,370.39829 218.14387,370.15239 C 218.86659,369.71298 219.68375,369.83015 220.46201,369.28462 C 221.2133,368.758 221.1622,369.83233 221.2493,369.90046 C 221.53694,370.12546 220.66849,369.43174 220.48388,369.11667"
         style="fill:none;fill-opacity:0.75;fill-rule:evenodd;stroke:#5f5f5f;stroke-width:0.625;stroke-linecap:butt;stroke-linejoin:miter;marker:none;marker-start:none;marker-mid:none;marker-end:none;stroke-miterlimit:4;stroke-dasharray:none;stroke-dashoffset:0;stroke-opacity:1;visibility:visible;display:inline;overflow:visible;enable-background:accumulate" />
      <path
         id="path3313"
         d="M 201.69822,368.38886 C 201.89323,368.54141 204.86515,367.59439 205.43785,367.52109 C 206.00178,367.44891 206.5753,367.18332 207.16552,367.1012 C 208.07579,366.97456 207.63484,367.43905 207.97468,367.94098 C 208.09994,368.12597 207.74375,369.51011 207.71225,369.81648 C 207.64064,370.51314 208.27085,371.04395 208.6745,371.49604 C 209.11837,371.99318 209.49086,372.62496 209.89917,373.1476 C 210.29608,373.65565 210.76751,374.06532 211.14572,374.60322 C 211.4929,375.09699 211.87449,375.78827 212.04236,376.14281 C 212.35524,376.80362 210.96861,375.12207 210.59899,374.49125 C 210.13633,373.70165 209.74075,372.87407 209.28684,372.08388 C 208.82727,371.28386 208.09738,370.74152 207.40608,370.18039 C 206.99146,369.84383 206.66408,369.27405 206.24701,368.89272 C 205.38076,368.10072 205.35498,368.13034 204.27878,368.27689 C 203.93513,368.32369 203.78308,368.7621 203.53523,369.0047"
         style="fill:none;fill-opacity:0.75;fill-rule:evenodd;stroke:#5f5f5f;stroke-width:0.625;stroke-linecap:butt;stroke-linejoin:miter;marker:none;marker-start:none;marker-mid:none;marker-end:none;stroke-miterlimit:4;stroke-dasharray:none;stroke-dashoffset:0;stroke-opacity:1;visibility:visible;display:inline;overflow:visible;enable-background:accumulate" />
      <path
         id="path3315"
         d="M 238.48225,529.40231 C 238.44831,529.40693 240.0668,527.4691 240.47235,527.05094 C 240.93124,526.57776 241.34925,526.08313 241.82824,525.62331 C 242.38862,525.08535 242.95488,524.49735 243.51217,523.97175 C 244.25961,523.2668 245.20421,522.63935 246.00526,521.98427 C 246.95311,521.20915 247.84804,520.49872 248.6733,519.6049 C 249.3986,518.81935 250.21077,518.14283 250.86023,517.3375 C 251.2865,516.80892 251.57758,516.30954 251.90995,515.71393 C 252.19412,515.2047 252.45015,514.68325 252.71911,514.17434 C 253.04814,513.55177 253.49607,513.00268 253.92192,512.4388 C 254.426,511.77132 254.97195,511.28258 255.40902,510.56329 C 255.72414,510.0447 256.06161,509.59018 256.41501,509.10768 C 256.78941,508.59649 257.27247,508.15825 257.68342,507.68005 C 258.15476,507.13159 258.59482,506.61611 259.06118,506.05648 C 259.43094,505.61277 259.74791,505.13708 260.08904,504.68484 C 260.50442,504.13416 260.88562,503.82081 261.44493,503.42518 C 261.96168,503.05964 262.33225,502.75909 262.93203,502.47343 C 263.85548,502.03361 263.85098,502.18481 264.50662,501.49369 C 264.91422,501.06403 265.17351,500.28323 265.447,499.75814 C 265.77356,499.13114 266.13756,498.55476 266.43111,497.91063 C 266.69719,497.32679 266.9884,496.76186 267.30588,496.20308 C 267.71584,495.48155 268.31044,494.87778 268.90233,494.29959 C 269.37782,493.83511 269.83515,493.33671 270.30196,492.87197 C 270.69322,492.48245 271.10285,492.10686 271.54851,491.75226 C 271.63012,491.68732 271.67979,491.66824 271.7672,491.6123"
         style="fill:none;fill-opacity:0.75;fill-rule:evenodd;stroke:#5f5f5f;stroke-width:0.625;stroke-linecap:butt;stroke-linejoin:miter;marker:none;marker-start:none;marker-mid:none;marker-end:none;stroke-miterlimit:4;stroke-dasharray:none;stroke-dashoffset:0;stroke-opacity:1;visibility:visible;display:inline;overflow:visible;enable-background:accumulate" />
      <path
         id="path3317"
         d="M 271.1986,489.17694 C 271.75466,488.7345 269.83275,489.96937 269.66776,490.66055 C 269.46479,491.51078 270.42787,491.51592 270.73935,491.69628 C 271.2465,491.98994 271.54045,490.61996 271.61412,490.43661 C 271.77895,490.02634 271.33711,489.59683 271.1986,489.17694 z"
         style="fill:none;fill-opacity:0.75;fill-rule:evenodd;stroke:#5f5f5f;stroke-width:0.625;stroke-linecap:butt;stroke-linejoin:miter;marker:none;marker-start:none;marker-mid:none;marker-end:none;stroke-miterlimit:4;stroke-dasharray:none;stroke-dashoffset:0;stroke-opacity:1;visibility:visible;display:inline;overflow:visible;enable-background:accumulate" />
      <path
         id="path3321"
         d="M 138.58365,512.49478 C 137.85198,511.8184 139.65364,514.23895 140.4644,514.81817 C 140.97863,515.18554 141.34319,515.7062 141.73281,516.1898 C 142.15158,516.70958 142.57824,517.17678 142.93562,517.75739 C 143.19538,518.1794 143.70538,518.59207 144.00721,519.01705 C 144.34738,519.49601 144.55299,520.14309 144.7945,520.66862 C 145.08194,521.29409 145.52648,521.72333 145.97544,522.20821 C 146.38149,522.64675 146.74337,523.14995 147.11264,523.60784 C 147.42578,523.99613 148.04882,524.16139 148.46853,524.39163 C 149.08889,524.73195 149.15255,524.43581 149.69321,524.39163 C 150.61169,524.31659 148.09426,523.45453 147.39694,522.85204 C 146.95206,522.46766 147.0241,521.48185 146.98143,520.97654 C 146.89301,519.92973 146.67741,519.05333 146.41283,518.03732 C 146.23476,517.35354 145.78633,517.05696 145.27563,516.60969 C 144.65874,516.06943 143.87434,515.68907 143.21992,515.18207 C 142.61824,514.71593 142.02276,514.28841 141.42664,513.83842 C 140.68446,513.27817 137.1604,511.40874 139.72084,513.36255"
         style="fill:none;fill-opacity:0.75;fill-rule:evenodd;stroke:#5f5f5f;stroke-width:0.625;stroke-linecap:butt;stroke-linejoin:miter;marker:none;marker-start:none;marker-mid:none;marker-end:none;stroke-miterlimit:4;stroke-dasharray:none;stroke-dashoffset:0;stroke-opacity:1;visibility:visible;display:inline;overflow:visible;enable-background:accumulate" />
      <path
         id="path3323"
         d="M 155.61977,527.41484 C 155.50822,527.33063 154.1968,526.80068 153.65154,526.4351 C 153.18021,526.11908 152.6422,525.87338 152.14256,525.59532 C 151.57738,525.28078 150.94596,525.00613 150.45863,524.86751 C 150.14481,524.77825 151.24608,526.15371 151.31153,526.21116 C 151.88306,526.7128 152.74795,526.85099 153.43285,527.07892 C 155.52193,527.77417 155.37587,527.09665 154.48257,525.93123 C 154.29138,525.6818 154.13113,526.04961 154.06705,526.07119"
         style="fill:none;fill-opacity:0.75;fill-rule:evenodd;stroke:#5f5f5f;stroke-width:0.625;stroke-linecap:butt;stroke-linejoin:miter;marker:none;marker-start:none;marker-mid:none;marker-end:none;stroke-miterlimit:4;stroke-dasharray:none;stroke-dashoffset:0;stroke-opacity:1;visibility:visible;display:inline;overflow:visible;enable-background:accumulate" />
      <path
         id="path3325"
         d="M 158.65959,530.46603 C 158.00255,529.60885 160.66498,531.3015 161.5682,531.89365 C 162.2702,532.35389 162.75251,532.04044 162.88035,532.03362 C 163.5304,531.99895 161.78082,531.13044 161.13081,531.16585 C 160.40825,531.2052 161.24326,531.33192 161.41511,531.58574"
         style="fill:none;fill-opacity:0.75;fill-rule:evenodd;stroke:#5f5f5f;stroke-width:0.625;stroke-linecap:butt;stroke-linejoin:miter;marker:none;marker-start:none;marker-mid:none;marker-end:none;stroke-miterlimit:4;stroke-dasharray:none;stroke-dashoffset:0;stroke-opacity:1;visibility:visible;display:inline;overflow:visible;enable-background:accumulate" />
      <path
         id="path3327"
         d="M 166.77307,533.96511 C 166.68378,533.96997 166.52469,536.03224 166.48877,536.37247 C 166.44198,536.81564 167.44493,535.75683 167.47289,535.72864 C 168.44627,534.747 167.56979,534.11699 166.77307,533.96511 z"
         style="fill:none;fill-opacity:0.75;fill-rule:evenodd;stroke:#5f5f5f;stroke-width:0.625;stroke-linecap:butt;stroke-linejoin:miter;marker:none;marker-start:none;marker-mid:none;marker-end:none;stroke-miterlimit:4;stroke-dasharray:none;stroke-dashoffset:0;stroke-opacity:1;visibility:visible;display:inline;overflow:visible;enable-background:accumulate" />
      <path
         id="path3329"
         d="M 166.61999,487.97326 C 167.19653,487.39183 165.41481,486.81117 165.06727,486.06976 C 164.97215,485.86683 165.42452,484.64107 165.48279,484.39021 C 165.69071,483.495 164.61089,483.41247 164.1269,483.2705 C 163.49937,483.08643 162.78975,483.21083 162.15867,483.24251 C 161.45002,483.27808 161.46563,483.2752 160.7809,483.04656 C 160.27629,482.87807 159.80398,482.57437 159.35941,482.34674 C 158.6536,481.98537 160.32699,483.62731 160.95586,484.11028 C 161.66922,484.65815 162.27694,484.80961 162.79287,485.36995 C 163.10732,485.71145 163.03089,486.64042 163.53643,487.18947 C 164.32162,488.04223 165.62035,487.83997 166.61999,487.97326 z"
         style="fill:none;fill-opacity:0.75;fill-rule:evenodd;stroke:#5f5f5f;stroke-width:0.625;stroke-linecap:butt;stroke-linejoin:miter;marker:none;marker-start:none;marker-mid:none;marker-end:none;stroke-miterlimit:4;stroke-dasharray:none;stroke-dashoffset:0;stroke-opacity:1;visibility:visible;display:inline;overflow:visible;enable-background:accumulate" />
      <path
         id="path3331"
         d="M 162.11493,489.03698 C 162.73529,489.71073 160.25291,489.2052 159.42501,489.59683 C 158.83362,489.87658 158.30752,490.26584 157.74108,490.57657 C 157.17799,490.88547 156.91513,491.03206 156.4508,491.50033 C 155.90895,492.04677 156.4508,492.44881 156.4508,492.45208 C 156.4508,492.67785 158.57468,491.80939 158.70333,491.75226 C 159.5377,491.38173 160.35702,490.34163 161.0652,489.76479 C 161.39533,489.49589 161.76502,489.27958 162.11493,489.03698 z"
         style="fill:none;fill-opacity:0.75;fill-rule:evenodd;stroke:#5f5f5f;stroke-width:0.625;stroke-linecap:butt;stroke-linejoin:miter;marker:none;marker-start:none;marker-mid:none;marker-end:none;stroke-miterlimit:4;stroke-dasharray:none;stroke-dashoffset:0;stroke-opacity:1;visibility:visible;display:inline;overflow:visible;enable-background:accumulate" />
      <path
         id="path3333"
         d="M 164.89232,491.83624 C 165.6033,491.25711 164.06006,493.4708 163.66764,494.29959 C 163.0092,495.69022 163.96491,494.72237 164.06129,494.85944 C 164.41479,495.36219 165.1717,494.31204 165.76709,494.15962 C 167.04823,493.83165 166.43645,494.0319 166.72933,493.06792 C 166.94365,492.36252 165.56378,492.14063 164.89232,491.83624 z"
         style="fill:none;fill-opacity:0.75;fill-rule:evenodd;stroke:#5f5f5f;stroke-width:0.625;stroke-linecap:butt;stroke-linejoin:miter;marker:none;marker-start:none;marker-mid:none;marker-end:none;stroke-miterlimit:4;stroke-dasharray:none;stroke-dashoffset:0;stroke-opacity:1;visibility:visible;display:inline;overflow:visible;enable-background:accumulate" />
      <path
         id="path3335"
         d="M 249.08882,423.98217 C 249.39697,422.96792 250.03896,425.88068 250.59779,426.78143 C 250.97469,427.38894 251.25591,428.01461 251.56004,428.65693 C 251.88013,429.33295 252.37884,429.76261 252.89406,430.25251 C 253.37476,430.70959 253.99269,430.67668 254.57799,430.75638 C 255.06084,430.82213 255.51955,430.94958 255.97762,431.0643 C 256.53304,431.20339 257.0193,431.76269 257.42099,432.12802 C 258.38796,433.00744 257.75327,432.05713 258.3395,431.93207 C 258.56633,431.88368 258.86603,430.10614 258.92997,429.86062 C 259.06605,429.33804 258.85867,428.86761 258.82062,428.51697 C 258.79898,428.31751 256.60275,428.31497 256.30566,428.29303 C 255.74673,428.25176 255.37102,427.61137 255.01538,427.2573 C 254.35086,426.59574 253.76077,425.81936 253.17836,425.07388 C 252.71309,424.47833 252.21166,424.03421 251.64752,423.53429 C 251.43747,423.34815 250.50976,423.39893 250.20415,423.36633 C 249.78186,423.32129 249.46059,423.77689 249.08882,423.98217 z"
         style="fill:none;fill-opacity:0.75;fill-rule:evenodd;stroke:#5f5f5f;stroke-width:0.625;stroke-linecap:butt;stroke-linejoin:miter;marker:none;marker-start:none;marker-mid:none;marker-end:none;stroke-miterlimit:4;stroke-dasharray:none;stroke-dashoffset:0;stroke-opacity:1;visibility:visible;display:inline;overflow:visible;enable-background:accumulate" />
      <path
         id="path3337"
         d="M 171.21252,384.65256 C 169.33893,384.45271 170.00006,385.84319 169.94411,386.10818 C 169.85721,386.51975 171.133,384.97358 171.21252,384.65256 z"
         style="fill:none;fill-opacity:0.75;fill-rule:evenodd;stroke:#5f5f5f;stroke-width:0.625;stroke-linecap:butt;stroke-linejoin:miter;marker:none;marker-start:none;marker-mid:none;marker-end:none;stroke-miterlimit:4;stroke-dasharray:none;stroke-dashoffset:0;stroke-opacity:1;visibility:visible;display:inline;overflow:visible;enable-background:accumulate" />
      <path
         id="path3339"
         d="M 175.52076,398.08901 C 175.44359,398.45447 175.4916,398.83548 175.47702,399.20872 C 175.46244,399.58195 175.50618,398.46225 175.52076,398.08901 z"
         style="fill:none;fill-opacity:0.75;fill-rule:evenodd;stroke:#5f5f5f;stroke-width:0.625;stroke-linecap:butt;stroke-linejoin:miter;marker:none;marker-start:none;marker-mid:none;marker-end:none;stroke-miterlimit:4;stroke-dasharray:none;stroke-dashoffset:0;stroke-opacity:1;visibility:visible;display:inline;overflow:visible;enable-background:accumulate" />
      <path
         id="path3341"
         d="M 183.21872,398.117 C 183.19932,398.61364 182.37312,398.63953 181.95031,398.9008 C 181.76958,399.01247 183.2405,399.20495 183.39368,399.20872 C 183.76212,399.21778 183.58605,398.14702 183.21872,398.117 z"
         style="fill:none;fill-opacity:0.75;fill-rule:evenodd;stroke:#5f5f5f;stroke-width:0.625;stroke-linecap:butt;stroke-linejoin:miter;marker:none;marker-start:none;marker-mid:none;marker-end:none;stroke-miterlimit:4;stroke-dasharray:none;stroke-dashoffset:0;stroke-opacity:1;visibility:visible;display:inline;overflow:visible;enable-background:accumulate" />
      <path
         id="path3343"
         d="M 253.94379,479.57548 C 255.02852,479.60218 253.623,476.70027 253.2221,475.85246 C 253.06441,475.51898 252.97964,475.6899 252.76285,475.54455"
         style="fill:none;fill-opacity:0.75;fill-rule:evenodd;stroke:#5f5f5f;stroke-width:0.625;stroke-linecap:butt;stroke-linejoin:miter;marker:none;marker-start:none;marker-mid:none;marker-end:none;stroke-miterlimit:4;stroke-dasharray:none;stroke-dashoffset:0;stroke-opacity:1;visibility:visible;display:inline;overflow:visible;enable-background:accumulate" />
    </g>
    <path
       style="opacity:1;fill:none;fill-opacity:0.75000000000000000;fill-rule:evenodd;stroke:#000000;stroke-width:1.25;stroke-linecap:butt;stroke-linejoin:miter;marker:none;marker-start:none;marker-mid:none;marker-end:none;stroke-miterlimit:4;stroke-dasharray:none;stroke-dashoffset:0;stroke-opacity:1;visibility:visible;display:inline;overflow:visible;enable-background:accumulate"
       d="M 160.32997,529.42006 C 206.8886,511.44325 233.84845,479.02628 266.33682,442.40343 C 266.90634,441.76143 267.35467,441.29156 267.35467,441.29156"
       id="path3376"
       sodipodi:nodetypes="csc" />
    <path
       sodipodi:type="arc"
       style="opacity:1;fill:#000000;fill-opacity:1;fill-rule:evenodd;stroke:none;stroke-width:1pt;stroke-linecap:butt;stroke-linejoin:miter;marker:none;marker-start:none;marker-mid:none;marker-end:none;stroke-miterlimit:4;stroke-dasharray:none;stroke-dashoffset:0;stroke-opacity:1;visibility:visible;display:inline;overflow:visible;enable-background:accumulate"
       id="path3484"
       sodipodi:cx="60.811729"
       sodipodi:cy="422.19229"
       sodipodi:rx="1.6706519"
       sodipodi:ry="1.6706519"
       d="M 62.482381,422.19229 A 1.6706519,1.6706519 0 1 1 59.141078,422.19229 A 1.6706519,1.6706519 0 1 1 62.482381,422.19229 z"
       transform="translate(99.570852,107.19025)" />
    <path
       sodipodi:type="arc"
       style="opacity:1;fill:#000000;fill-opacity:1;fill-rule:evenodd;stroke:none;stroke-width:1pt;stroke-linecap:butt;stroke-linejoin:miter;marker:none;marker-start:none;marker-mid:none;marker-end:none;stroke-miterlimit:4;stroke-dasharray:none;stroke-dashoffset:0;stroke-opacity:1;visibility:visible;display:inline;overflow:visible;enable-background:accumulate"
       id="path3486"
       sodipodi:cx="60.811729"
       sodipodi:cy="422.19229"
       sodipodi:rx="1.6706519"
       sodipodi:ry="1.6706519"
       d="M 62.482381,422.19229 A 1.6706519,1.6706519 0 1 1 59.141078,422.19229 A 1.6706519,1.6706519 0 1 1 62.482381,422.19229 z"
       transform="translate(206.42911,18.77713)" />
    <path
       style="opacity:1;fill:none;fill-opacity:0.75000000000000000;fill-rule:evenodd;stroke:#000000;stroke-width:1.25000000000000000;stroke-linecap:butt;stroke-linejoin:miter;marker:none;marker-start:none;marker-mid:none;marker-end:none;stroke-miterlimit:4;stroke-dasharray:none;stroke-dashoffset:0;stroke-opacity:1;visibility:visible;display:inline;overflow:visible;enable-background:accumulate"
       d="M 159.89079,529.42078 C 216.02023,501.09715 241.9454,484.97642 265.89764,442.40415 C 266.31845,441.6562 266.91549,441.29228 266.91549,441.29228"
       id="path2414"
       sodipodi:nodetypes="csc" />
    <path
       style="fill:#606060;fill-opacity:1;fill-rule:evenodd;stroke:#000000;stroke-width:0.61763918;stroke-linecap:butt;stroke-linejoin:miter;stroke-miterlimit:4;stroke-dasharray:none;stroke-opacity:1"
       d="M 248.74644,455.78649 C 247.98138,455.912 246.67568,456.41059 246.52434,456.49768 C 246.32257,456.61381 245.55716,457.49471 244.2669,458.90877 C 242.97661,460.32281 241.2363,463.0508 239.92159,464.34459 L 239.58474,464.77765 C 237.56531,465.98033 236.22927,466.76451 234.8227,467.40491 C 232.58792,468.42239 229.2841,469.85822 229.2841,469.85822 L 229.2898,470.08977 L 229.02062,470.13502 L 231.92007,471.83982 L 232.6628,472.20767 L 230.22532,473.58061 L 229.81605,474.20852 L 232.76565,473.24771 L 232.57746,473.44543 C 232.57746,473.44543 233.12062,473.58923 233.42836,473.50168 C 233.7361,473.41412 238.47064,470.02936 239.19526,469.34372 C 239.91988,468.65811 248.59451,459.09816 248.89113,458.52454 C 249.18776,457.95093 249.54349,456.09095 249.24907,455.81272 C 249.17547,455.74316 249.00146,455.74466 248.74644,455.78649 z M 237.22389,467.69327 L 234.75011,470.72752 L 230.71195,469.82304 L 237.22389,467.69327 z"
       id="path3266" />
    <g
       id="g3695"
       transform="translate(1.6221192,-5.6774173)">
      <path
         style="fill:none;stroke:#000000;stroke-width:0.875;stroke-miterlimit:4;stroke-dasharray:none"
         d="M 239.60548,489.29664 C 238.64983,487.76215 238.4369,487.34701 238.25043,486.97722 C 238.06369,486.60771 238.05968,486.48527 238.0361,486.3829 C 238.01253,486.28055 238.0158,486.09613 238.09411,486.03375 C 238.17243,485.97136 238.28287,485.93049 238.43674,485.97161 C 238.59061,486.01273 238.82836,486.07629 239.05988,486.18273 C 239.29091,486.28921 239.49003,486.37441 239.90005,486.60524 C 240.3098,486.83634 240.1452,486.7157 241.39066,487.46396"
         id="path73" />
      <path
         style="fill:none;stroke:#000000;stroke-width:0.875;stroke-miterlimit:4;stroke-dasharray:none"
         d="M 241.39323,487.45993 C 242.9525,488.37518 243.37287,488.57692 243.74742,488.75362 C 244.12198,488.93031 244.24449,488.93111 244.34739,488.95249 C 244.45033,488.97337 244.63461,488.96526 244.69491,488.88534 C 244.75471,488.80547 244.79291,488.69421 244.74802,488.5412 C 244.70315,488.38819 244.6331,488.15246 244.52062,487.92382 C 244.40815,487.69516 244.31748,487.49863 244.0762,487.09502 C 243.83443,486.69149 243.95934,486.85287 243.17866,485.62747"
         id="path75" />
      <path
         style="fill:none;stroke:#000000;stroke-width:0.875;stroke-miterlimit:4;stroke-dasharray:none"
         d="M 243.18266,485.62428 C 242.22701,484.08981 242.01408,483.67466 241.82761,483.30487 C 241.64114,482.93508 241.63713,482.81264 241.61329,482.71056 C 241.58972,482.60819 241.59299,482.42377 241.6713,482.3614 C 241.74934,482.29929 241.85978,482.25842 242.01393,482.29926 C 242.16807,482.34011 242.40554,482.40394 242.63706,482.51038 C 242.86836,482.61659 243.06721,482.70206 243.47723,482.93289 C 243.88699,483.16399 243.72239,483.04335 244.96812,483.79132"
         id="path77" />
      <path
         style="fill:none;stroke:#000000;stroke-width:0.875;stroke-miterlimit:4;stroke-dasharray:none"
         d="M 244.97069,483.78729 C 246.52997,484.70256 246.95031,484.90428 247.3246,485.08127 C 247.69916,485.25796 247.82168,485.25875 247.92457,485.28013 C 248.02752,485.30102 248.21179,485.29291 248.2721,485.213 C 248.33218,485.13284 248.37009,485.02186 248.32521,484.86884 C 248.28033,484.71583 248.21056,484.47984 248.09781,484.25146 C 247.98506,484.02309 247.89466,483.82628 247.6534,483.42268 C 247.41211,483.01907 247.5368,483.18023 246.75611,481.95484"
         id="path79" />
      <path
         style="fill:none;stroke:#000000;stroke-width:0.875;stroke-miterlimit:4;stroke-dasharray:none"
         d="M 246.75983,481.95193 C 245.80419,480.41745 245.59127,480.00231 245.40452,479.6328 C 245.21778,479.26328 245.21404,479.14056 245.1902,479.03848 C 245.16663,478.93613 245.17016,478.75143 245.24821,478.68932 C 245.32653,478.62695 245.43697,478.58607 245.59084,478.62718 C 245.7447,478.66831 245.98273,478.73159 246.21397,478.83831 C 246.44501,478.94479 246.64412,479.02999 247.05414,479.26081 C 247.46417,479.49163 247.29957,479.371 248.54503,480.11925"
         id="path81" />
      <path
         style="fill:none;stroke:#000000;stroke-width:0.875;stroke-miterlimit:4;stroke-dasharray:none"
         d="M 248.54788,480.11494 C 250.10714,481.0302 250.5275,481.23193 250.90206,481.40864 C 251.27634,481.58561 251.39912,481.58612 251.50203,481.60751 C 251.60496,481.62839 251.78924,481.62028 251.84955,481.54035 C 251.90962,481.4602 251.94782,481.34895 251.90267,481.19622 C 251.85751,481.04348 251.78775,480.80748 251.67527,480.57883 C 251.56279,480.35018 251.47212,480.15364 251.23084,479.75004 C 250.98934,479.34622 251.11425,479.5076 250.33358,478.2822"
         id="path83" />
      <path
         style="fill:none;stroke:#000000;stroke-width:0.875;stroke-miterlimit:4;stroke-dasharray:none"
         d="M 250.33729,478.2793 C 249.38165,476.74482 249.16872,476.32968 248.98225,475.95989 C 248.79578,475.5901 248.79177,475.46765 248.76793,475.36558 C 248.74435,475.26321 248.74762,475.07879 248.82593,475.01641 C 248.90425,474.95402 249.01469,474.91315 249.16856,474.95428 C 249.32244,474.9954 249.56018,475.05895 249.79171,475.16539 C 250.02273,475.27189 250.22184,475.35708 250.63187,475.58791 C 251.04161,475.819 250.87701,475.69836 252.12249,476.44662"
         id="path85" />
      <path
         style="fill:none;stroke:#000000;stroke-width:0.875;stroke-miterlimit:4;stroke-dasharray:none"
         d="M 252.12506,476.44259 C 253.68432,477.35785 254.10469,477.55958 254.47924,477.73629 C 254.8538,477.91298 254.9763,477.91377 255.07921,477.93515 C 255.18215,477.95603 255.36643,477.94793 255.42674,477.868 C 255.48653,477.78814 255.52473,477.67687 255.47984,477.52386 C 255.43497,477.37085 255.36493,477.13513 255.25244,476.90648 C 255.1397,476.67811 255.0493,476.48129 254.80803,476.0777 C 254.56625,475.67415 254.69116,475.83553 253.91075,474.60986"
         id="path87" />
      <path
         style="fill:none;stroke:#000000;stroke-width:0.875;stroke-miterlimit:4;stroke-dasharray:none"
         d="M 253.91448,474.60695 C 252.95884,473.07247 252.7459,472.65733 252.55916,472.28782 C 252.37242,471.9183 252.36868,471.79558 252.34484,471.69349 C 252.32126,471.59114 252.32453,471.40672 252.40284,471.34434 C 252.48088,471.28224 252.59134,471.24136 252.74547,471.2822 C 252.89961,471.32304 253.13736,471.38661 253.36862,471.49332 C 253.59964,471.5998 253.79875,471.68501 254.20878,471.91583 C 254.61881,472.14665 254.45421,472.02601 255.69967,472.77427"
         id="path89" />
      <path
         style="fill:none;stroke:#000000;stroke-width:0.875;stroke-miterlimit:4;stroke-dasharray:none"
         d="M 255.70251,472.76997 C 257.26178,473.68522 257.68213,473.88695 258.05642,474.06393 C 258.43098,474.24063 258.5535,474.24142 258.65639,474.2628 C 258.75934,474.28368 258.94361,474.27557 259.00391,474.19565 C 259.06398,474.1155 259.10217,474.00424 259.05702,473.85151 C 259.01189,473.69878 258.94238,473.4625 258.82963,473.23413 C 258.71688,473.00575 258.62648,472.80894 258.38521,472.40533 C 258.1437,472.00153 258.26862,472.16289 257.48793,470.9375"
         id="path91" />
    </g>
  </g>
</svg>
