<?xml version="1.0" encoding="UTF-8" standalone="no"?>
<!-- Created with Inkscape (http://www.inkscape.org/) -->
<svg
   xmlns:dc="http://purl.org/dc/elements/1.1/"
   xmlns:cc="http://creativecommons.org/ns#"
   xmlns:rdf="http://www.w3.org/1999/02/22-rdf-syntax-ns#"
   xmlns:svg="http://www.w3.org/2000/svg"
   xmlns="http://www.w3.org/2000/svg"
   xmlns:sodipodi="http://sodipodi.sourceforge.net/DTD/sodipodi-0.dtd"
   xmlns:inkscape="http://www.inkscape.org/namespaces/inkscape"
   width="744.09448819"
   height="1052.3622047"
   id="svg2"
   sodipodi:version="0.32"
   inkscape:version="0.46"
   sodipodi:docname="ordered-geometry.svg"
   inkscape:output_extension="org.inkscape.output.svg.inkscape">
  <defs
     id="defs4">
    <inkscape:perspective
       sodipodi:type="inkscape:persp3d"
       inkscape:vp_x="0 : 526.18109 : 1"
       inkscape:vp_y="0 : 1000 : 0"
       inkscape:vp_z="744.09448 : 526.18109 : 1"
       inkscape:persp3d-origin="372.04724 : 350.78739 : 1"
       id="perspective10" />
  </defs>
  <sodipodi:namedview
     id="base"
     pagecolor="#ffffff"
     bordercolor="#666666"
     borderopacity="1.0"
     gridtolerance="10000"
     guidetolerance="10"
     objecttolerance="10"
     inkscape:pageopacity="0.0"
     inkscape:pageshadow="2"
     inkscape:zoom="2.3233282"
     inkscape:cx="95.82063"
     inkscape:cy="610.11613"
     inkscape:document-units="px"
     inkscape:current-layer="layer1"
     showgrid="false"
     inkscape:window-width="1278"
     inkscape:window-height="996"
     inkscape:window-x="3"
     inkscape:window-y="4" />
  <metadata
     id="metadata7">
    <rdf:RDF>
      <cc:Work
         rdf:about="">
        <dc:format>image/svg+xml</dc:format>
        <dc:type
           rdf:resource="http://purl.org/dc/dcmitype/StillImage" />
      </cc:Work>
    </rdf:RDF>
  </metadata>
  <g
     inkscape:label="Layer 1"
     inkscape:groupmode="layer"
     id="layer1">
    <path
       style="fill:#dedede;fill-opacity:1;fill-rule:evenodd;stroke:none;stroke-width:0.53544941pt;stroke-linecap:butt;stroke-linejoin:miter;stroke-opacity:1"
       d="M 3.6593781,337.86914 L 3.6593781,479.11914 L 53.348974,479.11914 C 54.598694,470.7324 53.684429,440.49559 54.571889,436.2062 C 56.996639,424.48657 73.076908,386.20715 88.721878,337.86914 L 3.6593781,337.86914 z"
       id="rect2583"
       sodipodi:nodetypes="cccscc" />
    <path
       style="fill:#dedede;fill-opacity:1;fill-rule:evenodd;stroke:none;stroke-width:0.53544941pt;stroke-linecap:butt;stroke-linejoin:miter;stroke-opacity:1"
       d="M 100.464,337.83789 C 89.05983,368.5875 71.79226,405.34222 70.589,412.96289 C 69.29774,421.14079 62.39274,438.79537 67.55775,468.49414 C 68.21621,472.28026 68.87875,475.82179 69.5265,479.11914 L 186.68275,479.11914 L 186.68275,337.83789 L 100.464,337.83789 z"
       id="rect2590" />
    <path
       style="opacity:1;fill:#000000;fill-opacity:1;fill-rule:nonzero;stroke:none;stroke-width:1pt;stroke-linecap:butt;stroke-linejoin:miter;marker:none;marker-start:none;marker-mid:none;marker-end:none;stroke-miterlimit:4;stroke-dasharray:none;stroke-dashoffset:0;stroke-opacity:1;visibility:visible;display:inline;overflow:visible;enable-background:accumulate"
       id="path2392"
       d="M 60.874759,349.67735 C 60.380925,349.77756 59.915979,349.96206 59.474582,350.20128 C 59.027745,350.45961 58.630478,350.78936 58.247157,351.13229 C 57.842549,351.49264 57.500665,351.91169 57.175318,352.34267 C 56.837132,352.79253 56.542262,353.27044 56.303491,353.77978 C 56.082098,354.31106 55.909401,354.86106 55.727872,355.40682 C 55.4937,356.08967 55.272117,356.77644 55.065704,357.46817 C 54.807057,358.33753 54.569225,359.21258 54.352646,360.09331 C 54.09319,361.16657 53.826402,362.23791 53.54983,363.30688 C 53.238626,364.49704 52.931438,365.68818 52.638792,366.88304 C 52.281796,368.41364 51.96606,369.95345 51.65146,371.4932 C 51.307959,373.19538 50.998984,374.90427 50.695081,376.61388 C 50.400355,378.30546 50.095661,379.99526 49.786045,381.68416 C 49.424495,383.63824 49.043553,385.58867 48.663804,387.53928 C 48.266512,389.58597 47.855103,391.62983 47.421978,393.66924 C 46.977451,395.76526 46.440228,397.83958 45.867759,399.90377 C 45.246562,402.14283 44.530948,404.3534 43.780851,406.55206 C 42.987895,408.83942 42.138492,411.10657 41.272145,413.36696 C 40.409962,415.62513 39.482709,417.85716 38.505739,420.06784 C 37.34959,422.58765 36.136433,425.08104 34.939633,427.58175 C 33.77134,430.03354 32.571202,432.46993 31.357608,434.89956 C 30.244492,437.13824 29.060154,439.34002 27.853917,441.52955 C 26.749057,443.5171 25.641464,445.50312 24.53548,447.49004 C 23.525765,449.3023 22.518424,451.1159 21.484886,452.91472 C 20.863102,453.96797 21.174801,453.452 20.550669,454.46317 L 19.752746,453.96807 C 20.369626,452.97917 20.061006,453.48515 20.67755,452.44947 C 21.713486,450.65716 22.720167,448.84828 23.729193,447.04073 C 24.836471,445.05601 25.945545,443.07229 27.051682,441.08693 C 28.254733,438.9097 29.436237,436.72036 30.545691,434.49359 C 31.758985,432.0695 32.958862,429.63865 34.128279,427.19303 C 35.32318,424.70167 36.527969,422.21461 37.667659,419.69729 C 38.639152,417.50101 39.561415,415.28354 40.417847,413.03963 C 41.279661,410.78974 42.125429,408.53341 42.913633,406.2565 C 43.656608,404.07429 44.364495,401.88002 44.977885,399.65733 C 45.54385,397.61082 46.074981,395.55438 46.515285,393.47669 C 46.947274,391.4425 47.35812,389.40398 47.753138,387.36227 C 48.131002,385.41502 48.509598,383.46783 48.86453,381.51623 C 49.170368,379.82783 49.472515,378.13877 49.769046,376.44871 C 50.076269,374.73201 50.388401,373.01606 50.731351,371.30607 C 51.045561,369.75387 51.357677,368.20093 51.712407,366.65736 C 52.003163,365.45751 52.308818,364.26143 52.620655,363.06689 C 52.895321,362.00163 53.159619,360.93388 53.415919,359.86404 C 53.634361,358.96746 53.872415,358.07603 54.13356,357.19088 C 54.341648,356.48924 54.564639,355.79243 54.799673,355.09934 C 54.992287,354.51554 55.175633,353.92702 55.417799,353.36132 C 55.688119,352.79287 56.014091,352.25569 56.394,351.75305 C 56.757653,351.27102 57.14089,350.80312 57.593894,350.40089 C 58.035458,350.00708 58.494667,349.63033 59.011104,349.33728 C 59.536914,349.05755 60.088289,348.84061 60.670885,348.70944 L 60.874759,349.67735 z" />
    <path
       style="opacity:1;fill:#000000;fill-opacity:1;fill-rule:nonzero;stroke:none;stroke-width:1pt;stroke-linecap:butt;stroke-linejoin:miter;marker:none;marker-start:none;marker-mid:none;marker-end:none;stroke-miterlimit:4;stroke-dasharray:none;stroke-dashoffset:0;stroke-opacity:1;visibility:visible;display:inline;overflow:visible;enable-background:accumulate"
       id="path2408"
       d="M 113.09407,407.4512 C 113.22179,408.38357 113.04727,409.29039 112.75535,410.17275 C 112.39974,411.14478 111.80332,411.98489 111.13703,412.7654 C 110.47144,413.52185 109.66186,414.11774 108.8113,414.64727 C 107.94063,415.16684 106.9924,415.53239 106.05736,415.91592 C 105.03651,416.33365 104.01733,416.75438 103.02932,417.24553 C 101.90012,417.82099 100.89244,418.58993 99.91838,419.39276 C 98.745174,420.36416 97.702513,421.47283 96.720639,422.63341 C 95.664993,423.89076 94.809771,425.29075 94.042118,426.7368 C 93.255015,428.22048 92.738071,429.81368 92.34576,431.44026 C 91.963141,433.129 91.825907,434.85459 91.801989,436.58166 C 91.788683,438.35749 92.080532,440.10785 92.484771,441.83045 C 92.909041,443.62218 93.634691,445.30546 94.523535,446.91027 C 95.42891,448.49041 96.672915,449.80103 98.058746,450.96336 C 99.73415,452.31338 101.74677,453.02969 103.7817,453.6328 C 106.46995,454.36393 109.23578,454.73065 112.00227,455.00462 C 115.15855,455.31042 118.32697,455.26609 121.48572,455.04836 C 124.89428,454.80808 128.21409,454.03247 131.4523,452.97436 C 134.89328,451.8065 137.85897,449.8931 140.75575,447.74756 C 144.00009,445.23872 146.90251,442.33352 149.70418,439.34927 C 152.56945,436.27134 155.15061,432.95126 157.54027,429.49562 C 159.02476,427.28586 160.34282,424.96536 161.44169,422.53981 C 162.16291,420.94784 162.33296,420.42519 162.95552,418.79006 C 164.37035,414.87672 165.36051,410.83122 166.24495,406.77088 C 167.08477,402.83154 167.65421,398.84341 168.09537,394.84205 C 168.52882,391.18315 168.51783,387.50665 168.21531,383.8411 C 167.93783,380.70052 167.22426,377.7065 166.13866,374.75489 C 165.24404,372.39459 163.86548,370.30249 162.24934,368.38271 C 160.71147,366.60081 158.76123,365.31105 156.73011,364.16577 C 154.64025,363.03796 152.43141,362.16263 150.19409,361.37851 C 148.14395,360.68066 146.04281,360.15446 143.91782,359.74533 C 142.03122,359.40605 140.11864,359.26319 138.20464,359.2193 C 136.26961,359.17983 134.35322,359.45574 132.45758,359.81335 C 130.63834,360.15833 128.87799,360.73185 127.15399,361.39726 C 125.54486,362.03084 124.03027,362.86575 122.57116,363.78765 C 121.25945,364.6271 120.0791,365.64043 118.96123,366.71916 C 117.97686,367.69027 117.0786,368.74158 116.21742,369.82184 C 115.43705,370.79234 114.77702,371.84784 114.16437,372.9295 C 113.5065,374.12589 112.88169,375.34023 112.25488,376.5531 C 111.59043,377.82338 110.9571,379.10934 110.34359,380.40487 C 109.77129,381.61641 109.22901,382.84158 108.7238,384.08254 C 108.33881,385.04565 107.97392,386.01652 107.64401,386.99987 C 107.37214,387.79708 107.14993,388.60786 106.98377,389.43328 C 106.84284,390.20747 106.73702,390.98746 106.63581,391.76765 C 106.55473,392.39191 106.47275,393.01646 106.43017,393.64471 C 106.40231,394.01727 106.42686,394.38719 106.50503,394.75173 C 106.55133,394.94423 106.62823,395.1279 106.73337,395.29551 C 106.7548,395.32807 106.77761,395.35983 106.80248,395.38984 C 106.46473,395.14534 105.75398,395.55748 106.00805,395.91958 L 106.62878,395.13974 C 107.10318,395.6342 106.87189,395.55148 106.10869,396.10665 C 106.10597,396.10863 106.0619,396.06077 106.05688,396.05542 C 105.99063,395.9787 105.93344,395.89474 105.87989,395.80877 C 105.72304,395.54233 105.60199,395.25614 105.53457,394.95347 C 105.44232,394.49905 105.40823,394.03887 105.44613,393.57545 C 105.49325,392.92791 105.57708,392.28401 105.66302,391.64062 C 105.76849,390.83804 105.87739,390.03545 106.02348,389.23907 C 106.19921,388.37396 106.43177,387.52368 106.71848,386.68838 C 107.05682,385.68617 107.43074,384.69676 107.82656,383.71584 C 108.34177,382.46004 108.89206,381.21926 109.47152,379.99173 C 110.09012,378.68646 110.72927,377.39116 111.39863,376.11105 C 112.03017,374.88647 112.65785,373.65942 113.32127,372.45172 C 113.95957,371.32594 114.64822,370.22813 115.46175,369.21871 C 116.35032,368.10667 117.27735,367.02473 118.29348,366.02603 C 119.46017,364.90388 120.69181,363.84986 122.05997,362.97725 C 123.57297,362.02437 125.14305,361.16137 126.8108,360.50681 C 128.58936,359.82229 130.40507,359.23169 132.28157,358.8777 C 134.24268,358.5098 136.22519,358.22743 138.22653,358.26756 C 140.19382,358.31294 142.15961,358.46005 144.09806,358.81328 C 146.26767,359.23462 148.41267,359.77534 150.50566,360.49053 C 152.79454,361.29455 155.05464,362.191 157.19238,363.34665 C 159.32082,364.5488 161.36093,365.90681 162.96912,367.77809 C 164.65111,369.7846 166.08535,371.96988 167.01127,374.4355 C 168.11956,377.47788 168.84225,380.53259 169.12475,383.76673 C 169.42648,387.49049 169.43568,391.22506 168.99274,394.94134 C 168.54502,398.97343 167.96876,402.99217 167.12031,406.96165 C 166.22549,411.06536 165.22495,415.15435 163.7951,419.10973 C 163.16134,420.77423 162.98766,421.30785 162.25296,422.92895 C 161.13415,425.39758 159.79206,427.75923 158.27971,430.00747 C 155.86173,433.49727 153.24894,436.84846 150.35516,439.96007 C 147.5184,442.98522 144.58055,445.93138 141.2951,448.4753 C 138.29704,450.69863 135.29871,452.62959 131.73583,453.84295 C 128.39194,454.93335 125.06831,455.70771 121.54908,455.96389 C 118.33911,456.18687 115.11925,456.2338 111.91146,455.92541 C 109.08622,455.64792 106.26165,455.2761 103.51549,454.53349 C 101.35418,453.89639 99.222181,453.12894 97.44617,451.69276 C 95.972048,450.45319 94.648634,449.05687 93.688693,447.37162 C 92.760703,445.68875 92.000013,443.92529 91.555661,442.04828 C 91.134339,440.24964 90.831015,438.42216 90.845968,436.56812 C 90.872005,434.77001 91.015996,432.97353 91.415842,431.21562 C 91.828153,429.51132 92.370371,427.84162 93.195509,426.28694 C 93.996337,424.7812 94.888773,423.32398 95.988488,422.01431 C 97.006899,420.80935 98.087172,419.65703 99.30429,418.64825 C 100.33466,417.79776 101.40169,416.98462 102.59694,416.37572 C 103.60568,415.87431 104.6449,415.44199 105.68704,415.01514 C 106.57167,414.65064 107.46978,414.30544 108.29621,413.81764 C 109.06312,413.34294 109.794,412.80905 110.39563,412.1303 C 110.98275,411.44754 111.51153,410.71352 111.82912,409.86265 C 112.07731,409.13177 112.23084,408.37834 112.11638,407.60396 L 113.09407,407.4512 z" />
    <path
       style="opacity:1;fill:#000000;fill-opacity:1;fill-rule:nonzero;stroke:none;stroke-width:1pt;stroke-linecap:butt;stroke-linejoin:miter;marker:none;marker-start:none;marker-mid:none;marker-end:none;stroke-miterlimit:4;stroke-dasharray:none;stroke-dashoffset:0;stroke-opacity:1;visibility:visible;display:inline;overflow:visible;enable-background:accumulate"
       id="path2412"
       d="M 107.71235,397.01788 C 107.76491,397.12861 107.84029,397.23174 107.90974,397.33319 C 108.01097,397.47657 108.09472,397.63108 108.19122,397.77758 C 108.26763,397.87537 108.30586,397.99483 108.36667,398.10113 C 108.40171,398.15125 108.42803,398.2071 108.4626,398.25756 C 108.51434,398.3276 108.56186,398.40043 108.60508,398.47603 C 108.65312,398.565 108.69923,398.65488 108.73837,398.74812 C 108.7629,398.82071 108.75292,398.79309 108.767,398.83144 L 107.83599,399.15614 C 107.81929,399.10738 107.80793,399.0966 107.82229,399.1112 C 107.81933,399.06843 107.76551,399.01138 107.75444,398.96793 C 107.72521,398.91816 107.68047,398.85489 107.63748,398.79437 C 107.58554,398.71342 107.53916,398.62923 107.49157,398.54564 C 107.45087,398.46237 107.41978,398.37487 107.37269,398.29481 C 107.28754,398.15537 107.20752,398.01267 107.11614,397.8772 C 107.00978,397.72221 106.89879,397.56948 106.80405,397.40715 L 107.71235,397.01788 z" />
    <path
       style="opacity:1;fill:#000000;fill-opacity:1;fill-rule:nonzero;stroke:none;stroke-width:1pt;stroke-linecap:butt;stroke-linejoin:miter;marker:none;marker-start:none;marker-mid:none;marker-end:none;stroke-miterlimit:4;stroke-dasharray:none;stroke-dashoffset:0;stroke-opacity:1;visibility:visible;display:inline;overflow:visible;enable-background:accumulate"
       id="path2414"
       d="M 109.5433,399.8595 C 109.56034,399.96944 109.62572,400.06394 109.68323,400.15657 C 109.77934,400.28775 109.86724,400.42474 109.96257,400.55654 C 110.04392,400.66517 110.12694,400.77254 110.20667,400.88237 C 110.27985,400.97304 110.35357,401.06276 110.41883,401.15966 C 110.46588,401.21158 110.50421,401.27088 110.54161,401.32995 C 110.59919,401.41763 110.63782,401.51366 110.67347,401.61166 C 110.70104,401.70481 110.69641,401.67802 110.72538,401.75966 L 109.7896,402.07847 C 109.78019,402.03215 109.75451,401.98897 109.74422,401.94243 C 109.73888,401.92732 109.73355,401.9122 109.72821,401.89709 C 109.73058,401.90129 109.73676,401.91395 109.73622,401.90915 C 109.73426,401.8914 109.71207,401.87943 109.71105,401.86128 C 109.67343,401.80306 109.63155,401.74694 109.5918,401.68905 C 109.54824,401.60177 109.46934,401.53658 109.41981,401.45305 C 109.33639,401.33789 109.25036,401.22481 109.16625,401.11015 C 109.06798,400.96388 108.97486,400.81429 108.87312,400.67044 C 108.76307,400.49963 108.65896,400.3243 108.59263,400.13112 L 109.5433,399.8595 z" />
    <path
       style="opacity:1;fill:#000000;fill-opacity:1;fill-rule:nonzero;stroke:none;stroke-width:1pt;stroke-linecap:butt;stroke-linejoin:miter;marker:none;marker-start:none;marker-mid:none;marker-end:none;stroke-miterlimit:4;stroke-dasharray:none;stroke-dashoffset:0;stroke-opacity:1;visibility:visible;display:inline;overflow:visible;enable-background:accumulate"
       id="path2416"
       d="M 111.00722,402.524 C 111.03313,402.6284 111.1017,402.71873 111.15745,402.80923 C 111.23891,402.93284 111.33183,403.04825 111.4188,403.16801 C 111.47991,403.24709 111.54071,403.32642 111.59824,403.40815 C 111.63152,403.4477 111.66463,403.50161 111.71157,403.55168 C 111.77546,403.62723 111.83216,403.70841 111.88728,403.79046 C 111.90438,403.79883 111.89628,403.79424 111.91859,403.83094 C 111.96812,403.91242 112.00406,403.9949 112.03577,404.08435 C 112.03578,404.08262 112.03498,404.07764 112.03578,404.07917 C 112.05886,404.1239 112.07003,404.17377 112.08553,404.2212 C 112.08793,404.22853 112.07236,404.19925 112.08005,404.19874 C 112.088,404.19821 112.08591,404.21357 112.08884,404.22098 C 112.11978,404.31124 112.09159,404.22562 112.12131,404.32778 C 112.12423,404.33782 112.11702,404.30726 112.11357,404.29739 C 112.10869,404.2834 112.10212,404.27005 112.09639,404.25638 L 111.22924,404.73261 C 111.17836,404.62819 111.19487,404.672 111.16232,404.57041 C 111.16142,404.56761 111.16291,404.57941 111.16612,404.57839 C 111.1384,404.50553 111.13341,404.47208 111.10091,404.39643 C 111.09869,404.38466 111.07843,404.35528 111.08751,404.36309 C 111.09729,404.3715 111.10165,404.38468 111.10908,404.39522 C 111.11213,404.39955 111.10347,404.38624 111.10067,404.38175 C 111.08796,404.36383 111.07526,404.3459 111.06255,404.32798 C 111.03384,404.27749 110.99548,404.2325 110.96104,404.186 C 110.89977,404.11245 110.83817,404.03852 110.78403,403.95945 C 110.73567,403.87797 110.67201,403.80573 110.62124,403.72578 C 110.52875,403.58832 110.42917,403.45602 110.33989,403.31639 C 110.24261,403.16062 110.13661,403.00845 110.06784,402.83712 L 111.00722,402.524 z" />
    <path
       style="opacity:1;fill:#000000;fill-opacity:1;fill-rule:nonzero;stroke:none;stroke-width:1pt;stroke-linecap:butt;stroke-linejoin:miter;marker:none;marker-start:none;marker-mid:none;marker-end:none;stroke-miterlimit:4;stroke-dasharray:none;stroke-dashoffset:0;stroke-opacity:1;visibility:visible;display:inline;overflow:visible;enable-background:accumulate"
       id="path2418"
       d="M 112.43076,405.25326 C 112.43658,405.36344 112.47824,405.46942 112.51172,405.57371 C 112.55043,405.67873 112.59338,405.78207 112.63327,405.88666 C 112.66602,405.979 112.68932,406.07445 112.71197,406.16969 C 112.71536,406.18688 112.71799,406.20424 112.72214,406.22125 C 112.72388,406.22835 112.71659,406.20633 112.71926,406.19953 C 112.72123,406.19448 112.72531,406.22026 112.72464,406.21488 C 112.72381,406.20825 112.71512,406.19012 112.71878,406.19571 C 112.73451,406.21976 112.74017,406.24906 112.75031,406.27595 C 112.77068,406.32515 112.7915,406.37399 112.81045,406.42382 L 111.88354,406.76152 C 111.8743,406.70999 111.83392,406.66526 111.822,406.61404 C 111.79289,406.54086 111.76084,406.46725 111.75046,406.38816 C 111.73922,406.33266 111.72489,406.27789 111.71341,406.22257 C 111.67273,406.10341 111.62634,405.98619 111.58792,405.86622 C 111.53721,405.70418 111.48541,405.5422 111.45088,405.37574 L 112.43076,405.25326 z" />
    <path
       sodipodi:type="arc"
       style="fill:#000000;fill-opacity:1;fill-rule:evenodd;stroke:none;stroke-width:0.875;stroke-linecap:butt;stroke-linejoin:miter;stroke-miterlimit:4;stroke-dasharray:none;stroke-opacity:1"
       id="path2405"
       sodipodi:cx="-8.2549896"
       sodipodi:cy="394.51816"
       sodipodi:rx="1.3758316"
       sodipodi:ry="1.3758316"
       d="M -6.879158,394.51816 A 1.3758316,1.3758316 0 1 1 -9.6308212,394.51816 A 1.3758316,1.3758316 0 1 1 -6.879158,394.51816 z"
       transform="matrix(0.9971444,7.551885e-2,-7.551885e-2,0.9971444,66.825933,45.850916)" />
    <path
       sodipodi:type="arc"
       style="fill:#000000;fill-opacity:1;fill-rule:evenodd;stroke:none;stroke-width:0.875;stroke-linecap:butt;stroke-linejoin:miter;stroke-miterlimit:4;stroke-dasharray:none;stroke-opacity:1"
       id="path2527"
       sodipodi:cx="-8.2549896"
       sodipodi:cy="394.51816"
       sodipodi:rx="1.3758316"
       sodipodi:ry="1.3758316"
       d="M -6.879158,394.51816 A 1.3758316,1.3758316 0 1 1 -9.6308212,394.51816 A 1.3758316,1.3758316 0 1 1 -6.879158,394.51816 z"
       transform="matrix(0.9971444,7.551885e-2,-7.551885e-2,0.9971444,81.813147,12.040456)" />
    <path
       sodipodi:type="arc"
       style="fill:#000000;fill-opacity:1;fill-rule:evenodd;stroke:none;stroke-width:0.875;stroke-linecap:butt;stroke-linejoin:miter;stroke-miterlimit:4;stroke-dasharray:none;stroke-opacity:1"
       id="path2529"
       sodipodi:cx="-8.2549896"
       sodipodi:cy="394.51816"
       sodipodi:rx="1.3758316"
       sodipodi:ry="1.3758316"
       d="M -6.879158,394.51816 A 1.3758316,1.3758316 0 1 1 -9.6308212,394.51816 A 1.3758316,1.3758316 0 1 1 -6.879158,394.51816 z"
       transform="matrix(0.9971444,7.551885e-2,-7.551885e-2,0.9971444,87.913752,-14.18242)" />
    <path
       sodipodi:type="arc"
       style="fill:#000000;fill-opacity:1;fill-rule:evenodd;stroke:none;stroke-width:0.875;stroke-linecap:butt;stroke-linejoin:miter;stroke-miterlimit:4;stroke-dasharray:none;stroke-opacity:1"
       id="path2531"
       sodipodi:cx="-8.2549896"
       sodipodi:cy="394.51816"
       sodipodi:rx="1.3758316"
       sodipodi:ry="1.3758316"
       d="M -6.879158,394.51816 A 1.3758316,1.3758316 0 1 1 -9.6308212,394.51816 A 1.3758316,1.3758316 0 1 1 -6.879158,394.51816 z"
       transform="matrix(0.9971444,7.551885e-2,-7.551885e-2,0.9971444,136.07936,27.49347)" />
    <path
       sodipodi:type="arc"
       style="fill:#000000;fill-opacity:1;fill-rule:evenodd;stroke:none;stroke-width:0.875;stroke-linecap:butt;stroke-linejoin:miter;stroke-miterlimit:4;stroke-dasharray:none;stroke-opacity:1"
       id="path2533"
       sodipodi:cx="-8.2549896"
       sodipodi:cy="394.51816"
       sodipodi:rx="1.3758316"
       sodipodi:ry="1.3758316"
       d="M -6.879158,394.51816 A 1.3758316,1.3758316 0 1 1 -9.6308212,394.51816 A 1.3758316,1.3758316 0 1 1 -6.879158,394.51816 z"
       transform="matrix(0.9971444,7.551885e-2,-7.551885e-2,0.9971444,183.37445,51.52566)" />
    <path
       sodipodi:type="arc"
       style="fill:#000000;fill-opacity:1;fill-rule:evenodd;stroke:none;stroke-width:0.875;stroke-linecap:butt;stroke-linejoin:miter;stroke-miterlimit:4;stroke-dasharray:none;stroke-opacity:1"
       id="path2535"
       sodipodi:cx="-8.2549896"
       sodipodi:cy="394.51816"
       sodipodi:rx="1.3758316"
       sodipodi:ry="1.3758316"
       d="M -6.879158,394.51816 A 1.3758316,1.3758316 0 1 1 -9.6308212,394.51816 A 1.3758316,1.3758316 0 1 1 -6.879158,394.51816 z"
       transform="matrix(0.9971444,7.551885e-2,-7.551885e-2,0.9971444,204.36723,-19.032332)" />
    <text
       xml:space="preserve"
       style="font-size:10px;font-style:normal;font-variant:normal;font-weight:normal;font-stretch:normal;text-align:start;line-height:100%;writing-mode:lr-tb;text-anchor:start;fill:#000000;fill-opacity:1;stroke:none;stroke-width:1pt;stroke-linecap:butt;stroke-linejoin:miter;stroke-opacity:1;font-family:Bitstream Vera Sans;-inkscape-font-specification:Bitstream Vera Sans"
       x="54.662964"
       y="382.6333"
       id="text2557"
       sodipodi:linespacing="100%"><tspan
         sodipodi:role="line"
         id="tspan2559"
         x="54.662964"
         y="382.6333">A</tspan></text>
    <text
       xml:space="preserve"
       style="font-size:10px;font-style:normal;font-variant:normal;font-weight:normal;font-stretch:normal;text-align:start;line-height:100%;writing-mode:lr-tb;text-anchor:start;fill:#000000;fill-opacity:1;stroke:none;stroke-width:1pt;stroke-linecap:butt;stroke-linejoin:miter;stroke-opacity:1;font-family:Bitstream Vera Sans;-inkscape-font-specification:Bitstream Vera Sans"
       x="47.776291"
       y="409.31915"
       id="text2561"
       sodipodi:linespacing="100%"><tspan
         sodipodi:role="line"
         id="tspan2563"
         x="47.776291"
         y="409.31915">B</tspan></text>
    <text
       xml:space="preserve"
       style="font-size:10px;font-style:normal;font-variant:normal;font-weight:normal;font-stretch:normal;text-align:start;line-height:100%;writing-mode:lr-tb;text-anchor:start;fill:#000000;fill-opacity:1;stroke:none;stroke-width:1pt;stroke-linecap:butt;stroke-linejoin:miter;stroke-opacity:1;font-family:Bitstream Vera Sans;-inkscape-font-specification:Bitstream Vera Sans"
       x="33.142109"
       y="443.7525"
       id="text2565"
       sodipodi:linespacing="100%"><tspan
         sodipodi:role="line"
         id="tspan2567"
         x="33.142109"
         y="443.7525">C</tspan></text>
    <text
       xml:space="preserve"
       style="font-size:10px;font-style:normal;font-variant:normal;font-weight:normal;font-stretch:normal;text-align:start;line-height:100%;writing-mode:lr-tb;text-anchor:start;fill:#000000;fill-opacity:1;stroke:none;stroke-width:1pt;stroke-linecap:butt;stroke-linejoin:miter;stroke-opacity:1;font-family:Bitstream Vera Sans;-inkscape-font-specification:Bitstream Vera Sans"
       x="87.374657"
       y="419.21875"
       id="text2569"
       sodipodi:linespacing="100%"><tspan
         sodipodi:role="line"
         id="tspan2571"
         x="87.374657"
         y="419.21875">A</tspan></text>
    <text
       xml:space="preserve"
       style="font-size:10px;font-style:normal;font-variant:normal;font-weight:normal;font-stretch:normal;text-align:start;line-height:100%;writing-mode:lr-tb;text-anchor:start;fill:#000000;fill-opacity:1;stroke:none;stroke-width:1pt;stroke-linecap:butt;stroke-linejoin:miter;stroke-opacity:1;font-family:Bitstream Vera Sans;-inkscape-font-specification:Bitstream Vera Sans"
       x="148.06346"
       y="453.6521"
       id="text2573"
       sodipodi:linespacing="100%"><tspan
         sodipodi:role="line"
         id="tspan2575"
         x="148.06346"
         y="453.6521">B</tspan></text>
    <text
       xml:space="preserve"
       style="font-size:10px;font-style:normal;font-variant:normal;font-weight:normal;font-stretch:normal;text-align:start;line-height:100%;writing-mode:lr-tb;text-anchor:start;fill:#000000;fill-opacity:1;stroke:none;stroke-width:1pt;stroke-linecap:butt;stroke-linejoin:miter;stroke-opacity:1;font-family:Bitstream Vera Sans;-inkscape-font-specification:Bitstream Vera Sans"
       x="170.87556"
       y="374.45538"
       id="text2577"
       sodipodi:linespacing="100%"><tspan
         sodipodi:role="line"
         id="tspan2579"
         x="170.87556"
         y="374.45538">C</tspan></text>
  </g>
</svg>
