<?xml version="1.0" encoding="UTF-8" standalone="no"?>
<!-- Created with Inkscape (http://www.inkscape.org/) -->
<svg
   xmlns:a="http://ns.adobe.com/AdobeSVGViewerExtensions/3.0/"
   xmlns:dc="http://purl.org/dc/elements/1.1/"
   xmlns:cc="http://creativecommons.org/ns#"
   xmlns:rdf="http://www.w3.org/1999/02/22-rdf-syntax-ns#"
   xmlns:svg="http://www.w3.org/2000/svg"
   xmlns="http://www.w3.org/2000/svg"
   xmlns:sodipodi="http://sodipodi.sourceforge.net/DTD/sodipodi-0.dtd"
   xmlns:inkscape="http://www.inkscape.org/namespaces/inkscape"
   width="744.09448819"
   height="1052.3622047"
   id="svg2"
   sodipodi:version="0.32"
   inkscape:version="0.46"
   sodipodi:docname="sticky-bead.svg"
   inkscape:output_extension="org.inkscape.output.svg.inkscape">
  <defs
     id="defs4"><marker
   inkscape:stockid="Arrow2Mstart"
   orient="auto"
   refY="0.0"
   refX="0.0"
   id="Arrow2Mstart"
   style="overflow:visible">
  <path
     id="path3736"
     style="font-size:12.0;fill-rule:evenodd;stroke-width:0.62500000;stroke-linejoin:round"
     d="M 8.7185878,4.0337352 L -2.2072895,0.016013256 L 8.7185884,-4.0017078 C 6.9730900,-1.6296469 6.9831476,1.6157441 8.7185878,4.0337352 z "
     transform="scale(0.6) translate(0,0)" />
</marker>
<marker
   inkscape:stockid="Arrow2Mend"
   orient="auto"
   refY="0.0"
   refX="0.0"
   id="Arrow2Mend"
   style="overflow:visible;">
  <path
     id="path3739"
     style="font-size:12.0;fill-rule:evenodd;stroke-width:0.62500000;stroke-linejoin:round;"
     d="M 8.7185878,4.0337352 L -2.2072895,0.016013256 L 8.7185884,-4.0017078 C 6.9730900,-1.6296469 6.9831476,1.6157441 8.7185878,4.0337352 z "
     transform="scale(0.6) rotate(180) translate(0,0)" />
</marker>
<marker
   inkscape:stockid="Arrow2Sstart"
   orient="auto"
   refY="0.0"
   refX="0.0"
   id="Arrow2Sstart"
   style="overflow:visible">
  <path
     id="path3742"
     style="font-size:12.0;fill-rule:evenodd;stroke-width:0.62500000;stroke-linejoin:round"
     d="M 8.7185878,4.0337352 L -2.2072895,0.016013256 L 8.7185884,-4.0017078 C 6.9730900,-1.6296469 6.9831476,1.6157441 8.7185878,4.0337352 z "
     transform="scale(0.3) translate(-2.3,0)" />
</marker>
<linearGradient
   id="XMLID_24_"
   gradientUnits="userSpaceOnUse"
   x1="8.6367"
   y1="157.3943"
   x2="8.6367"
   y2="139.8943"
   gradientTransform="translate(59.095,-35.7485)">
							<stop
   offset="0"
   style="stop-color:#FFFFFF"
   id="stop2498" />

							<stop
   offset="1"
   style="stop-color:#A3A3A3"
   id="stop2500" />

							<a:midPointStop
   offset="0"
   style="stop-color:#FFFFFF" />

							<a:midPointStop
   offset="0.5"
   style="stop-color:#FFFFFF" />

							<a:midPointStop
   offset="1"
   style="stop-color:#A3A3A3" />

						</linearGradient>
<inkscape:perspective
   sodipodi:type="inkscape:persp3d"
   inkscape:vp_x="0 : 526.18109 : 1"
   inkscape:vp_y="0 : 1000 : 0"
   inkscape:vp_z="744.09448 : 526.18109 : 1"
   inkscape:persp3d-origin="372.04724 : 350.78739 : 1"
   id="perspective10" />

			
			 
			
		
				
			
				
				
				
			
					
				
					
				
					
					
					 
					
					
				</defs>
  <sodipodi:namedview
     id="base"
     pagecolor="#ffffff"
     bordercolor="#666666"
     borderopacity="1.0"
     gridtolerance="10000"
     guidetolerance="10"
     objecttolerance="10"
     inkscape:pageopacity="0.0"
     inkscape:pageshadow="2"
     inkscape:zoom="0.94403617"
     inkscape:cx="125.15471"
     inkscape:cy="652.72201"
     inkscape:document-units="px"
     inkscape:current-layer="layer1"
     showgrid="false"
     inkscape:window-width="1278"
     inkscape:window-height="996"
     inkscape:window-x="3"
     inkscape:window-y="6" />
  <metadata
     id="metadata7">
    <rdf:RDF>
      <cc:Work
         rdf:about="">
        <dc:format>image/svg+xml</dc:format>
        <dc:type
           rdf:resource="http://purl.org/dc/dcmitype/StillImage" />
      </cc:Work>
    </rdf:RDF>
  </metadata>
  <g
     inkscape:label="Layer 1"
     inkscape:groupmode="layer"
     id="layer1">
    <rect
       style="fill:#dedede;fill-opacity:1;fill-rule:evenodd;stroke:none;stroke-width:0.53544941pt;stroke-linecap:butt;stroke-linejoin:miter;stroke-opacity:1"
       id="rect2383"
       width="184.25197"
       height="100.33814"
       x="4.9446044"
       y="351.63824" />
    <g
       id="g2508"
       transform="matrix(-1,0,0,1,173.55503,383.20975)">
						<path
   id="path2510"
   d="M 138.951,8.941 C 136.666,9.331 128.886,9.851 127.713,9.851 C 126.54,9.851 122.341,10.241 121.847,10.371 C 121.353,10.501 118.08,10.631 117.401,10.761 C 116.722,10.891 113.819,11.086 113.573,11.216 C 113.326,11.346 111.782,12.126 111.597,12.646 C 111.411,13.166 109.93,15.441 109.868,15.896 C 109.806,16.351 109.497,18.041 109.621,18.691 C 109.745,19.341 110.115,20.706 110.3,21.096 C 110.485,21.486 110.856,22.266 111.103,22.331 C 111.35,22.396 111.844,22.591 112.276,22.201 C 112.708,21.811 113.017,21.616 113.079,20.771 C 113.141,19.926 113.079,19.276 113.079,19.016 C 113.079,18.561 114.19,17.391 114.19,17.391 L 114.375,17.391 C 114.375,17.391 114.19,17.196 114.622,17.131 C 115.055,17.066 117.216,16.871 117.463,16.871 C 117.71,16.871 118.204,16.741 118.204,16.741"
   style="fill:none;stroke:#000000;stroke-width:0.5" />

						<path
   id="path2512"
   d="M 118.574,14.076 C 118.512,15.376 118.203,16.871 118.08,17.781 C 117.957,18.691 117.586,19.991 117.339,21.226 C 117.092,22.461 116.66,22.981 117.524,23.891 C 118.388,24.801 118.45,25.581 118.821,26.231 C 119.08,26.685 119.731,27.267 120.29,27.398 C 120.29,27.398 126.354,27.141 126.725,26.946"
   style="fill:none;stroke:#000000;stroke-width:0.5" />

						<path
   id="path2514"
   d="M 122.525,17.066 C 122.216,18.691 121.908,20.576 121.722,21.746 C 121.537,22.916 120.981,24.736 121.166,25.451 C 121.352,26.166 122.524,27.011 123.389,27.011 C 124.253,27.011 125.18,26.426 125.489,25.451 C 125.798,24.476 125.983,22.331 125.983,22.331"
   style="fill:none;stroke:#000000;stroke-width:0.5" />

						<path
   id="path2516"
   d="M 125.366,25.646 C 126.354,26.556 127.589,27.726 128.7,27.401 C 129.812,27.076 130.059,26.166 130.553,25.321 C 130.611,25.222 130.678,25.122 130.753,25.022"
   style="fill:none;stroke:#000000;stroke-width:0.5" />

						<path
   id="path2518"
   d="M 130.491,22.591 C 130.861,23.501 131.232,24.216 131.232,24.216"
   style="fill:none;stroke:#000000;stroke-width:0.5" />

						<path
   id="path2520"
   d="M 126.292,17.456 C 125.551,18.106 125.057,19.666 125.551,20.576"
   style="fill:none;stroke:#000000;stroke-width:0.5" />

						<path
   id="path2522"
   d="M 124.131,13.946 C 122.711,14.401 122.464,16.481 122.464,16.481"
   style="fill:none;stroke:#000000;stroke-width:0.5" />

						<path
   id="path2524"
   d="M 125.86,13.491 C 128.021,13.556 128.515,13.491 128.515,13.491"
   style="fill:none;stroke:#000000;stroke-width:0.5" />

						<line
   id="line2526"
   y2="17.131001"
   x2="114.622"
   y1="15.831"
   x1="114.128"
   style="fill:none;stroke:#000000;stroke-width:0.5" />

						<line
   id="line2528"
   y2="18.951"
   x2="113.263"
   y1="18.756001"
   x1="111.658"
   style="fill:none;stroke:#000000;stroke-width:0.5" />

						<path
   id="path2530"
   d="M 131.911,24.216 C 133.64,24.086 140.865,21.616 141.05,21.096"
   style="fill:none;stroke:#000000;stroke-width:0.5" />

						<path
   id="path2532"
   d="M 135.678,19.081 C 135.678,19.081 132.467,23.501 131.603,24.151"
   style="fill:none;stroke:#000000;stroke-width:0.5" />

						<path
   id="path2534"
   d="M 118.018,24.281 C 118.635,24.541 121.105,23.956 121.29,23.761"
   style="fill:none;stroke:#000000;stroke-width:0.5" />

					</g>
    <rect
       style="fill:none;fill-opacity:1;stroke:#000000;stroke-width:0.875;stroke-miterlimit:4;stroke-dasharray:none;stroke-dashoffset:0;stroke-opacity:1"
       id="rect2913"
       width="119.37482"
       height="4.2869415"
       x="27.963633"
       y="403.40442"
       transform="matrix(0.9978499,-6.5541124e-2,6.5541124e-2,0.9978499,0,0)" />
    <path
       sodipodi:type="arc"
       style="fill:#dedede;fill-opacity:1;stroke:#000000;stroke-width:0.87500000000000000;stroke-miterlimit:4;stroke-dasharray:none;stroke-dashoffset:0;stroke-opacity:1"
       id="path2915"
       sodipodi:cx="-28.771139"
       sodipodi:cy="375.21198"
       sodipodi:rx="0.9076857"
       sodipodi:ry="2.0985026"
       d="M -27.863453,375.21198 A 0.9076857,2.0985026 0 1 1 -29.678825,375.21198 A 0.9076857,2.0985026 0 1 1 -27.863453,375.21198 z"
       transform="matrix(0.9978499,-6.5541126e-2,6.5541126e-2,0.9978499,178.21664,18.703925)" />
    <path
       style="fill:#dedede;fill-rule:evenodd;stroke:none;stroke-width:1px;stroke-linecap:butt;stroke-linejoin:miter;stroke-opacity:1;fill-opacity:1"
       d="M 55.090132,400.08713 L 55.310585,401.54909 L 55.542641,402.70937 L 55.937137,404.31056 L 56.227207,405.47084 L 55.148146,405.80732 L 53.291696,405.83052 L 52.781173,401.47947 C 52.781173,401.47947 52.641939,399.99431 52.932009,399.9595 C 53.22208,399.92469 54.069085,399.80867 54.069085,399.80867 L 55.090132,400.08713 z"
       id="path3691" />
    <polygon
       id="polygon2536"
       points="109.857,18.25 109.857,17.083 110.357,15.083 111.773,16.25 112.19,17.583 110.94,19 109.857,18.25 "
       style="fill:#dedede;fill-opacity:1"
       transform="matrix(-1,0,0,1,173.55503,383.20975)" />
    <path
       style="fill:#dedede;fill-rule:evenodd;stroke:none;stroke-width:1px;stroke-linecap:butt;stroke-linejoin:miter;stroke-opacity:1;fill-opacity:1"
       d="M 59.42196,399.84596 C 59.42196,399.84596 59.287304,400.14413 59.335395,400.19222 C 59.383487,400.24031 59.931731,400.85589 59.931731,400.85589 L 61.913104,400.9136 L 62.326692,399.44199 L 60.249135,399.48047 L 59.42196,399.84596 z"
       id="path3693" />
    <path
       style="fill:#dedede;fill-rule:evenodd;stroke:none;stroke-width:1px;stroke-linecap:butt;stroke-linejoin:miter;stroke-opacity:1;fill-opacity:1"
       d="M 60.720433,403.97222 L 60.874326,404.57817 L 61.153257,404.95329 L 61.316769,405.10718 L 62.134326,405.14566 L 62.634478,404.97253 L 62.855699,404.71283 L 63.019211,404.23192 L 63.144249,403.91451 L 61.124402,403.55863 L 60.720433,403.97222 z"
       id="path3695" />
    <path
       sodipodi:type="arc"
       style="fill:#dedede;fill-opacity:1;stroke:#000000;stroke-width:0.87500000000000000;stroke-miterlimit:4;stroke-dasharray:none;stroke-dashoffset:0;stroke-opacity:1"
       id="path3699"
       sodipodi:cx="128.84149"
       sodipodi:cy="274.52518"
       sodipodi:rx="8.7055063"
       sodipodi:ry="8.7055063"
       d="M 137.547,274.52518 A 8.7055063,8.7055063 0 1 1 120.13599,274.52518 A 8.7055063,8.7055063 0 1 1 137.547,274.52518 z"
       transform="translate(-11.752434,123.61819)" />
    <path
       sodipodi:type="arc"
       style="fill:#dedede;fill-opacity:1;stroke:#000000;stroke-width:0.87500000000000000;stroke-miterlimit:4;stroke-dasharray:none;stroke-dashoffset:0;stroke-opacity:1"
       id="path3703"
       sodipodi:cx="-28.771139"
       sodipodi:cy="375.21198"
       sodipodi:rx="0.9076857"
       sodipodi:ry="2.0985026"
       d="M -29.139157,377.13026 A 0.9076857,2.0985026 0 0 1 -28.664402,373.12803"
       transform="matrix(0.9978499,-6.5541126e-2,6.5541126e-2,0.9978499,129.84141,21.80906)"
       sodipodi:start="1.9882633"
       sodipodi:end="4.8302547"
       sodipodi:open="true" />
    <path
       style="fill:#dedede;fill-rule:evenodd;stroke:none;stroke-width:1px;stroke-linecap:butt;stroke-linejoin:miter;stroke-opacity:1;fill-opacity:1"
       d="M 125.59106,396.4518 L 126.38552,396.41869 L 126.74965,399.7786 L 126.0876,399.86136 L 125.74002,399.66274 L 125.5083,399.23241 L 125.59106,396.4518 z"
       id="path3705" />
    <path
       style="fill:none;fill-rule:evenodd;stroke:#000000;stroke-width:1px;stroke-linecap:butt;stroke-linejoin:miter;stroke-opacity:1;marker-start:url(#Arrow2Mstart);marker-end:url(#Arrow2Mend)"
       d="M 100.36936,384.23179 L 130.33037,382.35923"
       id="path3707" />
  </g>
</svg>
