<?xml version="1.0" encoding="UTF-8" standalone="no"?>
<!-- Created with Inkscape (http://www.inkscape.org/) -->

<svg
   xmlns:dc="http://purl.org/dc/elements/1.1/"
   xmlns:cc="http://creativecommons.org/ns#"
   xmlns:rdf="http://www.w3.org/1999/02/22-rdf-syntax-ns#"
   xmlns:svg="http://www.w3.org/2000/svg"
   xmlns="http://www.w3.org/2000/svg"
   xmlns:sodipodi="http://sodipodi.sourceforge.net/DTD/sodipodi-0.dtd"
   xmlns:inkscape="http://www.inkscape.org/namespaces/inkscape"
   width="121.75873mm"
   height="121.75873mm"
   viewBox="0 0 431.42857 431.42857"
   id="svg2"
   version="1.1"
   inkscape:version="0.91 r13725"
   sodipodi:docname="phone.svg"
   inkscape:export-filename="D:\Dokumente\privat\Layouts\TeXtemplates\cv\img\phone.png"
   inkscape:export-xdpi="90"
   inkscape:export-ydpi="90">
  <defs
     id="defs4" />
  <sodipodi:namedview
     id="base"
     pagecolor="#ffffff"
     bordercolor="#666666"
     borderopacity="1.0"
     inkscape:pageopacity="0.0"
     inkscape:pageshadow="2"
     inkscape:zoom="4.3866171"
     inkscape:cx="-14.849966"
     inkscape:cy="242.12676"
     inkscape:document-units="px"
     inkscape:current-layer="layer1"
     showgrid="false"
     fit-margin-top="0"
     fit-margin-left="0"
     fit-margin-right="0"
     fit-margin-bottom="0"
     inkscape:window-width="1920"
     inkscape:window-height="1057"
     inkscape:window-x="622"
     inkscape:window-y="-8"
     inkscape:window-maximized="1" />
  <metadata
     id="metadata7">
    <rdf:RDF>
      <cc:Work
         rdf:about="">
        <dc:format>image/svg+xml</dc:format>
        <dc:type
           rdf:resource="http://purl.org/dc/dcmitype/StillImage" />
        <dc:title />
      </cc:Work>
    </rdf:RDF>
  </metadata>
  <g
     inkscape:label="Ebene 1"
     inkscape:groupmode="layer"
     id="layer1"
     transform="translate(-125.71427,-189.50508)">
    <circle
       style="opacity:1;fill:#7f7f7f;fill-opacity:1;stroke:#ffffff;stroke-width:0;stroke-linecap:round;stroke-linejoin:miter;stroke-miterlimit:4;stroke-dasharray:none;stroke-dashoffset:0;stroke-opacity:1"
       id="path4140"
       cx="341.42856"
       cy="405.21936"
       r="215.71428" />
    <g
       id="g4195"
       transform="matrix(1.1298198,0,0,1.1298198,-61.982935,-72.144779)">
      <path
         sodipodi:nodetypes="ccsssscc"
         inkscape:connector-curvature="0"
         id="path4145-5"
         transform="translate(125.71427,189.50508)"
         d="m 197.00781,235.87891 -32.23828,32.23828 c 25.93609,26.53854 49.06184,48.87971 58.50977,57.46875 20.75422,18.86746 58.81151,41.60315 90.5625,31.8457 29.08063,-8.93682 47.58795,-31.93922 43.81445,-47.0332 -3.7735,-15.09398 -35.49184,-27.53379 -35.49184,-27.53379 -24.37703,-10.58263 -24.42586,12.20951 -43.29332,15.98301 -37.49218,-26.43901 -63.58816,-46.68995 -81.86328,-62.96875 z"
         style="fill:#ffffff;fill-opacity:1;fill-rule:evenodd;stroke:none;stroke-width:1px;stroke-linecap:butt;stroke-linejoin:miter;stroke-opacity:1" />
      <path
         sodipodi:nodetypes="ccsssscc"
         inkscape:connector-curvature="0"
         id="path4145-5-2"
         d="m 354.15148,456.88601 -32.23828,32.23828 c -26.53854,-25.93609 -48.87971,-49.06184 -57.46875,-58.50977 -18.86746,-20.75422 -41.60315,-58.81151 -31.8457,-90.5625 8.93682,-29.08063 31.93922,-47.58795 47.0332,-43.81445 15.09398,3.7735 27.53379,35.49184 27.53379,35.49184 10.58263,24.37703 -12.20951,24.42586 -15.98301,43.29332 26.43901,37.49218 46.68995,63.58816 62.96875,81.86328 z"
         style="fill:#ffffff;fill-opacity:1;fill-rule:evenodd;stroke:none;stroke-width:1px;stroke-linecap:butt;stroke-linejoin:miter;stroke-opacity:1" />
    </g>
  </g>
</svg>
