<?xml version="1.0" encoding="UTF-8" standalone="no"?>
<!-- Created with Inkscape (http://www.inkscape.org/) -->

<svg
   xmlns:dc="http://purl.org/dc/elements/1.1/"
   xmlns:cc="http://creativecommons.org/ns#"
   xmlns:rdf="http://www.w3.org/1999/02/22-rdf-syntax-ns#"
   xmlns:svg="http://www.w3.org/2000/svg"
   xmlns="http://www.w3.org/2000/svg"
   xmlns:xlink="http://www.w3.org/1999/xlink"
   xmlns:sodipodi="http://sodipodi.sourceforge.net/DTD/sodipodi-0.dtd"
   xmlns:inkscape="http://www.inkscape.org/namespaces/inkscape"
   width="744.09448819"
   height="1052.3622047"
   id="svg2"
   sodipodi:version="0.32"
   inkscape:version="0.48.3.1 r9886"
   sodipodi:docname="cmb-geometry.svg"
   inkscape:output_extension="org.inkscape.output.svg.inkscape"
   version="1.1">
  <defs
     id="defs4">
    <linearGradient
       id="linearGradient7492">
      <stop
         style="stop-color:#a8a8a8;stop-opacity:0.78431374;"
         offset="0"
         id="stop7494" />
      <stop
         style="stop-color:#666666;stop-opacity:0.78431374;"
         offset="1"
         id="stop7496" />
    </linearGradient>
    <radialGradient
       inkscape:collect="always"
       xlink:href="#linearGradient7492"
       id="radialGradient3213"
       gradientUnits="userSpaceOnUse"
       gradientTransform="matrix(-0.1379461,-0.7437002,1.8809893,-0.3488726,-569.5942,629.78873)"
       cx="208.39052"
       cy="389.64154"
       fx="208.39052"
       fy="389.64154"
       r="67.5" />
    <linearGradient
       id="linearGradient4853">
      <stop
         style="stop-color:#d6d6d6;stop-opacity:0.86274511;"
         offset="0"
         id="stop4855" />
      <stop
         style="stop-color:#787878;stop-opacity:0.86274511;"
         offset="1"
         id="stop4857" />
    </linearGradient>
    <radialGradient
       inkscape:collect="always"
       xlink:href="#linearGradient4853"
       id="radialGradient3211"
       gradientUnits="userSpaceOnUse"
       gradientTransform="matrix(-1.1066398,-0.2560294,0.1632959,-0.7058483,302.2128,630.3515)"
       cx="259.17996"
       cy="379.68896"
       fx="259.17996"
       fy="379.68896"
       r="57.475452" />
    <inkscape:perspective
       sodipodi:type="inkscape:persp3d"
       inkscape:vp_x="0 : 526.18109 : 1"
       inkscape:vp_y="0 : 1000 : 0"
       inkscape:vp_z="744.09448 : 526.18109 : 1"
       inkscape:persp3d-origin="372.04724 : 350.78739 : 1"
       id="perspective10" />
    <inkscape:perspective
       id="perspective2444"
       inkscape:persp3d-origin="372.04724 : 350.78739 : 1"
       inkscape:vp_z="744.09448 : 526.18109 : 1"
       inkscape:vp_y="0 : 1000 : 0"
       inkscape:vp_x="0 : 526.18109 : 1"
       sodipodi:type="inkscape:persp3d" />
    <radialGradient
       inkscape:collect="always"
       xlink:href="#linearGradient7492"
       id="radialGradient2552"
       gradientUnits="userSpaceOnUse"
       gradientTransform="matrix(-0.1379461,-0.7437002,1.8809893,-0.3488726,-694.76589,644.7046)"
       cx="208.39052"
       cy="389.64154"
       fx="208.39052"
       fy="389.64154"
       r="67.5" />
    <radialGradient
       inkscape:collect="always"
       xlink:href="#linearGradient4853"
       id="radialGradient2555"
       gradientUnits="userSpaceOnUse"
       gradientTransform="matrix(-1.1066398,-0.2560294,0.1632959,-0.7058483,177.04111,645.26737)"
       cx="259.17996"
       cy="379.68896"
       fx="259.17996"
       fy="379.68896"
       r="57.475452" />
  </defs>
  <sodipodi:namedview
     id="base"
     pagecolor="#ffffff"
     bordercolor="#666666"
     borderopacity="1.0"
     gridtolerance="10000"
     guidetolerance="10"
     objecttolerance="10"
     inkscape:pageopacity="0.0"
     inkscape:pageshadow="2"
     inkscape:zoom="37.847468"
     inkscape:cx="45.353628"
     inkscape:cy="555.45433"
     inkscape:document-units="px"
     inkscape:current-layer="layer1"
     showgrid="false"
     inkscape:window-width="1278"
     inkscape:window-height="996"
     inkscape:window-x="1"
     inkscape:window-y="1"
     inkscape:window-maximized="0" />
  <metadata
     id="metadata7">
    <rdf:RDF>
      <cc:Work
         rdf:about="">
        <dc:format>image/svg+xml</dc:format>
        <dc:type
           rdf:resource="http://purl.org/dc/dcmitype/StillImage" />
      </cc:Work>
    </rdf:RDF>
  </metadata>
  <g
     inkscape:label="Layer 1"
     inkscape:groupmode="layer"
     id="layer1">
    <rect
       style="fill:#dedede;fill-opacity:1;fill-rule:evenodd;stroke:none;stroke-width:0.53544941pt;stroke-linecap:butt;stroke-linejoin:miter;stroke-opacity:1"
       id="rect2383"
       width="184.25197"
       height="177.47374"
       x="4.9446044"
       y="337.86758" />
    <image
       sodipodi:absref="/home/bcrowell/Documents/writing/books/genrel/ch08/figs/cmb-geometry-bitmaps/cmb.png"
       xlink:href="cmb-geometry-bitmaps/cmb.png"
       width="64.390762"
       height="51.84531"
       id="image2446"
       x="83.34008"
       y="357.96222" />
    <path
       style="fill:#ffffff;fill-opacity:1;fill-rule:evenodd;stroke:none;stroke-width:0.25pt;stroke-linecap:butt;stroke-linejoin:miter;stroke-opacity:1"
       d="M 45.467169,502.08482 C 49.717123,500.64739 51.903073,498.41018 52.971736,496.98043 C 54.0404,495.55069 54.770914,491.10682 54.770914,491.10682 C 54.770914,491.10682 53.06867,488.36871 52.790551,488.09332 C 52.512431,487.81793 50.345286,487.01171 50.345286,487.01171 L 48.610228,488.45143 L 43.95391,498.48126 L 44.474039,501.19713 L 44.705739,502.19207 L 45.467169,502.08482 z"
       id="path2046" />
    <path
       style="fill:#585858;fill-opacity:1;fill-rule:evenodd;stroke:none;stroke-width:0.25000000000000000pt;stroke-linecap:butt;stroke-linejoin:miter;stroke-opacity:1"
       d="M 46.206885,498.41558 C 52.951825,499.35295 53.309182,494.73096 52.656794,493.60653 C 52.004406,492.48211 51.153836,491.44851 50.216332,490.6159 C 49.27882,489.78329 48.571908,489.27469 48.571908,489.27469 C 48.571908,489.27469 46.458896,492.44532 46.072828,494.07251 C 45.68676,495.69971 46.190683,498.20816 46.206885,498.41558 z"
       id="path1309" />
    <path
       style="fill:#c3c3c3;fill-opacity:1;fill-rule:evenodd;stroke:none;stroke-width:0.25pt;stroke-linecap:butt;stroke-linejoin:miter;stroke-opacity:1"
       d="M 38.767152,504.34968 C 39.170924,499.00814 39.560687,494.801 41.443107,491.30635 C 43.325527,487.81169 47.562965,483.58689 49.583147,481.85536 C 51.603324,480.12383 54.543707,478.34657 54.543707,478.34657 C 54.543707,478.34657 58.322459,484.67183 58.253926,486.42206 C 58.185397,488.1723 55.050137,492.05312 55.050137,492.05312 C 55.050137,492.05312 51.766105,487.46169 51.003571,486.89802 C 50.241037,486.33435 49.550338,486.03319 49.550338,486.03319 C 49.550338,486.03319 43.552424,490.71566 43.094527,492.08035 C 42.63663,493.44504 40.957904,500.20344 40.540521,502.08669 C 40.123146,503.96995 39.893644,504.31684 39.592312,504.40122 C 39.290981,504.48561 38.925923,504.4112 38.767152,504.34968 z"
       id="path2040" />
    <path
       style="fill:#353535;fill-opacity:1;fill-rule:evenodd;stroke:none;stroke-width:0.25pt;stroke-linecap:butt;stroke-linejoin:miter;stroke-opacity:1"
       d="M 38.435697,490.91208 C 41.117859,486.48691 44.59057,480.35661 46.833245,478.8454 C 49.075919,477.33418 53.301558,475.5856 52.285216,475.05768 C 51.268874,474.52977 47.778152,474.51812 46.628453,474.91074 C 45.478752,475.30335 41.133052,478.91285 40.267684,480.86063 C 39.263853,483.12008 38.491319,490.96715 38.435697,490.91208 z"
       id="path2042"
       sodipodi:nodetypes="cssssc" />
    <path
       style="fill:#9d9d9d;fill-opacity:1;fill-rule:evenodd;stroke:none;stroke-width:0.25pt;stroke-linecap:butt;stroke-linejoin:miter;stroke-opacity:1"
       d="M 41.797774,504.38418 C 43.049915,498.73441 44.408501,495.10383 45.237362,492.57543 C 46.066222,490.04704 48.116612,487.38853 48.116612,487.38853 L 49.615167,486.8629 L 50.258344,487.21269 C 50.258344,487.21269 46.779917,491.83743 46.330124,493.30583 C 45.880326,494.77424 43.706702,502.54249 43.706702,502.54249 L 42.899951,504.0402 L 41.797774,504.38418 z"
       id="path2044"
       sodipodi:nodetypes="cscccsccc" />
    <path
       style="fill:#9d9d9d;fill-opacity:1;fill-rule:evenodd;stroke:none;stroke-width:0.25pt;stroke-linecap:butt;stroke-linejoin:miter;stroke-opacity:1"
       d="M 44.4725,503.23021 C 46.752493,502.38334 52.892785,497.66823 53.802995,496.24115 C 54.713204,494.81406 55.07503,490.72729 55.07503,490.72729 L 56.159335,492.01261 C 56.159335,492.01261 55.83609,494.65591 55.154043,496.09724 C 54.471987,497.53858 47.929961,503.40814 46.930124,503.68812 C 45.930287,503.96812 44.527087,504.41317 44.527087,504.41317 L 43.789638,504.17685 L 44.4725,503.23021 z"
       id="path2048" />
    <path
       sodipodi:type="arc"
       style="fill:#000000;fill-opacity:1;fill-rule:evenodd;stroke:none;stroke-width:1pt;stroke-linecap:butt;stroke-linejoin:miter;stroke-opacity:1"
       id="path13901"
       sodipodi:cx="95.175934"
       sodipodi:cy="737.2691"
       sodipodi:rx="0.67500663"
       sodipodi:ry="1.215012"
       d="M 95.85094,737.2691 A 0.67500663,1.215012 0 1 1 94.500927,737.2691 A 0.67500663,1.215012 0 1 1 95.85094,737.2691 z"
       transform="matrix(0.9174598,-0.9389741,0.9491401,0.9398205,-737.17407,-110.62959)" />
    <path
       style="fill:#dedede;fill-opacity:1;stroke:none;stroke-width:1.25000000000000000;stroke-miterlimit:4;stroke-dasharray:none;stroke-dashoffset:0;stroke-opacity:1"
       d="M 74.261143,350.49493 L 74.261143,415.15118 L 155.51114,415.15118 L 155.51114,350.49493 L 74.261143,350.49493 z M 142.66739,357.90118 C 142.66739,357.90118 146.07959,365.75146 145.88614,381.74493 C 145.68911,398.13683 144.07364,406.96367 144.07364,406.96368 C 144.07364,406.96368 130.82298,408.10925 112.44864,408.05743 C 98.090184,408.01672 83.136143,407.05742 83.136143,407.05743 C 83.136143,407.05743 84.636143,399.25714 84.636143,385.30743 C 84.636143,371.35771 84.956402,375.19389 82.948643,358.27618 C 83.049032,358.17724 95.38663,359.11483 109.85489,358.86993 C 127.00021,358.57971 142.66739,357.90118 142.66739,357.90118 z"
       id="rect2429" />
    <path
       d="M 104.29883,375.84446 C 104.29883,375.84446 112.17013,396.2553 135.26326,391.72025 C 135.26326,391.72025 95.006228,441.95071 61.138104,478.54548 C 61.138104,478.54548 96.507875,435.78699 104.29883,375.84446 z"
       style="fill:none;fill-opacity:0.46067403;fill-rule:evenodd;stroke:#000000;stroke-width:1.875;stroke-linecap:butt;stroke-linejoin:miter;stroke-miterlimit:4;stroke-dasharray:none;stroke-opacity:1"
       id="path7504"
       sodipodi:nodetypes="cccc" />
  </g>
</svg>
