<?xml version="1.0" encoding="UTF-8" standalone="no"?>
<svg
   xmlns:dc="http://purl.org/dc/elements/1.1/"
   xmlns:cc="http://creativecommons.org/ns#"
   xmlns:rdf="http://www.w3.org/1999/02/22-rdf-syntax-ns#"
   xmlns:svg="http://www.w3.org/2000/svg"
   xmlns="http://www.w3.org/2000/svg"
   xmlns:xlink="http://www.w3.org/1999/xlink"
   xmlns:sodipodi="http://sodipodi.sourceforge.net/DTD/sodipodi-0.dtd"
   xmlns:inkscape="http://www.inkscape.org/namespaces/inkscape"
   version="1.1"
   width="700"
   height="600"
   id="svg2"
   inkscape:version="0.48.3.1 r9886"
   sodipodi:docname="static-poynting-vector.svg">
  <metadata
     id="metadata214">
    <rdf:RDF>
      <cc:Work
         rdf:about="">
        <dc:format>image/svg+xml</dc:format>
        <dc:type
           rdf:resource="http://purl.org/dc/dcmitype/StillImage" />
        <dc:title>VFPt_Dipole_field</dc:title>
      </cc:Work>
    </rdf:RDF>
  </metadata>
  <sodipodi:namedview
     pagecolor="#ffffff"
     bordercolor="#666666"
     borderopacity="1"
     objecttolerance="10"
     gridtolerance="10"
     guidetolerance="10"
     inkscape:pageopacity="0"
     inkscape:pageshadow="2"
     inkscape:window-width="1280"
     inkscape:window-height="998"
     id="namedview212"
     showgrid="false"
     inkscape:zoom="1.6215694"
     inkscape:cx="-131.46449"
     inkscape:cy="225.19039"
     inkscape:window-x="0"
     inkscape:window-y="0"
     inkscape:window-maximized="1"
     inkscape:current-layer="svg2" />
  <title
     id="title4">VFPt_Dipole_field</title>
  <desc
     id="desc6">VFPt_Dipole_field
created with VectorFieldPlot 1.3
http://commons.wikimedia.org/wiki/User:Geek3/VectorFieldPlot

about: http://commons.wikimedia.org/wiki/File:VFPt_Dipole_field.svg
rights: GNU Free Documentation license,
        Creative Commons Attribution ShareAlike license
  </desc>
  <defs
     id="defs8">
    <marker
       inkscape:stockid="Arrow2Mstart"
       orient="auto"
       refY="0.0"
       refX="0.0"
       id="Arrow2Mstart"
       style="overflow:visible">
      <path
         id="path5224"
         style="fill-rule:evenodd;stroke-width:0.62500000;stroke-linejoin:round"
         d="M 8.7185878,4.0337352 L -2.2072895,0.016013256 L 8.7185884,-4.0017078 C 6.9730900,-1.6296469 6.9831476,1.6157441 8.7185878,4.0337352 z "
         transform="scale(0.6) translate(0,0)" />
    </marker>
    <path
       id="arrow1"
       stroke="none"
       fill="#000000"
       transform="scale(0.01)"
       d="M 0.3,0 L -2.2,2.25 L 3.8,0 L -2.2,-2.25 L 0.3,0 Z" />
  </defs>
  <rect
     style="fill:#7f7f7f;fill-opacity:1;stroke:none"
     id="rect3340"
     width="184.25197"
     height="208.78915"
     x="-184.76477"
     y="322.91812" />
  <g
     id="g4257"
     transform="matrix(1.3433553,0,0,1.3433553,-365.70236,-198.63951)">
    <g
       transform="matrix(19.261694,7.0106542,0,-32.102824,202.96848,465.63073)"
       id="fieldline1"
       style="fill:none;stroke:#000000;stroke-width:0.02513397;stroke-linecap:round;stroke-linejoin:round;stroke-miterlimit:4;stroke-dasharray:none">
      <path
         style="stroke-width:0.02513397;stroke-miterlimit:4;stroke-dasharray:none"
         sodipodi:nodetypes="cc"
         inkscape:connector-curvature="0"
         id="path15"
         d="M 0,2.3974688 0,-2.4241735" />
      <g
         style="stroke-width:0.02513397;stroke-miterlimit:4;stroke-dasharray:none"
         id="arrows1">
        <use
           style="stroke-width:0.01047249;stroke-miterlimit:4;stroke-dasharray:none"
           height="600"
           width="700"
           y="0"
           x="0"
           id="use18"
           transform="matrix(0,-2.4,2.4,0,0,1.555)"
           xlink:href="#arrow1" />
        <use
           style="stroke-width:0.01047249;stroke-miterlimit:4;stroke-dasharray:none"
           height="600"
           width="700"
           y="0"
           x="0"
           id="use20"
           transform="matrix(0,-2.4,2.4,0,0,-1.555)"
           xlink:href="#arrow1" />
      </g>
    </g>
    <g
       transform="matrix(19.261694,7.0106542,0,-32.102824,202.96848,465.63073)"
       id="fieldline2"
       style="fill:none;stroke:#000000;stroke-width:0.02513397;stroke-linecap:round;stroke-linejoin:round;stroke-miterlimit:4;stroke-dasharray:none">
      <path
         style="stroke-width:0.02513397;stroke-miterlimit:4;stroke-dasharray:none"
         inkscape:connector-curvature="0"
         id="path23"
         d="m 0,0 0.0022,-0.0201 0.006,-0.027 0.0095,-0.0311 0.0131,-0.0335 0.0164,-0.035 0.0198,-0.0358 0.0228,-0.0362 0.0258,-0.0361 0.0285,-0.0356 0.0313,-0.0348 0.0337,-0.0337 0.036,-0.0325 0.0381,-0.031 0.0401,-0.0293 0.0419,-0.0275 0.0434,-0.0255 0.0449,-0.0234 0.0461,-0.0211 0.0471,-0.0189 0.0479,-0.0165 0.0486,-0.014 0.049,-0.0116 0.0493,-0.0091 0.0495,-0.0065 0.0493,-0.0039 0.0491,-0.0015 0.0486,0.0011 0.0481,0.0036 0.0473,0.0061 0.0463,0.0084 0.0453,0.0108 0.044,0.0131 0.0427,0.0153 0.0412,0.0174 0.0396,0.0194 0.0379,0.0214 0.036,0.0233 0.0341,0.0249 0.0321,0.0266 0.03,0.0281 0.0278,0.0295 0.0256,0.0308 0.0233,0.0319 0.021,0.033 0.0185,0.0339 0.0162,0.0347 0.0137,0.0354 0.0112,0.036 0.0088,0.0364 0.0062,0.0368 0.0037,0.037 L 1.6398,8e-4 1.6385,0.0379 1.6347,0.0749 1.6283,0.1116 1.6195,0.148 1.6082,0.184 1.5944,0.2194 1.5781,0.254 1.5594,0.2879 1.5384,0.3208 1.515,0.3527 1.4893,0.3835 1.4614,0.4129 1.4313,0.4409 1.3992,0.4674 1.365,0.4923 1.3289,0.5155 1.2909,0.5368 1.2513,0.5562 1.21,0.5735 1.1672,0.5887 1.1231,0.6017 1.0778,0.6124 1.0314,0.6207 0.9841,0.6267 0.936,0.6302 0.8874,0.6312 0.8383,0.6296 0.7889,0.6255 0.7395,0.6189 0.6902,0.6098 0.6411,0.5981 0.5926,0.5839 0.5447,0.5674 0.4976,0.5484 0.4516,0.5271 0.4068,0.5037 0.3634,0.4781 0.3216,0.4505 0.2816,0.4212 0.2435,0.3901 0.2076,0.3576 0.174,0.3238 0.1429,0.2889 0.1144,0.2533 0.0888,0.2172 0.0661,0.181 0.0465,0.1452 0.0302,0.1102 0.0173,0.0768 0.0078,0.0459 0.0021,0.0192 0,0 z" />
      <g
         style="stroke-width:0.02513397;stroke-miterlimit:4;stroke-dasharray:none"
         id="arrows2">
        <use
           style="stroke-width:0.01047249;stroke-miterlimit:4;stroke-dasharray:none"
           height="600"
           width="700"
           y="0"
           x="0"
           id="use26"
           transform="matrix(2.1301783,1.105595,-1.105595,2.1301783,1.2551,-0.5539)"
           xlink:href="#arrow1" />
        <use
           style="stroke-width:0.01047249;stroke-miterlimit:4;stroke-dasharray:none"
           height="600"
           width="700"
           y="0"
           x="0"
           id="use28"
           transform="matrix(-2.2233534,0.90371438,-0.90371438,-2.2233534,1.2551,0.5538)"
           xlink:href="#arrow1" />
      </g>
    </g>
    <g
       transform="matrix(19.261694,7.0106542,0,-32.102824,202.96848,465.63073)"
       id="fieldline3"
       style="fill:none;stroke:#000000;stroke-width:0.02513397;stroke-linecap:round;stroke-linejoin:round;stroke-miterlimit:4;stroke-dasharray:none">
      <path
         style="stroke-width:0.02513397;stroke-miterlimit:4;stroke-dasharray:none"
         inkscape:connector-curvature="0"
         id="path31"
         d="m 0,0 0.0022,-0.0221 0.0059,-0.0302 0.0097,-0.0349 0.0132,-0.0379 0.0167,-0.04 0.02,-0.0412 0.0233,-0.042 0.0265,-0.0423 0.0294,-0.0423 0.0323,-0.0419 0.0351,-0.0412 0.0376,-0.0404 0.0401,-0.0392 0.0423,-0.0378 0.0446,-0.0364 0.0464,-0.0347 0.0484,-0.0329 0.05,-0.0309 0.0515,-0.0289 0.0528,-0.0268 0.0541,-0.0245 0.055,-0.0221 0.056,-0.0198 0.0566,-0.0174 0.0572,-0.0149 0.0576,-0.0123 0.0577,-0.0098 0.0579,-0.0073 0.0577,-0.0047 0.0575,-0.0021 0.0571,3e-4 0.0566,0.003 0.0558,0.0054 0.0551,0.0078 0.0541,0.0103 0.0529,0.0127 0.0518,0.0149 0.0504,0.0172 0.049,0.0193 0.0474,0.0215 0.0457,0.0234 0.044,0.0254 0.0422,0.0272 0.0402,0.029 0.0381,0.0306 0.0361,0.0322 0.034,0.0336 0.0317,0.035 0.0295,0.0363 0.0271,0.0374 0.0248,0.0385 0.0225,0.0394 0.0199,0.0403 0.0176,0.041 0.0151,0.0417 0.0125,0.0422 0.0101,0.0427 0.0076,0.043 0.005,0.0432 0.0025,0.0434 0,0.0434 L 2.2291,0.0658 2.224,0.1091 2.2163,0.152 2.2062,0.1947 2.1935,0.2369 2.1784,0.2785 2.1607,0.3195 2.1407,0.3598 2.1182,0.3992 2.0933,0.4376 2.066,0.475 2.0365,0.5112 2.0047,0.5462 1.9707,0.5798 1.9345,0.6119 1.8963,0.6425 1.856,0.6714 1.8138,0.6986 1.7698,0.7239 1.724,0.7473 1.6765,0.7686 1.6275,0.7879 1.577,0.805 1.5252,0.8199 1.4722,0.8324 1.4181,0.8426 1.363,0.8504 1.3071,0.8558 1.2506,0.8586 1.1935,0.8589 1.1359,0.8567 1.0782,0.8519 1.0204,0.8446 0.9626,0.8347 0.905,0.8222 0.8479,0.8073 0.7913,0.7898 0.7353,0.77 0.6803,0.7477 0.6263,0.7231 0.5735,0.6963 0.522,0.6674 0.4721,0.6363 0.4238,0.6034 0.3774,0.5686 0.3329,0.5322 0.2907,0.4943 0.2507,0.4551 0.2131,0.4147 0.1782,0.3735 0.1459,0.3315 0.1166,0.2893 0.0902,0.2469 0.067,0.205 0.0471,0.1638 0.0305,0.1239 0.0174,0.086 0.0079,0.0512 0.0021,0.0213 0,0 z" />
      <g
         style="stroke-width:0.02513397;stroke-miterlimit:4;stroke-dasharray:none"
         id="arrows3">
        <use
           style="stroke-width:0.01047249;stroke-miterlimit:4;stroke-dasharray:none"
           height="600"
           width="700"
           y="0"
           x="0"
           id="use34"
           transform="matrix(2.3997944,-0.03141503,0.03141503,2.3997944,1.1637,-0.8576)"
           xlink:href="#arrow1" />
        <use
           style="stroke-width:0.01047249;stroke-miterlimit:4;stroke-dasharray:none"
           height="600"
           width="700"
           y="0"
           x="0"
           id="use36"
           transform="matrix(-2.3949704,-0.15529554,0.15529554,-2.3949704,1.1637,0.8576)"
           xlink:href="#arrow1" />
      </g>
    </g>
    <g
       transform="matrix(19.261694,7.0106542,0,-32.102824,202.96848,465.63073)"
       id="fieldline4"
       style="fill:none;stroke:#000000;stroke-width:0.02513397;stroke-linecap:round;stroke-linejoin:round;stroke-miterlimit:4;stroke-dasharray:none">
      <path
         style="stroke-width:0.02513397;stroke-miterlimit:4;stroke-dasharray:none"
         inkscape:connector-curvature="0"
         id="path39"
         d="M 0,0 0.0022,-0.0247 0.0081,-0.0589 0.0177,-0.0988 0.031,-0.1424 0.0479,-0.1887 0.0682,-0.2368 0.092,-0.2863 0.119,-0.3366 0.1492,-0.3873 0.1824,-0.4382 0.2187,-0.489 0.2578,-0.5393 0.2996,-0.5889 0.344,-0.6377 0.391,-0.6854 0.4403,-0.7319 0.4919,-0.777 0.5456,-0.8205 0.6013,-0.8624 0.6589,-0.9025 0.7181,-0.9407 0.779,-0.9769 0.8414,-1.0109 0.905,-1.0428 0.9699,-1.0725 1.0358,-1.0998 1.1027,-1.1248 1.1703,-1.1473 1.2386,-1.1674 1.3073,-1.185 1.3765,-1.2 l 0.0694,-0.0125 0.0695,-0.01 0.0695,-0.0074 0.0694,-0.0048 0.069,-0.0022 0.0687,3e-4 0.0681,0.0028 0.0675,0.0054 0.0668,0.0078 0.0658,0.0103 0.0649,0.0127 0.0637,0.015 0.0626,0.0174 0.0612,0.0196 0.0599,0.0219 0.0583,0.024 0.0567,0.026 0.0551,0.0281 0.0533,0.0301 0.0515,0.0319 0.0496,0.0337 0.0476,0.0354 0.0455,0.0371 0.0435,0.0386 0.0413,0.0401 0.0391,0.0415 0.0369,0.0428 0.0346,0.044 0.0322,0.0452 0.0299,0.0462 0.0275,0.0472 0.0251,0.048 0.0226,0.0489 0.0201,0.0496 0.0177,0.0502 0.0152,0.0507 0.0127,0.0512 0.0101,0.0515 0.0076,0.0519 0.0051,0.052 0.0025,0.0522 -1e-4,0.0522 L 3.2112,0.0788 3.2061,0.1309 3.1984,0.1827 3.1882,0.2342 3.1755,0.2854 3.1603,0.3361 3.1426,0.3863 3.1224,0.4359 3.0997,0.4847 3.0746,0.5327 3.047,0.5799 3.0171,0.6261 2.9848,0.6712 2.9502,0.7152 2.9133,0.758 2.8741,0.7995 2.8328,0.8396 2.7893,0.8782 2.7436,0.9152 2.696,0.9506 2.6464,0.9843 2.5949,1.0161 2.5415,1.0461 2.4864,1.0742 2.4297,1.1002 2.3713,1.1242 2.3114,1.146 2.2502,1.1656 2.1876,1.1829 2.1238,1.1979 2.0589,1.2105 1.9931,1.2208 1.9263,1.2286 1.8588,1.2339 1.7907,1.2366 1.722,1.2369 1.6529,1.2346 1.5836,1.2297 1.5141,1.2223 1.4445,1.2123 1.3751,1.1998 1.306,1.1847 1.2372,1.167 1.169,1.1469 1.1014,1.1243 1.0345,1.0993 0.9686,1.0719 0.9038,1.0422 0.8401,1.0103 0.7778,0.9762 0.717,0.94 0.6577,0.9017 0.6002,0.8616 0.5445,0.8197 0.4909,0.7761 0.4393,0.731 0.39,0.6845 0.3431,0.6368 0.2987,0.588 0.257,0.5383 0.2179,0.488 0.1817,0.4372 0.1485,0.3863 0.1184,0.3356 0.0915,0.2853 0.0678,0.2358 0.0475,0.1877 0.0307,0.1415 0.0175,0.098 0.0079,0.0582 0.0021,0.0242 0,0 z" />
      <g
         style="stroke-width:0.02513397;stroke-miterlimit:4;stroke-dasharray:none"
         id="arrows4">
        <use
           style="stroke-width:0.01047249;stroke-miterlimit:4;stroke-dasharray:none"
           height="600"
           width="700"
           y="0"
           x="0"
           id="use42"
           transform="matrix(2.2369707,-0.86946088,0.86946088,2.2369707,1.0129,-1.0901)"
           xlink:href="#arrow1" />
        <use
           style="stroke-width:0.01047249;stroke-miterlimit:4;stroke-dasharray:none"
           height="600"
           width="700"
           y="0"
           x="0"
           id="use44"
           transform="matrix(-2.204437,-0.94892447,0.94892447,-2.204437,1.0128,1.0902)"
           xlink:href="#arrow1" />
      </g>
    </g>
    <g
       transform="matrix(19.261694,7.0106542,0,-32.102824,202.96848,465.63073)"
       id="fieldline5"
       style="fill:none;stroke:#000000;stroke-width:0.02513397;stroke-linecap:round;stroke-linejoin:round;stroke-miterlimit:4;stroke-dasharray:none">
      <path
         style="stroke-width:0.02513397;stroke-miterlimit:4;stroke-dasharray:none"
         inkscape:connector-curvature="0"
         id="path47"
         d="M 3.505,1.8244 3.427,1.846 3.3477,1.8653 3.2673,1.8822 3.1859,1.8967 3.1035,1.9089 3.0203,1.9186 2.9363,1.9258 2.8516,1.9306 2.7663,1.9328 2.6806,1.9325 2.5945,1.9296 2.508,1.9243 2.4214,1.9163 2.3347,1.9058 2.2481,1.8928 2.1615,1.8772 2.0752,1.859 1.9892,1.8384 1.9037,1.8152 1.8187,1.7896 1.7344,1.7615 1.6508,1.731 1.5681,1.6981 1.4864,1.6629 1.4058,1.6254 1.3263,1.5857 1.2482,1.5438 1.1715,1.4997 1.0963,1.4537 1.0227,1.4056 0.9509,1.3557 0.8809,1.304 0.8128,1.2506 0.7468,1.1955 0.683,1.139 0.6213,1.0811 0.5621,1.0219 0.5052,0.9617 0.4509,0.9004 0.3993,0.8384 0.3504,0.7757 0.3043,0.7125 0.2611,0.6491 0.221,0.5856 0.1839,0.5223 0.15,0.4596 0.1193,0.3976 0.092,0.3367 0.0681,0.2774 0.0477,0.2201 0.0308,0.1655 0.0175,0.1143 0.008,0.0678 0.0021,0.0282 0,0" />
      <g
         style="stroke-width:0.02513397;stroke-miterlimit:4;stroke-dasharray:none"
         id="arrows5">
        <use
           style="stroke-width:0.01047249;stroke-miterlimit:4;stroke-dasharray:none"
           height="600"
           width="700"
           y="0"
           x="0"
           id="use50"
           transform="matrix(-1.8598668,-1.5168703,1.5168703,-1.8598668,0.8321,1.2655)"
           xlink:href="#arrow1" />
      </g>
    </g>
    <g
       transform="matrix(19.261694,7.0106542,0,-32.102824,202.96848,465.63073)"
       id="fieldline6"
       style="fill:none;stroke:#000000;stroke-width:0.02513397;stroke-linecap:round;stroke-linejoin:round;stroke-miterlimit:4;stroke-dasharray:none">
      <path
         style="stroke-width:0.02513397;stroke-miterlimit:4;stroke-dasharray:none"
         sodipodi:nodetypes="cccccccccccccccccccccccccccccccccccccccccc"
         inkscape:connector-curvature="0"
         id="path53"
         d="M 0,0 0.0021,-0.0282 0.008,-0.0678 0.0175,-0.1143 0.0308,-0.1655 0.0477,-0.2201 0.0681,-0.2774 0.092,-0.3367 0.1193,-0.3976 0.15,-0.4596 0.1839,-0.5223 0.221,-0.5856 0.2611,-0.6491 0.3043,-0.7125 0.3504,-0.7757 0.3993,-0.8384 0.4509,-0.9004 0.5052,-0.9617 0.5621,-1.0219 0.6213,-1.0811 0.683,-1.139 l 0.0638,-0.0565 0.066,-0.0551 0.0681,-0.0534 0.07,-0.0517 0.0718,-0.0499 0.0736,-0.0481 0.0752,-0.046 0.0767,-0.0441 0.0781,-0.0419 0.0795,-0.0397 0.0806,-0.0375 0.0817,-0.0352 0.0827,-0.0329 0.0836,-0.0305 0.0843,-0.0281 0.085,-0.0256 0.0855,-0.0232 0.086,-0.0206 0.0863,-0.0182 0.0866,-0.0156 0.0866,-0.013" />
      <g
         style="stroke-width:0.02513397;stroke-miterlimit:4;stroke-dasharray:none"
         id="arrows6">
        <use
           style="stroke-width:0.01047249;stroke-miterlimit:4;stroke-dasharray:none"
           height="600"
           width="700"
           y="0"
           x="0"
           id="use56"
           transform="matrix(1.8958584,-1.4716388,1.4716388,1.8958584,0.832,-1.2656)"
           xlink:href="#arrow1" />
      </g>
    </g>
    <g
       transform="matrix(19.261694,7.0106542,0,-32.102824,202.96848,465.63073)"
       id="fieldline7"
       style="fill:none;stroke:#000000;stroke-width:0.02513397;stroke-linecap:round;stroke-linejoin:round;stroke-miterlimit:4;stroke-dasharray:none">
      <path
         style="stroke-width:0.02513397;stroke-miterlimit:4;stroke-dasharray:none"
         inkscape:connector-curvature="0"
         id="path59"
         d="M 2.7545,3.005 2.6472,2.9584 2.541,2.9096 2.4359,2.8586 2.3321,2.8055 2.2295,2.7503 2.1283,2.693 2.0285,2.6337 1.9302,2.5724 1.8336,2.5092 1.7386,2.4442 1.6453,2.3774 1.5539,2.3089 1.4643,2.2388 1.3768,2.167 1.2913,2.0938 1.2078,2.0192 1.1266,1.9432 1.0477,1.8659 0.9711,1.7876 0.8968,1.7082 0.8251,1.6278 0.7559,1.5466 0.6893,1.4647 0.6254,1.3822 0.5642,1.2993 0.5058,1.216 0.4503,1.1326 0.3978,1.0492 0.3482,0.966 0.3017,0.8831 0.2583,0.8008 0.2181,0.7193 0.1811,0.6389 0.1474,0.5599 0.1171,0.4825 0.0901,0.4071 0.0666,0.3342 0.0465,0.2642 0.03,0.198 0.017,0.1363 0.0077,0.0806 0.002,0.0333 0,0" />
      <g
         style="stroke-width:0.02513397;stroke-miterlimit:4;stroke-dasharray:none"
         id="arrows7">
        <use
           style="stroke-width:0.01047249;stroke-miterlimit:4;stroke-dasharray:none"
           height="600"
           width="700"
           y="0"
           x="0"
           id="use62"
           transform="matrix(-1.4363146,-1.9227585,1.9227585,-1.4363146,0.6346,1.3939)"
           xlink:href="#arrow1" />
      </g>
    </g>
    <g
       transform="matrix(19.261694,7.0106542,0,-32.102824,202.96848,465.63073)"
       id="fieldline8"
       style="fill:none;stroke:#000000;stroke-width:0.02513397;stroke-linecap:round;stroke-linejoin:round;stroke-miterlimit:4;stroke-dasharray:none">
      <path
         style="stroke-width:0.02513397;stroke-miterlimit:4;stroke-dasharray:none"
         sodipodi:nodetypes="ccccccccccccccccccccccccccccc"
         inkscape:connector-curvature="0"
         id="path65"
         d="M 0,0 0.002,-0.0333 0.0077,-0.0806 0.017,-0.1363 0.03,-0.198 l 0.0165,-0.0662 0.0201,-0.07 0.0235,-0.0729 0.027,-0.0754 0.0303,-0.0774 0.0337,-0.079 0.037,-0.0804 0.0402,-0.0815 0.0434,-0.0823 0.0465,-0.0829 0.0496,-0.0832 0.0525,-0.0834 0.0555,-0.0834 0.0584,-0.0833 0.0612,-0.0829 0.0639,-0.0825 0.0666,-0.0819 0.0692,-0.0812 0.0717,-0.0804 0.0743,-0.0794 0.0766,-0.0783 0.0789,-0.0773 0.0812,-0.076 0.1057539,-0.1097972" />
      <g
         style="stroke-width:0.02513397;stroke-miterlimit:4;stroke-dasharray:none"
         id="arrows8">
        <use
           style="stroke-width:0.01047249;stroke-miterlimit:4;stroke-dasharray:none"
           height="600"
           width="700"
           y="0"
           x="0"
           id="use68"
           transform="matrix(1.4699838,-1.897142,1.897142,1.4699838,0.6345,-1.394)"
           xlink:href="#arrow1" />
      </g>
    </g>
    <path
       sodipodi:nodetypes="cccccccccccccccccccccccccc"
       d="m 223.57656,388.55012 -1.55441,3.40857 -1.49856,3.42248 -1.44271,3.44281 -1.38684,3.45352 -1.32713,3.45919 -1.26934,3.46738 -1.20964,3.46343 -1.14992,3.4627 -1.09021,3.44912 -1.02858,3.43623 -0.96694,3.41694 -0.90337,3.3887 -0.83981,3.35406 -0.77624,3.31299 -0.71269,3.26228 -0.64719,3.20266 -0.57978,3.13088 -0.51621,3.04487 -0.44687,2.94491 -0.38138,2.82428 -0.31397,2.67546 -0.24462,2.49845 -0.17721,2.26617 -0.10594,1.92613 -0.0385,1.3664"
       id="path71"
       inkscape:connector-curvature="0"
       style="fill:none;stroke:#000000;stroke-width:0.625;stroke-linecap:round;stroke-linejoin:round;stroke-miterlimit:4;stroke-dasharray:none" />
    <g
       transform="matrix(19.261694,7.0106542,0,-32.102824,202.96848,465.63073)"
       id="arrows9"
       style="fill:none;stroke:#000000;stroke-width:0.02513397;stroke-linecap:round;stroke-linejoin:round;stroke-miterlimit:4;stroke-dasharray:none">
      <use
         style="stroke-width:0.01047249;stroke-miterlimit:4;stroke-dasharray:none"
         xlink:href="#arrow1"
         transform="matrix(-0.98266894,-2.1896031,2.1896031,-0.98266894,0.4276,1.4818)"
         id="use74"
         x="0"
         y="0"
         width="700"
         height="600" />
    </g>
    <g
       transform="matrix(19.261694,7.0106542,0,-32.102824,202.96848,465.63073)"
       id="fieldline10"
       style="fill:none;stroke:#000000;stroke-width:0.02513397;stroke-linecap:round;stroke-linejoin:round;stroke-miterlimit:4;stroke-dasharray:none">
      <path
         style="stroke-width:0.02513397;stroke-miterlimit:4;stroke-dasharray:none"
         sodipodi:nodetypes="cccccccccccccccccccccc"
         inkscape:connector-curvature="0"
         id="path77"
         d="M 0,0 0.002,-0.043 0.0075,-0.1042 0.0167,-0.1768 0.0294,-0.2574 0.0457,-0.3443 0.0655,-0.4366 0.0887,-0.5334 0.1155,-0.6341 0.1456,-0.7382 0.1792,-0.8453 0.2162,-0.955 0.2565,-1.067 0.3001,-1.181 0.347,-1.2968 0.3972,-1.4142 0.4506,-1.5329 0.5072,-1.6527 0.5669,-1.7736 0.6297,-1.8952 0.6956,-2.0176 0.82013473,-2.2550976" />
      <g
         style="stroke-width:0.02513397;stroke-miterlimit:4;stroke-dasharray:none"
         id="arrows10">
        <use
           style="stroke-width:0.01047249;stroke-miterlimit:4;stroke-dasharray:none"
           height="600"
           width="700"
           y="0"
           x="0"
           id="use80"
           transform="matrix(0.9948826,-2.1840807,2.1840807,0.9948826,0.4276,-1.4817)"
           xlink:href="#arrow1" />
      </g>
    </g>
    <g
       transform="matrix(19.261694,7.0106542,0,-32.102824,202.96848,465.63073)"
       id="fieldline11"
       style="fill:none;stroke:#000000;stroke-width:0.02513397;stroke-linecap:round;stroke-linejoin:round;stroke-miterlimit:4;stroke-dasharray:none">
      <path
         style="stroke-width:0.02513397;stroke-miterlimit:4;stroke-dasharray:none"
         sodipodi:nodetypes="ccccccccccccccccc"
         inkscape:connector-curvature="0"
         id="path83"
         d="M 0.44071916,2.5063486 0.4173,2.3732 0.364,2.1696 0.3143,1.97 0.2683,1.7747 0.2258,1.584 0.1869,1.3983 0.1517,1.2181 0.1201,1.0437 0.0922,0.8759 0.0679,0.7153 0.0474,0.5629 0.0305,0.4199 0.0173,0.2879 0.0078,0.1695 0.0021,0.07 0,0" />
      <g
         style="stroke-width:0.02513397;stroke-miterlimit:4;stroke-dasharray:none"
         id="arrows11">
        <use
           style="stroke-width:0.01047249;stroke-miterlimit:4;stroke-dasharray:none"
           height="600"
           width="700"
           y="0"
           x="0"
           id="use86"
           transform="matrix(-0.49161055,-2.3491103,2.3491103,-0.49161055,0.2151,1.5331)"
           xlink:href="#arrow1" />
      </g>
    </g>
    <g
       transform="matrix(19.261694,7.0106542,0,-32.102824,202.96848,465.63073)"
       id="fieldline12"
       style="fill:none;stroke:#000000;stroke-width:0.02513397;stroke-linecap:round;stroke-linejoin:round;stroke-miterlimit:4;stroke-dasharray:none">
      <path
         style="stroke-width:0.02513397;stroke-miterlimit:4;stroke-dasharray:none"
         sodipodi:nodetypes="ccccccccccccccc"
         inkscape:connector-curvature="0"
         id="path89"
         d="M 0,0 0.0021,-0.07 0.0078,-0.1695 0.0173,-0.2879 0.0305,-0.4199 0.0474,-0.5629 0.0679,-0.7153 0.0922,-0.8759 0.1201,-1.0437 0.1517,-1.2181 0.1869,-1.3983 0.2258,-1.584 0.2683,-1.7747 0.3143,-1.97 0.3973808,-2.3425668" />
      <g
         style="stroke-width:0.02513397;stroke-miterlimit:4;stroke-dasharray:none"
         id="arrows12">
        <use
           style="stroke-width:0.01047249;stroke-miterlimit:4;stroke-dasharray:none"
           height="600"
           width="700"
           y="0"
           x="0"
           id="use92"
           transform="matrix(0.50062684,-2.3472053,2.3472053,0.50062684,0.2152,-1.5331)"
           xlink:href="#arrow1" />
      </g>
    </g>
    <g
       transform="matrix(19.261694,7.0106542,0,-32.102824,202.96848,465.63073)"
       id="fieldline13"
       style="fill:none;stroke:#000000;stroke-width:0.02513397;stroke-linecap:round;stroke-linejoin:round;stroke-miterlimit:4;stroke-dasharray:none">
      <path
         style="stroke-width:0.02513397;stroke-miterlimit:4;stroke-dasharray:none"
         sodipodi:nodetypes="cccccccccccccccc"
         inkscape:connector-curvature="0"
         id="path95"
         d="M -0.38391916,2.3137281 -0.364,2.1696 -0.3143,1.97 -0.2683,1.7747 -0.2258,1.584 -0.1869,1.3983 -0.1517,1.2181 -0.1201,1.0437 -0.0922,0.8759 -0.0679,0.7153 -0.0474,0.5629 -0.0305,0.4199 -0.0173,0.2879 -0.0078,0.1695 -0.0021,0.07 0,0" />
      <g
         style="stroke-width:0.02513397;stroke-miterlimit:4;stroke-dasharray:none"
         id="arrows13">
        <use
           style="stroke-width:0.01047249;stroke-miterlimit:4;stroke-dasharray:none"
           height="600"
           width="700"
           y="0"
           x="0"
           id="use98"
           transform="matrix(0.49161055,-2.3491103,2.3491103,0.49161055,-0.2151,1.5331)"
           xlink:href="#arrow1" />
      </g>
    </g>
    <g
       transform="matrix(19.261694,7.0106542,0,-32.102824,202.96848,465.63073)"
       id="fieldline14"
       style="fill:none;stroke:#000000;stroke-width:0.02513397;stroke-linecap:round;stroke-linejoin:round;stroke-miterlimit:4;stroke-dasharray:none">
      <path
         style="stroke-width:0.02513397;stroke-miterlimit:4;stroke-dasharray:none"
         sodipodi:nodetypes="ccccccccccccccccc"
         inkscape:connector-curvature="0"
         id="path101"
         d="M 0,0 -0.0021,-0.07 -0.0078,-0.1695 -0.0173,-0.2879 -0.0305,-0.4199 -0.0474,-0.5629 -0.0679,-0.7153 -0.0922,-0.8759 -0.1201,-1.0437 -0.1517,-1.2181 -0.1869,-1.3983 -0.2258,-1.584 -0.2683,-1.7747 -0.3143,-1.97 -0.364,-2.1696 -0.4173,-2.3732 -0.4741,-2.5336668" />
      <g
         style="stroke-width:0.02513397;stroke-miterlimit:4;stroke-dasharray:none"
         id="arrows14">
        <use
           style="stroke-width:0.01047249;stroke-miterlimit:4;stroke-dasharray:none"
           height="600"
           width="700"
           y="0"
           x="0"
           id="use104"
           transform="matrix(-0.50062684,-2.3472053,2.3472053,-0.50062684,-0.2152,-1.5331)"
           xlink:href="#arrow1" />
      </g>
    </g>
    <g
       transform="matrix(19.261694,7.0106542,0,-32.102824,202.96848,465.63073)"
       id="fieldline15"
       style="fill:none;stroke:#000000;stroke-width:0.02513397;stroke-linecap:round;stroke-linejoin:round;stroke-miterlimit:4;stroke-dasharray:none">
      <path
         style="stroke-width:0.02513397;stroke-miterlimit:4;stroke-dasharray:none"
         sodipodi:nodetypes="ccccccccccccccccccccccc"
         inkscape:connector-curvature="0"
         id="path107"
         d="M -0.80311916,2.2242566 -0.7645,2.1404 -0.6956,2.0176 -0.6297,1.8952 -0.5669,1.7736 -0.5072,1.6527 -0.4506,1.5329 -0.3972,1.4142 -0.347,1.2968 -0.3001,1.181 -0.2565,1.067 -0.2162,0.955 -0.1792,0.8453 -0.1456,0.7382 -0.1155,0.6341 -0.0887,0.5334 -0.0655,0.4366 -0.0457,0.3443 -0.0294,0.2574 -0.0167,0.1768 -0.0075,0.1042 -0.002,0.043 0,0" />
      <g
         style="stroke-width:0.02513397;stroke-miterlimit:4;stroke-dasharray:none"
         id="arrows15">
        <use
           style="stroke-width:0.01047249;stroke-miterlimit:4;stroke-dasharray:none"
           height="600"
           width="700"
           y="0"
           x="0"
           id="use110"
           transform="matrix(0.98266894,-2.1896031,2.1896031,0.98266894,-0.4276,1.4818)"
           xlink:href="#arrow1" />
      </g>
    </g>
    <g
       transform="matrix(19.261694,7.0106542,0,-32.102824,202.96848,465.63073)"
       id="fieldline16"
       style="fill:none;stroke:#000000;stroke-width:0.02513397;stroke-linecap:round;stroke-linejoin:round;stroke-miterlimit:4;stroke-dasharray:none">
      <path
         style="stroke-width:0.02513397;stroke-miterlimit:4;stroke-dasharray:none"
         sodipodi:nodetypes="cccccccccccccccccccccccccc"
         inkscape:connector-curvature="0"
         id="path113"
         d="M 0,0 -0.002,-0.043 -0.0075,-0.1042 -0.0167,-0.1768 -0.0294,-0.2574 -0.0457,-0.3443 -0.0655,-0.4366 -0.0887,-0.5334 -0.1155,-0.6341 -0.1456,-0.7382 -0.1792,-0.8453 -0.2162,-0.955 -0.2565,-1.067 -0.3001,-1.181 -0.347,-1.2968 -0.3972,-1.4142 -0.4506,-1.5329 -0.5072,-1.6527 -0.5669,-1.7736 -0.6297,-1.8952 -0.6956,-2.0176 -0.7645,-2.1404 -0.8365,-2.2637 -0.9114,-2.3873 -0.9892,-2.5109 -1.0921539,-2.6729407" />
      <g
         style="stroke-width:0.02513397;stroke-miterlimit:4;stroke-dasharray:none"
         id="arrows16">
        <use
           style="stroke-width:0.01047249;stroke-miterlimit:4;stroke-dasharray:none"
           height="600"
           width="700"
           y="0"
           x="0"
           id="use116"
           transform="matrix(-0.9948826,-2.1840807,2.1840807,-0.9948826,-0.4276,-1.4817)"
           xlink:href="#arrow1" />
      </g>
    </g>
    <g
       transform="matrix(19.261694,7.0106542,0,-32.102824,202.96848,465.63073)"
       id="fieldline17"
       style="fill:none;stroke:#000000;stroke-width:0.02513397;stroke-linecap:round;stroke-linejoin:round;stroke-miterlimit:4;stroke-dasharray:none">
      <path
         style="stroke-width:0.02513397;stroke-miterlimit:4;stroke-dasharray:none"
         sodipodi:nodetypes="ccccccccccccccccccccccccccccc"
         inkscape:connector-curvature="0"
         id="path119"
         d="m -1.2913,2.0938 0.0835,-0.0746 0.0812,-0.076 0.0789,-0.0773 0.0766,-0.0783 0.0743,-0.0794 0.0717,-0.0804 0.0692,-0.0812 0.0666,-0.0819 0.0639,-0.0825 0.0612,-0.0829 0.0584,-0.0833 0.0555,-0.0834 0.0525,-0.0834 0.0496,-0.0832 0.0465,-0.0829 0.0434,-0.0823 0.0402,-0.0815 0.037,-0.0804 0.0337,-0.079 0.0303,-0.0774 0.027,-0.0754 0.0235,-0.0729 0.0201,-0.07 L -0.03,0.198 -0.017,0.1363 -0.0077,0.0806 -0.002,0.0333 0,0" />
      <g
         style="stroke-width:0.02513397;stroke-miterlimit:4;stroke-dasharray:none"
         id="arrows17">
        <use
           style="stroke-width:0.01047249;stroke-miterlimit:4;stroke-dasharray:none"
           height="600"
           width="700"
           y="0"
           x="0"
           id="use122"
           transform="matrix(1.4363146,-1.9227585,1.9227585,1.4363146,-0.6346,1.3939)"
           xlink:href="#arrow1" />
      </g>
    </g>
    <g
       transform="matrix(19.261694,7.0106542,0,-32.102824,202.96848,465.63073)"
       id="fieldline18"
       style="fill:none;stroke:#000000;stroke-width:0.02513397;stroke-linecap:round;stroke-linejoin:round;stroke-miterlimit:4;stroke-dasharray:none">
      <path
         style="stroke-width:0.02513397;stroke-miterlimit:4;stroke-dasharray:none"
         inkscape:connector-curvature="0"
         id="path125"
         d="M 0,0 -0.002,-0.0333 -0.0077,-0.0806 -0.017,-0.1363 -0.03,-0.198 l -0.0165,-0.0662 -0.0201,-0.07 -0.0235,-0.0729 -0.027,-0.0754 -0.0303,-0.0774 -0.0337,-0.079 -0.037,-0.0804 -0.0402,-0.0815 -0.0434,-0.0823 -0.0465,-0.0829 -0.0496,-0.0832 -0.0525,-0.0834 -0.0555,-0.0834 -0.0584,-0.0833 -0.0612,-0.0829 -0.0639,-0.0825 -0.0666,-0.0819 -0.0692,-0.0812 -0.0717,-0.0804 -0.0743,-0.0794 -0.0766,-0.0783 -0.0789,-0.0773 -0.0812,-0.076 -0.0835,-0.0746 -0.0855,-0.0732 -0.0875,-0.0718 -0.0896,-0.0701 -0.0914,-0.0685 -0.0933,-0.0668 -0.095,-0.065 -0.0966,-0.0632 -0.0983,-0.0613 -0.0998,-0.0593 -0.1012,-0.0573 -0.1026,-0.0552 -0.1038,-0.0531 -0.1051,-0.051 -0.1062,-0.0488 -0.1073,-0.0466" />
      <g
         style="stroke-width:0.02513397;stroke-miterlimit:4;stroke-dasharray:none"
         id="arrows18">
        <use
           style="stroke-width:0.01047249;stroke-miterlimit:4;stroke-dasharray:none"
           height="600"
           width="700"
           y="0"
           x="0"
           id="use128"
           transform="matrix(-1.4699838,-1.897142,1.897142,-1.4699838,-0.6345,-1.394)"
           xlink:href="#arrow1" />
      </g>
    </g>
    <g
       transform="matrix(19.261694,7.0106542,0,-32.102824,202.96848,465.63073)"
       id="fieldline19"
       style="fill:none;stroke:#000000;stroke-width:0.02513397;stroke-linecap:round;stroke-linejoin:round;stroke-miterlimit:4;stroke-dasharray:none">
      <path
         style="stroke-width:0.02513397;stroke-miterlimit:4;stroke-dasharray:none"
         sodipodi:nodetypes="cccccccccccccccccccccccccccccccccccccccccc"
         inkscape:connector-curvature="0"
         id="path131"
         d="m -2.3347,1.9058 0.0866,-0.013 0.0866,-0.0156 0.0863,-0.0182 0.086,-0.0206 0.0855,-0.0232 0.085,-0.0256 0.0843,-0.0281 0.0836,-0.0305 0.0827,-0.0329 0.0817,-0.0352 0.0806,-0.0375 0.0795,-0.0397 0.0781,-0.0419 0.0767,-0.0441 0.0752,-0.046 0.0736,-0.0481 0.0718,-0.0499 0.07,-0.0517 0.0681,-0.0534 0.066,-0.0551 L -0.683,1.139 -0.6213,1.0811 -0.5621,1.0219 -0.5052,0.9617 -0.4509,0.9004 -0.3993,0.8384 -0.3504,0.7757 -0.3043,0.7125 -0.2611,0.6491 -0.221,0.5856 -0.1839,0.5223 -0.15,0.4596 -0.1193,0.3976 -0.092,0.3367 -0.0681,0.2774 -0.0477,0.2201 -0.0308,0.1655 -0.0175,0.1143 -0.008,0.0678 -0.0021,0.0282 0,0" />
      <g
         style="stroke-width:0.02513397;stroke-miterlimit:4;stroke-dasharray:none"
         id="arrows19">
        <use
           style="stroke-width:0.01047249;stroke-miterlimit:4;stroke-dasharray:none"
           height="600"
           width="700"
           y="0"
           x="0"
           id="use134"
           transform="matrix(1.8598668,-1.5168703,1.5168703,1.8598668,-0.8321,1.2655)"
           xlink:href="#arrow1" />
      </g>
    </g>
    <g
       transform="matrix(19.261694,7.0106542,0,-32.102824,202.96848,465.63073)"
       id="fieldline20"
       style="fill:none;stroke:#000000;stroke-width:0.02513397;stroke-linecap:round;stroke-linejoin:round;stroke-miterlimit:4;stroke-dasharray:none">
      <path
         style="stroke-width:0.02513397;stroke-miterlimit:4;stroke-dasharray:none"
         inkscape:connector-curvature="0"
         id="path137"
         d="M 0,0 -0.0021,-0.0282 -0.008,-0.0678 -0.0175,-0.1143 -0.0308,-0.1655 -0.0477,-0.2201 -0.0681,-0.2774 -0.092,-0.3367 -0.1193,-0.3976 -0.15,-0.4596 -0.1839,-0.5223 -0.221,-0.5856 -0.2611,-0.6491 -0.3043,-0.7125 -0.3504,-0.7757 -0.3993,-0.8384 -0.4509,-0.9004 -0.5052,-0.9617 -0.5621,-1.0219 -0.6213,-1.0811 -0.683,-1.139 l -0.0638,-0.0565 -0.066,-0.0551 -0.0681,-0.0534 -0.07,-0.0517 -0.0718,-0.0499 -0.0736,-0.0481 -0.0752,-0.046 -0.0767,-0.0441 -0.0781,-0.0419 -0.0795,-0.0397 -0.0806,-0.0375 -0.0817,-0.0352 -0.0827,-0.0329 -0.0836,-0.0305 -0.0843,-0.0281 -0.085,-0.0256 -0.0855,-0.0232 -0.086,-0.0206 -0.0863,-0.0182 -0.0866,-0.0156 -0.0866,-0.013 -0.0867,-0.0105 -0.0866,-0.008 -0.0865,-0.0053 -0.0861,-0.0029 -0.0857,-3e-4 -0.0853,0.0022 -0.0847,0.0048 -0.084,0.0072 -0.0832,0.0097 -0.0824,0.0122 -0.0814,0.0145 -0.0804,0.0169 -0.0793,0.0193 -0.078,0.0216" />
      <g
         style="stroke-width:0.02513397;stroke-miterlimit:4;stroke-dasharray:none"
         id="arrows20">
        <use
           style="stroke-width:0.01047249;stroke-miterlimit:4;stroke-dasharray:none"
           height="600"
           width="700"
           y="0"
           x="0"
           id="use140"
           transform="matrix(-1.8958584,-1.4716388,1.4716388,-1.8958584,-0.832,-1.2656)"
           xlink:href="#arrow1" />
      </g>
    </g>
    <g
       transform="matrix(19.261694,7.0106542,0,-32.102824,202.96848,465.63073)"
       id="fieldline21"
       style="fill:none;stroke:#000000;stroke-width:0.02513397;stroke-linecap:round;stroke-linejoin:round;stroke-miterlimit:4;stroke-dasharray:none">
      <path
         style="stroke-width:0.02513397;stroke-miterlimit:4;stroke-dasharray:none"
         inkscape:connector-curvature="0"
         id="path143"
         d="M 0,0 -0.0022,-0.0247 -0.0081,-0.0589 -0.0177,-0.0988 -0.031,-0.1424 -0.0479,-0.1887 -0.0682,-0.2368 -0.092,-0.2863 -0.119,-0.3366 -0.1492,-0.3873 -0.1824,-0.4382 -0.2187,-0.489 -0.2578,-0.5393 -0.2996,-0.5889 -0.344,-0.6377 -0.391,-0.6854 -0.4403,-0.7319 -0.4919,-0.777 -0.5456,-0.8205 -0.6013,-0.8624 -0.6589,-0.9025 -0.7181,-0.9407 -0.779,-0.9769 -0.8414,-1.0109 -0.905,-1.0428 -0.9699,-1.0725 -1.0358,-1.0998 -1.1027,-1.1248 -1.1703,-1.1473 -1.2386,-1.1674 -1.3073,-1.185 -1.3765,-1.2 l -0.0694,-0.0125 -0.0695,-0.01 -0.0695,-0.0074 -0.0694,-0.0048 -0.069,-0.0022 -0.0687,3e-4 -0.0681,0.0028 -0.0675,0.0054 -0.0668,0.0078 -0.0658,0.0103 -0.0649,0.0127 -0.0637,0.015 -0.0626,0.0174 -0.0612,0.0196 -0.0599,0.0219 -0.0583,0.024 -0.0567,0.026 -0.0551,0.0281 -0.0533,0.0301 -0.0515,0.0319 -0.0496,0.0337 -0.0476,0.0354 -0.0455,0.0371 -0.0435,0.0386 -0.0413,0.0401 -0.0391,0.0415 -0.0369,0.0428 -0.0346,0.044 -0.0322,0.0452 -0.0299,0.0462 -0.0275,0.0472 -0.0251,0.048 -0.0226,0.0489 -0.0201,0.0496 -0.0177,0.0502 -0.0152,0.0507 -0.0127,0.0512 -0.0101,0.0515 -0.0076,0.0519 -0.0051,0.052 -0.0025,0.0522 1e-4,0.0522 0.0025,0.0522 0.0051,0.0521 0.0077,0.0518 0.0102,0.0515 0.0127,0.0512 0.0152,0.0507 0.0177,0.0502 0.0202,0.0496 0.0227,0.0488 0.0251,0.048 0.0276,0.0472 0.0299,0.0462 0.0323,0.0451 0.0346,0.044 0.0369,0.0428 0.0392,0.0415 0.0413,0.0401 0.0435,0.0386 0.0457,0.037 0.0476,0.0354 0.0496,0.0337 0.0515,0.0318 0.0534,0.03 0.0551,0.0281 0.0567,0.026 0.0584,0.024 0.0599,0.0218 0.0612,0.0196 0.0626,0.0173 0.0638,0.015 0.0649,0.0126 0.0658,0.0103 0.0668,0.0078 0.0675,0.0053 0.0681,0.0027 0.0687,3e-4 0.0691,-0.0023 0.0693,-0.0049 0.0695,-0.0074 0.0696,-0.01 L -1.3751,1.1998 -1.306,1.1847 -1.2372,1.167 -1.169,1.1469 -1.1014,1.1243 -1.0345,1.0993 -0.9686,1.0719 -0.9038,1.0422 -0.8401,1.0103 -0.7778,0.9762 -0.717,0.94 -0.6577,0.9017 -0.6002,0.8616 -0.5445,0.8197 -0.4909,0.7761 -0.4393,0.731 -0.39,0.6845 -0.3431,0.6368 -0.2987,0.588 -0.257,0.5383 -0.2179,0.488 -0.1817,0.4372 -0.1485,0.3863 -0.1184,0.3356 -0.0915,0.2853 -0.0678,0.2358 -0.0475,0.1877 -0.0307,0.1415 -0.0175,0.098 -0.0079,0.0582 -0.0021,0.0242 0,0 z" />
      <g
         style="stroke-width:0.02513397;stroke-miterlimit:4;stroke-dasharray:none"
         id="arrows21">
        <use
           style="stroke-width:0.01047249;stroke-miterlimit:4;stroke-dasharray:none"
           height="600"
           width="700"
           y="0"
           x="0"
           id="use146"
           transform="matrix(-2.2369707,-0.86946088,0.86946088,-2.2369707,-1.0129,-1.0901)"
           xlink:href="#arrow1" />
        <use
           style="stroke-width:0.01047249;stroke-miterlimit:4;stroke-dasharray:none"
           height="600"
           width="700"
           y="0"
           x="0"
           id="use148"
           transform="matrix(2.204437,-0.94892447,0.94892447,2.204437,-1.0128,1.0902)"
           xlink:href="#arrow1" />
      </g>
    </g>
    <g
       transform="matrix(19.261694,7.0106542,0,-32.102824,202.96848,465.63073)"
       id="fieldline22"
       style="fill:none;stroke:#000000;stroke-width:0.02513397;stroke-linecap:round;stroke-linejoin:round;stroke-miterlimit:4;stroke-dasharray:none">
      <path
         style="stroke-width:0.02513397;stroke-miterlimit:4;stroke-dasharray:none"
         inkscape:connector-curvature="0"
         id="path151"
         d="m 0,0 -0.0022,-0.0221 -0.0059,-0.0302 -0.0097,-0.0349 -0.0132,-0.0379 -0.0167,-0.04 -0.02,-0.0412 -0.0233,-0.042 -0.0265,-0.0423 -0.0294,-0.0423 -0.0323,-0.0419 -0.0351,-0.0412 -0.0376,-0.0404 -0.0401,-0.0392 -0.0423,-0.0378 -0.0446,-0.0364 -0.0464,-0.0347 -0.0484,-0.0329 -0.05,-0.0309 -0.0515,-0.0289 -0.0528,-0.0268 -0.0541,-0.0245 -0.055,-0.0221 -0.056,-0.0198 -0.0566,-0.0174 -0.0572,-0.0149 -0.0576,-0.0123 -0.0577,-0.0098 -0.0579,-0.0073 -0.0577,-0.0047 -0.0575,-0.0021 -0.0571,3e-4 -0.0566,0.003 -0.0558,0.0054 -0.0551,0.0078 -0.0541,0.0103 -0.0529,0.0127 -0.0518,0.0149 -0.0504,0.0172 -0.049,0.0193 -0.0474,0.0215 -0.0457,0.0234 -0.044,0.0254 -0.0422,0.0272 -0.0402,0.029 -0.0381,0.0306 -0.0361,0.0322 -0.034,0.0336 -0.0317,0.035 -0.0295,0.0363 -0.0271,0.0374 -0.0248,0.0385 -0.0225,0.0394 -0.0199,0.0403 -0.0176,0.041 -0.0151,0.0417 -0.0125,0.0422 -0.0101,0.0427 -0.0076,0.043 -0.005,0.0432 -0.0025,0.0434 0,0.0434 0.0026,0.0434 0.0051,0.0433 0.0077,0.0429 0.0101,0.0427 0.0127,0.0422 0.0151,0.0416 0.0177,0.041 0.02,0.0403 0.0225,0.0394 0.0249,0.0384 0.0273,0.0374 0.0295,0.0362 0.0318,0.035 0.034,0.0336 0.0362,0.0321 0.0382,0.0306 0.0403,0.0289 0.0422,0.0272 0.044,0.0253 0.0458,0.0234 0.0475,0.0213 0.049,0.0193 0.0505,0.0171 0.0518,0.0149 0.053,0.0125 0.0541,0.0102 0.0551,0.0078 0.0559,0.0054 0.0565,0.0028 0.0571,3e-4 0.0576,-0.0022 0.0577,-0.0048 0.0578,-0.0073 0.0578,-0.0099 0.0576,-0.0125 0.0571,-0.0149 0.0566,-0.0175 0.056,-0.0198 0.055,-0.0223 0.054,-0.0246 0.0528,-0.0268 0.0515,-0.0289 0.0499,-0.0311 0.0483,-0.0329 0.0464,-0.0348 0.0445,-0.0364 0.0422,-0.0379 0.04,-0.0392 0.0376,-0.0404 0.0349,-0.0412 0.0323,-0.042 L -0.1166,0.2893 -0.0902,0.2469 -0.067,0.205 -0.0471,0.1638 -0.0305,0.1239 -0.0174,0.086 -0.0079,0.0512 -0.0021,0.0213 0,0 z" />
      <g
         style="stroke-width:0.02513397;stroke-miterlimit:4;stroke-dasharray:none"
         id="arrows22">
        <use
           style="stroke-width:0.01047249;stroke-miterlimit:4;stroke-dasharray:none"
           height="600"
           width="700"
           y="0"
           x="0"
           id="use154"
           transform="matrix(-2.3997944,-0.03141503,0.03141503,-2.3997944,-1.1637,-0.8576)"
           xlink:href="#arrow1" />
        <use
           style="stroke-width:0.01047249;stroke-miterlimit:4;stroke-dasharray:none"
           height="600"
           width="700"
           y="0"
           x="0"
           id="use156"
           transform="matrix(2.3949704,-0.15529554,0.15529554,2.3949704,-1.1637,0.8576)"
           xlink:href="#arrow1" />
      </g>
    </g>
    <g
       transform="matrix(19.261694,7.0106542,0,-32.102824,202.96848,465.63073)"
       id="fieldline23"
       style="fill:none;stroke:#000000;stroke-width:0.02513397;stroke-linecap:round;stroke-linejoin:round;stroke-miterlimit:4;stroke-dasharray:none">
      <path
         style="stroke-width:0.02513397;stroke-miterlimit:4;stroke-dasharray:none"
         inkscape:connector-curvature="0"
         id="path159"
         d="m 0,0 -0.0022,-0.0201 -0.006,-0.027 -0.0095,-0.0311 -0.0131,-0.0335 -0.0164,-0.035 -0.0198,-0.0358 -0.0228,-0.0362 -0.0258,-0.0361 -0.0285,-0.0356 -0.0313,-0.0348 -0.0337,-0.0337 -0.036,-0.0325 -0.0381,-0.031 -0.0401,-0.0293 -0.0419,-0.0275 -0.0434,-0.0255 -0.0449,-0.0234 -0.0461,-0.0211 -0.0471,-0.0189 -0.0479,-0.0165 -0.0486,-0.014 -0.049,-0.0116 -0.0493,-0.0091 -0.0495,-0.0065 -0.0493,-0.0039 -0.0491,-0.0015 -0.0486,0.0011 -0.0481,0.0036 -0.0473,0.0061 -0.0463,0.0084 -0.0453,0.0108 -0.044,0.0131 -0.0427,0.0153 -0.0412,0.0174 -0.0396,0.0194 -0.0379,0.0214 -0.036,0.0233 -0.0341,0.0249 -0.0321,0.0266 -0.03,0.0281 -0.0278,0.0295 -0.0256,0.0308 -0.0233,0.0319 -0.021,0.033 -0.0185,0.0339 -0.0162,0.0347 -0.0137,0.0354 -0.0112,0.036 -0.0088,0.0364 -0.0062,0.0368 -0.0037,0.037 -0.0012,0.0371 0.0013,0.0371 0.0038,0.037 0.0064,0.0367 0.0088,0.0364 0.0113,0.036 0.0138,0.0354 0.0163,0.0346 0.0187,0.0339 0.021,0.0329 0.0234,0.0319 0.0257,0.0308 0.0279,0.0294 0.0301,0.028 0.0321,0.0265 0.0342,0.0249 0.0361,0.0232 0.038,0.0213 0.0396,0.0194 0.0413,0.0173 0.0428,0.0152 0.0441,0.013 0.0453,0.0107 0.0464,0.0083 0.0473,0.006 0.0481,0.0035 0.0486,0.001 0.0491,-0.0016 0.0494,-0.0041 0.0494,-0.0066 0.0493,-0.0091 0.0491,-0.0117 0.0485,-0.0142 0.0479,-0.0165 0.0471,-0.019 0.046,-0.0213 0.0448,-0.0234 0.0434,-0.0256 0.0418,-0.0276 0.04,-0.0293 L -0.2435,0.3901 -0.2076,0.3576 -0.174,0.3238 -0.1429,0.2889 -0.1144,0.2533 -0.0888,0.2172 -0.0661,0.181 -0.0465,0.1452 -0.0302,0.1102 -0.0173,0.0768 -0.0078,0.0459 -0.0021,0.0192 0,0 z" />
      <g
         style="stroke-width:0.02513397;stroke-miterlimit:4;stroke-dasharray:none"
         id="arrows23">
        <use
           style="stroke-width:0.01047249;stroke-miterlimit:4;stroke-dasharray:none"
           height="600"
           width="700"
           y="0"
           x="0"
           id="use162"
           transform="matrix(-2.1301783,1.105595,-1.105595,-2.1301783,-1.2551,-0.5539)"
           xlink:href="#arrow1" />
        <use
           style="stroke-width:0.01047249;stroke-miterlimit:4;stroke-dasharray:none"
           height="600"
           width="700"
           y="0"
           x="0"
           id="use164"
           transform="matrix(2.2233534,0.90371438,-0.90371438,2.2233534,-1.2551,0.5538)"
           xlink:href="#arrow1" />
      </g>
    </g>
    <g
       transform="matrix(19.261694,7.0106542,0,-32.102824,202.96848,465.63073)"
       id="fieldline24"
       style="fill:none;stroke:#000000;stroke-width:0.02513397;stroke-linecap:round;stroke-linejoin:round;stroke-miterlimit:4;stroke-dasharray:none">
      <path
         style="stroke-width:0.02513397;stroke-miterlimit:4;stroke-dasharray:none"
         inkscape:connector-curvature="0"
         id="path167"
         d="m 0,0 -0.0022,-0.0184 -0.0059,-0.0248 -0.0095,-0.0284 -0.013,-0.0305 -0.0164,-0.0316 -0.0195,-0.0321 -0.0225,-0.0321 -0.0254,-0.0317 -0.028,-0.0308 -0.0305,-0.0298 -0.0327,-0.0284 -0.0348,-0.0268 -0.0366,-0.0251 -0.0383,-0.023 -0.0398,-0.021 -0.041,-0.0188 -0.042,-0.0165 -0.0427,-0.014 -0.0434,-0.0116 -0.0438,-0.0091 -0.0439,-0.0065 -0.0439,-0.004 -0.0436,-0.0014 -0.0433,0.0011 -0.0425,0.0036 -0.0418,0.0061 -0.0408,0.0085 -0.0396,0.0108 -0.0383,0.013 -0.0369,0.0152 -0.0352,0.0173 -0.0335,0.0192 -0.0316,0.021 -0.0297,0.0227 -0.0276,0.0243 -0.0255,0.0258 -0.0232,0.0271 -0.0209,0.0283 -0.0186,0.0293 -0.0162,0.0303 -0.0137,0.031 -0.0113,0.0317 -0.0088,0.0322 -0.0063,0.0326 -0.0038,0.0328 -0.0012,0.033 0.0013,0.033 0.0039,0.0329 0.0063,0.0326 0.0089,0.0321 0.0114,0.0317 0.0138,0.031 0.0163,0.0303 0.0186,0.0293 0.021,0.0282 0.0233,0.0271 0.0255,0.0257 0.0277,0.0242 0.0297,0.0227 0.0317,0.021 0.0336,0.0191 0.0353,0.0172 0.0369,0.0151 0.0383,0.013 0.0397,0.0107 0.0408,0.0084 0.0418,0.006 0.0426,0.0036 0.0432,0.001 0.0437,-0.0015 0.0439,-0.0041 0.0439,-0.0066 0.0438,-0.0091 0.0433,-0.0117 0.0428,-0.0141 0.042,-0.0166 0.0409,-0.0188 0.0397,-0.0211 0.0383,-0.0231 0.0366,-0.0251 0.0347,-0.0269 0.0326,-0.0284 0.0304,-0.0298 0.028,-0.0309 L -0.0883,0.1969 -0.0658,0.1648 -0.0464,0.1327 -0.0302,0.1011 -0.0173,0.0707 -0.0079,0.0423 -0.0021,0.0177 0,0 z" />
      <g
         style="stroke-width:0.02513397;stroke-miterlimit:4;stroke-dasharray:none"
         id="arrows24">
        <use
           style="stroke-width:0.01047249;stroke-miterlimit:4;stroke-dasharray:none"
           height="600"
           width="700"
           y="0"
           x="0"
           id="use170"
           transform="matrix(0.19999199,2.3916528,-2.3916528,0.19999199,-1.2889,-1e-4)"
           xlink:href="#arrow1" />
      </g>
    </g>
    <g
       transform="matrix(19.261694,7.0106542,0,-32.102824,202.96848,465.63073)"
       id="fieldline25"
       style="fill:none;stroke:#000000;stroke-width:0.02513397;stroke-linecap:round;stroke-linejoin:round;stroke-miterlimit:4;stroke-dasharray:none">
      <path
         style="stroke-width:0.02513397;stroke-miterlimit:4;stroke-dasharray:none"
         inkscape:connector-curvature="0"
         id="path173"
         d="m 0,0 -0.0023,-0.0179 -0.006,-0.0234 -0.0095,-0.0267 -0.013,-0.0285 -0.0162,-0.0293 -0.0193,-0.0296 -0.0222,-0.0293 -0.025,-0.0286 -0.0274,-0.0277 -0.0297,-0.0263 -0.0318,-0.0249 -0.0337,-0.023 -0.0353,-0.0211 -0.0367,-0.0191 -0.0379,-0.0167 -0.0388,-0.0145 -0.0396,-0.012 -0.0401,-0.0096 -0.0403,-0.0071 -0.0404,-0.0045 -0.0402,-0.002 -0.0398,6e-4 -0.0393,0.003 -0.0384,0.0055 -0.0375,0.0079 -0.0362,0.0102 -0.035,0.0124 -0.0335,0.0145 -0.0318,0.0166 -0.03,0.0184 -0.0281,0.0202 -0.0261,0.0218 -0.024,0.0233 -0.0219,0.0246 -0.0195,0.0259 -0.0172,0.0269 -0.0148,0.0278 -0.0124,0.0286 -0.01,0.0293 -0.0074,0.0297 -0.005,0.0301 -0.0024,0.0303 0,0.0303 0.0026,0.0302 0.0051,0.0301 0.0077,0.0297 0.01,0.0292 0.0126,0.0286 0.015,0.0277 0.0173,0.0269 0.0197,0.0258 0.0219,0.0246 0.0242,0.0232 0.0262,0.0217 0.0283,0.0201 0.0301,0.0183 0.0319,0.0164 0.0336,0.0144 0.035,0.0123 0.0364,0.01 0.0375,0.0078 0.0385,0.0053 0.0392,0.0029 0.0399,4e-4 L -0.5428,0.4196 -0.5024,0.4149 -0.4621,0.4077 -0.422,0.398 -0.3825,0.3858 -0.3437,0.3712 -0.3058,0.3543 -0.2692,0.3351 -0.234,0.3139 -0.2004,0.2907 -0.1688,0.2658 -0.1392,0.2394 -0.1119,0.2116 -0.0871,0.1829 -0.0651,0.1536 -0.0459,0.124 -0.0299,0.0947 -0.0171,0.0664 -0.0078,0.0398 -0.0021,0.0167 0,0 z" />
      <g
         style="stroke-width:0.02513397;stroke-miterlimit:4;stroke-dasharray:none"
         id="arrows25">
        <use
           style="stroke-width:0.01047249;stroke-miterlimit:4;stroke-dasharray:none"
           height="600"
           width="700"
           y="0"
           x="0"
           id="use176"
           transform="matrix(0.22711098,2.3892301,-2.3892301,0.22711098,-1.0951,-1e-4)"
           xlink:href="#arrow1" />
      </g>
    </g>
    <g
       transform="matrix(19.261694,7.0106542,0,-32.102824,202.96848,465.63073)"
       id="fieldline26"
       style="fill:none;stroke:#000000;stroke-width:0.02513397;stroke-linecap:round;stroke-linejoin:round;stroke-miterlimit:4;stroke-dasharray:none">
      <path
         style="stroke-width:0.02513397;stroke-miterlimit:4;stroke-dasharray:none"
         inkscape:connector-curvature="0"
         id="path179"
         d="m 0,0 -0.0023,-0.0171 -0.0059,-0.0223 -0.0095,-0.0254 -0.0129,-0.027 -0.0161,-0.0277 -0.0191,-0.0277 -0.0219,-0.0274 -0.0246,-0.0265 -0.0269,-0.0254 -0.0291,-0.0239 -0.0311,-0.0223 -0.0328,-0.0204 -0.0342,-0.0183 -0.0355,-0.0161 -0.0364,-0.0138 -0.0372,-0.0114 -0.0376,-0.0089 -0.038,-0.0064 -0.0379,-0.0039 -0.0377,-0.0013 -0.0373,0.0012 -0.0367,0.0037 -0.0357,0.006 -0.0348,0.0085 -0.0334,0.0107 -0.0321,0.0128 -0.0304,0.0149 -0.0287,0.0168 -0.0268,0.0187 -0.0249,0.0202 -0.0227,0.0218 -0.0206,0.0231 -0.0183,0.0244 -0.016,0.0253 -0.0136,0.0263 -0.0111,0.0271 -0.0087,0.0276 -0.0062,0.028 -0.0037,0.0284 -0.0012,0.0285 0.0013,0.0285 0.0039,0.0283 0.0063,0.0281 0.0088,0.0276 0.0113,0.0269 0.0138,0.0263 0.016,0.0253 0.0185,0.0243 0.0207,0.023 0.0228,0.0217 0.025,0.0202 0.0269,0.0185 0.0288,0.0168 0.0306,0.0147 0.0321,0.0128 0.0335,0.0106 0.0348,0.0083 0.0358,0.0059 0.0367,0.0035 0.0373,0.0011 0.0378,-0.0015 0.0379,-0.004 0.0379,-0.0065 0.0377,-0.0091 0.0371,-0.0115 0.0364,-0.0139 0.0354,-0.0163 0.0342,-0.0184 0.0327,-0.0205 0.0309,-0.0224 0.029,-0.024 L -0.1108,0.1997 -0.0864,0.1731 -0.0646,0.1457 -0.0457,0.118 -0.0298,0.0903 -0.0171,0.0634 -0.0078,0.0381 -0.0021,0.016 0,0 z" />
      <g
         style="stroke-width:0.02513397;stroke-miterlimit:4;stroke-dasharray:none"
         id="arrows26">
        <use
           style="stroke-width:0.01047249;stroke-miterlimit:4;stroke-dasharray:none"
           height="600"
           width="700"
           y="0"
           x="0"
           id="use182"
           transform="matrix(0.26377869,2.3854603,-2.3854603,0.26377869,-0.9686,-1e-4)"
           xlink:href="#arrow1" />
      </g>
    </g>
    <g
       transform="matrix(19.261694,7.0106542,0,-32.102824,202.96848,465.63073)"
       id="fieldline27"
       style="fill:none;stroke:#000000;stroke-width:0.02513397;stroke-linecap:round;stroke-linejoin:round;stroke-miterlimit:4;stroke-dasharray:none">
      <path
         style="stroke-width:0.02513397;stroke-miterlimit:4;stroke-dasharray:none"
         inkscape:connector-curvature="0"
         id="path185"
         d="m 0,0 0.0022,-0.0184 0.0059,-0.0248 0.0095,-0.0284 0.013,-0.0305 0.0164,-0.0316 0.0195,-0.0321 0.0225,-0.0321 0.0254,-0.0317 0.028,-0.0308 0.0305,-0.0298 0.0327,-0.0284 0.0348,-0.0268 0.0366,-0.0251 0.0383,-0.023 0.0398,-0.021 0.041,-0.0188 0.042,-0.0165 0.0427,-0.014 0.0434,-0.0116 0.0438,-0.0091 0.0439,-0.0065 0.0439,-0.004 0.0436,-0.0014 0.0433,0.0011 0.0425,0.0036 0.0418,0.0061 0.0408,0.0085 0.0396,0.0108 0.0383,0.013 0.0369,0.0152 0.0352,0.0173 0.0335,0.0192 0.0316,0.021 0.0297,0.0227 0.0276,0.0243 0.0255,0.0258 0.0232,0.0271 0.0209,0.0283 0.0186,0.0293 0.0162,0.0303 0.0137,0.031 0.0113,0.0317 0.0088,0.0322 0.0063,0.0326 0.0038,0.0328 L 1.2897,5e-4 1.2884,0.0335 1.2845,0.0664 1.2782,0.099 1.2693,0.1311 1.2579,0.1628 1.2441,0.1938 1.2278,0.2241 1.2092,0.2534 1.1882,0.2816 1.1649,0.3087 1.1394,0.3344 1.1117,0.3586 1.082,0.3813 1.0503,0.4023 1.0167,0.4214 0.9814,0.4386 0.9445,0.4537 0.9062,0.4667 0.8665,0.4774 0.8257,0.4858 0.7839,0.4918 0.7413,0.4954 0.6981,0.4964 0.6544,0.4949 0.6105,0.4908 0.5666,0.4842 0.5228,0.4751 0.4795,0.4634 0.4367,0.4493 0.3947,0.4327 0.3538,0.4139 0.3141,0.3928 0.2758,0.3697 0.2392,0.3446 0.2045,0.3177 0.1719,0.2893 0.1415,0.2595 0.1135,0.2286 0.0883,0.1969 0.0658,0.1648 0.0464,0.1327 0.0302,0.1011 0.0173,0.0707 0.0079,0.0423 0.0021,0.0177 0,0 z" />
      <g
         style="stroke-width:0.02513397;stroke-miterlimit:4;stroke-dasharray:none"
         id="arrows27">
        <use
           style="stroke-width:0.01047249;stroke-miterlimit:4;stroke-dasharray:none"
           height="600"
           width="700"
           y="0"
           x="0"
           id="use188"
           transform="matrix(-0.19999199,2.3916528,-2.3916528,-0.19999199,1.2889,-1e-4)"
           xlink:href="#arrow1" />
      </g>
    </g>
    <g
       transform="matrix(19.261694,7.0106542,0,-32.102824,202.96848,465.63073)"
       id="fieldline28"
       style="fill:none;stroke:#000000;stroke-width:0.02513397;stroke-linecap:round;stroke-linejoin:round;stroke-miterlimit:4;stroke-dasharray:none">
      <path
         style="stroke-width:0.02513397;stroke-miterlimit:4;stroke-dasharray:none"
         inkscape:connector-curvature="0"
         id="path191"
         d="m 0,0 0.0023,-0.0179 0.006,-0.0234 0.0095,-0.0267 0.013,-0.0285 0.0162,-0.0293 0.0193,-0.0296 0.0222,-0.0293 0.025,-0.0286 0.0274,-0.0277 0.0297,-0.0263 0.0318,-0.0249 0.0337,-0.023 0.0353,-0.0211 0.0367,-0.0191 0.0379,-0.0167 0.0388,-0.0145 0.0396,-0.012 0.0401,-0.0096 0.0403,-0.0071 0.0404,-0.0045 0.0402,-0.002 0.0398,6e-4 0.0393,0.003 0.0384,0.0055 0.0375,0.0079 0.0362,0.0102 0.035,0.0124 0.0335,0.0145 0.0318,0.0166 0.03,0.0184 0.0281,0.0202 0.0261,0.0218 0.024,0.0233 0.0219,0.0246 0.0195,0.0259 0.0172,0.0269 0.0148,0.0278 0.0124,0.0286 0.01,0.0293 0.0074,0.0297 0.005,0.0301 0.0024,0.0303 0,0.0303 L 1.0931,0.0463 1.088,0.0764 1.0803,0.1061 1.0703,0.1353 1.0577,0.1639 1.0427,0.1916 1.0254,0.2185 1.0057,0.2443 0.9838,0.2689 0.9596,0.2921 0.9334,0.3138 0.9051,0.3339 0.875,0.3522 0.8431,0.3686 0.8095,0.383 0.7745,0.3953 0.7381,0.4053 0.7006,0.4131 0.6621,0.4184 0.6229,0.4213 0.583,0.4217 0.5428,0.4196 0.5024,0.4149 0.4621,0.4077 0.422,0.398 0.3825,0.3858 0.3437,0.3712 0.3058,0.3543 0.2692,0.3351 0.234,0.3139 0.2004,0.2907 0.1688,0.2658 0.1392,0.2394 0.1119,0.2116 0.0871,0.1829 0.0651,0.1536 0.0459,0.124 0.0299,0.0947 0.0171,0.0664 0.0078,0.0398 0.0021,0.0167 0,0 z" />
      <g
         style="stroke-width:0.02513397;stroke-miterlimit:4;stroke-dasharray:none"
         id="arrows28">
        <use
           style="stroke-width:0.01047249;stroke-miterlimit:4;stroke-dasharray:none"
           height="600"
           width="700"
           y="0"
           x="0"
           id="use194"
           transform="matrix(-0.22711098,2.3892301,-2.3892301,-0.22711098,1.0951,-1e-4)"
           xlink:href="#arrow1" />
      </g>
    </g>
    <g
       transform="matrix(19.261694,7.0106542,0,-32.102824,202.96848,465.63073)"
       id="fieldline29"
       style="fill:none;stroke:#000000;stroke-width:0.02513397;stroke-linecap:round;stroke-linejoin:round;stroke-miterlimit:4;stroke-dasharray:none">
      <path
         style="stroke-width:0.02513397;stroke-miterlimit:4;stroke-dasharray:none"
         inkscape:connector-curvature="0"
         id="path197"
         d="m 0,0 0.0023,-0.0171 0.0059,-0.0223 0.0095,-0.0254 0.0129,-0.027 0.0161,-0.0277 0.0191,-0.0277 0.0219,-0.0274 0.0246,-0.0265 0.0269,-0.0254 0.0291,-0.0239 0.0311,-0.0223 0.0328,-0.0204 0.0342,-0.0183 0.0355,-0.0161 0.0364,-0.0138 0.0372,-0.0114 0.0376,-0.0089 0.038,-0.0064 0.0379,-0.0039 0.0377,-0.0013 0.0373,0.0012 0.0367,0.0037 0.0357,0.006 0.0348,0.0085 0.0334,0.0107 0.0321,0.0128 0.0304,0.0149 0.0287,0.0168 0.0268,0.0187 0.0249,0.0202 0.0227,0.0218 0.0206,0.0231 0.0183,0.0244 0.016,0.0253 0.0136,0.0263 0.0111,0.0271 0.0087,0.0276 0.0062,0.028 0.0037,0.0284 L 0.9696,8e-4 0.9683,0.0293 0.9644,0.0576 0.9581,0.0857 0.9493,0.1133 0.938,0.1402 0.9242,0.1665 0.9082,0.1918 0.8897,0.2161 0.869,0.2391 0.8462,0.2608 0.8212,0.281 0.7943,0.2995 0.7655,0.3163 0.7349,0.331 0.7028,0.3438 0.6693,0.3544 0.6345,0.3627 0.5987,0.3686 0.562,0.3721 0.5247,0.3732 0.4869,0.3717 0.449,0.3677 0.4111,0.3612 0.3734,0.3521 0.3363,0.3406 0.2999,0.3267 0.2645,0.3104 0.2303,0.292 0.1976,0.2715 0.1667,0.2491 0.1377,0.2251 0.1108,0.1997 0.0864,0.1731 0.0646,0.1457 0.0457,0.118 0.0298,0.0903 0.0171,0.0634 0.0078,0.0381 0.0021,0.016 0,0 z" />
      <g
         style="stroke-width:0.02513397;stroke-miterlimit:4;stroke-dasharray:none"
         id="arrows29">
        <use
           style="stroke-width:0.01047249;stroke-miterlimit:4;stroke-dasharray:none"
           height="600"
           width="700"
           y="0"
           x="0"
           id="use200"
           transform="matrix(-0.26377869,2.3854603,-2.3854603,-0.26377869,0.9686,-1e-4)"
           xlink:href="#arrow1" />
      </g>
    </g>
  </g>
  <g
     id="g5154"
     transform="matrix(1.3433553,0,0,1.3433553,-555.24688,-198.63951)">
    <path
       transform="translate(-0.16875664,-1.9828906)"
       d="m 351.01382,467.61041 c 0,4.59019 -3.1072,8.31127 -6.94012,8.31127 -3.83292,0 -6.94012,-3.72108 -6.94012,-8.31127 0,-4.59018 3.1072,-8.31126 6.94012,-8.31126 3.83292,0 6.94012,3.72108 6.94012,8.31126 z"
       sodipodi:ry="8.311265"
       sodipodi:rx="6.9401169"
       sodipodi:cy="467.61041"
       sodipodi:cx="344.0737"
       id="path4639"
       style="color:#000000;fill:#7f7f7f;fill-opacity:1;stroke:none;stroke-width:1;marker:none;visibility:visible;display:inline;overflow:visible;enable-background:accumulate"
       sodipodi:type="arc" />
    <path
       sodipodi:nodetypes="cc"
       inkscape:connector-curvature="0"
       id="path4255"
       d="m 344.66476,465.4958 50.7692,16.77324"
       style="color:#000000;fill:none;stroke:#ffffff;stroke-width:0.56890935;stroke-linecap:butt;stroke-linejoin:miter;stroke-miterlimit:4;stroke-opacity:1;stroke-dasharray:none;stroke-dashoffset:0;marker:none;visibility:visible;display:inline;overflow:visible;enable-background:accumulate" />
    <path
       sodipodi:nodetypes="cc"
       inkscape:connector-curvature="0"
       id="path4385"
       d="m 344.2083,465.6615 -26.85429,23.54132"
       style="color:#000000;fill:none;stroke:#ffffff;stroke-width:0.56890935;stroke-linecap:butt;stroke-linejoin:miter;stroke-miterlimit:4;stroke-opacity:1;stroke-dasharray:none;stroke-dashoffset:0;marker:none;visibility:visible;display:inline;overflow:visible;enable-background:accumulate" />
    <path
       sodipodi:nodetypes="cc"
       inkscape:connector-curvature="0"
       id="path4387"
       d="m 344.30725,465.56655 26.28291,23.40724"
       style="color:#000000;fill:none;stroke:#ffffff;stroke-width:0.56890935;stroke-linecap:butt;stroke-linejoin:miter;stroke-miterlimit:4;stroke-opacity:1;stroke-dasharray:none;stroke-dashoffset:0;marker:none;visibility:visible;display:inline;overflow:visible;enable-background:accumulate" />
    <path
       sodipodi:nodetypes="ccc"
       inkscape:connector-curvature="0"
       id="path4389"
       d="m 344.32997,465.63417 -0.0924,24.71964 0,0.91061"
       style="color:#000000;fill:none;stroke:#ffffff;stroke-width:0.56890935;stroke-linecap:butt;stroke-linejoin:miter;stroke-miterlimit:4;stroke-opacity:1;stroke-dasharray:none;stroke-dashoffset:0;marker:none;visibility:visible;display:inline;overflow:visible;enable-background:accumulate" />
    <path
       sodipodi:nodetypes="cc"
       inkscape:connector-curvature="0"
       id="path4255-7"
       d="m 307.33739,452.8182 37.20163,12.63239"
       style="color:#000000;fill:none;stroke:#ffffff;stroke-width:0.56890935;stroke-linecap:butt;stroke-linejoin:miter;stroke-miterlimit:4;stroke-opacity:1;stroke-dasharray:none;stroke-dashoffset:0;marker:none;visibility:visible;display:inline;overflow:visible;enable-background:accumulate" />
    <path
       sodipodi:nodetypes="cc"
       inkscape:connector-curvature="0"
       id="path4413"
       d="m 344.47436,465.5385 -57.72203,12.04837"
       style="color:#000000;fill:none;stroke:#ffffff;stroke-width:0.56890935;stroke-linecap:butt;stroke-linejoin:miter;stroke-miterlimit:4;stroke-opacity:1;stroke-dasharray:none;stroke-dashoffset:0;marker:none;visibility:visible;display:inline;overflow:visible;enable-background:accumulate" />
    <path
       sodipodi:nodetypes="cc"
       inkscape:connector-curvature="0"
       id="path4415"
       d="m 344.69422,465.57518 -54.74989,-5.57823"
       style="color:#000000;fill:none;stroke:#ffffff;stroke-width:0.56890935;stroke-linecap:butt;stroke-linejoin:miter;stroke-miterlimit:4;stroke-opacity:1;stroke-dasharray:none;stroke-dashoffset:0;marker:none;visibility:visible;display:inline;overflow:visible;enable-background:accumulate" />
    <path
       inkscape:connector-curvature="0"
       id="path4417-3"
       d="m 341.78995,491.0497 2.21524,2.66873 0.16768,0.2013 0.008,-0.0152 0,0.0152 2.39174,-2.87003 -2.39174,0.1586 0,0.0152 -0.008,0 0,-0.0152 -2.38292,-0.1586 z"
       style="color:#000000;fill:#ffffff;fill-opacity:1;stroke:none;stroke-width:0.875;marker:none;visibility:visible;display:inline;overflow:visible;enable-background:accumulate" />
    <path
       inkscape:connector-curvature="0"
       id="path4417-0"
       d="m 390.56529,482.36069 8.23644,1.23864 0.62151,0.0931 -0.0381,-0.0175 0.0418,0.0132 -6.8708,-3.64795 -0.56072,1.2977 0.0418,0.0132 -0.004,0.004 -0.0418,-0.0132 -1.42642,1.01848 z"
       style="color:#000000;fill:#ffffff;fill-opacity:1;stroke:none;stroke-width:0.875;marker:none;visibility:visible;display:inline;overflow:visible;enable-background:accumulate" />
    <path
       inkscape:connector-curvature="0"
       id="path4417-0-4"
       d="m 309.35026,452.14734 -8.23644,-1.23865 -0.62151,-0.0931 0.0382,0.0175 -0.0418,-0.0132 6.8708,3.64795 0.56072,-1.2977 -0.0418,-0.0132 0.004,-0.004 0.0418,0.0132 1.42643,-1.01847 z"
       style="color:#000000;fill:#ffffff;fill-opacity:1;stroke:none;stroke-width:0.875;marker:none;visibility:visible;display:inline;overflow:visible;enable-background:accumulate" />
    <path
       inkscape:connector-curvature="0"
       id="path4417-0-1-6"
       d="m 291.89808,458.54767 -6.11733,0.64315 -0.46169,0.0489 0.0251,0.0101 -0.0292,-0.004 4.40997,2.36921 0.78279,-1.57965 -0.0292,-0.004 0.004,-0.005 0.0292,0.004 1.38626,-1.48161 z"
       style="color:#000000;fill:#ffffff;fill-opacity:1;stroke:none;stroke-width:0.875;marker:none;visibility:visible;display:inline;overflow:visible;enable-background:accumulate" />
    <path
       inkscape:connector-curvature="0"
       id="path4417-0-1-5"
       d="m 288.57229,479.12863 -6.14589,-0.32896 -0.46386,-0.0252 0.0246,-0.0114 -0.029,0.006 4.26428,-2.59145 0.87433,1.53719 -0.029,0.006 0.004,0.005 0.029,-0.006 1.47114,1.40841 z"
       style="color:#000000;fill:#ffffff;fill-opacity:1;stroke:none;stroke-width:0.875;marker:none;visibility:visible;display:inline;overflow:visible;enable-background:accumulate" />
    <path
       inkscape:connector-curvature="0"
       id="path4417-0-1-7"
       d="m 320.34535,489.24432 -5.02483,2.68367 -0.37953,0.20221 0.01,-0.0225 -0.0178,0.0195 1.2562,-4.48868 1.89367,1.00657 -0.0178,0.0195 0.008,0.003 0.0178,-0.0195 2.2545,0.59624 z"
       style="color:#000000;fill:#ffffff;fill-opacity:1;stroke:none;stroke-width:0.875;marker:none;visibility:visible;display:inline;overflow:visible;enable-background:accumulate" />
    <path
       inkscape:connector-curvature="0"
       id="path4417-0-1-7-2"
       d="m 368.08282,489.44127 5.02483,2.68366 0.37953,0.20222 -0.01,-0.0225 0.0178,0.0195 -1.2562,-4.48868 -1.89367,1.00657 0.0178,0.0195 -0.008,0.003 -0.0178,-0.0195 -2.25449,0.59623 z"
       style="color:#000000;fill:#ffffff;fill-opacity:1;stroke:none;stroke-width:0.875;marker:none;visibility:visible;display:inline;overflow:visible;enable-background:accumulate" />
  </g>
  <path
     sodipodi:type="arc"
     style="color:#000000;fill:none;stroke:#ffffff;stroke-width:1.00024176;stroke-linecap:butt;stroke-linejoin:miter;stroke-miterlimit:4;stroke-opacity:1;stroke-dasharray:2.00048354, 2.00048354;stroke-dashoffset:0;marker:none;visibility:visible;display:inline;overflow:visible;enable-background:accumulate"
     id="path4409"
     sodipodi:cx="345.51074"
     sodipodi:cy="469.69214"
     sodipodi:rx="66.255371"
     sodipodi:ry="34.737469"
     d="M 411.05741,474.75936 A 66.255371,34.737469 0 1 1 309.47897,440.54065"
     transform="matrix(1.3433553,0,0,0.94065815,-557.72311,-8.8538022)"
     sodipodi:start="0.1463944"
     sodipodi:end="4.1373927"
     sodipodi:open="true" />
  <text
     xml:space="preserve"
     style="font-size:13.43355274px;font-style:normal;font-variant:normal;font-weight:normal;font-stretch:normal;text-indent:0;text-align:start;text-decoration:none;line-height:125%;letter-spacing:0px;word-spacing:0px;text-transform:none;direction:ltr;block-progression:tb;writing-mode:lr-tb;text-anchor:start;baseline-shift:baseline;color:#000000;fill:#ffffff;fill-opacity:1;fill-rule:nonzero;stroke:none;stroke-width:1px;marker:none;visibility:visible;display:inline;overflow:visible;enable-background:accumulate;font-family:FreeSans;-inkscape-font-specification:FreeSans"
     x="-140.50806"
     y="476.31726"
     id="text5171"
     sodipodi:linespacing="125%"><tspan
       sodipodi:role="line"
       id="tspan5173"
       x="-140.50806"
       y="476.31726">E</tspan></text>
  <text
     xml:space="preserve"
     style="font-size:13.43355274px;font-style:normal;font-variant:normal;font-weight:normal;font-stretch:normal;text-indent:0;text-align:start;text-decoration:none;line-height:125%;letter-spacing:0px;word-spacing:0px;text-transform:none;direction:ltr;block-progression:tb;writing-mode:lr-tb;text-anchor:start;baseline-shift:baseline;color:#000000;fill:#000000;fill-opacity:1;fill-rule:nonzero;stroke:none;stroke-width:1px;marker:none;visibility:visible;display:inline;overflow:visible;enable-background:accumulate;font-family:FreeSans;-inkscape-font-specification:FreeSans"
     x="-141.68048"
     y="375.54959"
     id="text5171-8"
     sodipodi:linespacing="125%"><tspan
       sodipodi:role="line"
       id="tspan5173-1"
       x="-141.68048"
       y="375.54959">B</tspan></text>
  <path
     style="color:#000000;fill:#ffffff;fill-opacity:1;stroke:none;stroke-width:0.875;marker:none;visibility:visible;display:inline;overflow:visible;enable-background:accumulate"
     d="m -3.2444582,433.63168 -6.12004,5.96131 2.78664,0.28219 2.41627,1.99299 z"
     id="path5824"
     inkscape:connector-curvature="0"
     sodipodi:nodetypes="ccccc" />
  <path
     style="color:#000000;fill:#7f7f7f;fill-opacity:1;stroke:none;stroke-width:0.875;marker:none;visibility:visible;display:inline;overflow:visible;enable-background:accumulate"
     d="m -74.121118,469.03295 10.31958,28.03809 42.05713,-7.00953 -8.95662,-30.66665 z"
     id="path6014"
     inkscape:connector-curvature="0"
     sodipodi:nodetypes="ccccc" />
  <text
     xml:space="preserve"
     style="font-size:13.43355274px;font-style:normal;font-variant:normal;font-weight:normal;font-stretch:normal;text-indent:0;text-align:start;text-decoration:none;line-height:125%;letter-spacing:0px;word-spacing:0px;text-transform:none;direction:ltr;block-progression:tb;writing-mode:lr-tb;text-anchor:start;baseline-shift:baseline;opacity:0.98000004;color:#000000;fill:#ffffff;fill-opacity:1;fill-rule:nonzero;stroke:none;stroke-width:1px;marker:none;visibility:visible;display:inline;overflow:visible;enable-background:accumulate;font-family:FreeSans;-inkscape-font-specification:FreeSans"
     x="-253.08087"
     y="452.31436"
     id="text6008"
     sodipodi:linespacing="125%"
     transform="matrix(0.97502688,-0.22208686,0.39400973,0.93586713,0,0)"><tspan
       sodipodi:role="line"
       id="tspan6010"
       x="-253.08087"
       y="452.31436">flow of</tspan><tspan
       sodipodi:role="line"
       x="-253.08087"
       y="469.10629"
       id="tspan6012">energy</tspan></text>
  <rect
     style="opacity:1;fill:#dedede;fill-opacity:1;stroke:none"
     id="rect4363"
     width="184.25197"
     height="135.01538"
     x="-184.76477"
     y="164.15619" />
  <g
     id="g3549"
     transform="matrix(0.04997369,-0.99875053,0.99875053,0.04997369,-441.75062,406.7463)">
    <g
       transform="translate(116.35418,131.50212)"
       id="g103"
       style="overflow:visible">
      <rect
         id="rect105"
         height="34.375"
         width="23.125"
         style="fill:#808080;stroke:#000000;stroke-width:0.5;stroke-linejoin:round"
         y="196.64799"
         x="68.074997" />
      <polygon
         id="polygon107"
         points="72.541,194.159 68.075,196.738 91.2,196.738 91.2,196.738 95.666,194.159 "
         style="fill:#808080;stroke:#000000;stroke-width:0.5;stroke-linejoin:round" />
      <polygon
         id="polygon109"
         points="91.044,231.023 95.419,228.498 95.419,194.123 95.419,194.123 91.044,196.648 "
         style="fill:#808080;stroke:#000000;stroke-width:0.5;stroke-linejoin:round" />
      <path
         id="path111"
         d="m 89.692,192.245 -3.203,0 0,2.502 c -0.049,0.075 -0.099,0.15 -0.099,0.232 0,0.439 0.752,0.796 1.679,0.796 0.927,0 1.68,-0.356 1.68,-0.796 0,-0.047 -0.041,-0.088 -0.057,-0.133 l 0,-2.601 z"
         style="fill:#ffffff;stroke:#000000;stroke-width:0.5;stroke-linejoin:round"
         inkscape:connector-curvature="0" />
      <ellipse
         d="m 90.47,192.42799 c 0,0.62795 -1.074517,1.137 -2.4,1.137 -1.325484,0 -2.4,-0.50905 -2.4,-1.137 0,-0.62794 1.074516,-1.137 2.4,-1.137 1.325483,0 2.4,0.50906 2.4,1.137 z"
         sodipodi:ry="1.137"
         sodipodi:rx="2.4000001"
         sodipodi:cy="192.42799"
         sodipodi:cx="88.07"
         id="ellipse113"
         ry="1.137"
         rx="2.4000001"
         cy="192.42799"
         cx="88.07"
         style="fill:#ffffff;stroke:#000000;stroke-width:0.5;stroke-linejoin:round" />
      <path
         id="path115"
         d="m 77.319,192.87 -3.203,0 0,1.6 c -0.049,0.075 -0.1,0.15 -0.1,0.233 0,0.439 0.752,0.795 1.68,0.795 0.927,0 1.679,-0.356 1.679,-0.795 0,-0.047 -0.04,-0.088 -0.057,-0.134 l 0,-1.699 0.001,0 z"
         style="fill:#ffffff;stroke:#000000;stroke-width:0.5;stroke-linejoin:round"
         inkscape:connector-curvature="0" />
      <ellipse
         d="m 77.212999,192.636 c 0,0.39654 -0.678737,0.718 -1.516,0.718 -0.837264,0 -1.516,-0.32146 -1.516,-0.718 0,-0.39654 0.678736,-0.718 1.516,-0.718 0.837263,0 1.516,0.32146 1.516,0.718 z"
         sodipodi:ry="0.71799999"
         sodipodi:rx="1.516"
         sodipodi:cy="192.636"
         sodipodi:cx="75.696999"
         id="ellipse117"
         ry="0.71799999"
         rx="1.516"
         cy="192.636"
         cx="75.696999"
         style="fill:#ffffff;stroke:#000000;stroke-width:0.5;stroke-linejoin:round" />
    </g>
    <g
       transform="translate(116.35418,131.50212)"
       id="g119"
       style="overflow:visible">
      <circle
         d="m 89.978002,149.069 c 0,4.51548 -3.66052,8.176 -8.176,8.176 -4.51548,0 -8.176,-3.66052 -8.176,-8.176 0,-4.51548 3.66052,-8.176 8.176,-8.176 4.51548,0 8.176,3.66052 8.176,8.176 z"
         sodipodi:ry="8.1759996"
         sodipodi:rx="8.1759996"
         sodipodi:cy="149.069"
         sodipodi:cx="81.802002"
         id="circle121"
         r="8.1759996"
         cy="149.069"
         cx="81.802002"
         style="fill:#ffffff;stroke:#000000;stroke-width:0.5;stroke-linejoin:round" />
      <g
         id="g123">
        <ellipse
           d="m 86.398002,156.605 c 0,1.26915 -2.057699,2.298 -4.596,2.298 -2.538301,0 -4.596,-1.02885 -4.596,-2.298 0,-1.26915 2.057699,-2.298 4.596,-2.298 2.538301,0 4.596,1.02885 4.596,2.298 z"
           sodipodi:ry="2.2980001"
           sodipodi:rx="4.5960002"
           sodipodi:cy="156.605"
           sodipodi:cx="81.802002"
           id="ellipse125"
           ry="2.2980001"
           rx="4.5960002"
           cy="156.605"
           cx="81.802002"
           style="fill:#ffffff;stroke:#000000;stroke-width:0.5;stroke-linejoin:round" />
        <ellipse
           d="m 86.398002,157.455 c 0,1.26915 -2.057699,2.298 -4.596,2.298 -2.538301,0 -4.596,-1.02885 -4.596,-2.298 0,-1.26915 2.057699,-2.298 4.596,-2.298 2.538301,0 4.596,1.02885 4.596,2.298 z"
           sodipodi:ry="2.2980001"
           sodipodi:rx="4.5960002"
           sodipodi:cy="157.455"
           sodipodi:cx="81.802002"
           id="ellipse127"
           ry="2.2980001"
           rx="4.5960002"
           cy="157.455"
           cx="81.802002"
           style="fill:#ffffff;stroke:#000000;stroke-width:0.5;stroke-linejoin:round" />
        <ellipse
           d="m 86.398002,158.306 c 0,1.26915 -2.057699,2.298 -4.596,2.298 -2.538301,0 -4.596,-1.02885 -4.596,-2.298 0,-1.26915 2.057699,-2.298 4.596,-2.298 2.538301,0 4.596,1.02885 4.596,2.298 z"
           sodipodi:ry="2.2980001"
           sodipodi:rx="4.5960002"
           sodipodi:cy="158.306"
           sodipodi:cx="81.802002"
           id="ellipse129"
           ry="2.2980001"
           rx="4.5960002"
           cy="158.306"
           cx="81.802002"
           style="fill:#ffffff;stroke:#000000;stroke-width:0.5;stroke-linejoin:round" />
        <ellipse
           d="m 86.398002,159.15601 c 0,1.26915 -2.057699,2.298 -4.596,2.298 -2.538301,0 -4.596,-1.02885 -4.596,-2.298 0,-1.26915 2.057699,-2.298 4.596,-2.298 2.538301,0 4.596,1.02885 4.596,2.298 z"
           sodipodi:ry="2.2980001"
           sodipodi:rx="4.5960002"
           sodipodi:cy="159.15601"
           sodipodi:cx="81.802002"
           id="ellipse131"
           ry="2.2980001"
           rx="4.5960002"
           cy="159.15601"
           cx="81.802002"
           style="fill:#ffffff;stroke:#000000;stroke-width:0.5;stroke-linejoin:round" />
        <ellipse
           d="m 86.398002,160.007 c 0,1.26915 -2.057699,2.298 -4.596,2.298 -2.538301,0 -4.596,-1.02885 -4.596,-2.298 0,-1.26915 2.057699,-2.298 4.596,-2.298 2.538301,0 4.596,1.02885 4.596,2.298 z"
           sodipodi:ry="2.2980001"
           sodipodi:rx="4.5960002"
           sodipodi:cy="160.007"
           sodipodi:cx="81.802002"
           id="ellipse133"
           ry="2.2980001"
           rx="4.5960002"
           cy="160.007"
           cx="81.802002"
           style="fill:#ffffff;stroke:#000000;stroke-width:0.5;stroke-linejoin:round" />
        <ellipse
           d="m 86.398002,160.85699 c 0,1.26916 -2.057699,2.298 -4.596,2.298 -2.538301,0 -4.596,-1.02884 -4.596,-2.298 0,-1.26915 2.057699,-2.298 4.596,-2.298 2.538301,0 4.596,1.02885 4.596,2.298 z"
           sodipodi:ry="2.2980001"
           sodipodi:rx="4.5960002"
           sodipodi:cy="160.85699"
           sodipodi:cx="81.802002"
           id="ellipse135"
           ry="2.2980001"
           rx="4.5960002"
           cy="160.85699"
           cx="81.802002"
           style="fill:#ffffff;stroke:#000000;stroke-width:0.5;stroke-linejoin:round" />
        <path
           id="path137-1"
           d="m 81.802,160.375 c -1.258,0 -2.37,0.255 -3.066,0.646 l 2.471,4.279 1.191,0 2.471,-4.279 c -0.696,-0.391 -1.808,-0.646 -3.067,-0.646 z"
           style="fill:#404040;stroke:#000000;stroke-width:0.5;stroke-linejoin:round"
           inkscape:connector-curvature="0" />
        <polygon
           id="polygon139"
           points="82.398,165.301 83.459,163.463 80.146,163.463 80.146,163.463 81.207,165.301 "
           style="fill:#ffffff;stroke:#000000;stroke-width:0.5;stroke-linejoin:round" />
      </g>
      <path
         id="path141"
         d="m 79.716,154.12 c -0.391,-1.641 -3.125,-6.484 -1.016,-5.312 2.109,1.172 1.875,2.031 1.172,1.797 -0.703,-0.234 -1.484,-2.969 0.781,-2.266 2.265,0.703 2.5,2.344 1.562,1.719 -0.938,-0.625 -1.797,-3.359 0.781,-2.188 2.578,1.171 1.797,2.422 1.328,2.578 -0.469,0.156 -0.703,-2.188 0.547,-1.797 1.25,0.391 1.172,2.344 0.781,3.672 -0.391,1.328 -0.859,2.656 -0.859,2.656"
         style="fill:none;stroke:#000000;stroke-width:0.5;stroke-linejoin:round"
         inkscape:connector-curvature="0" />
    </g>
    <path
       id="path143-0"
       d="m 190.35518,323.16512 c -10,-11.333 0.872,-32.357 3.205,-33.357"
       style="fill:none;stroke:#000000;stroke-width:0.5;stroke-linejoin:round;overflow:visible"
       inkscape:connector-curvature="0" />
    <path
       id="path145"
       d="m 197.56118,296.80312 c 5.793,9.657 10.126,18.657 7.793,25.991"
       style="fill:none;stroke:#000000;stroke-width:0.5;stroke-linejoin:round;overflow:visible"
       inkscape:connector-curvature="0" />
  </g>
  <path
     style="color:#000000;fill:#dedede;fill-opacity:1;stroke:none;stroke-width:0.875;marker:none;visibility:visible;display:inline;overflow:visible;enable-background:accumulate"
     d="m -71.740692,212.20367 -3.867527,1.07432 -4.7986,4.18982 -2.291868,2.3993 -0.680398,4.08239 4.333063,3.58104 3.25875,-0.28648 3.867528,-0.93107 2.685783,-0.57297 1.61147,0 3.760096,-8.88099 z"
     id="path4349"
     inkscape:connector-curvature="0" />
  <path
     style="fill:none;stroke:#000000;stroke-width:0.61374652"
     d="m -17.012923,186.97285 c -13.708642,-4.2999 -26.143146,-8.24507 -29.321126,-9.74752 -3.177979,-1.50245 -7.766348,-4.39197 -9.487293,-4.16243 -1.720945,0.22955 -7.294991,3.07487 -8.728703,4.14157 -1.433712,1.06791 -12.434504,6.5634 -13.569935,7.23975 -1.135431,0.67635 -5.666108,2.1567 -7.971339,7.19311 -2.305232,5.0364 -3.670204,9.2467 -3.738944,11.35676 -0.06874,2.11006 1.744267,7.82282 2.16898,9.69229"
     id="path9"
     inkscape:connector-curvature="0"
     sodipodi:nodetypes="csscsssc" />
  <path
     style="fill:none;stroke:#000000;stroke-width:0.61374652"
     d="m -16.034611,213.98752 c -5.564226,1.61784 -10.254477,4.52086 -13.741785,4.63624 -3.487307,0.11539 -9.819944,-0.0908 -12.285977,1.11457 -2.466033,1.20417 -12.204963,3.02945 -15.015922,4.28026 -2.810959,1.25082 -7.582224,2.23772 -9.20006,1.92839 -1.617836,-0.30932 -3.727896,-0.37806 -5.403424,0.19518 -1.674301,0.57446 -6.59532,1.75654 -7.719704,1.20539 -1.124383,-0.54991 -4.004082,-2.44271 -4.141561,-3.47503 -0.137479,-1.03232 0.182897,-3.87765 2.21317,-5.72503 2.030273,-1.84737 4.657108,-4.47421 5.987711,-5.00203 1.330602,-0.52782 6.940245,-1.80196 8.809717,-2.22544 1.869472,-0.42472 6.997938,-2.68576 7.594499,-3.46522 0.596562,-0.77946 5.310135,-6.13746 5.310135,-6.13746"
     id="path11"
     inkscape:connector-curvature="0" />
  <path
     style="fill:none;stroke:#000000;stroke-width:0.61374652"
     d="m -57.780421,204.32101 c 0,0 0.584287,-15.3142 1.179621,-16.09366"
     id="path13"
     inkscape:connector-curvature="0" />
  <path
     style="fill:none;stroke:#000000;stroke-width:0.61374652"
     d="m -58.470272,193.90574 c -3.165704,2.52372 -8.041307,4.05072 -9.061353,2.96071"
     id="path15-6"
     inkscape:connector-curvature="0" />
  <path
     style="fill:none;stroke:#000000;stroke-width:0.61374652"
     d="m -68.478022,195.67946 c -1.7725,0.49959 -7.156285,2.1518 -7.671832,2.22054 -0.515547,0.0687 -2.737309,5.73607 -3.362103,6.95743 -0.624794,1.22258 -1.244678,1.83019 -1.244678,1.83019 0,0 3.367013,4.89156 3.184117,6.14237"
     id="path17"
     inkscape:connector-curvature="0" />
  <path
     style="fill:none;stroke:#000000;stroke-width:0.61374652"
     d="m -66.705522,199.55834 c -2.798684,1.77373 -7.211522,4.581 -7.211522,4.581 l -2.920206,4.35883"
     id="path19"
     inkscape:connector-curvature="0" />
  <line
     style="fill:none;stroke:#000000;stroke-width:0.61374652"
     x1="-67.867958"
     y1="190.84068"
     x2="-68.227615"
     y2="194.27399"
     id="line21" />
  <line
     style="fill:none;stroke:#000000;stroke-width:0.61374652"
     x1="-77.282829"
     y1="196.41595"
     x2="-78.452629"
     y2="195.52112"
     id="line23" />
  <line
     style="fill:none;stroke:#000000;stroke-width:0.61374652"
     x1="-82.902298"
     y1="205.9229"
     x2="-81.694443"
     y2="206.22855"
     id="line25" />
  <polyline
     style="fill:none;stroke:#000000;stroke-width:0.5"
     points="81,114.55 85.5,112.452 87.921,116.694 "
     id="polyline27"
     transform="matrix(1.227493,0,0,1.227493,-181.99412,82.591764)" />
  <path
     style="fill:none;stroke:#000000;stroke-width:0.61374652"
     d="m -69.7718,218.79438 c 0,0 -0.5045,1.46808 0.0061,2.01309"
     id="path29"
     inkscape:connector-curvature="0" />
  <polyline
     style="fill:none;stroke:#000000;stroke-width:0.5"
     points="88.371,95.744 86.683,96.635 86.004,97.962 "
     id="polyline31"
     transform="matrix(1.227493,0,0,1.227493,-181.99412,82.591764)" />
  <rect
     style="opacity:1;fill:#7f7f7f;fill-opacity:1;stroke:none"
     id="rect3573"
     width="184.25197"
     height="56.379337"
     x="-184.76477"
     y="256.19482" />
  <rect
     style="opacity:0.99999999;fill:#ffffff;fill-opacity:1;stroke:none"
     id="rect4365"
     width="4.7689657"
     height="3.8151727"
     x="-185.32578"
     y="227.07838"
     transform="matrix(0.96644753,-0.25686412,0.25686412,0.96644753,0,0)" />
  <rect
     style="opacity:0.99999999;fill:#ffffff;fill-opacity:1;stroke:none"
     id="rect4365-8"
     width="4.7689657"
     height="3.8151727"
     x="93.036469"
     y="284.06769"
     transform="matrix(0.68510834,0.72844119,-0.72844119,0.68510834,0,0)" />
  <rect
     style="opacity:0.99999999;fill:#ffffff;fill-opacity:1;stroke:none"
     id="rect4365-5"
     width="4.7689657"
     height="3.8151727"
     x="5.004034"
     y="288.16681"
     transform="matrix(0.8878535,0.46012625,-0.46012625,0.8878535,0,0)" />
  <rect
     style="opacity:0.99999999;fill:#ffffff;fill-opacity:1;stroke:none"
     id="rect4365-4"
     width="4.7689657"
     height="2.7359712"
     x="-179.07787"
     y="239.49332"
     transform="matrix(0.98618754,-0.16563255,0.16563255,0.98618754,0,0)" />
  <rect
     style="opacity:0.99999999;fill:#ffffff;fill-opacity:1;stroke:none"
     id="rect4365-1"
     width="4.7689657"
     height="5.665226"
     x="-12.45377"
     y="296.77414"
     transform="matrix(0.92039623,0.39098694,-0.39098694,0.92039623,0,0)" />
  <rect
     style="opacity:0.99999999;fill:#ffffff;fill-opacity:1;stroke:none"
     id="rect4365-59"
     width="4.7689657"
     height="3.8151727"
     x="-180.46506"
     y="231.08383"
     transform="matrix(0.98443339,-0.17575807,0.17575807,0.98443339,0,0)" />
  <rect
     style="opacity:0.99999999;fill:#ffffff;fill-opacity:1;stroke:none"
     id="rect4365-3"
     width="4.7689657"
     height="3.8151727"
     x="-202.80516"
     y="223.46614"
     transform="matrix(0.9809327,-0.1943477,0.1943477,0.9809327,0,0)" />
  <rect
     style="opacity:0.99999999;fill:#ffffff;fill-opacity:1;stroke:none"
     id="rect4365-9"
     width="2.5334771"
     height="5.2643652"
     x="-306.08832"
     y="52.450489"
     transform="matrix(0.63512858,-0.77240642,0.77240642,0.63512858,0,0)" />
  <rect
     style="opacity:0.99999999;fill:#ffffff;fill-opacity:1;stroke:none"
     id="rect4365-6"
     width="4.7689657"
     height="3.8151727"
     x="-272.20944"
     y="93.000626"
     transform="matrix(0.69271189,-0.72121442,0.72121442,0.69271189,0,0)" />
  <text
     xml:space="preserve"
     style="font-size:10px;font-style:normal;font-variant:normal;font-weight:normal;font-stretch:normal;text-indent:0;text-align:start;text-decoration:none;line-height:125%;letter-spacing:0px;word-spacing:0px;text-transform:none;direction:ltr;block-progression:tb;writing-mode:lr-tb;text-anchor:start;baseline-shift:baseline;color:#000000;fill:#000000;fill-opacity:1;fill-rule:nonzero;stroke:none;stroke-width:1px;marker:none;visibility:visible;display:inline;overflow:visible;enable-background:accumulate;font-family:FreeSans;-inkscape-font-specification:FreeSans"
     x="-12.950411"
     y="178.1864"
     id="text4682"
     sodipodi:linespacing="125%"><tspan
       sodipodi:role="line"
       id="tspan4684"
       x="-12.950411"
       y="178.1864">1</tspan></text>
  <text
     xml:space="preserve"
     style="font-size:10px;font-style:normal;font-variant:normal;font-weight:normal;font-stretch:normal;text-indent:0;text-align:start;text-decoration:none;line-height:125%;letter-spacing:0px;word-spacing:0px;text-transform:none;direction:ltr;block-progression:tb;writing-mode:lr-tb;text-anchor:start;baseline-shift:baseline;color:#000000;fill:#000000;fill-opacity:1;fill-rule:nonzero;stroke:none;stroke-width:1px;marker:none;visibility:visible;display:inline;overflow:visible;enable-background:accumulate;font-family:FreeSans;-inkscape-font-specification:FreeSans"
     x="-12.950411"
     y="334.82477"
     id="text4686"
     sodipodi:linespacing="125%"><tspan
       sodipodi:role="line"
       id="tspan4688"
       x="-12.950411"
       y="334.82477">2</tspan></text>
</svg>
