<?xml version="1.0" encoding="UTF-8" standalone="no"?>
<!-- Created with Inkscape (http://www.inkscape.org/) -->
<svg
   xmlns:dc="http://purl.org/dc/elements/1.1/"
   xmlns:cc="http://creativecommons.org/ns#"
   xmlns:rdf="http://www.w3.org/1999/02/22-rdf-syntax-ns#"
   xmlns:svg="http://www.w3.org/2000/svg"
   xmlns="http://www.w3.org/2000/svg"
   xmlns:sodipodi="http://sodipodi.sourceforge.net/DTD/sodipodi-0.dtd"
   xmlns:inkscape="http://www.inkscape.org/namespaces/inkscape"
   width="744.09448819"
   height="1052.3622047"
   id="svg2"
   sodipodi:version="0.32"
   inkscape:version="0.46"
   sodipodi:docname="nonlinearity.svg"
   inkscape:output_extension="org.inkscape.output.svg.inkscape">
  <defs
     id="defs4">
    <inkscape:perspective
       sodipodi:type="inkscape:persp3d"
       inkscape:vp_x="0 : 526.18109 : 1"
       inkscape:vp_y="0 : 1000 : 0"
       inkscape:vp_z="744.09448 : 526.18109 : 1"
       inkscape:persp3d-origin="372.04724 : 350.78739 : 1"
       id="perspective10" />
  </defs>
  <sodipodi:namedview
     id="base"
     pagecolor="#ffffff"
     bordercolor="#666666"
     borderopacity="1.0"
     gridtolerance="10000"
     guidetolerance="10"
     objecttolerance="10"
     inkscape:pageopacity="0.0"
     inkscape:pageshadow="2"
     inkscape:zoom="1.5739098"
     inkscape:cx="129.08722"
     inkscape:cy="580.18837"
     inkscape:document-units="px"
     inkscape:current-layer="layer1"
     showgrid="false"
     inkscape:window-width="1278"
     inkscape:window-height="996"
     inkscape:window-x="3"
     inkscape:window-y="7" />
  <metadata
     id="metadata7">
    <rdf:RDF>
      <cc:Work
         rdf:about="">
        <dc:format>image/svg+xml</dc:format>
        <dc:type
           rdf:resource="http://purl.org/dc/dcmitype/StillImage" />
      </cc:Work>
    </rdf:RDF>
  </metadata>
  <g
     inkscape:label="Layer 1"
     inkscape:groupmode="layer"
     id="layer1">
    <rect
       style="fill:#dedede;fill-opacity:1;fill-rule:evenodd;stroke:none;stroke-width:0.53544941pt;stroke-linecap:butt;stroke-linejoin:miter;stroke-opacity:1"
       id="rect2383"
       width="184.25197"
       height="247.2475"
       x="4.9446044"
       y="337.86758" />
    <path
       style="fill:#ffffff;fill-opacity:1;stroke:#000000;stroke-width:1.25;stroke-miterlimit:4;stroke-dasharray:none;stroke-dashoffset:0;stroke-opacity:1"
       d="M 53.19247,345.89095 C 67.99774,345.90761 80.03622,357.95681 80.03622,372.76595 C 80.03622,385.92612 70.53837,396.85205 58.03622,399.14095 L 57.44247,398.7972 C 57.44247,398.7972 57.81229,393.65429 57.56747,391.32845 C 57.32264,389.00261 55.97373,388.73469 55.97372,388.7347 L 55.72372,384.20345 C 55.72372,384.20345 55.97373,378.96399 55.97372,377.9847 C 55.97372,377.0054 56.71338,372.47695 56.22372,372.1097 C 55.73407,371.74247 54.27307,370.61766 55.12997,369.51595 C 55.98686,368.41423 54.12997,361.82845 54.12997,361.82845 L 55.00497,356.6722 L 56.22372,353.1097 L 52.66122,351.1722 L 53.19247,345.89095 z"
       id="path2384" />
    <path
       style="fill:#ffffff;fill-opacity:1;stroke:#000000;stroke-width:1.25;stroke-miterlimit:4;stroke-dasharray:none;stroke-dashoffset:0;stroke-opacity:1"
       d="M 45.981309,346.22362 L 47.075059,350.72362 L 47.231309,354.75487 C 47.231299,354.75487 50.609459,357.459 50.106309,358.12987 C 49.603159,358.80072 48.765709,358.61097 48.262559,361.62987 C 47.759399,364.64878 47.060449,364.49227 47.731309,366.50487 C 48.402189,368.51746 49.762559,369.17145 49.762559,370.84862 C 49.762569,372.52578 49.762559,373.02668 49.762559,374.53612 C 49.762569,376.04556 51.950059,377.41201 51.950059,380.59862 C 51.950059,383.78525 49.918809,385.10379 49.918809,385.94237 C 49.918819,386.78096 50.751089,386.97249 50.918809,388.81737 C 51.086519,390.66227 50.267719,388.30049 51.106309,392.66112 C 51.944899,397.02174 52.274019,396.51836 52.106309,397.69237 C 52.052819,398.06681 52.066849,398.71143 52.106309,399.44237 C 51.566769,399.47475 51.028939,399.53612 50.481309,399.53612 C 35.661899,399.53612 23.637554,387.48053 23.637554,372.66112 C 23.637554,359.37543 33.302409,348.36681 45.981309,346.22362 z"
       id="path2391" />
    <g
       id="g665"
       transform="matrix(-1,0,0,1,146.86267,295.88849)">
      <path
         style="fill:none;stroke:#000000;stroke-width:0.5"
         d="M 49.131,80.8 C 50.659,79.084 51.984,78.977 52.392,78.334 C 52.799,77.69 55.143,75.116 55.754,73.83 C 56.365,72.543 58.199,69.433 58.81,68.896 C 59.421,68.359 60.542,66.858 60.95,66.429 C 61.358,66 62.58,63.748 62.988,63.104 C 63.271,62.658 64.109,61.388 64.618,61.495 C 65.127,61.602 66.044,61.924 66.146,62.46 C 66.248,62.997 66.146,64.391 65.84,64.927 C 65.534,65.463 63.191,69.861 62.987,70.397 C 62.783,70.933 61.968,72.328 61.663,72.971 C 61.357,73.615 61.765,77.047 61.459,77.798 C 61.154,78.548 60.644,79.836 60.033,81.444 C 59.422,83.053 57.893,85.52 56.671,86.27 C 55.448,87.021 50.354,88.201 50.354,88.201"
         id="path667" />
      <path
         style="fill:none;stroke:#000000;stroke-width:0.5"
         d="M 59.83,81.98 C 60.136,81.873 61.358,81.122 62.071,79.942 C 62.784,78.762 63.396,77.475 63.803,76.296 C 64.21,75.116 63.905,74.365 64.312,72.971 C 64.72,71.577 65.535,71.577 65.942,70.505 C 66.349,69.432 67.47,68.682 67.674,68.145 C 67.878,67.609 68.795,66.429 68.795,65.249 C 68.795,64.069 67.267,64.177 66.146,64.069 C 66.146,64.069 67.063,62.46 67.267,61.71 C 67.471,60.959 68.49,59.458 68.795,59.029 C 69.101,58.6 68.999,56.884 68.999,56.348 C 68.999,55.811 67.675,55.704 67.267,55.704 C 66.86,55.704 66.656,56.776 66.248,57.312 C 65.841,57.849 64.72,59.779 64.109,60.958 L 59.931,66.75 L 57.995,69.646"
         id="path669" />
      <path
         style="fill:none;stroke:#000000;stroke-width:0.5"
         d="M 66.86,55.275 C 67.064,54.739 67.573,53.452 68.082,53.345 C 68.592,53.238 69.814,53.238 69.916,54.095 C 70.018,54.953 70.018,55.811 69.407,57.205"
         id="path671" />
      <line
         style="fill:none;stroke:#000000;stroke-width:0.5"
         x1="65.432999"
         y1="68.467003"
         x2="66.146004"
         y2="69.431999"
         id="line673" />
      <path
         style="fill:none;stroke:#000000;stroke-width:0.5"
         d="M 51.271,81.229 C 52.188,82.516 51.984,84.232 51.984,84.232"
         id="path675" />
      <line
         style="fill:none;stroke:#000000;stroke-width:0.5"
         x1="64.415001"
         y1="72.542"
         x2="63.498001"
         y2="72.005997"
         id="line677" />
      <line
         style="fill:none;stroke:#000000;stroke-width:0.5"
         x1="61.358002"
         y1="81.122002"
         x2="57.792"
         y2="85.412003"
         id="line679" />
    </g>
    <g
       id="g681"
       transform="matrix(-1,0,0,1,125.19126,312.40004)">
      <path
         style="fill:none;stroke:#000000;stroke-width:0.5"
         d="M 109.24,91.223 C 108.153,90.183 107.165,89.767 106.474,88.415 C 105.782,87.063 104.102,83.527 104.004,83.111 C 103.906,82.695 103.016,79.263 103.016,79.263 C 103.016,79.263 101.929,77.079 101.633,76.767 C 101.337,76.455 99.657,74.687 99.46,74.167 C 99.263,73.647 99.658,71.983 99.658,71.983 L 101.041,71.671 C 101.041,71.671 102.721,72.192 103.017,72.607 C 103.313,73.023 104.598,73.855 104.696,74.375 C 104.795,74.895 105.783,76.975 105.783,76.975"
         id="path683" />
      <polyline
         style="fill:none;stroke:#000000;stroke-width:0.5"
         points="104.399,73.855 103.609,68.967 102.423,64.911       101.831,61.063 101.633,58.775 102.028,57.319 102.917,57.215 "
         id="polyline685" />
      <path
         style="fill:none;stroke:#000000;stroke-width:0.5"
         d="M 106.079,71.775 L 105.19,66.679 L 104.103,62.623 L 102.918,59.087 L 103.115,56.279 C 103.115,56.279 103.708,54.927 104.597,55.031 C 105.218,55.103 105.98,56.279 105.98,56.279 L 106.079,57.631"
         id="path687" />
      <path
         style="fill:none;stroke:#000000;stroke-width:0.5"
         d="M 106.869,68.759 L 105.782,64.391 L 104.596,60.335 C 104.596,60.335 104.497,58.255 105.09,58.047 C 105.683,57.839 106.671,57.527 106.967,57.943 C 107.263,58.359 107.758,58.671 107.856,59.399 C 107.955,60.127 108.548,62.103 108.548,62.103 L 108.943,63.975"
         id="path689" />
      <polyline
         style="fill:none;stroke:#000000;stroke-width:0.5"
         points="108.746,72.919 108.252,70.111 107.561,66.471       107.956,64.599 109.734,64.08 110.624,65.223 110.821,67.095 111.315,70.215 112.105,73.231 113.291,76.455 116.65,83.215       118.33,90.911 "
         id="polyline691" />
      <line
         style="fill:none;stroke:#000000;stroke-width:0.5"
         x1="102.127"
         y1="76.974998"
         x2="103.51"
         y2="76.247002"
         id="line693" />
    </g>
    <g
       id="g4053"
       transform="matrix(0.9662646,-0.2575515,0.2575515,0.9662646,-117.38573,135.79559)">
      <path
         transform="matrix(0.5653603,0,0,0.5653603,239.68891,156.33123)"
         d="M -123.33201,382.28027 A 47.486118,47.486118 0 1 1 -218.30425,382.28027 A 47.486118,47.486118 0 1 1 -123.33201,382.28027 z"
         sodipodi:ry="47.486118"
         sodipodi:rx="47.486118"
         sodipodi:cy="382.28027"
         sodipodi:cx="-170.81813"
         id="path2380"
         style="fill:#ffffff;fill-opacity:1;stroke:#000000;stroke-width:2.21097946;stroke-miterlimit:4;stroke-dasharray:none;stroke-dashoffset:0;stroke-opacity:1"
         sodipodi:type="arc" />
      <path
         id="path4051"
         d="M 143.52152,346.13774 L 143.16946,350.83182 L 140.93977,352.82681 C 140.93977,352.82681 139.06214,356.23002 140.23566,358.34235 C 141.40918,360.45469 142.11329,359.75058 142.11329,361.98026 C 142.11329,364.20995 140.58772,374.06752 140.58772,374.06752 L 142.5827,378.17484 C 142.5827,378.17484 140.93977,380.28718 140.93977,380.99129 C 140.93977,381.6954 141.29183,382.28216 141.40918,383.10363 C 141.52653,383.92509 142.11329,388.26712 142.348,388.97123 C 142.5827,389.67534 140.11831,393.66531 140.35301,394.25207 C 140.58772,394.83883 142.93476,398.59409 142.93476,398.59409"
         style="fill:none;fill-rule:evenodd;stroke:#000000;stroke-width:1px;stroke-linecap:butt;stroke-linejoin:miter;stroke-opacity:1" />
    </g>
    <g
       id="g4928"
       transform="translate(-78.149331,-27.955858)">
      <path
         style="fill:none;stroke:#000000;stroke-width:0.87499994;stroke-miterlimit:4;stroke-dasharray:none"
         d="M 225.26549,477.54663 C 226.0711,479.143 226.30442,479.53659 226.51333,479.8845 C 226.72193,480.23248 226.81055,480.29921 226.87783,480.37198 C 226.94509,480.44473 227.0817,480.53742 227.15392,480.50396 C 227.22615,480.47048 227.29338,480.39891 227.315,480.24846 C 227.33661,480.09799 227.37,479.86551 227.36977,479.61605 C 227.36936,479.36699 227.37383,479.15573 227.34233,478.69205 C 227.31055,478.22846 227.34375,478.42908 227.21347,476.99626"
         id="path5014" />
      <path
         style="fill:none;stroke:#000000;stroke-width:0.87499994;stroke-miterlimit:4;stroke-dasharray:none"
         d="M 227.2173,476.99618 C 227.07003,475.21349 227.0634,474.75617 227.05973,474.35028 C 227.05607,473.94439 227.09675,473.84112 227.1157,473.74367 C 227.13503,473.64645 227.20307,473.49593 227.2821,473.48666 C 227.36094,473.47778 227.45556,473.50329 227.55287,473.62015 C 227.65018,473.737 227.7998,473.91779 227.92991,474.13054 C 228.06004,474.3433 228.17391,474.52111 228.3892,474.93253 C 228.60427,475.34432 228.52777,475.15595 229.16521,476.44548"
         id="path5016" />
      <path
         style="fill:none;stroke:#000000;stroke-width:0.87499994;stroke-miterlimit:4;stroke-dasharray:none"
         d="M 229.1689,476.44376 C 229.9745,478.04013 230.20782,478.43371 230.41672,478.78162 C 230.62563,479.12952 230.71425,479.19625 230.78122,479.26909 C 230.8485,479.34185 230.98511,479.43454 231.05732,479.40107 C 231.12925,479.36769 231.19648,479.29611 231.2184,479.14557 C 231.24031,478.99502 231.2734,478.76263 231.27317,478.51317 C 231.27305,478.26403 231.27723,478.05285 231.24573,477.58917 C 231.21395,477.12558 231.24715,477.32619 231.11718,475.89329"
         id="path5018" />
      <path
         style="fill:none;stroke:#000000;stroke-width:0.87499994;stroke-miterlimit:4;stroke-dasharray:none"
         d="M 231.12101,475.89322 C 230.97372,474.11051 230.9671,473.65323 230.96313,473.2474 C 230.95947,472.84151 231.00016,472.73825 231.01911,472.64079 C 231.03844,472.54356 231.10647,472.39305 231.1855,472.38377 C 231.26464,472.37481 231.35896,472.40041 231.45628,472.51728 C 231.55359,472.63413 231.70349,472.81482 231.83332,473.02766 C 231.96315,473.24049 232.07731,473.41823 232.2926,473.82963 C 232.50789,474.24106 232.43147,474.05298 233.0689,475.34252"
         id="path5020" />
      <path
         style="fill:none;stroke:#000000;stroke-width:0.87499994;stroke-miterlimit:4;stroke-dasharray:none"
         d="M 233.07229,475.3409 C 233.8779,476.93725 234.11122,477.33083 234.31983,477.67883 C 234.52844,478.02682 234.61736,478.09347 234.68433,478.1663 C 234.7516,478.23905 234.8885,478.33166 234.96044,478.29828 C 235.03265,478.2648 235.09989,478.19324 235.12151,478.04278 C 235.14312,477.89232 235.1768,477.65974 235.17628,477.41038 C 235.17586,477.16131 235.18033,476.95006 235.14885,476.48639 C 235.11736,476.02271 235.15055,476.22331 235.02028,474.7905"
         id="path5022" />
      <path
         style="fill:none;stroke:#000000;stroke-width:0.87499994;stroke-miterlimit:4;stroke-dasharray:none"
         d="M 235.02441,474.79033 C 234.87713,473.00764 234.8705,472.55034 234.86683,472.14444 C 234.86287,471.73863 234.90385,471.6353 234.9228,471.53782 C 234.94213,471.44061 235.01016,471.29009 235.08921,471.28082 C 235.16834,471.27187 235.26296,471.29737 235.35997,471.4143 C 235.45699,471.53126 235.6069,471.71194 235.73702,471.9247 C 235.86714,472.13744 235.98102,472.31528 236.1963,472.72669 C 236.41168,473.13841 236.33517,472.95003 236.97261,474.23954"
         id="path5024" />
      <path
         style="fill:none;stroke:#000000;stroke-width:0.87499994;stroke-miterlimit:4;stroke-dasharray:none"
         d="M 236.97599,474.23793 C 237.7816,475.83428 238.01492,476.22787 238.22382,476.57577 C 238.43273,476.92368 238.52135,476.99041 238.58832,477.06324 C 238.6556,477.13601 238.79221,477.22871 238.86443,477.19524 C 238.93665,477.16177 239.00389,477.0902 239.0255,476.93974 C 239.04712,476.78926 239.0805,476.55679 239.08029,476.30733 C 239.07985,476.05826 239.08433,475.84702 239.05283,475.38333 C 239.02105,474.91976 239.05425,475.12037 238.92398,473.68753"
         id="path5026" />
      <path
         style="fill:none;stroke:#000000;stroke-width:0.87499994;stroke-miterlimit:4;stroke-dasharray:none"
         d="M 238.92781,473.68746 C 238.78053,471.90477 238.7739,471.44745 238.77023,471.04156 C 238.76657,470.63567 238.80725,470.53242 238.82621,470.43495 C 238.84554,470.33772 238.91357,470.18721 238.99262,470.17793 C 239.07144,470.16906 239.16606,470.19457 239.26337,470.31144 C 239.36069,470.42828 239.5103,470.60906 239.64042,470.82183 C 239.77025,471.03465 239.88442,471.2124 240.0997,471.6238 C 240.31478,472.03561 240.23827,471.84723 240.876,473.13667"
         id="path5028" />
      <path
         style="fill:none;stroke:#000000;stroke-width:0.87499994;stroke-miterlimit:4;stroke-dasharray:none"
         d="M 240.8794,473.13505 C 241.68501,474.73139 241.91832,475.12499 242.12693,475.47298 C 242.33554,475.82098 242.42446,475.88761 242.49144,475.96046 C 242.5587,476.03322 242.69532,476.12591 242.76753,476.09244 C 242.83945,476.05906 242.9067,475.98748 242.92861,475.83694 C 242.95052,475.6864 242.9839,475.45391 242.98339,475.20453 C 242.98297,474.95548 242.98743,474.74423 242.95594,474.28054 C 242.92446,473.81686 242.95766,474.01748 242.82738,472.58466"
         id="path5030" />
      <path
         style="fill:none;stroke:#000000;stroke-width:0.87499994;stroke-miterlimit:4;stroke-dasharray:none"
         d="M 242.8315,472.5845 C 242.68423,470.8018 242.6776,470.3445 242.67363,469.93869 C 242.66997,469.53279 242.71066,469.42952 242.72961,469.33208 C 242.74895,469.23485 242.81698,469.08433 242.89601,469.07507 C 242.97514,469.06611 243.06976,469.09162 243.16677,469.20856 C 243.2638,469.32549 243.414,469.50611 243.54382,469.71894 C 243.67365,469.93178 243.78782,470.10952 244.00311,470.52093 C 244.21847,470.93264 244.14198,470.74427 244.77941,472.0338"
         id="path5032" />
      <path
         style="fill:none;stroke:#000000;stroke-width:0.87499994;stroke-miterlimit:4;stroke-dasharray:none"
         d="M 244.78651,472.05952 C 245.59212,473.65589 245.82544,474.04948 246.03434,474.39739 C 246.24295,474.74537 246.33157,474.8121 246.39885,474.88487 C 246.46611,474.95762 246.60272,475.05031 246.67494,475.01685 C 246.74717,474.98337 246.8144,474.9118 246.83602,474.76135 C 246.85763,474.61088 246.89102,474.3784 246.89079,474.12894 C 246.89038,473.87988 246.89485,473.66862 246.86335,473.20494 C 246.83157,472.74135 246.86477,472.94197 246.73449,471.50914"
         id="path5034" />
      <path
         id="path5098"
         d="M 244.97345,472.40207 L 244.49821,471.4766"
         style="fill:none;fill-opacity:1;fill-rule:evenodd;stroke:#000000;stroke-width:0.87499994;stroke-linecap:butt;stroke-linejoin:miter;marker:none;marker-start:none;marker-mid:none;marker-end:none;stroke-miterlimit:4;stroke-dasharray:none;stroke-dashoffset:0;stroke-opacity:1;visibility:visible;display:inline;overflow:visible;enable-background:accumulate" />
    </g>
    <g
       id="g4942"
       transform="matrix(0.7862175,-0.6179499,0.6179499,0.7862175,-382.43179,267.11027)">
      <path
         style="fill:none;stroke:#000000;stroke-width:0.87499994;stroke-miterlimit:4;stroke-dasharray:none"
         d="M 225.26549,477.54663 C 226.0711,479.143 226.30442,479.53659 226.51333,479.8845 C 226.72193,480.23248 226.81055,480.29921 226.87783,480.37198 C 226.94509,480.44473 227.0817,480.53742 227.15392,480.50396 C 227.22615,480.47048 227.29338,480.39891 227.315,480.24846 C 227.33661,480.09799 227.37,479.86551 227.36977,479.61605 C 227.36936,479.36699 227.37383,479.15573 227.34233,478.69205 C 227.31055,478.22846 227.34375,478.42908 227.21347,476.99626"
         id="path4944" />
      <path
         style="fill:none;stroke:#000000;stroke-width:0.87499994;stroke-miterlimit:4;stroke-dasharray:none"
         d="M 227.2173,476.99618 C 227.07003,475.21349 227.0634,474.75617 227.05973,474.35028 C 227.05607,473.94439 227.09675,473.84112 227.1157,473.74367 C 227.13503,473.64645 227.20307,473.49593 227.2821,473.48666 C 227.36094,473.47778 227.45556,473.50329 227.55287,473.62015 C 227.65018,473.737 227.7998,473.91779 227.92991,474.13054 C 228.06004,474.3433 228.17391,474.52111 228.3892,474.93253 C 228.60427,475.34432 228.52777,475.15595 229.16521,476.44548"
         id="path4946" />
      <path
         style="fill:none;stroke:#000000;stroke-width:0.87499994;stroke-miterlimit:4;stroke-dasharray:none"
         d="M 229.1689,476.44376 C 229.9745,478.04013 230.20782,478.43371 230.41672,478.78162 C 230.62563,479.12952 230.71425,479.19625 230.78122,479.26909 C 230.8485,479.34185 230.98511,479.43454 231.05732,479.40107 C 231.12925,479.36769 231.19648,479.29611 231.2184,479.14557 C 231.24031,478.99502 231.2734,478.76263 231.27317,478.51317 C 231.27305,478.26403 231.27723,478.05285 231.24573,477.58917 C 231.21395,477.12558 231.24715,477.32619 231.11718,475.89329"
         id="path4948" />
      <path
         style="fill:none;stroke:#000000;stroke-width:0.87499994;stroke-miterlimit:4;stroke-dasharray:none"
         d="M 231.12101,475.89322 C 230.97372,474.11051 230.9671,473.65323 230.96313,473.2474 C 230.95947,472.84151 231.00016,472.73825 231.01911,472.64079 C 231.03844,472.54356 231.10647,472.39305 231.1855,472.38377 C 231.26464,472.37481 231.35896,472.40041 231.45628,472.51728 C 231.55359,472.63413 231.70349,472.81482 231.83332,473.02766 C 231.96315,473.24049 232.07731,473.41823 232.2926,473.82963 C 232.50789,474.24106 232.43147,474.05298 233.0689,475.34252"
         id="path4950" />
      <path
         style="fill:none;stroke:#000000;stroke-width:0.87499994;stroke-miterlimit:4;stroke-dasharray:none"
         d="M 233.07229,475.3409 C 233.8779,476.93725 234.11122,477.33083 234.31983,477.67883 C 234.52844,478.02682 234.61736,478.09347 234.68433,478.1663 C 234.7516,478.23905 234.8885,478.33166 234.96044,478.29828 C 235.03265,478.2648 235.09989,478.19324 235.12151,478.04278 C 235.14312,477.89232 235.1768,477.65974 235.17628,477.41038 C 235.17586,477.16131 235.18033,476.95006 235.14885,476.48639 C 235.11736,476.02271 235.15055,476.22331 235.02028,474.7905"
         id="path4952" />
      <path
         style="fill:none;stroke:#000000;stroke-width:0.87499994;stroke-miterlimit:4;stroke-dasharray:none"
         d="M 235.02441,474.79033 C 234.87713,473.00764 234.8705,472.55034 234.86683,472.14444 C 234.86287,471.73863 234.90385,471.6353 234.9228,471.53782 C 234.94213,471.44061 235.01016,471.29009 235.08921,471.28082 C 235.16834,471.27187 235.26296,471.29737 235.35997,471.4143 C 235.45699,471.53126 235.6069,471.71194 235.73702,471.9247 C 235.86714,472.13744 235.98102,472.31528 236.1963,472.72669 C 236.41168,473.13841 236.33517,472.95003 236.97261,474.23954"
         id="path4954" />
      <path
         style="fill:none;stroke:#000000;stroke-width:0.87499994;stroke-miterlimit:4;stroke-dasharray:none"
         d="M 236.97599,474.23793 C 237.7816,475.83428 238.01492,476.22787 238.22382,476.57577 C 238.43273,476.92368 238.52135,476.99041 238.58832,477.06324 C 238.6556,477.13601 238.79221,477.22871 238.86443,477.19524 C 238.93665,477.16177 239.00389,477.0902 239.0255,476.93974 C 239.04712,476.78926 239.0805,476.55679 239.08029,476.30733 C 239.07985,476.05826 239.08433,475.84702 239.05283,475.38333 C 239.02105,474.91976 239.05425,475.12037 238.92398,473.68753"
         id="path4956" />
      <path
         style="fill:none;stroke:#000000;stroke-width:0.87499994;stroke-miterlimit:4;stroke-dasharray:none"
         d="M 238.92781,473.68746 C 238.78053,471.90477 238.7739,471.44745 238.77023,471.04156 C 238.76657,470.63567 238.80725,470.53242 238.82621,470.43495 C 238.84554,470.33772 238.91357,470.18721 238.99262,470.17793 C 239.07144,470.16906 239.16606,470.19457 239.26337,470.31144 C 239.36069,470.42828 239.5103,470.60906 239.64042,470.82183 C 239.77025,471.03465 239.88442,471.2124 240.0997,471.6238 C 240.31478,472.03561 240.23827,471.84723 240.876,473.13667"
         id="path4958" />
      <path
         style="fill:none;stroke:#000000;stroke-width:0.87499994;stroke-miterlimit:4;stroke-dasharray:none"
         d="M 240.8794,473.13505 C 241.68501,474.73139 241.91832,475.12499 242.12693,475.47298 C 242.33554,475.82098 242.42446,475.88761 242.49144,475.96046 C 242.5587,476.03322 242.69532,476.12591 242.76753,476.09244 C 242.83945,476.05906 242.9067,475.98748 242.92861,475.83694 C 242.95052,475.6864 242.9839,475.45391 242.98339,475.20453 C 242.98297,474.95548 242.98743,474.74423 242.95594,474.28054 C 242.92446,473.81686 242.95766,474.01748 242.82738,472.58466"
         id="path4960" />
      <path
         style="fill:none;stroke:#000000;stroke-width:0.87499994;stroke-miterlimit:4;stroke-dasharray:none"
         d="M 242.8315,472.5845 C 242.68423,470.8018 242.6776,470.3445 242.67363,469.93869 C 242.66997,469.53279 242.71066,469.42952 242.72961,469.33208 C 242.74895,469.23485 242.81698,469.08433 242.89601,469.07507 C 242.97514,469.06611 243.06976,469.09162 243.16677,469.20856 C 243.2638,469.32549 243.414,469.50611 243.54382,469.71894 C 243.67365,469.93178 243.78782,470.10952 244.00311,470.52093 C 244.21847,470.93264 244.14198,470.74427 244.77941,472.0338"
         id="path4962" />
      <path
         style="fill:none;stroke:#000000;stroke-width:0.87499994;stroke-miterlimit:4;stroke-dasharray:none"
         d="M 244.78651,472.05952 C 245.59212,473.65589 245.82544,474.04948 246.03434,474.39739 C 246.24295,474.74537 246.33157,474.8121 246.39885,474.88487 C 246.46611,474.95762 246.60272,475.05031 246.67494,475.01685 C 246.74717,474.98337 246.8144,474.9118 246.83602,474.76135 C 246.85763,474.61088 246.89102,474.3784 246.89079,474.12894 C 246.89038,473.87988 246.89485,473.66862 246.86335,473.20494 C 246.83157,472.74135 246.86477,472.94197 246.73449,471.50914"
         id="path4964" />
      <path
         id="path4966"
         d="M 244.97345,472.40207 L 244.49821,471.4766"
         style="fill:none;fill-opacity:1;fill-rule:evenodd;stroke:#000000;stroke-width:0.87499994;stroke-linecap:butt;stroke-linejoin:miter;marker:none;marker-start:none;marker-mid:none;marker-end:none;stroke-miterlimit:4;stroke-dasharray:none;stroke-dashoffset:0;stroke-opacity:1;visibility:visible;display:inline;overflow:visible;enable-background:accumulate" />
    </g>
    <g
       id="g4968"
       transform="matrix(-0.6974494,-0.716634,0.716634,-0.6974494,-97.229106,938.07793)"
       inkscape:transform-center-x="19.060812"
       inkscape:transform-center-y="7.9377988">
      <path
         style="fill:none;stroke:#000000;stroke-width:0.87499994;stroke-miterlimit:4;stroke-dasharray:none"
         d="M 225.26549,477.54663 C 226.0711,479.143 226.30442,479.53659 226.51333,479.8845 C 226.72193,480.23248 226.81055,480.29921 226.87783,480.37198 C 226.94509,480.44473 227.0817,480.53742 227.15392,480.50396 C 227.22615,480.47048 227.29338,480.39891 227.315,480.24846 C 227.33661,480.09799 227.37,479.86551 227.36977,479.61605 C 227.36936,479.36699 227.37383,479.15573 227.34233,478.69205 C 227.31055,478.22846 227.34375,478.42908 227.21347,476.99626"
         id="path4970" />
      <path
         style="fill:none;stroke:#000000;stroke-width:0.87499994;stroke-miterlimit:4;stroke-dasharray:none"
         d="M 227.2173,476.99618 C 227.07003,475.21349 227.0634,474.75617 227.05973,474.35028 C 227.05607,473.94439 227.09675,473.84112 227.1157,473.74367 C 227.13503,473.64645 227.20307,473.49593 227.2821,473.48666 C 227.36094,473.47778 227.45556,473.50329 227.55287,473.62015 C 227.65018,473.737 227.7998,473.91779 227.92991,474.13054 C 228.06004,474.3433 228.17391,474.52111 228.3892,474.93253 C 228.60427,475.34432 228.52777,475.15595 229.16521,476.44548"
         id="path4972" />
      <path
         style="fill:none;stroke:#000000;stroke-width:0.87499994;stroke-miterlimit:4;stroke-dasharray:none"
         d="M 229.1689,476.44376 C 229.9745,478.04013 230.20782,478.43371 230.41672,478.78162 C 230.62563,479.12952 230.71425,479.19625 230.78122,479.26909 C 230.8485,479.34185 230.98511,479.43454 231.05732,479.40107 C 231.12925,479.36769 231.19648,479.29611 231.2184,479.14557 C 231.24031,478.99502 231.2734,478.76263 231.27317,478.51317 C 231.27305,478.26403 231.27723,478.05285 231.24573,477.58917 C 231.21395,477.12558 231.24715,477.32619 231.11718,475.89329"
         id="path4974" />
      <path
         style="fill:none;stroke:#000000;stroke-width:0.87499994;stroke-miterlimit:4;stroke-dasharray:none"
         d="M 231.12101,475.89322 C 230.97372,474.11051 230.9671,473.65323 230.96313,473.2474 C 230.95947,472.84151 231.00016,472.73825 231.01911,472.64079 C 231.03844,472.54356 231.10647,472.39305 231.1855,472.38377 C 231.26464,472.37481 231.35896,472.40041 231.45628,472.51728 C 231.55359,472.63413 231.70349,472.81482 231.83332,473.02766 C 231.96315,473.24049 232.07731,473.41823 232.2926,473.82963 C 232.50789,474.24106 232.43147,474.05298 233.0689,475.34252"
         id="path4976" />
      <path
         style="fill:none;stroke:#000000;stroke-width:0.87499994;stroke-miterlimit:4;stroke-dasharray:none"
         d="M 233.07229,475.3409 C 233.8779,476.93725 234.11122,477.33083 234.31983,477.67883 C 234.52844,478.02682 234.61736,478.09347 234.68433,478.1663 C 234.7516,478.23905 234.8885,478.33166 234.96044,478.29828 C 235.03265,478.2648 235.09989,478.19324 235.12151,478.04278 C 235.14312,477.89232 235.1768,477.65974 235.17628,477.41038 C 235.17586,477.16131 235.18033,476.95006 235.14885,476.48639 C 235.11736,476.02271 235.15055,476.22331 235.02028,474.7905"
         id="path4978" />
      <path
         style="fill:none;stroke:#000000;stroke-width:0.87499994;stroke-miterlimit:4;stroke-dasharray:none"
         d="M 235.02441,474.79033 C 234.87713,473.00764 234.8705,472.55034 234.86683,472.14444 C 234.86287,471.73863 234.90385,471.6353 234.9228,471.53782 C 234.94213,471.44061 235.01016,471.29009 235.08921,471.28082 C 235.16834,471.27187 235.26296,471.29737 235.35997,471.4143 C 235.45699,471.53126 235.6069,471.71194 235.73702,471.9247 C 235.86714,472.13744 235.98102,472.31528 236.1963,472.72669 C 236.41168,473.13841 236.33517,472.95003 236.97261,474.23954"
         id="path4980" />
      <path
         style="fill:none;stroke:#000000;stroke-width:0.87499994;stroke-miterlimit:4;stroke-dasharray:none"
         d="M 236.97599,474.23793 C 237.7816,475.83428 238.01492,476.22787 238.22382,476.57577 C 238.43273,476.92368 238.52135,476.99041 238.58832,477.06324 C 238.6556,477.13601 238.79221,477.22871 238.86443,477.19524 C 238.93665,477.16177 239.00389,477.0902 239.0255,476.93974 C 239.04712,476.78926 239.0805,476.55679 239.08029,476.30733 C 239.07985,476.05826 239.08433,475.84702 239.05283,475.38333 C 239.02105,474.91976 239.05425,475.12037 238.92398,473.68753"
         id="path4982" />
      <path
         style="fill:none;stroke:#000000;stroke-width:0.87499994;stroke-miterlimit:4;stroke-dasharray:none"
         d="M 238.92781,473.68746 C 238.78053,471.90477 238.7739,471.44745 238.77023,471.04156 C 238.76657,470.63567 238.80725,470.53242 238.82621,470.43495 C 238.84554,470.33772 238.91357,470.18721 238.99262,470.17793 C 239.07144,470.16906 239.16606,470.19457 239.26337,470.31144 C 239.36069,470.42828 239.5103,470.60906 239.64042,470.82183 C 239.77025,471.03465 239.88442,471.2124 240.0997,471.6238 C 240.31478,472.03561 240.23827,471.84723 240.876,473.13667"
         id="path4984" />
      <path
         style="fill:none;stroke:#000000;stroke-width:0.87499994;stroke-miterlimit:4;stroke-dasharray:none"
         d="M 240.8794,473.13505 C 241.68501,474.73139 241.91832,475.12499 242.12693,475.47298 C 242.33554,475.82098 242.42446,475.88761 242.49144,475.96046 C 242.5587,476.03322 242.69532,476.12591 242.76753,476.09244 C 242.83945,476.05906 242.9067,475.98748 242.92861,475.83694 C 242.95052,475.6864 242.9839,475.45391 242.98339,475.20453 C 242.98297,474.95548 242.98743,474.74423 242.95594,474.28054 C 242.92446,473.81686 242.95766,474.01748 242.82738,472.58466"
         id="path4986" />
      <path
         style="fill:none;stroke:#000000;stroke-width:0.87499994;stroke-miterlimit:4;stroke-dasharray:none"
         d="M 242.8315,472.5845 C 242.68423,470.8018 242.6776,470.3445 242.67363,469.93869 C 242.66997,469.53279 242.71066,469.42952 242.72961,469.33208 C 242.74895,469.23485 242.81698,469.08433 242.89601,469.07507 C 242.97514,469.06611 243.06976,469.09162 243.16677,469.20856 C 243.2638,469.32549 243.414,469.50611 243.54382,469.71894 C 243.67365,469.93178 243.78782,470.10952 244.00311,470.52093 C 244.21847,470.93264 244.14198,470.74427 244.77941,472.0338"
         id="path4988" />
      <path
         style="fill:none;stroke:#000000;stroke-width:0.87499994;stroke-miterlimit:4;stroke-dasharray:none"
         d="M 244.78651,472.05952 C 245.59212,473.65589 245.82544,474.04948 246.03434,474.39739 C 246.24295,474.74537 246.33157,474.8121 246.39885,474.88487 C 246.46611,474.95762 246.60272,475.05031 246.67494,475.01685 C 246.74717,474.98337 246.8144,474.9118 246.83602,474.76135 C 246.85763,474.61088 246.89102,474.3784 246.89079,474.12894 C 246.89038,473.87988 246.89485,473.66862 246.86335,473.20494 C 246.83157,472.74135 246.86477,472.94197 246.73449,471.50914"
         id="path4990" />
      <path
         id="path4992"
         d="M 244.97345,472.40207 L 244.49821,471.4766"
         style="fill:none;fill-opacity:1;fill-rule:evenodd;stroke:#000000;stroke-width:0.87499994;stroke-linecap:butt;stroke-linejoin:miter;marker:none;marker-start:none;marker-mid:none;marker-end:none;stroke-miterlimit:4;stroke-dasharray:none;stroke-dashoffset:0;stroke-opacity:1;visibility:visible;display:inline;overflow:visible;enable-background:accumulate" />
    </g>
    <path
       sodipodi:type="arc"
       style="fill:#ffffff;fill-opacity:1;stroke:#000000;stroke-width:2.21097946;stroke-miterlimit:4;stroke-dasharray:none;stroke-dashoffset:0;stroke-opacity:1"
       id="path4996"
       sodipodi:cx="-170.81813"
       sodipodi:cy="382.28027"
       sodipodi:rx="47.486118"
       sodipodi:ry="47.486118"
       d="M -123.33201,382.28027 A 47.486118,47.486118 0 1 1 -218.30425,382.28027 A 47.486118,47.486118 0 1 1 -123.33201,382.28027 z"
       transform="matrix(0.5462876,-0.1456094,0.1456094,0.5462876,104.36508,316.08439)" />
    <text
       xml:space="preserve"
       style="font-size:10px;font-style:normal;font-variant:normal;font-weight:normal;font-stretch:normal;text-align:start;line-height:125%;writing-mode:lr-tb;text-anchor:start;fill:#000000;fill-opacity:1;stroke:none;stroke-width:1px;stroke-linecap:butt;stroke-linejoin:miter;stroke-opacity:1;font-family:Bitstream Vera Sans;-inkscape-font-specification:Bitstream Vera Sans"
       x="33.038742"
       y="376.33868"
       id="text2440"
       sodipodi:linespacing="125%"><tspan
         sodipodi:role="line"
         id="tspan2442"
         x="33.038742"
         y="376.33868">m</tspan></text>
    <text
       xml:space="preserve"
       style="font-size:10px;font-style:normal;font-variant:normal;font-weight:normal;font-stretch:normal;text-align:start;line-height:125%;writing-mode:lr-tb;text-anchor:start;fill:#000000;fill-opacity:1;stroke:none;stroke-width:1px;stroke-linecap:butt;stroke-linejoin:miter;stroke-opacity:1;font-family:Bitstream Vera Sans;-inkscape-font-specification:Bitstream Vera Sans"
       x="63.536041"
       y="373.16187"
       id="text2444"
       sodipodi:linespacing="125%"><tspan
         sodipodi:role="line"
         id="tspan2446"
         x="63.536041"
         y="373.16187">m</tspan></text>
    <text
       xml:space="preserve"
       style="font-size:10px;font-style:normal;font-variant:normal;font-weight:normal;font-stretch:normal;text-align:start;line-height:125%;writing-mode:lr-tb;text-anchor:start;fill:#000000;fill-opacity:1;stroke:none;stroke-width:1px;stroke-linecap:butt;stroke-linejoin:miter;stroke-opacity:1;font-family:Bitstream Vera Sans;-inkscape-font-specification:Bitstream Vera Sans"
       x="55.276356"
       y="552.96893"
       id="text2448"
       sodipodi:linespacing="125%"><tspan
         sodipodi:role="line"
         id="tspan2450"
         x="55.276356"
         y="552.96893">&lt;2m</tspan></text>
  </g>
</svg>
